<?xml version="1.0" encoding="utf-8"?>
<!-- Generator: Adobe Illustrator 25.4.1, SVG Export Plug-In . SVG Version: 6.00 Build 0)  -->
<svg version="1.1" id="Layer_1" xmlns="http://www.w3.org/2000/svg" xmlns:xlink="http://www.w3.org/1999/xlink" x="0px" y="0px"
	 viewBox="0 0 1801 1441" style="enable-background:new 0 0 1801 1441;" xml:space="preserve">
<style type="text/css">
	.st0{fill:none;}
	.st1{fill:#9B2256;}
	.st2{fill:#C23772;}
	.st3{fill:#F3529E;}
	.st4{fill:#575757;}
	.st5{fill:#8B8B8B;}
	.st6{fill:#3A3A3A;}
	.st7{fill:#E300E7;}
	.st8{fill:#474747;}
	.st9{fill:#3E3E3E;}
</style>
<g>
	<g>
		<path class="st0" d="M1448.67,761.48c-2.26-6.87-7.13-12.52-11.9-17.96c-16.99-19.37-35.87-39.45-59.46-48.37
			c1.78,2.06,3.5,4.16,5.17,6.32c-1.67-2.15-3.39-4.26-5.17-6.32c-4.18-1.58-8.49-2.86-12.98-3.67c4.49,0.81,8.8,2.09,12.98,3.67
			c-26.43-30.58-64.99-50.5-105.29-54.05c-3.66-0.32-7.39-0.5-11.04-0.17c6.73,8.12,12.92,16.08,18.24,22.93
			c4.35,5.6,8.84,11.39,13.96,19.95c0.25,0.42,0.48,0.82,0.72,1.23c6.32,10.77,7.92,16.38,15.24,28.69
			c4.78,8.05,7.94,12.12,11.97,17.95c0,0,16.03,23.21,25.93,45.87c8.31,19.04,3.71,48.1-7.76,73.89
			c19.95-0.43,39.37-7.11,56.99-16.49c17.5-9.32,33.85-21.66,44.78-38.2C1447.92,786.36,1452.56,773.31,1448.67,761.48z"/>
		<path class="st0" d="M916.22,779.54c-9.72-1.21-16.6-3.36-31.91-3.99c-4.21-0.17-4.68-0.05-23.93,0c-2.8,0.01-15.24,0.04-27.92,0
			c-25.91-0.08-25-0.36-29.92,0c-13.38,0.99-13.42,2.59-29.92,3.99c-2.6,0.22-4.92,0.41-7.05,0.57
			c14.01,12.03,27.86,24.27,43.85,33.41c53.96,30.82,129.03,17.67,169.29-29.66c3.39-3.99,6.59-8.21,9.99-12.2
			c-3.63,0.56-7.8,1.19-12.64,1.9C942.98,778.4,926.24,780.79,916.22,779.54z"/>
		<path class="st0" d="M507.19,891.57c0.2-0.49,0.4-0.98,0.59-1.46c-0.56-0.14-1.13-0.28-1.7-0.43
			C506.45,890.31,506.82,890.94,507.19,891.57z"/>
		<path class="st0" d="M1268.99,905.19c18.09,18.53,36.29,36.93,55.53,54.24c4.09-22.99-1.49-46.65-12.56-67.43
			c-9.63,9.2-20.21,15-30.75,15.19C1277.21,907.26,1273.1,906.51,1268.99,905.19z"/>
		<path class="st1" d="M559.47,732.65c4.55-26.14-2.72-56.52-25.17-70.67c-9.86-6.21-21.27-8.37-32.75-7.45
			c-6.6,2.48-11.01,6.54-16.14,11.32c-3.41,3.17-12.9,12.56-19.95,27.92c-5.23,11.41-5.55,18.38-13.96,31.91
			c-1.83,2.94-3.26,4.93-3.99,5.98c-10.31,14.74-21.29,39.81-23.93,51.86c-8.21,37.35,33.33,87.15,73.5,103.12
			c8.42-27.75,19.15-54.8,32.11-80.74C541.03,782.18,554.92,758.79,559.47,732.65z"/>
		<path class="st2" d="M1236.99,657.32c1.19,0.23,2.37,0.47,3.52,0.76c19.7,4.82,37.23,14.68,53.39,26.96
			c-0.24-0.41-0.47-0.8-0.72-1.23c-5.12-8.56-9.62-14.35-13.96-19.95c-5.32-6.85-11.5-14.81-18.24-22.93
			c-2.33,0.21-4.62,0.63-6.85,1.37C1246.57,644.82,1241.05,650.42,1236.99,657.32z"/>
		<path class="st2" d="M1201.82,665.6c-5.67,6.85-6.75,16.61-4.89,25.3c1.86,8.69,6.3,16.59,10.76,24.28
			c6.19,10.69,12.55,21.28,19.02,31.8c-3.76-22.24-2.77-45.48,2.13-67.55c1.67-7.54,4.23-15.44,8.16-22.12
			C1224.28,654.89,1209.91,655.83,1201.82,665.6z"/>
		<path class="st2" d="M1283.93,835.68c-19.5-29.3-38.83-58.71-57.23-88.69c2.75,16.29,8.04,32.06,16.28,46.42
			C1252.8,810.55,1267.12,825.32,1283.93,835.68z"/>
		<path class="st2" d="M1283.93,835.68c3.9,5.85,7.8,11.7,11.7,17.55C1291.73,847.38,1287.83,841.53,1283.93,835.68
			c-16.81-10.36-31.13-25.13-40.96-42.27c-8.24-14.37-13.52-30.13-16.28-46.42c-6.46-10.53-12.82-21.11-19.02-31.8
			c-4.46-7.69-8.9-15.59-10.76-24.28c-1.86-8.7-0.78-18.46,4.89-25.3c8.09-9.77,22.47-10.71,35.17-8.28
			c4.06-6.9,9.58-12.5,17.15-15.01c2.22-0.74,4.52-1.16,6.85-1.37c-22.79-27.48-51.94-56.77-75.51-50.87
			c-11.22,2.81-13.54,11.7-37.9,21.94c-10.99,4.62-17.28,5.66-21.94,5.98c-7.29,0.51-10.69-0.7-17.95,0
			c-7.98,0.77-10.13,3.71-19.95,5.98c0,0-6.97,1.58-13.96,1.99c-17,1-34.62-28.3-45.87-39.89c-31.7-32.64-77.29,8.96-193.47,1.99
			c0,0-57.93-3.47-83.77,11.97c-19.1,11.41-29.92,19.95-29.92,19.95c-5.66,4.47-5.7,4.96-7.98,5.98
			c-11.81,5.31-20.61-3.53-41.88-5.98c-9.66-1.11-7.82,0.71-23.93,0c-21.79-0.97-21.57-4.15-33.91-3.99
			c-1.53,0.02-35.39,0.84-53.85,19.95c-2.3,2.38-5.7,6.43-11.97,9.97c-6.95,3.93-13.44,4.98-19.95,5.98
			c-13.93,2.14-15.83-0.53-23.93,1.99c-0.63,0.2-1.22,0.43-1.81,0.65c11.48-0.92,22.9,1.24,32.75,7.45
			c22.45,14.14,29.72,44.53,25.17,70.67c-4.55,26.14-18.43,49.53-30.29,73.26c-12.96,25.94-23.68,52.99-32.11,80.74
			c3.02,1.2,6.03,2.23,9.01,3.03c-1.69-2.91-3.38-5.82-5.08-8.73c1.69,2.91,3.38,5.82,5.08,8.73c0.57,0.15,1.13,0.29,1.7,0.43
			c25.44-62.74,55.9-129.46,115.33-161.69c52.43-28.43,116.15-23.52,175.06-14.21c58.92,9.31,119.63,22.2,177.42,7.4
			c12.52-3.21,24.93-7.72,37.85-7.87c13.39-0.15,26.35,4.4,38.86,9.17c62.2,23.68,121.86,54.03,177.63,90.36
			c25.82,16.82,51.2,35.3,69.89,59.81c4.52,5.93,8.61,12.28,12.15,18.92c10.75-10.28,20.31-24.81,27.31-40.56
			c-0.17,0-0.33,0.02-0.5,0.02C1319.36,851.77,1300.45,845.86,1283.93,835.68z"/>
		<path class="st1" d="M1347.03,777.55c-9.9-22.67-25.93-45.87-25.93-45.87c-4.03-5.83-7.19-9.9-11.97-17.95
			c-7.31-12.31-8.92-17.92-15.24-28.69c-16.17-12.28-33.69-22.13-53.39-26.96c-1.15-0.28-2.33-0.53-3.52-0.76
			c-3.93,6.68-6.48,14.58-8.16,22.12c-4.9,22.07-5.89,45.31-2.13,67.55c18.4,29.98,37.74,59.4,57.23,88.69
			c16.52,10.18,35.43,16.09,54.85,15.77c0.17,0,0.33-0.01,0.5-0.02C1350.74,825.64,1355.35,796.58,1347.03,777.55z"/>
		<path class="st2" d="M1205.04,841.75c-41.21-37.79-88.15-71.38-142.1-86.05c-20.77-5.65-44.69-7.88-62.27,4.52
			c-4.54,3.2-8.37,7.2-11.98,11.44c20.34-3.13,23.72-3.92,31.24-2.09c6.76,1.64,14.63,4.86,27.92,5.98c10.04,0.85,10.8-0.56,17.95,0
			c12.04,0.95,16.19,5.4,43.88,19.95c7.07,3.72,15.86,8.33,27.92,13.96c13.76,6.42,16.52,7.03,25.93,11.97
			c5.56,2.92,15.87,8.37,25.93,15.96c13.68,10.32,21.21,20.32,25.93,25.93c2.97,3.54,28.4,33.79,53.59,41.88
			C1248.01,883.7,1227.17,862.04,1205.04,841.75z"/>
		<path class="st2" d="M674.96,738.34c-12.08,1.23-23.58,5.8-34.42,11.28c-55.05,27.86-95.22,82.2-108.38,142.27
			c3.87-0.67,7.69-2.05,11.08-4.65c7.58-5.8,6.56-12.64,19.95-27.92c4.43-5.06,6.07-6.06,7.98-9.97c2.7-5.55,3.06-10.5,7.98-15.96
			c3.61-4.01,6.52-3.77,15.96-7.98c10.01-4.46,10.63-7.68,17.95-9.97c4.17-1.31,5.51-1.01,11.97-1.99c0,0,12.2-1.86,23.93-5.98
			c9.52-3.34,8.68-4.94,25.93-13.96c10.01-5.23,16.92-8.16,25.93-11.97c18.67-7.9,22.82-8.14,25.93-7.98
			c8.34,0.44,8.7,3.78,19.95,5.98c6.01,1.18,11.13,1.14,18.88,0.57c-6.01-5.16-12.05-10.29-18.31-15.12
			C726.41,748.91,701.15,735.67,674.96,738.34z"/>
		<path class="st3" d="M1229.93,813.27c-55.76-36.33-115.42-66.68-177.63-90.36c-12.52-4.76-25.47-9.32-38.86-9.17
			c-12.92,0.15-25.33,4.66-37.85,7.87c-57.78,14.81-118.5,1.92-177.42-7.4c-58.92-9.31-122.63-14.23-175.06,14.21
			c-59.44,32.23-89.89,98.95-115.33,161.69c1.86,0.45,3.71,0.85,5.54,1.12c5.18,0.78,12.1,1.82,18.84,0.66
			c13.16-60.06,53.33-114.41,108.38-142.27c10.83-5.48,22.34-10.05,34.42-11.28c26.19-2.67,51.45,10.57,72.29,26.65
			c6.26,4.83,12.3,9.96,18.31,15.12c2.13-0.16,4.45-0.35,7.05-0.57c16.5-1.4,16.54-3,29.92-3.99c4.92-0.36,4-0.08,29.92,0
			c12.68,0.04,25.13,0.01,27.92,0c19.25-0.05,19.72-0.17,23.93,0c15.31,0.63,22.19,2.78,31.91,3.99
			c10.02,1.25,26.76-1.14,59.84-5.98c4.84-0.71,9.01-1.34,12.64-1.9c3.61-4.24,7.44-8.24,11.98-11.44
			c17.59-12.4,41.51-10.17,62.27-4.52c53.95,14.68,100.89,48.27,142.1,86.05c22.13,20.29,42.97,41.95,63.95,63.44
			c4.11,1.32,8.22,2.07,12.22,2c10.54-0.2,21.12-5.99,30.75-15.19c-3.54-6.64-7.62-12.99-12.15-18.92
			C1281.13,848.57,1255.75,830.09,1229.93,813.27z"/>
	</g>
	<g>
		<path class="st0" d="M762.64,614.42c-0.09,0.37-0.19,0.74-0.29,1.1c-1.16,3.95-2.32,7.91-3.48,11.86
			c7.11,4.15,16.18,2.76,23.87-0.19c6.25-2.4,13.09-7.59,11.81-14.16c-0.32-1.66-1.15-3.25-1.79-4.84
			c-12.63,1.26-19.26,2-24.13,3.81C766.23,612.89,764.48,613.72,762.64,614.42z"/>
		<path class="st4" d="M762.64,611.62c-0.46-1.25-2.13-2.1-3.16-1.26c2.06-3.36,3.38-9-0.38-10.17c2.45-2.69,4.9-5.39,7.35-8.08
			c-3.48,0.04-6.97,0.09-10.45,0.13c8.76-5.71,16.34-13.22,22.13-21.93c-5.57-0.41-11.08-1.71-16.24-3.84
			c1.65-2.48,2.64-5.38,2.87-8.34c-2.64-0.23-5.28-0.47-7.93-0.7c-0.05-4.88,6.55-7.78,6.67-12.65c0.06-2.63-1.84-4.88-2.6-7.4
			c-1.71-5.59,2.27-11.18,6-15.69c-2.86-2.22-5.72-4.44-8.58-6.66c5.97-4.93-2.13-16.58,3.54-21.85c-4.5-0.37-8.94-1.4-13.15-3.03
			c1.3-5.89,2.59-11.79,3.89-17.68c0.18-0.82,0.35-1.7,0.03-2.47c-0.46-1.09-1.72-1.56-2.59-2.36c-1.35-1.24-1.64-3.05-1.6-4.95
			c-2.79,4.39-5.38,8.95-7.69,13.71c-5.24,10.8-23.17,48.92-13.96,73.8c4.98,13.45,5.98,20.27,7.98,33.91
			c1.04,7.12,1.2,11.25,0,15.96c-2.28,8.93-7.78,13.45-5.98,15.96c1.12,1.56,3.65,0.32,11.97,0c8.81-0.34,10.16,0.89,15.96,0
			c2.48-0.38,4.27-0.93,5.98-1.57C762.86,613.47,762.96,612.51,762.64,611.62z"/>
		<path class="st5" d="M792.08,603.55c0.32-1.32,1.17-2.43,2-3.5c3.01-3.87,6.02-7.73,9.03-11.6c-3.55,0.32-8.49-0.5-8.54-4.07
			c-0.02-1.18,0.59-2.26,1.19-3.28c2.03-3.47,4.05-6.93,6.08-10.4c2.88-4.93,6.01-10.11,11.06-12.78c-4.76-3.03-9.52-6.06-14.28-9.1
			c0.97-1.73,1.94-3.45,2.91-5.18c-3-0.09-5.7-2.75-5.82-5.75c-0.12-3,2.34-5.88,5.32-6.21c-4.98-0.26-9.97-0.51-14.95-0.77
			c-2.65-0.14-6.21-1.29-5.83-3.92c6.84-7.61,14.96-14.07,23.91-19.04c-2.64-1.55-5.73-2.34-8.79-2.26
			c2.98-3.84,5.96-7.69,8.94-11.53c-2.37,0.96-4.74-2.15-4.14-4.63c0.61-2.48,2.9-4.13,5.07-5.48c2.17-1.35,4.53-2.81,5.44-5.2
			c-2.86,0.11-5.74-0.12-8.55-0.68c5.12-10.17,12.4-19.25,21.23-26.44c-2.62,0.1-5.25,0.19-7.87,0.29
			c10.56-9.44,20.7-19.35,30.39-29.68c-2.04-5.09-4.08-10.19-6.12-15.28c-0.45-1.12-0.91-2.28-0.94-3.49
			c-0.08-3.49,3.12-5.79,5.49-8.51c-38.23,10.38-74.04,33.18-95.92,67.58c-0.03,1.9,0.25,3.71,1.6,4.95
			c0.87,0.8,2.13,1.27,2.59,2.36c0.32,0.77,0.15,1.65-0.03,2.47c-1.3,5.89-2.59,11.79-3.89,17.68c4.21,1.63,8.65,2.66,13.15,3.03
			c-5.67,5.27,2.43,16.92-3.54,21.85c2.86,2.22,5.72,4.44,8.58,6.66c-3.73,4.5-7.71,10.09-6,15.69c0.77,2.52,2.67,4.76,2.6,7.4
			c-0.11,4.88-6.72,7.77-6.67,12.65c2.64,0.23,5.28,0.47,7.93,0.7c-0.22,2.96-1.22,5.87-2.87,8.34c5.17,2.13,10.67,3.43,16.24,3.84
			c-5.78,8.71-13.36,16.22-22.13,21.93c3.48-0.04,6.97-0.09,10.45-0.13c-2.45,2.69-4.9,5.39-7.35,8.08
			c3.76,1.17,2.45,6.81,0.38,10.17c1.03-0.84,2.7,0.02,3.16,1.26c0.33,0.89,0.22,1.86,0,2.8c1.84-0.7,3.59-1.52,5.99-2.41
			c4.87-1.81,11.5-2.55,24.13-3.81C792.14,606.66,791.7,605.13,792.08,603.55z"/>
		<path d="M1010.29,565.48c-0.82,1.66-1.53,3.35-1.94,5.16C1009.16,568.98,1009.79,567.25,1010.29,565.48z"/>
		<path d="M1030.78,490.06c0.46,0.67,0.97,1.31,1.58,1.84C1031.89,491.23,1031.35,490.63,1030.78,490.06z"/>
		<path class="st5" d="M987.84,429.11c1.5,0.76,3.63,0.35,4.63,1.69c1.45,1.94-1.26,4.25-1.97,6.56c-0.7,2.27,1.07,4.95,3.43,5.21
			c-2.31,2.13-4.61,4.26-6.92,6.39c3.57-0.22,6.95,3.12,6.75,6.7c-2.53,0.45-4.95,1.5-7.02,3.03c-0.61,0.45-1.25,1.09-1.15,1.85
			c0.07,0.52,0.48,0.93,0.86,1.29c3.61,3.39,7.22,6.77,10.84,10.16c-2.91-0.73-4.34,3.83-2.91,6.47c1.43,2.64,4.19,4.58,4.82,7.52
			c-1.94,0.72-3.88,1.45-5.82,2.17c5.5,1.83,10.22,5.89,12.86,11.05c0.49,0.95,0.92,1.99,0.87,3.06c-0.16,3.58-4.89,4.75-8.47,4.54
			c1.93,3.91,4.83,7.34,8.37,9.9c1.31,0.53,1.97,2.25,1.37,3.52c-2.13,0.53-4.12,1.58-5.77,3.04c3.6-1.6,7.07,2.64,8.2,6.42
			c-1.49,1.04-2.99,2.08-4.48,3.12c1.41-0.23,2.92,0.29,3.89,1.33c-0.04,0.99-0.81,1.91-1.78,2.11c-0.1,2.08,1.76,3.64,2.88,5.39
			c1.12,1.75,0.81,4.94-1.27,4.93c1.97,6.1,2.02,12.77,0.27,18.93c1.23-2.46,2.73-4.83,3.99-7.28c2.11-4.1,3.55-9.04,1.69-13.26
			c2.23-1.97,4.46-3.93,6.69-5.9c-0.89-1.65-2.24-3.05-3.84-4.01c1.83-2.79,4.57-4.97,7.71-6.11c-2.7-3.48-7.01-5.65-11.42-5.74
			c2.5-2.84,5.74-5.03,9.32-6.27c-3.02-4.4-6.04-8.81-9.06-13.21c1.28-1.67,3.95-1.56,5.73-0.43c1.78,1.13,2.94,2.97,4.28,4.6
			c3.32,4.03,8.02,6.89,13.11,7.99c-6.09-7.8-12.18-15.6-18.28-23.4c-0.52-0.66-1.03-1.32-1.55-1.99c-1.9-2.43-3.79-4.86-5.91-7.09
			c6.46,0.9,13.57,2.21,18.04,6.69c-1.04-1.52-1.69-3.31-1.77-5.16c4.87-2.92,9.53-6.17,14.01-9.65
			c-18.01-24.34-37.81-41.85-56.93-54.43C986.02,424.12,985.12,427.72,987.84,429.11z"/>
		<path class="st4" d="M1061.82,554.16c2.29-9.43,3.61-14.38,3.99-15.96c5.74-23.97-17.92-56.34-21.94-61.83
			c-0.28-0.38-0.56-0.75-0.84-1.12c-4.48,3.49-9.14,6.73-14.01,9.65c0.08,1.84,0.73,3.63,1.77,5.16c0.57,0.57,1.11,1.17,1.58,1.84
			c-0.61-0.54-1.12-1.17-1.58-1.84c-4.47-4.48-11.58-5.79-18.04-6.69c2.12,2.23,4.02,4.66,5.91,7.09c0.52,0.66,1.03,1.32,1.55,1.99
			c6.09,7.8,12.18,15.6,18.28,23.4c-5.1-1.1-9.8-3.97-13.11-7.99c-1.34-1.62-2.5-3.47-4.28-4.6c-1.78-1.13-4.45-1.24-5.73,0.43
			c3.02,4.41,6.04,8.81,9.06,13.21c-3.58,1.24-6.82,3.42-9.32,6.27c4.4,0.09,8.72,2.26,11.42,5.74c-3.13,1.15-5.88,3.32-7.71,6.11
			c1.61,0.96,2.95,2.36,3.84,4.01c-2.23,1.97-4.46,3.93-6.69,5.9c1.86,4.22,0.42,9.16-1.69,13.26c-1.26,2.45-2.77,4.81-3.99,7.28
			c-0.5,1.77-1.13,3.5-1.94,5.16c0.41-1.81,1.11-3.51,1.94-5.16c1.75-6.16,1.7-12.84-0.27-18.93c2.08,0.01,2.39-3.18,1.27-4.93
			c-1.12-1.75-2.99-3.31-2.88-5.39c0.97-0.2,1.74-1.12,1.78-2.11c-0.97-1.04-2.48-1.56-3.89-1.33c1.49-1.04,2.99-2.08,4.48-3.12
			c-1.13-3.78-4.59-8.02-8.2-6.42c1.65-1.45,3.64-2.5,5.77-3.04c0.61-1.27-0.06-2.99-1.37-3.52c-3.53-2.56-6.43-5.99-8.37-9.9
			c3.57,0.21,8.31-0.96,8.47-4.54c0.05-1.07-0.38-2.1-0.87-3.06c-2.64-5.16-7.36-9.22-12.86-11.05c1.94-0.72,3.88-1.45,5.82-2.17
			c-0.63-2.93-3.4-4.88-4.82-7.52c-1.43-2.64,0-7.21,2.91-6.47c-3.61-3.39-7.22-6.77-10.84-10.16c-0.38-0.36-0.79-0.76-0.86-1.29
			c-0.1-0.76,0.54-1.39,1.15-1.85c2.06-1.53,4.49-2.58,7.02-3.03c0.2-3.57-3.18-6.92-6.75-6.7c2.31-2.13,4.61-4.26,6.92-6.39
			c-2.36-0.26-4.13-2.94-3.43-5.21c0.71-2.31,3.41-4.63,1.97-6.56c-1-1.34-3.14-0.93-4.63-1.69c-2.72-1.38-1.82-4.99-1.74-8.29
			c-48.07-31.64-91.82-32.2-91.82-32.2c-16.48-0.21-33.44,1.98-49.96,6.46c-2.37,2.72-5.58,5.03-5.49,8.51
			c0.03,1.21,0.49,2.37,0.94,3.49c2.04,5.09,4.08,10.19,6.12,15.28c-9.68,10.34-19.83,20.24-30.39,29.68
			c2.62-0.1,5.25-0.19,7.87-0.29c-8.83,7.19-16.12,16.26-21.23,26.44c2.81,0.56,5.69,0.79,8.55,0.68c-0.91,2.39-3.27,3.85-5.44,5.2
			c-2.17,1.35-4.47,3-5.07,5.48c-0.61,2.48,1.77,5.6,4.14,4.63c-2.98,3.84-5.96,7.69-8.94,11.53c3.06-0.08,6.14,0.71,8.79,2.26
			c-8.95,4.96-17.07,11.42-23.91,19.04c-0.38,2.63,3.18,3.78,5.83,3.92c4.98,0.26,9.97,0.51,14.95,0.77
			c-2.98,0.33-5.45,3.21-5.32,6.21c0.13,3,2.82,5.66,5.82,5.75c-0.97,1.73-1.94,3.45-2.91,5.18c4.76,3.03,9.52,6.06,14.28,9.1
			c-5.05,2.67-8.18,7.85-11.06,12.78c-2.03,3.47-4.05,6.93-6.08,10.4c-0.59,1.02-1.21,2.1-1.19,3.28c0.05,3.56,4.99,4.39,8.54,4.07
			c-3.01,3.87-6.02,7.73-9.03,11.6c-0.83,1.07-1.69,2.18-2,3.5c-0.38,1.58,0.06,3.11,0.68,4.64c0.59-0.06,1.18-0.12,1.8-0.18
			c21.13-2.09,24.91-1.17,27.92,0c5.68,2.21,5.81,4.21,11.97,7.98c9.38,5.74,18.03,6.53,34.95,7.9c1.64-1.98,3.59-3.71,5.77-5.02
			c0.95-0.57,1.94-1.06,2.95-1.47c-1.24-29.22-2.47-58.44-3.71-87.67c-0.39-9.18-0.78-18.36-0.83-27.55
			c-0.1-15.27,0.73-30.54,0.51-45.81c-0.16-11.07-4.11-24.61-2.35-35.28c10.05,16.64,6.76,40.74,5.97,59.2
			c-1.93,45.29,2.38,90.56,4.89,135.85c1.17-0.19,2.36-0.28,3.56-0.24c4.52,0.14,8.9,4.56,12.61,4.6
			c9.58,0.12,1.91-49.62,1.32-57.33c-2.18-28.74-1.59-57.69,1.76-86.32c0.66,48.59,3.29,97.13,6.05,145.64
			c0.02,0.35,0.01,0.69,0.03,1.04c6.64-0.87,10.58-1.75,18.27-1.55c11.75,0.31,12.03,2.6,19.95,1.99
			c11.51-0.88,12.7-5.88,25.93-7.98c2.51-0.4,2.48-0.22,19.95,0c16.69,0.21,25.03,0.32,27.92,0c12.67-1.39,14.91-3.97,21.94-1.99
			c5.6,1.58,13.92,5.97,13.96,5.98c4.36,2.24,5.69,2.39,5.98,1.99c0.66-0.89-4.19-4.05-5.98-9.97c-1.03-3.41-0.45-5.74,0-9.97
			c0.9-8.5-0.34-9.63,0-17.95C1055.95,581.19,1056.28,576.97,1061.82,554.16z"/>
		<path class="st6" d="M877.69,480.29c0.79-18.46,4.09-42.56-5.97-59.2c-1.76,10.67,2.19,24.21,2.35,35.28
			c0.22,15.27-0.6,30.54-0.51,45.81c0.06,9.19,0.45,18.37,0.83,27.55c1.24,29.22,2.47,58.44,3.71,87.67
			c1.44-0.59,2.94-1.02,4.47-1.26C880.07,570.85,875.76,525.59,877.69,480.29z"/>
		<path class="st0" d="M883.04,624.74c0.17,3.43,0.33,6.86,0.47,10.29c0.28,6.85,0.48,13.85-1.48,20.42
			c-2.08-0.95-2.46-3.68-2.56-5.97c-0.35-8.32-0.7-16.63-1.06-24.95c-2.96-0.17-5.67-0.38-8.07-0.57c-0.33-0.03-0.63-0.05-0.95-0.08
			c-3.05,3.69-4.98,8.32-5.03,13.12c-0.1,10.54,8.75,20.41,19.25,21.44c10.49,1.03,21.1-6.92,23.06-17.28
			c1.1-5.81,1.5-11.74,1.24-17.65c-1.13,0.15-2.34,0.3-3.66,0.44C896.16,624.84,889.13,624.94,883.04,624.74z"/>
		<path class="st0" d="M879.47,649.49c0.1,2.28,0.48,5.02,2.56,5.97c1.96-6.57,1.76-13.57,1.48-20.42
			c-0.14-3.43-0.3-6.86-0.47-10.29c-1.61-0.05-3.15-0.12-4.63-0.2C878.77,632.86,879.12,641.18,879.47,649.49z"/>
		<path class="st4" d="M878.42,624.54c-0.1-2.38-0.2-4.76-0.3-7.14c-1.01,0.42-2,0.9-2.95,1.47c-2.19,1.31-4.13,3.04-5.77,5.02
			c0.32,0.03,0.62,0.05,0.95,0.08C872.75,624.16,875.46,624.37,878.42,624.54z"/>
		<path class="st6" d="M901.84,476.85c-3.35,28.63-3.94,57.58-1.76,86.32c0.58,7.71,8.26,57.45-1.32,57.33
			c-3.71-0.05-8.09-4.47-12.61-4.6c-1.2-0.04-2.39,0.06-3.56,0.24c0.16,2.87,0.31,5.74,0.46,8.6c6.08,0.19,13.12,0.1,21.21-0.78
			c1.33-0.14,2.53-0.29,3.66-0.44c-0.01-0.35-0.01-0.69-0.03-1.04C905.13,573.97,902.49,525.44,901.84,476.85z"/>
		<path class="st6" d="M883.04,624.74c-0.14-2.87-0.3-5.74-0.46-8.6c-1.53,0.24-3.03,0.67-4.47,1.26c0.1,2.38,0.2,4.76,0.3,7.14
			C879.89,624.63,881.43,624.69,883.04,624.74z"/>
	</g>
	<g>
		<path class="st0" d="M1648.78,1320.23c5.05,2.34,10.45,3.84,15.97,4.56c-5.85-2.1-14.23-5.24-24.57-9.44
			C1642.92,1317.18,1645.77,1318.84,1648.78,1320.23z"/>
		<path class="st7" d="M1571.58,1272.24c-15.55,0.62-28.76,11.15-40.14,21.76c-5.41,5.04-11.98,10.44-18.76,12.92
			c-0.24,1.05-0.44,2.09-0.1,3.17c1.36,4.38,9.91,4.83,15.96,5.98c4.66,0.89,4.54,1.58,29.92,15.96
			c22.14,12.54,22.02,11.9,27.92,15.96c4.8,3.3,13,9.3,21.94,17.95c15.15,14.67,29.51,34.14,35.9,43.88
			c2.61,3.98-1.61-1.3,11.97,13.96c2.05,2.3,4.27,4.73,7.98,5.98c1.39,0.47,4.67,1.52,7.98,0c0.62-0.28,3.58-1.64,3.99-3.99
			c0.6-3.43-4.6-6.98-5.98-7.98c-16.31-11.69-51.5-60.06-53.85-83.77c-0.18-1.85-0.12-7.22,0-17.95c0.08-7.13,0.23-11.43,1.99-11.97
			c1.27-0.39,2.33,1.48,5.98,3.99c2.35,1.61,4.26,2.43,7.98,3.99c2.76,1.16,5.39,2.24,7.92,3.27c-10.03-6.69-18.52-15.8-27.56-23.95
			C1601.1,1281.04,1587.06,1271.62,1571.58,1272.24z"/>
		<path class="st7" d="M1761.48,1294.79c-10.31-6.18-23.85-2.74-34.1,3.55s-18.82,15.15-29.48,20.72
			c-10.1,5.28-21.86,7.2-33.15,5.73c6.03,2.16,9.39,3.24,9.39,3.24c10.84,3.47,32.78,10.39,55.85,15.96c16.6,4-0.1-0.87,27.92,1.99
			c2.62,0.27,7.22,0.77,9.97-1.99c2.34-2.35,2.06-5.75,1.99-9.97c-0.16-10.3,0.32-2.31,1.99-25.93c0.09-1.3,0.17-2.47,0.25-3.56
			c-0.56-0.6-1.12-1.2-1.68-1.8C1767.69,1299.81,1764.91,1296.85,1761.48,1294.79z"/>
		<path class="st5" d="M1265.91,879.9c2.02,2.97,3.86,6.13,6.58,8.47c1.72,1.48,3.72,2.57,5.65,3.76
			c7.74,4.8,14.31,11.47,19.02,19.27c7.21,11.96,12.05,28.21,25.65,31.37c2.04,0.47,4.27,0.64,5.93,1.93
			c3.34,2.61,2.28,7.96,0.1,11.59c-2.18,3.63-5.27,7.17-5.1,11.4c9.92,1.98,20.54-2.55,30.16,0.59c12.62,4.12,17.31,22.82,8.12,32.4
			c8.75,3.92,18.47,5.67,28.04,5.06c-0.64,4.76,0.22,9.71,2.44,13.97c10.93-3.82,23.98-0.59,31.87,7.89
			c7.89,8.47,10.18,21.72,5.6,32.35c7.66,0.93,15.85,2.2,21.48,7.49c5.62,5.29,6.6,16.03-0.03,19.97
			c8.29,6.67,19.97,6.67,29.88,10.57c9.9,3.89,18.45,16.7,11.36,24.64c10.69-4.6,21.29,6.2,28,15.71
			c6.7,9.51,17.45,20.23,28.07,15.46c1.7,3.95,2.54,8.27,2.45,12.57c7.11-1.45,10.1,8.39,13.35,14.88
			c5.24,10.45,19.22,15.48,29.92,10.75c1.69,17.41,11.65,33.83,26.3,43.37c8.48,5.52,20.13,12.56,17.06,22.2
			c-0.89,2.8-3.08,5.44-2.49,8.32c0.59,2.86,3.62,4.42,6.3,5.57c6.8,2.93,13.6,5.86,20.4,8.79c-1.16-8.46-14.54-10.69-15.91-19.13
			c-1-6.19,5.29-11.5,5.27-17.77c-0.05-13.05-22.78-12.13-28.68-23.77c-1.93-3.81-1.64-8.31-2.37-12.52
			c-1.63-9.26-8.2-16.76-14.5-23.74c-7.39-8.18-19.79-16.83-28.04-9.53c-2.31-11.04-4.61-22.09-6.92-33.13
			c-7.52,2.49-15.94,2.14-23.22-0.99c3.6-6.64-3.77-13.65-9.87-18.09c-8.07-5.87-15.51-12.62-22.14-20.09
			c-1.57-1.77-3.12-3.62-4.08-5.79c-3.92-8.84,1.92-22.05-6.24-27.25c-8.92-5.68-21.08,7.84-30.37,2.8
			c-8.64-4.68-4.24-18.94-10.39-26.61c-3.02-3.76-7.99-5.18-12.35-7.23c-14-6.59-23.29-22.07-22.52-37.53
			c0.18-3.68,0.87-7.5-0.4-10.96c-1.93-5.29-8.03-8.11-13.67-7.99c-5.63,0.12-10.93,2.53-16.05,4.9c-3.19-3.42-6.38-6.85-9.57-10.27
			c-8.16-8.76-16.96-20.24-12.9-31.5c-4.8,2.13-9.6,4.25-14.41,6.38c-13.05-5.88-1.87-28.24-10.85-39.38
			c-4.83-5.99-14.73-7.36-17.42-14.57c-1.64-4.41,0.17-9.32-0.29-14c-0.47-4.68-6.02-9.48-9.45-6.26c-0.28-3.17-0.57-6.34-0.85-9.51
			c-19.81,4.51-40.58-16.54-35.82-36.28c-7.62,1.4-14.83,5.01-20.5,10.29c-4.8-5.54-9.61-11.07-14.41-16.6
			c-0.5,1.51-1.09,3.26-1.76,5.29c-5.91,17.76-5.28,18.14-7.98,23.93c-0.73,1.57-1.39,2.96-2.03,4.24
			C1251.08,862.98,1259.61,870.66,1265.91,879.9z"/>
		<path class="st4" d="M1771.87,1290.14c-1.95-7.65-5.89-10.21-15.96-21.94c-3.26-3.8-11.61-13.58-19.95-25.93
			c-9.49-14.06-9.4-17.29-15.96-21.94c-4.71-3.34-8.89-4.6-11.97-9.97c-2.83-4.94-0.52-6.61-3.99-11.97
			c-3.39-5.23-7.48-6.94-7.98-11.97c-0.31-3.05,1.04-4.1,0-5.98c-1.28-2.32-3.98-1.96-9.97-3.99c-5.14-1.74-9.14-3.1-9.97-5.98
			c-0.88-3.05,2.69-4.64,1.99-7.98c-0.6-2.87-3.54-3.1-9.97-7.98c-4.4-3.34-6.61-5.01-7.98-7.98c-1.81-3.93-0.16-5.43-1.99-9.97
			c-1.28-3.16-2.45-3.34-5.98-7.98c-6.05-7.94-4.58-10-7.98-11.97c-5.43-3.15-10.5,1.36-13.96-1.99c-1.9-1.84-1.93-4.73-1.99-9.97
			c-0.08-7.26,1.8-10.28,0-11.97c-1.56-1.46-3.76,0.07-7.98,0c-7.26-0.12-12.67-4.85-13.96-5.98c-6.33-5.54-3.11-9.42-9.97-15.96
			c-2.98-2.84-4.43-2.91-9.97-7.98c-1.49-1.37-3.55-3.26-5.98-5.98c-5.83-6.54-5.6-8.69-9.97-11.97c-3.49-2.61-4.48-1.88-5.98-3.99
			c-3.18-4.45,0.52-8.75-1.99-11.97c-3.44-4.4-12.85,0.5-15.96-3.99c-1.6-2.31-0.8-6.04,0-7.98c1.47-3.56,4.4-4.56,3.99-5.98
			c-0.4-1.37-3.29-1.04-7.98-1.99c-6.71-1.36-11.05-4.13-13.96-5.98c-3.46-2.21-6.12-3.9-5.98-5.98c0.21-3.07,6.33-4.4,5.98-5.98
			c-0.25-1.14-3.46-0.7-7.98-1.99c-2.79-0.8-7.62-2.18-9.97-5.98c-2.92-4.72-0.52-10.74,0-11.97c-8.75-3.09-9.97-3.99-9.97-3.99
			c-3.35-2.45-6.66-7.3-5.98-11.97c0.66-4.57,4.77-6.32,3.99-7.98c-1.37-2.91-13.81,2.84-17.95-1.99c-0.91-1.06-1.27-4.03-1.99-9.97
			c-0.58-4.72-0.43-6.57-1.99-7.98c-1.85-1.67-3.6-0.46-5.98-1.99c-2.14-1.38-2.35-3.39-3.99-7.98c-2.38-6.67-3.57-10-5.98-11.97
			c-3.42-2.78-5.41-0.74-9.97-3.99c-1.1-0.78-4.88-3.48-5.98-7.98c-0.9-3.65,0.94-4.52,0-7.98c-1.04-3.82-3.48-3.42-5.98-7.98
			c-2.72-4.95-1.12-7.76-3.99-9.97c-2.03-1.57-3.1-0.38-5.98-1.99c-2.94-1.65-5.19-4.78-5.98-7.98c-1.22-4.92,1.73-7.02,0-9.97
			c-1.02-1.73-2.33-1.51-7.98-3.99c-5.78-2.53-8.67-3.8-9.97-5.98c-2.27-3.79,0.47-6.66-1.99-9.97c-2.07-2.78-4.34-1.22-7.98-3.99
			c-4.62-3.52-2.85-7.47-7.98-11.97c-2.5-2.19-3.09-1.4-5.98-3.99c-1.2-1.07-2.36-2.34-5.98-7.98c-3.23-5.03-4.84-7.55-5.98-9.97
			c-2.39-5.09-1.8-5.97-3.99-9.97c-2.46-4.49-3.49-3.9-5.98-7.98c-3.74-6.11-2.05-8.45-5.98-15.96c-2.28-4.35-3.42-6.53-5.98-7.98
			c-4.95-2.8-8.65,0.8-15.96,0c-7.76-0.85-7.63-5.37-15.96-7.98c-1.87-0.59-4.2-1.08-25.93,1.99c-14.24,2.02-16.88,2.75-19.95,3.99
			c-5.46,2.21-9.44,4.91-13.96,7.98c-5.16,3.5-8.51,5.81-11.97,9.97c-2.89,3.48-7.25,8.74-5.98,13.96c0.48,1.99,1.26,1.79,3.99,5.98
			c2.94,4.51,2.47,5.38,5.98,11.97c2.84,5.32,4.26,7.98,5.98,9.97c2.06,2.39,3.71,3.58,3.99,5.98c0.27,2.28-0.89,3.92-1.99,5.98
			c-0.02,0.03-0.76,2.26-2.23,6.68c4.8,5.53,9.61,11.06,14.41,16.6c5.68-5.28,12.88-8.89,20.5-10.29
			c-4.76,19.75,16.02,40.79,35.82,36.28c0.28,3.17,0.57,6.34,0.85,9.51c3.43-3.22,8.98,1.58,9.45,6.26c0.47,4.68-1.35,9.6,0.29,14
			c2.69,7.21,12.58,8.58,17.42,14.57c8.99,11.14-2.2,33.5,10.85,39.38c4.8-2.13,9.6-4.25,14.41-6.38
			c-4.06,11.26,4.74,22.74,12.9,31.5c3.19,3.42,6.38,6.85,9.57,10.27c5.11-2.37,10.41-4.79,16.05-4.9
			c5.63-0.12,11.73,2.7,13.67,7.99c1.27,3.46,0.58,7.28,0.4,10.96c-0.77,15.45,8.52,30.94,22.52,37.53
			c4.36,2.05,9.34,3.47,12.35,7.23c6.15,7.67,1.75,21.93,10.39,26.61c9.29,5.04,21.45-8.48,30.37-2.8
			c8.16,5.2,2.32,18.41,6.24,27.25c0.96,2.17,2.51,4.02,4.08,5.79c6.63,7.47,14.06,14.22,22.14,20.09
			c6.11,4.44,13.47,11.45,9.87,18.09c7.28,3.12,15.7,3.48,23.22,0.99c2.31,11.04,4.61,22.09,6.92,33.13
			c8.25-7.3,20.66,1.35,28.04,9.53c6.3,6.98,12.87,14.48,14.5,23.74c0.74,4.21,0.44,8.71,2.37,12.52
			c5.9,11.64,28.64,10.72,28.68,23.77c0.02,6.27-6.27,11.58-5.27,17.77c1.37,8.43,14.75,10.66,15.91,19.13
			c-6.8-2.93-13.6-5.86-20.4-8.79c-2.68-1.16-5.71-2.71-6.3-5.57c-0.6-2.88,1.59-5.52,2.49-8.32c3.07-9.64-8.58-16.68-17.06-22.2
			c-14.66-9.54-24.61-25.97-26.3-43.37c-10.69,4.73-24.68-0.29-29.92-10.75c-3.25-6.49-6.23-16.33-13.35-14.88
			c0.09-4.3-0.75-8.62-2.45-12.57c-10.61,4.76-21.36-5.96-28.07-15.46c-6.7-9.51-17.31-20.3-28-15.71
			c7.08-7.94-1.46-20.75-11.36-24.64c-9.9-3.89-21.58-3.9-29.88-10.57c6.64-3.94,5.65-14.68,0.03-19.97
			c-5.62-5.29-13.81-6.56-21.48-7.49c4.59-10.63,2.29-23.88-5.6-32.35c-7.89-8.47-20.94-11.7-31.87-7.89
			c-2.22-4.26-3.08-9.21-2.44-13.97c-9.57,0.61-19.28-1.14-28.04-5.06c9.19-9.59,4.5-28.28-8.12-32.4
			c-9.62-3.14-20.24,1.4-30.16-0.59c-0.16-4.23,2.92-7.77,5.1-11.4c2.18-3.63,3.24-8.99-0.1-11.59c-1.65-1.29-3.88-1.45-5.93-1.93
			c-13.6-3.16-18.44-19.41-25.65-31.37c-4.7-7.8-11.28-14.46-19.02-19.27c-1.92-1.19-3.93-2.28-5.65-3.76
			c-2.72-2.34-4.56-5.51-6.58-8.47c-6.3-9.24-14.83-16.91-24.62-22.32c-2.35,4.73-4.33,7.69-7.94,9.72
			c-4.84,2.72-7.79,1.11-9.97,3.99c-2.87,3.79-0.61,10.38,1.99,17.95c2.04,5.93,2.81,5.55,3.99,9.97
			c2.34,8.75,0.79,15.74,1.99,15.96c1.03,0.19,1.3-5.06,3.99-5.98c4.95-1.7,15.81,12,21.94,25.93c3.83,8.71,3.32,11.84,7.98,17.95
			c4.57,6.01,8.62,7.65,13.96,11.97c9.97,8.06,13.79,16.82,17.95,23.93c6.69,11.44,21.08,24.91,49.86,51.86
			c15.57,14.57,29.5,27.61,49.86,43.88c24.65,19.69,32.43,23.1,45.87,37.9c15.89,17.49,23.84,26.24,25.93,29.92
			c1.11,1.96,4,7.43,9.97,11.97c3.31,2.52,3.96,2,5.98,3.99c3.82,3.75,3.79,7.82,5.98,17.95c2.42,11.19,3.23,9.77,3.99,15.96
			c1.03,8.37-0.66,9.19,0,17.95c0.72,9.49,2.81,9.88,3.99,19.95c0.75,6.41-0.14,5.87,0,19.95c0.07,7.63,0.41,15.16,1.99,23.93
			c1.65,9.11,3.31,12.18,5.98,13.96c2.37,1.59,4.75,1.63,5.98,3.99c0.91,1.74,0.45,3.28,0.1,4.81c6.78-2.48,13.35-7.87,18.76-12.92
			c11.38-10.61,24.6-21.14,40.14-21.76c15.48-0.62,29.52,8.8,41.03,19.16c9.04,8.14,17.53,17.25,27.56,23.95
			c10.34,4.21,18.73,7.34,24.57,9.44c11.3,1.46,23.05-0.45,33.15-5.73c10.66-5.57,19.23-14.43,29.48-20.72s23.78-9.73,34.1-3.55
			c3.43,2.06,6.22,5.02,8.95,7.94c0.56,0.6,1.12,1.2,1.68,1.8C1772.71,1295.7,1772.68,1293.33,1771.87,1290.14z M1537.11,1245.03
			c-4.94-3.08-7.65-8.64-10.12-13.91c-7.08-15.15-14.22-30.45-17.84-46.78c-4.13-18.63-5.57-41.35-22.28-50.58
			c-0.68,4.87-1.36,9.74-2.05,14.6c-18.09-13.62-26.32-39.37-47.4-47.64c-3.41-1.34-7.13-2.19-9.93-4.55
			c-2.61-2.2-4.07-5.41-5.69-8.42c-4.82-8.95-11.63-16.83-19.79-22.89c-6.93-5.14-14.87-9.03-20.87-15.23
			c-6.49-6.7-10.24-15.6-16.35-22.65c-7.27-8.39-17.58-13.82-24.32-22.64c-3.17-4.15-5.48-8.96-9.11-12.71c-3.49-3.6-8-6.02-12-9.05
			c-5.81-4.4-10.5-10.08-15.13-15.71c-12.6-12.6-23.45-28.51-34.02-42.83c-7.56-10.24-30.33-34.72-30.22-47.8
			c0.19-23.37,21.72,12.53,24.89,17.48c11.17,17.47,22.34,34.94,33.51,52.41c5.84,9.14,11.82,18.44,20.17,25.37
			c4.28,3.55,9.12,6.43,13.06,10.35c3.58,3.57,6.31,7.88,9.31,11.95c17.28,23.42,43.51,38.53,63.34,59.84
			c8.76,9.42,16.35,20.13,26.73,27.72c5.36,3.92,11.35,6.91,16.67,10.87c14.99,11.14,23.45,28.78,31.34,45.71
			c3.73-2.98,7.46-5.95,11.18-8.93c1.8-1.44,4.01-2.97,6.23-2.33c2.23,0.64,3.28,3.13,4.03,5.32c8.59,24.97,17.18,49.93,25.76,74.9
			c4.9,14.25,11.56,30.31,25.89,34.99C1549.88,1247.26,1542.05,1248.11,1537.11,1245.03z"/>
		<path class="st8" d="M1526.25,1206.91c-8.59-24.97-17.18-49.93-25.76-74.9c-0.75-2.19-1.8-4.68-4.03-5.32
			c-2.22-0.64-4.42,0.89-6.23,2.33c-3.73,2.98-7.46,5.95-11.18,8.93c-7.89-16.93-16.35-34.57-31.34-45.71
			c-5.33-3.96-11.32-6.95-16.67-10.87c-10.38-7.59-17.97-18.3-26.73-27.72c-19.82-21.31-46.06-36.42-63.34-59.84
			c-3-4.07-5.73-8.38-9.31-11.95c-3.94-3.92-8.78-6.8-13.06-10.35c-8.35-6.93-14.33-16.23-20.17-25.37
			c-11.17-17.47-22.34-34.94-33.51-52.41c-3.16-4.95-24.69-40.85-24.89-17.48c-0.11,13.08,22.66,37.56,30.22,47.8
			c10.57,14.32,21.42,30.23,34.02,42.83c4.63,5.62,9.32,11.3,15.13,15.71c4,3.03,8.51,5.45,12,9.05c3.63,3.75,5.94,8.56,9.11,12.71
			c6.74,8.82,17.05,14.25,24.32,22.64c6.11,7.05,9.86,15.95,16.35,22.65c6.01,6.2,13.94,10.09,20.87,15.23
			c8.17,6.06,14.98,13.93,19.79,22.89c1.62,3,3.08,6.22,5.69,8.42c2.8,2.36,6.52,3.22,9.93,4.55c21.08,8.26,29.31,34.02,47.4,47.64
			c0.68-4.87,1.36-9.74,2.05-14.6c16.7,9.23,18.14,31.95,22.28,50.58c3.62,16.33,10.76,31.63,17.84,46.78
			c2.46,5.27,5.18,10.83,10.12,13.91s12.76,2.22,15.03-3.14C1537.81,1237.23,1531.15,1221.16,1526.25,1206.91z"/>
	</g>
	<g>
		<path class="st0" d="M167.18,1309.36c2.8-1.59,5.43-3.42,7.98-5.37c-2.29,0.17-4.7,2.71-8,5.38
			C167.17,1309.37,167.18,1309.37,167.18,1309.36z"/>
		<path class="st0" d="M523.3,817.44c-0.65,3.53,1.18,6.57,1.99,7.98c3.22,5.56,4.8,10.2,5.92,14.41c0.91-0.89,1.8-1.79,2.71-2.67
			c6.36-6.15,38.12-28.24,29.11-36.08c-4.48-3.9-15.49-2.7-26.66-0.28c-3.3,3.93-2.88,4.14-7.1,8.67
			C525.33,813.69,523.79,814.78,523.3,817.44z"/>
		<path class="st7" d="M101.84,1320.43c-8.73-2.87-15.94-9.3-24.66-12.2c-16.02-5.31-34.03,2.7-45.33,15.24
			c-0.87,0.96-1.69,1.95-2.5,2.95c0.77,7.27,2.35,15.83,5.28,25.54c0.45,1.48,1.38,4.39,3.99,5.98c3.47,2.11,7.87,0.66,9.97,0
			c12.8-4.02,1.91,1.87,27.92-5.98c6.43-1.94,13.78-4.18,23.93-7.98c13.46-5.04,20.18-7.56,27.92-11.97
			c11.17-6.37,10.89-8.56,21.94-13.96c8.36-4.09,10.61-3.85,15.96-7.98c0.31-0.24,0.59-0.47,0.88-0.71
			c-10.16,5.76-21.8,8.22-33.26,10.45C123.29,1321.89,112.12,1323.8,101.84,1320.43z"/>
		<path class="st7" d="M257.33,1275.25c-18.52-7.78-40.7-3.49-57.2,7.97c-8.89,6.17-16.4,14.23-24.96,20.77
			c0.36-0.03,0.73,0,1.09,0.11c2.36,0.67,3.38,3.87,3.99,5.98c3.45,12.04,6.58,22.94,1.99,37.9c-1.87,6.09-2.25,3.84-7.98,17.95
			c-5.67,13.95-4.62,14.5-7.98,19.95c-1.61,2.62-5.73,7.73-13.96,17.95c-0.01,0.02-3.21,3.99-5.98,9.97
			c-1.49,3.21-2.13,5.44-1.99,7.98c0.09,1.65,0.22,4.19,1.99,5.98c2.94,2.96,8.55,2.06,11.97,0c1.89-1.14,2.97-2.56,3.99-3.99
			c5.34-7.52,7.98-13.96,7.98-13.96c2.59-6.33,6.65-11.96,9.97-17.95c2.37-4.28,5.73-9.74,33.91-43.88
			c13.97-16.93,18.37-21.91,25.93-23.93c1.9-0.51,6.83-1.59,13.96-3.99c8.84-2.98,12.53-5.12,13.96-5.98
			c4.58-2.78,7.56-5.65,9.97-7.98c2.82-2.72,5-5.29,6.75-7.53C277.47,1288.51,268.71,1280.03,257.33,1275.25z"/>
		<path class="st4" d="M281.54,1166.11c-3.16,5.97-4.66,12.73-8.1,18.55c-3.44,5.81-9.83,10.78-16.46,9.47
			c-5.89,18.78-10.24,38.05-12.98,57.55c-6.92-1.23-14.26,0.07-20.35,3.58c13.92-22.22,20.3-49.06,17.89-75.17
			c4.86,4.98,13.7,2.87,18.69-1.99c4.99-4.86,7.57-11.62,11.48-17.39c9.84-14.5,27.2-21.61,40.86-32.61
			c19.35-15.58,30.94-38.73,48.1-56.69c12.59-13.18,27.96-23.33,41.59-35.44c12.59-11.19,23.62-23.99,34.62-36.75
			c23.18-26.9,46.35-53.8,69.53-80.7c12.88-12.88,23.23-38.7,38.55-47.81c0.73-0.43,1.48-0.77,2.26-1.06
			c-1.75-2.03-3.82-3.89-5.95-6.34c-7.42-8.56-7.82-15.18-10.03-23.49c-29.52,28.81-56.83,59.89-81.54,92.91
			c-13.52,18.07-26.64,37.66-29.55,60.03c-0.48,3.7-0.69,7.52-2.18,10.94c-1.5,3.44-4.17,6.21-6.89,8.8
			c-23.26,22.07-54.42,36.27-72.07,63.04c-6.52,9.88-11.39,21.66-21.51,27.81c-5.52,3.36-12.14,4.69-17.38,8.48
			c-5.23,3.78-8.52,11.8-4.25,16.64c-10.86,11.98-30.68,12.58-41.01,25.01c-3.47,4.18-5.53,9.35-8.63,13.82
			c-11.4,16.45-34.09,20.38-49.26,33.44c-6.84,5.89-11.96,13.47-17.7,20.43c-0.33-8.32,3.24-16.72,9.46-22.26
			c3.07-2.74,7.16-5.72,6.57-9.8c-0.3-2.07-1.84-3.87-1.88-5.96c-0.03-2.14,1.49-3.94,2.96-5.49c6.54-6.9,13.75-13.15,21.51-18.64
			c-3.74-4.64-7.49-9.27-11.23-13.91c11.21,1.73,23.21-3.55,29.51-12.98c-5.39-4.63-11.81-8.07-18.66-9.98
			c10.43-6.07,22.38-9.51,34.44-9.91c-0.65-5.52,5.98-10.43,11.07-8.19c-1.07-3.97-2.15-7.94-3.22-11.91
			c6.14,1.22,15.55-0.59,14.18-6.7c-0.36-1.6-1.51-2.89-2.65-4.08c-5.49-5.74-11.59-15.25-5.5-20.35c3.04,0.49,6.08,0.99,9.12,1.48
			c0.04,2.27,0.08,4.53,0.12,6.8c6.98-1.63,14.49-0.88,21,2.09c0.92-7.14-4.08-14.56-11.03-16.4c7.56,0.1,15.11,0.21,22.67,0.31
			c1.71-2.59,3.43-5.17,5.14-7.76c-4.37-1.77-8.3-4.61-11.36-8.21c9.85,7.08,21.71,11.33,33.82,12.1
			c-0.82-9.29-5.08-18.19-11.61-24.83c-2.77-1.17-5.22-3.04-6.88-5.59c2.5,1.59,4.8,3.48,6.88,5.59c5.76,2.43,12.95,1.78,17.61-2.49
			c2.68-2.45,5.08-6.05,8.71-5.99c-0.83-3.15-1.65-6.3-2.48-9.45c3.83-0.95,7.63,2.18,11.56,1.87c5.87-0.46,8.39-8.57,5.7-13.81
			c-2.69-5.24-8.39-8.09-13.71-10.6c8.86,3.93,20-0.16,25.6-8.07c2.31-3.26,3.93-7.16,7.15-9.53c3.22-2.37,8.91-1.98,10.05,1.85
			c1.86-5.04,0.55-10.92-2.77-15.09c-2.2-1.22-4.22-2.74-5.98-4.53c2.37,0.95,4.4,2.55,5.98,4.53c1.94,1.07,4.01,1.91,6.15,2.46
			c2.22,0.56,5.13-1.66,4.94-2.97c-0.33-0.24-0.66-0.5-0.96-0.81c0.63,0.14,0.91,0.44,0.96,0.81c5.82,4.22,15.44-2.85,15.33-10.54
			c-0.12-8.13-6.43-14.66-12.32-20.27c3.36,0.96,6.93,1.2,10.39,0.7c-3.63-6.79-5.86-14.33-6.5-22c5.77,3.01,10.65,7.71,13.86,13.37
			c9.29-1.1,18.07-6.04,23.82-13.42c-5.04-4.22-10.09-8.45-15.13-12.67c8.25,6.04,22.16-1.47,21.64-11.68
			c6.75,1.36,13.9,0.62,20.23-2.09c-0.12-3.82-0.25-7.64-0.37-11.46c6.45-3.81,8.57-13.39,4.33-19.56c3.07,3.15,8.2,4.05,12.16,2.14
			c9.1-6.11,19.45-15.56,15.95-25.95c-1.31-3.89-4.39-8.45-1.64-11.49c1.15-1.28,2.97-1.66,4.66-1.98
			c5.04-0.95,16.49-4.65,27.78-7.09c0.74-0.88,1.66-1.95,2.87-3.3c4.64-5.18,5.77-5.91,5.98-7.98c0.31-3.06-1.71-5.76-5.98-9.97
			c-7.55-7.45-13.34-10.94-19.95-15.96c-9.87-7.5-7.52-7.76-13.96-11.97c-7.91-5.17-14.88-7.03-25.93-9.97
			c-10.02-2.67-15.7-4.19-23.93-3.99c-6.81,0.16-15.11,0.36-21.94,5.98c-3.46,2.85-5.73,6.42-7.98,9.97
			c-2.49,3.92-3.9,7.17-5.98,11.97c-2.12,4.88-3,7.7-5.98,13.96c-1.1,2.3-1.64,3.45-1.99,3.99c-3.4,5.22-7.27,5.63-11.97,9.97
			c-2.23,2.06-3.48,4.03-5.98,7.98c-5.28,8.32-3.94,10.41-7.98,13.96c-2.47,2.17-4.01,2.3-7.98,5.98c-1.96,1.82-1.96,2.14-3.99,3.99
			c-0.65,0.59-2.7,2.43-7.98,5.98c-6.28,4.23-7.24,4.23-7.98,5.98c-1.27,3,0.96,4.37,0,7.98c-1.38,5.2-7.44,7.76-7.98,7.98
			c-5.36,2.18-8.05-0.57-11.97,1.99c-2.85,1.87-4.98,5.66-3.99,7.98c1.33,3.13,7.87,2.46,7.98,3.99c0.11,1.46-5.94,1.39-9.97,5.98
			c-0.55,0.62-1.7,3.08-3.99,7.98c-3.1,6.63-3.19,6.99-3.99,7.98c-2.71,3.35-4.16,2.34-7.98,5.98c-1.55,1.48-5.16,4.92-5.98,9.97
			c-0.15,0.9-0.1,2.6,0,5.98c0.18,6.26,0.63,6.8,0,7.98c-1.43,2.66-4.41,1.2-9.97,3.99c-5.63,2.83-10.16,8.14-9.97,7.98
			c0.5,3.4,0.51,7.56-1.99,9.97c-2.78,2.68-6.82,1.42-7.98,3.99c0,0-0.47,1.03,1.99,7.98c-2.67,1.26-6.67,3.65-9.97,7.98
			c-1.35,1.77-3.26,4.28-3.99,7.98c-0.66,3.34,0.4,3.83,0,7.98c-0.28,2.94-0.74,7.79-3.99,9.97c-0.45,0.3-2.3,0.87-5.98,1.99
			c-1.18,1.78-2.75,4.47-3.99,7.98c-2.4,6.77-1.34,10.25-3.99,11.97c-2.14,1.39-3.52-0.45-9.97,0c-3.87,0.27-6.11,0.43-7.98,1.99
			c-2.62,2.2-1.3,4.51-3.99,9.97c-2,4.07-4.72,6.81-5.98,7.98c-4,3.7-5.92,3.11-7.98,5.98c-2.42,3.38-0.74,5.56-1.99,9.97
			c-1.56,5.5-5.13,5.53-15.96,15.96c-6.94,6.68-5.9,7.08-9.97,9.97c-4.77,3.39-7.95,4.08-9.97,7.98c-1.72,3.32-0.32,4.57-1.99,7.98
			c-2.33,4.75-7.27,6.84-9.97,7.98c-8.73,3.68-13.35,0.46-15.96,3.99c-2.19,2.97,0.61,5.86-1.99,11.97
			c-1.11,2.61-1.75,2.38-3.99,5.98c-3.79,6.11-2.73,8.03-5.98,13.96c-1.17,2.12-3.5,6.28-7.98,9.97c-4.23,3.49-9.36,5.72-9.97,5.98
			c-4.8,2.06-7.64,2.24-7.98,3.99c-0.34,1.73,2.28,2.43,3.99,5.98c1.43,2.97,2.17,7.82,0,9.97c-2.35,2.32-5.99-0.63-9.97,1.99
			c-2.87,1.89-3.8,5.28-3.99,5.98c-0.99,3.63,0.81,4.53,0,7.98c-0.88,3.72-3.81,6.16-5.98,7.98c-2.43,2.03-2.93,1.62-5.98,3.99
			c-2.41,1.87-4.56,3.54-5.98,5.98c-2.81,4.83,0.25,7.5-1.99,11.97c-2.54,5.06-7.24,3.2-9.97,7.98c-3.17,5.54,1.53,10.85-1.99,15.96
			c-1.71,2.48-4.19,3.21-5.98,3.99c-3.59,1.55-10.73,5.93-27.92,47.87c-2.45,5.98-3.67,8.96-3.99,9.97c0,0-3.21,10.12-1.29,28.31
			c0.81-1,1.63-1.99,2.5-2.95c11.3-12.53,29.31-20.55,45.33-15.24c8.72,2.89,15.93,9.33,24.66,12.2
			c10.27,3.37,21.45,1.46,32.06-0.61c11.46-2.23,23.1-4.69,33.26-10.45c3.3-2.67,5.71-5.21,8-5.38c8.56-6.55,16.08-14.6,24.96-20.77
			c16.5-11.46,38.68-15.75,57.2-7.97c11.38,4.78,20.14,13.26,27.39,23.31c1.3-1.68,2.36-3.19,3.23-4.43
			c2.91-4.19,5.65-8.13,7.98-13.96c2.93-7.33,3.57-13.53,3.99-17.95c0.25-2.61,0.05-1.84,0-17.95c-0.03-11.28-0.05-16.92,0-17.95
			c0.19-4.01,0.42-6.25,0-9.97c-0.39-3.49-1.19-6.7-1.99-9.97c-1.68-6.79-2.11-6.38-1.99-7.98c0.37-5.09,4.52-5.85,5.98-11.97
			c0.2-0.83,0.07-0.58,0-7.98c-0.08-9.16,0.13-8.4,0-13.96c-0.15-6.2-0.39-6.44,0-7.98c1.3-5.12,5.46-8.09,7.98-9.97
			c0,0,7.28-5.45,19.95-17.95c0.59-0.59,1.13-1.14,1.63-1.69c-6.84,4.37-13.68,8.74-20.57,13.03
			C299.62,1146.93,287.75,1154.37,281.54,1166.11z"/>
		<path class="st5" d="M503.94,809.86c-2.75,3.04,0.33,7.6,1.64,11.49c3.5,10.38-6.85,19.84-15.95,25.95
			c-3.96,1.91-9.09,1-12.16-2.14c4.24,6.17,2.12,15.75-4.33,19.56c0.12,3.82,0.25,7.64,0.37,11.46c-6.33,2.71-13.48,3.44-20.23,2.09
			c0.52,10.21-13.38,17.72-21.64,11.68c5.04,4.22,10.09,8.45,15.13,12.67c-5.75,7.38-14.53,12.32-23.82,13.42
			c-3.21-5.66-8.08-10.37-13.86-13.37c0.64,7.67,2.87,15.21,6.5,22c-3.46,0.51-7.03,0.27-10.39-0.7
			c5.89,5.61,12.21,12.14,12.32,20.27c0.11,7.7-9.51,14.76-15.33,10.54c0.18,1.31-2.73,3.53-4.94,2.97
			c-2.15-0.55-4.22-1.38-6.15-2.46c3.32,4.18,4.63,10.05,2.77,15.09c-1.14-3.83-6.83-4.22-10.05-1.85
			c-3.22,2.37-4.84,6.27-7.15,9.53c-5.6,7.91-16.74,12-25.6,8.07c5.33,2.51,11.02,5.37,13.71,10.6c2.69,5.24,0.17,13.35-5.7,13.81
			c-3.94,0.31-7.73-2.81-11.56-1.87c0.83,3.15,1.65,6.3,2.48,9.45c-3.63-0.06-6.03,3.54-8.71,5.99c-4.66,4.26-11.85,4.91-17.61,2.49
			c6.53,6.64,10.78,15.54,11.61,24.83c-12.11-0.77-23.97-5.02-33.82-12.1c3.05,3.59,6.98,6.44,11.36,8.21
			c-1.71,2.59-3.43,5.17-5.14,7.76c-7.56-0.1-15.11-0.21-22.67-0.31c6.96,1.84,11.95,9.27,11.03,16.4c-6.52-2.97-14.03-3.72-21-2.09
			c-0.04-2.27-0.08-4.53-0.12-6.8c-3.04-0.49-6.08-0.99-9.12-1.48c-6.09,5.1,0.02,14.6,5.5,20.35c1.14,1.19,2.29,2.48,2.65,4.08
			c1.37,6.11-8.04,7.92-14.18,6.7c1.07,3.97,2.15,7.94,3.22,11.91c-5.09-2.24-11.72,2.67-11.07,8.19
			c-12.06,0.4-24.01,3.83-34.44,9.91c6.85,1.92,13.27,5.35,18.66,9.98c-6.3,9.44-18.3,14.71-29.51,12.98
			c3.74,4.64,7.49,9.27,11.23,13.91c-7.76,5.49-14.97,11.75-21.51,18.64c-1.47,1.55-2.99,3.36-2.96,5.49
			c0.03,2.1,1.58,3.89,1.88,5.96c0.59,4.08-3.5,7.06-6.57,9.8c-6.22,5.54-9.79,13.94-9.46,22.26c5.74-6.96,10.86-14.54,17.7-20.43
			c15.17-13.06,37.86-16.99,49.26-33.44c3.1-4.47,5.15-9.63,8.63-13.82c10.33-12.43,30.15-13.03,41.01-25.01
			c-4.27-4.84-0.99-12.86,4.25-16.64c5.23-3.78,11.86-5.12,17.38-8.48c10.11-6.15,14.99-17.93,21.51-27.81
			c17.65-26.77,48.81-40.97,72.07-63.04c2.72-2.58,5.39-5.36,6.89-8.8c1.49-3.42,1.7-7.24,2.18-10.94
			c2.91-22.37,16.03-41.97,29.55-60.03c24.71-33.03,52.01-64.11,81.54-92.91c-1.12-4.21-2.71-8.85-5.92-14.41
			c-0.81-1.4-2.64-4.44-1.99-7.98c0.49-2.66,2.04-3.74,5.98-7.98c4.22-4.53,3.8-4.74,7.1-8.67c-11.29,2.45-22.74,6.14-27.78,7.09
			C506.91,808.2,505.09,808.58,503.94,809.86z"/>
		<path class="st4" d="M323.69,1026.59c-2.08-2.11-4.38-4-6.88-5.59C318.47,1023.55,320.92,1025.43,323.69,1026.59z"/>
		<path class="st4" d="M385.13,950.75c1.76,1.8,3.78,3.32,5.98,4.53C389.53,953.3,387.5,951.7,385.13,950.75z"/>
		<path class="st4" d="M401.25,953.96c0.3,0.31,0.63,0.57,0.96,0.81C402.16,954.41,401.87,954.11,401.25,953.96z"/>
		<path class="st0" d="M585.14,894.69c-3.13-13.44-24.08-30.22-37.93-25.04c1.8,2.09,3.24,4.35,4.02,7.62
			c0.37,1.58,1.26,5.49,0,9.97c-1.81,6.46-6.79,9.58-11.97,13.96c-6.11,5.18-10.58,12.02-15.96,17.95
			c-14.23,15.72-36.1,40.2-59.84,69.81c-6.34,7.91-16.39,20.68-31.91,35.9c-8.84,8.67-18.19,16.89-23.93,21.94
			c-15.64,13.75-15.57,12.66-25.93,21.94c-17.54,15.71-27.85,24.95-37.9,39.89c-5.92,8.81-7.08,12.63-12.33,18.26
			c61.82-39.55,121.44-82.54,178.47-128.73c29.28-23.72,58.98-49.77,72.55-84.93C584.77,907.31,586.58,900.86,585.14,894.69z"/>
		<path class="st9" d="M381.69,1068.75c10.36-9.28,10.29-8.19,25.93-21.94c5.75-5.05,15.09-13.27,23.93-21.94
			c15.53-15.22,25.57-27.99,31.91-35.9c23.74-29.6,45.6-54.09,59.84-69.81c5.37-5.93,9.85-12.77,15.96-17.95
			c5.17-4.39,10.16-7.5,11.97-13.96c1.26-4.48,0.37-8.4,0-9.97c-0.78-3.27-2.22-5.53-4.02-7.62c-0.77,0.29-1.53,0.63-2.26,1.06
			c-15.32,9.11-25.67,34.92-38.55,47.81c-23.18,26.9-46.35,53.8-69.53,80.7c-10.99,12.76-22.03,25.56-34.62,36.75
			c-13.62,12.11-29,22.26-41.59,35.44c-17.16,17.96-28.76,41.12-48.1,56.69c-13.65,10.99-31.01,18.1-40.86,32.61
			c-3.91,5.76-6.49,12.53-11.48,17.39c-4.99,4.86-13.82,6.98-18.69,1.99c2.42,26.11-3.97,52.95-17.89,75.17
			c6.09-3.52,13.43-4.81,20.35-3.58c2.74-19.5,7.08-38.77,12.98-57.55c6.62,1.31,13.02-3.65,16.46-9.47
			c3.44-5.81,4.94-12.58,8.1-18.55c6.22-11.73,18.08-19.17,29.36-26.19c6.89-4.29,13.74-8.65,20.57-13.03
			c5.25-5.63,6.4-9.45,12.33-18.26C353.84,1093.7,364.15,1084.46,381.69,1068.75z"/>
	</g>
	<path class="st7" d="M728.23,310.86c-2.5-0.73-9.97-3.07-19.64-2.02c-14.22,1.54-24.13,9.45-27.5,12.12
		c-2.82,2.24-11.49,9.76-21.6,32.33c-11.33,25.26-21.75,63.4-27.5,72.75c-2.05,3.32-3.93,6.06-3.93,6.06
		c-3.61,5.25-4.46,5.68-5.89,8.08c-2.96,4.97-1.24,6.4-3.93,14.15c-0.78,2.26-2.49,5.55-5.89,12.12c-3.96,7.64-4.82,8.59-5.89,12.12
		c-1.55,5.13-0.72,6.37-1.96,10.1c-1.96,5.85-5.89,8.4-9.82,12.12c-14.51,13.77-11.11,26.75-25.53,38.39
		c-1.23,0.99-4.29,3.35-3.93,4.04c0.45,0.86,5.66-1.91,13.75-4.04c6.31-1.66,11.38-2.99,17.68-2.02c2.6,0.4,8.63,1.33,13.75,6.06
		c3.86,3.56,5.19,7.76,7.86,16.17c1.51,4.75,5.89,18.57,1.96,24.25c-0.24,0.35-1.31,1.81-1.96,4.04c-0.19,0.66-1.43,4.86,0,6.06
		c1.23,1.03,3.66-0.81,9.82-4.04c3.36-1.76,8.39-4.37,13.75-6.06c5.56-1.75,6.27-0.87,9.82-2.02c11.29-3.65,17.18-16.76,19.64-22.23
		c3.65-8.13,1.56-8.29,5.89-18.19c2.89-6.6,4.4-7.85,9.82-18.19c4.44-8.48,3.88-8.49,7.86-16.17c5.52-10.64,12.06-23.25,15.71-22.23
		c1.07,0.3,2.02,4.24,3.93,12.12c1.11,4.61,1.68,6.98,1.96,10.1c0.15,1.62,0.13,2.3,0,10.1c-0.13,8-0.15,9.61,0,12.12
		c0.07,1.08,0.64,10.04,1.96,10.1c0.95,0.05,0.61-4.57,3.93-8.08c2.51-2.66,4.83-2.27,7.86-4.04c4.65-2.72,6.25-7.79,7.86-12.12
		c0,0,3.17-8.53,11.78-24.25c7.86-14.33,18.87-22.75,23.57-26.27c7.55-5.65,8.13-4.09,23.57-14.15c9.1-5.93,8.74-6.37,17.68-12.12
		c13.33-8.58,23.57-14.15,23.57-14.15c11.06-6.01,14.85-7.16,17.68-12.12c0.77-1.36,1.89-3.74,3.93-4.04
		c1.94-0.29,3.24,1.53,7.86,6.06c6.24,6.12,8.65,7.48,9.82,8.08c4.29,2.21,7.1,2.08,7.86,2.02c0.96-0.07,3.49-0.29,5.89-2.02
		c3.08-2.22,2.33-4.3,5.89-8.08c1.35-1.43,3.09-3.24,5.89-4.04c0.59-0.17,2.74-0.73,5.89,0c4.23,0.97,6.62,3.4,9.82,6.06
		c0,0,5.69,4.73,11.78,8.08c8.05,4.44,9.28,2.03,15.71,6.06c5.21,3.27,4.51,4.92,11.78,10.1c4.04,2.88,3.88,2.1,9.82,6.06
		c6.62,4.41,7.26,5.67,11.78,8.08c4.68,2.49,5.32,1.85,9.82,4.04c4.99,2.42,7.98,5.05,13.75,10.1c7.61,6.68,12.51,12.62,13.75,14.15
		c4.58,5.64,7.51,10.37,9.82,14.15c8.2,13.38,6.5,14.99,11.78,20.21c3.77,3.72,6.66,4.91,9.82,10.1c2.36,3.88,3.74,8.16,3.93,8.08
		c0.23-0.09-3.33-5.83-1.96-12.12c0.56-2.58,1.42-2.83,1.96-6.06c0.24-1.43,0.16-3.65,0-8.08c-0.21-5.67-0.24-6.51,0-8.08
		c0.51-3.39,1.55-5.34,1.96-6.06c0.81-1.41,2.41-4.19,3.93-4.04c2.11,0.21,2.98,5.99,3.93,10.1c1.69,7.37,3.45,8.59,9.82,22.23
		c13.69,29.32,12.29,38.04,23.57,48.5c4.04,3.74,7.06,7.38,11.78,8.08c5.62,0.84,9.28-2.36,17.68-6.06
		c2.33-1.03,8.1-2.71,19.64-6.06c23.39-6.8,35.08-10.2,43.21-10.1c12.67,0.16,23.07,3.75,23.57,2.02c0.33-1.14-4.3-2.41-9.82-8.08
		c-4.36-4.48-3.8-6.07-7.86-10.1c-5.28-5.24-7.5-3.8-11.78-8.08c-3.91-3.9-2.66-5.69-7.86-16.17c-2.17-4.37-4.98-10.03-9.82-16.17
		c-5.54-7.02-7.77-7.09-9.82-12.12c-2.16-5.33-0.66-7.7-1.96-14.15c-1.43-7.07-4.58-10.87-7.86-16.17
		c-5.3-8.54-8.77-19.84-15.71-42.44c-0.07-0.23-0.03-0.1-5.89-20.21c-3.92-13.43-5.87-20.15-5.89-20.21
		c-4.58-14.45-11.58-36.51-29.46-46.48c-5.49-3.06-11.52-4.06-23.57-6.06c-15.82-2.63-27.95-2.17-33.39-2.02
		c-19.64,0.56-39.27-1.65-58.92-2.02c-93.6-1.79-107.04-7.66-164.98-6.06C772.62,313.82,748.17,316.67,728.23,310.86z"/>
	<g>
		<path class="st0" d="M970.07,298.86c2.77,3.65,2.08,5,3.99,5.98c0.41,0.21,0.8,0.31,1.18,0.37c2.04-0.95,4.11-1.83,6.24-2.57
			c3.14-1.09,6.38-1.86,9.62-2.62c-2.93-6.01-10.34-8.67-17.01-8.25c-3.14,0.2-6.17,0.95-9.16,1.92
			C969.3,297.93,969.52,298.13,970.07,298.86z"/>
		<path class="st4" d="M997.99,314.82c-2.85-3.13-5.29-5.79-9.97-7.98c-2.19-1.02-3.72-1.73-5.98-1.99
			c-3.42-0.39-5.06,0.63-6.8,0.37c-4.36,2.02-8.58,4.35-12.96,6.34c-15.18,6.91-31.95,9.48-48.55,10.96
			c-9.19,0.81-18.46,1.31-27.65,0.46c-22.41-2.07-43.07-11.95-62.9-22.96c-1.93,1.7-3.15,2.6-4.69,2.84c-1.7,0.26-2.07-0.4-3.99,0
			c-1.23,0.26-2.05,0.73-3.99,1.99c-4.53,2.95-4.34,3.14-5.98,3.99c-2.84,1.47-5.3,1.89-5.98,1.99c-1.46,0.22-1.69,0.07-5.98,0
			c-2.08,0.03-4.8,0.04-7.98,0c-4.91-0.06-5.94-0.2-5.98,0c-0.17,0.84,18.51,6.03,39.89,9.97c12.69,2.34,23.92,3.58,45.87,5.98
			c25.29,2.76,37.93,4.15,45.87,3.99c16.35-0.32,35.19-2.66,45.87-3.99c5.33-0.66,8.38-1.15,15.96-1.99
			c5.33-0.59,10.6-2.27,15.96-1.99c0,0,5.48,0.28,9.97-1.99c0.72-0.36,1.74-0.96,1.99-1.99
			C1000.3,317.55,999.33,316.28,997.99,314.82z"/>
		<path class="st4" d="M954.92,297.42c3.32-1.26,6.63-2.64,10-3.73c-0.27-0.26-0.54-0.53-0.84-0.81c-2.59-2.51-3.88-3.77-3.99-3.99
			c-2.24-4.6,2.29-9.53,0-11.97c-1.09-1.16-2.39-0.33-3.99-1.99c-0.85-0.88-0.75-1.39-1.99-3.99c-1.5-3.12-1.98-3.09-1.99-3.99
			c-0.03-2.32,3.23-2.73,5.98-5.98c3.46-4.1,4.46-10.79,1.99-13.96c-0.85-1.09-1.48-0.97-1.99-1.99c-1.62-3.25,2.8-8.51,3.99-9.97
			c6.19-7.62,8.87-17.54,13.96-25.93c7.78-12.82,10.04-24.88,13.96-45.87c1.61-8.62,2.4-19.71,3.99-41.88c1.38-19.32,1.3-26,0-33.91
			c-0.96-5.83-2.56-15.09-7.98-25.93c-4.97-9.94-10.76-16.41-13.96-19.95c-4.09-4.51-8.57-9.45-15.96-13.96
			c-6.76-4.13-12.53-5.81-19.95-7.98c-9.88-2.88-17.64-3.75-19.95-3.99c-9.05-0.93-15.9-0.45-21.94,0
			c-6.83,0.51-10.25,0.76-13.96,1.99c-6.25,2.07-10.2,5.25-15.96,9.97c-6.27,5.14-10.22,9.53-15.96,15.96
			c-7.25,8.12-10.88,12.19-13.96,17.95c-0.94,1.76-3.98,7.64-5.98,15.96c-1.17,4.84-1.7,9.32-1.99,19.95
			c-0.33,11.76,0,20.64,0,23.93c0,33.91,0,33.91,0,33.91c-0.11,5.08-0.27,9.44,0,15.96c0.03,0.77,0.37,8.46,1.99,17.95
			c0.54,3.16,1.03,5.38,1.99,7.98c0.64,1.73,1.74,4.67,3.99,7.98c2.19,3.22,3.31,3.61,3.99,5.98c0.58,2.04-0.09,2.3,0,5.98
			c0.09,3.49,0.17,6.81,1.99,9.97c0.92,1.6,1.8,2.26,1.99,3.99c0.22,1.9-0.63,2.84,0,3.99c0.77,1.41,2.41,0.65,3.99,1.99
			c1.26,1.07,1.5,3.37,1.99,7.98c0.27,2.55,0.16,3.35,0,3.99c-0.51,2.04-1.4,2.05-1.99,3.99c-0.37,1.21-0.11,1.5,0,5.98
			c0.06,2.26,0.08,3.38,0,3.99c-0.46,3.33-1.9,3.61-1.99,5.98c-0.09,2.1,1.03,2.2,1.99,5.98c0.44,1.75,1.28,5.05,0,5.98
			c-1.05,0.77-2.5-0.81-3.99,0c-0.85,0.46-0.84,1.22-1.99,3.99c-0.96,2.3-1.43,3.45-1.99,3.99c-0.05,0.05-0.1,0.07-0.15,0.12
			C873.49,308.45,917.29,311.67,954.92,297.42z"/>
		<path class="st9" d="M913.73,322.51c16.61-1.47,33.38-4.05,48.55-10.96c4.37-1.99,8.6-4.32,12.96-6.34
			c-0.38-0.06-0.77-0.15-1.18-0.37c-1.91-0.98-1.22-2.33-3.99-5.98c-0.56-0.73-0.78-0.93-5.15-5.17c-3.37,1.09-6.69,2.48-10,3.73
			c-37.63,14.24-81.43,11.03-116.64-8.42c-1.66,1.45-3.18,0.36-5.83,1.88c-0.82,0.47-0.73,0.6-3.99,3.99
			c-1.92,1.99-2.88,2.99-3.99,3.99c-0.47,0.42-0.89,0.8-1.29,1.15c19.83,11.01,40.49,20.89,62.9,22.96
			C895.27,323.82,904.53,323.33,913.73,322.51z"/>
	</g>
	<path class="st9" d="M551.22,566.13c-1.94,2.69-4.04,6.02-5.98,9.97c-1.75,3.56-1.75,5.84-3.99,9.97c-0.96,1.78-2.1,3.87-3.99,5.98
		c-4.57,5.1-7.82,3.88-11.97,7.98c-3.27,3.24-1.17,3.93-5.98,11.97c-3.65,6.09-6.24,8-5.98,11.97c0.17,2.63,1.36,2.64,1.99,5.98
		c0.77,4.04-0.35,7.31-1.99,11.97c-2.75,7.78-6.98,10.68-5.98,11.97c0.86,1.12,3.75-1.2,9.97-1.99c6.09-0.78,7.14,0.96,13.96,0
		c1.1-0.15,4.19-0.64,7.98-1.99c3.61-1.3,5.8-2.08,7.98-3.99c2.96-2.59,2.39-4.18,5.98-7.98c1.64-1.73,4.42-4.68,5.98-3.99
		c2.27,1-0.51,8.62,1.99,9.97c1.35,0.73,4.22-1.51,9.97-5.98c4.58-3.56,5.42-4.79,5.98-5.98c1.34-2.85,0.49-4.3,1.99-5.98
		c1.38-1.55,3.45-1.82,7.98-1.99c5.66-0.21,8.34,0,11.97,0c9.68,0,10.52-1.49,13.96,0c3.79,1.64,3.03,3.57,7.98,5.98
		c4.65,2.27,8.52,2.12,9.97,1.99c2.52-0.22,4.69-0.4,5.98-1.99c1.4-1.72,0.34-3.34,0-9.97c0,0,0-3.32,0-9.97
		c0-3.32,0.39-4.31,0-5.98c-1-4.28-4.38-6.17-5.98-7.98c-5.38-6.06,2.21-19.01,3.99-27.92c4.51-22.57-21.35-53.97-37.9-51.86
		c-8.23,1.05-15.46,10.67-29.92,29.92c-0.08,0.11-1.05,1.39-5.98,7.98c-0.03,0.04-5.96,7.94-5.98,7.98"/>
	<path class="st9" d="M1218.29,567.98c2.18,2.36,4.55,5.27,6.74,8.73c1.97,3.12,1.97,5.11,4.49,8.73c1.08,1.55,2.36,3.39,4.49,5.24
		c5.15,4.46,8.81,3.39,13.48,6.98c3.69,2.84,1.32,3.44,6.74,10.48c4.11,5.33,7.03,7,6.74,10.48c-0.19,2.3-1.53,2.31-2.25,5.24
		c-0.86,3.53,0.39,6.4,2.25,10.48c3.1,6.81,7.87,9.35,6.74,10.48c-0.97,0.98-4.22-1.05-11.24-1.75c-6.86-0.68-8.05,0.84-15.73,0
		c-1.24-0.14-4.73-0.56-8.99-1.75c-4.07-1.13-6.54-1.82-8.99-3.49c-3.33-2.27-2.69-3.66-6.74-6.98c-1.85-1.52-4.99-4.09-6.74-3.49
		c-2.56,0.88,0.57,7.55-2.25,8.73c-1.52,0.64-4.76-1.32-11.24-5.24c-5.16-3.12-6.11-4.19-6.74-5.24c-1.51-2.5-0.56-3.77-2.25-5.24
		c-1.56-1.36-3.88-1.6-8.99-1.75c-6.38-0.19-9.39,0-13.48,0c-10.91,0-11.85-1.31-15.73,0c-4.28,1.44-3.42,3.13-8.99,5.24
		c-5.24,1.98-9.6,1.86-11.24,1.75c-2.83-0.19-5.29-0.35-6.74-1.75c-1.57-1.51-0.38-2.92,0-8.73c0,0,0-2.91,0-8.73
		c0-2.91-0.44-3.77,0-5.24c1.12-3.74,4.93-5.4,6.74-6.98c6.06-5.31-2.49-16.65-4.49-24.44c-5.08-19.76,24.05-47.24,42.7-45.4
		c9.27,0.92,17.42,9.34,33.71,26.19c0.09,0.1,1.18,1.22,6.74,6.98c0.03,0.03,6.71,6.95,6.74,6.98"/>
	<path class="st2" d="M844.42,117.36c-1.64,3.15-1.87,6.03-1.99,7.98c-0.75,11.47-0.01,21.85,0,21.94
		c1.28,17.76,0.89,18.23,1.99,27.92c0.8,7.08,1.2,10.61,1.99,13.96c1.77,7.52,3.76,10.92,5.98,19.95c0.92,3.73,0.04,6.57,1.99,9.97
		c1.55,2.69,3.23,3.57,5.98,5.98c4.54,3.97,4.21,5.27,9.97,11.97c3.14,3.66,6.08,6.43,11.97,11.97c5.83,5.49,8.8,8.27,11.97,9.97
		c5.49,2.96,10.35,3.76,11.97,3.99c4.08,0.57,7.28,0.26,9.97,0c3.18-0.31,6.24-0.61,9.97-1.99c4.47-1.66,7.39-3.96,9.97-5.98
		c4.24-3.33,6.9-6.6,7.98-7.98c1.8-2.31,1.99-3.04,3.99-5.98c2.94-4.35,4.64-5.9,7.98-9.97c3.15-3.83,6.66-8.12,9.97-13.96
		c1.74-3.06,4.27-7.6,5.98-13.96c0.53-1.97,1.02-5.3,1.99-11.97c1.13-7.71,1.08-8.8,1.99-13.96c0.92-5.22,1.09-4.87,1.99-9.97
		c1.19-6.75,0.85-7.09,1.99-13.96c1.3-7.76,1.92-8.4,1.99-11.97c0.12-5.39-1.22-9.52-1.99-11.97c-1.17-3.69-2.5-7.9-5.98-11.97
		c-3.67-4.29-7.76-6.11-11.97-7.98c-8.25-3.67-15.44-3.96-17.95-3.99c-4.64-0.05-7.87,0.66-13.96,1.99
		c-6.32,1.38-9.47,2.08-11.97,3.99c-2.04,1.56-3.17,3.19-5.98,3.99c-2.75,0.78-5.14,0.21-5.98,0c-3.87-0.97-5.34-3.64-7.98-5.98
		c-4.45-3.96-9.52-4.85-15.96-5.98c-3.15-0.55-8.81-1.49-15.96,0c-1.99,0.42-7.82,1.8-13.96,5.98
		C849.37,111.44,846.42,113.51,844.42,117.36z"/>
	<path class="st9" d="M900.26,129.33c-0.07,0.32-0.35,0.3-1.99,1.99c-1.4,1.45-1.42,1.68-1.99,1.99c-1.35,0.72-2.9,0.3-3.99,0
		c-1.41-0.39-1.99-0.89-3.99-1.99c-1.66-0.92-2.15-1.07-3.99-1.99c-7.5-3.76-10.53-6.86-15.96-7.98c-2.24-0.46-4.16-0.28-7.98,0
		c0,0-4.8,0.36-9.97,1.99c-1.55,0.49-2.78,0.99-3.99,1.99c-1.22,1.01-1.87,2.08-1.99,1.99c-0.18-0.12,0.91-2.47,1.99-3.99
		c3.16-4.42,8.87-5.46,11.97-5.98c2.59-0.44,8.04-1.05,19.95,1.99C891.06,122.62,900.7,127.39,900.26,129.33z"/>
	<path class="st9" d="M786.57,149.27"/>
	<path class="st9" d="M922.2,129.33c-0.27,1.29-0.06,1.85,0,1.99c0.58,1.43,2.54,2.02,3.99,1.99c2.04-0.03,3.49-1.51,3.99-1.99
		c0,0,6.43-5.7,13.96-9.97c1.9-1.08,2.85-1.62,3.99-1.99c5.21-1.73,10.24-0.3,17.95,1.99c3.37,1,5.96,2.06,5.98,1.99
		c0.04-0.11-7.94-1.68-13.96-5.98c-0.64-0.46-1.96-1.45-3.99-1.99c-2.62-0.7-4.85-0.25-5.98,0c-11.22,2.44-20.91,6.5-23.93,9.97
		C922.67,127.1,922.2,129.33,922.2,129.33z"/>
	<path class="st7" d="M884.31,217.09c0.4-0.95,1.04-2.37,1.99-3.99c0.47-0.8,6.3-10.49,13.96-11.97c0.74-0.14,2.2-0.41,3.99,0
		c0.62,0.14,2.4,0.57,3.99,1.99c1.27,1.14,1.16,1.78,1.99,1.99c1.29,0.33,2.74-0.92,3.99-1.99c1.37-1.18,1.19-1.48,1.99-1.99
		c2.03-1.29,4.78-0.39,5.98,0c2.79,0.91,4.64,2.61,5.98,3.99c4.38,4.5,7.92,8.13,7.98,11.97c0.13,7.88-14.44,17.09-27.92,15.96
		C893.68,231.82,885.48,218.98,884.31,217.09z"/>
	<path d="M889.75,216.45c0.05-0.09,4,0.91,5.98,0c1.21-0.55,0.59-1.31,1.99-2.2c1.41-0.89,3.5-1.06,3.99-1.1
		c3.45-0.28,4.4,1.15,7.98,1.1c2.77-0.03,2.51-0.89,5.98-1.1c0.69-0.04,5.12-0.31,7.98,1.1c0.82,0.41,0.89,0.64,1.99,1.1
		c2.16,0.89,3.98,0.85,3.99,1.1c0.02,0.4-4.56,0.9-9.97,1.1c-4.34,0.16-4.54-0.05-9.97,0c-7.54,0.07-9.33,0.48-13.96,0
		C891.92,217.16,889.71,216.52,889.75,216.45z"/>
	<g>
		<path class="st5" d="M897.1,329.51c-0.52-1.14-0.83-2.39-0.83-3.72c0-4.96,4.02-8.98,8.98-8.98s8.98,4.02,8.98,8.98
			c0,1.87-0.57,3.6-1.55,5.04c2.32-0.34,4.65-0.68,6.97-1.02c0.36-1.28,0.56-2.63,0.56-4.02c0-8.26-6.7-14.96-14.96-14.96
			s-14.96,6.7-14.96,14.96c0,1.35,0.2,2.66,0.53,3.9C892.9,329.66,895.01,329.51,897.1,329.51z"/>
		<path class="st5" d="M912.68,330.82c-1.61,2.38-4.34,3.94-7.43,3.94c-3.63,0-6.73-2.16-8.15-5.26c-2.09,0.01-4.2,0.16-6.28,0.19
			c1.72,6.36,7.52,11.05,14.43,11.05c6.87,0,12.64-4.63,14.4-10.94C917.32,330.15,915,330.48,912.68,330.82z"/>
	</g>
</g>
</svg>
