<?xml version="1.0" encoding="utf-8"?>
<!-- Generator: Adobe Illustrator 25.4.1, SVG Export Plug-In . SVG Version: 6.00 Build 0)  -->
<svg version="1.1" id="Layer_1" xmlns="http://www.w3.org/2000/svg" xmlns:xlink="http://www.w3.org/1999/xlink" x="0px" y="0px"
	 viewBox="0 0 1801 1441" style="enable-background:new 0 0 1801 1441;" xml:space="preserve">
<style type="text/css">
	.st0{fill:#575757;}
	.st1{fill:none;}
	.st2{fill:#3E3E3E;}
	.st3{fill:#070003;}
	.st4{fill:none;stroke:#000000;stroke-width:10;stroke-miterlimit:10;}
	.st5{fill:none;stroke:#3E3E3E;stroke-width:4;stroke-miterlimit:10;}
</style>
<g>
	<path class="st0" d="M263.65,395.7c0.51,18.78,1.02,37.56,1.53,56.34c0.13,4.63,0.31,9.45,2.81,13.53
		c3.95,6.44,12.99,9.8,15.92,16.65c4.65,10.88-8.71,23.64-2.65,33.96c2.22,3.78,6.59,6.16,9.65,9.46
		c8.52,9.21,5.09,22.69,2.51,34.36c-2.48,11.18-3.76,22.56-3.82,33.95c-0.03,5.03,0.2,10.15,2.12,14.89
		c5.62,13.86,25.17,24.46,20.81,38.67c-1.69,5.52-6.85,9.7-9.28,15c-10.3,22.38,31.14,46.29,17.82,67.39
		c-12.92,4.85-18.46,20.82-10.82,31.22c5.55,7.56,15.94,11.37,22.05,18.58c6.11,7.22,2.92,21.34-7.21,20.24
		c0.94,3.85,1.89,7.7,2.83,11.55c6.6-4.3,13.81,5.8,12.02,12.86s-6.54,15-1.73,20.87c5.2,0.24,10.41,0.48,15.61,0.72
		c8.53,4.8,5.96,16.34,1.34,24.27c-4.62,7.94-10.35,17.47-5.15,25.12c4.87-2.91,11-4.13,16.82-3.34c8.32,2.61,8.71,12.89,6.3,20.38
		c-2.41,7.49-5.86,16.21-0.57,22.44c4.73,5.59,15.17,7,17.27,13.73c2.28,7.31-7.57,13.87-6.82,21.42
		c1.19,12,23.13,10.28,32.45,19.08c6.91,6.53,4.92,16.8,3.63,25.66c-1.29,8.86,0.16,20.11,9.64,23.25
		c4.15,1.38,8.96,0.75,12.95,2.45c8.64,3.68,7.77,14.44,8.17,22.9c0.39,8.46,9.5,18.93,17.21,13.89
		c1.19,11.94,2.37,23.89,3.56,35.83c4.45,0.19,8.9,0.39,13.34,0.58c2.56,10.14-4.33,22.25,2.95,30.41
		c2.61,2.93,6.57,4.62,10.04,6.75c11.37,7.02,17.64,19.96,15.52,32.05c11.54,8.06,23.09,16.11,34.63,24.17
		c3.65-2.93,4.44-8.25,1.78-11.92c-19.3-0.43-33.77-21.45-25.3-36.76c-4.65-1.4-9.3-2.8-13.95-4.2c7.77-8.51,1.66-21.34-6.59-29.49
		s-18.99-15.58-21.13-26.33c-1.68-8.44-0.67-20.97-10.35-21.63c9.64-3.63,5.45-17.1-2.79-22.82c-8.24-5.72-19.57-9.52-22.83-18.31
		c-1.31-3.53-1.04-7.34-1.62-11.01c-3.09-19.5-29.45-33.31-26.83-52.87c0.43-3.24,1.7-6.45,1.25-9.7
		c-2.06-14.9-35.79-18.33-30.07-32.47c1.13-2.79,3.86-5.04,4.35-7.98c0.3-1.84-0.33-3.69-0.95-5.46
		c-4.86-13.78-9.71-27.56-14.57-41.34c-1.49-4.22-2.97-8.43-4.46-12.65c-3.62-10.28-7.27-20.62-12.8-30.22
		c-1.84-3.19-3.92-6.4-4.28-9.96c-0.59-5.7,3.28-11.72,0.65-16.96c-1.14-2.28-3.36-3.99-4.95-6.06c-7.46-9.74,0.96-22.52,1.94-34.24
		c2.13-25.5-31.95-49.29-19.65-72.45c2.54-4.78,7-9.03,7.31-14.3c0.52-8.78-10.18-14.44-15.07-22.1
		c-11.81-18.5,10.97-46.98-7.1-61.01c-3.14-2.44-7.22-4-9.62-7.02c-2.6-3.28-2.67-7.57-2.64-11.57c0.11-14.74,0.21-29.47,0.32-44.21
		c0.03-4.21-0.04-8.72-2.73-12.2c-3-3.88-8.67-5.67-11.56-9.62c-6.95-9.49,6.74-21.42,4.75-32.58c-1.21-6.75-7.83-11.55-12.06-17.27
		c-4.41-5.96-4.4-13.22,2.1-17.63C278.26,426.77,287.85,404.04,263.65,395.7z"/>
	<path class="st0" d="M1246.83,1088.58c3.08-11.07,23.28-11.48,28.17-22.03c2.28-4.92,0.41-10.47-0.11-15.76
		c-1.46-14.99,9.66-30.24,25.72-35.27c-8.21-3.68-6.7-14.67-1.77-21.54c4.93-6.87,12.28-13.29,12.2-21.42
		c-0.02-2.44-0.73-4.98,0.27-7.26c1.25-2.85,4.73-4.33,7.14-6.53c5.67-5.15,4.88-13.32,5.29-20.49c0.42-7.17,4.55-15.88,12.69-15.97
		c-6.94-5-8.97-14.57-4.55-21.45c3.56-5.53,10.34-8.89,14.33-14.18c6.38-8.46,4.31-19.59,5.16-29.72
		c0.85-10.14,8.33-22.09,19.76-20.88c-6.27-4.42-3.55-13.44,1.15-19.19c4.7-5.75,11.14-11.37,10.92-18.46
		c-0.11-3.54-1.96-6.91-2.05-10.45c-0.12-4.77,2.89-9.08,5.22-13.39c6.04-11.12,7.92-23.6,12.24-35.33
		c4.32-11.73,12.11-23.54,25.07-28.15c-8.39-5.39-6.14-16.93-1.75-25.23s10.13-17.65,5.98-26.05c-1.19-2.42-3.19-4.61-3.48-7.24
		c-0.67-5.99,7.15-9.54,11.36-14.27c6.64-7.45,4.13-18.08,3.43-27.54c-0.7-9.46,3.44-21.49,14.13-22.38
		c-14.58-15.12-9.74-37.83-4.09-57.04c1.33-4.51,2.72-9.14,5.87-12.88c5.53-6.55,15.31-9.02,24.5-10.03
		c2.99-11.31,3.09-23.2,0.29-34.54c-1.75-7.09-4.63-14.32-2.9-21.41c1.72-7.09,10.66-13.42,17.97-10.12
		c1.68-12.02,16.47-21.24,29.87-18.62c2.05-4.06,4.09-8.11,6.14-12.17c3.81,11.72-3.16,25.43-15.61,30.7
		c-5.19,2.2-11.05,3.04-16.06,5.55c-5.01,2.51-9.16,7.64-7.36,12.46c0.95,2.55,3.34,4.44,5.3,6.5c8.67,9.14,8.68,23.8,0.01,32.95
		c-3.78,3.99-9.35,8.87-6.42,13.38c1.79,2.75,5.97,3.5,8.32,5.9c5.24,5.34-2.02,13.37-9.42,16.06c-7.4,2.69-16.75,4.64-19.26,11.35
		c-0.92,2.45-0.66,5.11-0.4,7.69c0.67,6.56,1.35,13.13,2.02,19.69c0.98,9.53-3.04,23.33-13.63,21.3
		c2.06,22.65,0.67,45.54-4.15,67.86c-3.98,0.7-7.97,1.4-11.95,2.09c6.35,14.92,1.97,31.54-2.46,46.99
		c-0.99,3.46-1.98,6.91-2.97,10.37c-0.95,3.31-1.94,6.71-4.17,9.5c-2.34,2.93-5.83,4.95-8.79,7.41
		c-6.78,5.64-10.58,13.45-14.21,21.02c-5.42,11.32-10.92,23.02-10.99,35.31c-0.03,5.67,1.09,11.5-0.84,16.91
		c-1.25,3.49-3.68,6.54-5.61,9.78c-4.97,8.35-6.57,18.21-4.46,27.46c-6.15,1.45-12.3,2.89-18.44,4.34
		c11.38,7.57,4.1,23.4-3.81,33.87s-14.63,26.68-2.8,33.71c-8.72,1.37-14.46,9.02-16.73,16.58c-2.27,7.56-2.16,15.58-4.71,23.07
		c-4.52,13.26-17.23,26.61-10.61,39.17c-13.03,7.66-13.02,24.16-18.72,37.04c-4.48,10.11-12.94,18.42-18.59,28.06
		c-5.65,9.64-8.01,22.25-0.41,30.78c-11.27,5.6-21.73,12.46-31.06,20.37c-2.8,2.37-5.62,5.04-6.39,8.39
		c-0.83,3.61,0.86,7.28,1.15,10.96c1.43,18.54-31.79,24.02-34.34,4.11c-1.04-8.14,5.77-16.03,10.74-22.09
		C1243.19,1106,1242.88,1102.8,1246.83,1088.58z"/>
	<path class="st0" d="M840.54,1031.87c-0.59-9.3,3.17-18.39,8.19-26.2c-9.01,0.21-13.95-14.03-6.78-19.57
		c1.78-1.38,4.03-2.25,5.27-4.14c2.6-4-1.1-9.24-5.14-11.72c-4.04-2.48-9.05-4.39-10.81-8.83c-1.75-4.44,0.57-9.31,2.24-13.78
		c4.23-11.36,4.21-24.3-0.06-35.65c-4.05,4.37-11.96-0.24-12.94-6.15c-0.98-5.91,2.21-11.59,4.85-16.95
		c2.65-5.36,4.83-11.87,2.01-17.14c-2.61-4.88-8.66-6.93-11.68-11.56c-8.22-12.62,11.87-28.05,8.26-42.72
		c-1.63-6.65-7.69-11-12.21-16.1c-4.52-5.11-7.46-13.56-2.67-18.4c1.86-1.89,4.53-2.75,6.46-4.57c5.53-5.2,2.31-14.68-2.46-20.61
		c-4.77-5.92-11.11-11.72-11.16-19.36c-0.03-5.52,3.33-10.39,6.47-14.9c3.14-4.51,6.33-9.57,5.88-15.07s-6.59-10.61-11.31-7.85
		c-4.57-8.48-2.64-20.01,4.44-26.49c2.56-2.35,5.96-4.54,6.21-8.03c0.23-3.26-2.45-5.86-4.6-8.29
		c-11.11-12.54-11.38-33.49-0.6-46.32c-7.55,0.43-11.82-9.18-11.01-16.8c0.81-7.62,4.41-15.02,3.38-22.61
		c-1.14-8.46-7.91-15.93-6.78-24.39c0.46-3.46,2.23-6.65,2.59-10.12c0.8-7.92-5.86-14.99-5.67-22.94
		c0.21-8.95,11.03-15.71,19.02-11.88c-6.54,0.71-13.09,1.43-19.63,2.14c-3.77-4.15,2.64-9.87,7.97-11.51
		c4.99-1.53,10.29-2.85,15.38-1.71c5.09,1.14,9.85,5.49,9.79,10.78c-0.11,10-15.94,16.82-11.87,25.94c1.04,2.33,3.32,4.06,3.86,6.56
		c0.41,1.91-0.28,3.88-0.96,5.71c-2.77,7.42-5.54,14.84-8.3,22.25c4.31,0.71,8.62,1.41,12.93,2.12c-2.74,6-7.45,11.06-9.25,17.42
		s1.29,14.99,7.81,15.3c1.54,8.17,5.92,15.62,7.06,23.86c1.15,8.23-2.73,18.38-10.86,19.54c2.21,5.6,7.57,9.79,13.48,10.54
		c0.53,13.57-3.29,27.28-10.74,38.56c4.69-3.03,11.35,0.35,13.75,5.44c2.4,5.09,1.72,11.07,0.73,16.62
		c-1.29,7.27-2.99,14.47-5.11,21.54c4.58,1.06,6.2,7.07,5.21,11.72s-3.65,8.86-4.23,13.58c-0.77,6.31,2.26,12.42,2.89,18.74
		c0.63,6.32-3.15,14.27-9.39,13.63c13.21,11.26,16.95,30.44,16.11,47.91c-0.29,5.92-3.72,13.82-9.31,12.08
		c-1.73,1.03-0.78,3.96,1.01,4.89c1.78,0.93,3.93,0.76,5.84,1.38c10.45,3.36,3.05,21.5,10.37,29.78c2.01,2.27,4.98,3.53,6.87,5.9
		c8.14,10.24-10.26,28.07-0.89,37.17c2.33,2.26,5.83,3.04,7.94,5.51c2.83,3.33,2.02,8.67-0.63,12.14s-6.69,5.51-10.59,7.43
		c2.32,4.38,7.12,6.65,11.09,9.58c3.97,2.92,7.55,7.93,5.74,12.55c-1.11,2.81-3.92,4.58-5.35,7.24c-4.9,9.14,8.98,20.21,4.64,29.63
		c-7.42,16.11,22.46,14.2,11.14,31.93C863.23,1064.08,841.53,1047.32,840.54,1031.87z"/>
	<g>
		<g>
			<path class="st0" d="M806.56,478.15c2.58-1.21,4.64-5.06,5.03-9.38c0.39-4.32-0.93-8.85-3.2-11.04c-1.75-1.68-3.99-2.1-5.39-4.49
				c-0.87-1.48-1.28-3.51-1.61-5.5c-0.76-4.63-1.18-9.6-0.32-14.24c1.12-6.01,4.21-10.51,6.06-16.05c0.73-2.21,1.14-4.87,1.17-7.43
				c-5.9,0.01-11.79,0.01-17.69,0.02c-0.66,1.14-1.29,2.33-1.82,3.65c-2.9,7.2-3.38,17-0.75,24.27c0.83,2.29,1.98,4.73,1.54,7.33
				c-0.27,1.6-1.09,2.77-1.75,4.05c-2.58,5.03-2.6,13.02-0.05,17.89c0.53,1.02,1.17,1.93,1.52,3.14c1.08,3.69-0.85,7.77-1.91,11.56
				c-0.72,2.56-1.04,4.95-1.07,7.17c6.04,0.86,12.07,1.87,17.96,3.67c-0.37-0.73-0.77-1.43-1.14-2.11
				c-1.45-2.68-2.66-6.89-1.21-9.69C803.01,478.86,804.94,478.91,806.56,478.15z"/>
		</g>
	</g>
	<path class="st0" d="M793.2,347.01c-2.69,3.16-3.42,7.99-3.34,12.48c0.08,4.48,0.81,8.97,0.44,13.43c-0.5,6-2.93,12.21-0.99,17.78
		c1.78,5.09,7.01,8.98,6.06,14.37c3.91,2.65,9.26,1.85,12.49-1.85c3.23-3.71,4.06-10.01,1.93-14.7c-0.68-1.49-1.61-2.81-2.34-4.26
		c-2.61-5.16-2.52-11.9-0.29-17.31c0.62-1.51,1.42-3.02,1.38-4.69c-0.04-1.87-1.09-3.46-1.9-5.07c-4.74-9.36,3.9-30.7-5.51-32.97
		c-3.24-0.78-8.25,1.99-10.05,5.15C788.66,333.64,793.35,346.84,793.2,347.01z"/>
	<path class="st1" d="M626.66,1324.88c11.26,23.45,41.62,31.39,67.39,27.8c25.76-3.59,49.56-15.7,74.93-21.44
		c23.07-5.22,47.51-5.2,69.29-14.41c40.34-17.05,66.03-63.34,109.26-70.42c-1.59,32.61,26.57,58.63,54.56,75.43
		c18.74,11.24,39.46,20.93,61.31,20.69c18.66-0.2,36.4-7.59,53.59-14.87c32.34-13.69,68.79-32.11,76.28-66.42"/>
	<g>
		<path class="st2" d="M866.29,1031.63c-4.73-3.89-13.16-1.1-14.64,4.85c3.5-1.35,7.4-1.66,11.06-0.86
			c0.21,3.83,1.11,7.44,2.5,10.85C870.02,1043.41,870.78,1035.31,866.29,1031.63z"/>
		<path class="st3" d="M1035.36,1349.54c-20.44-6.3-42.97-14.28-52.72-33.33c-6.66-13.02-8.16-31.61-22.05-36.18
			c-12.77-4.19-24.63,7.47-34.16,16.94c-29.17,28.97-67.71,46.16-105.33,62.75c-17.76,7.83-35.8,15.71-54.28,21.59
			c18.54,2.01,37.36,1.32,55.67-2.26c19.45-3.8,38.21-10.67,57.73-14.11c20.27-3.57,40.99-3.39,61.57-3.2
			c24.53,0.23,49.06,0.46,73.6,0.69c20.71,0.2,42.2,0.2,61.4-7c-1.09,0.19-2.19,0.36-3.3,0.47
			C1060.58,1357.22,1047.76,1353.36,1035.36,1349.54z"/>
		<path class="st2" d="M1238.98,1169.78c-8.22-9.8-16.45-19.61-24.67-29.41c-8.16,17.55-19.66,33.53-33.71,46.84
			c-5.26,4.98-11.17,9.74-18.24,11.29c-7.62,1.67-15.5-0.59-22.94-2.93c-86.41-27.12-168.83-66.89-243.83-117.66
			c-12.18-8.24-25.05-18.38-30.37-31.45c-0.26,0.17-0.53,0.33-0.82,0.46c-4.87,2.29-10.24-0.98-12.53-5.32
			c-0.14,12.96-7.03,23.02-15.53,32.4c-46.22,50.98-99,96.02-156.62,133.64c-30.22,19.73-68.11,37.9-100.99,23.01
			c-14.87-6.73-26.12-19.33-36.91-31.58c-1.16,6.91,4.97,12.64,10.31,17.17c46.42,39.47,76.26,96.62,126,131.82
			c26.06,18.45,56.96,29.81,88.69,33.25c18.49-5.88,36.52-13.76,54.28-21.59c37.62-16.58,76.15-33.78,105.33-62.75
			c9.54-9.47,21.4-21.13,34.16-16.94c13.9,4.56,15.39,23.16,22.05,36.18c9.74,19.04,32.28,27.03,52.72,33.33
			c12.41,3.82,25.23,7.69,38.14,6.36c1.11-0.11,2.2-0.28,3.3-0.47c2.5-0.94,4.97-1.99,7.39-3.19c25.83-12.82,41.81-39.02,56.4-63.88
			c7.59-12.92,15.17-25.85,22.76-38.77c6.71-11.44,13.59-23.08,23.55-31.84c6.12-5.39,13.23-9.52,20.28-13.61
			c9.16-5.32,18.31-10.63,27.47-15.95c3.96-2.3,8.42-5.4,8.51-9.98C1243.21,1174.99,1241.04,1172.23,1238.98,1169.78z"/>
	</g>
	<path class="st0" d="M963.78,1183.93c0.15-0.99,0.02-2.01-0.37-2.82c-2.07,6.65-3.69,13.52-4.83,20.48
		c-0.62,3.77-1.11,7.62-2.38,11.15c-0.41,1.15-0.91,2.25-1.47,3.28c-0.17,0.32-0.71,0.22-0.48-0.01c0.15,0.28,0.25-2.16,0.29-1.8
		c0.89,10.53-2.65,21.54-1.88,32.1c0.77,10.56,10.17,20.08,16.15,12.35c-3.67-9.61,1.79-21.83,7.52-30.57
		c5.73-8.74,12.52-18.55,11.81-29.61c-0.26-4.04-1.55-7.93-0.96-12.01c0.82-5.6,4.79-9.42,7.92-13.49
		c8.06-10.47,11.78-26.61,9.33-40.42c-0.71-3.97-1.89-8-1.13-12.13c1.06-5.77,5.4-9.41,8.28-14.09c7.66-12.46,4.08-30.18-0.42-43.95
		c-1.21-3.71-2.49-7.72-1.8-11.88c0.59-3.55,2.51-6.52,4.32-9.35c6.2-9.69,12.03-20.34,14.5-32.42c2.47-12.09,0.92-25.94-5.88-33.33
		c7.04-3.78,12.19-14.07,11.98-23.99c-0.09-4.4-1.11-8.8-0.18-13.14c1.65-7.67,8.51-11.65,11.08-18.94
		c3.87-10.99-3.63-23.75,0.42-34.63c1.2-3.23,3.27-5.76,4.79-8.75c7.57-14.92-0.34-36,7.08-51.05c4.03-8.18,11.91-12.82,14.29-21.97
		c3.31-12.69-6.04-26.33-1.13-38.19c2.98-7.21,10.17-10.3,12.61-17.82c4.32-13.31-9.8-25.91-5.74-39.35
		c2.03-6.73,7.89-10.32,10.4-16.8c3.87-10-1.73-22.32,2.28-32.22c2.61-6.44,8.64-9.88,10.57-16.69c2.86-10.05-4.85-21.37-0.41-30.45
		c2.06-4.2,6.02-6.01,8.42-9.88c5.88-9.48-0.97-22.11-7.47-29.36c8.56-6.42,14.62-19.08,15.25-31.88
		c-6.05,12.54-22.64,5.07-29.11,17.25c-7.24,13.61,7.96,30.5,3.13,45.75c-1.66,5.22-5.34,8.85-7.87,13.46
		c-6.11,11.14-4.7,25.77-4.96,39.09c-0.25,13.33-4.7,29.9-14.52,32.38c5.42,3.08,4.84,14.22,1.52,21.45
		c-3.32,7.23-8.51,13.13-10.56,21.07c-4.42,17.07,7.37,35.82,0.45,51.54c-4.11,9.34-14.12,15.22-13.84,25.65
		c0.11,3.99,1.86,7.34,2.69,11.09c2.1,9.48-2.82,21.43-10.12,24.61c-7.6,14.85,2.99,37.51-6.48,50.33c-1.99,2.69-4.8,4.77-5.52,8.36
		c-0.8,4,1.43,7.46,2.44,11.16c2.21,8.09-1.59,17.58-6.15,24.47s-10.16,12.98-12.87,21.34c-2.71,8.37-0.69,20.04,5.74,21.13
		c-0.92,13.06-6.64,24.98-10.44,37.37c-3.8,12.39-5.35,27.8,1.09,36.77c-7.68,0.02-13.27,12.8-12.18,22.95s6.52,17.87,11.71,24.95
		c-0.78,9.04-10.91,10.94-14.61,18.87c-4.88,10.48,4.33,22.87,1.5,34.47c-3.57,14.66-18.73,12.6-24.24,24.68
		c-3.72,8.17-4.75,18.06-6.1,27.06c-1.64,10.96-3.28,21.92-4.92,32.87"/>
	<g>
		<path d="M1110.03,548.47l-1.88-0.33L232.62,395.1l573.29-103.57l762.48,116.75L1110.03,548.47z M323.57,394.84l785.45,137.29
			l388.03-118.68L806.12,307.66L323.57,394.84z"/>
	</g>
	<g>
		<line class="st4" x1="281.17" y1="395.11" x2="1508.42" y2="407.94"/>
	</g>
	<g>
		<line class="st4" x1="772.83" y1="305.95" x2="1109.16" y2="540.3"/>
	</g>
	<g>
		<line class="st5" x1="262.9" y1="394.92" x2="894.34" y2="58.59"/>
	</g>
	<g>
		<line class="st5" x1="1532.29" y1="410.11" x2="890" y2="58.59"/>
	</g>
	<g>
		<line class="st5" x1="1109.16" y1="540.3" x2="892.17" y2="60.76"/>
	</g>
	<g>
		<line class="st5" x1="807.98" y1="292.27" x2="892.17" y2="60.76"/>
	</g>
</g>
</svg>
