<?xml version="1.0" encoding="utf-8"?>
<!-- Generator: Adobe Illustrator 25.4.1, SVG Export Plug-In . SVG Version: 6.00 Build 0)  -->
<svg version="1.1" id="Layer_1" xmlns="http://www.w3.org/2000/svg" xmlns:xlink="http://www.w3.org/1999/xlink" x="0px" y="0px"
	 viewBox="0 0 606 740" style="enable-background:new 0 0 606 740;" xml:space="preserve">
<style type="text/css">
	.st0{fill:#E6DEE4;}
	.st1{fill:#EDABEF;}
	.st2{fill:#FF0000;}
	.st3{fill:#CC3E8F;}
	.st4{fill:#D0619D;}
	.st5{fill:#DE83E2;}
	.st6{fill:#FFFFFF;}
</style>
<g>
	<path d="M40.5,304.39c-2.35,7.11,2.69,14.53,9.01,25.09c15.58,26.06,6.57,17.34,24.02,46c19.35,31.78,40.9,59.77,40.03,58.54
		c1.59-2.51,3.26-4.95,5-7.32c67.57-91.72,326.22,36.36,397.31-30.32c12.46-11.68,24.32-35.67,48.04-83.63
		c0.64-1.29,2.17-4.51,1-7.32c-1.84-4.42-9.21-4.95-12.01-5.23c-12.5-1.23-23.79-8.54-36.03-11.5
		c-45.96-11.1-125.73-56.04-218.17-60.63c-109.98-5.47-162.95,50.04-234.18,62.72C59.83,291.63,43.83,294.28,40.5,304.39z"/>
	<path class="st0" d="M141.91,280.06c-0.51,4.44,1,8,1,8c0.52,1.22,1.91,3.84,6,7c3.99,3.07,8.37,4.68,14,6
		c16.02,3.75,21.87-0.08,35,1c1.02,0.08,3.5,0.31,6-1c0.84-0.44,1.06-0.82,5-6c2.03-2.67,2.67-3.51,3-5c0.48-2.18-0.08-3.99,0-4
		c0.16-0.03,0.18,7.94,4,14c3.26,5.18,8.33,7.43,12,9c5.05,2.16,9.45,2.93,30,3c0,0,17.26,0.06,32-3c0,0,4.58-0.95,9-4
		c1.15-0.79,2.26-1.56,3-3c0.57-1.1,0.52-1.83,1-2c1.07-0.39,2.98,2.68,4,4c1.87,2.41,4.89,4.28,14,6c14.7,2.77,20.41,0.45,40,2
		c3.83,0.3,6.3,0.6,10,0c0.73-0.12,11.53-2.02,18-10c1.06-1.31,2.93-3.61,4-7c0.47-1.49,0.92-3.61,1-4c0.65-3.1,0.79-5.01,1-5
		c0.3,0.01-0.33,3.62,1,7c1.6,4.05,5.35,6.1,7,7c1.42,0.77,4.98,2.5,20,2c2.43-0.08,0.31-0.06,14-1c6.59-0.45,9.69-0.64,14-2
		c4.61-1.46,6.87-3.09,8-4c3.19-2.59,4.7-5.42,5-6c0,0,2.07-4.01,2-9c-0.12-8.37-63.7-53.47-165-53
		C200.76,227.52,142.82,272.16,141.91,280.06z"/>
	<path class="st1" d="M41.11,326.06c1.99,14.25,6.07,24.62,7.39,28c15.48,39.65,12.46,44.65,27.46,79
		c9.05,20.72,20.97,47.99,44.37,79c15.81,20.95,36.28,47.54,72.89,70c35.09,21.53,67.6,28.64,80.28,31c0,0,30.94,5.76,81.34,1
		c6.07-0.57,12.36-2.32,14.79-3c2.72-0.76,5.35-1.5,5.28-2c-0.16-1.13-14.07-0.16-16.9,0c-28.16,1.62-58.52-13.2-67.61-18
		c-27.73-14.66-43.26-34.26-54.93-49c-6.64-8.38-12.58-17.32-19.01-27c0,0-11.1-16.69-16.9-29c-1.97-4.18-2.95-6.26-3.17-7
		c-0.7-2.39-0.76-3.89-2.11-5c-1.85-1.51-4.62-1.07-5.28-1c-11.86,1.27-50.7-34-50.7-34c-15.48-14.66-23.81-21.42-25.35-23
		c-13.49-13.75-22.15-25.29-31.69-38c-9.61-12.8-15.45-21.82-20.07-29c-10.92-16.94-13.34-22.84-14.79-27
		c-4.78-13.73-4.37-24.05-5.28-24C40.08,298.11,39.03,311.18,41.11,326.06z"/>
	<path class="st2" d="M552.91,124.06"/>
	<path class="st1" d="M559.91,313.06c-1.05,5.64-2.81,9.48-17,31c-9.49,14.39-14.23,21.58-19,28c-15.07,20.28-16.67,18.45-21,26
		c-17.63,30.73-0.92,78.17,5,78c0.91-0.03,1.55-1.17,2-2c23.91-43.88,35-82,35-82c5.96-20.5,8.99-30.91,11-39c2.02-8.1,4-21.75,9-42
		c0.07-0.29,0.72-1.84,1-4c0.15-1.14,0.32-2.45,0-4c-0.45-2.2-1.91-5.09-3-5C561.13,298.21,561.18,306.22,559.91,313.06z"/>
	<g>
		<path class="st3" d="M340.7,521.99c-2.48-54.94-5.15-110.79-22.82-162.8c-0.57,0.54-1.21,1.14-1.97,1.87c-2.74,2.57-3.36,2.9-4,3
			c-0.82,0.13-1.65-0.13-2.45-0.59c3.69,7.53,6.13,15.67,8.37,23.78C329.94,431.24,337.62,476.46,340.7,521.99z"/>
		<path class="st4" d="M512.91,384.06c0,0-3.24-11.55-9-21c-18.18-29.84-75.91-39.73-122-32c-15.3,2.57-26.78,6.59-33,9
			c-16.95,6.56-25.56,13.14-28,16c-0.89,1.05-1.77,1.93-3.03,3.13c17.67,52.01,20.34,107.87,22.82,162.8
			c-3.08-45.53-10.76-90.75-22.88-134.75c-2.23-8.11-4.68-16.25-8.37-23.78c-2.66-1.55-4.99-5.52-5.55-6.41
			c-7.68-12.23-42.53-15.27-64-17c-22.57-1.82-40.5-3.14-64,1c-19.07,3.36-27.87,7.86-34,12c-4.9,3.32-15.79,10.43-22,24
			c-4.61,10.07-6.8,23.92-2,27c2.4,1.54,4.7-0.79,10,0c5.82,0.87,9.9,4.7,13,8c32.35,34.49,44,56,44,56
			c21.91,40.44,32.86,60.66,46,77c12.02,14.94,25.12,30.92,48,44c25.93,14.82,49.86,17.61,63,19c37.43,3.97,65.39-5.11,71-7
			c9.1-3.07,25.06-8.61,42-22c17.88-14.13,27.25-29.41,33-39c12.65-21.08,17.13-39.28,21-55c5.19-21.07,5.79-37.38,7-70
			C516.23,406.54,516.39,396.45,512.91,384.06z"/>
	</g>
	<g>
		<path class="st1" d="M52,284.48c0,0-0.2,0.12-0.54,0.35c-0.81,0.88-1.48,1.64-1.46,1.65C50.02,286.5,52.02,284.49,52,284.48z"/>
		<path class="st5" d="M298.12,186.42c-2.7,5.95-3.49,12.59-3.57,19.13c-0.12,10.62,1.61,21.26,5.04,31.31
			c0.25-0.16,0.53-0.33,0.84-0.52c1.37-0.84,1.7-0.95,2-1c1.84-0.3,3.57,1.56,4.01,2.01c0.43,0.44,1.74,1.23,3.98,2.43
			c-1.56-1.7-3-3.52-4.26-5.46C297.17,220.51,296.94,202.87,298.12,186.42z"/>
		<path class="st1" d="M562.91,296.51c-4.82-2.42-9.4-10.14-14.02-16.04c-8.57-10.94-37.23-41.12-57.1-61.17
			c-20.6-20.79-19.04-18.13-49.09-47.13c0,0-10.9-10.51-24.04-20.06c-4.37-3.17-8.57-5.74-9.02-6.02c-2.38-1.45-5.24-3.19-9.02-5.01
			c-3.06-1.48-7.3-3.5-13.02-5.01c-2.54-0.67-8.4-2.03-16.03-2.01c-8,0.03-13.88,1.6-19.03,3.01c-6.29,1.72-10.86,3.85-20.04,8.02
			c-1.59,0.72-3.6,1.67-6.01,3.01c-0.94,0.52-2.89,1.6-5.01,3.01c-5.28,3.5-5.16,4.73-9.02,7.02c-2.28,1.35-4.65,2.76-8.01,3.01
			c-3.56,0.27-6.37-0.9-9.02-2.01c-2.5-1.04-4.18-2.15-7.01-4.01c-3.43-2.26-3.94-2.99-7.01-5.01c-2.69-1.78-4.78-2.86-7.01-4.01
			c-1.27-0.66-5.81-2.97-14.02-6.02c-5.67-2.1-8.5-3.15-12.02-4.01c-8.66-2.11-15.54-2.03-17.03-2.01
			c-8.42,0.16-14.91,1.99-18.03,3.01c-10.22,3.34-17.04,8.65-20.04,11.03c-28.87,22.92-51.09,45.13-51.09,45.13
			c-22.11,22.1-18.9,17.34-50.09,48.13c-3.94,3.89-7.66,7.79-38,40.62c0,0-1.44,1.56-2.61,2.85c0.34-0.23,0.53-0.36,0.54-0.35
			c0.02,0.02-1.99,2.02-2,2.01c-0.02-0.02,0.66-0.77,1.46-1.65c-2.34,1.61-11.47,8.5-10.48,14.69c0.13,0.81,0.45,1.49,0.6,1.84
			c1.63,3.65,5.17,5.23,7.41,6.19c2.74,1.18,4.81,1.65,9.02,2.01c6.06,0.51,10.71,0.83,17.03,0c14.11-1.86,29.67-8.78,37.07-12.03
			c14.08-6.19,25.75-11.33,38.07-16.04c13.52-5.18,25.19-9.66,41.07-13.04c15.51-3.3,19.1-2.17,36.06-5.01
			c14.59-2.45,28.14-5,43.08-11.03c13.66-5.51,25.51-12.83,27.05-14.04c0.72-0.56,1.3-0.95,2.17-1.49
			c-3.44-10.05-5.16-20.69-5.04-31.31c0.07-6.53,0.87-13.18,3.57-19.13c-1.19,16.45-0.95,34.09,8.05,47.9
			c1.26,1.94,2.7,3.75,4.26,5.46c3.71,1.98,9.96,5.09,19.06,9.6c3.64,1.81,10.69,5.24,20.04,8.02c8.67,2.58,15.38,3.42,28.05,5.01
			c10.72,1.35,11.3,0.94,19.03,2.01c12.68,1.75,22.14,4.36,28.05,6.02c13.16,3.68,22.31,7.52,40.07,15.04
			c16.31,6.91,16.58,7.71,30.05,13.04c2.48,0.98,18.51,7.24,35.06,10.03c0.49,0.08,5.41,0.89,12.02,1
			c9.52,0.16,13.36-1.28,15.03-2.01c2.59-1.13,4.06-2.42,7.01-5.01c1.2-1.06,2.07-1.95,2-3.01
			C565.8,297.88,563.51,296.81,562.91,296.51z M353.49,155.25c-1.61,5.71-6.26,10.18-11.53,12.91c-4.63,2.4-12.02,5.37-17.1,4.35
			c-0.29-2.11,0.15-4.15,1.04-6.12c1.62-3.59,4.65-6.31,7.59-8.93c4.95-4.4,11.05-9.12,17.49-7.56c0.72,0.18,1.45,0.44,1.98,0.97
			C354.05,151.97,353.91,153.77,353.49,155.25z M398.92,184.29c-0.81,1.31-2.6,1.6-4.14,1.53c-5.93-0.25-11.35-3.75-15.22-8.25
			c-3.4-3.96-7.99-10.46-8.17-15.64c1.99-0.77,4.07-0.81,6.2-0.4c3.87,0.75,7.21,3.07,10.44,5.33c5.42,3.8,11.42,8.66,11.38,15.28
			C399.4,182.89,399.31,183.66,398.92,184.29z"/>
		<path class="st6" d="M388.03,166.87c-3.22-2.26-6.57-4.58-10.44-5.33c-2.12-0.41-4.21-0.37-6.2,0.4
			c0.18,5.18,4.76,11.68,8.17,15.64c3.87,4.5,9.29,7.99,15.22,8.25c1.54,0.07,3.32-0.22,4.14-1.53c0.39-0.63,0.49-1.4,0.49-2.15
			C399.44,175.52,393.45,170.67,388.03,166.87z"/>
		<path class="st6" d="M350.98,149.9c-6.43-1.56-12.54,3.16-17.49,7.56c-2.94,2.62-5.97,5.34-7.59,8.93
			c-0.89,1.97-1.33,4.01-1.04,6.12c5.08,1.02,12.46-1.95,17.1-4.35c5.27-2.73,9.92-7.2,11.53-12.91c0.42-1.49,0.55-3.29-0.54-4.38
			C352.43,150.34,351.7,150.07,350.98,149.9z"/>
	</g>
</g>
</svg>
