<?xml version="1.0" encoding="utf-8"?>
<!-- Generator: Adobe Illustrator 25.4.1, SVG Export Plug-In . SVG Version: 6.00 Build 0)  -->
<svg version="1.1" id="Layer_1" xmlns="http://www.w3.org/2000/svg" xmlns:xlink="http://www.w3.org/1999/xlink" x="0px" y="0px"
	 viewBox="0 0 300 300" style="enable-background:new 0 0 300 300;" xml:space="preserve">
<style type="text/css">
	.st0{fill:#A8A8A8;}
	.st1{fill:none;}
	.st2{fill:#E6DEE4;}
	.st3{fill:#020002;}
	.st4{fill:#FFFFFF;}
</style>
<g>
	<path class="st0" d="M37.4,147c-0.02,0.13,0,0.03,0,24.26c0,11.46,0,17.19,0,17.33c-0.06,10.08-0.17,10.36,0,12.13
		c0.91,9.31,5.42,16.05,8.67,20.8c2.11,3.08,9.39,13.19,29.46,26c11.15,7.11,22.51,14.36,39.86,19.06
		c22.52,6.11,40.69,4.03,45.06,3.47c16.57-2.14,28.14-7.51,38.13-12.13c14.64-6.79,24.83-11.51,34.66-22.53
		c3.68-4.13,14.44-16.5,17.33-34.66c0.42-2.64,0.28-9.85,0-24.26c-0.28-14.38-0.92-22.49-1.73-29.46c-0.13-1.1-1.13-9.76-1.73-12.13
		C239.29,103.94,41.51,115.88,37.4,147z"/>
	<path class="st1" d="M83.53,134.55c1.25-2.7,4.52-4.3,7.42-3.62c2.36,0.55,4.25,2.37,6.56,3.11c2.99,0.96,6.41-0.06,8.75-2.16
		c2.34-2.1,3.69-5.14,4.23-8.24c0.42-2.39,0.37-4.94-0.68-7.13c-1.96-4.09-6.88-5.9-11.41-6.17C84.81,109.53,71.55,120.5,69.8,134
		c-0.6,4.6,0.06,9.49,2.59,13.37c2.53,3.88,7.14,6.55,11.75,6.06c1.96-0.21,3.84-0.96,5.8-1.14c4.32-0.4,8.87,2.51,9.83,6.74
		c0.96,4.23-2.35,9.07-6.69,9.24c-6.93,0.27-11.58-9.59-18.41-8.34c-4.71,0.86-6.78,6.73-6.05,11.47
		c1.3,8.42,8.82,15.24,17.24,16.55s17.23-2.51,22.75-9c4.24-4.99,6.7-11.72,5.61-18.18c-1.08-6.46-6.11-12.34-12.56-13.48
		c-3.25-0.58-6.65,0.01-9.87-0.72C86.76,145.41,80.87,140.3,83.53,134.55z"/>
	<path class="st2" d="M106.72,67.28c-7.13,2.29-12.56,5.25-15.6,6.93c-8.23,4.55-13.76,9.14-17.33,12.13
		c-8.53,7.15-14.03,13.7-15.6,15.6c-6.85,8.31-13.67,16.58-17.33,29.46c-1.24,4.36-3.85,13.95-1.73,26
		c2.2,12.53,8.31,20.89,12.13,26c6.02,8.04,15.07,14.72,32.93,27.73c9.93,7.23,14.89,10.85,17.33,12.13
		c19.06,9.99,37.74,9.15,48.53,8.67c21.1-0.95,36.75-7.37,43.33-10.4c11.44-5.26,18.55-10.85,31.2-20.8
		c11.46-9.01,17.26-13.66,20.8-20.8c4.16-8.39,3.93-15.99,3.47-31.2c-0.45-14.62-0.78-25.45-6.93-38.13
		c-5.02-10.33-11.63-17.19-15.6-20.8c-8.68-7.88-16.87-11.2-27.73-15.6c-4.7-1.9-15.95-6.17-31.2-8.67
		c-13.49-2.21-23.58-1.96-32.93-1.73C123.08,64.09,115.95,64.32,106.72,67.28z"/>
	<path class="st2" d="M262.7,29.15"/>
	<path d="M78.31,148.18c-1.15-2.16,0.3-5.01,2.5-6.08c2.2-1.08,4.82-0.79,7.18-0.15c1.87,0.5,3.76,1.22,5.68,1.02
		c3.3-0.35,5.87-3.58,5.98-6.9c0.11-3.32-1.92-6.48-4.71-8.28s-6.23-2.38-9.55-2.21c-2.78,0.14-5.58,0.8-7.92,2.29
		c-4.08,2.6-6.25,7.38-7.39,12.08c-0.93,3.86-1.3,8.03,0.14,11.73c1.44,3.7,5.06,6.77,9.02,6.54c2.85-0.16,5.49-1.94,8.35-1.78
		c1.83,0.1,3.59,1.05,4.68,2.51c1.37,1.84,1.61,4.48,0.52,6.5c-1.09,2.02-3.47,3.28-5.75,2.97c-3.8-0.52-6.32-4.8-10.14-5.12
		c-2.92-0.24-5.65,2.19-6.27,5.05c-0.62,2.86,0.57,5.91,2.56,8.06c3.37,3.64,8.74,4.9,13.66,4.31c6.71-0.8,13.14-5.08,15.58-11.38
		c2.44-6.3,0.13-14.37-5.77-17.67c-3.15-1.76-6.94-2.24-10.46-1.89C83.53,150.03,79.97,151.29,78.31,148.18z"/>
	<path class="st3" d="M127.97,108.33c5.46-2.04,12.3,1.44,13.86,7.05c0.39,1.4,0.48,2.92,0.03,4.3c-1.26,3.82-6.27,5.19-10.11,4.02
		c-2.71-0.82-5.69-2.54-8.13-1.12c-1.2,0.7-1.9,2.02-2.36,3.33c-1.43,4.06-1.09,8.7,0.91,12.51c1.79,3.4,4.94,6.67,4.17,10.44
		c-0.45,2.19-2.23,3.91-4.23,4.88s-4.25,1.32-6.45,1.69c-1.29,0.21-2.63,0.43-3.9,0.11c-2.96-0.76-4.45-4.31-4.01-7.33
		s2.29-5.62,4.03-8.13s3.49-5.21,3.68-8.26c0.2-3.05-1.77-6.45-4.82-6.72c-1.27-0.11-2.52,0.31-3.73,0.69
		c-3.56,1.1-8.06,1.51-10.4-1.38c-0.9-1.12-1.3-2.56-1.44-3.99c-0.82-8.17,6.72-14.79,14.58-11.33c2.53,1.12,4.19,3.12,7.07,3.44
		C121.16,113.03,124.09,109.78,127.97,108.33z"/>
	<path class="st3" d="M222.73,128.87c5.5-1.94,12.27,1.68,13.72,7.32c0.36,1.41,0.43,2.92-0.06,4.3c-1.33,3.79-6.37,5.07-10.19,3.83
		c-2.69-0.87-5.64-2.65-8.11-1.27c-1.21,0.68-1.94,1.98-2.42,3.28c-1.51,4.03-1.26,8.68,0.67,12.53c1.72,3.43,4.81,6.77,3.96,10.52
		c-0.49,2.18-2.3,3.86-4.33,4.8c-2.03,0.94-4.28,1.24-6.49,1.56c-1.3,0.19-2.64,0.38-3.9,0.03c-2.94-0.82-4.37-4.4-3.87-7.41
		c0.5-3.01,2.39-5.58,4.18-8.05c1.79-2.48,3.59-5.14,3.84-8.19s-1.65-6.49-4.69-6.82c-1.27-0.14-2.52,0.27-3.75,0.62
		c-3.58,1.03-8.09,1.36-10.37-1.58c-0.88-1.13-1.25-2.59-1.37-4.01c-0.67-8.18,7.01-14.66,14.79-11.04c2.51,1.17,4.13,3.2,7,3.58
		C215.83,133.43,218.82,130.25,222.73,128.87z"/>
	<g>
		<path d="M167.36,168.08c-1.39-1.33-3.18-2.17-4.73-3.31c-4.68-3.46-6.79-9.38-7.96-15.08c-1.22-5.95-1.08-16.87-7.13-20.31
			c-7.98-4.54-16.66,2.17-16.25,10.81c0.09,1.81,0.53,3.59,0.54,5.4c0.03,5.58-4.04,10.39-8.64,13.55
			c-2.49,1.71-5.32,3.22-6.83,5.84c-2.22,3.86-0.58,9.25,3.12,11.73c3.69,2.49,8.84,2.22,12.65-0.08c3.82-2.29,6.37-6.34,7.53-10.64
			c0.62-2.27,1.46-5.2,3.81-5.36c2-0.14,3.42,2.07,3.57,4.07c0.15,2-0.46,4.01-0.24,6c0.42,3.8,3.93,6.73,7.68,7.46
			c3.75,0.73,7.63-0.37,11.09-1.99c1.38-0.65,2.82-1.49,3.4-2.9C169.71,171.48,168.76,169.41,167.36,168.08z M144.95,147.74
			c-0.32,0.59-0.81,1.2-1.48,1.22c-0.56,0.01-1.04-0.4-1.39-0.84c-1.02-1.24-1.55-2.87-1.48-4.47c0.04-0.87,0.29-1.79,0.94-2.37
			c1.44-1.3,3.27-0.09,3.88,1.38C146.09,144.3,145.76,146.23,144.95,147.74z"/>
		<path class="st4" d="M141.54,141.29c-0.65,0.58-0.9,1.5-0.94,2.37c-0.07,1.6,0.46,3.23,1.48,4.47c0.36,0.43,0.83,0.85,1.39,0.84
			c0.67-0.02,1.16-0.63,1.48-1.22c0.82-1.51,1.14-3.44,0.46-5.07C144.8,141.2,142.98,139.99,141.54,141.29z"/>
	</g>
	<g>
		<path d="M192.97,148.56c-3.91-4.45-8.95-8.09-11.5-13.44c-0.34-0.71-0.63-1.47-0.62-2.25c0.06-2.61,3.16-3.83,4.95-5.73
			c2.04-2.16,2.37-5.51,1.58-8.37c-0.79-2.86-2.54-5.35-4.3-7.74c-0.96-1.31-1.98-2.64-3.41-3.41c-5.59-3-12.82-3.85-17.57,1.05
			c-2.8,2.89-4.08,7.19-3.31,11.14c0.8,4.1,3.56,7.54,4.86,11.5c1.23,3.76,1.07,7.96-0.44,11.62c-0.95,2.29-2.39,4.34-3.38,6.61
			c-0.99,2.27-1.51,4.93-0.52,7.2c1.71,3.92,7.19,4.82,11.1,3.1c2.57-1.13,4.87-3.37,5.13-6.17c0.27-2.96-1.73-5.57-2.91-8.29
			c-0.69-1.58-1.12-3.33-0.79-5.02c0.32-1.69,1.53-3.28,3.2-3.68c2.22-0.53,4.49,1.21,5.3,3.35c0.81,2.14,0.5,4.52,0.06,6.76
			c-0.44,2.24-1.01,4.52-0.69,6.78c0.4,2.85,2.29,5.44,4.87,6.69c2.58,1.26,5.79,1.14,8.27-0.31c1.32-0.77,2.47-1.94,2.94-3.4
			C196.71,153.74,194.93,150.78,192.97,148.56z M175.71,120.11c-0.17,0.6-0.39,1.22-0.85,1.64c-0.66,0.6-1.67,0.68-2.52,0.43
			c-1.11-0.32-2.07-1.15-2.55-2.21c-0.48-1.06-0.48-2.32,0.01-3.37c0.31-0.68,0.83-1.27,1.5-1.6c2.07-1.02,4.44,1.46,4.63,3.44
			C175.97,118.99,175.86,119.56,175.71,120.11z"/>
		<path class="st1" d="M191.81,207.91c-1.19-0.96-3.02-0.92-4.27-0.05s-1.91,2.46-1.81,3.99c0.07,1.14,0.69,2.39,1.81,2.62
			c0.37,0.08,0.75,0.04,1.12-0.05c0.76-0.17,1.48-0.51,2.1-0.98c0.99-0.77,1.72-2,1.54-3.24c-0.11-0.75-0.54-1.43-1.08-1.97
			c-0.54-0.54-1.18-0.96-1.83-1.37"/>
	</g>
</g>
</svg>
