<?xml version="1.0" encoding="utf-8"?>
<!-- Generator: Adobe Illustrator 25.4.1, SVG Export Plug-In . SVG Version: 6.00 Build 0)  -->
<svg version="1.1" id="Layer_1" xmlns="http://www.w3.org/2000/svg" xmlns:xlink="http://www.w3.org/1999/xlink" x="0px" y="0px"
	 viewBox="0 0 300 300" style="enable-background:new 0 0 300 300;" xml:space="preserve">
<style type="text/css">
	.st0{fill:#FF00FF;}
</style>
<g>
	<g>
		<path class="st0" d="M116.91,80.87c6.47-11.96,10.16-27.09,3.37-38.87c-5.91-10.25-18.32-15.15-30.14-15.87
			c-9.21-0.56-19.32,1.39-25.37,8.36c-9.95,11.46-3.83,29.8,6.26,41.13c4.37,4.9,9.43,9.29,12.71,14.98s4.41,13.26,0.63,18.62
			c-5.06,7.15-15.9,6.86-24.09,3.74s-15.88-8.35-24.63-8.68c-13.2-0.5-24.39,10.61-29.27,22.89c-4.05,10.22-4.75,22.4,0.95,31.8
			s18.92,14.43,28.39,8.85c9.12-5.37,11.47-17.3,17.52-25.98c1.09-1.57,2.4-3.11,4.19-3.81c5.67-2.22,10.35,4.88,12.08,10.72
			c4.09,13.81,5.37,31.18-5.81,40.26c-3.94,3.2-8.9,4.82-13.37,7.24c-14.92,8.06-23.85,25.94-21.34,42.7s16.3,31.24,32.92,34.57
			c3.37,0.68,7.11,0.86,10.01-0.99c2.48-1.59,3.88-4.38,5.02-7.09c4.7-11.22,6.8-23.53,6.09-35.68c-0.39-6.59-1.44-13.79,2.23-19.28
			c5.68-8.51,18.93-7.21,27.67-1.88c3.88,2.36,7.68,5.8,8.08,10.33c0.68,7.59-8.16,12.66-10.04,20.05
			c-1.94,7.67,4.3,15.17,11.31,18.83c7.63,3.99,17.01,5.18,24.93,1.8c7.92-3.38,13.81-11.81,12.92-20.37
			c-0.54-5.25-3.38-9.95-5.03-14.96c-1.65-5.01-1.81-11.25,2.08-14.81c6.82-6.23,17.08,1.11,24.31,6.86
			c7.74,6.16,16.75,10.72,26.29,13.31c6.15,1.67,12.86,2.49,18.76,0.09c5.9-2.4,10.49-8.89,8.93-15.06
			c-1.58-6.22-8.13-9.5-13.37-13.22c-5.23-3.72-9.92-10.87-6.25-16.14c1.69-2.43,4.73-3.58,7.67-3.85
			c16.89-1.56,26.99,19.82,43.33,24.4c13.69,3.84,29.43-7.67,29.94-21.88c0.5-14.21-14.39-26.8-28.32-23.93
			c-7.44,1.53-13.67,6.51-20.73,9.31c-7.06,2.8-16.64,2.56-20.54-3.96c-6.9-11.55,10.86-28.56,1.67-38.4
			c-1.3-1.39-2.99-2.35-4.32-3.7c-6.47-6.55-0.86-18.66,7.73-21.97c8.6-3.31,18.18-0.87,27.2,0.99c9.02,1.86,19.26,2.86,26.65-2.63
			c9.49-7.04,9.31-22.61,1.58-31.55c-7.73-8.94-20.63-11.92-32.39-10.67c-11.44,1.21-23.23,6.66-28.44,16.91
			c-2.8,5.5-3.48,11.86-6.02,17.48c-2.55,5.62-8.17,10.79-14.22,9.55c-6.8-1.4-11.31-10.25-18.15-9.09
			c-6.87,1.17-7.76,10.59-11.87,16.21c-4.36,5.97-13.87,7.28-19.69,2.72c-5.82-4.56-6.81-14.1-2.06-19.77
			c6.95-8.28,21.67-6.74,27.79-15.65c5.55-8.09-0.73-20.28-10.08-23.26c-9.35-2.98-19.66,1.06-27.35,7.15
			c-2.95,2.34-5.76,5.13-7.02,8.68c-1.26,3.55-0.84,7.45-0.41,11.19c0.71,6.1,5.55,21.78,3.3,27.21
			c-2.39,5.76-13.58,9.65-20.34,8.36C102.36,111.63,111.06,91.68,116.91,80.87z"/>
	</g>
	<g>
		<path d="M101.08,184.88c-1.39-0.8-2.9-1.45-4.05-2.58c-2.49-2.46-2.58-6.36-3.23-9.8c-0.91-4.79-5.67-16.68-11.84-8.65
			c-2.02,2.63-2.09,6.25-1.78,9.56c0.31,3.31,0.9,6.72-0.09,9.89c-0.7,2.23-2.13,4.14-3.22,6.2c-1.1,2.06-1.88,4.49-1.15,6.71
			c1.24,3.77,6.78,4.87,9.85,2.35c0.88-0.72,1.6-1.7,1.74-2.82c0.23-1.77-1-3.45-0.88-5.23c0.12-1.8,1.84-3.35,3.65-3.27
			c1.81,0.08,3.39,1.76,3.36,3.57c-0.02,1.4-0.88,2.7-0.9,4.1c-0.03,2.19,2.09,3.97,4.27,4.18c2.18,0.21,4.3-0.8,6.08-2.08
			c1.31-0.95,2.55-2.13,3.05-3.68C107,189.98,104.14,186.62,101.08,184.88z M88.89,183.05c-3.25,1.08-2.49-3.01-2.34-4.65
			c0.11-1.2,0.1-2.67-0.92-3.31c-0.44-0.28-1.01-0.35-1.36-0.74c-0.38-0.43-0.34-1.09-0.2-1.65c0.15-0.61,0.4-1.22,0.83-1.68
			c0.43-0.46,1.06-0.77,1.69-0.69c0.67,0.08,1.23,0.56,1.67,1.08c0.19,0.22,0.37,0.47,0.46,0.75c0.31,0.95-0.52,1.88-0.63,2.88
			c-0.1,0.93,0.43,1.81,1,2.55c0.57,0.74,1.23,1.46,1.46,2.37C90.88,181.21,90.13,182.68,88.89,183.05z"/>
	</g>
	<g>
		<path d="M158.76,184.88c-1.39-0.8-2.9-1.45-4.05-2.58c-2.49-2.46-2.58-6.36-3.23-9.8c-0.91-4.79-5.67-16.68-11.84-8.65
			c-2.02,2.63-2.09,6.25-1.78,9.56c0.31,3.31,0.9,6.72-0.09,9.89c-0.7,2.23-2.13,4.14-3.22,6.2c-1.1,2.06-1.88,4.49-1.15,6.71
			c1.24,3.77,6.78,4.87,9.85,2.35c0.88-0.72,1.6-1.7,1.74-2.82c0.23-1.77-1-3.45-0.88-5.23c0.12-1.8,1.84-3.35,3.65-3.27
			c1.81,0.08,3.39,1.76,3.36,3.57c-0.02,1.4-0.88,2.7-0.9,4.1c-0.03,2.19,2.09,3.97,4.27,4.18c2.18,0.21,4.3-0.8,6.08-2.08
			c1.31-0.95,2.55-2.13,3.05-3.68C164.68,189.98,161.82,186.62,158.76,184.88z M146.58,183.05c-3.25,1.08-2.49-3.01-2.34-4.65
			c0.11-1.2,0.1-2.67-0.92-3.31c-0.44-0.28-1.01-0.35-1.36-0.74c-0.38-0.43-0.34-1.09-0.2-1.65c0.15-0.61,0.4-1.22,0.83-1.68
			c0.43-0.46,1.06-0.77,1.69-0.69c0.67,0.08,1.23,0.56,1.67,1.08c0.19,0.22,0.37,0.47,0.46,0.75c0.31,0.95-0.52,1.88-0.63,2.88
			c-0.1,0.93,0.43,1.81,1,2.55s1.23,1.46,1.46,2.37C148.57,181.21,147.82,182.68,146.58,183.05z"/>
	</g>
	<path d="M120.06,177.86c-0.06-1.16,0.8-2.25,1-2.5c0.6-0.75,0.99-0.75,1.5-1.5c0.56-0.81,0.67-1.62,0.75-2.25
		c0.08-0.56,0.28-2.25-0.65-4.03c-0.46-0.88-1.33-2.61-2.93-2.75c-1.48-0.13-2.86,0.93-3.54,2.24c-0.68,1.31-0.79,2.84-0.82,4.32
		c-0.07,3.04,0.14,6.09,0.61,9.1c0.32,2.01,0.92,4.23,2.68,5.25c0.57,0.33,1.34,0.49,1.86,0.08c0.29-0.23,0.44-0.58,0.61-0.9
		c1.71-3.2,6.89-3.69,9.18-0.87c0.68,0.84,1.11,1.99,0.75,3.01c-0.37,1.05-1.45,1.7-1.93,2.71c-0.99,2.07,0.92,4.29,1.52,6.51
		c0.82,3.02-1.47,6.6-4.6,6.83c-3.13,0.23-5.96-3.38-4.74-6.27c0.47-1.11,1.41-2.01,1.68-3.19c0.27-1.17-0.75-2.73-1.86-2.26
		c-0.34,2.24-2.02,4.23-4.18,4.94c-2.16,0.71-4.7,0.09-6.3-1.52c-1.19-1.2-1.83-2.83-2.31-4.44c-0.85-2.86-1.29-5.83-1.65-8.79
		c-0.51-4.21-0.86-8.56,0.29-12.64c1.15-4.08,4.09-7.91,8.2-8.99c2.78-0.73,6.06,0.16,8.05,2.25c2.1,2.21,3.23,6.49,2.79,9.32
		c-0.1,0.62-0.37,1.84,0.29,2.85c0.52,0.79,1.18,0.81,1.75,1.75c0.07,0.12,0.7,1.17,0.5,2.25c-0.33,1.77-2.83,3.13-5.01,2.75
		C121.88,180.82,120.14,179.44,120.06,177.86z"/>
	<path d="M175.21,175.74c0.24-0.3,0.32-0.26,0.84-0.71c0.61-0.53,2.49-2.43,3.16-5.21c0.46-1.94-0.25-4.07-1.65-5.48
		c-1.4-1.42-3.41-2.15-5.41-2.18c-2.48-0.04-5.1,1.14-6.2,3.36c-1.58,3.19,0.46,7.02,3,9.52c1.3,1.27,2.79,2.46,3.51,4.12
		c1.21,2.78-0.05,5.98-1.56,8.61c-1.51,2.63-3.35,5.3-3.34,8.33c0,0.52,0.06,1.05,0.27,1.52c0.31,0.7,0.91,1.24,1.55,1.65
		c2.5,1.59,5.95,1.5,8.37-0.21c2.66-1.88,3.36-5.34,2.97-7.82c-0.53-3.37-2.87-3.34-5.07-8.8
		C173.79,177.78,174.86,176.18,175.21,175.74z"/>
	<path d="M193.3,167.91c-0.24-2.27-2.22-4.23-4.49-4.46c-2.27-0.23-4.6,1.29-5.3,3.46c-0.74,2.3,0.24,4.78,1.47,6.86
		s2.75,4.07,3.22,6.43c0.59,2.95-0.56,5.93-1.37,8.83c-0.81,2.9-1.2,6.28,0.62,8.68c0.91,1.2,2.45,2.02,3.91,1.66
		c2.1-0.52,2.98-3.11,2.78-5.26c-0.2-2.16-1.09-4.23-1.03-6.4c0.03-1.11,0.63-2.46,1.74-2.43c0.51,0.01,0.95,0.33,1.35,0.63
		c2.52,1.86,5.26,4.11,5.51,7.23c0.12,1.5-0.33,3.18,0.54,4.4c0.4,0.57,1.04,0.93,1.69,1.17c2.07,0.77,4.87,0.14,5.63-1.93
		c0.82-2.24-1.04-4.45-2.35-6.44c-2.52-3.85-3.21-8.85-1.82-13.23c0.65-2.07,1.74-3.98,2.31-6.07c0.57-2.09,0.54-4.52-0.84-6.19
		c-1.38-1.67-4.4-1.95-5.58-0.13c-0.41,0.63-0.55,1.4-0.6,2.15c-0.28,3.67,1.11,7.24,1.85,10.85c0.18,0.87,0.32,1.79,0.07,2.64
		c-0.31,1.07-1.51,1.46-1.89,1.62c-1.52,0.65-2.94,0.21-3.23,0.11c-2.01-0.67-2.88-2.53-3.18-3.18c-0.6-1.29-0.6-2.3-0.66-4.17
		C193.6,173.21,193.51,170.87,193.3,167.91z"/>
	<path d="M179,126.49c0.82,2.57,2.98,4.91,5.67,5.08c2.7,0.18,5.31-2.17,5.42-4.88c0.11-2.78-2.04-5.31-1.84-8.09
		c0.18-2.46,2.34-4.53,4.77-4.93c2.43-0.41,4.97,0.68,6.66,2.47c3.05,3.25,3.18,8.83,0.28,12.22c-2.4,2.8-6.31,3.99-8.58,6.9
		c-2.46,3.16-2.38,7.74-0.82,11.42c1.11,2.62,2.91,5.43,1.84,8.06c-0.37,0.91-1.05,1.65-1.76,2.31c-1.6,1.47-3.53,2.67-5.68,3.01
		s-4.52-0.29-5.93-1.95c-2.36-2.79-1.2-7.15,0.93-10.12c2.15-3,5.34-6.07,4.53-9.67c-0.47-2.09-2.26-3.65-4.16-4.65
		s-4-1.57-5.89-2.6c-2.5-1.35-4.62-3.57-5.41-6.3c-0.79-2.73-0.05-5.96,2.15-7.76s5.84-1.74,7.7,0.42
		C179.68,118.38,178.31,124.35,179,126.49z"/>
	<path d="M104.25,119.76c3.2-1.46,6.14-3.71,9.62-4.2c2.36-0.33,4.83,0.23,6.83,1.53c1.7,1.11,3.1,2.91,3.12,4.94
		c0.03,2.36-1.81,4.4-3.91,5.49c-1.53,0.8-3.35,1.23-4.98,0.68c-1.96-0.66-3.7-2.68-5.68-2.08c-1.32,0.4-2.02,1.81-2.53,3.09
		c-0.96,2.41-1.81,4.86-2.54,7.34c-0.41,1.38-0.78,2.84-0.45,4.24c0.65,2.77,3.75,4.34,4.71,7.02c1.2,3.33-1.48,6.96-4.7,8.43
		c-2.86,1.31-6.47,1.39-8.95-0.52c-3.17-2.44-3.48-7.3-1.89-10.97c1.07-2.46,2.8-4.58,4.02-6.97c1.22-2.39,1.89-5.32,0.69-7.73
		c-0.31-0.63-0.77-1.22-1.42-1.5c-1.28-0.56-2.7,0.25-3.94,0.9c-1.57,0.83-3.34,1.44-5.1,1.25c-2.96-0.32-5.27-2.83-6.39-5.58
		c-0.65-1.59-0.99-3.41-0.39-5.02c0.98-2.62,4.19-3.83,6.96-3.44c2.96,0.41,5.06,2.34,7.71,3.44
		C98.04,121.34,101.33,121.09,104.25,119.76z"/>
	<g>
		<path d="M157.61,138.84c-2.63-2.49-6.19-3.87-9.8-4.2c0.3-2.8,3.56-4.09,5.36-6.26c7.73-9.33-9.83-13.19-15.73-13.61
			c-3.39-0.24-5.85,0.91-7.6,3.93c-2.93,5.05,1.05,8.63,3.27,12.96c1.74,3.39,2.04,7.49,0.82,11.1c-0.96,2.84-2.85,5.7-2.06,8.6
			c0.63,2.33,2.81,3.85,4.84,5.16c0.65,0.42,1.32,0.85,2.08,0.98c1.16,0.2,2.34-0.35,3.24-1.11c1.93-1.64,2.88-4.36,2.37-6.84
			c-0.39-1.91-1.54-3.56-2.38-5.32c-0.85-1.76-1.39-3.87-0.53-5.62c0.97-1.98,3.63-2.8,5.69-2c2.06,0.79,3.43,2.91,3.69,5.1
			c0.2,1.7-0.19,3.42-0.16,5.14c0.04,2.18,0.86,4.43,2.54,5.82c1.69,1.39,4.31,1.71,6.08,0.43c1.4-1.01,2.05-2.79,2.2-4.51
			C161.85,144.98,160.24,141.33,157.61,138.84z M147.07,127.65c-0.77,0.45-1.78,0.58-2.56,0.15c-0.46-0.25-0.82-0.67-1.1-1.11
			c-0.12-0.19-0.23-0.38-0.29-0.6c-0.18-0.61,0.05-1.27,0.35-1.83c0.31-0.58,0.71-1.12,1.18-1.59c0.26-0.26,0.55-0.51,0.89-0.66
			c1.72-0.77,3.87,0.57,3.77,2.53c-0.02,0.42-0.22,0.8-0.43,1.16C148.41,126.47,147.84,127.2,147.07,127.65z"/>
	</g>
</g>
</svg>
