<?xml version="1.0" encoding="utf-8"?>
<!-- Generator: Adobe Illustrator 25.4.1, SVG Export Plug-In . SVG Version: 6.00 Build 0)  -->
<svg version="1.1" id="Layer_1" xmlns="http://www.w3.org/2000/svg" xmlns:xlink="http://www.w3.org/1999/xlink" x="0px" y="0px"
	 viewBox="0 0 300 300" style="enable-background:new 0 0 300 300;" xml:space="preserve">
<style type="text/css">
	.st0{fill:#FF0000;}
</style>
<g>
	<g>
		<path class="st0" d="M116.07,73.04c6.63-13.32,10.42-30.16,3.46-43.27c-6.06-11.41-18.79-16.86-30.9-17.67
			c-9.45-0.63-19.81,1.54-26.01,9.3c-10.2,12.76-3.93,33.17,6.42,45.78c4.48,5.45,9.67,10.35,13.03,16.67
			c3.36,6.33,4.53,14.76,0.64,20.73c-5.19,7.96-16.3,7.64-24.69,4.16c-8.39-3.48-16.28-9.29-25.26-9.66
			c-13.54-0.56-25.01,11.81-30,25.48c-4.16,11.37-4.87,24.93,0.97,35.4c5.84,10.47,19.39,16.06,29.11,9.85
			c9.35-5.98,11.76-19.26,17.97-28.92c1.12-1.75,2.47-3.46,4.29-4.24c5.81-2.47,10.61,5.43,12.38,11.93
			c4.19,15.38,5.51,34.71-5.96,44.81c-4.04,3.56-9.12,5.37-13.7,8.05c-15.29,8.97-24.45,28.87-21.88,47.54s16.71,34.78,33.75,38.48
			c3.46,0.75,7.29,0.96,10.26-1.1c2.54-1.77,3.98-4.87,5.15-7.89c4.82-12.5,6.97-26.19,6.24-39.72c-0.4-7.33-1.47-15.36,2.28-21.47
			c5.83-9.47,19.41-8.02,28.37-2.09c3.97,2.63,7.87,6.46,8.29,11.49c0.7,8.45-8.37,14.1-10.29,22.32
			c-1.99,8.53,4.41,16.88,11.59,20.97c7.82,4.44,17.44,5.76,25.55,2.01c8.12-3.76,14.16-13.14,13.25-22.67
			c-0.56-5.84-3.47-11.07-5.16-16.65c-1.69-5.58-1.86-12.53,2.13-16.49c6.99-6.94,17.51,1.24,24.92,7.64
			c7.94,6.85,17.17,11.93,26.96,14.81c6.3,1.86,13.19,2.77,19.23,0.1c6.05-2.67,10.76-9.89,9.15-16.76
			c-1.62-6.93-8.34-10.58-13.71-14.72c-5.37-4.14-10.17-12.1-6.41-17.97c1.73-2.7,4.85-3.99,7.87-4.29
			c17.32-1.73,27.67,22.07,44.42,27.17c14.04,4.27,30.18-8.53,30.69-24.35c0.51-15.82-14.75-29.83-29.03-26.64
			c-7.63,1.7-14.01,7.25-21.26,10.37c-7.24,3.12-17.06,2.85-21.06-4.41c-7.08-12.85,11.13-31.8,1.71-42.74
			c-1.33-1.54-3.06-2.62-4.43-4.12c-6.63-7.29-0.88-20.78,7.93-24.46c8.81-3.68,18.64-0.96,27.89,1.11
			c9.25,2.07,19.74,3.18,27.33-2.93c9.73-7.84,9.55-25.16,1.62-35.12s-21.15-13.26-33.2-11.88c-11.73,1.34-23.81,7.42-29.16,18.83
			c-2.87,6.12-3.57,13.2-6.18,19.46c-2.61,6.26-8.38,12.01-14.57,10.63c-6.97-1.56-11.59-11.41-18.61-10.12
			c-7.04,1.3-7.96,11.79-12.17,18.05c-4.47,6.64-14.22,8.1-20.18,3.03c-5.96-5.08-6.98-15.7-2.11-22
			c7.13-9.22,22.22-7.5,28.49-17.42c5.69-9.01-0.74-22.58-10.33-25.9c-9.59-3.32-20.15,1.18-28.04,7.96
			c-3.03,2.61-5.9,5.71-7.19,9.66c-1.29,3.95-0.86,8.29-0.42,12.46c0.72,6.79,5.68,24.25,3.38,30.29
			c-2.45,6.42-13.92,10.75-20.86,9.31C101.16,107.28,110.08,85.08,116.07,73.04z"/>
	</g>
	<g>
		<path d="M99.84,188.82c-1.43-0.89-2.98-1.61-4.15-2.87c-2.56-2.74-2.64-7.08-3.32-10.91c-0.94-5.33-5.82-18.56-12.14-9.63
			c-2.07,2.93-2.15,6.96-1.83,10.64c0.32,3.68,0.92,7.48-0.1,11.01c-0.72,2.48-2.18,4.61-3.31,6.9c-1.13,2.29-1.93,5-1.18,7.47
			c1.27,4.2,6.95,5.42,10.1,2.62c0.9-0.8,1.64-1.89,1.79-3.14c0.23-1.97-1.02-3.84-0.9-5.82c0.13-2.01,1.89-3.73,3.74-3.64
			s3.48,1.96,3.45,3.97c-0.02,1.56-0.9,3-0.93,4.56c-0.03,2.44,2.15,4.42,4.38,4.65c2.24,0.23,4.41-0.89,6.23-2.32
			c1.34-1.06,2.62-2.38,3.12-4.09C105.91,194.51,102.98,190.77,99.84,188.82z M87.35,186.79c-3.33,1.21-2.55-3.35-2.39-5.18
			c0.11-1.34,0.1-2.97-0.94-3.69c-0.45-0.31-1.04-0.39-1.39-0.82c-0.39-0.48-0.35-1.21-0.2-1.84c0.16-0.68,0.41-1.35,0.86-1.87
			c0.44-0.51,1.09-0.85,1.73-0.77c0.69,0.09,1.26,0.63,1.71,1.2c0.2,0.25,0.38,0.52,0.48,0.83c0.31,1.06-0.53,2.1-0.65,3.2
			c-0.11,1.03,0.44,2.01,1.03,2.83c0.59,0.82,1.26,1.63,1.5,2.64C89.39,184.74,88.62,186.38,87.35,186.79z"/>
	</g>
	<g>
		<path d="M158.99,188.82c-1.43-0.89-2.98-1.61-4.15-2.87c-2.56-2.74-2.64-7.08-3.32-10.91c-0.94-5.33-5.82-18.56-12.14-9.63
			c-2.07,2.93-2.15,6.96-1.83,10.64c0.32,3.68,0.92,7.48-0.1,11.01c-0.72,2.48-2.18,4.61-3.31,6.9c-1.13,2.29-1.93,5-1.18,7.47
			c1.27,4.2,6.95,5.42,10.1,2.62c0.9-0.8,1.64-1.89,1.79-3.14c0.23-1.97-1.02-3.84-0.9-5.82c0.13-2.01,1.89-3.73,3.74-3.64
			c1.85,0.09,3.48,1.96,3.45,3.97c-0.02,1.56-0.9,3-0.93,4.56c-0.03,2.44,2.15,4.42,4.38,4.65c2.24,0.23,4.41-0.89,6.23-2.32
			c1.34-1.06,2.62-2.38,3.12-4.09C165.05,194.51,162.12,190.77,158.99,188.82z M146.49,186.79c-3.33,1.21-2.55-3.35-2.39-5.18
			c0.11-1.34,0.1-2.97-0.94-3.69c-0.45-0.31-1.04-0.39-1.39-0.82c-0.39-0.48-0.35-1.21-0.2-1.84c0.16-0.68,0.41-1.35,0.86-1.87
			c0.44-0.51,1.09-0.85,1.73-0.77c0.69,0.09,1.26,0.63,1.71,1.2c0.2,0.25,0.38,0.52,0.48,0.83c0.31,1.06-0.53,2.1-0.65,3.2
			c-0.11,1.03,0.44,2.01,1.03,2.83c0.59,0.82,1.26,1.63,1.5,2.64C148.54,184.74,147.76,186.38,146.49,186.79z"/>
	</g>
	<path d="M119.3,181.01c-0.06-1.3,0.82-2.5,1.03-2.78c0.61-0.84,1.01-0.84,1.54-1.67c0.57-0.9,0.68-1.8,0.77-2.5
		c0.08-0.63,0.28-2.5-0.66-4.48c-0.47-0.98-1.36-2.9-3.01-3.06c-1.51-0.15-2.93,1.03-3.63,2.49c-0.7,1.46-0.81,3.16-0.85,4.81
		c-0.07,3.39,0.14,6.78,0.63,10.12c0.33,2.23,0.94,4.7,2.75,5.84c0.58,0.37,1.37,0.54,1.9,0.09c0.29-0.25,0.45-0.64,0.62-1
		c1.75-3.56,7.07-4.11,9.41-0.97c0.7,0.93,1.14,2.21,0.77,3.35c-0.38,1.17-1.49,1.89-1.98,3.01c-1.02,2.31,0.94,4.78,1.56,7.25
		c0.84,3.37-1.51,7.35-4.72,7.6s-6.11-3.76-4.85-6.97c0.48-1.24,1.44-2.24,1.72-3.55c0.28-1.31-0.76-3.04-1.9-2.52
		c-0.34,2.5-2.07,4.71-4.29,5.5c-2.22,0.78-4.82,0.1-6.46-1.69c-1.22-1.33-1.88-3.15-2.37-4.95c-0.87-3.19-1.32-6.49-1.69-9.79
		c-0.53-4.69-0.88-9.52,0.3-14.07c1.18-4.55,4.2-8.8,8.41-10.01c2.85-0.82,6.22,0.18,8.25,2.5c2.15,2.46,3.31,7.23,2.87,10.38
		c-0.1,0.69-0.38,2.04,0.3,3.17c0.53,0.88,1.2,0.9,1.8,1.95c0.07,0.13,0.72,1.31,0.51,2.5c-0.34,1.97-2.91,3.48-5.14,3.06
		C121.17,184.3,119.38,182.77,119.3,181.01z"/>
	<path d="M175.85,178.65c0.25-0.33,0.32-0.29,0.86-0.79c0.63-0.59,2.56-2.71,3.24-5.8c0.48-2.16-0.25-4.53-1.69-6.11
		c-1.43-1.58-3.5-2.4-5.54-2.43c-2.54-0.04-5.23,1.27-6.35,3.74c-1.62,3.55,0.47,7.82,3.07,10.6c1.33,1.42,2.86,2.73,3.6,4.59
		c1.24,3.09-0.05,6.66-1.6,9.58c-1.55,2.92-3.44,5.9-3.43,9.27c0,0.58,0.06,1.17,0.28,1.7c0.31,0.78,0.93,1.38,1.59,1.84
		c2.56,1.77,6.1,1.67,8.58-0.23c2.72-2.09,3.45-5.95,3.05-8.71c-0.55-3.76-2.94-3.72-5.19-9.8
		C174.39,180.93,175.48,179.14,175.85,178.65z"/>
	<path d="M194.39,169.94c-0.25-2.53-2.27-4.71-4.6-4.97c-2.33-0.26-4.72,1.44-5.43,3.86c-0.76,2.56,0.25,5.32,1.51,7.63
		c1.26,2.31,2.82,4.53,3.3,7.16c0.6,3.29-0.58,6.6-1.4,9.83c-0.83,3.23-1.23,6.99,0.63,9.66c0.93,1.33,2.52,2.25,4.01,1.85
		c2.16-0.57,3.05-3.46,2.85-5.86c-0.2-2.4-1.12-4.71-1.05-7.12c0.03-1.24,0.65-2.74,1.79-2.71c0.52,0.02,0.97,0.36,1.39,0.7
		c2.58,2.07,5.39,4.58,5.65,8.05c0.12,1.67-0.34,3.54,0.56,4.9c0.41,0.63,1.06,1.04,1.73,1.31c2.12,0.86,4.99,0.16,5.77-2.15
		c0.84-2.49-1.07-4.95-2.41-7.17c-2.59-4.28-3.29-9.85-1.87-14.73c0.67-2.3,1.78-4.43,2.36-6.76c0.58-2.33,0.55-5.04-0.86-6.89
		c-1.42-1.86-4.52-2.17-5.72-0.15c-0.42,0.7-0.56,1.56-0.62,2.4c-0.29,4.09,1.14,8.06,1.9,12.08c0.18,0.97,0.33,1.99,0.07,2.94
		c-0.32,1.19-1.54,1.62-1.93,1.8c-1.56,0.72-3.01,0.23-3.32,0.13c-2.06-0.74-2.95-2.82-3.26-3.54c-0.61-1.43-0.61-2.56-0.68-4.64
		C194.7,175.83,194.6,173.24,194.39,169.94z"/>
	<path d="M179.73,123.83c0.84,2.86,3.06,5.46,5.82,5.66c2.77,0.2,5.44-2.42,5.55-5.43c0.11-3.1-2.09-5.91-1.89-9
		c0.18-2.74,2.39-5.04,4.89-5.49s5.1,0.75,6.82,2.75c3.13,3.62,3.26,9.83,0.29,13.6c-2.46,3.12-6.47,4.44-8.79,7.68
		c-2.52,3.52-2.44,8.61-0.84,12.72c1.13,2.91,2.98,6.04,1.89,8.97c-0.38,1.01-1.07,1.84-1.81,2.57c-1.64,1.64-3.62,2.98-5.82,3.36
		c-2.2,0.38-4.63-0.32-6.08-2.17c-2.42-3.1-1.23-7.96,0.96-11.26c2.21-3.33,5.48-6.76,4.65-10.77c-0.48-2.33-2.31-4.07-4.26-5.17
		c-1.95-1.11-4.1-1.75-6.04-2.89c-2.56-1.51-4.74-3.98-5.55-7.02c-0.81-3.04-0.05-6.64,2.2-8.64c2.26-2,5.98-1.93,7.9,0.47
		C180.43,114.8,179.03,121.44,179.73,123.83z"/>
	<path d="M103.1,116.34c3.28-1.62,6.29-4.13,9.87-4.67c2.42-0.36,4.96,0.25,7,1.71c1.74,1.24,3.18,3.24,3.2,5.5
		c0.03,2.63-1.85,4.89-4.01,6.11c-1.57,0.89-3.44,1.37-5.11,0.75c-2.01-0.74-3.79-2.99-5.83-2.32c-1.36,0.44-2.07,2.02-2.59,3.44
		c-0.98,2.68-1.85,5.41-2.61,8.17c-0.42,1.54-0.8,3.16-0.46,4.72c0.66,3.08,3.84,4.83,4.83,7.81c1.23,3.7-1.51,7.75-4.82,9.39
		c-2.93,1.45-6.63,1.55-9.18-0.58c-3.25-2.72-3.56-8.13-1.94-12.22c1.09-2.74,2.87-5.1,4.13-7.76c1.25-2.66,1.94-5.93,0.71-8.6
		c-0.32-0.7-0.79-1.36-1.45-1.67c-1.31-0.62-2.77,0.28-4.04,1c-1.61,0.92-3.42,1.6-5.23,1.39c-3.03-0.35-5.41-3.15-6.55-6.21
		c-0.67-1.77-1.01-3.8-0.4-5.59c1-2.91,4.3-4.26,7.14-3.83c3.03,0.46,5.19,2.6,7.9,3.82C96.73,118.1,100.1,117.82,103.1,116.34z"/>
	<g>
		<path d="M157.81,137.58c-2.7-2.77-6.35-4.31-10.05-4.68c0.3-3.11,3.65-4.56,5.49-6.97c7.92-10.39-10.08-14.68-16.13-15.15
			c-3.48-0.27-5.99,1.01-7.79,4.37c-3,5.62,1.08,9.61,3.35,14.43c1.78,3.78,2.09,8.34,0.84,12.36c-0.99,3.17-2.92,6.35-2.11,9.57
			c0.65,2.59,2.88,4.28,4.96,5.74c0.66,0.47,1.35,0.95,2.13,1.09c1.19,0.22,2.4-0.39,3.32-1.23c1.98-1.82,2.95-4.85,2.43-7.61
			c-0.4-2.13-1.58-3.96-2.44-5.92c-0.87-1.95-1.42-4.31-0.54-6.26c1-2.2,3.72-3.11,5.83-2.23c2.11,0.88,3.52,3.24,3.79,5.68
			c0.2,1.9-0.2,3.81-0.16,5.72c0.04,2.43,0.88,4.93,2.61,6.48c1.73,1.55,4.42,1.91,6.23,0.48c1.43-1.13,2.1-3.11,2.26-5.02
			C162.15,144.41,160.5,140.35,157.81,137.58z M146.99,125.12c-0.79,0.5-1.82,0.65-2.63,0.17c-0.48-0.28-0.84-0.74-1.13-1.24
			c-0.12-0.21-0.23-0.43-0.3-0.66c-0.18-0.68,0.05-1.41,0.36-2.03c0.32-0.65,0.73-1.25,1.21-1.77c0.27-0.29,0.56-0.57,0.91-0.74
			c1.77-0.85,3.97,0.63,3.86,2.82c-0.02,0.46-0.22,0.89-0.44,1.29C148.37,123.81,147.78,124.62,146.99,125.12z"/>
	</g>
</g>
</svg>
