<svg xmlns="http://www.w3.org/2000/svg" xmlns:xlink="http://www.w3.org/1999/xlink" width="1920" height="1080" viewBox="0 0 1920 1080"><defs><style>.cls-1{fill:url(#linear-gradient);}.cls-2{fill:url(#linear-gradient-2);}.cls-3,.cls-4{stroke:#000;stroke-miterlimit:10;}.cls-15,.cls-4{fill:#fff;}.cls-5{fill:none;}.cls-6{fill:#9b2256;}.cls-7{fill:#c23772;}.cls-8{fill:#f3529e;}.cls-9{fill:#575757;}.cls-10{fill:#8b8b8b;}.cls-11{fill:#3a3a3a;}.cls-12{fill:#e300e7;}.cls-13{fill:#474747;}.cls-14{fill:#3e3e3e;}.cls-16{fill:#473f48;}.cls-17{fill:#48414a;}.cls-18{fill:#bf22e3;}.cls-19{fill:#d133e0;}.cls-20,.cls-21{fill:#902e55;}.cls-21{opacity:0.45;}.cls-22,.cls-23{fill:#b44371;}.cls-23{opacity:0.26;}</style><linearGradient id="linear-gradient" y1="540" x2="1920" y2="540" gradientUnits="userSpaceOnUse"><stop offset="0"/><stop offset="1" stop-color="#f0f"/></linearGradient><linearGradient id="linear-gradient-2" x1="53.08" y1="2110.83" x2="1000.74" y2="469.44" gradientUnits="userSpaceOnUse"><stop offset="0" stop-color="#fff"/><stop offset="0.41" stop-color="#fff" stop-opacity="0.57"/><stop offset="0.82" stop-color="#fff" stop-opacity="0.16"/><stop offset="1" stop-color="#fff" stop-opacity="0"/></linearGradient></defs><g id="Layer_3" data-name="Layer 3"><rect class="cls-1" width="1920" height="1080"/><rect class="cls-2" width="1920" height="1080"/></g><g id="Layer_1" data-name="Layer 1"><path class="cls-3" d="M1273.38,476.58c-.88-.81-2-.65-2.18-1.45-.26-1,1.23-1.67,2.18-3.63a8.75,8.75,0,0,0,.72-3.63c.3-5.55-2.18-12.35-2.18-12.35a87.9,87.9,0,0,0-6.53-13.8,92,92,0,0,0-23.24-26.14c-6.19-4.91-14.31-8.82-30.5-16.7s-24.48-11.92-30.51-11.62c-1.08.05-5.78.38-6.53-1.46-.42-1,.6-2.17,1.45-3.63,1.45-2.48,1.69-5,2.18-10.17,1.36-14.39-1.41-51.52,0-59.55a9.52,9.52,0,0,0,0-5.08c-.77-2.34-2.33-3.16-2.18-5.09.1-1.25.81-1.42,1.45-2.9a8.77,8.77,0,0,0-.72-8c-1.88-2.66-4.4-1.7-5.81-4.36-.43-.8-.21-.9-.73-5.08-.62-4.92-1-5.47-1.45-5.81-1.66-1.28-3.91.47-5.09-.73s.84-3.32,0-5.81c-1-2.85-4.32-2.09-8.71-5.81-3.61-3.05-3.15-5.08-5.81-5.81-3.13-.85-5.65,1.45-7.26,0-1.22-1.09-.31-2.89-1.46-3.63-1.56-1-3.7,2-6.53,1.45-2.46-.49-2.21-3-5.09-4.35s-4.44.41-8,0c-3.88-.45-6.36-3-8-4.36-6.16-5.23-15.3-6.86-29.78-9.44-7.95-1.42-5.2-.2-24-2.18-19.19-2-28.59-4-33.4-5.08-6.92-1.58-9.15-2.45-13.8-3.63-36.35-9.28-75.11-.72-85,2.17a69.19,69.19,0,0,1-9.44,2.18c-7.06,1.13-10.32.53-18.16.73A117.53,117.53,0,0,0,878.3,234c-3.74.76-1.48.53-16,4.35-8.22,2.18-10.62,2.69-15.25,4.36-5.46,2-5.29,2.39-8,2.91-4.75.9-6.61-.16-13.8.72-4.18.52-6.74,1.27-7.26,2.91-.38,1.2.57,2.15,0,2.9-.95,1.28-3.89-1-6.54,0-3.1,1.25-1.87,5.58-5.81,8.72-2.68,2.14-4.15.83-5.81,2.9-1.87,2.35-.29,4.42-2.17,9.44-.78,2.08-.94,1.42-2.18,4.36-1.53,3.59-1.68,5.48-3.63,7.26-1,.94-1.17.59-2.18,1.46-3.33,2.84-4.33,8.71-2.18,10.89.9.92,1.76.57,2.18,1.45.71,1.52-1.54,3.14-2.18,6.54a10.86,10.86,0,0,0,0,3.63c1,9.15-.73,58.66-.73,70.45v4.35c0,3,.57,4,0,5.09-.95,1.8-3.75,2.06-5.08,2.18-12.72,1.06-15.09,1-18.16,1.45-6.09.89-10.72,3.19-16,5.81a80.34,80.34,0,0,0-8.71,5.08,83.58,83.58,0,0,0-13.07,10.9c-10.38,10.57-12.43,18.13-17.43,21.78a6.49,6.49,0,0,0-2.91,3.64c-.45,2,.78,3.41,0,4.35-.91,1.11-3-.38-4.36.73s-1.6,5.05,0,7.26c.69.95,1.51,1.35,1.46,2.18-.06,1-1.33,1.35-2.18,2.18,0,0-1.92,1.86.72,13.8.92,0,1.94.15,2.18.72.31.75-.94,1.57-1.45,2.91-.81,2.13.68,4.49,1.45,5.81,3.13,5.33-.39,2.05,5.09,11.62,6.31,11,18.87,29.15,25.42,41.39,4.85,9.08,6.9,15.87,10.89,29,7,23.2,5,29.34,9.44,48.66,3.3,14.35,15.11,57.55,50.84,88.6.72.63,1.93,2.62,4.36,3.64a10,10,0,0,0,3.63.72c4.4.26,7.48,2.93,10.16,4.36,4.66,2.47,7.88,1.05,18.89.73,0,0,6.32.24,18.88.72,22.7.88,63.06,3.19,87.87,4.36,34.17,1.61,51.25,2.41,67.55,2.18,54.24-.78,73.47-7.33,95.86-5.09a62.64,62.64,0,0,0,22.51-1.45,65.7,65.7,0,0,0,16-6.53,84.23,84.23,0,0,0,20.34-16c11.69-12.25,17.6-24.49,22.51-34.86,9.55-20.19,13.77-38.28,16.7-50.84,4.59-19.66,5.81-26.14,5.81-26.14a63.08,63.08,0,0,1,1.46-6.54,62,62,0,0,1,9.44-18.88c2.88-4,5.55-6.8,10.89-12.35,8-8.26,9.73-8.56,11.62-12.34a8.86,8.86,0,0,1,3.63-4.36c2.36-1.24,4.07-.23,5.09-1.45,1.53-1.86-1.48-5.25,0-7.27,1.13-1.54,3.26,0,5.81-1.45,3.9-2.19,5.77-9.66,3.63-13.07a2.93,2.93,0,0,1-.73-2.18c.27-1.15,1.7-1.4,2.91-2.18,2-1.32,2.57-3.59,3.63-8C1274.2,481.15,1274.94,478.05,1273.38,476.58ZM907.81,613.06c-7.59.9-15-1.91-22.51-3.57-9.45-2.12-19.38-2.45-28.35-6.1-12.59-5.13-21.71-16.08-30.29-26.62a2.92,2.92,0,0,1-.89-1.94A2,2,0,0,1,828,573.3a5.32,5.32,0,0,1,2.64,1.38c3.45,2.8,5.9,6.25,9,9.35a43.2,43.2,0,0,0,8.44,6c7.2,4.33,15.17,7.21,23.15,9.76a337.59,337.59,0,0,0,33.26,8.78,6.34,6.34,0,0,1,3.27,1.36C908.59,610.75,908.78,612.36,907.81,613.06Z"/><path class="cls-4" d="M899.69,278.41a13.53,13.53,0,0,0,1.13,3.41c1.52,2.85,3-.59,3.33-2.18a11.26,11.26,0,0,0,0-5.1c-.4-1.31-1.18-2.13-2.58-1.55C899.36,273.91,899.23,276.42,899.69,278.41Z"/><path class="cls-4" d="M967.59,274.93a2.59,2.59,0,0,0-.09-.68,1.76,1.76,0,0,0-.67-.81,2.82,2.82,0,0,0-4.22,1.17,5.23,5.23,0,0,0-.31,2.23c0,1.87.12,3.73.31,5.59a3.34,3.34,0,0,0,.28,1.21,3.6,3.6,0,0,0,2.14,1.48,1.36,1.36,0,0,0,.81.13,1,1,0,0,0,.59-.52c.84-1.42.23-3.22.4-4.76A46.73,46.73,0,0,0,967.59,274.93Z"/><path class="cls-4" d="M953.55,274a2.88,2.88,0,0,0-.77,2.22c0,.4,0,.8,0,1.21a8.8,8.8,0,0,0,.91,4.77.16.16,0,0,0,.07.07.17.17,0,0,0,.14,0c1.46-.67,3.29-3.52,3.45-5.11S955.33,272.58,953.55,274Z"/><path class="cls-4" d="M985.76,265.19a2.8,2.8,0,0,0-3.41-.89c-1.11.66-1.34,2.14-1.4,3.42-.12,2.23-.25,4.92.54,7.06.66,1.78,2.54,1.68,3.69.29.79-1,.84-2.56,1.13-3.73C986.82,269.28,987.24,267,985.76,265.19Z"/><path class="cls-4" d="M962,298.22a17.91,17.91,0,0,0-.31-12.89,3.82,3.82,0,0,0-1.4-1.91.71.71,0,0,0-.63-.1.82.82,0,0,0-.36.5,19.93,19.93,0,0,0-.64,7.55l.3,6.54a2,2,0,0,0,.17.89,1.47,1.47,0,0,0,2.28.08,4.22,4.22,0,0,0,.9-2.46"/><path class="cls-4" d="M972.59,300.87c.22,1.08.78,2.37,1.88,2.4A1.78,1.78,0,0,0,976,302.2a5.14,5.14,0,0,0,.4-1.94l.45-5.84c.16-2.13.53-4.77-.33-6.8-.69-1.64-2.51-2.27-3.56-.55s-.79,4.69-.87,6.58A30.16,30.16,0,0,0,972.59,300.87Z"/><path class="cls-4" d="M984.26,288.82a4.87,4.87,0,0,0-.78-2.36,1.86,1.86,0,0,0-2.21-.69c-.94.46-1,1.75-1,2.81.05,1.73-.43,12.84,1.76,12.34C985.62,300.12,984.58,291.13,984.26,288.82Z"/><path class="cls-4" d="M1041,292.55a4.36,4.36,0,0,0-.79,1.75,36.28,36.28,0,0,0-1.16,7.1c-.15,2.27,0,4.7,1.17,6.63a1.3,1.3,0,0,0,.44.46c.56.3,1.2-.26,1.54-.79,1.37-2.1,1.82-4.64,2.25-7.1a15.68,15.68,0,0,0,.35-4.47C1044.67,294.67,1042.94,290.37,1041,292.55Z"/><path class="cls-4" d="M1042.72,274.31a9,9,0,0,0-1,3.52,11.55,11.55,0,0,0,1,4.34c.18.51.45,1.09,1,1.17a1.36,1.36,0,0,0,1-.44c1.72-1.52,2.37-3.91,2.79-6.17a3.76,3.76,0,0,0-.37-3.13c-.44-.52-1.76-1.58-2.44-1.52C1043.76,272.17,1043.05,273.62,1042.72,274.31Z"/><path class="cls-4" d="M1022.51,294.18c0,1.55.1,3.11.24,4.65s.41,3,1.55,3.84a.72.72,0,0,0,.43.18.83.83,0,0,0,.62-.46,9.16,9.16,0,0,0,1.08-4.29,45.88,45.88,0,0,0,0-5.5c-.07-1.38.12-4-.91-5C1023.26,285.17,1022.49,293.05,1022.51,294.18Z"/><path class="cls-4" d="M1018.74,307l.25,12.56a10.26,10.26,0,0,0,.45,3.36,2.33,2.33,0,0,0,2-1.51,6.48,6.48,0,0,0,.34-2.59q0-5.19-.31-10.37c-.06-1.11.14-4.56-1.18-5C1018.56,302.87,1018.73,306,1018.74,307Z"/><path class="cls-4" d="M1033.42,298.45a21.51,21.51,0,0,0-.57,5.19l-.11,3.71a25.33,25.33,0,0,0,.28,5.84,1.93,1.93,0,0,0,.87,1.47,1.4,1.4,0,0,0,1.65-.61,4.09,4.09,0,0,0,.53-1.83l.78-6.34a23.36,23.36,0,0,0,.1-7.78C1036.39,295.54,1034,296.22,1033.42,298.45Z"/><path class="cls-4" d="M1123.51,320.34a3.6,3.6,0,0,0-2.19,2.11,8.22,8.22,0,0,0-.55,3.07,47.51,47.51,0,0,0,.74,8.15,1.94,1.94,0,0,0,.21.72,1.32,1.32,0,0,0,1.54.45,3.64,3.64,0,0,0,1.39-1,11.56,11.56,0,0,0,3.18-4.83,13.14,13.14,0,0,0,.32-2.8,7.23,7.23,0,0,0-.15-2.28C1127.46,322.06,1125.69,319.7,1123.51,320.34Z"/><path class="cls-4" d="M1124.16,341.83a2.4,2.4,0,0,0-1.89.5,5.63,5.63,0,0,0-1.3,1.53,18.83,18.83,0,0,0-2,4.33,3.77,3.77,0,0,0-.24,1.48,1.41,1.41,0,0,0,.8,1.19,1.88,1.88,0,0,0,1.47-.2C1123,349.63,1129,342.87,1124.16,341.83Z"/><path class="cls-4" d="M1105.78,352.22a10.85,10.85,0,0,0-.33,7.22c1.21.18,2.25-.81,3-1.77a27.83,27.83,0,0,0,1.79-2.51c1-1.52,1.67-4.32-.26-5.54S1106.39,350.72,1105.78,352.22Z"/><path class="cls-4" d="M1092.83,348.44a3,3,0,0,0-1.28,2.1c-.43,2-.11,4.07-.43,6.07-.2,1.18-.61,2.31-.85,3.48a11.63,11.63,0,0,0,.67,6.7c.1.23.25.5.5.53a.67.67,0,0,0,.57-.34c.68-1,.52-2.26.55-3.45a9.49,9.49,0,0,1,.78-3.56c.34-.79.78-1.52,1.11-2.31C1095,356.31,1096.43,346.46,1092.83,348.44Z"/><path class="cls-4" d="M1099.72,369a4.93,4.93,0,0,0-.47,2.27,1.68,1.68,0,0,0,.8,1.59,1.77,1.77,0,0,0,1.83-.67c.85-.88,2-2.75,1.22-4C1102.15,366.77,1100.28,367.79,1099.72,369Z"/><path class="cls-4" d="M1129.57,386.54a1.22,1.22,0,0,0,.72.17,1.37,1.37,0,0,0,.35-.15,2.84,2.84,0,0,0,1.3-1.95,3.66,3.66,0,0,0-2-3.56c-1.18-.67-5.12-1.67-4.23.88A8.76,8.76,0,0,0,1129.57,386.54Z"/><path class="cls-4" d="M978.83,430.49l.24,13.09a20.26,20.26,0,0,0,.28,3.65,3.28,3.28,0,0,0,.7,1.59,1.41,1.41,0,0,0,1.58.41c.7-.33.83-1.25.86-2q.22-5.54.18-11.09c0-1.85-.06-3.69-.12-5.54,0-1.2.21-2.72-1.28-3C979.35,427.28,978.81,428.94,978.83,430.49Z"/><path class="cls-4" d="M934.9,441.9c-.58-5.21,1.4-10.91-1.11-15.51-.6-1.09-1.66-2.15-2.89-2s-2,1.5-2.22,2.73c-.77,4.21,2.18,8.37,1.7,12.62-.19,1.72-.94,3.33-1.19,5-.35,2.36,1.37,9.88,5.24,7.62C937.4,450.67,935.16,444.34,934.9,441.9Z"/><path class="cls-4" d="M1161.61,447.71a6.65,6.65,0,0,0-2.31-.06c-2.79.59-7.93,10-3.27,8.71C1158.27,455.73,1167.68,448.61,1161.61,447.71Z"/><path class="cls-4" d="M1194.59,438.12a2.73,2.73,0,0,0-2.5.48,3.29,3.29,0,0,0-.71,1,8.88,8.88,0,0,0-.65,6.2,1.06,1.06,0,0,0,.31.59,1.19,1.19,0,0,0,.64.18c1.23.08,2.61.11,3.53-.7a4.06,4.06,0,0,0,1.09-2.23C1196.77,441.52,1197.38,438.86,1194.59,438.12Z"/><path class="cls-4" d="M1190,427.9a2.56,2.56,0,0,0,0,1.23,3,3,0,0,0,1.36,1.57c3.81,2.51,7-1.62,5.79-5.44C1195.86,421.16,1190.66,425.28,1190,427.9Z"/><path class="cls-4" d="M1181.59,444.37a3.65,3.65,0,0,0-1.83,0,4.18,4.18,0,0,0-2.27,1c-1.89,1.93-.64,7.67,2.59,6.35C1182.42,450.77,1185.11,445.54,1181.59,444.37Z"/><path class="cls-4" d="M1156.35,462.14c.17-.22-.23-.43-.5-.41a6.07,6.07,0,0,0-3.13,1,3.8,3.8,0,0,0-1.7,2.71,1.31,1.31,0,0,0,.2.93,1.48,1.48,0,0,0,.71.43c1.33.45,3,.44,3.88-.69s.25-3.17.83-4.66"/><path class="cls-4" d="M1148.06,464.65c.84-.21,1.31-1.1,1.68-1.89a2.93,2.93,0,0,0,.38-2c-.27-.87-1.25-1.26-2.11-1.54a2.13,2.13,0,0,0-1-.15,1.36,1.36,0,0,0-1,1.05,3.08,3.08,0,0,0,.11,1.56,3.16,3.16,0,0,0,2.18,2.44l.13-.49"/><path class="cls-5" d="M1252.16,499.3c-1.11-3.37-3.49-6.14-5.83-8.81-8.34-9.5-17.59-19.34-29.16-23.72.87,1,1.71,2,2.53,3.1-.82-1.06-1.66-2.09-2.53-3.1a36,36,0,0,0-6.37-1.8,36,36,0,0,1,6.37,1.8,78.19,78.19,0,0,0-51.64-26.51,29.76,29.76,0,0,0-5.42-.08c3.31,4,6.34,7.88,9,11.24a93.16,93.16,0,0,1,6.85,9.78c.12.21.23.41.35.6,3.1,5.29,3.88,8,7.47,14.08,2.35,3.94,3.89,5.94,5.87,8.8a157.62,157.62,0,0,1,12.72,22.5c4.07,9.34,1.82,23.59-3.81,36.24,9.79-.21,19.31-3.49,28-8.09s16.61-10.62,22-18.73C1251.8,511.5,1254.07,505.1,1252.16,499.3Z"/><path class="cls-5" d="M991,508.16c-4.77-.6-8.14-1.65-15.65-2-2.06-.08-2.3,0-11.74,0-1.37,0-7.47,0-13.69,0-12.71,0-12.26-.18-14.68,0-6.56.49-6.58,1.27-14.67,2l-3.46.28c6.87,5.9,13.66,11.9,21.51,16.38,26.46,15.12,63.28,8.67,83-14.54,1.66-2,3.23-4,4.9-6-1.78.28-3.83.59-6.2.93C1004.15,507.6,995.94,508.77,991,508.16Z"/><path class="cls-5" d="M790.41,563.11c.1-.24.2-.48.29-.72l-.83-.21Z"/><path class="cls-5" d="M1164,569.78c8.87,9.09,17.8,18.12,27.24,26.6,2-11.27-.73-22.88-6.16-33.07-4.73,4.52-9.91,7.36-15.08,7.45A18.43,18.43,0,0,1,1164,569.78Z"/><path class="cls-6" d="M816.05,485.16c2.23-12.82-1.33-27.72-12.34-34.66a26,26,0,0,0-16.07-3.65c-3.23,1.22-5.4,3.21-7.91,5.55A43.75,43.75,0,0,0,770,466.09c-2.57,5.6-2.73,9-6.85,15.66-.9,1.44-1.6,2.42-2,2.93-5.06,7.23-10.44,19.53-11.74,25.43-4,18.32,16.35,42.75,36.05,50.58a253,253,0,0,1,15.75-39.6C807,509.45,813.82,498,816.05,485.16Z"/><path class="cls-7" d="M1148.34,448.21c.59.11,1.17.24,1.73.37,9.66,2.37,18.26,7.2,26.19,13.22-.12-.19-.23-.39-.35-.6a93.16,93.16,0,0,0-6.85-9.78c-2.61-3.36-5.64-7.26-9-11.24a14.74,14.74,0,0,0-3.35.67C1153.05,442.08,1150.34,444.83,1148.34,448.21Z"/><path class="cls-7" d="M1131.1,452.28c-2.79,3.35-3.31,8.14-2.4,12.41s3.09,8.13,5.27,11.91q4.56,7.86,9.33,15.59a87,87,0,0,1,1-33.13,38.19,38.19,0,0,1,4-10.85C1142.11,447,1135.06,447.48,1131.1,452.28Z"/><path class="cls-7" d="M1171.37,535.69c-9.56-14.37-19-28.79-28.07-43.5a68.63,68.63,0,0,0,8,22.77A59.09,59.09,0,0,0,1171.37,535.69Z"/><path class="cls-7" d="M1171.37,535.69l5.74,8.61-5.74-8.61A59.09,59.09,0,0,1,1151.28,515a68.63,68.63,0,0,1-8-22.77q-4.75-7.74-9.33-15.59c-2.18-3.78-4.36-7.65-5.27-11.91s-.39-9.06,2.4-12.41c4-4.8,11-5.26,17.24-4.07,2-3.38,4.71-6.13,8.42-7.36a14.74,14.74,0,0,1,3.35-.67c-11.17-13.48-25.47-27.85-37-24.95-5.5,1.38-6.64,5.73-18.58,10.76-5.39,2.27-8.48,2.77-10.76,2.93-3.58.25-5.25-.34-8.81,0-3.91.38-5,1.82-9.78,2.94a49.59,49.59,0,0,1-6.85,1c-8.34.49-17-13.88-22.5-19.57-15.54-16-37.9,4.4-94.88,1,0,0-28.41-1.7-41.09,5.87a151.31,151.31,0,0,0-14.67,9.78c-2.78,2.19-2.8,2.43-3.92,2.94-5.79,2.6-10.1-1.74-20.54-2.94-4.74-.55-3.83.35-11.74,0-10.68-.47-10.57-2-16.63-2-.74,0-17.35.42-26.41,9.79a23.59,23.59,0,0,1-5.87,4.89,26.59,26.59,0,0,1-9.78,2.93c-6.83,1.05-7.76-.26-11.74,1-.31.1-.59.21-.89.32a26,26,0,0,1,16.07,3.65c11,6.94,14.57,21.84,12.34,34.66s-9,24.29-14.85,35.93a253,253,0,0,0-15.75,39.6,39.63,39.63,0,0,0,4.42,1.49l-2.49-4.28,2.49,4.28.83.21c12.48-30.77,27.42-63.5,56.57-79.3,25.72-13.95,57-11.54,85.86-7s58.67,10.89,87,3.63c6.14-1.58,12.23-3.79,18.57-3.86,6.57-.08,12.92,2.16,19.06,4.49a459.17,459.17,0,0,1,87.11,44.32C1157.55,533,1170,542,1179.16,554a69.11,69.11,0,0,1,6,9.28c5.27-5,10-12.17,13.39-19.89h-.24A49.89,49.89,0,0,1,1171.37,535.69Z"/><path class="cls-6" d="M1202.32,507.18a157.62,157.62,0,0,0-12.72-22.5c-2-2.86-3.52-4.86-5.87-8.8-3.59-6-4.37-8.79-7.47-14.08-7.93-6-16.53-10.85-26.19-13.22-.56-.13-1.14-.26-1.73-.37a38.19,38.19,0,0,0-4,10.85,87,87,0,0,0-1,33.13c9,14.71,18.51,29.13,28.07,43.5a49.89,49.89,0,0,0,26.9,7.74h.24C1204.14,530.77,1206.39,516.52,1202.32,507.18Z"/><path class="cls-7" d="M1132.68,538.67c-20.22-18.53-43.24-35-69.7-42.21-10.18-2.77-21.91-3.86-30.54,2.22a32.46,32.46,0,0,0-5.87,5.61c10-1.53,11.63-1.92,15.32-1,3.32.8,7.18,2.38,13.69,2.93,4.93.42,5.3-.28,8.81,0,5.91.47,7.94,2.65,21.52,9.78,3.47,1.83,7.78,4.09,13.69,6.85,6.75,3.15,8.1,3.45,12.72,5.87a90.29,90.29,0,0,1,12.72,7.83,70.81,70.81,0,0,1,12.72,12.71c1.45,1.74,13.93,16.57,26.28,20.54C1153.75,559.24,1143.53,548.62,1132.68,538.67Z"/><path class="cls-7" d="M872.7,488c-5.93.61-11.57,2.85-16.88,5.54-27,13.66-46.7,40.31-53.16,69.77A12.31,12.31,0,0,0,808.1,561c3.71-2.84,3.22-6.2,9.78-13.69,2.17-2.49,3-3,3.91-4.89,1.33-2.73,1.5-5.15,3.91-7.83,1.78-2,3.2-1.85,7.83-3.91,4.91-2.19,5.22-3.77,8.8-4.89,2-.65,2.71-.5,5.87-1a74.64,74.64,0,0,0,11.74-2.94c4.67-1.64,4.26-2.42,12.72-6.84,4.91-2.57,8.3-4,12.72-5.87,9.15-3.88,11.19-4,12.71-3.92,4.09.22,4.27,1.86,9.78,2.94a32.7,32.7,0,0,0,9.26.28c-3-2.54-5.91-5.05-9-7.42C897.93,493.14,885.54,486.64,872.7,488Z"/><path class="cls-8" d="M1144.88,524.7a459.17,459.17,0,0,0-87.11-44.32c-6.14-2.33-12.49-4.57-19.06-4.49-6.34.07-12.43,2.28-18.57,3.86-28.34,7.26-58.11.94-87-3.63s-60.14-7-85.86,7c-29.15,15.8-44.09,48.53-56.57,79.3.92.22,1.83.41,2.72.55a29.28,29.28,0,0,0,9.24.32c6.46-29.46,26.16-56.11,53.16-69.77,5.31-2.69,10.95-4.93,16.88-5.54,12.84-1.31,25.23,5.19,35.45,13.07,3.07,2.37,6,4.88,9,7.42l3.46-.28c8.09-.69,8.11-1.47,14.67-2,2.42-.18,2,0,14.68,0,6.22,0,12.32,0,13.69,0,9.44,0,9.68-.08,11.74,0,7.51.31,10.88,1.36,15.65,2,4.92.61,13.13-.56,29.35-2.94,2.37-.34,4.42-.65,6.2-.93a32.46,32.46,0,0,1,5.87-5.61c8.63-6.08,20.36-5,30.54-2.22,26.46,7.2,49.48,23.68,69.7,42.21,10.85,10,21.07,20.57,31.36,31.11a18.43,18.43,0,0,0,6,1c5.17-.09,10.35-2.93,15.08-7.45a69.11,69.11,0,0,0-6-9.28C1170,542,1157.55,533,1144.88,524.7Z"/><path class="cls-5" d="M915.7,427.17c0,.18-.09.37-.14.54l-1.71,5.82c3.49,2,7.94,1.35,11.71-.09,3.06-1.18,6.41-3.72,5.79-6.95a13.31,13.31,0,0,0-.88-2.37c-6.19.62-9.45,1-11.84,1.87C917.46,426.42,916.6,426.83,915.7,427.17Z"/><path class="cls-9" d="M915.7,425.8c-.22-.61-1.05-1-1.55-.62,1-1.65,1.66-4.42-.19-5l3.6-4-5.12.06a38,38,0,0,0,10.85-10.76,25.83,25.83,0,0,1-8-1.88,8.57,8.57,0,0,0,1.41-4.09l-3.89-.35c0-2.39,3.21-3.81,3.27-6.2,0-1.29-.9-2.39-1.28-3.63-.84-2.74,1.11-5.48,2.94-7.69l-4.21-3.27c2.93-2.42-1-8.13,1.74-10.72a23,23,0,0,1-6.45-1.48c.63-2.89,1.27-5.79,1.9-8.68a2,2,0,0,0,0-1.21c-.23-.53-.84-.76-1.27-1.16a3.07,3.07,0,0,1-.79-2.43,66.76,66.76,0,0,0-3.77,6.73c-2.57,5.29-11.36,24-6.85,36.19,2.44,6.6,2.93,9.95,3.92,16.63.51,3.49.58,5.52,0,7.83-1.12,4.38-3.82,6.6-2.94,7.82.55.77,1.79.16,5.87,0,4.32-.16,5,.44,7.83,0a13.29,13.29,0,0,0,2.93-.77A2.37,2.37,0,0,0,915.7,425.8Z"/><path class="cls-10" d="M930.14,421.84a4.59,4.59,0,0,1,1-1.71l4.43-5.69c-1.75.16-4.17-.25-4.19-2a3.21,3.21,0,0,1,.58-1.6l3-5.1c1.41-2.42,3-5,5.43-6.27l-7-4.46,1.43-2.54a2.94,2.94,0,0,1-.24-5.86l-7.34-.38c-1.3-.07-3-.64-2.85-1.92A45.28,45.28,0,0,1,936.06,375a8.11,8.11,0,0,0-4.31-1.11l4.38-5.65c-1.16.47-2.32-1.06-2-2.28a4.93,4.93,0,0,1,2.48-2.69,5.75,5.75,0,0,0,2.67-2.55,17.36,17.36,0,0,1-4.19-.33,40,40,0,0,1,10.41-13l-3.86.15q7.77-6.94,14.9-14.56l-3-7.5a5.11,5.11,0,0,1-.46-1.71c0-1.71,1.54-2.84,2.7-4.17-18.75,5.09-36.31,16.27-47,33.14a3.07,3.07,0,0,0,.79,2.43c.43.4,1,.63,1.27,1.16a2,2,0,0,1,0,1.21c-.63,2.89-1.27,5.79-1.9,8.68a23,23,0,0,0,6.45,1.48c-2.78,2.59,1.19,8.3-1.74,10.72l4.21,3.27c-1.83,2.21-3.78,4.95-2.94,7.69.38,1.24,1.31,2.34,1.28,3.63-.06,2.39-3.3,3.81-3.27,6.2l3.89.35a8.57,8.57,0,0,1-1.41,4.09,25.83,25.83,0,0,0,8,1.88,38,38,0,0,1-10.85,10.76l5.12-.06-3.6,4c1.85.57,1.2,3.34.19,5,.5-.41,1.33,0,1.55.62a2.37,2.37,0,0,1,0,1.37c.9-.34,1.76-.75,2.93-1.18,2.39-.89,5.65-1.25,11.84-1.87A3.71,3.71,0,0,1,930.14,421.84Z"/><path d="M1037.16,403.17a11.53,11.53,0,0,0-1,2.53A14.28,14.28,0,0,0,1037.16,403.17Z"/><path d="M1047.21,366.18a5.21,5.21,0,0,0,.78.91A7.62,7.62,0,0,0,1047.21,366.18Z"/><path class="cls-10" d="M1026.15,336.29c.73.37,1.78.17,2.27.83.71.95-.62,2.08-1,3.22a2.07,2.07,0,0,0,1.69,2.55l-3.4,3.14a3.24,3.24,0,0,1,3.31,3.28,8.22,8.22,0,0,0-3.44,1.49c-.3.22-.61.53-.56.91a1.14,1.14,0,0,0,.42.63l5.31,5c-1.42-.36-2.12,1.88-1.43,3.18s2.06,2.24,2.37,3.68l-2.85,1.06a11.12,11.12,0,0,1,6.3,5.42,3.13,3.13,0,0,1,.43,1.5c-.08,1.76-2.4,2.33-4.16,2.23a13.2,13.2,0,0,0,4.11,4.85,1.33,1.33,0,0,1,.67,1.73,6.61,6.61,0,0,0-2.83,1.49c1.76-.79,3.46,1.29,4,3.14l-2.2,1.53a2.15,2.15,0,0,1,1.9.66,1.12,1.12,0,0,1-.87,1c0,1,.87,1.79,1.41,2.65s.4,2.42-.62,2.41a16.06,16.06,0,0,1,.13,9.29c.6-1.21,1.34-2.37,2-3.57,1-2,1.74-4.43.83-6.5l3.28-2.89a5.23,5.23,0,0,0-1.88-2,7.67,7.67,0,0,1,3.78-3,7.41,7.41,0,0,0-5.6-2.82,10.83,10.83,0,0,1,4.57-3.07l-4.45-6.48a2.17,2.17,0,0,1,2.81-.21,10,10,0,0,1,2.1,2.25,11.52,11.52,0,0,0,6.43,3.92l-9-11.47-.77-1c-.92-1.19-1.86-2.38-2.9-3.48,3.17.44,6.66,1.08,8.85,3.28a4.77,4.77,0,0,1-.86-2.53,69.76,69.76,0,0,0,6.87-4.73,110,110,0,0,0-27.92-26.7C1025.26,333.84,1024.81,335.61,1026.15,336.29Z"/><path class="cls-9" d="M1062.43,397.62c1.13-4.63,1.77-7.05,2-7.83,2.81-11.75-8.79-27.63-10.76-30.32l-.41-.55a69.76,69.76,0,0,1-6.87,4.73,4.77,4.77,0,0,0,.86,2.53,7.62,7.62,0,0,1,.78.91,5.21,5.21,0,0,1-.78-.91c-2.19-2.2-5.68-2.84-8.85-3.28,1,1.1,2,2.29,2.9,3.48l.77,1,9,11.47a11.52,11.52,0,0,1-6.43-3.92,10,10,0,0,0-2.1-2.25,2.17,2.17,0,0,0-2.81.21l4.45,6.48a10.83,10.83,0,0,0-4.57,3.07,7.41,7.41,0,0,1,5.6,2.82,7.67,7.67,0,0,0-3.78,3,5.23,5.23,0,0,1,1.88,2L1040,393.1c.91,2.07.21,4.49-.83,6.5-.62,1.2-1.36,2.36-2,3.57a14.28,14.28,0,0,1-1,2.53,11.53,11.53,0,0,1,1-2.53,16.06,16.06,0,0,0-.13-9.29c1,0,1.17-1.55.62-2.41s-1.46-1.63-1.41-2.65a1.12,1.12,0,0,0,.87-1,2.15,2.15,0,0,0-1.9-.66l2.2-1.53c-.56-1.85-2.26-3.93-4-3.14a6.61,6.61,0,0,1,2.83-1.49,1.33,1.33,0,0,0-.67-1.73,13.2,13.2,0,0,1-4.11-4.85c1.76.1,4.08-.47,4.16-2.23a3.13,3.13,0,0,0-.43-1.5,11.12,11.12,0,0,0-6.3-5.42l2.85-1.06c-.31-1.44-1.67-2.39-2.37-3.68s0-3.54,1.43-3.18l-5.31-5a1.14,1.14,0,0,1-.42-.63c0-.38.26-.69.56-.91a8.22,8.22,0,0,1,3.44-1.49,3.24,3.24,0,0,0-3.31-3.28l3.4-3.14a2.07,2.07,0,0,1-1.69-2.55c.35-1.14,1.68-2.27,1-3.22-.49-.66-1.54-.46-2.27-.83-1.34-.68-.89-2.45-.85-4.07-23.58-15.52-45-15.79-45-15.79a89.71,89.71,0,0,0-24.5,3.17c-1.16,1.33-2.74,2.46-2.7,4.17a5.11,5.11,0,0,0,.46,1.71l3,7.5q-7.12,7.61-14.9,14.56l3.86-.15a40,40,0,0,0-10.41,13,17.36,17.36,0,0,0,4.19.33,5.75,5.75,0,0,1-2.67,2.55,4.93,4.93,0,0,0-2.48,2.69c-.3,1.22.86,2.75,2,2.28l-4.38,5.65a8.11,8.11,0,0,1,4.31,1.11,45.28,45.28,0,0,0-11.72,9.34c-.19,1.28,1.55,1.85,2.85,1.92l7.34.38a2.94,2.94,0,0,0,.24,5.86L933.34,395l7,4.46c-2.48,1.31-4,3.85-5.43,6.27l-3,5.1a3.21,3.21,0,0,0-.58,1.6c0,1.75,2.44,2.16,4.19,2l-4.43,5.69a4.59,4.59,0,0,0-1,1.71,3.71,3.71,0,0,0,.33,2.28l.88-.09c10.37-1,12.22-.57,13.7,0,2.78,1.09,2.85,2.07,5.87,3.91,4.59,2.82,8.84,3.21,17.14,3.88a11.08,11.08,0,0,1,2.83-2.46,10.18,10.18,0,0,1,1.44-.72q-.9-21.51-1.82-43c-.19-4.5-.38-9-.4-13.51-.05-7.49.35-15,.24-22.47-.07-5.43-2-12.07-1.15-17.3,4.93,8.16,3.31,20,2.93,29-1,22.22,1.16,44.42,2.4,66.63a9.15,9.15,0,0,1,1.74-.12c2.22.06,4.37,2.23,6.19,2.26,4.69,0,.93-24.34.65-28.12A221,221,0,0,1,984,359.7c.32,23.83,1.62,47.64,3,71.43,0,.17,0,.34,0,.51a47.22,47.22,0,0,1,9-.76c5.76.15,5.9,1.28,9.79,1,5.64-.44,6.22-2.89,12.71-3.92,1.23-.19,1.22-.1,9.78,0,8.19.11,12.28.16,13.7,0,6.22-.68,7.31-1.94,10.76-1a45.49,45.49,0,0,1,6.85,2.93c2.13,1.1,2.79,1.18,2.93,1,.33-.44-2-2-2.93-4.89-.51-1.67-.22-2.82,0-4.89.44-4.17-.17-4.73,0-8.81C1059.56,410.88,1059.72,408.81,1062.43,397.62Z"/><path class="cls-11" d="M972.13,361.39c.38-9.05,2-20.87-2.93-29-.86,5.23,1.08,11.87,1.15,17.3.11,7.49-.29,15-.24,22.47,0,4.5.21,9,.4,13.51q.91,21.5,1.82,43a10,10,0,0,1,2.2-.62C973.29,405.81,971.18,383.61,972.13,361.39Z"/><path class="cls-5" d="M974.75,432.24c.08,1.68.16,3.36.23,5.05.14,3.36.24,6.79-.72,10-1-.46-1.21-1.8-1.26-2.92q-.25-6.12-.52-12.24c-1.45-.08-2.78-.19-4-.28l-.46,0a10.34,10.34,0,0,0-2.47,6.43,10.47,10.47,0,0,0,20.75,2.05,37.52,37.52,0,0,0,.61-8.66l-1.8.22A74.32,74.32,0,0,1,974.75,432.24Z"/><path class="cls-5" d="M973,444.38c0,1.12.24,2.46,1.26,2.92,1-3.22.86-6.65.72-10-.07-1.69-.15-3.37-.23-5.05l-2.27-.1Q972.75,438.26,973,444.38Z"/><path class="cls-9" d="M972.48,432.14l-.15-3.5a10.18,10.18,0,0,0-1.44.72,11.08,11.08,0,0,0-2.83,2.46l.46,0C969.7,432,971,432.06,972.48,432.14Z"/><path class="cls-11" d="M984,359.7a221,221,0,0,0-.86,42.34c.28,3.78,4,28.17-.65,28.12-1.82,0-4-2.2-6.19-2.26a9.15,9.15,0,0,0-1.74.12c.08,1.4.15,2.81.22,4.22a74.32,74.32,0,0,0,10.4-.38l1.8-.22c0-.17,0-.34,0-.51C985.59,407.34,984.29,383.53,984,359.7Z"/><path class="cls-11" d="M974.75,432.24c-.07-1.41-.14-2.82-.22-4.22a10,10,0,0,0-2.2.62l.15,3.5Z"/><path class="cls-5" d="M1350.31,773.34a26.8,26.8,0,0,0,7.83,2.24c-2.87-1-7-2.57-12.05-4.63A31.19,31.19,0,0,0,1350.31,773.34Z"/><path class="cls-12" d="M1312.45,749.8c-7.63.31-14.11,5.47-19.69,10.67-2.66,2.48-5.88,5.12-9.2,6.34a2.81,2.81,0,0,0,0,1.55c.67,2.15,4.86,2.37,7.82,2.94,2.29.44,2.23.77,14.68,7.82,10.86,6.16,10.8,5.84,13.69,7.83a83.51,83.51,0,0,1,10.76,8.8,142.2,142.2,0,0,1,17.61,21.52c1.28,2-.79-.63,5.87,6.85a9,9,0,0,0,3.91,2.94,5.3,5.3,0,0,0,3.92,0c.3-.14,1.75-.81,2-2,.3-1.68-2.25-3.43-2.93-3.91-8-5.74-25.26-29.46-26.41-41.09-.09-.91-.06-3.54,0-8.8,0-3.5.11-5.61,1-5.87.63-.19,1.15.72,2.94,2a19.39,19.39,0,0,0,3.91,2l3.89,1.61c-4.92-3.29-9.09-7.76-13.52-11.75C1326.93,754.12,1320,749.5,1312.45,749.8Z"/><path class="cls-12" d="M1405.58,760.86c-5.06-3-11.7-1.34-16.72,1.74s-9.23,7.44-14.46,10.17a27.63,27.63,0,0,1-16.26,2.81c3,1.06,4.6,1.59,4.6,1.59,5.32,1.7,16.08,5.09,27.39,7.82,8.14,2-.05-.42,13.7,1,1.29.13,3.54.38,4.89-1,1.15-1.15,1-2.82,1-4.89-.08-5.05.16-1.13,1-12.71,0-.64.08-1.22.12-1.75l-.83-.88A21.14,21.14,0,0,0,1405.58,760.86Z"/><path class="cls-10" d="M1162.53,557.38a19.84,19.84,0,0,0,3.23,4.15,20.87,20.87,0,0,0,2.77,1.85,28.36,28.36,0,0,1,9.32,9.45c3.54,5.86,5.91,13.83,12.58,15.38a7,7,0,0,1,2.91.95c1.64,1.28,1.12,3.9.05,5.68s-2.58,3.52-2.5,5.6c4.86,1,10.07-1.26,14.79.28,6.19,2,8.49,11.19,4,15.9a29.27,29.27,0,0,0,13.75,2.48,11.54,11.54,0,0,0,1.2,6.85A14.72,14.72,0,0,1,1243,645.69c3.76.45,7.78,1.08,10.54,3.67s3.24,7.86,0,9.79c4.07,3.27,9.8,3.28,14.65,5.19s9,8.19,5.58,12.08c5.24-2.25,10.44,3,13.73,7.71s8.56,9.92,13.76,7.58a14.86,14.86,0,0,1,1.21,6.16c3.49-.71,5,4.12,6.54,7.3a11.73,11.73,0,0,0,14.68,5.27,29.11,29.11,0,0,0,12.9,21.28c4.15,2.7,9.87,6.16,8.36,10.88-.44,1.38-1.51,2.67-1.22,4.08s1.78,2.17,3.09,2.74l10,4.31c-.57-4.16-7.13-5.25-7.81-9.38-.49-3,2.6-5.65,2.59-8.72,0-6.4-11.18-6-14.07-11.66-1-1.87-.8-4.08-1.16-6.14-.8-4.54-4-8.22-7.12-11.64-3.62-4-9.7-8.26-13.75-4.68l-3.39-16.24a16.26,16.26,0,0,1-11.39-.49c1.77-3.25-1.85-6.69-4.84-8.87a68.13,68.13,0,0,1-10.86-9.85,11.41,11.41,0,0,1-2-2.84c-1.92-4.34.94-10.82-3.06-13.36-4.37-2.79-10.34,3.84-14.9,1.37-4.23-2.3-2.08-9.29-5.09-13.05-1.48-1.85-3.92-2.54-6.06-3.55a19.77,19.77,0,0,1-11.05-18.4c.1-1.81.43-3.68-.19-5.38-1-2.6-3.94-4-6.7-3.92s-5.37,1.24-7.87,2.4l-4.7-5c-4-4.29-8.32-9.92-6.33-15.45L1210,592c-6.4-2.88-.92-13.85-5.32-19.31-2.37-2.94-7.23-3.61-8.55-7.15-.8-2.16.09-4.57-.14-6.86s-3-4.65-4.63-3.07l-.42-4.67c-9.71,2.21-19.9-8.11-17.57-17.79a20.26,20.26,0,0,0-10.06,5q-3.52-4.06-7.06-8.14l-.87,2.59c-2.89,8.71-2.58,8.9-3.91,11.74-.36.77-.68,1.45-1,2.08A35.4,35.4,0,0,1,1162.53,557.38Z"/><path class="cls-9" d="M1410.68,758.58c-1-3.75-2.89-5-7.83-10.76a139,139,0,0,1-9.78-12.72c-4.65-6.89-4.61-8.48-7.83-10.76-2.31-1.63-4.36-2.25-5.87-4.89-1.38-2.42-.25-3.24-1.95-5.87s-3.67-3.4-3.91-5.87c-.15-1.49.5-2,0-2.93-.63-1.14-2-1-4.9-2-2.52-.85-4.48-1.52-4.89-2.93s1.32-2.28,1-3.91c-.29-1.41-1.73-1.53-4.89-3.92-2.16-1.63-3.24-2.45-3.91-3.91-.89-1.93-.08-2.67-1-4.89-.63-1.55-1.2-1.64-2.94-3.91-3-3.9-2.24-4.91-3.91-5.87-2.66-1.55-5.15.66-6.85-1-.93-.91-.94-2.32-1-4.89,0-3.56.88-5,0-5.87s-1.85,0-3.92,0a11.05,11.05,0,0,1-6.84-2.94c-3.11-2.71-1.53-4.61-4.9-7.82-1.46-1.39-2.17-1.43-4.89-3.92a36,36,0,0,1-2.93-2.93c-2.86-3.21-2.75-4.26-4.89-5.87-1.71-1.28-2.2-.92-2.94-2-1.56-2.18.26-4.29-1-5.86-1.68-2.16-6.3.24-7.82-2-.78-1.13-.39-3,0-3.91.72-1.75,2.16-2.24,2-2.94s-1.62-.51-3.92-1a19.11,19.11,0,0,1-6.85-2.93c-1.69-1.08-3-1.92-2.93-2.94.1-1.5,3.1-2.15,2.93-2.93-.12-.56-1.69-.35-3.91-1-1.37-.39-3.74-1.07-4.89-2.93-1.43-2.32-.25-5.27,0-5.87a29.1,29.1,0,0,1-4.89-2c-1.64-1.2-3.27-3.58-2.93-5.87s2.33-3.1,2-3.91c-.67-1.43-6.77,1.39-8.8-1-.45-.52-.63-2-1-4.89-.28-2.32-.21-3.22-1-3.91s-1.76-.23-2.93-1-1.16-1.66-2-3.92c-1.17-3.27-1.75-4.9-2.93-5.86-1.68-1.37-2.66-.37-4.9-2a7.2,7.2,0,0,1-2.93-3.91c-.44-1.8.46-2.22,0-3.92-.51-1.87-1.71-1.67-2.93-3.91-1.34-2.43-.55-3.8-2-4.89-1-.77-1.52-.18-2.94-1a6.38,6.38,0,0,1-2.93-3.91c-.6-2.42.85-3.45,0-4.89-.5-.85-1.14-.74-3.91-2s-4.25-1.86-4.89-2.93c-1.12-1.86.23-3.27-1-4.89-1-1.37-2.13-.6-3.92-2-2.26-1.73-1.39-3.67-3.91-5.87-1.22-1.07-1.51-.69-2.93-2-.59-.52-1.16-1.14-2.94-3.91a47.68,47.68,0,0,1-2.93-4.89c-1.17-2.5-.88-2.93-2-4.89-1.2-2.2-1.71-1.92-2.93-3.91-1.84-3-1-4.15-2.94-7.83-1.12-2.14-1.68-3.2-2.93-3.91-2.43-1.38-4.25.39-7.83,0-3.8-.42-3.74-2.64-7.82-3.92-.92-.28-2.06-.53-12.72,1-7,1-8.28,1.35-9.78,2a35.08,35.08,0,0,0-6.85,3.91,25.14,25.14,0,0,0-5.87,4.89c-1.42,1.71-3.56,4.29-2.93,6.85.23,1,.61.88,2,2.93,1.44,2.22,1.21,2.64,2.94,5.87a27.82,27.82,0,0,0,2.93,4.89c1,1.18,1.82,1.76,2,2.94a4.87,4.87,0,0,1-1,2.93s-.37,1.11-1.09,3.28q3.52,4.08,7.06,8.14a20.26,20.26,0,0,1,10.06-5c-2.33,9.68,7.86,20,17.57,17.79l.42,4.67c1.68-1.58,4.4.77,4.63,3.07s-.66,4.7.14,6.86c1.32,3.54,6.18,4.21,8.55,7.15,4.4,5.46-1.08,16.43,5.32,19.31l7.06-3.13c-2,5.53,2.33,11.16,6.33,15.45l4.7,5c2.5-1.16,5.1-2.34,7.87-2.4s5.75,1.32,6.7,3.92c.62,1.7.29,3.57.19,5.38a19.77,19.77,0,0,0,11.05,18.4c2.14,1,4.58,1.7,6.06,3.55,3,3.76.86,10.75,5.09,13.05,4.56,2.47,10.53-4.16,14.9-1.37,4,2.54,1.14,9,3.06,13.36a11.41,11.41,0,0,0,2,2.84,68.13,68.13,0,0,0,10.86,9.85c3,2.18,6.61,5.62,4.84,8.87a16.26,16.26,0,0,0,11.39.49l3.39,16.24c4-3.58,10.13.67,13.75,4.68,3.1,3.42,6.32,7.1,7.12,11.64.36,2.06.21,4.27,1.16,6.14,2.89,5.71,14,5.26,14.07,11.66,0,3.07-3.08,5.68-2.59,8.72.68,4.13,7.24,5.22,7.81,9.38l-10-4.31c-1.31-.57-2.8-1.33-3.09-2.74s.78-2.7,1.22-4.08c1.51-4.72-4.21-8.18-8.36-10.88a29.11,29.11,0,0,1-12.9-21.28,11.73,11.73,0,0,1-14.68-5.27c-1.59-3.18-3-8-6.54-7.3a14.86,14.86,0,0,0-1.21-6.16c-5.2,2.34-10.47-2.92-13.76-7.58s-8.49-10-13.73-7.71c3.47-3.89-.72-10.17-5.58-12.08s-10.58-1.92-14.65-5.19c3.26-1.93,2.77-7.2,0-9.79s-6.78-3.22-10.54-3.67A14.72,14.72,0,0,0,1224.61,626a11.54,11.54,0,0,1-1.2-6.85,29.27,29.27,0,0,1-13.75-2.48c4.51-4.71,2.21-13.87-4-15.9-4.72-1.54-9.93.69-14.79-.28-.08-2.08,1.43-3.82,2.5-5.6s1.59-4.4-.05-5.68a7,7,0,0,0-2.91-.95c-6.67-1.55-9-9.52-12.58-15.38a28.36,28.36,0,0,0-9.32-9.45,20.87,20.87,0,0,1-2.77-1.85,19.84,19.84,0,0,1-3.23-4.15,35.4,35.4,0,0,0-12.07-11c-1.16,2.32-2.13,3.78-3.9,4.77-2.37,1.33-3.82.54-4.89,2-1.41,1.86-.3,5.09,1,8.8,1,2.91,1.37,2.72,1.95,4.89,1.15,4.29.39,7.72,1,7.83s.64-2.48,2-2.94c2.43-.83,7.75,5.89,10.76,12.72,1.88,4.27,1.63,5.81,3.91,8.8s4.23,3.75,6.85,5.87c4.89,4,6.76,8.25,8.8,11.74,3.28,5.61,10.34,12.22,24.46,25.43,7.63,7.15,14.46,13.55,24.45,21.53,12.09,9.65,15.91,11.32,22.5,18.58,7.8,8.58,11.69,12.87,12.72,14.67a17.87,17.87,0,0,0,4.89,5.87c1.62,1.24,1.94,1,2.93,2,1.88,1.84,1.86,3.83,2.94,8.8,1.19,5.49,1.58,4.8,2,7.83.5,4.11-.33,4.51,0,8.8.35,4.66,1.37,4.85,2,9.79.37,3.14-.07,2.87,0,9.78a67.07,67.07,0,0,0,1,11.74c.81,4.47,1.63,6,2.93,6.84s2.33.8,2.94,2a3.12,3.12,0,0,1,0,2.36c3.32-1.22,6.54-3.86,9.2-6.34,5.58-5.2,12.06-10.36,19.69-10.67s14.48,4.32,20.12,9.4c4.43,4,8.6,8.46,13.52,11.75,5.07,2.06,9.18,3.6,12.05,4.63a27.63,27.63,0,0,0,16.26-2.81c5.23-2.73,9.43-7.08,14.46-10.17s11.66-4.77,16.72-1.74a21.14,21.14,0,0,1,4.39,3.9l.83.88C1411.09,761.31,1411.08,760.15,1410.68,758.58Zm-115.14-22.12c-2.42-1.51-3.75-4.24-5-6.82-3.47-7.43-7-14.94-8.75-22.95-2-9.13-2.73-20.28-10.92-24.8-.34,2.38-.67,4.77-1,7.16-8.87-6.68-12.9-19.31-23.24-23.36-1.68-.66-3.5-1.08-4.87-2.24a13.22,13.22,0,0,1-2.79-4.12,34.29,34.29,0,0,0-9.71-11.23c-3.4-2.52-7.29-4.43-10.24-7.47-3.18-3.28-5-7.65-8-11.11-3.56-4.11-8.62-6.78-11.92-11.1-1.56-2-2.69-4.4-4.47-6.23s-3.92-3-5.88-4.44a45.92,45.92,0,0,1-7.42-7.71c-6.18-6.18-11.51-14-16.69-21-3.71-5-14.87-17-14.82-23.45.09-11.46,10.65,6.15,12.2,8.58l16.44,25.7c2.87,4.49,5.8,9,9.89,12.44,2.1,1.75,4.47,3.16,6.41,5.08a48.13,48.13,0,0,1,4.56,5.86c8.48,11.49,21.35,18.9,31.07,29.35,4.29,4.62,8,9.87,13.11,13.59,2.63,1.92,5.56,3.39,8.18,5.33,7.35,5.47,11.5,14.12,15.37,22.42l5.48-4.38c.89-.7,2-1.46,3.06-1.14s1.61,1.53,2,2.61l12.63,36.73c2.41,7,5.67,14.87,12.7,17.16C1301.8,737.55,1298,738,1295.54,736.46Z"/><path class="cls-13" d="M1290.21,717.76,1277.58,681c-.37-1.08-.89-2.3-2-2.61s-2.17.44-3.06,1.14l-5.48,4.38c-3.87-8.3-8-17-15.37-22.42-2.62-1.94-5.55-3.41-8.18-5.33-5.09-3.72-8.82-9-13.11-13.59-9.72-10.45-22.59-17.86-31.07-29.35a48.13,48.13,0,0,0-4.56-5.86c-1.94-1.92-4.31-3.33-6.41-5.08-4.09-3.4-7-7.95-9.89-12.44L1162,564.17c-1.55-2.43-12.11-20-12.2-8.58,0,6.42,11.11,18.42,14.82,23.45,5.18,7,10.51,14.82,16.69,21a45.92,45.92,0,0,0,7.42,7.71c2,1.48,4.17,2.67,5.88,4.44s2.91,4.2,4.47,6.23c3.3,4.32,8.36,7,11.92,11.1,3,3.46,4.84,7.83,8,11.11,3,3,6.84,5,10.24,7.47a34.29,34.29,0,0,1,9.71,11.23,13.22,13.22,0,0,0,2.79,4.12c1.37,1.16,3.19,1.58,4.87,2.24,10.34,4,14.37,16.68,23.24,23.36.34-2.39.67-4.78,1-7.16,8.19,4.52,8.89,15.67,10.92,24.8,1.78,8,5.28,15.52,8.75,22.95,1.21,2.58,2.54,5.31,5,6.82s6.26,1.09,7.37-1.54C1295.88,732.63,1292.62,724.75,1290.21,717.76Z"/><path class="cls-5" d="M623.66,768a35.62,35.62,0,0,0,3.91-2.63c-1.12.08-2.3,1.33-3.92,2.64Z"/><path class="cls-5" d="M798.31,526.74a5.81,5.81,0,0,0,1,3.92,27.6,27.6,0,0,1,2.91,7.06c.44-.43.88-.88,1.33-1.31,3.12-3,18.69-13.85,14.28-17.69-2.2-1.92-7.6-1.33-13.08-.14-1.62,1.93-1.41,2-3.48,4.25S798.55,525.44,798.31,526.74Z"/><path class="cls-12" d="M591.61,773.44c-4.28-1.41-7.82-4.56-12.09-6-7.86-2.61-16.69,1.32-22.24,7.47-.42.47-.82,1-1.22,1.45a68.49,68.49,0,0,0,2.59,12.53,5,5,0,0,0,2,2.93c1.7,1,3.86.32,4.89,0,6.28-2,.93.92,13.69-2.93,3.16-1,6.76-2,11.74-3.92,6.6-2.47,9.9-3.7,13.7-5.87,5.47-3.12,5.34-4.19,10.76-6.84,4.1-2,5.2-1.89,7.82-3.92l.44-.34c-5,2.82-10.7,4-16.32,5.12C602.13,774.16,596.65,775.09,591.61,773.44Z"/><path class="cls-12" d="M667.87,751.28c-9.09-3.81-20-1.71-28.06,3.91-4.35,3-8,7-12.24,10.19a1.35,1.35,0,0,1,.53,0c1.16.33,1.66,1.89,2,2.93,1.7,5.91,3.23,11.25,1,18.59-.92,3-1.1,1.88-3.91,8.8s-2.27,7.12-3.92,9.79c-.79,1.28-2.81,3.79-6.84,8.8a25.8,25.8,0,0,0-2.94,4.89,8,8,0,0,0-1,3.91,4.3,4.3,0,0,0,1,2.94c1.44,1.45,4.19,1,5.87,0a6.41,6.41,0,0,0,2-2,38.08,38.08,0,0,0,3.91-6.85c1.27-3.1,3.26-5.86,4.89-8.8,1.16-2.1,2.81-4.78,16.63-21.52,6.85-8.3,9-10.75,12.72-11.74.93-.25,3.35-.78,6.85-2a32.93,32.93,0,0,0,6.84-2.93,26.06,26.06,0,0,0,4.89-3.91,33.71,33.71,0,0,0,3.31-3.7C677.75,757.78,673.45,753.62,667.87,751.28Z"/><path class="cls-9" d="M679.74,697.75c-1.55,2.93-2.29,6.24-4,9.1s-4.82,5.28-8.07,4.64a177,177,0,0,0-6.37,28.22,15,15,0,0,0-10,1.76,59.69,59.69,0,0,0,8.78-36.87c2.38,2.45,6.71,1.41,9.16-1s3.71-5.7,5.63-8.53c4.83-7.11,13.34-10.6,20-16,9.49-7.64,15.18-19,23.59-27.81,6.18-6.46,13.72-11.44,20.4-17.38,6.17-5.48,11.58-11.76,17-18L790,576.32c6.32-6.32,11.4-19,18.91-23.44a7,7,0,0,1,1.11-.53c-.86-1-1.88-1.9-2.92-3.11-3.64-4.19-3.84-7.44-4.92-11.52a390.9,390.9,0,0,0-40,45.57c-6.63,8.86-13.07,18.47-14.49,29.45a19.78,19.78,0,0,1-1.07,5.36,14,14,0,0,1-3.38,4.32c-11.41,10.82-26.69,17.79-35.35,30.92-3.19,4.84-5.59,10.62-10.55,13.64-2.7,1.64-6,2.3-8.52,4.15s-4.18,5.79-2.08,8.17c-5.33,5.87-15,6.17-20.11,12.26-1.71,2.05-2.72,4.59-4.23,6.78-5.6,8.07-16.73,10-24.17,16.4-3.35,2.89-5.86,6.6-8.68,10a14.1,14.1,0,0,1,4.64-10.92c1.51-1.35,3.51-2.81,3.22-4.81-.14-1-.9-1.89-.92-2.92a4.15,4.15,0,0,1,1.46-2.69,70.61,70.61,0,0,1,10.54-9.15l-5.5-6.82a15,15,0,0,0,14.47-6.37,24,24,0,0,0-9.15-4.9,36.22,36.22,0,0,1,16.89-4.86,4.1,4.1,0,0,1,5.43-4c-.53-1.95-1-3.9-1.58-5.85,3,.61,7.62-.28,6.95-3.28a4.38,4.38,0,0,0-1.3-2c-2.69-2.82-5.68-7.48-2.7-10l4.48.73c0,1.11,0,2.22,0,3.33a16.14,16.14,0,0,1,10.3,1,7.59,7.59,0,0,0-5.41-8l11.12.16,2.52-3.81a14.55,14.55,0,0,1-5.57-4,32.13,32.13,0,0,0,16.59,5.93,20.07,20.07,0,0,0-5.69-12.17,7.52,7.52,0,0,1-3.38-2.75,19,19,0,0,1,3.38,2.75,8.24,8.24,0,0,0,8.63-1.22c1.32-1.2,2.49-3,4.27-2.94l-1.21-4.63c1.88-.47,3.74,1.07,5.67.91,2.88-.22,4.12-4.2,2.8-6.77s-4.12-4-6.73-5.2c4.34,1.93,9.81-.08,12.56-4,1.13-1.6,1.92-3.51,3.5-4.67s4.38-1,4.93.91a7.83,7.83,0,0,0-1.36-7.41,12.65,12.65,0,0,1-2.93-2.22,7.14,7.14,0,0,1,2.93,2.22,12.72,12.72,0,0,0,3,1.21c1.09.27,2.51-.82,2.42-1.46a3.44,3.44,0,0,1-.47-.4c.31.07.45.22.47.4,2.86,2.07,7.58-1.39,7.52-5.17-.05-4-3.15-7.19-6-9.94a12.2,12.2,0,0,0,5.1.34,27.62,27.62,0,0,1-3.19-10.79,16.82,16.82,0,0,1,6.79,6.56,17.64,17.64,0,0,0,11.69-6.58l-7.43-6.21c4,3,10.87-.72,10.62-5.73a17,17,0,0,0,9.92-1l-.18-5.62a7,7,0,0,0,2.12-9.59,5.32,5.32,0,0,0,6,1c4.46-3,9.54-7.63,7.82-12.73-.64-1.9-2.15-4.14-.8-5.63a3.9,3.9,0,0,1,2.29-1c2.47-.47,8.08-2.28,13.62-3.48.36-.43.82-1,1.41-1.62,2.28-2.54,2.83-2.9,2.93-3.91.16-1.5-.84-2.83-2.93-4.89-3.7-3.65-6.54-5.37-9.78-7.83-4.84-3.68-3.69-3.8-6.85-5.87-3.88-2.53-7.3-3.44-12.72-4.89-4.91-1.31-7.7-2.05-11.74-1.95-3.34.08-7.41.17-10.76,2.93a19.76,19.76,0,0,0-3.91,4.89,38.7,38.7,0,0,0-2.93,5.87c-1,2.39-1.47,3.78-2.94,6.85a20.63,20.63,0,0,1-1,1.95c-1.66,2.56-3.56,2.76-5.87,4.9a17.65,17.65,0,0,0-2.93,3.91c-2.59,4.08-1.93,5.11-3.91,6.85-1.22,1.06-2,1.12-3.92,2.93-1,.89-1,1-1.95,2a32.93,32.93,0,0,1-3.91,2.93c-3.08,2.08-3.55,2.08-3.92,2.94-.62,1.47.47,2.14,0,3.91-.67,2.55-3.64,3.8-3.91,3.91-2.63,1.07-4-.28-5.87,1-1.4.92-2.44,2.78-2,3.91.66,1.54,3.86,1.21,3.92,2s-2.92.68-4.89,2.93a31.31,31.31,0,0,0-2,3.92c-1.52,3.25-1.56,3.42-2,3.91-1.33,1.64-2,1.15-3.91,2.93a9,9,0,0,0-2.93,4.9,19.9,19.9,0,0,0,0,2.93c.08,3.07.31,3.33,0,3.91-.71,1.31-2.17.59-4.9,2a17.91,17.91,0,0,0-4.89,3.91c.25,1.67.25,3.71-1,4.89s-3.34.7-3.91,2c0,0-.23.51,1,3.91a13.23,13.23,0,0,0-4.89,3.92,9.19,9.19,0,0,0-2,3.91c-.32,1.64.2,1.87,0,3.91-.14,1.44-.36,3.82-2,4.89a22.55,22.55,0,0,1-2.94,1,17.37,17.37,0,0,0-2,3.91c-1.18,3.32-.66,5-2,5.87-1,.68-1.73-.22-4.89,0-1.9.14-3,.21-3.92,1-1.28,1.08-.63,2.21-2,4.89a13.7,13.7,0,0,1-2.94,3.92c-2,1.81-2.9,1.52-3.91,2.93-1.19,1.66-.36,2.73-1,4.89-.76,2.7-2.51,2.71-7.82,7.83-3.41,3.27-2.9,3.47-4.89,4.89-2.35,1.66-3.9,2-4.9,3.91-.84,1.63-.15,2.24-1,3.91-1.15,2.33-3.57,3.36-4.89,3.92-4.28,1.8-6.55.22-7.83,1.95-1.08,1.46.3,2.88-1,5.87-.54,1.28-.86,1.17-1.95,2.94-1.86,3-1.34,3.94-2.94,6.84a16.2,16.2,0,0,1-3.91,4.9,22.82,22.82,0,0,1-4.89,2.93c-2.36,1-3.75,1.1-3.92,2s1.12,1.19,2,2.93c.7,1.46,1.07,3.84,0,4.89s-2.94-.31-4.89,1a5.24,5.24,0,0,0-2,2.93c-.48,1.79.4,2.23,0,3.92a7.62,7.62,0,0,1-2.93,3.91c-1.2,1-1.44.79-2.94,2a10.61,10.61,0,0,0-2.93,2.93c-1.38,2.37.12,3.68-1,5.87-1.24,2.48-3.55,1.57-4.89,3.91-1.55,2.72.75,5.33-1,7.83a5.9,5.9,0,0,1-2.93,2c-1.76.76-5.27,2.91-13.7,23.47-1.2,2.93-1.8,4.4-2,4.89,0,0-1.57,5-.63,13.89.4-.49.8-1,1.22-1.45,5.55-6.15,14.38-10.08,22.24-7.47,4.27,1.42,7.81,4.57,12.09,6,5,1.65,10.52.72,15.72-.3,5.62-1.09,11.33-2.3,16.32-5.12,1.62-1.31,2.8-2.56,3.92-2.64,4.2-3.21,7.89-7.16,12.24-10.19,8.09-5.62,19-7.72,28.06-3.91,5.58,2.34,9.88,6.5,13.43,11.43.64-.82,1.16-1.56,1.58-2.17a32.45,32.45,0,0,0,3.92-6.85,29.65,29.65,0,0,0,2-8.8c.13-1.29,0-.91,0-8.81,0-5.53,0-8.3,0-8.8a26.61,26.61,0,0,0,0-4.89,38.11,38.11,0,0,0-1-4.89c-.83-3.33-1-3.13-1-3.92.18-2.5,2.21-2.86,2.93-5.87.1-.4,0-.28,0-3.91,0-4.49.07-4.12,0-6.85-.07-3-.19-3.15,0-3.91.64-2.51,2.68-4,3.92-4.89a107.91,107.91,0,0,0,9.78-8.8c.29-.29.55-.56.8-.83-3.35,2.14-6.71,4.28-10.09,6.39C688.61,688.35,682.79,692,679.74,697.75Z"/><path class="cls-10" d="M788.82,523c-1.35,1.49.16,3.73.8,5.63,1.72,5.1-3.36,9.73-7.82,12.73a5.32,5.32,0,0,1-6-1,7,7,0,0,1-2.12,9.59l.18,5.62a17,17,0,0,1-9.92,1c.25,5-6.57,8.69-10.62,5.73l7.43,6.21a17.64,17.64,0,0,1-11.69,6.58,16.82,16.82,0,0,0-6.79-6.56,27.62,27.62,0,0,0,3.19,10.79,12.2,12.2,0,0,1-5.1-.34c2.89,2.75,6,6,6,9.94.06,3.78-4.66,7.24-7.52,5.17.09.64-1.33,1.73-2.42,1.46a12.72,12.72,0,0,1-3-1.21,7.83,7.83,0,0,1,1.36,7.41c-.55-1.88-3.35-2.07-4.93-.91s-2.37,3.07-3.5,4.67c-2.75,3.88-8.22,5.89-12.56,4,2.61,1.23,5.4,2.63,6.73,5.2s.08,6.55-2.8,6.77c-1.93.16-3.79-1.38-5.67-.91l1.21,4.63c-1.78,0-3,1.74-4.27,2.94a8.24,8.24,0,0,1-8.63,1.22,20.07,20.07,0,0,1,5.69,12.17,32.13,32.13,0,0,1-16.59-5.93,14.55,14.55,0,0,0,5.57,4l-2.52,3.81-11.12-.16a7.59,7.59,0,0,1,5.41,8,16.14,16.14,0,0,0-10.3-1c0-1.11,0-2.22,0-3.33L672,646.2c-3,2.5,0,7.16,2.7,10a4.38,4.38,0,0,1,1.3,2c.67,3-3.94,3.89-6.95,3.28.53,1.95,1,3.9,1.58,5.85a4.1,4.1,0,0,0-5.43,4,36.22,36.22,0,0,0-16.89,4.86,24,24,0,0,1,9.15,4.9A15,15,0,0,1,643,687.45l5.5,6.82A70.61,70.61,0,0,0,638,703.42a4.15,4.15,0,0,0-1.46,2.69c0,1,.78,1.91.92,2.92.29,2-1.71,3.46-3.22,4.81a14.1,14.1,0,0,0-4.64,10.92c2.82-3.42,5.33-7.13,8.68-10,7.44-6.4,18.57-8.33,24.17-16.4,1.51-2.19,2.52-4.73,4.23-6.78,5.06-6.09,14.78-6.39,20.11-12.26-2.1-2.38-.48-6.31,2.08-8.17s5.82-2.51,8.52-4.15c5-3,7.36-8.8,10.55-13.64,8.66-13.13,23.94-20.1,35.35-30.92a14,14,0,0,0,3.38-4.32,19.78,19.78,0,0,0,1.07-5.36c1.42-11,7.86-20.59,14.49-29.45a390.9,390.9,0,0,1,40-45.57,27.6,27.6,0,0,0-2.91-7.06,5.81,5.81,0,0,1-1-3.92c.24-1.3,1-1.83,2.94-3.91s1.86-2.32,3.48-4.25c-5.54,1.2-11.15,3-13.62,3.48A3.9,3.9,0,0,0,788.82,523Z"/><path class="cls-9" d="M700.42,629.33a19,19,0,0,0-3.38-2.75A7.52,7.52,0,0,0,700.42,629.33Z"/><path class="cls-9" d="M730.55,592.13a12.65,12.65,0,0,0,2.93,2.22A7.14,7.14,0,0,0,730.55,592.13Z"/><path class="cls-9" d="M738.45,593.7a3.44,3.44,0,0,0,.47.4C738.9,593.92,738.76,593.77,738.45,593.7Z"/><path class="cls-5" d="M828.64,564.63c-1.53-6.59-11.81-14.82-18.6-12.28a8.53,8.53,0,0,1,2,3.74,9.65,9.65,0,0,1,0,4.89c-.89,3.17-3.33,4.7-5.87,6.85-3,2.54-5.19,5.89-7.83,8.8-7,7.71-17.7,19.72-29.34,34.24a183,183,0,0,1-15.65,17.61c-4.34,4.25-8.92,8.28-11.74,10.76-7.67,6.74-7.64,6.21-12.72,10.76-8.6,7.71-13.66,12.24-18.59,19.56-2.9,4.32-3.47,6.2-6,9a966.91,966.91,0,0,0,87.53-63.14c14.36-11.63,28.93-24.41,35.58-41.65C828.46,570.83,829.35,567.66,828.64,564.63Z"/><path class="cls-14" d="M728.86,650c5.08-4.55,5-4,12.72-10.76,2.82-2.48,7.4-6.51,11.74-10.76A183,183,0,0,0,769,610.87c11.64-14.52,22.36-26.53,29.34-34.24,2.64-2.91,4.83-6.26,7.83-8.8,2.54-2.15,5-3.68,5.87-6.85a9.65,9.65,0,0,0,0-4.89,8.53,8.53,0,0,0-2-3.74,7,7,0,0,0-1.11.53c-7.51,4.46-12.59,17.12-18.91,23.44L755.93,615.9c-5.4,6.26-10.81,12.54-17,18-6.68,5.94-14.22,10.92-20.4,17.38-8.41,8.81-14.1,20.17-23.59,27.81-6.7,5.39-15.21,8.88-20,16-1.92,2.83-3.18,6.15-5.63,8.53s-6.78,3.42-9.16,1a59.69,59.69,0,0,1-8.78,36.87,15,15,0,0,1,10-1.76,177,177,0,0,1,6.37-28.22c3.25.64,6.38-1.79,8.07-4.64s2.42-6.17,4-9.1c3-5.75,8.87-9.4,14.4-12.84,3.38-2.11,6.74-4.25,10.09-6.39,2.57-2.76,3.14-4.64,6-9C715.2,662.24,720.26,657.71,728.86,650Z"/><path class="cls-12" d="M898.82,278.29a24,24,0,0,0-9.63-1,26.24,26.24,0,0,0-13.48,5.95c-1.39,1.1-5.64,4.78-10.6,15.85-5.56,12.39-10.67,31.1-13.49,35.68-1,1.63-1.92,3-1.92,3-1.77,2.57-2.19,2.78-2.89,4-1.45,2.44-.61,3.14-1.93,6.94A56.66,56.66,0,0,1,842,354.6c-1.94,3.75-2.36,4.22-2.89,5.95-.76,2.52-.35,3.13-1,5-1,2.86-2.89,4.11-4.82,5.94-7.11,6.76-5.45,13.12-12.52,18.83-.6.49-2.11,1.65-1.93,2s2.78-.94,6.74-2c3.1-.81,5.59-1.46,8.67-1a12.36,12.36,0,0,1,6.75,3c1.89,1.74,2.54,3.8,3.85,7.92.74,2.33,2.89,9.11,1,11.9a6.9,6.9,0,0,0-1,2c-.09.32-.7,2.38,0,3s1.79-.4,4.82-2a42.11,42.11,0,0,1,6.74-3c2.72-.86,3.07-.43,4.82-1,5.53-1.79,8.42-8.22,9.63-10.91,1.79-4,.76-4.06,2.89-8.92,1.42-3.23,2.16-3.84,4.81-8.91,2.18-4.16,1.91-4.17,3.86-7.93,2.71-5.22,5.91-11.41,7.7-10.91.53.15,1,2.08,1.93,6a31.85,31.85,0,0,1,1,5,43,43,0,0,1,0,4.95c-.06,3.92-.07,4.72,0,5.95,0,.53.32,4.92,1,4.95.46,0,.3-2.24,1.92-4,1.24-1.31,2.37-1.11,3.86-2,2.28-1.34,3.06-3.82,3.85-5.95a101.16,101.16,0,0,1,5.78-11.89A40.44,40.44,0,0,1,921,353.61c3.7-2.77,4-2,11.56-6.93,4.46-2.91,4.29-3.13,8.67-5.95,6.54-4.21,11.56-6.94,11.56-6.94,5.42-2.94,7.28-3.51,8.67-5.94.38-.67.93-1.84,1.92-2s1.59.76,3.86,3c3.06,3,4.24,3.67,4.81,4a7.15,7.15,0,0,0,3.86,1,5.51,5.51,0,0,0,2.89-1c1.51-1.09,1.14-2.11,2.89-4a6.26,6.26,0,0,1,2.89-2,5.88,5.88,0,0,1,2.89,0c2.07.48,3.24,1.67,4.81,3a42.23,42.23,0,0,0,5.78,4c4,2.18,4.55,1,7.71,3,2.55,1.6,2.21,2.41,5.78,5,2,1.41,1.9,1,4.81,3,3.25,2.17,3.57,2.79,5.78,4s2.61.91,4.82,2c2.45,1.19,3.91,2.48,6.74,5a59.25,59.25,0,0,1,6.75,6.93,60.36,60.36,0,0,1,4.81,6.94c4,6.56,3.19,7.35,5.78,9.91,1.85,1.83,3.27,2.41,4.82,5,1.16,1.9,1.83,4,1.92,4s-1.63-2.86-1-5.94c.28-1.27.7-1.39,1-3a24.15,24.15,0,0,0,0-4,21.46,21.46,0,0,1,0-4,8.53,8.53,0,0,1,1-3c.4-.69,1.18-2.06,1.92-2,1,.1,1.47,2.93,1.93,4.95.83,3.62,1.69,4.22,4.82,10.91,6.71,14.38,6,18.65,11.56,23.78,2,1.83,3.46,3.62,5.78,4,2.75.41,4.55-1.16,8.67-3,1.14-.5,4-1.32,9.63-3,11.47-3.34,17.21-5,21.19-5,6.21.08,11.32,1.84,11.56,1,.16-.56-2.11-1.18-4.82-4-2.13-2.2-1.86-3-3.85-5-2.59-2.57-3.68-1.86-5.78-4-1.91-1.91-1.3-2.79-3.85-7.93a42,42,0,0,0-4.82-7.93c-2.72-3.44-3.81-3.47-4.81-5.94s-.33-3.78-1-6.94c-.7-3.47-2.24-5.33-3.85-7.93-2.6-4.19-4.3-9.73-7.71-20.81,0-.11,0-.05-2.89-9.91q-2.88-9.89-2.89-9.91c-2.24-7.09-5.67-17.91-14.45-22.8-2.69-1.5-5.64-2-11.56-3a80,80,0,0,0-16.37-1c-9.64.27-19.26-.81-28.9-1-45.9-.88-52.5-3.76-80.92-3C920.59,279.75,908.6,281.14,898.82,278.29Z"/><path class="cls-5" d="M1017.43,272.41c1.36,1.79,1,2.45,2,2.93a1.68,1.68,0,0,0,.58.18c1-.46,2-.9,3.06-1.26a47.62,47.62,0,0,1,4.72-1.28c-1.44-3-5.07-4.26-8.35-4.05a18.8,18.8,0,0,0-4.49.94A26.39,26.39,0,0,1,1017.43,272.41Z"/><path class="cls-9" d="M1031.13,280.23a14.42,14.42,0,0,0-4.89-3.91,8.79,8.79,0,0,0-2.94-1c-1.67-.19-2.48.31-3.33.18-2.14,1-4.21,2.14-6.35,3.11C1006.17,282,998,283.29,989.8,284a74.93,74.93,0,0,1-13.56.22c-11-1-21.12-5.86-30.85-11.26a4.53,4.53,0,0,1-2.3,1.39c-.83.13-1-.19-2,0a5.52,5.52,0,0,0-2,1c-2.22,1.45-2.13,1.54-2.94,2a9.77,9.77,0,0,1-2.93,1,18,18,0,0,1-2.94,0c-1,0-2.35,0-3.91,0-2.41,0-2.91-.1-2.93,0-.09.41,9.08,3,19.56,4.89,6.22,1.14,11.73,1.76,22.5,2.93,12.4,1.36,18.6,2,22.5,2,8-.16,17.26-1.31,22.5-2,2.61-.32,4.11-.56,7.82-1,2.62-.29,5.2-1.11,7.83-1a11,11,0,0,0,4.89-1,1.72,1.72,0,0,0,1-1C1032.26,281.57,1031.79,281,1031.13,280.23Z"/><path class="cls-9" d="M1010,271.7c1.63-.61,3.26-1.29,4.91-1.83l-.41-.4c-1.27-1.23-1.9-1.85-2-2-1.1-2.26,1.13-4.68,0-5.87-.53-.57-1.17-.17-1.95-1-.42-.43-.37-.68-1-2-.73-1.53-1-1.51-1-1.95,0-1.14,1.59-1.34,2.94-2.94,1.69-2,2.18-5.29,1-6.85-.41-.53-.72-.47-1-1-.8-1.6,1.37-4.18,1.95-4.89,3-3.74,4.35-8.61,6.85-12.72,3.81-6.29,4.92-12.2,6.85-22.5.79-4.23,1.18-9.67,2-20.54.68-9.48.64-12.76,0-16.63a40.53,40.53,0,0,0-10.76-22.5,33.67,33.67,0,0,0-7.82-6.85,36.53,36.53,0,0,0-9.79-3.91,55.52,55.52,0,0,0-9.78-2,57.12,57.12,0,0,0-10.76,0,27.82,27.82,0,0,0-6.85,1c-3.06,1-5,2.58-7.82,4.89a64.33,64.33,0,0,0-7.83,7.83c-3.55,4-5.33,6-6.84,8.8a32.85,32.85,0,0,0-2.94,7.83,44,44,0,0,0-1,9.78c-.16,5.77,0,10.12,0,11.74V202c0,2.49-.13,4.63,0,7.82a77.66,77.66,0,0,0,1,8.81,20.31,20.31,0,0,0,1,3.91,16.75,16.75,0,0,0,2,3.91c1.07,1.58,1.62,1.77,2,2.94.29,1,0,1.13,0,2.93a9.64,9.64,0,0,0,1,4.89c.45.79.88,1.11,1,2s-.31,1.39,0,2,1.18.32,2,1c.61.53.73,1.66,1,3.92a5.06,5.06,0,0,1,0,1.95c-.25,1-.68,1-1,2-.19.59-.06.73,0,2.93a19.31,19.31,0,0,1,0,2c-.23,1.63-.94,1.77-1,2.93s.5,1.08,1,2.94c.21.86.62,2.48,0,2.93s-1.23-.39-2,0c-.42.23-.41.6-1,2a6.87,6.87,0,0,1-1,2l-.07.05A69.26,69.26,0,0,0,1010,271.7Z"/><path class="cls-14" d="M989.8,284c8.15-.72,16.37-2,23.82-5.38,2.14-1,4.21-2.12,6.35-3.11a1.68,1.68,0,0,1-.58-.18c-.94-.48-.6-1.14-2-2.93a26.39,26.39,0,0,0-2.52-2.54c-1.65.54-3.28,1.22-4.91,1.83a69.26,69.26,0,0,1-57.2-4.13c-.82.72-1.56.18-2.86.93-.4.22-.36.29-2,1.95-.94,1-1.41,1.47-2,2l-.63.56c9.73,5.4,19.86,10.25,30.85,11.26A74.93,74.93,0,0,0,989.8,284Z"/><path class="cls-14" d="M812,403.49a34.79,34.79,0,0,0-2.94,4.89c-.85,1.75-.85,2.86-2,4.89a14.38,14.38,0,0,1-2,2.94c-2.24,2.5-3.83,1.9-5.87,3.91-1.6,1.59-.57,1.92-2.93,5.87-1.79,3-3.06,3.92-2.94,5.87.09,1.29.67,1.29,1,2.93.38,2-.17,3.59-1,5.87-1.35,3.82-3.42,5.24-2.93,5.87s1.84-.59,4.89-1,3.5.47,6.85,0a19.34,19.34,0,0,0,3.91-1,11,11,0,0,0,3.91-1.95c1.45-1.27,1.17-2.05,2.94-3.92.8-.84,2.17-2.29,2.93-1.95,1.12.49-.25,4.23,1,4.89.66.36,2.07-.74,4.89-2.94,2.25-1.74,2.66-2.34,2.94-2.93.65-1.4.24-2.11,1-2.93s1.69-.9,3.92-1c2.78-.11,4.09,0,5.87,0,4.75,0,5.16-.73,6.84,0,1.87.8,1.49,1.75,3.92,2.93a9.35,9.35,0,0,0,4.89,1c1.23-.11,2.3-.2,2.93-1s.17-1.64,0-4.89V425a14.45,14.45,0,0,0,0-2.93c-.49-2.1-2.14-3-2.93-3.92-2.64-3,1.08-9.32,2-13.69C855.31,393.4,842.62,378,834.51,379c-4,.52-7.58,5.24-14.68,14.68l-2.93,3.91L814,401.53"/><path class="cls-14" d="M1139.18,404.4a29.49,29.49,0,0,1,3.3,4.28c1,1.53,1,2.51,2.21,4.28a12.81,12.81,0,0,0,2.2,2.57c2.53,2.19,4.32,1.67,6.62,3.43,1.81,1.39.64,1.68,3.3,5.13,2,2.62,3.45,3.44,3.31,5.14-.09,1.13-.75,1.13-1.1,2.57-.43,1.74.19,3.14,1.1,5.14,1.52,3.34,3.86,4.58,3.31,5.14s-2.07-.52-5.52-.86-3.94.41-7.71,0a27.26,27.26,0,0,1-4.41-.85,14,14,0,0,1-4.41-1.72c-1.63-1.11-1.32-1.79-3.31-3.42-.9-.75-2.44-2-3.3-1.72-1.26.43.28,3.71-1.11,4.29-.74.31-2.33-.65-5.51-2.57-2.53-1.53-3-2.06-3.3-2.57-.75-1.23-.28-1.85-1.11-2.57s-1.9-.78-4.4-.86c-3.13-.09-4.61,0-6.62,0-5.35,0-5.81-.64-7.71,0-2.1.71-1.68,1.54-4.41,2.57a13.34,13.34,0,0,1-5.51.86c-1.39-.1-2.6-.18-3.31-.86s-.19-1.43,0-4.28v-4.28a9.62,9.62,0,0,1,0-2.57c.55-1.84,2.42-2.65,3.31-3.43,3-2.6-1.23-8.16-2.21-12-2.49-9.69,11.8-23.17,20.94-22.26,4.55.45,8.55,4.58,16.54,12.85,0,0,.58.59,3.3,3.42l3.31,3.43"/><path class="cls-7" d="M955.81,183.39a9.24,9.24,0,0,0-1,3.91,88.56,88.56,0,0,0,0,10.76c.62,8.71.44,8.95,1,13.7a59.61,59.61,0,0,0,1,6.85c.87,3.69,1.84,5.35,2.93,9.78.45,1.83,0,3.22,1,4.89.76,1.32,1.58,1.75,2.93,2.93,2.23,1.95,2.07,2.59,4.89,5.87a75.82,75.82,0,0,0,5.87,5.87c2.86,2.69,4.32,4.06,5.87,4.89a17.65,17.65,0,0,0,5.87,2,19.31,19.31,0,0,0,4.89,0,17.8,17.8,0,0,0,4.89-1,17,17,0,0,0,4.89-2.93,22.83,22.83,0,0,0,3.92-3.92c.88-1.13,1-1.49,1.95-2.93a57.08,57.08,0,0,1,3.92-4.89,46.86,46.86,0,0,0,4.89-6.85,27.94,27.94,0,0,0,2.93-6.85c.26-1,.5-2.6,1-5.87.55-3.77.53-4.31,1-6.84s.54-2.39,1-4.89c.58-3.32.41-3.48,1-6.85.63-3.81.94-4.12,1-5.87a17.21,17.21,0,0,0-1-5.87,15.61,15.61,0,0,0-2.94-5.87,14.9,14.9,0,0,0-5.87-3.91,22.47,22.47,0,0,0-8.8-2,27.77,27.77,0,0,0-6.85,1c-3.1.68-4.65,1-5.87,2-1,.76-1.55,1.56-2.93,1.95a5.54,5.54,0,0,1-2.94,0c-1.9-.48-2.62-1.78-3.91-2.93-2.18-1.94-4.67-2.38-7.83-2.94a19.86,19.86,0,0,0-7.82,0,19.38,19.38,0,0,0-6.85,2.94A10.61,10.61,0,0,0,955.81,183.39Z"/><path class="cls-14" d="M983.2,189.26c0,.15-.18.15-1,1s-.7.82-1,1a2.7,2.7,0,0,1-2,0,8.56,8.56,0,0,1-1.95-1c-.82-.45-1.06-.53-2-1-3.68-1.85-5.16-3.37-7.82-3.91a13.61,13.61,0,0,0-3.92,0,23.71,23.71,0,0,0-4.89,1,5.33,5.33,0,0,0-2,1c-.6.5-.92,1-1,1a5.65,5.65,0,0,1,1-1.95c1.54-2.17,4.34-2.68,5.86-2.94,1.27-.21,4-.52,9.79,1C978.69,186,983.41,188.31,983.2,189.26Z"/><path class="cls-14" d="M927.44,199"/><path class="cls-14" d="M994,189.26a1.68,1.68,0,0,0,0,1,2.07,2.07,0,0,0,1.95,1,3,3,0,0,0,2-1,45.27,45.27,0,0,1,6.85-4.89,10.56,10.56,0,0,1,1.95-1c2.56-.85,5-.15,8.81,1,1.65.49,2.92,1,2.93,1a22.87,22.87,0,0,1-6.84-2.94,6,6,0,0,0-2-1,6.14,6.14,0,0,0-2.94,0c-5.5,1.2-10.25,3.19-11.73,4.89A4.93,4.93,0,0,0,994,189.26Z"/><path class="cls-12" d="M975.37,232.3a16.72,16.72,0,0,1,1-2c.23-.39,3.09-5.14,6.85-5.86a4.57,4.57,0,0,1,1.95,0,4.19,4.19,0,0,1,2,1c.62.56.57.88,1,1,.63.16,1.34-.45,1.95-1s.59-.72,1-1a3.55,3.55,0,0,1,2.94,0,7.1,7.1,0,0,1,2.93,2c2.15,2.21,3.88,4,3.91,5.87.07,3.87-7.08,8.38-13.69,7.83C980,239.53,976,233.23,975.37,232.3Z"/><path d="M978,232s2,.45,2.93,0c.6-.27.29-.64,1-1.08a4.69,4.69,0,0,1,2-.54c1.69-.14,2.16.56,3.91.54,1.36,0,1.23-.44,2.94-.54a8.83,8.83,0,0,1,3.91.54,9,9,0,0,0,1,.54c1.05.44,2,.42,2,.54s-2.23.44-4.89.54c-2.13.08-2.22,0-4.89,0a56.56,56.56,0,0,1-6.85,0A12.42,12.42,0,0,1,978,232Z"/><path class="cls-10" d="M981.65,287.44a4.3,4.3,0,0,1-.41-1.83,4.4,4.4,0,1,1,8,2.47l3.41-.49a7.18,7.18,0,0,0,.28-2,7.34,7.34,0,0,0-14.67,0,7.12,7.12,0,0,0,.26,1.92C979.59,287.51,980.62,287.44,981.65,287.44Z"/><path class="cls-10" d="M989.29,288.08a4.39,4.39,0,0,1-7.64-.64c-1,0-2.06.07-3.08.09a7.33,7.33,0,0,0,14.13.06Z"/><path class="cls-15" d="M904.25,608.67A337.78,337.78,0,0,1,871,599.89c-8-2.55-16-5.43-23.15-9.76a43.42,43.42,0,0,1-8.44-6c-3.08-3.09-5.53-6.55-9-9.34a5.32,5.32,0,0,0-2.64-1.38,2,2,0,0,0-2.24,1.52,2.94,2.94,0,0,0,.89,1.95c8.58,10.54,17.7,21.49,30.29,26.61,9,3.66,18.9,4,28.35,6.1,7.46,1.67,14.93,4.47,22.52,3.58,1-.7.77-2.31-.08-3.15A6.27,6.27,0,0,0,904.25,608.67Z"/><path class="cls-4" d="M1030.47,594.32c-4.65-.13-9.3-.59-13.94-.31a17.43,17.43,0,0,0-7.06,1.64,7.87,7.87,0,0,0-4.31,5.55c4,2.55,9.13,1.5,13.78.71a90.61,90.61,0,0,1,19.81-1.13c3.73.2,7.5.63,11.2.09a33.43,33.43,0,0,0,9.45-3.12c3.88-1.83,8.34-3.94,11.51-6.85-1.64-1.64-6.85.3-9,.66-3.5.58-7,1.13-10.54,1.57A134.73,134.73,0,0,1,1030.47,594.32Z"/><path class="cls-4" d="M1097.44,587.71a40.31,40.31,0,0,0,22.64-14.82c1.14-1.51,2.13-3.77.81-5.13a3.39,3.39,0,0,0-2.28-.85c-3.91-.21-7.36,2.32-10.44,4.72-7.32,5.71-15.74,11-22.32,17.55C1087.11,590.91,1095.29,588.22,1097.44,587.71Z"/><path class="cls-4" d="M1131.76,551c.38.26.89,0,1.24-.29a4.34,4.34,0,0,0,1.38-4.31,3.8,3.8,0,0,0-3.5-2.75,3.36,3.36,0,0,0-3.29,2.85,3.94,3.94,0,0,0,1.3,3.2,8.68,8.68,0,0,0,3.07,1.79l.29-.84"/><path class="cls-4" d="M1131.74,571.94a10.16,10.16,0,0,0,3.44-4.26c.61-1.75.16-4-1.44-4.91a3.9,3.9,0,0,0-4.66,1,6.9,6.9,0,0,0-1.53,4.8,12.81,12.81,0,0,0,1,4.94A7.51,7.51,0,0,0,1131.74,571.94Z"/><path class="cls-4" d="M1023.62,614.09a15.93,15.93,0,0,0,4.68-.17,5,5,0,0,0,3.59-2.76,1.91,1.91,0,0,0,.16-.94c-.12-1.1-1.48-1.54-2.58-1.66-5-.57-10,.28-15,1.18-3.67.67-9.45.49-12.64,2.08,1.67,2,4.91,2,7.3,2C1014,613.88,1018.8,613.8,1023.62,614.09Z"/><path class="cls-4" d="M1023.54,551.71a1.24,1.24,0,0,0-.32.67c-.06.7.78,1.1,1.48,1.23,3,.56,6.09,0,9.14.08,3.9,0,7.76,1,11.65.84,4.15-.19,8.12-1.64,12-3.08a11.15,11.15,0,0,0,2.78-1.34c.22-.16.46-.39.41-.67s-.55-.48-.93-.48c-7.71-.16-15.43.28-23.13.72-2.59.15-5.19.38-7.79.39C1027,550.09,1024.8,550.19,1023.54,551.71Z"/><path class="cls-4" d="M840.85,553a6.58,6.58,0,0,0-5.2-2.62,3,3,0,0,0-1.19.21,2.4,2.4,0,0,0-1.29,1.95,5,5,0,0,0,.43,2.38,22,22,0,0,0,4.3,6.32,6,6,0,0,0,1.94,1.62C844.61,564.88,842,554.58,840.85,553Z"/><path class="cls-4" d="M822.36,547.75a2.39,2.39,0,0,0-.69,1.32,7.41,7.41,0,0,0,1.06,4.79,4.74,4.74,0,0,0,1.29,1.76,1.73,1.73,0,0,0,2,.1,1.84,1.84,0,0,0,.49-1.85,10,10,0,0,0-.81-1.84C825.06,550.57,825.34,545,822.36,547.75Z"/><path class="cls-4" d="M768,447.86a3.56,3.56,0,0,0-1,4.18,4.33,4.33,0,0,0,3.67,2.43,2.23,2.23,0,0,0,1.48-.35,2.7,2.7,0,0,0,.71-2.47C772.62,449.22,771.07,445.48,768,447.86Z"/><path class="cls-4" d="M758.48,393.3a3.27,3.27,0,0,0-1.67.21,2.3,2.3,0,0,0-1.08,2.53,3.78,3.78,0,0,0,1.77,2.29,11.11,11.11,0,0,0,2.75,1.09,3.57,3.57,0,0,0,1.29.22c2.1-.15,2.06-2.64,1.27-4A5.11,5.11,0,0,0,758.48,393.3Z"/><path class="cls-4" d="M759.13,406.89c-.45-.14-.9-.27-1.35-.38a2.66,2.66,0,0,0-2.5.25,1.8,1.8,0,0,0-.34,1.89,4,4,0,0,0,1.22,1.58,3.61,3.61,0,0,0,2,1,1.56,1.56,0,0,0,1.72-1.08c.26-1.24-1.42-2.1-1.54-3.36"/><path class="cls-4" d="M846.37,319.47a4.17,4.17,0,0,0-2.64,2.65,9.69,9.69,0,0,0-.42,3.83,29.77,29.77,0,0,0,1.17,7.08c.51,1.76,1.39,3.67,3.13,4.23a.89.89,0,0,0,.58,0,1,1,0,0,0,.42-.41c2-3.07,1.6-7.05,1.15-10.68C849.56,324.64,848.93,318.77,846.37,319.47Z"/><path class="cls-4" d="M837.74,340.17a4.7,4.7,0,0,0-.46,2.38,15,15,0,0,0,.36,3.05c.24,1,.83,2.2,1.87,2.21a1.75,1.75,0,0,0,1.54-1.21,5.1,5.1,0,0,0,.19-2.06C841.13,342.18,841.22,336.68,837.74,340.17Z"/><path class="cls-4" d="M816.56,335.2a1.72,1.72,0,0,0,.67,1.34,1.18,1.18,0,0,0,1.5-.59,3.26,3.26,0,0,0,.24-1.75c-.06-1.25-.41-9.19-2.16-8.63C814.81,326.21,816.32,333.76,816.56,335.2Z"/><path class="cls-4" d="M831.11,344a12.71,12.71,0,0,0,.55,4.33,3.26,3.26,0,0,0,1,1.66,1.35,1.35,0,0,0,1.76,0,1.94,1.94,0,0,0,.43-1c.39-1.89.79-5.51-.39-7.22C832.9,339.66,831.2,342.19,831.11,344Z"/><path class="cls-4" d="M817.14,344.78a2.56,2.56,0,0,0-1.85,2.76,6,6,0,0,0,1.53,3.25c1.21-1.67.68-4,0-5.94,0-.08-.08-.17-.16-.17s0,.18,0,.13"/><path class="cls-4" d="M809.22,338a14.92,14.92,0,0,0,0,5.29,3.68,3.68,0,0,0,.65,1.67,1.48,1.48,0,0,0,1.59.54,2.12,2.12,0,0,0,1-1.85,12.3,12.3,0,0,0-.69-6C811,335.65,809.61,335.72,809.22,338Z"/><path class="cls-4" d="M920.56,268.07a3.88,3.88,0,0,0-1.51,2.64,18.39,18.39,0,0,0,.39,6.8,2.49,2.49,0,0,0,.73,1.59,1.68,1.68,0,0,0,2.15-.38,4.32,4.32,0,0,0,.85-2.2C923.44,275,924.67,265.51,920.56,268.07Z"/><path class="cls-16" d="M240.77,510.56a7.37,7.37,0,0,0-1,3c-.08,1,.14,1.09,0,2-.21,1.38-.77,1.67-1,3a14.89,14.89,0,0,0,0,2,8.36,8.36,0,0,1-1,4c-.11,0,0-1,0-1s0,.92,0,4c0,1.92,0,1.87,0,2-.3,2.17-1.49,3.06-1,4,.29.59.78.41,1,1,.45,1.19-1,3-1,3a12.38,12.38,0,0,0,0,4c.37,1,.82,1,1,2a9.72,9.72,0,0,1,0,2c0,1.56.06,1.54,0,2-.26,2.26-2.4,3.18-2,4,.3.68,1.69.28,2,1,.41.9-1.42,2.12-1,3,.31.68,1.43.24,2,1,.75,1-.66,2.21,0,4,.35,1,.87,1,1,2s-.33,1.45,0,2,1.25.3,2,1,.28,1.24,1,3c.53,1.3.82,1.16,1,2,.35,1.57-.51,2.54,0,3,.36.35.89,0,2,0a4.86,4.86,0,0,1,3,1c1.42,1.48-.17,4.34,1,5,.25.15.35,0,2,0,1.14,0,1.92,0,2,0,32.52,0,65.65-29.29,65.65-29.29,13.58-12.25,27.54-24.84,32.32-46.46,4.84-21.86.46-53.72-18.18-63.63-33.24-17.67-86.41,48-88.88,56.56C244.53,498.4,242.24,507.86,240.77,510.56Z"/><path class="cls-7" d="M232.69,441.88a31.3,31.3,0,0,1,1,7.07c0,1.56,0,3,0,3-.07,3.11-.29,3.61,0,5a15.77,15.77,0,0,0,1,3,6.39,6.39,0,0,0,1,2c.51.5,1,.64,1,1s-.62.61-1,1c-1,1-.26,3.23,0,4,1.08,3.35,1.85,6.79,3,10.1,1.67,4.69,1.86,5.4,2,6.06a39.69,39.69,0,0,1,1,7.07,64.09,64.09,0,0,1,0,7.07c-.18,5-.55,6.89,0,7.07s1.55-1.86,3-4c1-1.5,5.56-8.16,12.12-10.1,3.9-1.15,4.6.52,10.1-1,3.27-.91,3.62-1.66,6.06-2,3.1-.46,5.48.33,10.1,2,7.3,2.67,10.95,4,13.13,5.05,9.16,4.37,10,6.49,13.13,6.06,4.53-.62,7.26-5.68,10.1-11.11,3.38-6.46,5.27-13.17,7.07-26.26,1.53-11.1,2.29-16.64,2-20.2-1.3-17.17-13.53-33.71-29.29-42.42-17.69-9.78-34.77-6.91-39.39-6.06-7.36,1.35-24.94,4.58-29.29,16.16C227.44,420.17,231,434.8,232.69,441.88Z"/><path class="cls-17" d="M250.87,444.91c.36,0,.59.37,1,1a6.22,6.22,0,0,1,1,3c.07,1,.21,2.83-1,4a4.09,4.09,0,0,1-2,1,9.68,9.68,0,0,1-3,0h-3c-3.21,0-3.29-.24-4,0a7.76,7.76,0,0,0-4,3c-.24.4-.55,1-1,1s-.84-.59-1-1a3.82,3.82,0,0,1,0-2c.2-1.95-.41-2.34,0-3s1.32-.75,3-1c2.92-.44,1.36-.46,5.05-1,4.91-.74,5.15-.33,6.06-1C249.78,447.5,249.86,444.83,250.87,444.91Z"/><path class="cls-17" d="M260,445.92a5.58,5.58,0,0,0,1,2,6.25,6.25,0,0,0,3,2,7.78,7.78,0,0,0,4,0,40.48,40.48,0,0,0,7.07-2c4.12-1.58,3.87-1.81,7.07-3,5.29-2,7.41-2,8.08-2a16.37,16.37,0,0,1,5.05,1,10.59,10.59,0,0,1,4,2,11.16,11.16,0,0,1,1,1,25.21,25.21,0,0,0-4-4,12.92,12.92,0,0,0-3-2,12.13,12.13,0,0,0-4-1,18.35,18.35,0,0,0-7.07,1c-3,.88-4.47,1.61-11.11,4a21.65,21.65,0,0,1-4,1c-1.87.29-2.89.43-4,0-1.83-.69-2.54-2.29-3-2S259.9,445.67,260,445.92Z"/><path class="cls-7" d="M381.16,496.42a41.28,41.28,0,0,0-3-5.05c-2.94-4.45-4.11-5-5.05-5.05s-1.85.8-3,2c-2.31,2.4-4.75,4.68-7.07,7.07-3.34,3.45-4.25,2.74-8.08,6.06-2.78,2.42-2.66,3.11-8.08,10.1-6.57,8.48-7.63,8.6-10.1,13.13-.56,1-1.72,3.73-4,9.09-2.79,6.47-4.18,9.71-4,10.1,3.28,8.88,95.83-17.43,94.95-21.21-.2-.86-5.07.27-11.11-3-3.07-1.67-3.51-4.51-7.07-6.06-2.45-1.06-3.55-.57-6.06-1C390.54,511,383.62,501.38,381.16,496.42Z"/><path class="cls-18" d="M782.14,902.45c5.4-.15,10.67.23,21.22,1,12.86.95,19.3,1.42,26.26,3,11.84,2.74,11.35,4.87,23.23,7.07.24.05.08,0,19.19,2,5.74.6,8.42.89,12.12,0a21.38,21.38,0,0,0,11.11-6.06c3.74-4.12,4.2-8.69,5.05-17.17.9-9,1.46-14.62-2-18.18-1.92-2-4.39-2.62-6.06-6.06-1.22-2.49-.65-3.64-2-5.05-1.77-1.8-3.94-1.19-8.08-2a31.69,31.69,0,0,1-8.08-3c-5.19-2.84-4.86-5.09-10.1-8.08a29.57,29.57,0,0,0-8.08-3c-4.45-1.1-7.59-1-12.12-1a168.11,168.11,0,0,1-21.21-1c-6.28-.8-9.42-1.2-13.13-3-3-1.45-3.3-2.28-11.11-8.08a123.09,123.09,0,0,0-10.1-7.07c-4.34-2.6-7.87-4.72-13.14-6.06a39.21,39.21,0,0,0-13.13-1c-4.58.42-6.87.63-9.09,2-5.22,3.28-4.55,8.63-10.1,11.11a19.18,19.18,0,0,1-5,1,50.24,50.24,0,0,1-13.13,0,52.94,52.94,0,0,1-16.16-5c-20.11-9.84-26-21.45-31.31-20.2-14.46,3.4-18.53,100.7,14.14,113.12,10.74,4.08,25.68-1,55.55-11.11C757,907.08,767.11,902.88,782.14,902.45Z"/><path class="cls-6" d="M300.36,773.17c-2.95,4.68-3.9,8.93-5.05,14.14s-.48,5.64-1,19.19c-.44,11.25-1,13.88-1,21.21s0,10.92,0,11.11c.08,1,0,2,0,4-.09,3.79-.39,4.62-1,5s-1.38.26-3,0c-3.35-.53-3.66-1.41-5.05-1-.95.27-1.53.9-3,1-.22,0-.12,0-1,0-2.39,0-2.45.15-3,0-1-.27-.94-.74-2-1a4.81,4.81,0,0,0-2,0,15.87,15.87,0,0,0-4,1c-2.66,1.05-2.23,1.6-4,2a6.81,6.81,0,0,0-3,1c-.59.45-.47.59-1,1-1.14.88-2.24.66-4,1a19.75,19.75,0,0,0-3,1c-3.4,1-5.51-1-8.08-1-5.29.06-11.93,9-10.1,16.16a11.21,11.21,0,0,0,4,6.06c.87.62,2.27,1.09,5.05,2,2.56.86,4.74,1.42,7.07,2,3.39.87,3.1.69,4,1,3.17,1.06,4.55,2.44,7.07,4s4.68,2.39,9.09,4a60.94,60.94,0,0,0,10.1,3,53.51,53.51,0,0,0,13.13,1c4.07-.23,4.29-.77,9.09-1,5.91-.3,6.12.48,9.09,0,6.62-1.07,11-5.83,12.12-7.07,2.69-2.93,2-3.72,6.06-11.11A118.37,118.37,0,0,1,340.76,859c3.8-5.11,4.4-5,8.08-10.1a93.79,93.79,0,0,0,7.07-11.11,82.79,82.79,0,0,0,7.07-20.2c4.14-20.79-3.85-66.6-32.32-76.76-3.56-1.28-11.17-4.46-13.13-2-.93,1.16.09,2.76-1,6.06-.32,1-.58,1.34-3,5.05-3.7,5.6-4.33,6.62-5.05,8.08-1.1,2.23-1.05,2.73-2,5.05C304.36,768,302.27,770.15,300.36,773.17Z"/><path class="cls-12" d="M372.07,886.29A135,135,0,0,0,360,895.38a129.27,129.27,0,0,0-14.14,14.14c-4.83,5.63-11.49,13.49-17.17,25.25-3.7,7.68-8.28,17-9.09,30.3a66.36,66.36,0,0,0,4,27.27c2.57,6.77,6.66,17.52,17.17,24.24,4.75,3,9.18,4.21,16.16,6.06a102.23,102.23,0,0,0,20.2,3c8.93.66,13.39,1,18.19,0,7.09-1.46,7.73-3.63,19.19-8.08a125.77,125.77,0,0,1,16.16-5.05c11-2.53,19.38-2.08,25.25-2,11.35.12,21.37-1.6,41.41-5a333.86,333.86,0,0,0,54.54-14.14c15.21-5.46,20.6-8.81,42.42-16.16,12.42-4.18,18.64-6.27,23.23-7.07,16.46-2.84,22.5.62,50.5,0,7.49-.16,4.75-.36,20.2-1,9.53-.4,24.36-1,42.42-1H772c3.93.63,10,1.9,16.17-1,4.25-2,4.8-4.29,9.09-5.05,4.61-.81,7.5,1.2,11.11-1,1.21-.74.89-1,3-3,4.88-4.69,7.27-4.16,9.09-7.07a10.17,10.17,0,0,0,0-10.1c-1.51-2.43-3.59-2.65-8.08-5-3-1.58-5.35-3.41-10.1-7.07-7.15-5.49-7.08-7.1-13.13-12.12a65.59,65.59,0,0,0-16.17-10.1c-5.41-2.27-9-2.65-19.19-4-18.12-2.47-27.18-3.71-32.32-5a91.45,91.45,0,0,1-25.25-11.11c-23.63-14.28-25.59-30.89-37.37-40.4-36.43-29.41-109.62,55.27-178.77,29.29-25.22-9.47-47.9-32.9-63.63-23.23-7.95,4.88-7.06,13.86-21.21,23.23C388.27,877.81,384.23,878.13,372.07,886.29Z"/><path class="cls-6" d="M676.09,869.12c1.63,1.38,2.53,1.78,5,4s3,3,4,3c2.31,0,4.15-4,5.05-6.06a93,93,0,0,0,6.06-22.22c2.21-12.58,3.15-10.35,4-18.18a67.89,67.89,0,0,0-1-24.24c-2.21-9.39-6-15.62-10.1-22.22A93.76,93.76,0,0,0,671,761.05a94.85,94.85,0,0,0-28.28-17.17c-7.31-3-14.79-6.18-25.25-7.07s-21.24-1.81-24.24,3c-5.84,9.43,27.85,25.16,47.47,68.68,0,0,8.32,18.46,27.27,50.5A40.08,40.08,0,0,0,676.09,869.12Z"/><path class="cls-7" d="M464,885.28c4,1.29,5.8-2.17,13.13-3,5-.59,7.37.65,14.14,2,9.52,1.93,10.31.59,22.22,2,4,.48,5.16.78,25.25,5.05,14.66,3.12,22,4.68,24.24,5,15.19,2.55,22.79,3.83,30.3,3,6.27-.66,19.42-3,24.24-2a9.48,9.48,0,0,0,4,0,9.69,9.69,0,0,0,4-2c4.48-3.62,8.08-12.12,8.08-12.12,4.42-8.84,12.71-12.86,17.17-15.15,6-3.07,10.64-3.63,13.13-3s4,1,4,1c3.41.91,3.58,1.09,4,1,3-.54,3.7-9.6,4-15.15.75-12.25,1.12-18.37,0-24.24-1.4-7.35-3.71-12.15-8.08-21.21-4.18-8.68-7-14.62-12.12-21.21-9.35-12.14-20-18.46-28.28-23.23a128.45,128.45,0,0,0-29.29-12.12c-9.35-2.5-43.34-11.56-79.79,5-20.39,9.28-45.38,28.87-49.49,46.46A83,83,0,0,1,460,825.69a54.65,54.65,0,0,1-6.06,9.09c-13.82,15.93-38.7,13.61-38.38,18.18.21,3.11,9.2,5.54,11.11,6.06a32.77,32.77,0,0,0,6.06,1c3,.17,3.48-.31,5.05,0,3.06.62,4.31,3.07,7.07,6.06,3.85,4.18,4.78,3,9.09,7.07C460.88,879.72,459.68,883.91,464,885.28Z"/><path class="cls-7" d="M632.66,697.42"/><path class="cls-12" d="M344.3,530.26a13.26,13.26,0,0,1,8.08-2c6.67.15,12.61-.74,21.21-2,11.3-1.69,13.21-4.66,22.22-6.06,3.33-.52,6.48-.65,9.09-3a6.1,6.1,0,0,1,3-2c2.3-.43,4.39,1.47,5.05,2,5.95,4.91,17.89,1,33.33,4a35.79,35.79,0,0,1,9.09,3,51.3,51.3,0,0,1,5.05,3c4.88,3.12,5.8,4.14,9.09,6.06a58.34,58.34,0,0,0,6.06,3c9.42,4.31,17.8,14.16,21.21,18.18,5.24,6.16,9.14,10.74,12.12,18.18,3.25,8.08,4.72,17.8,4,20.2a3.39,3.39,0,0,0,0,2,4,4,0,0,0,2,2c2.94,1.58,3,12.5,3,14.14.41,15.6,21.67,32.5,25.25,35.35a12.92,12.92,0,0,1,4,5.05,14,14,0,0,1,1,5c.53,5.68,3.43,6.8,5,12.12,1.84,6-1.4,6,0,14.14.94,5.37,2.67,7.13,4,13.13a21.41,21.41,0,0,0,2,6.06,18.15,18.15,0,0,1,1,2c.25.58,1.55,3.63,1,4s-3-3.55-7.07-6.06c-9.2-5.62-22.76-.75-25.25,1a6.45,6.45,0,0,1-2,1,7.47,7.47,0,0,1-4,0c-5.91-1.5-12.17-1-18.18-2-7-1.19-12.53-.1-23.23,2-14.74,2.92-29.33,10.58-49.49,24.24-24.85,16.85-29.37,23.31-53.53,40.4-18.65,13.2-30.25,19.47-32.32,22.22-.24.33-1.44,2.06-3,2a3.07,3.07,0,0,1-2-1c-3.18-3.12-1.78-19-5-30.3-.65-2.24-6.54-8.79-6.06-12.12a10.24,10.24,0,0,0,0-3c-.23-2.13-.8-2.81-1-3a3.84,3.84,0,0,0-2-1c-2.53-.54-3.75.93-6.06,1-1.63.06-2.79-.63-5.05-2a31.66,31.66,0,0,1-7.07-6.06c-9.5-11.86,23.28-182.39,31.31-200A12.06,12.06,0,0,1,344.3,530.26Z"/><path class="cls-9" d="M342.1,493.39a72.83,72.83,0,0,0-1-9.09,92.79,92.79,0,0,0-4-15.15,168.71,168.71,0,0,0-9-22.22c-4.06-8.24-7.48-15.17-14-23.23a89,89,0,0,0-20-18.18c-5.58-3.66-9.43-5.19-13-6.06a39.57,39.57,0,0,0-11-1,48,48,0,0,0-11,2c-10.62,2.87-15.93,4.3-20,8.08a23,23,0,0,0-7,11.11c-.15.6-.43,3.43-1,9.09a19.63,19.63,0,0,0,0,5.05,22.86,22.86,0,0,0,1,4,34.42,34.42,0,0,1-4-11.11c-1.35-7.4.28-13.13,2-19.19,2.37-8.32,6.5-16.17,10-20.2,1.71-2,3.25-4.11,5-6.06s2.53-2.68,3-4c.82-2.34-.34-3.62-1-7.07-.86-4.56.73-4.4,1-14.14.08-2.81,0-4.12,1-5,1.7-1.57,4.9-.62,7,0,3.38,1,5.78,2.73,9,5,2.27,1.64,4,3,4,3,2.48,2,2.86,2.55,4,3,1.84.78,3.51.48,6,0,4.73-.91,7.09-1.37,10-2,3.46-.78,6-1.2,11-2,1.72-.29,4.15-.53,9-1a13.41,13.41,0,0,1,4,0c2.24.38,2.86,1.16,4,1,2.32-.3,3.59-4,4-5.05,2-5.1,6.12-3.38,19-11.11,4-2.39,8.31-4.24,12-7.07,1.64-1.26,3-2.5,4-2,1.46.72.53,4.7,0,10.1-.11,1.12-.07,6.8,0,18.18.06,8.85.18,12-1,15.15-.78,2.09-1.18,3.41-2,6.06-.92,3-1,3.54-1,4,0,3.47,3,6.09,4,7.07,2.59,2.53,3.72,6,6,28.28.52,5.06.3,3.36,2,21.21,1.41,14.9,1.81,18.73,4,24.24,1.73,4.37,3,5.74,4,10.1a35.27,35.27,0,0,1,0,16.16c-1.55,6.17-8.71,12.95-23,26.26-3.75,3.5-6.43,5.87-8,5.05-1.17-.61-1.17-2.7,0-15.15C342,500.48,342.29,497.92,342.1,493.39Z"/><path class="cls-7" d="M333.19,537.33a38.24,38.24,0,0,0-7.07,1c-4.83,1.15-6.94,2.65-11.11,4-4.92,1.64-7.07,1.26-11.11,2-6.47,1.22-10.72,4-18.18,9.09-4.69,3.17-15.85,10.76-24.24,21.21s-12.86,31.78-21.21,73.73c-3.54,17.76-3.52,19.42-6.06,30.3-4.08,17.48-6.19,22-7.07,32.32-.51,5.88-1,10.32-2,19.19-.12,1.06-.42,3.66-1,7.07-.86,5-1.49,8.48-3,12.12a32.09,32.09,0,0,1-5.05,8.08c-6.36,7.85-12.1,16.18-18.18,24.24-13.39,17.73-17.76,37.08-19.2,43.43-1.53,6.78-.89,6.88-4,24.24-2.33,12.87-3.78,19.8-5.05,25.26,0,0-3.92,16.94-9.09,27.27-.08.17-.46.89-1,2-.88,1.81-.83,1.85-1,2-1.12,1.07-3.37-.41-7.07-1a15,15,0,0,0-6.06,0c-3.75.91-3.65,3.08-7.07,4-2.5.7-4.7.13-9.09-1-4.79-1.25-4-1.92-6.06-2-3.82-.2-5.9,2.12-14.14,6.06-.34.16-1.06.5-2,1-2.71,1.43-4.25,2.54-5,3-4.73,2.89-9.82-.2-11.11,2-1.08,1.86,2.31,4.39,1,7.07-.65,1.35-2.2,2.11-4,3-2.42,1.2-3.65,1.06-4,2-.49,1.2.8,3,2,4,2.85,2.37,6.94,1.72,11.11,1,11.77-2,13-2.65,16.16-3,9.91-1.2,12.18,3.11,30.3,5,5.82.62,8.51.49,11.11,0,4.1-.78,5.41-1.95,9.09-2,4.12-.08,5.11,1.33,9.09,2,6.46,1.11,11.92-1.22,16.17-3a42.24,42.24,0,0,0,12.12-8.08c4.33-3.9,6.83-7.43,10.1-12.12a140,140,0,0,0,10.1-17.17c5-9.86,5-12,9.09-17.17,2.37-3,3.28-3.44,7.07-8.08a132.59,132.59,0,0,0,8.08-11.11c10.58-16,11.53-14.42,17.17-24.25,9.72-16.95,9.23-25.61,9.09-27.27a12.41,12.41,0,0,1,0-3c.71-5.5,4.91-7.33,9.09-13.13a39.22,39.22,0,0,0,5.05-10.1c1.83-4.92,1.72-6.93,4-13.13a63.46,63.46,0,0,1,3-7.07,42.52,42.52,0,0,1,11.11-13.13c9.45-8,15.93-16.66,20.2-22.22A162,162,0,0,0,338.24,705l2-4c.28-.89.4-1.58,1-2,1.05-.75,2.68-.12,3,0,3.52,1.22,12.72-2.51,19.19-6.06,7.51-4.13,12.14-8.47,18.18-14.14,7.31-6.86,11-10.29,13.13-15.15s.65-5,4-17.17c1.18-4.24,2.06-6.78,4-14.14,1.59-5.93,2.18-8.61,2-12.12a28.51,28.51,0,0,0-2-9.09,151.62,151.62,0,0,0-15.15-30.3c-6.46-9.34-12.3-15.26-18.18-21.21-14.36-14.55-22.12-18-25.25-19.19A53.16,53.16,0,0,0,333.19,537.33Z"/><path class="cls-12" d="M464,832.76c1.27-.63.72-3.37,1-8.08a83,83,0,0,1,2-11.11c2.29-10.05,9.72-19,18.18-29.29,4.35-5.28,7.27-8.81,12.12-13.13A97.68,97.68,0,0,1,516.51,758c6.06-3.2,12-6.32,20.2-8.08,6.68-1.43,14.22-1,29.29,0,6.55.41,12.79.82,21.21,2a209,209,0,0,1,21.21,4c1.34.36,2.7.66,4,1,3.57.92,4.89,1.33,5,1s-1.34-1.11-3-3a18.87,18.87,0,0,1-3-5c-.21-.46-.81-2.33-2-6.06-.82-2.54-1.23-3.84-1-5a12.23,12.23,0,0,1,1-3c.69-1.44,1.16-1.73,1-2-.38-.74-3.71.58-10.1,2-.17,0-2.69.6-6.06,1a17.6,17.6,0,0,1-5,0,7.57,7.57,0,0,1-3-1,7.3,7.3,0,0,1-2-2c-.71-1-.49-1.81-1-2-.74-.3-1.84.83-2,1-3.42,3.37-17.17,4-17.17,4-10.78.5-21.54,1.47-32.32,2-30,1.51-52.12,34.73-62.62,50.5-5.26,7.88-18.84,28.27-12.12,38.38C458.47,830,462.28,833.61,464,832.76Z"/><path class="cls-7" d="M349.85,816.6a123.29,123.29,0,0,0,7.07,14.14A118.6,118.6,0,0,0,367,844.88c11.73,14.33,22.4,21.9,26.27,22.22a11.5,11.5,0,0,1,4,1,13.62,13.62,0,0,1,3,2c3,2,11.76-7.66,20.2-14.14,0,0,8-6.17,33.33-18.18.68-.32,1.34-.67,2-1,3.88-1.94,4.58-2.26,5-3,.9-1.5.19-3.44,0-4-2-6.05,2.27-18.89,4-24.24,4-12.2,10.48-20.42,15.15-26.26A99.07,99.07,0,0,1,506.41,756c7.44-4.38,12.84-6.26,21.21-9.09,6.31-2.14,12.21-3.61,16.16-2a12.76,12.76,0,0,0,4,1,13.8,13.8,0,0,0,6.06-1c6.71-2.49,10.07-3.73,14.14-6.06,3.86-2.22,5-3.36,8.08-4,1.47-.33,2.95-.45,3-1,.1-.74-2.36-1.26-5-3a20.71,20.71,0,0,1-5.05-5,33.7,33.7,0,0,1-5-9.09,53.68,53.68,0,0,1-2-7.07S560,703,550.85,696.41c-25.82-18.52-106,13.13-106,13.13-61.91,29.39-101,61.74-102,74.74a62.78,62.78,0,0,0,1,16.16C344.89,805.43,346.55,809.15,349.85,816.6Z"/><path class="cls-9" d="M1682.38,218.46c3.57,19.33-6.88,35.74-6.31,48a15.79,15.79,0,0,1-1.91,9,11.8,11.8,0,0,1-3.24,3.36,16.88,16.88,0,0,1-13.12,3,6.12,6.12,0,0,1-4.43-2.74c-1.15-2.09-.5-4.83.15-7.23a375.8,375.8,0,0,0,10.16-51.29c-2.56,7.91-8.43,13.91-13.17,20.53-6,8.31-10.43,18.06-17.62,25.08-1.4,1.37-3,2.69-4.86,2.72a7.68,7.68,0,0,1-3.68-1.23q-8.05-4.34-16-8.83c4.15-6.64,11.1-10.34,16.41-15.88a82.74,82.74,0,0,0,6.22-7.68q3.35-4.44,6.85-8.72c4.36-5.34,6.81-8.09,10.13-11.94,13.91-16.16,14-20.38,17.85-20.67C1672.65,193.41,1680.18,206.57,1682.38,218.46Z"/><path class="cls-19" d="M1843.43,406.39c5.09,7.09,1,22-2.32,34.08-2.46,9-5.22,13.11-8.48,20.68-7.62,17.68-6.8,38.72-15.44,55.83-7.2,14.25-20.18,24.15-27,38.63,1.78-15.43,14.76-26.36,20.73-40.58,4.18-10,4.78-21.3,8.64-31.43,4.27-11.21,12.61-21.71,11.39-33.59a8.82,8.82,0,0,0-5.87,2.2c-2.32,2-3.71,5-4.95,8a213.22,213.22,0,0,0-14.4,52.8c3-6.78-1.23-14.36-1.32-21.79-.13-10.26,7.55-19.22,8.21-29.49-8.09.06-13.63-11.31-21.69-10-5,.82-8.52,6.47-9.93,12s-1.43,11.37-3,16.83c-1,3.22-2.46,6.26-3.14,9.55-1.22,6,.38,12.11-.33,18.15-1.61,13.74-14.77,25.44-12,38.74-.37-15.91,2.75-31.8,5.85-47.49l3.69-18.7c.78-3.94,1.57-8,1.07-11.93-1.23-9.69-9.6-15.69-17.56-19.41-3-1.42-6.61-2.66-9.59-.84-4.18,2.53-4.4,9-5.81,14-2,7.25-7.31,12.84-10.37,19.65-4.26,9.5-3.85,20.47-5.08,30.9a94.84,94.84,0,0,1-11.29,35,73,73,0,0,0,4.42-35.7c-.54-4.12-1.44-8.23-1.09-12.41.93-11.21,10.6-21.14,8.67-32.05-.19,12-11.5,20.43-15.08,31.92-2.91,9.36-.33,19.39-.48,29.18-.26,16.6-8.36,32.26-9.74,48.84-.68,8.21.32,16.43-.27,24.64s-3.15,17-9.13,21.94c5.54-6.25,7.17-15.6,7.08-24.24s-1.63-17.17-1.2-25.82c.65-12.91,5.63-25.33,6.61-38.22.75-9.73-.79-19.54.94-29.15,2.18-12.08,9.28-22.53,12.48-34.36,4.35-16.08,1.6-34.76,10.63-48.31,1.49-.11,3.54-.27,6-.49C1800.76,417.85,1834,393.21,1843.43,406.39Z"/><path class="cls-9" d="M1743.61,168.61c3.34,13.92,6.49,27.95,11.36,41.27,6.5,17.79,16.21,35.15,15.42,54.49-4.72-1.52-6.41-7.61-7.56-12.82-3.39-15.38-8-30.36-12.63-45.31L1705.27,60.72c-4.24-13.74-8.79-27.41-12.7-41.26,10.14-.85,12.34,16.35,15,24.18q7,20.69,13.39,41.64Q1733.51,126.5,1743.61,168.61Z"/><path class="cls-9" d="M1515.73,145.23c-2-4.68-4.34-9.72-8.71-11.49a6.12,6.12,0,0,0-6,.59c-1.74,1.35-2.58,4.23-1.45,6.14a13.1,13.1,0,0,0,1.89,2.05c3.15,3.42,2.54,9.16,2.75,14.13.28,6.91,2.54,13.42,4.83,19.76,5.14,14.28,10.58,28.41,16,42.54.2.54,1,1.45,1.64,3,2,4.43.85,6.38,2.29,8.07,2.61,3.08,9.19.08,11.06-1.18a5.3,5.3,0,0,0,2.11-2.42,4.54,4.54,0,0,0,.36-1.89c-.06-2.15-1.77-4.75-2.39-6.78-1-3.32-1.79-6.76-2.73-10.11q-5.79-20.68-13.14-40.7-2-5.55-4.18-11C1519.17,153.66,1515.36,147.48,1515.73,145.23Z"/><path class="cls-5" d="M1619.91,87.05c.3,1.78,2.07,1.83,6.39,5.13,2.82,2.16,4.24,3.27,4.62,4.83.81,3.35-2.43,5.69-1.32,7.89.59,1.18,1.67.8,5.83,3,.73.38,1.9,1,2.48,1.43a7.42,7.42,0,0,1,2.15,2.37,18.62,18.62,0,0,1-12.63,1.42c-4.82-1.33-8.82-5-12.13-9a33.43,33.43,0,0,1-7-13.15,9.8,9.8,0,0,1-.21-4.66c.74-3,3.43-4.75,5.88-6.22,3.26-2,6.69-4,10.34-4h.29a38.57,38.57,0,0,1-1.77,4.34C1620.8,85,1619.66,85.56,1619.91,87.05Z"/><path class="cls-9" d="M1682,180.16a56.17,56.17,0,0,0,5.69-8c.6,2.59,1.19,5.19,1.78,7.78a5.69,5.69,0,0,1,.22,1.69,5.55,5.55,0,0,1-1.59,3.12c-2.5,2.91-5.65,5.92-5.65,9.86,0,3.39,2.38,6.14,2.79,9.48a16.55,16.55,0,0,1-.53,5.36q-1.41,6.66-3.1,13.24c-3.25-10.47-10.2-19.1-14.83-26.38-.52-.82-1-1.65-1.52-2.49A69.85,69.85,0,0,0,1682,180.16Z"/><path class="cls-20" d="M1711.8,267.89c.25,1.11.49,2.2.73,3.24,1.23,5.5,2.19,10.05,2.86,13.42,4,20.11.72,12.85,2.17,20.9-.53-1.42-1.11-2.82-1.73-4.18a52.77,52.77,0,0,1,2.17,11.89,1.7,1.7,0,0,1-.19.19c-1.29,1-4-1.22-6.71-3.15-5.44-3.95.31,1.26-14.87-8.58-10.47-6.79-18.8-12.9-19.48-13.4l-1.39-1a203.27,203.27,0,0,0,.8-20.5,24.57,24.57,0,0,0,6.32-1.87c3.15-1.25,3.77-2,4-2.37a4.09,4.09,0,0,0,.62-1.4,32.55,32.55,0,0,0,8.69,3.13C1701.42,265.43,1707,265.28,1711.8,267.89Z"/><path class="cls-20" d="M1613.37,50.47c.18,2.35-.91,2.8-.83,4.93.12,3.11,2.56,5.27,4.29,6.8,2.86,2.53,4.17,2.23,7.43,4.29,4.86,3.07,4,5,7.82,7.39s6.49,1.48,9.62,2c-3.41-.42-7.08,1.12-10.62,1-2.18-.06-4.3-.75-6.48-.79a2.61,2.61,0,0,0,.1-1.43c-.88-2.92-6.5-1.06-13.59-5.32-3.95-2.38-4.51-4.34-4.63-4.84-.66-2.72,1.14-4.34.28-7s-3.07-2.53-3.74-4.68c-.88-2.82,1.91-6.32,4.29-9.42l.19-.24c.86.55,1.82.54,3.17,1.82A9,9,0,0,1,1613.37,50.47Z"/><path class="cls-9" d="M1631.08,76.9c3.54.1,7.21-1.44,10.62-1a10.34,10.34,0,0,1,2.47.73c.13.07.27.12.4.2l.09,0a32.46,32.46,0,0,1,3.29,2.36,25,25,0,0,1,4.66,7.24,85.48,85.48,0,0,0,6.44,11.22,12.31,12.31,0,0,0-1.31.52c-3.58,1.63-6.28,5-9.25,7.78a31.72,31.72,0,0,1-8.43,5.74,7.42,7.42,0,0,0-2.15-2.37c-.58-.4-1.75-1-2.48-1.43-4.16-2.21-5.24-1.83-5.83-3-1.11-2.2,2.13-4.54,1.32-7.89-.38-1.56-1.8-2.67-4.62-4.83-4.32-3.3-6.09-3.35-6.39-5.13-.25-1.49.89-2,2.92-6.6a38.57,38.57,0,0,0,1.77-4.34C1626.78,76.15,1628.9,76.84,1631.08,76.9Z"/><path class="cls-20" d="M1648.49,106c3-2.8,5.67-6.15,9.25-7.78a12.31,12.31,0,0,1,1.31-.52c4.19,6.16,7.84,9.82,13.43,21.52,4.87,10.18,7,17.55,15.13,50.19,8.81,35.18,13.87,56.3,14.88,60.53v0c-2-.28-4-.56-5.94-.81a18.85,18.85,0,0,0-6.4,0,10.36,10.36,0,0,0-6.21,4.49c-.35-2.06-.83-4.8-1.36-7.26-.26-1.24-.59-2.45-1-3.64q1.68-6.58,3.1-13.24a16.55,16.55,0,0,0,.53-5.36c-.41-3.34-2.8-6.09-2.79-9.48,0-3.94,3.15-7,5.65-9.86a5.55,5.55,0,0,0,1.59-3.12,5.69,5.69,0,0,0-.22-1.69c-.59-2.59-1.18-5.19-1.78-7.78a56.17,56.17,0,0,1-5.69,8,69.85,69.85,0,0,1-16.74,13.66c-11.48-19.35-15.48-41.82-17.36-52.39-1.28-7.23-4.69-13.86-5.5-21.2-.16-1.47-.55-5.54-2.36-8.52A31.72,31.72,0,0,0,1648.49,106Z"/><path class="cls-20" d="M1645.13,77.08a13.3,13.3,0,0,1,2.82,2.13,32.46,32.46,0,0,0-3.29-2.36Z"/><path class="cls-20" d="M1644.57,76.81c-.13-.08-.27-.13-.4-.2Z"/><path class="cls-5" d="M1812.05,411.34l-.17-.1a2.89,2.89,0,0,1-1.08-1.3,4,4,0,0,0,1.47.1,19.79,19.79,0,0,0,3.82-1.41c3.19-1.11,6.67.07,9.3,2.21a19.1,19.1,0,0,1,2.39,2.37,5,5,0,0,1-.31.84,6.34,6.34,0,0,1-1.86,2.12,15.78,15.78,0,0,1-4.63,2.21,4.65,4.65,0,0,1-1.5.33c-.48,0-1.22-.13-1.29-.75a17.9,17.9,0,0,1,.21-2.28,5.6,5.6,0,0,0-.15-1.48,2.52,2.52,0,0,0-.21-1.92C1817,410.69,1814.47,412.67,1812.05,411.34Z"/><path class="cls-5" d="M1778.28,530c.24-3,.5-5.93,1-8.83A43.81,43.81,0,0,1,1778.28,530Z"/><path class="cls-19" d="M1791.14,482.6a18.39,18.39,0,0,1-.74,6.14c-.61,1.88-1.64,3.57-2.26,5.45-1,2.85-.89,6-1.65,8.88-1.07,4.11-3.67,7.54-5.3,11.44a32,32,0,0,0-1.88,6.61c0-1.12,0-2.23-.07-3.34a45.62,45.62,0,0,1-.29-7.48,31.69,31.69,0,0,1,1.83-7c2.41-7,4.62-14.61,4-21.9a7.54,7.54,0,0,0,.75.49A8.61,8.61,0,0,0,1791.14,482.6Z"/><path class="cls-5" d="M1811.44,430.5a3.1,3.1,0,0,1,.92-1c1.58-1.11,2.36-.25,2.68,1.38C1813.23,431.14,1811.87,431.21,1811.44,430.5Z"/><path class="cls-20" d="M1720.82,414.24c3.71-.45,6.33-.15,24.83,3.14,9.94,1.77,11.75,2.14,15.14,1.53a30.19,30.19,0,0,0,14.86-7.65c3.88-3.65,5.74-7.29,8.48-12.78,1-2.05,1.94-4.07,2.76-6.05,5.67,1.07,11.52,5.22,16.64,2.07.14.34.26.69.38,1-.25.33-.51.66-.78,1-1.85,2.11-4.1,3.94-5.23,6.59-2.11,5,.47,10.78-.64,16.11s-5.64,9.08-7.76,14.09c-2.61,6.15-1.26,13.43-3.35,19.8-1.32,4-4,7.56-4.42,11.76-.5,4.53,1.63,8.73,2.58,13.12a26.42,26.42,0,0,1,.49,3.41,4.61,4.61,0,0,0-1.72-.94c-2.2-.61-4.13.53-6.67,1.92-2.94,1.61-6,3-8.91,4.59-5.48,2.93-6.55,3.36-7.88,3.75a17.6,17.6,0,0,1-6.49.94c-1-.06-7.49-.59-10.79-5.86a14.55,14.55,0,0,1-1.82-5.38c-1.31-6.61-3.55-17.95-9.24-25.88a20.39,20.39,0,0,0-6.22-6.11c-3.66-2.19-5.37-1.32-10.41-2.76a36.23,36.23,0,0,1-13.26-7.3,39.61,39.61,0,0,1-7.65-8.38,24.16,24.16,0,0,1-2.29-4.64c5.51-2,10.41-4.07,14-5.57C1713.78,416.24,1715.77,414.84,1720.82,414.24Z"/><path class="cls-19" d="M1781.73,464.85c.46-4.2,3.1-7.75,4.42-11.76,2.09-6.37.74-13.65,3.35-19.8,2.12-5,6.65-8.73,7.76-14.09s-1.47-11.13.64-16.11c1.13-2.65,3.38-4.48,5.23-6.59.27-.3.53-.63.78-1,.9,2.77,1.07,5.84,1.94,8.65a9.42,9.42,0,0,0,3.52,5.1,2,2,0,0,0-.66,1.16,2.08,2.08,0,0,0,.67,1.57,4.47,4.47,0,0,0,.78.67c-.26.21-.53.41-.79.64-2.92,2.57-5.19,6.42-5.13,10.49a6.7,6.7,0,0,1-.12,2.1c-.6,1.9-2.85,2.16-4.46,3.07-2.77,1.57-3.81,5.44-3.8,8.85s.75,6.79.24,10.16c-.56,3.75-2.6,7-3.85,10.6-2.17,6.17-1.93,12.94-1.39,19.43.12,1.51.25,3.05.28,4.57a8.61,8.61,0,0,1-5.59-.73,7.54,7.54,0,0,1-.75-.49,26.42,26.42,0,0,0-.49-3.41C1783.36,473.58,1781.23,469.38,1781.73,464.85Z"/><path class="cls-19" d="M1811.88,411.24l.17.1a22.43,22.43,0,0,0-1.89,1.35,4.47,4.47,0,0,1-.78-.67,2.08,2.08,0,0,1-.67-1.57,2,2,0,0,1,.66-1.16,4.61,4.61,0,0,0,1.43.65A2.89,2.89,0,0,0,1811.88,411.24Z"/><path class="cls-20" d="M1792.25,458.6c1.25-3.56,3.29-6.85,3.85-10.6.51-3.37-.23-6.76-.24-10.16s1-7.28,3.8-8.85c1.61-.91,3.86-1.17,4.46-3.07a6.7,6.7,0,0,0,.12-2.1c-.06-4.07,2.21-7.92,5.13-10.49.26-.23.53-.43.79-.64a2.33,2.33,0,0,0,.94.38,6.83,6.83,0,0,0,2.65-.7,4.39,4.39,0,0,1,3,.15,2.61,2.61,0,0,1,1.18.88,2.46,2.46,0,0,1,.33.8,30.7,30.7,0,0,1-1.2,4,44.31,44.31,0,0,1-2.92,6.6c-2,3.81-3.12,4.8-2.75,5.63,0,0,0,.05.06.07-1,1.85-.11,4.63-.36,6.62-.38,3-2.2,5.55-3.07,8.39-1.12,3.63-.74,7.54-.34,11.29a17.68,17.68,0,0,1,3.36-12.2c1.21-1.59,2.73-3,3.37-5a24,24,0,0,0,.64-8.77l2.67-.41c3.91-.56,15-2.16,16.9,1.82.47,1-.36,1.33-1,5.92-1,7.17-.47,9-2,11.83-.92,1.75-1,.77-4.51,5.33-2.35,3-2.81,4.05-4.52,5.33a13,13,0,0,1-4.89,2.22c-3.1.67-4.13-.27-6.34-.05-3.89.4-6.69,4-9.41,7.55-4.74,6.14-3.69,8.93-7.27,10.95a11.15,11.15,0,0,1-3.55,1.23c0-1.52-.16-3.06-.28-4.57C1790.32,471.54,1790.08,464.77,1792.25,458.6Z"/><path class="cls-20" d="M1816.74,412.52a4.39,4.39,0,0,0-3-.15,6.83,6.83,0,0,1-2.65.7,2.33,2.33,0,0,1-.94-.38,22.43,22.43,0,0,1,1.89-1.35c2.42,1.33,5-.65,6,.94a2.52,2.52,0,0,1,.21,1.92,2.46,2.46,0,0,0-.33-.8A2.61,2.61,0,0,0,1816.74,412.52Z"/><path class="cls-19" d="M1814.4,439.65c-.64,2-2.16,3.36-3.37,5a17.68,17.68,0,0,0-3.36,12.2c-.4-3.75-.78-7.66.34-11.29.87-2.84,2.69-5.39,3.07-8.39.25-2-.68-4.77.36-6.62.43.71,1.79.64,3.6.38A24,24,0,0,1,1814.4,439.65Z"/><path class="cls-19" d="M1827.82,411.22a3.93,3.93,0,0,0-1.4-1.93,8.93,8.93,0,0,0-5.47-1.63c-1.92,0-3.86.23-5.79.14a13.59,13.59,0,0,0-3,0,5.17,5.17,0,0,0-2,.81,62.05,62.05,0,0,1-2.13-7.13c-1.47-5.79-1.31-6.55-2.37-7.49a3.28,3.28,0,0,0-.57-.43c-1.42-.85-3.18-.43-8.23-1.05-2.17-.26-2.63-.44-5.29-.88l-4.13-.7a103,103,0,0,0,6.61-30.32,39.75,39.75,0,0,0-.1-10.16c-.77-4.82-2.43-8.42-7.21-16.41-6.43-10.75-7.4-10.86-11.45-18.15a144.41,144.41,0,0,1-7.38-15.43,199,199,0,0,1-6.71-19.37c-1.83-6-3.26-10.64-4.44-14.71a3,3,0,0,0,.52-.73c.67-1.37.29-3-.16-4.45a55.47,55.47,0,0,0-2.87-7.29,11.05,11.05,0,0,1,2.72,1.27c7,4.2,14.09,8.54,19.23,15.21s8,16.29,5.11,24.77l-.19.57c-.49.55-1,1.07-1.51,1.57a48.75,48.75,0,0,1-4.37,3.52l-5.27,3.93a63.15,63.15,0,0,0,3.33,7.11c3.73-2.54,6.56-6.34,9.11-10.36a16.44,16.44,0,0,0,3.45-.28c3.24-.21,6.22,3,6.12,6.64,0,1.52-.46,3.36.58,4.31.73.66,2,.58,2.47,1.45s.07,1.87-.12,2.82c-.76,3.75,2,7.28,5.29,8.4s6.77.52,10.19.19c13.32-1.29,27.69,2.53,35.94,13.84,4.44,6.08,6.75,13.79,8.23,21.53,6,31-.73,65.22-17.85,91.56.33-10.7.56-24.48-4.93-33a49.74,49.74,0,0,0-4-5.71A3.74,3.74,0,0,0,1827.82,411.22Z"/><path class="cls-9" d="M1773.35,311.86a63.15,63.15,0,0,1-3.33-7.11l5.27-3.93a48.75,48.75,0,0,0,4.37-3.52c.52-.5,1-1,1.51-1.57-.61,1.82-1.18,3.93,0,5.15a2.1,2.1,0,0,0,1.27.62C1779.91,305.52,1777.08,309.32,1773.35,311.86Z"/><path class="cls-19" d="M1816.09,408.63a19.79,19.79,0,0,1-3.82,1.41,4,4,0,0,1-1.47-.1,13.25,13.25,0,0,1-.59-1.33,5.17,5.17,0,0,1,2-.81,13.59,13.59,0,0,1,3,0c1.93.09,3.87-.18,5.79-.14a8.93,8.93,0,0,1,5.47,1.63,3.93,3.93,0,0,1,1.4,1.93,3.74,3.74,0,0,1,0,2,19.1,19.1,0,0,0-2.39-2.37C1822.76,408.7,1819.28,407.52,1816.09,408.63Z"/><path class="cls-20" d="M1791.62,391.63c2.66.44,3.12.62,5.29.88,5,.62,6.81.2,8.23,1.05a12.59,12.59,0,0,1-1.23,2c-.12-.35-.24-.7-.38-1-5.12,3.15-11-1-16.64-2.07.21-.5.4-1,.6-1.5Z"/><path class="cls-19" d="M1805.71,394c1.06.94.9,1.7,2.37,7.49a62.05,62.05,0,0,0,2.13,7.13,5.78,5.78,0,0,0-.82.66l0,0a9.42,9.42,0,0,1-3.52-5.1c-.87-2.81-1-5.88-1.94-8.65a12.59,12.59,0,0,0,1.23-2A3.28,3.28,0,0,1,1805.71,394Z"/><path class="cls-19" d="M1810.21,408.61a13.25,13.25,0,0,0,.59,1.33,4.61,4.61,0,0,1-1.43-.65l0,0A5.78,5.78,0,0,1,1810.21,408.61Z"/><path class="cls-5" d="M1585.69,378h0a120.4,120.4,0,0,1-37-44.34c0-.11,0-.23,0-.35A120.64,120.64,0,0,0,1585.69,378Z"/><path class="cls-5" d="M1584.35,378.17a10.25,10.25,0,0,0,1.88,2.43h0a10.29,10.29,0,0,1-1.89-2.43Z"/><path class="cls-5" d="M1518.69,701.78c2-6.27,3.69-12.19,4.19-19.58.11-1.58.12-2.6.11-3.48,1.08.06,2.16.15,3.25.25a1,1,0,0,1,.74.32,1.25,1.25,0,0,1,0,.88q-2.51,13.76-5.17,27.49c-.26,1.34-.59,2.81-1.59,3.64s-2.63.72-4,.47l-.54-.1c.3-1.32.64-2.68,1-4.12C1517.54,705,1517.88,704.36,1518.69,701.78Z"/><path class="cls-20" d="M1548.18,477.84c2.2,9.25-.89,17.32-3,22.55-4.85,12.17-12.71,18.94-16.46,22.59-10.42,10.13-16.13,25.49-27.53,56.22-7.71,20.77-17.19,46.3-20.16,71.66a53.26,53.26,0,0,1-.83,5.27,64.66,64.66,0,0,0-3.38-7.58,46.21,46.21,0,0,0-5.59-7.91c1.75-2.35,1.14-6.31,1-7.48-1.71-13.67,9.13-54.58,14.88-72.54a165.19,165.19,0,0,1,9.41-23.77,157.56,157.56,0,0,1,10.19-17.56c7.75-11.59,10.14-11.87,20.48-25,11.08-14,14-20.92,18.54-23.09a29.55,29.55,0,0,1,2.38,6.32A2.8,2.8,0,0,1,1548.18,477.84Z"/><path class="cls-21" d="M1459.76,681.85l-1.45.83a3.47,3.47,0,0,1-1.21-2.38,1.89,1.89,0,0,1,.15-.6,2.58,2.58,0,0,0,.14.39A3.78,3.78,0,0,0,1459.76,681.85Z"/><path class="cls-9" d="M1476.84,648.55a64.66,64.66,0,0,1,3.38,7.58,34.57,34.57,0,0,1-2,6.41c-3.86,9-11.59,15.29-18.42,19.31a3.78,3.78,0,0,1-2.37-1.76,2.58,2.58,0,0,1-.14-.39c.79-1.94,4.68-3.42,4.69-6.7,0-2-1.48-2.39-1.81-5.37a12.39,12.39,0,0,1,1-5.92,25.12,25.12,0,0,1,3.8-6.46c-1.45-7.63-.38-10.7,1.1-12s3.34-.58,4.9-2.22a4.23,4.23,0,0,0,.33-.41A46.21,46.21,0,0,1,1476.84,648.55Z"/><path class="cls-5" d="M1746.78,227a20.4,20.4,0,0,1-.29-2.37c1-.27,2-.51,3-.73a9,9,0,0,1,5.33.07c2.83,1.21,4.07,4.79,5,8,.85,2.9,1.65,6.27.12,8.91-1.89,3.25-6.77,4.29-7.25,8-1.16-6.78-1.68-11.26-4.13-16.47A20.29,20.29,0,0,1,1746.78,227Z"/><path class="cls-9" d="M1686.22,253.3c.66,3.49,1.34,5.9.9,7.77a16.48,16.48,0,0,1-5.65-4.84c-3.83-5.48-2.29-12.29.08-18.08a24,24,0,0,1,2.4-4.56c.31,1.88.51,3.19.51,3.19C1686.15,248,1684.92,246.35,1686.22,253.3Z"/><path class="cls-9" d="M1690.16,229.1a18.85,18.85,0,0,1,6.4,0c2,.25,4,.53,5.94.81.12.49.19.76.19.76,3.81,14.62,6.85,27.25,9.11,37.18-4.85-2.61-10.38-2.46-16-3.69a32.55,32.55,0,0,1-8.69-3.13c.44-1.87-.24-4.28-.9-7.77-1.3-7-.07-5.32-1.76-16.52,0,0-.2-1.31-.51-3.19A10.36,10.36,0,0,1,1690.16,229.1Z"/><path class="cls-5" d="M1753.38,252.39c0-.24-.08-.46-.13-.69.2.46.43.9.64,1.34s.28.58.41.87a4.84,4.84,0,0,0-.64-.13C1753.56,253.32,1753.47,252.86,1753.38,252.39Z"/><path class="cls-5" d="M1757.33,265.65a3,3,0,0,1-.52.73c-1.32-4.59-2.31-8.44-3.15-12.6a4.84,4.84,0,0,1,.64.13,55.47,55.47,0,0,1,2.87,7.29C1757.62,262.63,1758,264.28,1757.33,265.65Z"/><path class="cls-5" d="M1609.35,398.59a.6.6,0,0,1,.34.09,15.47,15.47,0,0,0-1.31,1.25C1608.74,399.05,1609,398.63,1609.35,398.59Z"/><path class="cls-5" d="M1603.71,410.31a3.39,3.39,0,0,1,.26-1C1603.88,409.65,1603.79,410,1603.71,410.31Z"/><path class="cls-9" d="M1657.35,276.79l-3.66-1.89q3.12-8.64,5.68-17.51c1.63-5.68,4.77-12.8,10-12.15,4.94.62,6.4,7.6,6.6,13.14q.13,4.14.17,8.33l-.34.06C1672.75,267.21,1664.15,271.07,1657.35,276.79Z"/><path class="cls-9" d="M1657.35,276.79c6.8-5.72,15.4-9.58,18.47-10l.34-.06a203.27,203.27,0,0,1-.8,20.5C1670.13,283.49,1666.28,281.42,1657.35,276.79Z"/><path class="cls-5" d="M1522.14,203.07c3.5,1.8,8.4-3.25,11.27-.42a6.58,6.58,0,0,1,1.42,2.87l6.75,21.9c-8.67-2.53-12.14-3.59-14.71-4.35C1525.36,216.38,1523.76,209.72,1522.14,203.07Z"/><path class="cls-22" d="M1378.72,240.29c8-8.37,16-12.5,23.56-16.33,5-2.54,23.19-11.28,51-12.74,24.92-1.3,44.29,3.91,68.87,10.53,1.88.51,3.12.86,4.69,1.32,4.05,18,7.45,36.13,8.77,54.67.78,10.95.78,22.33-2.89,32.72-1.24,3.49-2.85,7.38-3,10.92a58.5,58.5,0,0,0-26.36,5.49,8.44,8.44,0,0,0-3,2,3.73,3.73,0,0,0-.85,3.52,92,92,0,0,1,15.33-5.95,64.44,64.44,0,0,1,15.26-1.74,7.52,7.52,0,0,0,.75,1.67c.87,1.44,2.22,2.48,2.93,4a11.47,11.47,0,0,1,.5,5.79c-3.71,41-26.48,79.66-58.28,101.45-13.92-4-37.23-13.58-57.92-27.48-17.65-11.86-31.77-21.35-43.87-40.81-4.89-7.87-23.78-39.31-17.38-80C1358.21,281.09,1361.76,258,1378.72,240.29Z"/><path class="cls-20" d="M1514.92,326.43a92,92,0,0,0-15.33,5.95,3.73,3.73,0,0,1,.85-3.52,8.44,8.44,0,0,1,3-2,58.5,58.5,0,0,1,26.36-5.49,9.59,9.59,0,0,0,.41,3.31A64.44,64.44,0,0,0,1514.92,326.43Z"/><path class="cls-22" d="M1501.53,678.76a21.66,21.66,0,0,1-9.8-4c9.91-22,15.38-67.76,43.83-122.25,16.6-31.78,35.85-56.66,27.54-72.44a20.46,20.46,0,0,0-5.78-6.66,75.32,75.32,0,0,0,19.15-15.6,155.27,155.27,0,0,0,12.65-17.24c5.44-8.24,10.86-16.75,13.59-26.42.35-1.26.67-2.55,1-3.84a4.24,4.24,0,0,0,0,.51c0,2.88,2.61,4.87,3.58,5.67,3.33,2.79,7,11.44,14.2,28.75,4.57,10.93,6.88,16.39,7.42,20.51a51.48,51.48,0,0,1-2.2,24c-2.89,8.21-6.12,9.74-13.27,25.15-3.35,7.21-3.17,8-5.67,12.23-4.54,7.65-7.65,9.32-11.79,16.28-3,5.06-3.84,8.35-6,14.2-3.71,10.06-7.32,16.78-13.93,29.1-3.16,5.89-9.55,16-22.3,35.81-4.11,6.39-7.94,13-12.28,19.23-10.17,14.54-18,22.65-18.45,34.43,0,1,0,1.72,0,2.58a95.39,95.39,0,0,0-11-.06C1508.53,678.85,1505,679.23,1501.53,678.76Z"/><path class="cls-9" d="M1487.31,705.37c-5-2.62-8.57-7.67-12.18-12.33-1.18-1.52-2.41-3-3.73-4.44a20.38,20.38,0,0,0,6,.18c6.33-.89,10.63-5.82,14.32-14a21.66,21.66,0,0,0,9.8,4c3.46.47,7,.09,10.5-.1a95.39,95.39,0,0,1,11,.06c0,.88,0,1.9-.11,3.48-.5,7.39-2.2,13.31-4.19,19.58-.81,2.58-1.15,3.26-1.87,5.77-.41,1.44-.75,2.8-1,4.12l-19.16-3.58A33.05,33.05,0,0,1,1487.31,705.37Z"/><path class="cls-22" d="M1475.13,693c3.61,4.66,7.15,9.71,12.18,12.33a33.05,33.05,0,0,0,9.3,2.72l19.16,3.58a92.72,92.72,0,0,0-1.92,13.63c-1.45,17.21-2.6,16.35-3.53,31.86-.56,9.2-.83,13.8-.17,17.21a78.58,78.58,0,0,0,8.14,21.64c1.59,2.86,3.64,6.08,3.64,10.75a12.84,12.84,0,0,1-2.21,7.74,11.76,11.76,0,0,1-4.18,3.35c-2.06,1-2.39.5-3.85,1.39-2.57,1.55-2.32,3.68-4.52,5.32-2.68,2-6.05,1.07-6.5.94-3.88-1.07-5.9-5.17-6.93-7.24-5-9.92-11-19.14-16-29-2.7-5.34-5-9.78-8.26-15.58a170.09,170.09,0,0,0-12.16-19.28c-9.74-12.87-13.16-11.05-19.92-21.59-4.48-7-9.09-14.15-7.82-23.61,1.09-8.09,6.31-16.56,13.33-20.08a21,21,0,0,1,3.85-1.38,64.64,64.64,0,0,0,11.51-5c2.34,2.44,7.73,5,13.09,5.92C1472.72,690,1474,691.52,1475.13,693Z"/><path class="cls-21" d="M1461.9,682.39c3.68.9,6.77,3.31,9.5,6.21-5.36-.9-10.75-3.48-13.09-5.92l1.45-.83C1460.46,682.07,1461.21,682.22,1461.9,682.39Z"/><path class="cls-23" d="M1461.9,682.39c3.68.9,6.77,3.31,9.5,6.21-5.36-.9-10.75-3.48-13.09-5.92l1.45-.83C1460.46,682.07,1461.21,682.22,1461.9,682.39Z"/><path class="cls-9" d="M1487,670.14a22.64,22.64,0,0,0,4.71,4.62c-3.69,8.2-8,13.13-14.32,14a20.38,20.38,0,0,1-6-.18c-2.73-2.9-5.82-5.31-9.5-6.21-.69-.17-1.44-.32-2.14-.54,6.83-4,14.56-10.27,18.42-19.31a34.57,34.57,0,0,0,2-6.41C1482.15,661.06,1483.93,666.08,1487,670.14Z"/><path class="cls-22" d="M1563.1,480.07c8.31,15.78-10.94,40.66-27.54,72.44-28.45,54.49-33.92,100.2-43.83,122.25a22.64,22.64,0,0,1-4.71-4.62c-3.09-4.06-4.87-9.08-6.8-14a53.26,53.26,0,0,0,.83-5.27c3-25.36,12.45-50.89,20.16-71.66,11.4-30.73,17.11-46.09,27.53-56.22,3.75-3.65,11.61-10.42,16.46-22.59,2.09-5.23,5.18-13.3,3-22.55a71.87,71.87,0,0,0,9.14-4.43A20.46,20.46,0,0,1,1563.1,480.07Z"/><path class="cls-9" d="M1672.05,69.93c.63-.8,1.23-1.63,1.79-2.49a36.18,36.18,0,0,0,5.31-14.31c2.73,7,4.87,13.58,7.82,20.9a37.09,37.09,0,0,1-5.46,10.27C1678.4,79.22,1675.23,74.42,1672.05,69.93Z"/><path class="cls-22" d="M1673.84,67.44c-.56.86-1.16,1.69-1.79,2.49-22.21-31.26-45.35-47.58-53-42.84-2,1.26-1.86,3.33-11.6,16a3.14,3.14,0,0,1-.9-.89c-1.13-1.61-1-3.66-.94-5.23.16-3.12,1.15-3.4,2.2-7.74,1-3.95.63-5.74,2-6.76.59-.42,1.33-.46,2.81-.54,3.44-.18,4.63.77,5.45-.1s0-1.69.66-3.95c.2-.66.86-2.87,2.42-3.65.43-.21,1.14-.42,4.41.74,3.7,1.32,3.76,2,5.12,1.87,2.25-.12,2.45-1.88,4.9-2.22,2.77-.38,3.79,1.71,5.28.89,2-1.08.74-5,2.92-6.61,1.77-1.32,4.6-.28,6.17,1a5.65,5.65,0,0,1,2.14,3.4c.38,2.41-1.36,3.67-.82,4.94s2.68.73,7,1.18c3.67.38,6,.65,7.76,2.31s2.13,4.32,2.53,6.51c.88,4.7,2,5.19,6.5,15.28,1.5,3.35,2.78,6.49,4,9.54A36.18,36.18,0,0,1,1673.84,67.44Z"/><path class="cls-22" d="M1723.55,225.08c-17.22-78.92-11.15-70.78-18.92-92.4a267.44,267.44,0,0,0-23.12-48.38A37.09,37.09,0,0,0,1687,74c2,5,4.36,10.29,7.53,16.4,4.64,8.93,6.84,12,11.67,22.23,7.34,15.61,7,18.61,14.64,36.93,7.35,17.54,11,26.31,16.56,36.24,6.22,11.14,12.85,20.83,10.51,29.14a26.82,26.82,0,0,0-1.39,9.61c-7.26,1.9-14.36,4.91-21.71,6.11Z"/><path class="cls-22" d="M1702.49,229.91c-1-4.23-6.07-25.35-14.88-60.53-8.17-32.64-10.26-40-15.13-50.19-5.59-11.7-9.24-15.36-13.43-21.52,1.7-.57,3.48-.86,5.22-1.31a32.1,32.1,0,0,0,17.24-12.06,267.44,267.44,0,0,1,23.12,48.38c7.77,21.62,1.7,13.48,18.92,92.4l1.23,5.61c-.53.09-1,.19-1.58.25C1716.27,231.81,1709.38,230.84,1702.49,229.91Z"/><path class="cls-9" d="M1664.27,96.36c-1.74.45-3.52.74-5.22,1.31a85.48,85.48,0,0,1-6.44-11.22,25,25,0,0,0-4.66-7.24,9.51,9.51,0,0,0,3.34,1.76,9.37,9.37,0,0,0,4.36-.24,30.34,30.34,0,0,0,16.4-10.8c3.18,4.49,6.35,9.29,9.46,14.37A32.1,32.1,0,0,1,1664.27,96.36Z"/><path class="cls-22" d="M1644.66,76.85l-.09,0Z"/><path class="cls-22" d="M1641.7,75.88a7.73,7.73,0,0,1,2,.48c.18.07.35.17.52.25A10.34,10.34,0,0,0,1641.7,75.88Z"/><path class="cls-22" d="M1619.1,27.09c7.6-4.74,30.74,11.58,53,42.84a30.34,30.34,0,0,1-16.4,10.8,9.37,9.37,0,0,1-4.36.24,9.51,9.51,0,0,1-3.34-1.76,13.3,13.3,0,0,0-2.82-2.13l-.47-.23-.09,0-.4-.2c-.17-.08-.34-.18-.52-.25a7.73,7.73,0,0,0-2-.48c-3.13-.52-5.73.42-9.62-2s-3-4.32-7.82-7.39c-3.26-2.06-4.57-1.76-7.43-4.29-1.73-1.53-4.17-3.69-4.29-6.8-.08-2.13,1-2.58.83-4.93a9,9,0,0,0-2.7-5.52c-1.35-1.28-2.31-1.27-3.17-1.82C1617.24,30.42,1617.07,28.35,1619.1,27.09Z"/><path class="cls-22" d="M1616.06,392.4c1-1.94,1.08-4.21,1.55-6.35,1.64-7.33,7.25-12.72,12.51-17.61,13.22-12.27,26.56-25.19,34.88-41.92,1.15-2.32,2.2-4.7,3.14-7.11a78.29,78.29,0,0,0,16.42,8.65c2.64,1,19.34,7,33.87,4.45a86,86,0,0,0,.92,12.22c1,6.42,3,12.65,3.16,19.2.1,3.4-.21,7.13,1.54,9.86a2.18,2.18,0,0,0,1.22,1c1.2.3,2.16-1.19,2.67-2.47a54.92,54.92,0,0,0,3.57-14,3.09,3.09,0,0,0-.42-2.46,3.26,3.26,0,0,0-1.58-.64c-2.78-.75-4.4-3.86-5.44-6.81a51.76,51.76,0,0,1-2.68-12.16c-.13-1.44-.2-2.89-.25-4.34a24.55,24.55,0,0,0,13-7.75c7.93-9.32,6.36-22.83-.32-53.35l12.27-1.83a48.2,48.2,0,0,0,3.18,20c3.85,10.28,10.08,19.12,15,28.81s8.43,21,6.25,32.09c-2.47,12.59-12,23.05-13,35.84a2.62,2.62,0,0,1,0,.28c-35.23-5.32-54.46-5.92-62.57,4.56-6.83,8.81-7.29,24.47-3.45,34.7a129,129,0,0,1-20.56,5.89c-9.78,1.77-20.79,3.78-33.25-1.52-4.19-1.78-21.1-9-25-23.46-.53-1.95-1.61-6.88-2.91-7.56C1612,396.72,1614.7,395.2,1616.06,392.4Zm8.73,26.77a12.55,12.55,0,0,0,2.86,2.64c2.45,1.83,5,3.67,7.87,4.41a3.53,3.53,0,0,0,3.48-.58,4.25,4.25,0,0,0,.66-3.92,10.38,10.38,0,0,0-5.63-6.6c-1.76-.87-6.15-2.78-8.16-2.17C1623.25,413.75,1623.37,417.19,1624.79,419.17Z"/><path class="cls-22" d="M1675.36,287.21l1.39,1c.68.5,9,6.61,19.48,13.4,15.18,9.84,9.43,4.63,14.87,8.58,2.67,1.93,5.42,4.18,6.71,3.15a1.7,1.7,0,0,0,.19-.19c.52,6.34.31,12.9.43,19.35-14.53,2.51-31.23-3.47-33.87-4.45a78.29,78.29,0,0,1-16.42-8.65A118.6,118.6,0,0,0,1675.36,287.21Z"/><path class="cls-22" d="M1717.56,305.45c-1.45-8.05,1.85-.79-2.17-20.9-.67-3.37-1.63-7.92-2.86-13.42,3.23,1.71,6.41,1.93,11.11,1.23l10.14-1.52c6.68,30.52,8.25,44,.32,53.35a24.55,24.55,0,0,1-13,7.75c-.18-5.37,0-10.78-.76-16A51.68,51.68,0,0,0,1717.56,305.45Z"/><path class="cls-22" d="M1694.9,390.63c8.11-10.48,27.34-9.88,62.57-4.56-.18,2.89.25,6.06,2.24,7.81a7.52,7.52,0,0,0,5.21,1.5c7.31-.11,14.57-4.25,21.75-3l.22.05c-.82,2-1.73,4-2.76,6.05-2.74,5.49-4.6,9.13-8.48,12.78a30.19,30.19,0,0,1-14.86,7.65c-3.39.61-5.2.24-15.14-1.53-18.5-3.29-21.12-3.59-24.83-3.14-5,.6-7,2-15.41,5.52-3.55,1.5-8.45,3.56-14,5.57C1687.61,415.1,1688.07,399.44,1694.9,390.63Z"/><path class="cls-22" d="M1756.81,266.38c1.18,4.07,2.61,8.72,4.44,14.71a199,199,0,0,0,6.71,19.37,144.41,144.41,0,0,0,7.38,15.43c4.05,7.29,5,7.4,11.45,18.15,4.78,8,6.44,11.59,7.21,16.41a39.75,39.75,0,0,1,.1,10.16,103,103,0,0,1-6.61,30.32c-11.09-1.85-21.08-3.51-30-4.86a2.62,2.62,0,0,0,0-.28c1-12.79,10.49-23.25,13-35.84,2.18-11.1-1.38-22.4-6.25-32.09s-11.11-18.53-15-28.81a48.2,48.2,0,0,1-3.18-20l6.9-1A6.39,6.39,0,0,0,1756.81,266.38Z"/><path class="cls-22" d="M1786.89,392.43l-.22-.05c-7.18-1.25-14.44,2.89-21.75,3a7.52,7.52,0,0,1-5.21-1.5c-2-1.75-2.42-4.92-2.24-7.81,8.94,1.35,18.93,3,30,4.86C1787.29,391.43,1787.1,391.93,1786.89,392.43Z"/><path class="cls-23" d="M1752.73,248.79c.16.92.33,1.89.52,2.91a5.91,5.91,0,0,1-.56-2.62C1752.7,249,1752.72,248.89,1752.73,248.79Z"/><path class="cls-9" d="M1753.66,253.78a3.26,3.26,0,0,0-2.35.45,6.11,6.11,0,0,0-1.77,2.23,31,31,0,0,0-3.49,12.55l-12.27,1.83c-2.41-11-5.47-24.16-9-40.15,7.35-1.2,14.45-4.21,21.71-6.11a19.7,19.7,0,0,0,2.11,7.74c2.45,5.21,3,9.69,4.13,16.47,0,.1,0,.19,0,.29a5.91,5.91,0,0,0,.56,2.62c0,.23.09.45.13.69C1753.47,252.86,1753.56,253.32,1753.66,253.78Z"/><path class="cls-9" d="M1712.53,271.13c-.24-1-.48-2.13-.73-3.24a18,18,0,0,1,1.56.95,35,35,0,0,0,5.91,3.42c-3.56-10.57-8.57-24.67-15-41.27l-.29-.82-1.53-.22v0c6.89.93,13.78,1.9,20.71,1,.53-.06,1-.16,1.58-.25,3.53,16,6.59,29.17,9,40.15l-10.14,1.52C1718.94,273.06,1715.76,272.84,1712.53,271.13Z"/><path class="cls-9" d="M1749.54,256.46a6.11,6.11,0,0,1,1.77-2.23,3.26,3.26,0,0,1,2.35-.45c.84,4.16,1.83,8,3.15,12.6A6.39,6.39,0,0,1,1753,268l-6.9,1A31,31,0,0,1,1749.54,256.46Z"/><path class="cls-9" d="M1704.32,231c6.38,16.6,11.39,30.7,15,41.27a35,35,0,0,1-5.91-3.42,18,18,0,0,0-1.56-.95c-2.26-9.93-5.3-22.56-9.11-37.18,0,0-.07-.27-.19-.76l1.53.22Z"/><path class="cls-20" d="M1585.66,378l-1.32.15h0a10.29,10.29,0,0,0,1.89,2.43c-3.64-.46-7-2.94-10-5.48a133.6,133.6,0,0,1-28.48-34.84c.2-2.22.5-4.42.88-6.61A120.4,120.4,0,0,0,1585.66,378Z"/><path class="cls-22" d="M1602.16,370.67c-4.49,4.52-10.51,6.57-16.47,7.33a120.64,120.64,0,0,1-37-44.68c.21-1.19.45-2.37.73-3.55,1-4.31,2.48-8.88,1.21-13-.5-1.62-1.39-3-1.92-4.65-1.17-3.5-.51-7.46.12-11.2,1.88-11.19,3.4-22.57,2.48-33.79-.9-11-4.11-21.42-7.3-31.76l-2.44-7.93a97.86,97.86,0,0,1,13.41,3.89c7.83,2.9,10.8,5.16,21.91,9.75a95.57,95.57,0,0,0,9.35,3.6,45.54,45.54,0,0,1,6,2c1.76.73,3,1.39,3.36,1.57,5.24,2.71,16.23,5.54,24.09,8.61,4.61,1.8,3,1.77,20.61,11.05,5.38,2.84,9.75,5.1,13.38,7-11.38,31.52-28.09,60.75-46.08,88.52A43.09,43.09,0,0,1,1602.16,370.67Z"/><path class="cls-22" d="M1543.59,398.42c6.52-18.25,2.46-38.47,4.16-57.82a133.49,133.49,0,0,0,28.49,34.56c3,2.52,6.35,5,10,5.44h0a10,10,0,0,0,10.58,2.24c-11.88,16.78-23.81,33.61-37.61,48.47-9.55,10.28-20.07,19.63-31.55,26.92a55.29,55.29,0,0,1-6.11-.34c-6.23-.62-9.38-1-11.29-2.9-2.53-2.55-1.75-5.2-4.08-8.08A186.4,186.4,0,0,0,1527,424.79C1533.59,416.83,1540,408.4,1543.59,398.42Z"/><path class="cls-22" d="M1576.25,375.12c2.94,2.54,6.34,5,10,5.48h0c-3.64-.46-7-2.92-10-5.44a133.49,133.49,0,0,1-28.49-34.56c0-.11,0-.21,0-.32A133.6,133.6,0,0,0,1576.25,375.12Z"/><path class="cls-9" d="M1559.2,431.31c13.8-14.86,25.73-31.69,37.61-48.47a10,10,0,0,1-10.58-2.24,9.32,9.32,0,0,0,3-.11c-1.2-.81-2.39-1.63-3.56-2.49,6-.76,12-2.81,16.47-7.33a43.09,43.09,0,0,0,5.45-7.25c18-27.77,34.7-57,46.08-88.52l3.66,1.89c-4.31,3.64-7.91,8-8.9,12.77-2.11,10.11,7.64,21.58,19.69,29.85-.94,2.41-2,4.79-3.14,7.11-8.32,16.73-21.66,29.65-34.88,41.92-5.26,4.89-10.87,10.28-12.51,17.61-.47,2.14-.6,4.41-1.55,6.35-1.36,2.8-4.06,4.32-6.37,6.28a.6.6,0,0,0-.34-.09c-.38,0-.61.46-1,1.34l-.18.2c-2.24,2.49-3.33,5.8-4.23,9.2a3.39,3.39,0,0,0-.26,1c-.33,1.29-.65,2.58-1,3.84-2.73,9.67-8.15,18.18-13.59,26.42a155.27,155.27,0,0,1-12.65,17.24,75.32,75.32,0,0,1-19.15,15.6,13.15,13.15,0,0,0-8.92-2.9,7.43,7.43,0,0,0-2.66.73c-3.41-6.67-9.16-11.89-15.23-12.86a17,17,0,0,0-2.86-.15C1539.13,450.94,1549.65,441.59,1559.2,431.31Z"/><path class="cls-9" d="M1668.14,319.41c-12.05-8.27-21.8-19.74-19.69-29.85,1-4.75,4.59-9.13,8.9-12.77,8.93,4.63,12.78,6.7,18,10.42A118.6,118.6,0,0,1,1668.14,319.41Z"/><path class="cls-9" d="M1585.69,378h0c1.17.86,2.36,1.68,3.56,2.49a9.32,9.32,0,0,1-3,.11,10.25,10.25,0,0,1-1.88-2.43C1584.8,378.13,1585.24,378.08,1585.69,378Z"/><path class="cls-9" d="M1584.35,378.17h0l1.32-.15h0C1585.24,378.08,1584.8,378.13,1584.35,378.17Z"/><path class="cls-9" d="M1557.32,473.41a71.87,71.87,0,0,1-9.14,4.43,2.8,2.8,0,0,0-.06-.28,29.55,29.55,0,0,0-2.38-6.32,7.43,7.43,0,0,1,2.66-.73A13.15,13.15,0,0,1,1557.32,473.41Z"/><path class="cls-23" d="M1608.38,399.93c-.36.91-.86,2.3-1.78,4.29-1.33,2.85-2.21,4.06-2.63,5.11.9-3.4,2-6.71,4.23-9.2Z"/><path class="cls-9" d="M1534.36,336.18a11.47,11.47,0,0,0-.5-5.79c-.71-1.55-2.06-2.59-2.93-4a7.52,7.52,0,0,1-.75-1.67c2.84,0,5.68,0,8.51.09-2.83-.07-5.67-.13-8.51-.09a9.59,9.59,0,0,1-.41-3.31c1.33,0,2.66.13,4,.27-1.32-.14-2.65-.23-4-.27.13-3.54,1.74-7.43,3-10.92,3.67-10.39,3.67-21.77,2.89-32.72-1.32-18.54-4.72-36.7-8.77-54.67,2.57.76,6,1.82,14.71,4.35l2.44,7.93c3.19,10.34,6.4,20.79,7.3,31.76.92,11.22-.6,22.6-2.48,33.79-.63,3.74-1.29,7.7-.12,11.2.53,1.61,1.42,3,1.92,4.65,1.27,4.14-.2,8.71-1.21,13-.28,1.18-.52,2.36-.73,3.55-1-2.15-2.06-4.33-3-6.56.94,2.23,2,4.41,3,6.56,0,.12,0,.24,0,.35h0c-.39,2.18-.67,4.38-.88,6.59-1.32-2.32-2.59-4.67-3.78-7.07,1.19,2.4,2.46,4.75,3.78,7.07,0,.1,0,.2,0,.31l0,0c-1.7,19.35,2.36,39.57-4.16,57.82-3.56,10-10,18.41-16.56,26.37a186.4,186.4,0,0,1-20.86,22.12,8.24,8.24,0,0,0-.76-.84c-1.54-1.51-3.11-2.14-5.83-3-6.2-2-9.3-2.95-13.93-3.35a54.46,54.46,0,0,1-9.57-2.08C1507.88,415.84,1530.65,377.14,1534.36,336.18Z"/><path class="cls-9" d="M1547.75,340.6l0,0c0-.11,0-.21,0-.31v0C1547.76,340.39,1547.76,340.49,1547.75,340.6Z"/><path class="cls-9" d="M1547.76,340.26c.21-2.21.49-4.41.88-6.59h0c-.38,2.19-.68,4.39-.88,6.61Z"/><path class="cls-20" d="M1625.87,413c2-.61,6.4,1.3,8.16,2.17a10.38,10.38,0,0,1,5.63,6.6,4.25,4.25,0,0,1-.66,3.92,3.53,3.53,0,0,1-3.48.58c-2.89-.74-5.42-2.58-7.87-4.41a12.55,12.55,0,0,1-2.86-2.64C1623.37,417.19,1623.25,413.75,1625.87,413Z"/><path class="cls-20" d="M1718,313.16a52.77,52.77,0,0,0-2.17-11.89c.62,1.36,1.2,2.76,1.73,4.18q.15.81.36,1.83C1718.26,308.91,1719,312,1718,313.16Z"/><path class="cls-20" d="M1721.39,336.28a51.76,51.76,0,0,0,2.68,12.16c1,2.95,2.66,6.06,5.44,6.81a3.26,3.26,0,0,1,1.58.64,3.09,3.09,0,0,1,.42,2.46,54.92,54.92,0,0,1-3.57,14c-.51,1.28-1.47,2.77-2.67,2.47a2.18,2.18,0,0,1-1.22-1c-1.75-2.73-1.44-6.46-1.54-9.86-.19-6.55-2.14-12.78-3.16-19.2a86,86,0,0,1-.92-12.22c.91-.16,1.81-.35,2.71-.57C1721.19,333.39,1721.26,334.84,1721.39,336.28Z"/><path class="cls-20" d="M1717.92,307.28q-.21-1-.36-1.83a51.68,51.68,0,0,1,2.82,10.45c.8,5.26.58,10.67.76,16-.9.22-1.8.41-2.71.57-.12-6.45.09-13-.43-19.35C1719,312,1718.26,308.91,1717.92,307.28Z"/><path class="cls-9" d="M1502.67,79.57q-3.51-30.18-7.47-60.3-1.26-9.64-2.58-19.27h-8.9q2.9,22.11,5.82,44.22,4.08,30.47,8.23,60.92c1.37,10,2,20.6,4.18,30.37,1.58,7.12,3.6,7.74,5.6,0,2.07-8-.59-17.83-1.46-25.76Q1504.44,94.67,1502.67,79.57Z"/><path class="cls-9" d="M1660.27,19.29l.21-.59c-.2-.09-.39-.19-.58-.29Z"/><path class="cls-9" d="M1658.87,17.77a11,11,0,0,0,1,.64l-3.44-8.31C1656.51,12.31,1656.46,16.05,1658.87,17.77Z"/><path class="cls-9" d="M1766.4,14.53c-7,13.12-14.26,26-21.56,38.92l-32.33,57.18a138.57,138.57,0,0,1-8.28-41c-.13-2.58-.27-5.4-1.85-7.23-.67-.78-1.55-1.3-2.27-2-3.09-3.06-2.62-8.53-2.24-13.21,1.26-15.82-1.37-31.45-3.09-47.12H1667q-3.26,9.35-6.5,18.7c1.89.92,4,1.41,5.87,2.35,7,3.48,10.3,12.44,11.69,20.91,2,12.46,1.59,14.27,5.13,25,.91,2.75,3,7.05,7.21,15.65,12.46,25.54,10.89,18.84,15.79,30,3,6.82,4.46,11.35,7.16,11.34,3.16,0,5.7-6.26,6.62-8.42,11.34-26.92,34-48.42,59.34-102.85,2-4.21,3.85-8.46,5.71-12.73h-11C1771.47,4.86,1769,9.72,1766.4,14.53Z"/></g></svg>