<svg xmlns="http://www.w3.org/2000/svg" xmlns:xlink="http://www.w3.org/1999/xlink" width="1920" height="1080" viewBox="0 0 1920 1080"><defs><style>.cls-1{fill:url(#radial-gradient);}.cls-2{opacity:0.51;}.cls-3{fill:none;}.cls-4{fill:#9b2256;}.cls-5{fill:#c23772;}.cls-6{fill:#f3529e;}.cls-7{fill:#575757;}.cls-8{fill:#8b8b8b;}.cls-9{fill:#3a3a3a;}.cls-10{fill:#e300e7;}.cls-11{fill:#474747;}.cls-12{fill:#3e3e3e;}.cls-13{fill:url(#linear-gradient);}.cls-14{fill:#fff;}.cls-15{fill:#ff00f3;filter:url(#AI_GaussianBlur_4);}.cls-16{fill:#ffc2ff;}</style><radialGradient id="radial-gradient" cx="956.82" cy="539.5" r="784.19" gradientTransform="translate(0 0.18)" gradientUnits="userSpaceOnUse"><stop offset="0" stop-color="red"/><stop offset="1"/></radialGradient><linearGradient id="linear-gradient" x1="570.24" y1="453.14" x2="1369.19" y2="453.14" gradientTransform="translate(1876.31 1.58) rotate(129.95)" gradientUnits="userSpaceOnUse"><stop offset="0" stop-color="#f0f"/><stop offset="1" stop-color="red"/></linearGradient><filter id="AI_GaussianBlur_4" name="AI_GaussianBlur_4"><feGaussianBlur stdDeviation="4"/></filter></defs><g id="baggurnd"><rect class="cls-1" x="0.5" y="0.68" width="1919" height="1078.82"/><path d="M1919,1.18V1079H1V1.18H1919m1-1H0V1080H1920V.18Z"/></g><g id="splat"><g class="cls-2"><path class="cls-3" d="M637.32,336.84c-1.45-.64-4,2.1-5.56,3.71-3.35,3.53-2.82,5-5.57,7.41a44.26,44.26,0,0,0,11.13-9.27l.76-.74A1.45,1.45,0,0,0,637.32,336.84Z"/><path class="cls-3" d="M1160.81,311.23c0-2.7-.41-3.5,0-4.87,1-3.48,4.59-5,6.28-6.49,4.79-4.19-.23-12.42-3-19.25l-.2.08c-7.81,3.44-11.22,6.42-16.45,5.64-4.4-.66-7.21-4-11-7.52-10.5-9.71-9.19-17.82-21.94-45.08-5.92-12.68-7.56-13.82-9.14-20.66-.88-3.83-1.68-9.2-3.65-9.4-1.08-.11-2.21,1.38-3,2.67,6.64,11.91,13.3,28.11,10.09,41.49-.35,1.47-1.58,6.07-3.71,14.83-5.15,21.2-5.46,25.13-5.57,27.81-.31,7.74.84,8.79,0,16.69-.41,3.93-1,6.11,0,9.27,1.67,5.51,6.19,8.44,5.57,9.27a.35.35,0,0,1-.23.14c3.76,2.39,7.58,3.79,11.37,3.57a91.46,91.46,0,0,0,13-1.85c9.14-2.11,11.14-4.85,18.57-5.56,5.28-.51,8.38.06,12.72.11.1-.79.2-1.7.27-2.77Z"/><path class="cls-3" d="M800.68,290.48c-1.86-12.67-2.79-19-7.42-31.52-2.16-5.81-2.71-12.39-2.26-19.16a8,8,0,0,0-1.84,1.45c-3.08,3.27-2.77,7.56-3.65,7.52-1.23-.06-1.77-8.39-1.83-9.39-.15-2.34-.13-3.84,0-11.28.12-7.25.14-7.89,0-9.39a61.49,61.49,0,0,0-1.83-9.39c-1.77-7.33-2.66-11-3.66-11.27-3.39-1-9.48,10.77-14.62,20.66-3.71,7.13-3.18,7.15-7.31,15-5,9.61-6.45,10.77-9.14,16.91-4,9.2-2.09,9.35-5.49,16.9-2.29,5.09-7.77,17.28-18.28,20.67-3.3,1.06-4,.25-9.14,1.88a74.94,74.94,0,0,0-11.78,5.1c-.18,2.52.24,4.75,1.72,6.41s4.65,3.44,5.57,7.42c.36,1.55,0,2.47,0,5.56v8.6c2.54.27,5.57.5,9.28.67,15,.66,13.28-1,22.28,0,19.8,2.28,28,10.5,39,5.56,2.12-.95,2.16-1.41,7.43-5.56,0,0,2.47-1.95,7.13-5.21.41-2.52,4.14-6.56,5.86-13.33C801.8,301,801.65,297.1,800.68,290.48Z"/><path class="cls-3" d="M598.34,353.53a27.33,27.33,0,0,0-3.94.79,64.58,64.58,0,0,0,11.73-.58C603.69,353.56,602,353.06,598.34,353.53Z"/><path class="cls-3" d="M1296.77,346.94c-.49.5-1.62.16-3.61-.36,5.24,6.41,10.07,12.62,14.3,18.07a171.6,171.6,0,0,1,13,18.54l.67,1.14c5.88,10,7.37,15.23,14.18,26.67,4.45,7.49,7.39,11.27,11.14,16.69,0,0,4.17,6,9.47,14.85,6.67.66,10.1-2.6,14.66,0,2.38,1.35,3.44,3.37,5.57,7.42,3.66,7,2.08,9.15,5.57,14.83,2.32,3.79,3.28,3.24,5.57,7.42,2,3.72,1.48,4.54,3.71,9.27a88.67,88.67,0,0,0,5.57,9.27c3.37,5.24,4.45,6.42,5.57,7.42,2.69,2.4,3.24,1.67,5.57,3.71,4.77,4.17,3.12,7.85,7.42,11.12,3.39,2.57,5.5,1.12,7.43,3.71a5,5,0,0,1,1,2.94c13.52-8.1,25.84-18.36,34.5-31.45,6.39-9.65,10.71-21.78,7.09-32.78-2.1-6.38-6.63-11.64-11.07-16.69-15.82-18-33.39-36.67-55.34-45,1.65,1.91,3.26,3.87,4.81,5.87-1.55-2-3.16-4-4.81-5.87a68.2,68.2,0,0,0-12.08-3.41,68.2,68.2,0,0,1,12.08,3.41,148.36,148.36,0,0,0-98-50.25c-2.12-.19-4.26-.31-6.4-.31C1296.11,345.25,1297.39,346.32,1296.77,346.94Z"/><path class="cls-3" d="M969.61,472.19c-9.05-1.13-15.45-3.12-29.7-3.71-3.92-.16-4.36-.05-22.28,0-2.6,0-14.18,0-26,0-24.12-.07-23.26-.34-27.84,0-12.45.92-12.49,2.41-27.85,3.71l-6.56.53c13,11.19,25.92,22.56,40.81,31,50.22,28.65,120.09,16.43,157.56-27.56,3.16-3.71,6.14-7.63,9.3-11.35-3.38.52-7.26,1.11-11.76,1.77C994.52,471.13,978.93,473.35,969.61,472.19Z"/><path class="cls-4" d="M563.07,437c10.29,2.74,16.77,4.47,24.13,9.27,6,3.91,3.81,4.15,13,11.13,6.14,4.66,11.53,7.91,18.56,14.83.77.76,1.44,1.45,2,2.12,7.35-14.67,14-29.63,16.76-45.71,4.24-24.3-2.53-52.54-23.42-65.69-9.18-5.78-19.8-7.78-30.49-6.92-6.14,2.3-10.25,6.08-15,10.51a83.12,83.12,0,0,0-18.56,26c-4.87,10.61-5.17,17.09-13,29.67-1.7,2.73-3,4.59-3.71,5.56-1.46,2.08-2.92,4.38-4.38,6.82a50.55,50.55,0,0,1,11.8-1.26C548.46,433.07,553.75,434.48,563.07,437Z"/><path class="cls-5" d="M1321.13,384.33l-.67-1.14a171.6,171.6,0,0,0-13-18.54c-4.23-5.45-9.06-11.66-14.3-18.07a43.18,43.18,0,0,0-6.84-1.26,29.49,29.49,0,0,0-3.67-.16c-6.29,2.54-11,7.45-14.49,13.41,1.1.21,2.2.44,3.28.7C1289.77,363.75,1306.08,372.92,1321.13,384.33Z"/><path class="cls-5" d="M1260.56,379.13a71.8,71.8,0,0,1,7.6-20.56c-11.83-2.26-25.21-1.38-32.74,7.7-5.28,6.36-6.28,15.44-4.55,23.52s5.86,15.42,10,22.57q8.65,14.91,17.7,29.57A164.76,164.76,0,0,1,1260.56,379.13Z"/><path class="cls-5" d="M1287,501.86c-.26-2.24-1.79-3.34-3.71-5.57-1.6-1.85-2.92-4.32-5.57-9.27-3.27-6.12-2.83-6.93-5.57-11.12-2.54-3.9-3.26-3.72-3.71-5.56-.74-3.06.59-6.12,2.35-8.79q-6.18-9.76-12.25-19.62a129.77,129.77,0,0,0,15.15,43.15A110.83,110.83,0,0,0,1287,503.45,4.94,4.94,0,0,0,1287,501.86Z"/><path class="cls-5" d="M614.15,362.91c20.89,13.15,27.66,41.39,23.42,65.69-2.8,16.08-9.41,31-16.76,45.71,2.55,2.77,3.75,4.86,3.52,7.15-.2,1.92-1.25,2.61-5.57,7.42-1.12,1.25-2,2.24-2.67,3.06a81.58,81.58,0,0,1,14.76-2.07c17-26.83,38.07-50.09,66-65.2,48.8-26.44,108.1-21.87,162.94-13.21s111.34,20.64,165.12,6.88c11.66-3,23.2-7.18,35.23-7.32,12.46-.14,24.52,4.1,36.17,8.53a870.4,870.4,0,0,1,165.32,84c6.84,4.45,13.64,9,20.27,13.82.47-1.39.88-2.64,1.25-3.74q2.06-6.17,2.08-6.21a14.61,14.61,0,0,0,1.79-4,110.83,110.83,0,0,1-13.25-18.37,129.77,129.77,0,0,1-15.15-43.15q-9-14.69-17.7-29.57c-4.15-7.15-8.28-14.49-10-22.57s-.73-17.16,4.55-23.52c7.53-9.08,20.91-10,32.74-7.7,3.51-6,8.2-10.87,14.49-13.41-3.53.06-5.45.76-11,.16a53.49,53.49,0,0,1-8.36-1.63c-3.79-1.05-6.09-1.69-8.37-3.24-3.1-2.11-2.5-3.4-6.27-6.5-1.72-1.4-4.64-3.8-6.28-3.24-2.38.81.53,7-2.09,8.11-1.42.6-4.43-1.22-10.46-4.87-4.8-2.89-5.69-3.89-6.28-4.86-1.4-2.33-.51-3.51-2.09-4.87s-3.61-1.49-8.36-1.63c-5.94-.17-8.75,0-12.55,0-10.16,0-11-1.21-14.65,0-4,1.34-3.18,2.91-8.36,4.87a25,25,0,0,1-10.46,1.63c-2.64-.18-4.92-.33-6.28-1.63-1.17-1.12-.69-2.19-.27-5.34-4.34-.05-7.44-.62-12.72-.11-7.43.71-9.43,3.45-18.57,5.56a91.46,91.46,0,0,1-13,1.85c-3.79.22-7.61-1.18-11.37-3.57-.55.13-2-.26-5.34-2,0,0-7.78-4.1-13-5.56-6.54-1.84-8.62.56-20.42,1.85-2.7.3-10.46.2-26,0-16.25-.21-16.23-.37-18.56,0-12.32,2-13.42,6.6-24.14,7.42-7.37.56-7.63-1.57-18.56-1.86-7.16-.18-10.82.64-17,1.45a71.56,71.56,0,0,1-1.15,16.4c-1.82,9.63-11.7,17-21.47,16.06s-18-10.13-17.91-19.93A19.61,19.61,0,0,1,926,327.5c-15.75-1.28-23.8-2-32.53-7.35-5.73-3.5-5.85-5.36-11.14-7.42-2.81-1.09-6.32-1.94-26,0l-1.67.17a25.19,25.19,0,0,1,1.67,4.5c1.19,6.11-5.18,10.93-11,13.16-7.16,2.74-15.6,4-22.22.17l3.24-11c.1-.33.19-.68.27-1a26,26,0,0,1-5.57,1.46c-5.39.83-6.65-.31-14.85,0-7.74.3-10.09,1.45-11.14,0a1.92,1.92,0,0,1-.29-1.5c-4.66,3.26-7.13,5.21-7.13,5.21-5.27,4.15-5.31,4.61-7.43,5.56-11,4.94-19.18-3.28-39-5.56-9-1-7.28.66-22.28,0-3.71-.17-6.74-.4-9.28-.67v.67c.32,6.17,1.3,7.67,0,9.27s-3.23,1.65-5.57,1.85a17.63,17.63,0,0,1-9.28-1.85c-4.6-2.24-3.89-4-7.42-5.56-3.21-1.39-4,0-13,0-3.38,0-5.87-.2-11.14,0-4.22.16-6.14.41-7.42,1.85s-.61,2.91-1.86,5.56c-.52,1.11-1.31,2.25-5.57,5.57-5.35,4.16-8,6.23-9.28,5.56-1.89-1-.55-5.87-1.1-8.16l-.76.74A44.26,44.26,0,0,1,626.19,348c-2,1.78-4.07,2.51-7.43,3.71a38.8,38.8,0,0,1-7.42,1.86,23.94,23.94,0,0,1-5.21.21,64.58,64.58,0,0,1-11.73.58c-3.13.85-4.75,1.82-5.34,1.06a.84.84,0,0,1,0-.86,23.63,23.63,0,0,0-3.66.86c-.59.18-1.14.4-1.69.61C594.35,355.13,605,357.13,614.15,362.91Z"/><path class="cls-4" d="M1274.05,457.36c3.22-3.87,6.34-6,11.14-9.27a66.43,66.43,0,0,1,13-7.42c2.85-1.15,5.31-1.83,18.57-3.71,20.22-2.86,22.39-2.4,24.13-1.85,7.75,2.42,7.63,6.62,14.85,7.41l.19,0c-5.3-8.81-9.47-14.85-9.47-14.85-3.75-5.42-6.69-9.2-11.14-16.69-6.81-11.44-8.3-16.66-14.18-26.67-15.05-11.41-31.36-20.58-49.69-25.06-1.08-.26-2.18-.49-3.28-.7a71.8,71.8,0,0,0-7.6,20.56,164.76,164.76,0,0,0-2,62.8q6.06,9.85,12.25,19.62A48,48,0,0,1,1274.05,457.36Z"/><path class="cls-5" d="M1263.75,554.28c-8.3-8.23-16.7-16.36-25.33-24.26-38.35-35.13-82-66.35-132.25-80-19.33-5.25-41.59-7.32-58,4.21a61,61,0,0,0-11.15,10.63c18.94-2.91,22.08-3.64,29.08-1.94,6.29,1.53,13.62,4.51,26,5.56,9.34.79,10-.52,16.7,0,11.22.89,15.07,5,40.84,18.54,6.59,3.46,14.77,7.75,26,13,12.81,6,15.37,6.54,24.14,11.13A172.89,172.89,0,0,1,1223.93,526c12.73,9.59,19.74,18.89,24.13,24.1.8,1,3.33,4,7.09,7.94a5.8,5.8,0,0,1,.34-.52C1257.36,555,1259.85,556.08,1263.75,554.28Z"/><path class="cls-5" d="M745.07,433.89c-11.25,1.15-22,5.39-32,10.49-42.8,21.63-75.92,60.46-92.81,105.2l.4.48c2,2.29,3.91,4,5.54,5.9a16,16,0,0,1,8-.68,86.16,86.16,0,0,1,6.92-8.92c4.12-4.71,5.65-5.64,7.42-9.28,2.52-5.16,2.85-9.76,7.43-14.83,3.36-3.73,6.06-3.51,14.85-7.41,9.31-4.15,9.9-7.14,16.71-9.28,3.88-1.21,5.13-.93,11.13-1.85a141,141,0,0,0,22.28-5.56c8.86-3.11,8.08-4.6,24.13-13,9.32-4.87,15.75-7.58,24.13-11.13,17.38-7.34,21.24-7.57,24.14-7.41,7.76.41,8.1,3.51,18.56,5.56,5.59,1.1,10.36,1.06,17.57.53-5.6-4.8-11.22-9.57-17-14.06C793,443.72,769.44,431.41,745.07,433.89Z"/><path class="cls-6" d="M1048.21,454.23c16.37-11.53,38.63-9.46,58-4.21,50.21,13.65,93.9,44.87,132.25,80,8.63,7.9,17,16,25.33,24.26.33-.15.67-.31,1-.51,3.36-1.88,5.21-4.64,7.39-9,.6-1.2,1.21-2.49,1.89-4,2.51-5.38,1.93-5.74,7.42-22.25q.21-.6.39-1.17c-6.63-4.79-13.43-9.37-20.27-13.82a870.4,870.4,0,0,0-165.32-84c-11.65-4.43-23.71-8.67-36.17-8.53-12,.14-23.57,4.34-35.23,7.32-53.78,13.76-110.29,1.78-165.12-6.88s-114.14-13.23-162.94,13.21c-27.89,15.11-48.92,38.37-66,65.2,4.37-.1,8,.52,10,2.33,8.38,7.29-21.18,27.83-27.1,33.54-.85.82-1.68,1.66-2.52,2.49,2,7.57,2.43,13.63,8.94,21.35,16.89-44.74,50-83.57,92.81-105.2,10.09-5.1,20.79-9.34,32-10.49,24.37-2.48,47.88,9.83,67.27,24.77,5.83,4.49,11.45,9.26,17,14.06l6.56-.53c15.36-1.3,15.4-2.79,27.85-3.71,4.58-.34,3.72-.07,27.84,0,11.81,0,23.39,0,26,0,17.92-.05,18.36-.16,22.28,0,14.25.59,20.65,2.58,29.7,3.71,9.32,1.16,24.91-1.06,55.69-5.56,4.5-.66,8.38-1.25,11.76-1.77A61,61,0,0,1,1048.21,454.23Z"/><path class="cls-5" d="M826.67,318.69c-.08.34-.17.69-.27,1l-3.24,11c6.62,3.86,15.06,2.57,22.22-.17,5.81-2.23,12.18-7.05,11-13.16a25.19,25.19,0,0,0-1.67-4.5c-11.75,1.17-17.93,1.86-22.46,3.54C830,317.27,828.39,318,826.67,318.69Z"/><path class="cls-7" d="M828.46,299.87l1.75-1.93-9.73.12a71.93,71.93,0,0,0,20.59-20.39A49.23,49.23,0,0,1,826,274.1a16.32,16.32,0,0,0,2.67-7.75l-7.38-.66c0-4.53,6.1-7.22,6.21-11.76.06-2.45-1.71-4.53-2.43-6.87-1.58-5.2,2.12-10.4,5.59-14.58l-8-6.2c5.55-4.58-2-15.41,3.29-20.31a43.86,43.86,0,0,1-11.09-2.4l-.07.11c-8,14.62-11,22.55-11,22.55-1.5,4-3,8.73-7.32,11.27-2.07,1.21-3.78,1.34-5.47,2.3-.45,6.77.1,13.35,2.26,19.16,4.63,12.51,5.56,18.85,7.42,31.52,1,6.62,1.12,10.47,0,14.84-1.72,6.77-5.45,10.81-5.86,13.33,4.74-3.31,11.75-8,20.71-13.33A58.13,58.13,0,0,1,828.46,299.87Z"/><path class="cls-7" d="M826.67,316.08c-.43-1.16-2-1.95-2.94-1.17,1.92-3.13,3.14-8.37-.36-9.46l5.09-5.58a58.13,58.13,0,0,0-12.93,5.45c-9,5.35-16,10-20.71,13.33a1.92,1.92,0,0,0,.29,1.5c1,1.45,3.4.3,11.14,0,8.2-.31,9.46.83,14.85,0a26,26,0,0,0,5.57-1.46A4.63,4.63,0,0,0,826.67,316.08Z"/><path class="cls-8" d="M875.08,154.84c-8.32,5.35-8,5.76-16.45,11.27-14.37,9.35-14.92,7.9-21.94,13.15-4.36,3.26-14.56,11.06-21.87,24.31a43.86,43.86,0,0,0,11.09,2.4c-5.27,4.9,2.26,15.73-3.29,20.31l8,6.2c-3.47,4.18-7.17,9.38-5.59,14.58.72,2.34,2.49,4.42,2.43,6.87-.11,4.54-6.26,7.23-6.21,11.76l7.38.66A16.32,16.32,0,0,1,826,274.1a49.23,49.23,0,0,0,15.12,3.57,71.93,71.93,0,0,1-20.59,20.39l9.73-.12-1.75,1.93c10.13-3.06,22-4.61,32.9-5.36-2.56-.3-4.94-1.36-5-3.74a6.15,6.15,0,0,1,1.11-3q2.82-4.85,5.66-9.67c2.68-4.59,5.59-9.4,10.29-11.88l-13.29-8.45,2.71-4.82a5.57,5.57,0,0,1-.46-11.11l-13.92-.72c-2.46-.13-5.77-1.2-5.42-3.64a86.26,86.26,0,0,1,22.25-17.7,15.54,15.54,0,0,0-8.18-2.1q4.17-5.35,8.32-10.72c-2.21.89-4.42-2-3.85-4.31s2.7-3.84,4.72-5.09,4.22-2.62,5.07-4.84a34.37,34.37,0,0,1-8-.63,75.79,75.79,0,0,1,19.77-24.58l-7.33.27q14.75-13.16,28.28-27.59c-.24-.61-.49-1.23-.74-1.84-1.79.94-3.88,2-6.39,3.38C897,141.69,887.48,146.86,875.08,154.84Z"/><path class="cls-8" d="M854.07,308.59a8.94,8.94,0,0,1,1.86-3.26l8.4-10.78a14.11,14.11,0,0,1-3,0c-10.85.75-22.77,2.3-32.9,5.36l-5.09,5.58c3.5,1.09,2.28,6.33.36,9.46.95-.78,2.51,0,2.94,1.17a4.63,4.63,0,0,1,0,2.61c1.72-.65,3.34-1.42,5.57-2.25,4.53-1.68,10.71-2.37,22.46-3.54A7.06,7.06,0,0,1,854.07,308.59Z"/><path d="M1057.17,273.19a21.22,21.22,0,0,0-1.8,4.8A30.11,30.11,0,0,0,1057.17,273.19Z"/><path class="cls-8" d="M1066.4,205.31l-1.45-1.85c-1.76-2.26-3.53-4.52-5.5-6.59,1.69.23,3.43.5,5.14.85-.4-.51-.8-1-1.23-1.55a111.08,111.08,0,0,0-12.8-13.15c-5.36-4.7-8.15-7.14-12.79-9.39-.44-.22-.84-.4-1.21-.56-.45.27-.89.55-1.31.86s-1.17,1-1.07,1.72a2.12,2.12,0,0,0,.8,1.19l10.08,9.45c-2.71-.68-4,3.56-2.71,6s3.9,4.26,4.49,7l-5.42,2a21,21,0,0,1,12,10.27,5.86,5.86,0,0,1,.81,2.84c-.15,3.33-4.56,4.41-7.88,4.22a25.15,25.15,0,0,0,7.78,9.2,2.5,2.5,0,0,1,1.27,3.27,12.88,12.88,0,0,0-5.37,2.82c3.36-1.49,6.58,2.45,7.63,6l-4.17,2.91a4.12,4.12,0,0,1,3.62,1.23,2.16,2.16,0,0,1-1.66,2c-.1,1.93,1.64,3.38,2.68,5s.75,4.59-1.18,4.58a30.49,30.49,0,0,1,.25,17.6c1.14-2.29,2.54-4.48,3.72-6.76,2-3.81,3.3-8.4,1.57-12.32l6.22-5.49a9.84,9.84,0,0,0-3.57-3.73,14.62,14.62,0,0,1,7.17-5.68,14.08,14.08,0,0,0-10.63-5.34,20.62,20.62,0,0,1,8.68-5.82l-8.44-12.29c1.19-1.55,3.68-1.45,5.33-.4s2.74,2.77,4,4.28a22.12,22.12,0,0,0,11,7.11,20.3,20.3,0,0,1-3.31-5.49Q1072.63,213.28,1066.4,205.31Z"/><path class="cls-7" d="M1065,203.46l1.45,1.85q6.22,8,12.47,15.95a99.35,99.35,0,0,0-6.37-11.94,118.8,118.8,0,0,0-7.91-11.6c-1.71-.35-3.45-.62-5.14-.85C1061.42,198.94,1063.19,201.2,1065,203.46Z"/><path class="cls-7" d="M1099.55,316.44c-1-3.16-.41-5.34,0-9.27.84-7.9-.31-8.95,0-16.69.11-2.68.42-6.61,5.57-27.81,2.13-8.76,3.36-13.36,3.71-14.83,3.21-13.38-3.45-29.58-10.09-41.49-.25.4-.47.78-.65,1.09a16,16,0,0,0-1.83,5.64c-.22,1.46-.19,2.24,0,7.51a44.55,44.55,0,0,1,0,7.51c-.51,3-1.3,3.25-1.82,5.64-1.27,5.85,2,11.19,1.82,11.27s-1.46-3.9-3.65-7.51c-2.94-4.83-5.63-5.93-9.14-9.4-.49-.48-.91-.92-1.29-1.35a22.12,22.12,0,0,1-11-7.11c-1.24-1.51-2.33-3.23-4-4.28s-4.14-1.15-5.33.4l8.44,12.29a20.62,20.62,0,0,0-8.68,5.82,14.08,14.08,0,0,1,10.63,5.34,14.62,14.62,0,0,0-7.17,5.68,9.84,9.84,0,0,1,3.57,3.73l-6.22,5.49c1.73,3.92.39,8.51-1.57,12.32-1.18,2.28-2.58,4.47-3.72,6.76a30.11,30.11,0,0,1-1.8,4.8,21.22,21.22,0,0,1,1.8-4.8,30.49,30.49,0,0,0-.25-17.6c1.93,0,2.23-3,1.18-4.58s-2.78-3.08-2.68-5a2.16,2.16,0,0,0,1.66-2,4.12,4.12,0,0,0-3.62-1.23l4.17-2.91c-1.05-3.51-4.27-7.45-7.63-6a12.88,12.88,0,0,1,5.37-2.82,2.5,2.5,0,0,0-1.27-3.27,25.15,25.15,0,0,1-7.78-9.2c3.32.19,7.73-.89,7.88-4.22a5.86,5.86,0,0,0-.81-2.84,21,21,0,0,0-12-10.27l5.42-2c-.59-2.72-3.16-4.53-4.49-7s0-6.7,2.71-6L1035,176.84a2.12,2.12,0,0,1-.8-1.19c-.1-.71.5-1.3,1.07-1.72s.86-.59,1.31-.86c-3.14-1.38-4-1.13-7.93-3.2-4.21-2.24-4.81-3.41-11-7.51-5.53-3.69-5.38-3-9.14-5.64-6.77-4.82-6.12-6.35-11-9.39-6-3.75-7.13-1.51-14.62-5.64a81.52,81.52,0,0,1-11-7.51c-3-2.47-5.2-4.73-9.14-5.64a11.09,11.09,0,0,0-5.48,0,12,12,0,0,0-5.49,3.76c-3.31,3.51-2.62,5.45-5.48,7.51a10.52,10.52,0,0,1-5.49,1.88c-.7.05-3.31.18-7.31-1.88-1.08-.56-3.33-1.82-9.14-7.51-4.29-4.21-5.5-5.91-7.31-5.64s-2.93,2.5-3.65,3.76c-2,3.49-4.51,5-10.07,7.89.25.61.5,1.23.74,1.84q-13.51,14.41-28.28,27.59l7.33-.27a75.79,75.79,0,0,0-19.77,24.58,34.37,34.37,0,0,0,8,.63c-.85,2.22-3,3.58-5.07,4.84s-4.15,2.78-4.72,5.09,1.64,5.2,3.85,4.31q-4.16,5.36-8.32,10.72a15.54,15.54,0,0,1,8.18,2.1,86.26,86.26,0,0,0-22.25,17.7c-.35,2.44,3,3.51,5.42,3.64l13.92.72a5.57,5.57,0,0,0,.46,11.11l-2.71,4.82,13.29,8.45c-4.7,2.48-7.61,7.29-10.29,11.88q-2.83,4.83-5.66,9.67a6.15,6.15,0,0,0-1.11,3c0,2.38,2.42,3.44,5,3.74a282.84,282.84,0,0,1,32.14-.32c14.28.86,27.4.92,39.51.46q-1.15-27.34-2.32-54.68c-.36-8.54-.72-17.07-.78-25.61-.08-14.2.68-28.39.48-42.59-.15-10.29-3.83-22.88-2.19-32.8,9.36,15.47,6.29,37.88,5.55,55-1.43,33.51.82,67,3,100.5,7.09-.34,13.83-.85,20.23-1.48-.88-9.94-2.16-19.1-2.38-22a417.88,417.88,0,0,1,1.65-80.25c.46,34,2,68,3.77,101.91,61-6.5,91-23.53,113.56-.37,8,8.19,19.37,25.9,31.33,33.51a.35.35,0,0,0,.23-.14C1105.74,324.88,1101.22,322,1099.55,316.44Z"/><path class="cls-7" d="M941.62,320.06c4.21.13,8.28,4.24,11.74,4.28,5.33.07,4.91-16.49,3.6-31.32-6.4.63-13.14,1.14-20.23,1.48.55,8.59,1.1,17.19,1.58,25.79A18.24,18.24,0,0,1,941.62,320.06Z"/><path class="cls-7" d="M931.4,322.83a20.6,20.6,0,0,1,2.74-1.37q-.55-13.4-1.13-26.81c-12.11.46-25.23.4-39.51-.46a282.84,282.84,0,0,0-32.14.32,14.11,14.11,0,0,0,3,0l-8.4,10.78a8.94,8.94,0,0,0-1.86,3.26,7.06,7.06,0,0,0,.63,4.31l1.67-.17c19.67-1.94,23.18-1.09,26,0,5.29,2.06,5.41,3.92,11.14,7.42,8.73,5.33,16.78,6.07,32.53,7.35A20.83,20.83,0,0,1,931.4,322.83Z"/><path class="cls-7" d="M1073.56,292.34c-22.51-23.16-52.55-6.13-113.56.37q.9,16.74,1.86,33.48c0,.32,0,.65,0,1,6.19-.81,9.85-1.63,17-1.45,10.93.29,11.19,2.42,18.56,1.86,10.72-.82,11.82-5.47,24.14-7.42,2.33-.37,2.31-.21,18.56,0,15.53.2,23.29.3,26,0,11.8-1.29,13.88-3.69,20.42-1.85,5.21,1.46,13,5.54,13,5.56,3.37,1.73,4.79,2.12,5.34,2C1092.93,318.24,1081.53,300.53,1073.56,292.34Z"/><path class="cls-9" d="M933.75,194c.74-17.15,3.81-39.56-5.55-55-1.64,9.92,2,22.51,2.19,32.8.2,14.2-.56,28.39-.48,42.59.06,8.54.42,17.07.78,25.61q1.15,27.33,2.32,54.68,1.88-.06,3.72-.15C934.57,261,932.32,227.51,933.75,194Z"/><path class="cls-9" d="M938.31,320.29c-.48-8.6-1-17.2-1.58-25.79q-1.85.09-3.72.15.57,13.41,1.13,26.81A18.87,18.87,0,0,1,938.31,320.29Z"/><path class="cls-5" d="M938.73,328.29q.24,4.79.44,9.57c.26,6.37.45,12.87-1.38,19-1.93-.88-2.29-3.42-2.38-5.54q-.49-11.61-1-23.2c-2.75-.16-5.28-.35-7.52-.53l-.88-.07a19.61,19.61,0,0,0-4.68,12.19c-.09,9.8,8.15,19,17.91,19.93s19.65-6.43,21.47-16.06a71.56,71.56,0,0,0,1.15-16.4c-1,.14-2.17.27-3.41.41A140.63,140.63,0,0,1,938.73,328.29Z"/><path class="cls-5" d="M935.41,351.3c.09,2.12.45,4.66,2.38,5.54,1.83-6.11,1.64-12.61,1.38-19q-.2-4.78-.44-9.57c-1.5-.05-2.93-.11-4.3-.19Q934.91,339.69,935.41,351.3Z"/><path class="cls-7" d="M934.43,328.1c-.1-2.21-.19-4.43-.29-6.64a20.6,20.6,0,0,0-2.74,1.37A20.83,20.83,0,0,0,926,327.5l.88.07C929.15,327.75,931.68,327.94,934.43,328.1Z"/><path class="cls-9" d="M956.23,190.8a417.88,417.88,0,0,0-1.65,80.25c.22,2.87,1.5,12,2.38,22l3-.31C958.19,258.76,956.69,224.79,956.23,190.8Z"/><path class="cls-9" d="M960,292.71l-3,.31c1.31,14.83,1.73,31.39-3.6,31.32-3.46,0-7.53-4.15-11.74-4.28a18.24,18.24,0,0,0-3.31.23c.15,2.67.29,5.33.42,8a140.63,140.63,0,0,0,19.74-.72c1.24-.14,2.36-.27,3.41-.41,0-.32,0-.65,0-1Q960.9,309.45,960,292.71Z"/><path class="cls-9" d="M934.43,328.1c1.37.08,2.8.14,4.3.19-.13-2.67-.27-5.33-.42-8a18.87,18.87,0,0,0-4.17,1.17C934.24,323.67,934.33,325.89,934.43,328.1Z"/><path class="cls-3" d="M1651.42,974.83a51,51,0,0,0,14.86,4.23c-5.44-1.95-13.24-4.87-22.87-8.78A59,59,0,0,0,1651.42,974.83Z"/><path class="cls-10" d="M1579.57,930.21c-14.47.57-26.77,10.36-37.36,20.23-5,4.69-11.16,9.7-17.46,12a5.38,5.38,0,0,0-.09,2.95c1.26,4.08,9.22,4.49,14.85,5.56,4.33.83,4.22,1.47,27.84,14.84,20.61,11.66,20.49,11.06,26,14.83a157.78,157.78,0,0,1,20.42,16.69c14.1,13.63,27.46,31.73,33.41,40.79,2.44,3.7-1.5-1.21,11.14,13,1.91,2.13,4,4.4,7.43,5.56a10,10,0,0,0,7.42,0c.58-.27,3.33-1.53,3.72-3.71.55-3.19-4.28-6.49-5.57-7.42-15.19-10.87-47.94-55.83-50.13-77.87-.17-1.72-.11-6.71,0-16.69.08-6.63.22-10.62,1.86-11.12,1.18-.36,2.17,1.37,5.57,3.71a37.32,37.32,0,0,0,7.43,3.7c2.57,1.08,5,2.09,7.37,3-9.34-6.22-17.24-14.69-25.65-22.26C1607.05,938.39,1594,929.64,1579.57,930.21Z"/><path class="cls-10" d="M1756.31,951.17c-9.6-5.74-22.2-2.54-31.74,3.31s-17.51,14.08-27.43,19.26a52.61,52.61,0,0,1-30.86,5.32c5.61,2,8.74,3,8.74,3,10.09,3.22,30.5,9.66,52,14.83,15.44,3.72-.1-.81,26,1.85,2.43.25,6.71.72,9.28-1.85,2.18-2.18,1.91-5.34,1.85-9.27-.14-9.58.3-2.15,1.86-24.1.09-1.21.16-2.3.23-3.31l-1.57-1.67A40.33,40.33,0,0,0,1756.31,951.17Z"/><path class="cls-8" d="M1337.94,576.73c7.92,14.85,12.8,31.28,12.91,47.79a7,7,0,0,1,2.69,1.2c3.11,2.42,2.12,7.4.1,10.78s-4.91,6.66-4.75,10.6c9.23,1.84,19.11-2.38,28.07.54,11.75,3.83,16.11,21.21,7.55,30.12a55.6,55.6,0,0,0,26.1,4.7,21.89,21.89,0,0,0,2.27,13,27.93,27.93,0,0,1,34.87,37.41c7.13.87,14.75,2,20,7s6.15,14.9,0,18.56c7.72,6.2,18.59,6.21,27.81,9.83s17.16,15.52,10.57,22.91c10-4.28,19.82,5.76,26.06,14.6s16.24,18.8,26.12,14.37a28.08,28.08,0,0,1,2.28,11.68c6.63-1.35,9.4,7.8,12.43,13.84,4.87,9.72,17.89,14.39,27.84,10a55.2,55.2,0,0,0,24.48,40.32c7.89,5.13,18.74,11.68,15.88,20.63-.84,2.61-2.87,5.06-2.32,7.74s3.37,4.1,5.87,5.18l19,8.17c-1.09-7.87-13.54-9.94-14.81-17.78-.94-5.76,4.92-10.7,4.9-16.53,0-12.13-21.2-11.27-26.7-22.09-1.8-3.54-1.52-7.73-2.21-11.64-1.51-8.61-7.63-15.58-13.49-22.07-6.88-7.6-18.42-15.65-26.1-8.86q-3.22-15.39-6.44-30.79a30.89,30.89,0,0,1-21.61-.92c3.35-6.17-3.5-12.69-9.19-16.82a129,129,0,0,1-20.6-18.67,21.61,21.61,0,0,1-3.8-5.38c-3.65-8.22,1.79-20.5-5.81-25.33-8.3-5.28-19.62,7.28-28.27,2.6-8-4.35-3.94-17.61-9.67-24.74-2.8-3.49-7.43-4.81-11.49-6.72a37.45,37.45,0,0,1-21-34.89c.17-3.42.81-7-.37-10.19-1.8-4.92-7.48-7.53-12.72-7.43s-10.18,2.36-14.94,4.56l-8.91-9.55c-7.6-8.14-15.78-18.81-12-29.28l-13.41,5.93c-12.15-5.47-1.74-26.25-10.1-36.61-4.5-5.57-13.71-6.84-16.21-13.55-1.53-4.09.16-8.66-.28-13-.38-3.86-4.49-7.8-7.64-6.54A100.82,100.82,0,0,1,1337.94,576.73Z"/><path class="cls-8" d="M1337.94,576.73c-5.74,5.48-11.84,9.65-18.06,12a52.7,52.7,0,0,1,4.27,6c6.71,11.12,11.22,26.23,23.88,29.17.93.21,1.89.36,2.82.59C1350.74,608,1345.86,591.58,1337.94,576.73Z"/><path class="cls-8" d="M1311.85,524.38c-.73-1.09-1.45-2.18-2.17-3.27-.61.22-1.22.44-1.81.68C1309.18,522.68,1310.5,523.55,1311.85,524.38Z"/><path class="cls-8" d="M1315.47,529.8a25,25,0,0,1-.46-3.55c-1.06-.61-2.12-1.23-3.16-1.87C1313.05,526.19,1314.26,528,1315.47,529.8Z"/><path class="cls-8" d="M1283.11,513.63c-.37,1.1-.78,2.35-1.25,3.74q6.83,4.92,13.35,10.17Z"/><path class="cls-8" d="M1349,553.23c-15,3.4-30.54-8.87-33.48-23.43-1.21-1.81-2.42-3.61-3.62-5.42-1.35-.83-2.67-1.7-4-2.59a38.37,38.37,0,0,0-11.07,7,184.73,184.73,0,0,1,29.83,30.31,128.78,128.78,0,0,1,11.31,17.59,100.82,100.82,0,0,0,13-15.38,3.4,3.4,0,0,0-1.15.72C1349.48,559.12,1349.21,556.17,1349,553.23Z"/><path class="cls-8" d="M1315,526.25a23.41,23.41,0,0,1,.6-6.75,37.93,37.93,0,0,0-5.93,1.61c.72,1.09,1.44,2.18,2.17,3.27C1312.89,525,1314,525.64,1315,526.25Z"/><path class="cls-8" d="M1295.07,565.48c1.88,2.76,3.6,5.7,6.13,7.88a41.24,41.24,0,0,0,5.25,3.49,54,54,0,0,1,13.43,11.87c6.22-2.34,12.32-6.51,18.06-12a128.78,128.78,0,0,0-11.31-17.59,184.73,184.73,0,0,0-29.83-30.31c-.09.08-.19.15-.27.23l-1.32-1.52q-6.51-5.26-13.35-10.17-.18.57-.39,1.17c-5.49,16.51-4.91,16.87-7.42,22.25-.68,1.46-1.29,2.75-1.89,4A66.75,66.75,0,0,1,1295.07,565.48Z"/><path class="cls-7" d="M1766,946.85c-1.82-7.11-5.48-9.5-14.85-20.4a261.74,261.74,0,0,1-18.56-24.1c-8.83-13.07-8.75-16.07-14.86-20.4-4.38-3.1-8.27-4.28-11.13-9.27-2.64-4.59-.49-6.14-3.72-11.12s-6.95-6.46-7.42-11.13c-.29-2.83,1-3.81,0-5.56-1.19-2.16-3.71-1.82-9.28-3.71-4.79-1.62-8.51-2.88-9.28-5.56-.82-2.83,2.5-4.31,1.85-7.42-.56-2.67-3.29-2.88-9.28-7.41-4.1-3.1-6.15-4.66-7.43-7.42-1.68-3.65-.14-5.05-1.85-9.27-1.19-2.94-2.28-3.11-5.57-7.42-5.63-7.38-4.27-9.29-7.43-11.12-5.05-2.93-9.77,1.26-13-1.86-1.77-1.71-1.8-4.39-1.86-9.27-.08-6.75,1.68-9.55,0-11.12-1.45-1.36-3.5.06-7.42,0-6.76-.11-11.79-4.51-13-5.56-5.89-5.15-2.89-8.76-9.28-14.84-2.77-2.64-4.12-2.7-9.28-7.41a71.66,71.66,0,0,1-5.57-5.57c-5.42-6.07-5.21-8.07-9.28-11.12-3.25-2.43-4.17-1.75-5.57-3.71-3-4.13.48-8.13-1.86-11.12-3.2-4.1-12,.46-14.85-3.71-1.48-2.15-.74-5.62,0-7.42,1.37-3.31,4.1-4.24,3.72-5.56s-3.07-1-7.43-1.85a36,36,0,0,1-13-5.57c-3.22-2.05-5.7-3.63-5.57-5.56.19-2.85,5.89-4.09,5.57-5.56-.23-1.06-3.23-.65-7.43-1.86-2.6-.74-7.09-2-9.28-5.56-2.72-4.38-.48-10,0-11.12-8.15-2.88-9.28-3.71-9.28-3.71-3.12-2.28-6.2-6.79-5.57-11.13s4.44-5.87,3.71-7.41c-1.27-2.71-12.86,2.64-16.71-1.86-.84-1-1.18-3.75-1.85-9.27-.54-4.39-.41-6.11-1.86-7.41-1.72-1.56-3.35-.43-5.57-1.86-2-1.28-2.19-3.15-3.71-7.41-2.22-6.21-3.32-9.31-5.57-11.13-3.18-2.59-5-.69-9.28-3.71-1-.73-4.54-3.23-5.57-7.41-.84-3.4.88-4.21,0-7.42-1-3.56-3.24-3.18-5.57-7.42-2.53-4.6-1-7.21-3.71-9.27-1.89-1.45-2.89-.35-5.57-1.85a12.11,12.11,0,0,1-5.57-7.42c-1.14-4.57,1.61-6.53,0-9.27-.95-1.61-2.17-1.41-7.43-3.71s-8.06-3.53-9.28-5.56c-1.42-2.37-.73-4.35-.83-6.33q-3.54,2.13-7.18,4.07c-16.4,8.72-34.47,14.92-53,15.32a139,139,0,0,1-12.47,22.33c3.15-1.26,7.26,2.68,7.64,6.54.44,4.35-1.25,8.92.28,13,2.5,6.71,11.71,8,16.21,13.55,8.36,10.36-2,31.14,10.1,36.61l13.41-5.93c-3.78,10.47,4.4,21.14,12,29.28l8.91,9.55c4.76-2.2,9.69-4.45,14.94-4.56s10.92,2.51,12.72,7.43c1.18,3.22.54,6.77.37,10.19a37.45,37.45,0,0,0,21,34.89c4.06,1.91,8.69,3.23,11.49,6.72,5.73,7.13,1.63,20.39,9.67,24.74,8.65,4.68,20-7.88,28.27-2.6,7.6,4.83,2.16,17.11,5.81,25.33a21.61,21.61,0,0,0,3.8,5.38,129,129,0,0,0,20.6,18.67c5.69,4.13,12.54,10.65,9.19,16.82a30.89,30.89,0,0,0,21.61.92q3.23,15.39,6.44,30.79c7.68-6.79,19.22,1.26,26.1,8.86,5.86,6.49,12,13.46,13.49,22.07.69,3.91.41,8.1,2.21,11.64,5.5,10.82,26.66,10,26.7,22.09,0,5.83-5.84,10.77-4.9,16.53,1.27,7.84,13.72,9.91,14.81,17.78l-19-8.17c-2.5-1.08-5.32-2.52-5.87-5.18s1.48-5.13,2.32-7.74c2.86-8.95-8-15.5-15.88-20.63a55.2,55.2,0,0,1-24.48-40.32c-10,4.4-23-.27-27.84-10-3-6-5.8-15.19-12.43-13.84a28.08,28.08,0,0,0-2.28-11.68c-9.88,4.43-19.88-5.53-26.12-14.37s-16.11-18.88-26.06-14.6c6.59-7.39-1.36-19.29-10.57-22.91s-20.09-3.63-27.81-9.83c6.18-3.66,5.26-13.65,0-18.56s-12.86-6.1-20-7a27.93,27.93,0,0,0-34.87-37.41,21.89,21.89,0,0,1-2.27-13,55.6,55.6,0,0,1-26.1-4.7c8.56-8.91,4.2-26.29-7.55-30.12-9-2.92-18.84,1.3-28.07-.54-.16-3.94,2.72-7.23,4.75-10.6s3-8.36-.1-10.78a7,7,0,0,0-2.69-1.2,81.28,81.28,0,0,1-1.22,14.9c-14.85-13.34-29-27.39-43-41.61q9.38,14.63,18.73,29.26c5.44,8.5,11,17.14,18.78,23.59,4,3.3,8.48,6,12.15,9.62,3.34,3.31,5.87,7.32,8.67,11.1,16.08,21.78,40.5,35.82,58.95,55.63,8.15,8.76,15.21,18.71,24.88,25.77,5,3.64,10.56,6.42,15.52,10.1,14,10.36,21.82,26.76,29.17,42.5l10.41-8.31c1.68-1.34,3.73-2.76,5.79-2.16s3,2.9,3.76,4.94l24,69.63c4.57,13.25,10.77,28.18,24.1,32.52-2.1,5-9.38,5.78-14,2.92s-7.12-8-9.42-12.93c-6.59-14.09-13.23-28.31-16.6-43.49-3.85-17.32-5.19-38.44-20.73-47q-1,6.79-1.91,13.58c-16.83-12.66-24.49-36.61-44.11-44.29-3.17-1.24-6.63-2-9.24-4.23-2.43-2-3.79-5-5.3-7.82a64.77,64.77,0,0,0-18.42-21.28c-6.45-4.78-13.84-8.4-19.43-14.16-6-6.23-9.53-14.5-15.21-21.06-6.77-7.79-16.36-12.84-22.63-21-3-3.85-5.1-8.33-8.48-11.81s-7.45-5.6-11.17-8.42c-5.4-4.09-9.77-9.37-14.08-14.6-11.73-11.71-21.82-26.5-31.66-39.82-4.57-6.18-15.1-17.94-21.9-28.76a167.33,167.33,0,0,1-22-19.77c-2.13,3.59-.12,9.46,2.19,16.17,1.9,5.51,2.62,5.15,3.71,9.27,2.18,8.14.74,14.63,1.86,14.83,1,.17,1.21-4.7,3.71-5.56,4.61-1.58,14.72,11.15,20.42,24.1,3.57,8.1,3.1,11,7.43,16.69s8,7.11,13,11.12c9.28,7.5,12.84,15.64,16.71,22.25,6.22,10.64,19.62,23.16,46.41,48.21,14.49,13.55,27.45,25.67,46.41,40.79,22.94,18.31,30.18,21.48,42.69,35.23,14.79,16.26,22.19,24.39,24.14,27.81A34.17,34.17,0,0,0,1493.1,830c3.08,2.34,3.68,1.86,5.57,3.71,3.55,3.49,3.52,7.26,5.57,16.68,2.25,10.4,3,9.09,3.71,14.84,1,7.78-.62,8.54,0,16.68.67,8.82,2.61,9.19,3.71,18.55.7,6-.13,5.45,0,18.54a126.32,126.32,0,0,0,1.86,22.25c1.53,8.47,3.08,11.32,5.57,13,2.21,1.47,4.41,1.51,5.57,3.7.84,1.62.42,3,.09,4.47,6.3-2.3,12.42-7.31,17.46-12,10.59-9.87,22.89-19.66,37.36-20.23s27.48,8.18,38.19,17.81c8.41,7.57,16.31,16,25.65,22.26,9.63,3.91,17.43,6.83,22.87,8.78a52.61,52.61,0,0,0,30.86-5.32c9.92-5.18,17.9-13.42,27.43-19.26s22.14-9.05,31.74-3.31a40.33,40.33,0,0,1,8.33,7.39l1.57,1.67C1766.76,952,1766.74,949.82,1766,946.85Z"/><path class="cls-7" d="M1415.13,513c-4.3-3.27-2.65-7-7.42-11.12-2.33-2-2.88-1.31-5.57-3.71-1.12-1-2.2-2.18-5.57-7.42a88.67,88.67,0,0,1-5.57-9.27c-2.23-4.73-1.68-5.55-3.71-9.27-2.29-4.18-3.25-3.63-5.57-7.42-3.49-5.68-1.91-7.85-5.57-14.83-2.13-4.05-3.19-6.07-5.57-7.42-4.56-2.58-8,.68-14.66,0a251,251,0,0,1,14.66,27.8c7.74,17.69,3.45,44.71-7.22,68.68,18.57-.4,36.64-6.6,53-15.32q3.64-1.94,7.18-4.07a5,5,0,0,0-1-2.94C1420.63,514.1,1418.52,515.55,1415.13,513Z"/><path class="cls-7" d="M1324.15,594.76a52.7,52.7,0,0,0-4.27-6,31.4,31.4,0,0,1-10.56,2.13,32.15,32.15,0,0,1-7.73-.86l5,7.82c14,14.22,28.19,28.27,43,41.61a81.28,81.28,0,0,0,1.22-14.9c-.93-.23-1.89-.38-2.82-.59C1335.37,621,1330.86,605.88,1324.15,594.76Z"/><path class="cls-7" d="M1307.87,521.79c.59-.24,1.2-.46,1.81-.68-13.14-19.73-26.18-39.53-38.85-59.56-1.76,2.67-3.09,5.73-2.35,8.79.45,1.84,1.17,1.66,3.71,5.56,2.74,4.19,2.3,5,5.57,11.12,2.65,5,4,7.42,5.57,9.27,1.92,2.23,3.45,3.33,3.71,5.57a4.94,4.94,0,0,1-.06,1.59A112.15,112.15,0,0,0,1307.87,521.79Z"/><path class="cls-7" d="M1296.8,528.83a38.37,38.37,0,0,1,11.07-7A112.15,112.15,0,0,1,1287,503.45a14.61,14.61,0,0,1-1.79,4s-.71,2.1-2.08,6.21l12.1,13.91Z"/><path class="cls-7" d="M1315,526.25a25,25,0,0,0,.46,3.55q3.63,5.44,7.27,10.9-3.65-5.44-7.27-10.9c2.94,14.56,18.51,26.83,33.48,23.43.26,2.94.53,5.89.79,8.84a3.4,3.4,0,0,1,1.15-.72A139,139,0,0,0,1363.36,539l-.47,0C1346.05,539.32,1329.62,534.56,1315,526.25Z"/><path class="cls-7" d="M1370.58,470.34a251,251,0,0,0-14.66-27.8l-.19,0c-7.22-.79-7.1-5-14.85-7.41-1.74-.55-3.91-1-24.13,1.85-13.26,1.88-15.72,2.56-18.57,3.71a66.43,66.43,0,0,0-13,7.42c-4.8,3.25-7.92,5.4-11.14,9.27a48,48,0,0,0-3.22,4.19c12.67,20,25.71,39.83,38.85,59.56a37.93,37.93,0,0,1,5.93-1.61,23.41,23.41,0,0,0-.6,6.75c14.61,8.31,31,13.07,47.88,12.79l.47,0C1374,515.05,1378.32,488,1370.58,470.34Z"/><path class="cls-7" d="M1277.2,577.77c-3.68-5.84-6.26-11.41-6.23-15.67,0-.2,0-.39,0-.59-2.4-2.42-4.81-4.82-7.23-7.23-3.9,1.8-6.39.73-8.26,3.2a5.8,5.8,0,0,0-.34.52A167.33,167.33,0,0,0,1277.2,577.77Z"/><path class="cls-7" d="M1296.53,529.06c.08-.08.18-.15.27-.23l-1.59-1.29Z"/><path class="cls-7" d="M1294.13,578.35l7.46,11.64a32.15,32.15,0,0,0,7.73.86,31.4,31.4,0,0,0,10.56-2.13,54,54,0,0,0-13.43-11.87,41.24,41.24,0,0,1-5.25-3.49c-2.53-2.18-4.25-5.12-6.13-7.88a66.75,66.75,0,0,0-22.91-20.74c-2.18,4.39-4,7.15-7.39,9-.35.2-.69.36-1,.51,2.42,2.41,4.83,4.81,7.23,7.23C1271.53,541,1291.22,573.79,1294.13,578.35Z"/><path class="cls-11" d="M1277.2,577.77c6.8,10.82,17.33,22.58,21.9,28.76,9.84,13.32,19.93,28.11,31.66,39.82,4.31,5.23,8.68,10.51,14.08,14.6,3.72,2.82,7.92,5.07,11.17,8.42s5.53,8,8.48,11.81c6.27,8.2,15.86,13.25,22.63,21,5.68,6.56,9.17,14.83,15.21,21.06,5.59,5.76,13,9.38,19.43,14.16a64.77,64.77,0,0,1,18.42,21.28c1.51,2.79,2.87,5.78,5.3,7.82,2.61,2.19,6.07,3,9.24,4.23,19.62,7.68,27.28,31.63,44.11,44.29q1-6.79,1.91-13.58c15.54,8.58,16.88,29.7,20.73,47,3.37,15.18,10,29.4,16.6,43.49,2.3,4.9,4.82,10.07,9.42,12.93s11.88,2.07,14-2.92c-13.33-4.34-19.53-19.27-24.1-32.52l-24-69.63c-.71-2-1.68-4.35-3.76-4.94s-4.11.82-5.79,2.16l-10.41,8.31c-7.35-15.74-15.22-32.14-29.17-42.5-5-3.68-10.54-6.46-15.52-10.1-9.67-7.06-16.73-17-24.88-25.77-18.45-19.81-42.87-33.85-58.95-55.63-2.8-3.78-5.33-7.79-8.67-11.1-3.67-3.65-8.17-6.32-12.15-9.62-7.77-6.45-13.34-15.09-18.78-23.59q-9.36-14.62-18.73-29.26-4.33-4.39-8.65-8.81C1290.85,586.72,1283.74,582.56,1277.2,577.77Z"/><path class="cls-11" d="M1297.94,589q4.32,4.41,8.65,8.81l-5-7.82C1300.37,589.72,1299.16,589.39,1297.94,589Z"/><path class="cls-11" d="M1271,561.51c0,.2,0,.39,0,.59,0,4.26,2.55,9.83,6.23,15.67,6.54,4.79,13.65,9,20.74,11.23C1289,579.82,1280,570.62,1271,561.51Z"/><path class="cls-11" d="M1301.59,590l-7.46-11.64c-2.91-4.56-22.6-37.35-23.15-16.84,9,9.11,18,18.31,27,27.49C1299.16,589.39,1300.37,589.72,1301.59,590Z"/><path class="cls-3" d="M272.47,964.72a66.34,66.34,0,0,0,7.42-5c-2.13.16-4.37,2.52-7.44,5Z"/><path class="cls-4" d="M603.82,508.26l2.16-4.57a7.17,7.17,0,0,0-2.07,3.73A8.28,8.28,0,0,0,603.82,508.26Z"/><path class="cls-5" d="M609.48,500c-1.52,1.63-2.65,2.75-3.5,3.69l-2.16,4.57a11.69,11.69,0,0,0,1.95,6.58,51.85,51.85,0,0,1,5,11.49,369.1,369.1,0,0,1,20.11-36.46,81.58,81.58,0,0,0-14.76,2.07C613,495.59,613.41,495.79,609.48,500Z"/><path class="cls-6" d="M611.28,528.23c.84-.83,1.67-1.67,2.52-2.49,5.92-5.71,35.48-26.25,27.1-33.54-2.08-1.81-5.68-2.43-10-2.33a369.1,369.1,0,0,0-20.11,36.46C610.93,527,611.11,527.61,611.28,528.23Z"/><path class="cls-10" d="M211.65,975c-8.12-2.67-14.83-8.65-23-11.34-14.9-4.93-31.67,2.52-42.19,14.17-.8.89-1.57,1.81-2.32,2.74a128,128,0,0,0,4.92,23.75c.41,1.38,1.28,4.08,3.71,5.56,3.23,2,7.33.61,9.28,0,11.91-3.74,1.78,1.74,26-5.56,6-1.81,12.82-3.89,22.28-7.42,12.52-4.68,18.78-7,26-11.12,10.4-5.92,10.14-8,20.42-13,7.78-3.8,9.88-3.59,14.86-7.42l.82-.66c-9.46,5.35-20.29,7.64-31,9.72C231.61,976.37,221.21,978.15,211.65,975Z"/><path class="cls-10" d="M356.36,933c-17.23-7.23-37.88-3.25-53.23,7.41-8.27,5.74-15.27,13.22-23.24,19.31a2.73,2.73,0,0,1,1,.1c2.19.62,3.14,3.59,3.71,5.56,3.21,11.19,6.12,21.32,1.86,35.23-1.74,5.66-2.09,3.56-7.43,16.69-5.27,13-4.3,13.48-7.42,18.54-1.51,2.43-5.34,7.18-13,16.68a49.49,49.49,0,0,0-5.57,9.27c-1.38,3-2,5.06-1.85,7.42.07,1.54.2,3.9,1.85,5.56,2.73,2.75,8,1.92,11.14,0a11.88,11.88,0,0,0,3.71-3.7,73.06,73.06,0,0,0,7.43-13c2.41-5.89,6.19-11.13,9.28-16.69,2.21-4,5.33-9.05,31.56-40.79,13-15.74,17.1-20.37,24.13-22.25,1.77-.47,6.35-1.47,13-3.71,8.23-2.77,11.67-4.75,13-5.56a49.84,49.84,0,0,0,9.28-7.42,64,64,0,0,0,6.28-7C375.11,945.34,367,937.45,356.36,933Z"/><path class="cls-7" d="M378.9,831.55c-2.95,5.54-4.34,11.83-7.54,17.24s-9.15,10-15.32,8.8A334.18,334.18,0,0,0,344,911.09,28.34,28.34,0,0,0,325,914.42a113,113,0,0,0,16.64-69.88c4.53,4.63,12.75,2.67,17.4-1.85s7-10.81,10.68-16.16c9.16-13.49,25.32-20.09,38-30.31,18-14.48,28.79-36,44.77-52.71,11.72-12.25,26-21.69,38.7-32.94,11.72-10.4,22-22.3,32.22-34.16l64.71-75c6.17-6.16,11.72-15.51,17.59-24.29A77.93,77.93,0,0,1,594.63,576c-1.7-.26-3.43-.62-5.16-1-.19.45-.37.91-.55,1.36l-1-1.76a75.21,75.21,0,0,1-8.39-2.82q-3.37-1.34-6.77-3-19.58,22.17-37.34,45.86c-12.58,16.8-24.79,35-27.5,55.81-.45,3.44-.64,7-2,10.17s-3.88,5.78-6.41,8.18c-21.65,20.51-50.65,33.72-67.08,58.6-6.06,9.19-10.6,20.14-20,25.86-5.14,3.12-11.3,4.36-16.17,7.88s-7.93,11-4,15.47c-10.1,11.13-28.55,11.69-38.16,23.25-3.24,3.89-5.15,8.69-8,12.84-10.62,15.3-31.73,19-45.85,31.09-6.37,5.47-11.13,12.52-16.48,19a26.76,26.76,0,0,1,8.8-20.7c2.87-2.55,6.67-5.31,6.12-9.1-.28-1.93-1.71-3.6-1.74-5.55s1.38-3.66,2.75-5.1a135,135,0,0,1,20-17.34L309.21,812A28.57,28.57,0,0,0,336.67,800a45.58,45.58,0,0,0-17.36-9.28,68.46,68.46,0,0,1,32.05-9.21c-.61-5.13,5.56-9.7,10.3-7.62l-3-11.07c5.71,1.14,14.47-.55,13.2-6.22a8.6,8.6,0,0,0-2.47-3.8c-5.11-5.34-10.79-14.17-5.12-18.91l8.49,1.38c0,2.1.07,4.21.11,6.31a30.79,30.79,0,0,1,19.55,2,14.43,14.43,0,0,0-10.27-15.25l21.09.29,4.79-7.21a27.37,27.37,0,0,1-10.57-7.62,60.88,60.88,0,0,0,31.47,11.24,38,38,0,0,0-10.8-23.07,14.05,14.05,0,0,1-6.4-5.2,36,36,0,0,1,6.4,5.2c5.36,2.25,12.05,1.65,16.39-2.32,2.49-2.27,4.73-5.62,8.1-5.56-.77-2.93-1.53-5.86-2.3-8.78,3.57-.88,7.1,2,10.76,1.73,5.47-.43,7.81-8,5.31-12.84s-7.81-7.52-12.77-9.85c8.25,3.65,18.62-.16,23.83-7.51,2.15-3,3.66-6.66,6.66-8.86s8.29-1.83,9.35,1.73a14.79,14.79,0,0,0-2.58-14,24,24,0,0,1-5.56-4.21,13.67,13.67,0,0,1,5.56,4.21,24.08,24.08,0,0,0,5.73,2.29c2.06.52,4.77-1.54,4.6-2.76a6.21,6.21,0,0,1-.89-.75c.58.13.84.41.89.75,5.42,3.92,14.37-2.65,14.27-9.8-.11-7.56-6-13.63-11.47-18.84a23.06,23.06,0,0,0,9.67.65,52.51,52.51,0,0,1-6.05-20.45,31.68,31.68,0,0,1,12.89,12.43,33.45,33.45,0,0,0,22.17-12.47l-14.08-11.78c7.68,5.61,20.62-1.37,20.14-10.86A32.23,32.23,0,0,0,557.58,562c0-.83-.06-1.65-.08-2.47C528.61,539,505,503.74,511.09,475.9c2.09-9.5,9.76-27.72,17.9-41.39a22,22,0,0,0-8.61,4.31c-3.23,2.65-5.34,6-7.43,9.27a73.91,73.91,0,0,0-5.57,11.12c-2,4.54-2.79,7.16-5.57,13-1,2.14-1.53,3.21-1.85,3.71-3.17,4.85-6.77,5.23-11.14,9.27-2.08,1.91-3.24,3.75-5.57,7.42-4.92,7.73-3.67,9.68-7.43,13-2.3,2-3.73,2.14-7.42,5.57-1.83,1.69-1.83,2-3.72,3.71a64.7,64.7,0,0,1-7.42,5.56c-5.84,3.93-6.74,3.93-7.43,5.56-1.17,2.78.89,4.06,0,7.42-1.28,4.83-6.92,7.21-7.42,7.41-5,2-7.5-.53-11.14,1.86-2.65,1.73-4.63,5.26-3.71,7.41,1.24,2.92,7.32,2.29,7.42,3.71s-5.52,1.3-9.28,5.56c-.51.58-1.58,2.87-3.71,7.42-2.89,6.17-3,6.5-3.71,7.42-2.53,3.11-3.88,2.18-7.43,5.56-1.44,1.38-4.8,4.57-5.57,9.27a40.5,40.5,0,0,0,0,5.56c.17,5.82.59,6.32,0,7.42-1.33,2.47-4.11,1.11-9.28,3.71a33.64,33.64,0,0,0-9.28,7.41c.46,3.17.48,7-1.86,9.27-2.59,2.49-6.35,1.33-7.42,3.71,0,0-.44,1,1.85,7.42a25.08,25.08,0,0,0-9.28,7.42,17.34,17.34,0,0,0-3.71,7.41c-.62,3.11.37,3.56,0,7.42-.26,2.73-.69,7.24-3.71,9.27a43.94,43.94,0,0,1-5.57,1.85,34.14,34.14,0,0,0-3.72,7.42c-2.23,6.29-1.25,9.53-3.71,11.13-2,1.29-3.27-.43-9.28,0-3.6.25-5.69.39-7.43,1.85-2.44,2.05-1.2,4.19-3.71,9.27A25.86,25.86,0,0,1,323.6,704c-3.72,3.43-5.51,2.89-7.42,5.56-2.25,3.14-.69,5.17-1.86,9.27-1.45,5.12-4.77,5.14-14.85,14.83-6.46,6.22-5.49,6.59-9.28,9.27-4.45,3.15-7.4,3.79-9.28,7.42-1.61,3.09-.3,4.25-1.86,7.42-2.17,4.42-6.76,6.35-9.28,7.41-8.12,3.43-12.42.43-14.85,3.71-2,2.76.57,5.45-1.86,11.13-1,2.42-1.63,2.21-3.71,5.56-3.53,5.68-2.54,7.47-5.57,13a30.69,30.69,0,0,1-7.43,9.27,42.13,42.13,0,0,1-9.28,5.56c-4.46,1.91-7.1,2.09-7.42,3.71s2.12,2.26,3.71,5.56c1.33,2.76,2,7.28,0,9.27-2.19,2.16-5.57-.58-9.28,1.86a9.8,9.8,0,0,0-3.71,5.56c-.93,3.37.75,4.21,0,7.42-.82,3.45-3.55,5.72-5.57,7.41-2.27,1.89-2.73,1.5-5.57,3.71-2.24,1.74-4.25,3.29-5.57,5.56-2.62,4.49.23,7-1.86,11.13-2.36,4.7-6.73,3-9.28,7.41-3,5.15,1.42,10.09-1.86,14.84-1.59,2.31-3.89,3-5.56,3.71-3.34,1.44-10,5.51-26,44.49-2.28,5.56-3.42,8.34-3.72,9.28,0,0-3,9.41-1.2,26.31.75-.93,1.52-1.85,2.32-2.74,10.52-11.65,27.29-19.1,42.19-14.17,8.12,2.69,14.83,8.67,23,11.34,9.56,3.14,20,1.36,29.84-.56,10.67-2.08,21.5-4.37,31-9.72,3.07-2.48,5.31-4.84,7.44-5,8-6.09,15-13.57,23.24-19.31,15.35-10.66,36-14.64,53.23-7.41,10.6,4.44,18.75,12.33,25.5,21.67,1.21-1.56,2.2-3,3-4.12a61,61,0,0,0,7.43-13A56.68,56.68,0,0,0,396,920.89c.23-2.43,0-1.71,0-16.69,0-10.48,0-15.72,0-16.68a51.23,51.23,0,0,0,0-9.27,70.88,70.88,0,0,0-1.86-9.28c-1.56-6.31-2-5.92-1.85-7.41.34-4.74,4.2-5.44,5.57-11.13.18-.77.06-.54,0-7.41-.08-8.51.12-7.81,0-13-.14-5.76-.37-6,0-7.42,1.21-4.76,5.08-7.52,7.42-9.27,0,0,6.78-5.06,18.57-16.69.55-.54,1-1.06,1.52-1.57-6.37,4.07-12.74,8.13-19.15,12.11C395.73,813.72,384.68,820.64,378.9,831.55Z"/><path class="cls-7" d="M588.92,576.34c.18-.45.36-.91.55-1.36l-1.58-.4Z"/><path class="cls-7" d="M557.5,559.56l-.27-8.19c6-3.54,8-12.45,4-18.18a10.12,10.12,0,0,0,11.31,2c8.47-5.68,18.11-14.47,14.85-24.12-1.22-3.62-4.09-7.86-1.53-10.68,1.08-1.19,2.77-1.55,4.34-1.85,4-.74,12.2-3.31,21-5.46,3.18-6.24,6.45-12.48,9.59-18.76-.61-.67-1.28-1.36-2-2.12-7-6.92-12.42-10.17-18.56-14.83-9.19-7-7-7.22-13-11.13-7.36-4.8-13.84-6.53-24.13-9.27-9.32-2.48-14.61-3.89-22.28-3.71a50.55,50.55,0,0,0-11.8,1.26c-8.14,13.67-15.81,31.89-17.9,41.39C505,503.74,528.61,539,557.5,559.56Z"/><path class="cls-7" d="M572.73,568.74q3.39,1.68,6.77,3,2.5-8.22,5.31-16.35Q578.71,562,572.73,568.74Z"/><path class="cls-7" d="M584.81,555.41q-2.79,8.13-5.31,16.35a75.21,75.21,0,0,0,8.39,2.82l-4.72-8.11,4.72,8.11,1.58.4c5.94-14.62,12.17-29.48,19-44Q596.39,542.93,584.81,555.41Z"/><path class="cls-7" d="M618.76,488.88c4.32-4.81,5.37-5.5,5.57-7.42.23-2.29-1-4.38-3.52-7.15-3.14,6.28-6.41,12.52-9.59,18.76,1.61-.4,3.24-.78,4.87-1.13C616.78,491.12,617.64,490.13,618.76,488.88Z"/><path class="cls-7" d="M624.06,557a13,13,0,0,1,2.1-1c-1.63-1.88-3.56-3.61-5.54-5.9l-.4-.48q-2.78,7.35-5,14.9A38.47,38.47,0,0,1,624.06,557Z"/><path class="cls-7" d="M589.47,575c1.73.42,3.46.78,5.16,1a77.93,77.93,0,0,0,11.14,1.08,112.35,112.35,0,0,1,9.5-12.62q2.18-7.54,5-14.9c-6.51-7.72-6.92-13.78-8.94-21.35-.93.9-1.84,1.83-2.77,2.74C601.64,545.5,595.41,560.36,589.47,575Z"/><path class="cls-8" d="M557.58,562A32.23,32.23,0,0,1,538.75,564c.48,9.49-12.46,16.47-20.14,10.86l14.08,11.78a33.45,33.45,0,0,1-22.17,12.47,31.68,31.68,0,0,0-12.89-12.43,52.51,52.51,0,0,0,6.05,20.45,23.06,23.06,0,0,1-9.67-.65c5.48,5.21,11.36,11.28,11.47,18.84.1,7.15-8.85,13.72-14.27,9.8.17,1.22-2.54,3.28-4.6,2.76a24.08,24.08,0,0,1-5.73-2.29,14.79,14.79,0,0,1,2.58,14c-1.06-3.56-6.35-3.93-9.35-1.73s-4.51,5.83-6.66,8.86c-5.21,7.35-15.58,11.16-23.83,7.51,5,2.33,10.26,5,12.77,9.85s.16,12.41-5.31,12.84c-3.66.29-7.19-2.61-10.76-1.73.77,2.92,1.53,5.85,2.3,8.78-3.37-.06-5.61,3.29-8.1,5.56-4.34,4-11,4.57-16.39,2.32a38,38,0,0,1,10.8,23.07,60.88,60.88,0,0,1-31.47-11.24A27.37,27.37,0,0,0,408,721.31l-4.79,7.21-21.09-.29a14.43,14.43,0,0,1,10.27,15.25,30.79,30.79,0,0,0-19.55-2c0-2.1-.08-4.21-.11-6.31l-8.49-1.38c-5.67,4.74,0,13.57,5.12,18.91a8.6,8.6,0,0,1,2.47,3.8c1.27,5.67-7.49,7.36-13.2,6.22l3,11.07c-4.74-2.08-10.91,2.49-10.3,7.62a68.46,68.46,0,0,0-32.05,9.21A45.58,45.58,0,0,1,336.67,800,28.57,28.57,0,0,1,309.21,812L319.66,825a135,135,0,0,0-20,17.34c-1.37,1.44-2.79,3.12-2.75,5.1s1.46,3.62,1.74,5.55c.55,3.79-3.25,6.55-6.12,9.1a26.76,26.76,0,0,0-8.8,20.7c5.35-6.47,10.11-13.52,16.48-19C314.31,851.61,335.42,848,346,832.66c2.88-4.15,4.79-8.95,8-12.84,9.61-11.56,28.06-12.12,38.16-23.25-4-4.5-.91-12,4-15.47s11-4.76,16.17-7.88c9.41-5.72,13.95-16.67,20-25.86,16.43-24.88,45.43-38.09,67.08-58.6,2.53-2.4,5-5,6.41-8.18s1.58-6.73,2-10.17c2.71-20.8,14.92-39,27.5-55.81q17.73-23.67,37.34-45.86a112.6,112.6,0,0,1-15.23-9.18C557.52,560.38,557.55,561.2,557.58,562Z"/><path class="cls-8" d="M603.82,508.26a8.28,8.28,0,0,1,.09-.84,7.17,7.17,0,0,1,2.07-3.73c1.12-2.33,2.25-4.67,3.4-7,.61-1.22,1.23-2.43,1.84-3.64-8.79,2.15-17,4.72-21,5.46-1.57.3-3.26.66-4.34,1.85-2.56,2.82.31,7.06,1.53,10.68,3.26,9.65-6.38,18.44-14.85,24.12a10.12,10.12,0,0,1-11.31-2c3.94,5.73,2,14.64-4,18.18l.27,8.19a112.6,112.6,0,0,0,15.23,9.18q6-6.75,12.08-13.33A481.59,481.59,0,0,1,603.82,508.26Z"/><path class="cls-8" d="M606,503.69c.85-.94,2-2.06,3.5-3.69,3.93-4.21,3.54-4.41,6.61-8.06-1.63.35-3.26.73-4.87,1.13-.61,1.21-1.23,2.42-1.84,3.64C608.23,499,607.1,501.36,606,503.69Z"/><path class="cls-8" d="M608.51,531c.74-1.55,1.48-3.09,2.23-4.64a51.85,51.85,0,0,0-5-11.49,11.69,11.69,0,0,1-1.95-6.58,481.59,481.59,0,0,0-19,47.15Q596.39,542.93,608.51,531Z"/><path class="cls-8" d="M608.51,531c.93-.91,1.84-1.84,2.77-2.74-.17-.62-.35-1.25-.54-1.9C610,527.88,609.25,529.42,608.51,531Z"/><path class="cls-7" d="M418.13,701.86a36,36,0,0,0-6.4-5.2A14.05,14.05,0,0,0,418.13,701.86Z"/><path class="cls-7" d="M475.32,631.35a24,24,0,0,0,5.56,4.21A13.67,13.67,0,0,0,475.32,631.35Z"/><path class="cls-7" d="M490.32,634.34a6.21,6.21,0,0,0,.89.75C491.16,634.75,490.9,634.47,490.32,634.34Z"/><path class="cls-3" d="M629.9,563a18.27,18.27,0,0,1,0,9.27c-1.69,6-6.32,8.91-11.14,13-5.68,4.81-9.85,11.17-14.85,16.69-13.25,14.61-33.6,37.37-55.69,64.89a343.87,343.87,0,0,1-29.7,33.38c-8.23,8.06-16.93,15.7-22.28,20.39-14.55,12.79-14.49,11.77-24.13,20.4-16.32,14.61-25.92,23.2-35.27,37.08-5.51,8.19-6.59,11.74-11.47,17A1834.6,1834.6,0,0,0,591.48,675.42c27.25-22,54.9-46.27,67.52-78.95,2.12-5.5,3.8-11.5,2.47-17.24-2.36-10.1-15.56-22.23-27.35-24-1.88,2.8-3.21,5.19-4.35,7.29C629.81,562.73,629.86,562.88,629.9,563Z"/><path class="cls-5" d="M626.16,556a16.1,16.1,0,0,1,3.61,6.61c1.14-2.1,2.47-4.49,4.35-7.29A16,16,0,0,0,626.16,556Z"/><path class="cls-12" d="M472.11,741c9.64-8.63,9.58-7.61,24.13-20.4,5.35-4.69,14.05-12.33,22.28-20.39a343.87,343.87,0,0,0,29.7-33.38c22.09-27.52,42.44-50.28,55.69-64.89,5-5.52,9.17-11.88,14.85-16.69,4.82-4.07,9.45-7,11.14-13a18.27,18.27,0,0,0,0-9.27c0-.16-.09-.31-.13-.47-2.22,4.08-3.75,7-7.3,9.74a23.11,23.11,0,0,1-10.31,4.32,35.45,35.45,0,0,1-6.39.47c-5.87,8.78-11.42,18.13-17.59,24.29l-64.71,75c-10.23,11.86-20.5,23.76-32.22,34.16-12.68,11.25-27,20.69-38.7,32.94-16,16.7-26.77,38.23-44.77,52.71-12.71,10.22-28.87,16.82-38,30.31-3.64,5.35-6,11.64-10.68,16.16s-12.87,6.48-17.4,1.85A113,113,0,0,1,325,914.42,28.34,28.34,0,0,1,344,911.09,334.18,334.18,0,0,1,356,857.59c6.17,1.22,12.12-3.4,15.32-8.8s4.59-11.7,7.54-17.24c5.78-10.91,16.83-17.83,27.32-24.35,6.41-4,12.78-8,19.15-12.11,4.88-5.23,6-8.78,11.47-17C446.19,764.24,455.79,755.65,472.11,741Z"/><path class="cls-12" d="M615.27,564.48q-1.75,6-3.11,12.15a23.11,23.11,0,0,0,10.31-4.32c3.55-2.71,5.08-5.66,7.3-9.74a16.1,16.1,0,0,0-3.61-6.61,13,13,0,0,0-2.1,1A38.47,38.47,0,0,0,615.27,564.48Z"/><path class="cls-12" d="M605.77,577.1a35.45,35.45,0,0,0,6.39-.47q1.35-6.12,3.11-12.15A112.35,112.35,0,0,0,605.77,577.1Z"/><path class="cls-10" d="M1234,259.29l6.28,6.49,2.1,2.18c1.14.08,1.82,0,1.93-.41.31-1.06-4-2.24-9.14-7.51-4.06-4.17-3.53-5.65-7.31-9.39a21.12,21.12,0,0,0-7.11-4.71C1224.54,249.5,1228.83,253.93,1234,259.29Z"/><path class="cls-10" d="M964,55c-3,.06-6.83-.12-11.87-.54a8.31,8.31,0,0,0,14.14.58s0-.07.07-.1Z"/><path class="cls-10" d="M672.59,227.44c15.41-2,39.47,27.23,35.28,48.21-1.17,5.84-5,13.54-5.44,19.55a74.94,74.94,0,0,1,11.78-5.1c5.17-1.63,5.84-.82,9.14-1.88,10.51-3.39,16-15.58,18.28-20.67,3.4-7.55,1.45-7.7,5.49-16.9,2.69-6.14,4.09-7.3,9.14-16.91,4.13-7.88,3.6-7.9,7.31-15,5.14-9.89,11.23-21.61,14.62-20.66,1,.28,1.89,3.94,3.66,11.27a61.49,61.49,0,0,1,1.83,9.39c.14,1.5.12,2.14,0,9.39-.13,7.44-.15,8.94,0,11.28.06,1,.6,9.33,1.83,9.39.88,0,.57-4.25,3.65-7.52A8,8,0,0,1,791,239.8c1.33-20.17,11.6-41.92,15.25-49.44a126.54,126.54,0,0,1,7.16-12.75c20.37-32,53.7-53.17,89.28-62.82a170.42,170.42,0,0,1,46.5-6s40.72.52,85.46,29.94a208.11,208.11,0,0,1,53,50.6l.79,1a155.28,155.28,0,0,1,10.32,16c.8-1.29,1.93-2.78,3-2.67,2,.2,2.77,5.57,3.65,9.4,1.58,6.84,3.22,8,9.14,20.66,12.75,27.26,11.44,35.37,21.94,45.08,3.76,3.48,6.57,6.86,11,7.52,5.23.78,8.64-2.2,16.45-5.64l.2-.08a29.47,29.47,0,0,1-1.2-3.48c-4.72-18.37,22.39-43.91,39.75-42.2,4.09.41,7.95,2.4,12.48,6-1.62-2.55-1.73-5.22-5.53-12.87a80,80,0,0,0-9.14-15c-5.16-6.53-7.24-6.59-9.14-11.28-2-5-.62-7.15-1.83-13.14-1.33-6.57-4.26-10.11-7.31-15-4.93-7.95-8.16-18.45-14.62-39.45-.07-.21,0-.1-5.49-18.79-3.64-12.49-5.47-18.73-5.48-18.78-4.26-13.43-10.78-33.94-27.42-43.21-5.11-2.84-10.72-3.77-21.94-5.63a153.52,153.52,0,0,0-31.07-1.88c-9.84.28-19.67-.19-29.5-.73a6.15,6.15,0,0,1-.94.58,20.93,20.93,0,0,1-9.28,1.85c-5-.25-9.89,1.31-14.85,1.86-7.06.78-9.89,1.24-14.85,1.85-8.12,1-21.28,2.64-34.12,3.37A13.91,13.91,0,0,1,946,54s0-.06,0-.09c-6.39-.62-14.39-1.49-24.61-2.61-20.43-2.23-30.88-3.39-42.69-5.56S855.87,41,849,39.07c-22.34.94-39.66,1.7-54.33-2.57a45.6,45.6,0,0,0-18.28-1.88c-13.24,1.43-22.46,8.78-25.6,11.27C748.15,48,740.08,55,730.67,75.94c-10.55,23.49-20.24,58.95-25.6,67.63-1.9,3.09-3.65,5.64-3.65,5.64-3.36,4.88-4.16,5.28-5.49,7.51-2.75,4.62-1.15,5.95-3.65,13.15-.73,2.1-2.32,5.16-5.49,11.27-3.68,7.1-4.48,8-5.48,11.27-1.45,4.77-.67,5.93-1.83,9.39-1.82,5.44-5.48,7.81-9.14,11.28-13.5,12.8-10.33,24.86-23.76,35.69-1.14.92-4,3.11-3.66,3.75.25.46,2-.2,4.81-1.22C659.24,236.05,665.53,228.34,672.59,227.44Z"/><path class="cls-10" d="M803.79,226.23s2.94-7.93,11-22.55l.07-.11c-.39-.13-.77-.27-1.15-.42q1.8-8.22,3.61-16.44a3.84,3.84,0,0,0,0-2.3c-.42-1-1.6-1.45-2.41-2.19-1.26-1.15-1.52-2.84-1.49-4.61a126.54,126.54,0,0,0-7.16,12.75c-3.65,7.52-13.92,29.27-15.25,49.44,1.69-1,3.4-1.09,5.47-2.3C800.8,235,802.29,230.26,803.79,226.23Z"/><path class="cls-10" d="M817.31,184.41a3.84,3.84,0,0,1,0,2.3q-1.8,8.22-3.61,16.44c.38.15.76.29,1.15.42,7.31-13.25,17.51-21,21.87-24.31,7-5.25,7.57-3.8,21.94-13.15,8.47-5.51,8.13-5.92,16.45-11.27,12.4-8,21.93-13.15,21.93-13.15,2.51-1.36,4.6-2.44,6.39-3.38l-4.95-12.37a9.23,9.23,0,0,1-.87-3.24c-.08-3.24,2.9-5.38,5.11-7.91-35.58,9.65-68.91,30.84-89.28,62.82,0,1.77.23,3.46,1.49,4.61C815.71,183,816.89,183.4,817.31,184.41Z"/><path class="cls-10" d="M1076.24,203.09a8.87,8.87,0,0,0,1.47,1.71A13.6,13.6,0,0,0,1076.24,203.09Z"/><path class="cls-10" d="M1036.27,146.42c1.39.71,3.37.32,4.31,1.57,1.34,1.81-1.17,4-1.83,6.11a3.92,3.92,0,0,0,3.19,4.84l-6.44,5.94a6.17,6.17,0,0,1,6.28,6.23,15.58,15.58,0,0,0-5.22,2c.37.16.77.34,1.21.56,4.64,2.25,7.43,4.69,12.79,9.39a111.08,111.08,0,0,1,12.8,13.15c.43.53.83,1,1.23,1.55,4.4.91,8.65,2.37,11.65,5.37a9.35,9.35,0,0,1-1.65-4.8,130.45,130.45,0,0,0,13-9,208.11,208.11,0,0,0-53-50.6C1034.57,141.78,1033.73,145.13,1036.27,146.42Z"/><path class="cls-10" d="M1078.87,221.26a20.3,20.3,0,0,0,3.31,5.49c.41.11.81.23,1.23.32Z"/><path class="cls-10" d="M1076.24,203.09a13.6,13.6,0,0,1,1.47,1.71,8.87,8.87,0,0,1-1.47-1.71c-3-3-7.25-4.46-11.65-5.37a118.8,118.8,0,0,1,7.91,11.6,99.35,99.35,0,0,1,6.37,11.94l4.54,5.81c-.42-.09-.82-.21-1.23-.32.38.43.8.87,1.29,1.35,3.51,3.47,6.2,4.57,9.14,9.4,2.19,3.61,3.48,7.58,3.65,7.51s-3.09-5.42-1.82-11.27c.52-2.39,1.31-2.63,1.82-5.64a44.55,44.55,0,0,0,0-7.51c-.19-5.27-.22-6.05,0-7.51a16,16,0,0,1,1.83-5.64c.18-.31.4-.69.65-1.09a155.28,155.28,0,0,0-10.32-16l-.79-1a130.45,130.45,0,0,1-13,9A9.35,9.35,0,0,0,1076.24,203.09Z"/><path class="cls-10" d="M898.45,125.94l4.95,12.37c5.56-2.93,8.07-4.4,10.07-7.89.72-1.26,1.76-3.47,3.65-3.76s3,1.43,7.31,5.64c5.81,5.69,8.06,6.95,9.14,7.51,4,2.06,6.61,1.93,7.31,1.88a10.52,10.52,0,0,0,5.49-1.88c2.86-2.06,2.17-4,5.48-7.51a12,12,0,0,1,5.49-3.76,11.09,11.09,0,0,1,5.48,0c3.94.91,6.16,3.17,9.14,5.64a81.52,81.52,0,0,0,11,7.51c7.49,4.13,8.64,1.89,14.62,5.64,4.85,3,4.2,4.57,11,9.39,3.76,2.68,3.61,1.95,9.14,5.64,6.16,4.1,6.76,5.27,11,7.51,3.89,2.07,4.79,1.82,7.93,3.2a15.58,15.58,0,0,1,5.22-2,6.17,6.17,0,0,0-6.28-6.23l6.44-5.94a3.92,3.92,0,0,1-3.19-4.84c.66-2.15,3.17-4.3,1.83-6.11-.94-1.25-2.92-.86-4.31-1.57-2.54-1.29-1.7-4.64-1.62-7.7-44.74-29.42-85.46-29.94-85.46-29.94a170.42,170.42,0,0,0-46.5,6c-2.21,2.53-5.19,4.67-5.11,7.91A9.23,9.23,0,0,0,898.45,125.94Z"/><path class="cls-3" d="M1019.73,25.34c2.58,3.4,1.94,4.65,3.71,5.57a3.94,3.94,0,0,0,1.1.34,61.12,61.12,0,0,1,5.81-2.39c2.92-1,5.94-1.72,9-2.44-2.72-5.59-9.62-8.06-15.83-7.67a35.13,35.13,0,0,0-8.53,1.79C1019,24.48,1019.21,24.66,1019.73,25.34Z"/><path class="cls-7" d="M994.09,43.3c8.21.28,17.22.52,27.23.71,8.45.16,16.9.68,25.34,1.15a2.41,2.41,0,0,0,.92-1.28c.29-1.16-.62-2.34-1.86-3.7-2.66-2.91-4.93-5.39-9.28-7.42a16.62,16.62,0,0,0-5.57-1.85c-3.18-.37-4.71.58-6.33.34-4,1.87-8,4-12.06,5.89A99.36,99.36,0,0,1,994.09,43.3Z"/><path class="cls-7" d="M907.43,38.59A259.27,259.27,0,0,1,883,26.42c-1.8,1.58-2.93,2.41-4.37,2.63s-1.93-.37-3.71,0a10.33,10.33,0,0,0-3.72,1.86c-4.21,2.74-4,2.91-5.57,3.7a18.58,18.58,0,0,1-5.56,1.86c-1.36.21-1.58.07-5.57,0-1.94,0-4.47,0-7.43,0-4.57-.06-5.53-.18-5.57,0s2.76,1.3,7.46,2.6c5.9-.25,12.13-.51,18.79-.7C883.57,37.94,895.82,38.1,907.43,38.59Z"/><path class="cls-7" d="M994.09,43.3a170.52,170.52,0,0,1-21.25,3.49,13.65,13.65,0,0,1,0,7.32c0,.19-.12.37-.18.56,12.84-.73,26-2.36,34.12-3.37,5-.61,7.79-1.07,14.85-1.85,5-.55,9.87-2.11,14.85-1.86a20.93,20.93,0,0,0,9.28-1.85,6.15,6.15,0,0,0,.94-.58c-8.44-.47-16.89-1-25.34-1.15C1011.31,43.82,1002.3,43.58,994.09,43.3Z"/><path class="cls-7" d="M964,55l2.34-.06a8.36,8.36,0,0,0,1.37-4.58,8.25,8.25,0,0,0-.58-3c-5.26.46-10.54.81-15.82.83a8.4,8.4,0,0,0-.3,2.2,8.16,8.16,0,0,0,.77,3.46c.1.22.23.43.35.64C957.21,54.89,961,55.07,964,55Z"/><path class="cls-7" d="M921.34,51.3c10.22,1.12,18.22,2,24.61,2.61a13.35,13.35,0,0,1-.26-5.87c-1.38-.07-2.76-.15-4.13-.28-11.85-1.09-23.18-4.53-34.13-9.17-11.61-.49-23.86-.65-39.66-.22-6.66.19-12.89.45-18.79.7,6.89,1.9,17.84,4.49,29.67,6.67S900.91,49.07,921.34,51.3Z"/><path class="cls-7" d="M1005.63,24c3.09-1.17,6.17-2.45,9.31-3.47l-.78-.76c-2.41-2.33-3.61-3.51-3.71-3.71-2.09-4.27,2.13-8.86,0-11.12-1-1.08-2.23-.31-3.71-1.86a3.23,3.23,0,0,1-.68-1H904.35c.1.31.19.63.29,1,.41,1.63,1.19,4.7,0,5.57-1,.71-2.32-.76-3.72,0-.78.42-.78,1.13-1.85,3.7-.89,2.14-1.34,3.21-1.86,3.71a.76.76,0,0,1-.14.11C929.84,34.26,970.61,37.25,1005.63,24Z"/><path class="cls-12" d="M949,41.13a13.9,13.9,0,0,1,21.74,1.22c7,.34,14.74.66,23.33.95a99.36,99.36,0,0,0,18.39-6.16c4.07-1.85,8-4,12.06-5.89a3.94,3.94,0,0,1-1.1-.34c-1.77-.92-1.13-2.17-3.71-5.57-.52-.68-.72-.86-4.79-4.8-3.14,1-6.22,2.3-9.31,3.47-35,13.24-75.79,10.25-108.56-7.83-1.55,1.35-3,.34-5.43,1.75-.76.43-.68.56-3.71,3.71-1.79,1.85-2.68,2.77-3.71,3.7L883,26.42a259.27,259.27,0,0,0,24.41,12.17C920.68,39.14,933.1,40.12,949,41.13Z"/><path class="cls-12" d="M907.43,38.59c11,4.64,22.28,8.08,34.13,9.17,1.37.13,2.75.21,4.13.28A13.86,13.86,0,0,1,949,41.13C933.1,40.12,920.68,39.14,907.43,38.59Z"/><path class="cls-12" d="M959.4,42a8.35,8.35,0,0,0-8,6.14c5.28,0,10.56-.37,15.82-.83A8.33,8.33,0,0,0,959.4,42Z"/><path class="cls-12" d="M994.09,43.3c-8.59-.29-16.31-.61-23.33-.95a13.71,13.71,0,0,1,2.08,4.44A170.52,170.52,0,0,0,994.09,43.3Z"/><path class="cls-12" d="M594.4,354.32a27.33,27.33,0,0,1,3.94-.79c3.64-.47,5.35,0,7.79.21l1.49-.21c6.06-.93,12.1-1.91,18.57-5.57,2.75-2.4,2.22-3.88,5.57-7.41,1.52-1.61,4.11-4.35,5.56-3.71a1.45,1.45,0,0,1,.76,1.11c17.34-17,48-17.78,49.37-17.8,9.37-.12,11,1.83,22.27,3v-8.6c0-3.09.36-4,0-5.56-.92-4-4.07-5.74-5.57-7.42s-1.9-3.89-1.72-6.41l-1,.53c-5.74,3-8,4.72-9.14,3.76-1.34-1.12-.18-5,0-5.64a12.39,12.39,0,0,1,1.83-3.75c3.65-5.28-.43-18.13-1.83-22.55-2.48-7.81-3.73-11.71-7.31-15a23.42,23.42,0,0,0-12.8-5.63c-5.86-.91-10.58.33-16.45,1.88-3.19.84-5.9,1.78-8,2.53l-3,4-5.57,7.41-5.57,7.42-3.71,3.71a64.86,64.86,0,0,0-5.57,9.27c-1.63,3.31-1.63,5.42-3.71,9.27a27.42,27.42,0,0,1-3.72,5.56c-4.25,4.74-7.28,3.61-11.13,7.42-3,3-1.09,3.65-5.57,11.12-3.4,5.67-5.81,7.44-5.57,11.13.15,2.44,1.26,2.45,1.85,5.56.72,3.75-.32,6.8-1.85,11.12-2.08,5.87-5.06,8.75-5.62,10.27A29.5,29.5,0,0,1,594.4,354.32Z"/><path class="cls-12" d="M589.06,355.38c.59.76,2.21-.21,5.34-1.06a29.5,29.5,0,0,0-5.39.2A.84.84,0,0,0,589.06,355.38Z"/><path class="cls-12" d="M606.13,353.74a23.94,23.94,0,0,0,5.21-.21,38.8,38.8,0,0,0,7.42-1.86c3.36-1.2,5.4-1.93,7.43-3.71-6.47,3.66-12.51,4.64-18.57,5.57Z"/><path class="cls-12" d="M687.45,320.15c-1.4,0-32,.77-49.37,17.8.55,2.29-.79,7.14,1.1,8.16,1.26.67,3.93-1.4,9.28-5.56,4.26-3.32,5-4.46,5.57-5.57,1.25-2.65.46-4,1.86-5.56s3.2-1.69,7.42-1.85c5.27-.2,7.76,0,11.14,0,9,0,9.79-1.39,13,0,3.53,1.53,2.82,3.32,7.42,5.56a17.63,17.63,0,0,0,9.28,1.85c2.34-.2,4.37-.37,5.57-1.85s.32-3.1,0-9.27v-.67C698.41,322,696.82,320,687.45,320.15Z"/><path class="cls-12" d="M672.17,246.89a23.42,23.42,0,0,1,12.8,5.63c3.58,3.32,4.83,7.22,7.31,15,1.4,4.42,5.48,17.27,1.83,22.55a12.39,12.39,0,0,0-1.83,3.75c-.18.61-1.34,4.52,0,5.64,1.15,1,3.4-.76,9.14-3.76l1-.53c.42-6,4.27-13.71,5.44-19.55,4.19-21-19.87-50.17-35.28-48.21-7.06.9-13.35,8.61-24.86,23.86,2.09-.75,4.8-1.69,8-2.53C661.59,247.22,666.31,246,672.17,246.89Z"/><path class="cls-12" d="M1220.77,245.94c-2-1.91-3.88-3.57-5.64-5a13.19,13.19,0,0,0,1.78,2.16A14.17,14.17,0,0,0,1220.77,245.94Z"/><path class="cls-12" d="M1182.18,275.07c-10.44,3-15.8,4.59-18.08,5.55,2.76,6.83,7.78,15.06,3,19.25-1.69,1.47-5.23,3-6.28,6.49-.41,1.37,0,2.17,0,4.87v8.12c-.07,1.07-.17,2-.27,2.77,1.21,0,2.51,0,4-.11,4.34-.31,10.19-1.27,20.41-5.57,22.67-9.52,24.83-17.78,35.28-20.39,21.93-5.49,49.06,21.74,70.27,47.28,1.28-.11,2.58-.15,3.87-.15a25.46,25.46,0,0,1-3.86-6c-1.73-3.79-2.89-6.45-2.09-9.74.66-2.72,1.91-2.73,2.09-4.87.27-3.23-2.45-4.78-6.28-9.74-5-6.54-2.84-7.1-6.27-9.74-4.35-3.33-7.76-2.34-12.55-6.49a23.79,23.79,0,0,1-4.18-4.87c-2.35-3.36-2.35-5.22-4.19-8.11a56.35,56.35,0,0,0-6.27-8.12l-4.19-3.24L1242.4,268c-3.45-.26-11.13-2.18-20-2.29C1214.83,265.58,1204,268.74,1182.18,275.07Z"/><path class="cls-12" d="M1293.16,346.58c2,.52,3.12.86,3.61.36s-.66-1.69-2.41-3.76c-1.29,0-2.59,0-3.87.15Z"/><path class="cls-12" d="M1286.32,345.32a43.18,43.18,0,0,1,6.84,1.26l-2.67-3.25a28.23,28.23,0,0,0-6.37,1.28c-.5.17-1,.35-1.47.55A29.49,29.49,0,0,1,1286.32,345.32Z"/><path class="cls-12" d="M1290.49,343.33c-21.21-25.54-48.34-52.77-70.27-47.28-10.45,2.61-12.61,10.87-35.28,20.39-10.22,4.3-16.07,5.26-20.41,5.57-1.48.1-2.78.12-4,.11-.42,3.15-.9,4.22.27,5.34,1.36,1.3,3.64,1.45,6.28,1.63a25,25,0,0,0,10.46-1.63c5.18-2,4.38-3.53,8.36-4.87,3.61-1.21,4.49,0,14.65,0,3.8,0,6.61-.17,12.55,0,4.75.14,6.91.37,8.36,1.63s.69,2.54,2.09,4.87c.59,1,1.48,2,6.28,4.86,6,3.65,9,5.47,10.46,4.87,2.62-1.09-.29-7.3,2.09-8.11,1.64-.56,4.56,1.84,6.28,3.24,3.77,3.1,3.17,4.39,6.27,6.5,2.28,1.55,4.58,2.19,8.37,3.24a53.49,53.49,0,0,0,8.36,1.63c5.53.6,7.45-.1,11-.16.48-.2,1-.38,1.47-.55A28.23,28.23,0,0,1,1290.49,343.33Z"/><path class="cls-12" d="M1162.9,277.14a29.47,29.47,0,0,0,1.2,3.48c2.28-1,7.64-2.52,18.08-5.55,21.77-6.33,32.65-9.49,40.22-9.4,8.87.11,16.55,2,20,2.29l-2.1-2.18-6.28-6.49c-5.19-5.36-9.48-9.79-13.25-13.35a14.17,14.17,0,0,1-3.86-2.81,13.19,13.19,0,0,1-1.78-2.16c-4.53-3.63-8.39-5.62-12.48-6C1185.29,233.23,1158.18,258.77,1162.9,277.14Z"/><path class="cls-8" d="M946,53.91s0,.06,0,.09l.73,0Z"/><path class="cls-8" d="M966.31,55.05l.94-.13-.87,0S966.34,55,966.31,55.05Z"/><path class="cls-8" d="M967.17,47.34a8.25,8.25,0,0,1,.58,3A8.36,8.36,0,0,1,966.38,55l.87,0,5.55-.81a13.65,13.65,0,0,0,0-7.32q-2.77.3-5.55.54Z"/><path class="cls-8" d="M951.82,53.83a8.16,8.16,0,0,1-.77-3.46,8.4,8.4,0,0,1,.3-2.2c-1.89,0-3.78,0-5.66-.13a13.35,13.35,0,0,0,.26,5.87l.75.07C948.4,53.94,950.11,53.84,951.82,53.83Z"/><path class="cls-8" d="M959.4,36.47A13.86,13.86,0,0,0,949,41.13c6.55.41,13.7.82,21.74,1.22A13.9,13.9,0,0,0,959.4,36.47Z"/><path class="cls-8" d="M951.35,48.17a8.34,8.34,0,0,1,15.82-.83h.12q2.78-.24,5.55-.54a13.71,13.71,0,0,0-2.08-4.44c-8-.4-15.19-.81-21.74-1.22A13.86,13.86,0,0,0,945.69,48C947.57,48.13,949.46,48.17,951.35,48.17Z"/><path class="cls-8" d="M966.31,55.05a8.31,8.31,0,0,1-14.14-.58c-1.68-.14-3.5-.3-5.47-.49L946,54a13.91,13.91,0,0,0,26.65.67c-1.8.1-3.6.19-5.37.25Z"/><path class="cls-8" d="M946.7,54c2,.19,3.79.35,5.47.49-.12-.21-.25-.42-.35-.64C950.11,53.84,948.4,53.94,946.7,54Z"/><path class="cls-8" d="M967.25,54.92c1.77-.06,3.57-.15,5.37-.25.06-.19.13-.37.18-.56Z"/></g></g><g id="splatteligsplat"><path class="cls-13" d="M1222.81,674.89c14.81,28.94,13,66.78-7.87,91.72-29.74,35.55-94.49,31.08-119.06-8.23-17.35-27.76-14.43-63-17.87-95.51s-19.7-69.69-52-74.93c-23.62-3.84-48.53,14.58-51.78,38.28-4.55,33.17,27.49,61.36,29,94.81.89,20.23-12.08,41.43-31.77,46.16S928.7,755.52,930,735.31c1.23-18.76,19.47-40,6-53.15-5.32-5.18-13.68-5.79-21-4.32-31.53,6.4-46.9,42-53.89,73.39s-12.9,67.07-39.25,85.52c-20.28,14.2-48.36,13.64-70.89,3.38s-40.23-28.89-54.73-49c-16.3-22.58-28.63-55.66-10-76.4,15.64-17.45,42.91-14.7,66.2-17.25a123.24,123.24,0,0,0,62.75-25.74c8.38-6.64,16.22-15,18.44-25.44,3.7-17.42-10.54-35-27.7-39.79s-35.69.73-51.15,9.57S726,637,711.14,646.9c-33.14,22.15-76.13,33-113.56,19.31s-64.68-56.53-52.81-94.58c3.7-11.86,11.85-23.37,23.87-26.51,7.75-2,16-.3,23.63,2,19.81,6,38.27,15.85,58.1,21.74s42.34,7.37,60.27-2.94a51.13,51.13,0,0,0-5-91.15c-6.67-2.93-14.27-4.39-21.3-2.48-13.56,3.7-21.93,18.82-35.69,21.69-11.34,2.37-23.2-5-28.45-15.34s-4.82-22.76-1.55-33.87c5.29-17.94,18.42-34,36-40.33s39.3-1.59,50.83,13.14c9.19,11.74,11.3,27.94,20.87,39.39,6.9,8.27,17,13.16,26.83,17.45,20.43,8.88,49.82,13.37,60.1-6.39,4.83-9.28,2.92-20.72-1.19-30.34a74.22,74.22,0,0,0-33.39-36.18C741,381.63,693,397.26,653.1,382c-39.2-14.95-61.73-55.9-75.78-95.43-12.64-35.6-20.94-75.87-5.65-110.42s62.87-56,92.72-32.84c20.67,16,24.83,44.88,30.8,70.35S715,267.8,740.91,271.46c23,3.26,48-15,68.15-3.43,16.17,9.29,17.75,31.59,17.38,50.24l-1.11,56c-.43,22.23,3.81,50.87,25.5,55.77,12.38,2.8,25.44-4.84,32-15.7s7.75-24.19,6.81-36.86c-2.94-39.88-24.53-75.81-34.38-114.57S852.67,174.54,889,157.77c31.88-14.72,74.76,9.78,78.27,44.71,1.62,16.16-3.89,32.14-4.9,48.35S967,286,982.15,291.71c21.51,8.09,41.49-15.69,48.82-37.48,7.68-22.79,10.65-47.07,19.77-69.32s26.59-43.31,50.31-47.29c15.72-2.63,31.57,2.57,46.66,7.7,15.84,5.38,33.53,12.47,39.53,28.08,9.19,23.87-15.18,46.91-37.93,58.6-24.22,12.45-51.42,22.76-67,45.1s-9.58,61.49,17.17,66.58c12.32,2.35,24.58-3.15,36.52-7a142.6,142.6,0,0,1,81.6-1.51c28,7.84,55.31,27.33,61.11,55.76s-21.09,61.63-48.93,53.43c-12.7-3.73-22-14.29-33-21.57-25.16-16.57-66.28-10.46-76.44,17.91-10.3,28.78,18,59.6,48.33,63.84s59.87-9.52,87.32-23,56.92-27.37,87.24-23.44c8.45,1.1,17,3.76,23.25,9.57,15,13.91,10.44,38.8.93,56.87-19.61,37.28-56.13,65.22-97.23,74.42-35.4,7.92-73.63,1.82-105.05-16.23-22.4-12.87-45-41.55-70.6-16.9-27.84,26.8,10.35,43.59,33.85,48.89C1167.09,623.48,1203.42,637,1222.81,674.89Z"/><path class="cls-14" d="M774.53,824.67c8.47-.46,17-2.34,24.25-6.8s13-11.73,14.29-20.11c.56-3.53.34-7.14.45-10.72a56.45,56.45,0,0,1,10-30.12,7.91,7.91,0,0,0,1.7-3.49c.14-1.3-.7-2.81-2-2.86a3.49,3.49,0,0,0-2.45,1.36,50,50,0,0,0-11.41,18.46c-1.6,4.59-2.61,9.59-5.77,13.29-3,3.48-7.46,5.29-11.89,6.43-8.45,2.19-17.27,2.38-25.93,3.46-7.38.93-33.48,5.92-26.68,18.13C745.28,822.83,763.26,825.27,774.53,824.67Z"/><path class="cls-14" d="M978.21,749.33A34.77,34.77,0,0,0,988.52,733a30,30,0,0,0,1.25-13.9,18.45,18.45,0,0,0-7-11.84,6.08,6.08,0,0,0-3.33-1.36c-3.22-.08-5.05,3.69-5.52,6.88-.94,6.27.09,12.66-.15,19a26.91,26.91,0,0,1-2.42,10.86c-1.82,3.69-6.56,5.12-8.14,8.12C959,758.82,975.69,751.48,978.21,749.33Z"/><path class="cls-14" d="M976.43,597c1.64-2.31,3.21-4.85,3.41-7.68s-1.46-6-4.24-6.55c-3.1-.63-5.84,2-7.81,4.45a59.41,59.41,0,0,0-10.86,19.87c-1.11,3.74-4.31,19.85.75,22.18,3.94,1.81,4.84-10.48,6-13.33C966.54,608.84,972,603.17,976.43,597Z"/><path class="cls-14" d="M1189.69,769.17c5.12-5.13,8-12.06,10.23-19,4.85-15,7.13-31.52,2.36-46.58-1.11-3.5-2.67-7-5.47-9.39s-7.1-3.29-10.2-1.33c-2.37,1.49-3.58,4.27-4.3,7-2.52,9.5-.51,19.51.48,29.28s.68,20.53-5.48,28.18c-3.26,4-11.85,10.89-6.37,16.6C1175.88,779.1,1185.94,772.92,1189.69,769.17Z"/><path class="cls-14" d="M1332.3,541.28c9.86-13.17,16-30.55,10.92-46.19-1.33-4.07-3.67-8.17-7.62-9.83s-9.52.49-10,4.75c-.23,2.13.81,4.18,1.76,6.1,3.44,6.9,6.26,14.21,7.09,21.87s-.49,15.73-4.78,22.13c-2.63,3.93-6.86,7.07-8.94,11.25C1325.13,551.53,1329.82,544.59,1332.3,541.28Z"/><path class="cls-14" d="M1105.21,433.81a62.67,62.67,0,0,1,4.66-9.79c1.59-2.79,3.23-6.5,1.12-8.92-1.59-1.84-4.65-1.69-6.63-.29s-3.12,3.69-4,5.95a58.1,58.1,0,0,0-4,26.66,32.25,32.25,0,0,0,2.12,9.57c2.56,6.16,7.7,9.34,11.7,14.25C1102.59,460.82,1100.91,445.85,1105.21,433.81Z"/><path class="cls-14" d="M1236.78,435.67c4.69-.13,9-2.84,12-6.42s4.93-8,6.56-12.37c3.47-9.39,5.95-19.6,3.74-29.37-2.29-10.1-9.51-18.67-18.39-24-2.89-1.74-6.81-3.1-9.44-1,1.27,4.83,5.41,8.26,8.31,12.33,7.05,9.85,6.15,24.6-2,33.53-3,3.25-6.75,5.76-9.33,9.32C1222.65,425.45,1226.4,436,1236.78,435.67Z"/><path class="cls-14" d="M1167,194.79a18.56,18.56,0,0,0-2.75-12.19,47,47,0,0,0-8.22-9.7c-4.1-4-8.41-7.82-13.48-10.43a34,34,0,0,0-12.44-3.6c-3.22-.28-6.65-.05-9.39,1.67s-4.52,5.28-3.36,8.31a8.76,8.76,0,0,0,3.52,3.94c11.14,7.46,23.6,5.49,28.26,20.55,1.22,3.94,1.33,9.69,5.95,11.14C1160.92,206.3,1166.2,199.8,1167,194.79Z"/><path class="cls-14" d="M933.54,170.66a14.18,14.18,0,0,0-6.82-1.66c-2.36.16-4.77,1.58-5.45,3.84-2.65,8.83,12.29,13.22,17,17.14,4.43,3.67,6,9,8.15,14.06,1.63,3.82,2.88,7.34,7.56,5.89,9.88-3.05,3.27-16.29-.2-21.65A48.49,48.49,0,0,0,933.54,170.66Z"/><path class="cls-14" d="M959.68,296a29.22,29.22,0,0,1-8.14-18.32,9.08,9.08,0,0,0-.51-3.12,2.59,2.59,0,0,0-2.44-1.68c-1.59.18-2.21,2.13-2.38,3.72a44.27,44.27,0,0,0-.16,7.37,20.91,20.91,0,0,0,1.59,7.34c2.24,4.91,7.18,8,12.14,10.16,2.11.9,4.6,1.8,6.37.25C964.64,299.29,961.7,298.08,959.68,296Z"/><path class="cls-14" d="M809.58,299.65c-1.8-8.07-5.9-15.93-12.71-20.61a25,25,0,0,0-9.47-3.94c-3.9-.74-8.28-.41-11.3,2.16s-3.8,7.86-.8,10.45c2.13,1.85,5.26,1.82,8.08,1.76,7.42-.13,15.59.62,20.82,5.87,3.78,3.79,5.31,9.24,6.24,14.51.48,2.75,1.2,5.67.58,8.41C811,312,810.94,305.79,809.58,299.65Z"/><path class="cls-14" d="M664.47,173.94c-3.38-7.75-8.1-15.17-15-20.09s-16.21-6.94-24-3.63c-3.62,1.54-7,4.77-6.87,8.7.2,4.44,4.86,7.39,9.23,8.13s8.95.09,13.24,1.21c9.68,2.53,14.68,12.39,20.74,19.41,2.39,2.77,7,9.72,8.32,3.57C671.15,186.69,666.25,178,664.47,173.94Z"/><path class="cls-14" d="M646.76,480.17c1.64,1.24,4,.84,5.83-.09,4.34-2.24,6.83-6.84,9.45-11,3.2-5,7.35-9.95,13.09-11.52a23.47,23.47,0,0,1,10.38.05,4.55,4.55,0,0,0-.26-4.95A7.31,7.31,0,0,0,680.9,450c-4.55-1.09-9.2.94-13.44,2.92-5.53,2.59-14.42,4.83-18.63,9.53C645.78,465.8,642.41,476.87,646.76,480.17Z"/><path class="cls-14" d="M658.26,653.36c4.55-2,9-4.43,12.4-8s5.66-8.53,5.2-13.46a4.22,4.22,0,0,0-.79-2.36c-1.16-1.39-3.36-1.11-5-.43-4.7,1.91-8.19,5.88-12.13,9.07A43.56,43.56,0,0,1,619.15,646c-2.08-.59-4.17-1.35-6.33-1.2-12.49.92,3.81,15.12,10.3,15.64C634.59,661.38,647.86,657.88,658.26,653.36Z"/><path class="cls-14" d="M808.63,501.49c4.9-2.25,9.92-4.59,13.68-8.46s6-9.68,4.24-14.77c-7.18.87-12.57,6.74-17.27,12.23-1.49,1.74-3.06,3.67-3.1,5.95s2.38,4.64,4.41,3.6"/></g><g id="text"><path class="cls-3" d="M814.71,311.5a11.57,11.57,0,0,0-7.9,5.91,16.49,16.49,0,0,0-1.69,9.9,4.36,4.36,0,0,0,1,2.72,1.78,1.78,0,0,0,2.61,0,2.59,2.59,0,0,0,.26-1.54c-.11-2.89-.2-6,1.25-8.47a11.77,11.77,0,0,1,5.22-4.38A7.77,7.77,0,0,0,818,314C820.38,311.37,816.37,311.22,814.71,311.5Z"/><path d="M771.86,383.57c1.62,5.07,5.88,9.68,11.2,10A10.43,10.43,0,0,0,793.74,384c.22-5.49-4-10.47-3.63-16,.35-4.85,4.61-8.93,9.41-9.73s9.8,1.33,13.13,4.88c6,6.42,6.27,17.43.55,24.11-4.73,5.53-12.46,7.88-16.93,13.61-4.85,6.24-4.68,15.27-1.61,22.55,2.19,5.16,5.75,10.71,3.64,15.9a13.25,13.25,0,0,1-3.48,4.56,22.08,22.08,0,0,1-11.2,6c-4.24.68-8.92-.57-11.7-3.84-4.66-5.51-2.36-14.12,1.85-20s10.54-12,8.94-19.09c-.93-4.13-4.45-7.21-8.21-9.17s-7.9-3.11-11.62-5.12c-4.94-2.68-9.13-7.05-10.69-12.44s-.1-11.77,4.24-15.32,11.52-3.42,15.2.83C773.21,367.56,770.51,379.35,771.86,383.57Z"/><path d="M896.81,399.89a12.24,12.24,0,1,0-21.55-.35c1.92,3.71,5.66,6.28,7.36,10.1,3.84,8.57-3.9,19.51.91,27.57a15.15,15.15,0,0,0,6.24,5.37c7.54,3.92,17,4.34,24.48.28s12.33-12.84,11-21.23c-.79-4.89-3.49-9.89-1.76-14.53.94-2.52,3-4.4,4.49-6.64,3.18-4.88,2.72-12.33-2.07-15.64-4.3-3-10.72-1.52-14.07,2.5s-3.84,9.9-2.17,14.85c1.41,4.17,4.23,8.07,3.93,12.45-.62,8.78-11.53,10.2-17.72,6.2C886.16,414.55,893,406.78,896.81,399.89Z"/><path d="M1015,509.82a12.24,12.24,0,1,0-21.55-.35c1.92,3.72,5.66,6.29,7.36,10.11,3.84,8.57-3.9,19.51.91,27.57a15.22,15.22,0,0,0,6.24,5.37c7.54,3.91,17,4.34,24.48.28s12.34-12.84,11-21.23c-.79-4.9-3.49-9.89-1.76-14.54.94-2.51,3-4.39,4.5-6.63,3.17-4.88,2.71-12.33-2.08-15.64-4.3-3-10.72-1.52-14.07,2.5s-3.84,9.9-2.17,14.85c1.41,4.16,4.23,8.07,3.93,12.45-.62,8.78-11.53,10.2-17.72,6.2C1004.31,524.49,1011.11,516.71,1015,509.82Z"/><path d="M824.11,496.51a11,11,0,0,0,.84,11.05c1.42,2,3.47,3.46,5.18,5.22a20.06,20.06,0,0,1,4.45,20.14c-1.55,4.44-4.69,8.32-5.53,13-1.12,6.2,3.39,13.36,9.7,13.55,4.41.14,8.48-2.88,12.9-2.66,4.93.24,8.93,4.43,13.84,5,7,.78,12.94-7.19,11.37-14.05s-8.9-11.43-15.94-11.3c-2.73,0-5.54.66-8.15-.15S848,532.3,849.41,530s5.06-1.9,7.5-.57,4.85,3.28,7.61,2.94c3.44-.42,5.42-4.27,5.71-7.73a13.18,13.18,0,0,0-3.38-10.37c-2.65-2.65-7-3.66-10.33-1.85-3,1.65-5.48,5.46-8.77,4.54-2.53-.48-3.29-4.15-1.78-6.24s4.29-2.8,6.86-2.94,5.21.13,7.69-.59a10.79,10.79,0,0,0,7.27-11.38,12.4,12.4,0,0,0-9.31-10.18c-6.84-1.65-13.57,2.15-20.06,3.7C833.05,490.57,826.93,490.9,824.11,496.51Z"/><path d="M1115.29,501.22a11,11,0,0,0,.84,11c1.42,2,3.47,3.45,5.18,5.21a20.06,20.06,0,0,1,4.45,20.14c-1.55,4.45-4.69,8.32-5.53,13-1.12,6.21,3.39,13.36,9.7,13.56,4.41.13,8.48-2.88,12.9-2.67,4.93.24,8.93,4.43,13.84,5,7,.78,12.94-7.19,11.37-14.06s-8.9-11.43-15.94-11.3c-2.73,0-5.54.67-8.15-.15s-4.77-3.93-3.36-6.26,5.06-1.91,7.5-.58,4.85,3.28,7.61,2.94c3.44-.42,5.42-4.27,5.71-7.72a13.2,13.2,0,0,0-3.38-10.38c-2.65-2.65-7-3.66-10.33-1.84-3,1.65-5.48,5.45-8.77,4.53-2.53-.48-3.29-4.15-1.78-6.24s4.29-2.8,6.86-2.94,5.21.14,7.69-.58a10.79,10.79,0,0,0,7.27-11.38,12.37,12.37,0,0,0-9.31-10.18c-6.84-1.66-13.57,2.14-20.06,3.69C1124.23,495.27,1118.11,495.6,1115.29,501.22Z"/><path d="M774.22,487.36c-5.91,1.85-8.15,9.35-7,15.44s4.54,11.49,6.35,17.41a33.85,33.85,0,0,1,0,19.66c-1.32,4.3-3.51,8.86-1.91,13.06,1,2.57,3.23,4.45,5.59,5.88a9.49,9.49,0,0,0,5.17,1.7c5.27-.23,7.7-7.27,12.75-8.79,5.23-1.58,10.12,3.35,15.52,4.19a11.16,11.16,0,0,0,11.55-6.39,11.7,11.7,0,0,0-2.8-13,12.27,12.27,0,0,0-13.24-1.89c-4.93,2.36-8.84,8.1-14.24,7.25-3.13-.5-5.46-3.2-6.81-6.06a20.08,20.08,0,0,1-1.91-7.69c-.19-4.4,1.06-8.73,1.75-13.08.59-3.73.08-7.14-.09-10.84-.12-2.81.84-5.48.77-8.23C785.49,490.46,779.76,485.62,774.22,487.36Z"/><path d="M1215.48,511.5c-1.75-5.11-4.35-10.32-9-13.05a27.37,27.37,0,0,0-7.83-2.67c-8.19-1.89-25.12-10.13-30.15.91-2.07,4.49-1.16,9.81.66,14.41s4.48,8.85,6,13.56a29.85,29.85,0,0,1-.26,18.89c-2,5.59-5.59,11.87-2.48,16.92,2,3.18,5.94,4.42,9.63,5a47.39,47.39,0,0,0,19.15-1.05c5.25-1.39,10.49-3.89,13.56-8.36a24.89,24.89,0,0,0,3.54-10.13A70.5,70.5,0,0,0,1215.48,511.5Zm-9.22,32.33c-.26,2.67-3.35,4.45-6,3.88s-4.57-2.94-5.33-5.51a28.07,28.07,0,0,0-1.13-4.09c-1-2.12-3.12-3.46-4.52-5.34-3.17-4.22-2-10.63,1.6-14.5,1.41-1.51,3.45-2.75,4.59-4.47.57-.85.9-3.15,1.52-3.72,3.2-2.93,5.55,1,5.21,4.22-.45,4.19-2.81,8-3.25,12.19a13.71,13.71,0,0,0,2.93,9.94C1203.76,538.73,1206.54,540.89,1206.26,543.83Z"/><path d="M932.42,531.87c-2.66-1.52-5.54-2.77-7.72-4.92-4.75-4.68-4.91-12.11-6.16-18.67-1.74-9.12-10.81-31.78-22.56-16.48-3.86,5-4,11.92-3.4,18.22s1.72,12.81-.18,18.86c-1.33,4.24-4,7.88-6.14,11.81s-3.59,8.56-2.2,12.79c2.36,7.19,12.92,9.28,18.77,4.49a8.62,8.62,0,0,0,3.32-5.37c.43-3.37-1.9-6.58-1.67-10a6.69,6.69,0,0,1,13.36.57c0,2.67-1.68,5.13-1.72,7.81-.06,4.17,4,7.56,8.15,8s8.2-1.53,11.58-4c2.5-1.81,4.87-4.07,5.8-7C943.7,541.59,938.25,535.19,932.42,531.87Zm-23.23-3.48c-6.2,2.06-4.74-5.74-4.45-8.86.21-2.3.19-5.09-1.76-6.32-.83-.52-1.93-.67-2.58-1.41a3.45,3.45,0,0,1-.38-3.14,7.27,7.27,0,0,1,1.59-3.2,3.93,3.93,0,0,1,3.22-1.32A5.28,5.28,0,0,1,908,506.2a4.38,4.38,0,0,1,.88,1.42c.59,1.81-1,3.59-1.2,5.49s.82,3.44,1.91,4.85,2.35,2.78,2.78,4.51A5.06,5.06,0,0,1,909.19,528.39Z"/><path d="M1107,532.84a29.25,29.25,0,0,0-17.41-7.46c.52-5,6.33-7.28,9.52-11.12,13.72-16.58-17.47-23.43-27.94-24.18-6-.43-10.39,1.62-13.5,7-5.19,9,1.87,15.32,5.81,23a25.72,25.72,0,0,1,1.45,19.71c-1.71,5.06-5.06,10.13-3.66,15.28,1.13,4.13,5,6.83,8.59,9.16a10.13,10.13,0,0,0,3.7,1.74,7.34,7.34,0,0,0,5.75-2,12.87,12.87,0,0,0,4.21-12.14c-.7-3.4-2.73-6.33-4.24-9.45s-2.46-6.87-.93-10c1.73-3.52,6.44-5,10.1-3.56s6.1,5.17,6.56,9.06c.35,3-.34,6.08-.28,9.13a13.7,13.7,0,0,0,4.51,10.34c3,2.47,7.65,3,10.79.76,2.49-1.8,3.64-5,3.92-8A21.76,21.76,0,0,0,1107,532.84ZM1088.3,513a4.73,4.73,0,0,1-4.55.27,5.47,5.47,0,0,1-2-2,4.15,4.15,0,0,1-.51-1.06,4.42,4.42,0,0,1,.62-3.24,12.64,12.64,0,0,1,2.09-2.83,5.46,5.46,0,0,1,1.58-1.17,4.81,4.81,0,0,1,6.7,4.49,4.63,4.63,0,0,1-.77,2.06A9.5,9.5,0,0,1,1088.3,513Z"/><path d="M863.1,407.71c-2.3-11.85-21.38-35.1-32.65-20.46a28.26,28.26,0,0,0-4.7,10.9,60.89,60.89,0,0,0-1.11,22.06c.68,5.1,2.05,10.21,5,14.45s7.54,7.51,12.66,7.86c5.5.38,10.84-2.64,14.3-6.92s5.23-9.7,6.23-15.11A34.37,34.37,0,0,0,863.1,407.71Zm-17.55,20.05a2.75,2.75,0,0,1-1.64.76,2.39,2.39,0,0,1-2-1.14,6.52,6.52,0,0,1-.84-2.24,56.67,56.67,0,0,1-1.45-14.45c.06-2.28.36-5,2.42-6.4a3.44,3.44,0,0,1,4.53.29c1.6,1.73.8,3.82,0,5.67a9.86,9.86,0,0,0-.57,6.76c.48,1.66,1.42,3.18,1.69,4.88A6.49,6.49,0,0,1,845.55,427.76Z"/><path d="M1081.56,399.49c-2.56-13.15-23.78-38.95-36.32-22.71a31.52,31.52,0,0,0-5.22,12.11,67.45,67.45,0,0,0-1.24,24.48c.75,5.65,2.28,11.33,5.52,16s8.38,8.33,14.08,8.73c6.11.42,12.06-2.93,15.9-7.69s5.82-10.76,6.93-16.77A38,38,0,0,0,1081.56,399.49ZM1062,421.75a3.13,3.13,0,0,1-1.82.84,2.67,2.67,0,0,1-2.22-1.27,7.27,7.27,0,0,1-.93-2.49,62.64,62.64,0,0,1-1.62-16c.07-2.53.4-5.54,2.69-7.1a3.85,3.85,0,0,1,5,.31c1.78,1.92.89,4.24,0,6.3a11,11,0,0,0-.64,7.5c.54,1.84,1.59,3.53,1.89,5.42A7.22,7.22,0,0,1,1062,421.75Z"/><path d="M1010.92,402.24c-.11-2.22,1.53-4.28,1.91-4.76,1.14-1.44,1.88-1.44,2.86-2.86a9.06,9.06,0,0,0,1.44-4.29,12.84,12.84,0,0,0-1.24-7.67c-.87-1.68-2.53-5-5.58-5.24-2.82-.25-5.45,1.76-6.74,4.27s-1.51,5.41-1.58,8.23a96.61,96.61,0,0,0,1.17,17.33c.61,3.83,1.76,8.06,5.11,10a3.26,3.26,0,0,0,3.54.15,5.08,5.08,0,0,0,1.16-1.71c3.26-6.1,13.14-7,17.49-1.66,1.29,1.6,2.11,3.79,1.43,5.73s-2.76,3.24-3.68,5.16c-1.89,3.95,1.75,8.18,2.9,12.41,1.57,5.76-2.8,12.58-8.77,13s-11.36-6.44-9-11.94c.9-2.11,2.68-3.84,3.21-6.07s-1.42-5.21-3.54-4.31a11.76,11.76,0,0,1-20,6.51c-2.26-2.28-3.49-5.39-4.4-8.47a100.13,100.13,0,0,1-3.15-16.75c-1-8-1.64-16.31.55-24.09s7.81-15.07,15.64-17.14a16.15,16.15,0,0,1,15.34,4.28c4,4.21,6.16,12.37,5.32,17.77-.18,1.18-.7,3.5.55,5.43,1,1.51,2.24,1.54,3.35,3.33a6.76,6.76,0,0,1,1,4.29c-.63,3.37-5.4,6-9.55,5.24C1014.39,407.87,1011.07,405.24,1010.92,402.24Z"/><path d="M1118.89,376.88c5.41-2.46,10.37-6.27,16.26-7.09a17.06,17.06,0,0,1,11.54,2.59c2.87,1.89,5.24,4.93,5.28,8.36,0,4-3,7.43-6.6,9.28-2.59,1.34-5.67,2.07-8.43,1.14-3.32-1.12-6.25-4.54-9.61-3.52-2.23.67-3.41,3.06-4.27,5.22-1.63,4.07-3.06,8.22-4.3,12.42-.69,2.33-1.32,4.8-.76,7.16,1.09,4.68,6.33,7.35,8,11.87,2,5.62-2.5,11.76-8,14.25-4.83,2.21-10.93,2.35-15.13-.89-5.36-4.13-5.87-12.34-3.19-18.54,1.8-4.17,4.74-7.74,6.8-11.79s3.2-9,1.17-13a5.14,5.14,0,0,0-2.39-2.54c-2.17-.95-4.57.42-6.66,1.52a15.29,15.29,0,0,1-8.63,2.11c-5-.53-8.91-4.78-10.8-9.43-1.1-2.69-1.67-5.76-.66-8.49,1.66-4.42,7.09-6.46,11.77-5.81,5,.7,8.55,4,13,5.81A19.45,19.45,0,0,0,1118.89,376.88Z"/><path d="M969.67,486.07c5.16,2.07,8.89,6.74,11.19,11.8,3.56,7.84,3.5,18.47-3.37,23.67-2.69,2-6.39,2.94-9.5,1.66s-5.16-5.1-3.88-8.21,5.13-4.83,5.29-8.12c.15-3.07-3.53-5.27-6.53-4.58s-5.16,3.37-6.48,6.15c-2,4.32-2.57,9.54-.55,13.87s6.91,7.41,11.61,6.54c3.35-.61,6.37-3,9.75-2.67,4.31.46,6.83,5.25,7.24,9.56A21.61,21.61,0,0,1,972,557.16c-8.1,3.5-18.48.91-23.77-6.16-2.12-2.83-3.44-6.61-2.22-9.93a7.39,7.39,0,0,1,13.72-.38,20.52,20.52,0,0,0,1.14,2.78c1.57,2.51,5.78,2.47,7.53.09a5.59,5.59,0,0,0-1.7-7.7c-2.73-1.68-6.25-.91-9.38-1.58-6.05-1.31-9.52-7.69-11.17-13.66s-2.29-12.35-.63-18.31C948.24,492.51,958.68,481.67,969.67,486.07Z"/><path d="M751.13,482.22c-17.6-13.88-53.67-2-44.33,24.11,2.76,7.68,9.54,13.36,12.5,21a23.58,23.58,0,0,1,.05,16.77c-1.26,3.3-3.28,6.34-3.91,9.81-1.26,7,4.41,14.4,11.47,15s13.94-5.71,13.92-12.8c0-6.42-4.69-11.72-8-17.25s-4.79-13.61.22-17.63c4.54-3.64,10.69-1.44,15.76-3.35,5.86-2.22,8-7.13,8.94-13C759.15,496.65,758.05,487.68,751.13,482.22ZM740.85,505a21.59,21.59,0,0,1-4.54,5.24,3.62,3.62,0,0,1-1.76,1.08,2.5,2.5,0,0,1-2.53-2.18,8.38,8.38,0,0,1,.45-3.63,17.41,17.41,0,0,0,.59-7c-.27-1.75-2.08-4-1.68-5.77,1-4.12,6.67-2.71,8.49-.14A12,12,0,0,1,740.85,505Z"/><path class="cls-15" d="M542.17,983.2V964.13l-14.68-22.76a48.17,48.17,0,0,1-2.73-4.8,7.4,7.4,0,0,1-.8-3,4.79,4.79,0,0,1,1.62-3.61,5.62,5.62,0,0,1,4-1.51,4.88,4.88,0,0,1,3.79,1.41,40.73,40.73,0,0,1,3.88,5.64l11.24,18.25,11.36-18.25c.68-1.12,1.26-2.06,1.72-2.83a17.77,17.77,0,0,1,1.54-2.15A6,6,0,0,1,565,929a5.84,5.84,0,0,1,6.33,1,4.7,4.7,0,0,1,1.54,3.47,7.28,7.28,0,0,1-.78,3.2,43.74,43.74,0,0,1-2.66,4.43l-15.06,23.09V983.2q0,3.74-1.72,5.58a6.18,6.18,0,0,1-8.78,0C542.73,987.58,542.17,985.72,542.17,983.2Z"/><path class="cls-16" d="M548.24,986.62a1.67,1.67,0,0,1-1.44-.53c-.15-.16-.63-.84-.63-2.89V963L530.85,939.2a42.84,42.84,0,0,1-2.46-4.32,3.85,3.85,0,0,1-.43-1.31c0-.17,0-.36.36-.69a1.66,1.66,0,0,1,1.26-.43,2,2,0,0,1,.86.12,38.56,38.56,0,0,1,3.4,5l14.63,23.76,14.78-23.74,1.74-2.86a14.37,14.37,0,0,1,1.19-1.67,2.21,2.21,0,0,1,.64-.55h0a1.83,1.83,0,0,1,.66-.08,1.24,1.24,0,0,1,1,.36c.33.32.33.47.33.6a3.35,3.35,0,0,1-.37,1.45,37.69,37.69,0,0,1-2.4,4l-15.73,24.12V983.2c0,1.95-.45,2.64-.64,2.85A1.8,1.8,0,0,1,548.24,986.62Z"/><path class="cls-15" d="M606.61,928.45a32.12,32.12,0,0,1,16.06,3.79A24.58,24.58,0,0,1,632.82,943a36.82,36.82,0,0,1,3.44,16.42,40.44,40.44,0,0,1-1.88,12.68,27.53,27.53,0,0,1-5.66,9.88,24.83,24.83,0,0,1-9.27,6.4,33.48,33.48,0,0,1-12.6,2.21,33.14,33.14,0,0,1-12.63-2.27,25.11,25.11,0,0,1-9.31-6.42,27.31,27.31,0,0,1-5.64-10,40.26,40.26,0,0,1-1.91-12.59,39,39,0,0,1,2-12.71,27.3,27.3,0,0,1,5.77-9.85,24.85,24.85,0,0,1,9.18-6.21A33,33,0,0,1,606.61,928.45Zm17.31,30.92a28,28,0,0,0-2.14-11.44,15.86,15.86,0,0,0-6.09-7.32,16.68,16.68,0,0,0-9.08-2.49,16.4,16.4,0,0,0-6.75,1.38,14.9,14.9,0,0,0-5.33,4,19.07,19.07,0,0,0-3.53,6.7,30.42,30.42,0,0,0-1.29,9.17,31.09,31.09,0,0,0,1.29,9.27,19,19,0,0,0,3.65,6.87,15.26,15.26,0,0,0,5.42,4.08,17,17,0,0,0,15.29-1,16.18,16.18,0,0,0,6.24-7.22A28,28,0,0,0,623.92,959.37Z"/><path class="cls-16" d="M606.85,986.62a29.25,29.25,0,0,1-11.12-2,21.15,21.15,0,0,1-7.85-5.39,23.55,23.55,0,0,1-4.81-8.53,36.54,36.54,0,0,1-1.71-11.35A34.88,34.88,0,0,1,583.14,948a23.28,23.28,0,0,1,4.91-8.42,20.91,20.91,0,0,1,7.73-5.22,29.09,29.09,0,0,1,10.83-1.87,28.42,28.42,0,0,1,14.09,3.27,20.46,20.46,0,0,1,8.53,9.07,33.06,33.06,0,0,1,3,14.66,36.35,36.35,0,0,1-1.68,11.42,23.62,23.62,0,0,1-4.83,8.46,20.64,20.64,0,0,1-7.8,5.37A29.63,29.63,0,0,1,606.85,986.62Zm-.24-52.5a20.48,20.48,0,0,0-8.37,1.72,19,19,0,0,0-6.76,5.06,23.2,23.2,0,0,0-4.29,8.1,34.45,34.45,0,0,0-1.48,10.37,35.39,35.39,0,0,0,1.47,10.46,23,23,0,0,0,4.45,8.3,19.26,19.26,0,0,0,6.82,5.12,21,21,0,0,0,19-1.21,20,20,0,0,0,7.8-8.94,35.89,35.89,0,0,0,.23-26.79,19.94,19.94,0,0,0-7.62-9.09A20.81,20.81,0,0,0,606.61,934.12Z"/><path class="cls-15" d="M646.76,964.74V935.83a8.1,8.1,0,0,1,1.66-5.54,5.61,5.61,0,0,1,4.37-1.84,5.72,5.72,0,0,1,4.49,1.84q1.66,1.85,1.66,5.54V965.4a27.07,27.07,0,0,0,1.13,8.43,9.78,9.78,0,0,0,4,5.25c1.91,1.24,4.59,1.87,8,1.87q7.14,0,10.09-3.8t2.95-11.5V935.83q0-3.74,1.64-5.56a5.61,5.61,0,0,1,4.39-1.82,5.78,5.78,0,0,1,4.45,1.82c1.14,1.22,1.7,3.07,1.7,5.56v28.91A42.7,42.7,0,0,1,696,976.52a18.16,18.16,0,0,1-5.19,8.28,20.22,20.22,0,0,1-7.63,4.43A33.39,33.39,0,0,1,673,990.62,41.82,41.82,0,0,1,661,989.13a19.18,19.18,0,0,1-8.17-4.64,18.67,18.67,0,0,1-4.63-8A40.64,40.64,0,0,1,646.76,964.74Z"/><path class="cls-16" d="M673,986.62a38.33,38.33,0,0,1-10.79-1.32,15.42,15.42,0,0,1-6.49-3.64,14.72,14.72,0,0,1-3.62-6.36,37.06,37.06,0,0,1-1.31-10.56V935.83c0-2,.45-2.65.64-2.86a1.58,1.58,0,0,1,1.39-.52c1.05,0,1.36.33,1.52.52s.63.91.63,2.86V965.4a30.46,30.46,0,0,0,1.34,9.69,13.65,13.65,0,0,0,5.61,7.34c2.6,1.69,5.94,2.52,10.22,2.52,6,0,10.49-1.8,13.25-5.34,2.55-3.28,3.79-7.85,3.79-14V935.83c0-2,.47-2.73.62-2.89a1.64,1.64,0,0,1,1.41-.49,1.83,1.83,0,0,1,1.53.55c.14.16.62.83.62,2.83v28.91a39,39,0,0,1-1.21,10.66,14.15,14.15,0,0,1-4.08,6.48,15.94,15.94,0,0,1-6.12,3.54A29.56,29.56,0,0,1,673,986.62Z"/><path class="cls-15" d="M786.42,965.15v11.53a12.16,12.16,0,0,1-.45,3.67,5.85,5.85,0,0,1-1.66,2.48,15.48,15.48,0,0,1-3.1,2.13,48.68,48.68,0,0,1-10.5,4.31,42.42,42.42,0,0,1-11,1.35,35.84,35.84,0,0,1-12.63-2.13,26.51,26.51,0,0,1-9.72-6.19,27.47,27.47,0,0,1-6.18-9.84A37,37,0,0,1,729,959.54a37.84,37.84,0,0,1,2.09-12.84,26.49,26.49,0,0,1,6.15-9.89,27.08,27.08,0,0,1,9.89-6.21,37.78,37.78,0,0,1,13.21-2.15,32.77,32.77,0,0,1,10.74,1.62,23.62,23.62,0,0,1,7.59,4.08,18.2,18.2,0,0,1,4.39,5.21,10.58,10.58,0,0,1,1.47,4.88,5.18,5.18,0,0,1-1.7,3.91,5.69,5.69,0,0,1-4.08,1.62,5.51,5.51,0,0,1-2.52-.61,5.8,5.8,0,0,1-2-1.72,47.85,47.85,0,0,0-3.82-5.34,12.36,12.36,0,0,0-4.2-3,16,16,0,0,0-6.75-1.23,18.61,18.61,0,0,0-7.54,1.45,15.49,15.49,0,0,0-5.68,4.23,18.83,18.83,0,0,0-3.61,6.79,29.63,29.63,0,0,0-1.25,8.9q0,10.57,4.86,16.28t13.55,5.7a27.6,27.6,0,0,0,7.94-1.11,40.07,40.07,0,0,0,7.52-3.15v-9.77h-9.43a10.41,10.41,0,0,1-5.15-1,3.72,3.72,0,0,1-1.74-3.49,4.29,4.29,0,0,1,1.46-3.32,5.71,5.71,0,0,1,4-1.31h13.83a17.62,17.62,0,0,1,4.3.45,4.82,4.82,0,0,1,2.85,2A8.16,8.16,0,0,1,786.42,965.15Z"/><path class="cls-16" d="M759.72,986.62a32.14,32.14,0,0,1-11.23-1.87,22.6,22.6,0,0,1-8.28-5.27,23.37,23.37,0,0,1-5.27-8.42,33.06,33.06,0,0,1-1.9-11.52,33.73,33.73,0,0,1,1.86-11.49,22.39,22.39,0,0,1,5.21-8.41,23.32,23.32,0,0,1,8.45-5.29,34.16,34.16,0,0,1,11.82-1.9,28.89,28.89,0,0,1,9.43,1.4,19.88,19.88,0,0,1,6.32,3.35,14.43,14.43,0,0,1,3.44,4,6.58,6.58,0,0,1,1,3,1.23,1.23,0,0,1-.46,1,1.72,1.72,0,0,1-1.32.51,1.47,1.47,0,0,1-.71-.18,1.65,1.65,0,0,1-.56-.46,50.49,50.49,0,0,0-4.07-5.64,16.38,16.38,0,0,0-5.54-4,20.11,20.11,0,0,0-8.44-1.6,22.7,22.7,0,0,0-9.15,1.79,19.65,19.65,0,0,0-7.12,5.29,23,23,0,0,0-4.38,8.2,33.93,33.93,0,0,0-1.43,10.09c0,8,2,14.35,5.81,18.88,4,4.71,9.61,7.1,16.6,7.1a31.93,31.93,0,0,0,9.08-1.27,44.68,44.68,0,0,0,8.28-3.47l2.1-1.13V963.16H765.83a8.64,8.64,0,0,1-2.89-.36v-.15c0-.23,0-.25.14-.35a2.08,2.08,0,0,1,1.27-.28h13.83a14.16,14.16,0,0,1,3.31.32.88.88,0,0,1,.56.43,4.65,4.65,0,0,1,.37,2.38v11.53a8.43,8.43,0,0,1-.25,2.42,1.88,1.88,0,0,1-.56.78,11.52,11.52,0,0,1-2.31,1.57,45.07,45.07,0,0,1-9.62,4A38.45,38.45,0,0,1,759.72,986.62Z"/><path class="cls-15" d="M824.48,928.45a32.09,32.09,0,0,1,16.06,3.79A24.52,24.52,0,0,1,850.69,943a36.68,36.68,0,0,1,3.45,16.42,40.14,40.14,0,0,1-1.89,12.68,27.38,27.38,0,0,1-5.66,9.88,24.75,24.75,0,0,1-9.27,6.4,36.61,36.61,0,0,1-25.22-.06,25,25,0,0,1-9.31-6.42,27.31,27.31,0,0,1-5.64-10,40,40,0,0,1-1.91-12.59,38.72,38.72,0,0,1,2-12.71,27.14,27.14,0,0,1,5.76-9.85,25,25,0,0,1,9.19-6.21A33,33,0,0,1,824.48,928.45Zm17.31,30.92a28.21,28.21,0,0,0-2.13-11.44,15.86,15.86,0,0,0-6.09-7.32,16.71,16.71,0,0,0-9.09-2.49,16.35,16.35,0,0,0-6.74,1.38,14.85,14.85,0,0,0-5.34,4,19.06,19.06,0,0,0-3.52,6.7,30.41,30.41,0,0,0-1.3,9.17,31.08,31.08,0,0,0,1.3,9.27,18.89,18.89,0,0,0,3.65,6.87,15.23,15.23,0,0,0,5.41,4.08,17.06,17.06,0,0,0,15.3-1,16.16,16.16,0,0,0,6.23-7.22A27.86,27.86,0,0,0,841.79,959.37Z"/><path class="cls-16" d="M824.73,986.62a29.25,29.25,0,0,1-11.12-2,21.15,21.15,0,0,1-7.85-5.39,23.55,23.55,0,0,1-4.81-8.53,36.25,36.25,0,0,1-1.71-11.35A35.15,35.15,0,0,1,801,948a23.43,23.43,0,0,1,4.91-8.42,21,21,0,0,1,7.74-5.22,29.07,29.07,0,0,1,10.82-1.87,28.37,28.37,0,0,1,14.09,3.27,20.46,20.46,0,0,1,8.53,9.07,32.92,32.92,0,0,1,3,14.66,36.34,36.34,0,0,1-1.69,11.42,23.48,23.48,0,0,1-4.83,8.46,20.53,20.53,0,0,1-7.79,5.37A29.66,29.66,0,0,1,824.73,986.62Zm-.25-52.5a20.52,20.52,0,0,0-8.37,1.72,18.92,18.92,0,0,0-6.75,5.06,23.21,23.21,0,0,0-4.3,8.1,34.45,34.45,0,0,0-1.48,10.37,35.06,35.06,0,0,0,1.48,10.46,23,23,0,0,0,4.44,8.3,19.35,19.35,0,0,0,6.82,5.12,21.06,21.06,0,0,0,19-1.21,20.1,20.1,0,0,0,7.8-8.94,36,36,0,0,0,.23-26.79,19.9,19.9,0,0,0-7.63-9.09A20.76,20.76,0,0,0,824.48,934.12Z"/><path class="cls-15" d="M900.4,939.52H887.11V983.2c0,2.52-.56,4.38-1.68,5.6a5.63,5.63,0,0,1-4.35,1.82,5.7,5.7,0,0,1-4.4-1.84Q875,986.94,875,983.2V939.52H861.68a6.76,6.76,0,0,1-4.63-1.37,5.11,5.11,0,0,1,.06-7.33,6.85,6.85,0,0,1,4.57-1.35H900.4a6.82,6.82,0,0,1,4.7,1.4,4.69,4.69,0,0,1,1.54,3.65,4.61,4.61,0,0,1-1.56,3.63A6.94,6.94,0,0,1,900.4,939.52Z"/><path class="cls-16" d="M881.08,986.62a1.73,1.73,0,0,1-1.46-.55c-.2-.21-.65-.91-.65-2.87V935.52H861.68a3.63,3.63,0,0,1-1.94-.34c-.1-.09-.21-.18-.21-.66s.11-.59.18-.66a3.52,3.52,0,0,1,2-.39H900.4a3.68,3.68,0,0,1,2,.36c.11.1.23.2.23.69s-.1.53-.21.62a3.66,3.66,0,0,1-2,.38H883.11V983.2c0,2-.47,2.73-.62,2.89A1.65,1.65,0,0,1,881.08,986.62Z"/><path class="cls-15" d="M1102.16,980.54l-9.64-38.31v41.5a7.53,7.53,0,0,1-1.54,5.17,5.65,5.65,0,0,1-8.1,0q-1.56-1.7-1.56-5.19V936.16c0-2.63.69-4.4,2-5.32a9.9,9.9,0,0,1,5.54-1.37h3.77a14.44,14.44,0,0,1,5,.62,4.13,4.13,0,0,1,2.27,2.21,33.45,33.45,0,0,1,1.69,5.21l8.73,32.94,8.74-32.94a34.81,34.81,0,0,1,1.68-5.21,4.11,4.11,0,0,1,2.28-2.21,14.33,14.33,0,0,1,4.94-.62h3.77a9.87,9.87,0,0,1,5.54,1.37q2.06,1.38,2,5.32v47.57a7.53,7.53,0,0,1-1.54,5.17,5.24,5.24,0,0,1-4.12,1.72,5.13,5.13,0,0,1-4-1.72,7.49,7.49,0,0,1-1.56-5.17v-41.5l-9.64,38.31c-.63,2.48-1.14,4.31-1.53,5.47a7.61,7.61,0,0,1-2.2,3.18,6.38,6.38,0,0,1-4.43,1.43,6.66,6.66,0,0,1-3.61-.92,6.55,6.55,0,0,1-2.29-2.36,13.33,13.33,0,0,1-1.3-3.18Z"/><path class="cls-16" d="M1133.66,986.62a1.15,1.15,0,0,1-1-.4,4.1,4.1,0,0,1-.53-2.49v-41.5l-7.88-1-9.64,38.31c-.59,2.37-1.08,4.1-1.44,5.16a3.57,3.57,0,0,1-1.08,1.49,3,3,0,0,1-1.76.41,2.88,2.88,0,0,1-1.49-.31,2.75,2.75,0,0,1-.94-.95,9.63,9.63,0,0,1-.91-2.24c-.31-1.15-.63-2.35-1-3.59l-9.63-38.28-7.88,1v41.5a4.26,4.26,0,0,1-.52,2.51c-.14.15-.35.38-1.1.38a1.25,1.25,0,0,1-1.07-.4c-.08-.09-.51-.65-.51-2.49V936.16a3.74,3.74,0,0,1,.34-2,6.34,6.34,0,0,1,3.25-.65h3.77a11,11,0,0,1,3.46.33s.08.05.13.18a29.73,29.73,0,0,1,1.45,4.54l12.6,47.53,12.6-47.51a29.49,29.49,0,0,1,1.45-4.56.65.65,0,0,1,.1-.17,10.93,10.93,0,0,1,3.49-.34h3.77a6.28,6.28,0,0,1,3.31.69h0a5.08,5.08,0,0,1,.28,2v47.57a4.26,4.26,0,0,1-.52,2.51C1134.67,986.38,1134.45,986.62,1133.66,986.62Z"/><path class="cls-15" d="M1178.28,928.45a32.09,32.09,0,0,1,16.06,3.79A24.52,24.52,0,0,1,1204.49,943a36.68,36.68,0,0,1,3.45,16.42,40.14,40.14,0,0,1-1.89,12.68,27.38,27.38,0,0,1-5.66,9.88,24.67,24.67,0,0,1-9.27,6.4,36.61,36.61,0,0,1-25.22-.06,25.11,25.11,0,0,1-9.31-6.42,27.31,27.31,0,0,1-5.64-10,40.26,40.26,0,0,1-1.91-12.59,38.72,38.72,0,0,1,2-12.71,27.42,27.42,0,0,1,5.76-9.85,25,25,0,0,1,9.19-6.21A33,33,0,0,1,1178.28,928.45Zm17.31,30.92a28.21,28.21,0,0,0-2.13-11.44,15.86,15.86,0,0,0-6.09-7.32,16.71,16.71,0,0,0-9.09-2.49,16.35,16.35,0,0,0-6.74,1.38,14.82,14.82,0,0,0-5.33,4,19.07,19.07,0,0,0-3.53,6.7,30.42,30.42,0,0,0-1.29,9.17,31.09,31.09,0,0,0,1.29,9.27,19,19,0,0,0,3.65,6.87,15.31,15.31,0,0,0,5.41,4.08,17.06,17.06,0,0,0,15.3-1,16.24,16.24,0,0,0,6.24-7.22A28,28,0,0,0,1195.59,959.37Z"/><path class="cls-16" d="M1178.53,986.62a29.25,29.25,0,0,1-11.12-2,21.15,21.15,0,0,1-7.85-5.39,23.55,23.55,0,0,1-4.81-8.53,36.54,36.54,0,0,1-1.71-11.35,35.2,35.2,0,0,1,1.77-11.41,23.43,23.43,0,0,1,4.91-8.42,21,21,0,0,1,7.74-5.22,29.07,29.07,0,0,1,10.82-1.87,28.37,28.37,0,0,1,14.09,3.27,20.53,20.53,0,0,1,8.54,9.07,33.06,33.06,0,0,1,3,14.66,36.34,36.34,0,0,1-1.69,11.42,23.48,23.48,0,0,1-4.83,8.46,20.83,20.83,0,0,1-7.79,5.37A29.66,29.66,0,0,1,1178.53,986.62Zm-.25-52.5a20.43,20.43,0,0,0-8.36,1.72,19,19,0,0,0-6.76,5.06,23.21,23.21,0,0,0-4.3,8.1,34.46,34.46,0,0,0-1.47,10.37,35.07,35.07,0,0,0,1.47,10.46,23.12,23.12,0,0,0,4.44,8.3,19.44,19.44,0,0,0,6.82,5.12,21.06,21.06,0,0,0,19-1.21,20.1,20.1,0,0,0,7.8-8.94,32,32,0,0,0,2.7-13.73,32.34,32.34,0,0,0-2.47-13.06,19.9,19.9,0,0,0-7.63-9.09A20.76,20.76,0,0,0,1178.28,934.12Z"/><path class="cls-15" d="M1253.63,982.79l-2.87-7.55h-24.45l-2.87,7.72a27.42,27.42,0,0,1-2.87,6.09,4.56,4.56,0,0,1-3.89,1.57,5.73,5.73,0,0,1-4.07-1.68,5.16,5.16,0,0,1-1.76-3.81,8.58,8.58,0,0,1,.41-2.54c.27-.88.73-2.1,1.35-3.65L1228,939.89c.43-1.12,1-2.47,1.57-4a21.28,21.28,0,0,1,2-3.92,8,8,0,0,1,2.75-2.52,9.78,9.78,0,0,1,8.45,0,8.13,8.13,0,0,1,2.75,2.48,17.32,17.32,0,0,1,1.76,3.26c.48,1.16,1.09,2.72,1.83,4.66l15.71,38.8a19.45,19.45,0,0,1,1.84,6.44,5.33,5.33,0,0,1-1.74,3.83,5.73,5.73,0,0,1-4.21,1.74,5.51,5.51,0,0,1-2.46-.51,5.05,5.05,0,0,1-1.72-1.39A13.37,13.37,0,0,1,1255,986C1254.47,984.79,1254,983.72,1253.63,982.79Zm-24.12-16.69h18l-9.07-24.82Z"/><path class="cls-16" d="M1260.68,986.62a1.57,1.57,0,0,1-.67-.09,1,1,0,0,1-.37-.29,9.43,9.43,0,0,1-1-1.83q-.76-1.75-1.32-3.09l-3.83-10.08h-30l-3.84,10.32a25.48,25.48,0,0,1-2.24,5,2.89,2.89,0,0,1-.77.08,1.69,1.69,0,0,1-1.3-.57c-.53-.5-.53-.77-.53-.92a4.61,4.61,0,0,1,.23-1.35c.24-.77.66-1.9,1.24-3.35l15.4-39.08,1.58-4a16.14,16.14,0,0,1,1.57-3.15,3.88,3.88,0,0,1,1.39-1.27,3.43,3.43,0,0,1,1-.35l-13.47,37.56h29.37l-13.73-37.6a3.57,3.57,0,0,1,1.3.39,4.21,4.21,0,0,1,1.43,1.27,13.73,13.73,0,0,1,1.35,2.51c.47,1.13,1.07,2.67,1.79,4.56l15.74,38.88c1.51,3.62,1.55,4.81,1.55,4.94s0,.43-.57,1A1.76,1.76,0,0,1,1260.68,986.62Z"/><path class="cls-15" d="M1291.45,935.75l23.42,35.43V935.42a7.88,7.88,0,0,1,1.49-5.23,5.07,5.07,0,0,1,4-1.74,5.24,5.24,0,0,1,4.15,1.74,7.77,7.77,0,0,1,1.51,5.23v47.29q0,7.92-6.56,7.91a8.53,8.53,0,0,1-3-.47,7.35,7.35,0,0,1-2.46-1.49,15.12,15.12,0,0,1-2.14-2.4c-.65-.92-1.31-1.86-2-2.81l-22.85-35v35.23a7.49,7.49,0,0,1-1.6,5.21,5.68,5.68,0,0,1-8.24,0,7.66,7.66,0,0,1-1.56-5.19V937.26a13.29,13.29,0,0,1,.65-4.63,6.61,6.61,0,0,1,2.59-3,7,7,0,0,1,3.89-1.16,6.65,6.65,0,0,1,2.81.53,6.58,6.58,0,0,1,2,1.43,15.27,15.27,0,0,1,1.81,2.34Z"/><path class="cls-16" d="M1319.5,986.62a4.74,4.74,0,0,1-1.6-.23,3.53,3.53,0,0,1-1.15-.72,10.55,10.55,0,0,1-1.54-1.74c-.64-.9-1.28-1.81-1.92-2.74L1283.14,935v48.69a4.21,4.21,0,0,1-.56,2.52,1.31,1.31,0,0,1-1.14.45c-.71,0-.94-.19-1.13-.41a4.32,4.32,0,0,1-.57-2.56V937.26a9.79,9.79,0,0,1,.36-3.13,2.69,2.69,0,0,1,1.05-1.16,3,3,0,0,1,1.72-.52,2.83,2.83,0,0,1,1.16.17,3,3,0,0,1,.85.59,12.13,12.13,0,0,1,1.3,1.7l1.88,3,30.81,46.61V935.42a4.56,4.56,0,0,1,.53-2.63c.12-.14.3-.34,1-.34s1,.23,1.13.36a4.5,4.5,0,0,1,.53,2.61v47.29C1322.06,986.62,1320.88,986.62,1319.5,986.62Z"/><path class="cls-15" d="M1385.09,971.55a17.71,17.71,0,0,1-2.81,9.81,18.75,18.75,0,0,1-8.23,6.8,30.83,30.83,0,0,1-12.84,2.46q-8.89,0-14.68-3.36a19.42,19.42,0,0,1-6.66-6.46,14.65,14.65,0,0,1-2.57-7.85,5.33,5.33,0,0,1,5.46-5.38,4.64,4.64,0,0,1,3.26,1.23,9.54,9.54,0,0,1,2.27,3.66,24.42,24.42,0,0,0,2.49,4.79,9.93,9.93,0,0,0,3.75,3.18,13.78,13.78,0,0,0,6.36,1.25,14.32,14.32,0,0,0,8.79-2.52,7.58,7.58,0,0,0,3.39-6.29,6.67,6.67,0,0,0-1.83-4.87,11.84,11.84,0,0,0-4.71-2.85q-2.9-1-7.74-2.09a56,56,0,0,1-10.84-3.55A17.45,17.45,0,0,1,1341,954a14.39,14.39,0,0,1-2.56-8.72,14.93,14.93,0,0,1,2.71-8.82,17,17,0,0,1,7.83-5.92,32.12,32.12,0,0,1,12.06-2.07,29.78,29.78,0,0,1,9.58,1.37,20.2,20.2,0,0,1,6.7,3.65,15.23,15.23,0,0,1,3.9,4.78,11,11,0,0,1,1.23,4.88,5.77,5.77,0,0,1-1.54,3.92,4.89,4.89,0,0,1-3.83,1.74,4.39,4.39,0,0,1-3.18-1,13.93,13.93,0,0,1-2.36-3.42,15.47,15.47,0,0,0-3.94-5.31q-2.29-1.9-7.38-1.91a12.81,12.81,0,0,0-7.61,2.07,6,6,0,0,0-2.89,5,5.07,5.07,0,0,0,1,3.12,8.28,8.28,0,0,0,2.71,2.26,17.77,17.77,0,0,0,3.49,1.47q1.75.54,5.82,1.56a92.66,92.66,0,0,1,9.21,2.63,27.79,27.79,0,0,1,7,3.48,14.48,14.48,0,0,1,4.52,5.19A16.63,16.63,0,0,1,1385.09,971.55Z"/><path class="cls-16" d="M1361.21,986.62c-5.19,0-9.45-.94-12.67-2.82a15.42,15.42,0,0,1-5.3-5.14,10.91,10.91,0,0,1-1.94-5.71,1.34,1.34,0,0,1,1.46-1.38.65.65,0,0,1,.54.17,5.77,5.77,0,0,1,1.27,2.17,28.23,28.23,0,0,0,2.92,5.62,14.15,14.15,0,0,0,5.2,4.46,17.61,17.61,0,0,0,8.2,1.69,18.26,18.26,0,0,0,11.18-3.31,11.57,11.57,0,0,0,5-9.5,10.69,10.69,0,0,0-3-7.66,15.79,15.79,0,0,0-6.29-3.84,83.51,83.51,0,0,0-8.12-2.21,53.08,53.08,0,0,1-10.06-3.27,13.57,13.57,0,0,1-5.39-4.27,10.46,10.46,0,0,1-1.79-6.36,11,11,0,0,1,2-6.52,13.07,13.07,0,0,1,6.06-4.51,28.12,28.12,0,0,1,10.56-1.78,26.06,26.06,0,0,1,8.29,1.16,16.33,16.33,0,0,1,5.4,2.9,11.39,11.39,0,0,1,2.9,3.5,7.23,7.23,0,0,1,.82,3.12,1.79,1.79,0,0,1-.54,1.27.93.93,0,0,1-.83.39,2.52,2.52,0,0,1-.52,0,12.14,12.14,0,0,1-1.46-2.25,19.45,19.45,0,0,0-4.94-6.57c-2.3-1.9-5.55-2.83-9.94-2.83a16.73,16.73,0,0,0-9.94,2.82,9.88,9.88,0,0,0-4.56,8.23,9,9,0,0,0,1.78,5.52,12.41,12.41,0,0,0,4,3.37,22.61,22.61,0,0,0,4.25,1.79c1.26.38,3.22.91,6,1.61a90.58,90.58,0,0,1,8.87,2.52,23.79,23.79,0,0,1,6,3,10.3,10.3,0,0,1,3.27,3.76,12.78,12.78,0,0,1,1.18,5.85,13.59,13.59,0,0,1-2.17,7.63,14.66,14.66,0,0,1-6.52,5.34A27,27,0,0,1,1361.21,986.62Z"/></g></svg>