<svg xmlns="http://www.w3.org/2000/svg" xmlns:xlink="http://www.w3.org/1999/xlink" width="1920" height="1080" viewBox="0 0 1920 1080"><defs><style>.cls-1{fill:url(#linear-gradient);}.cls-2{fill:url(#linear-gradient-2);}.cls-3{fill:#fff;}.cls-4{fill:#00661a;filter:url(#AI_GaussianBlur_4);}.cls-5{fill:#00ff36;}.cls-6{fill:#473f48;}.cls-7{fill:#e300e7;}.cls-8{fill:#bf22e3;}.cls-9{fill:#9b2256;}.cls-10{fill:#9e005d;}.cls-11{fill:#c23772;}.cls-12{fill:#f0f;}</style><linearGradient id="linear-gradient" x1="709.12" y1="679.47" x2="723.31" y2="679.47" gradientUnits="userSpaceOnUse"><stop offset="0" stop-color="lime"/><stop offset="1"/></linearGradient><linearGradient id="linear-gradient-2" x1="0" y1="540" x2="1920" y2="540" xlink:href="#linear-gradient"/><filter id="AI_GaussianBlur_4" name="AI_GaussianBlur_4"><feGaussianBlur stdDeviation="4"/></filter></defs><g id="Layer_1" data-name="Layer 1"><path class="cls-1" d="M723.1,682.63q-7-3.06-14-6.32,7.08,2.13,14.19,4.21C723.23,681.22,723.16,681.92,723.1,682.63Z"/><path class="cls-2" d="M234.58,697.51c2.74-1.24,5.48-2.62,8.17-4.15Q238.46,695.5,234.58,697.51Zm487,16.6A89,89,0,0,0,707,697.63q6.72,11.86,14.61,25.37l3.66,6.21A100,100,0,0,0,736.55,745a15.61,15.61,0,0,0,2.49-5C732.45,730.81,727.2,722,721.57,714.11ZM271.92,664.59a90.34,90.34,0,0,1-8.81,12.3,77.46,77.46,0,0,1-20.36,16.47c6.13-3.08,12.88-6.38,20.36-9.93,1.47-.7,2.9-1.45,4.36-2.18,8.39-4.18,9.89-4.87,10.9-6.54a7.16,7.16,0,0,0,1-3.51A35,35,0,0,1,271.92,664.59Zm-37.34,32.92c2.74-1.24,5.48-2.62,8.17-4.15Q238.46,695.5,234.58,697.51Zm-24.26,8.18q3,.62,6.06,1.53c5.12-2.84,11.17-6.09,18.2-9.71A143.25,143.25,0,0,1,210.32,705.69Zm24.26-8.18c2.74-1.24,5.48-2.62,8.17-4.15Q238.46,695.5,234.58,697.51ZM278.37,666a31.3,31.3,0,0,1-1-10.79c-.37.69-.76,1.38-1.15,2.07-1.4,2.45-2.79,4.89-4.27,7.32a90.34,90.34,0,0,1-8.81,12.3,77.46,77.46,0,0,1-20.36,16.47c6.13-3.08,12.88-6.38,20.36-9.93,1.47-.7,2.9-1.45,4.36-2.18,8.39-4.18,9.89-4.87,10.9-6.54a7.16,7.16,0,0,0,1-3.51A15.68,15.68,0,0,0,278.37,666Zm443.2,48.12A89,89,0,0,0,707,697.63q6.72,11.86,14.61,25.37l3.66,6.21A100,100,0,0,0,736.55,745a15.61,15.61,0,0,0,2.49-5C732.45,730.81,727.2,722,721.57,714.11ZM278.37,666a31.3,31.3,0,0,1-1-10.79c-.37.69-.76,1.38-1.15,2.07-1.4,2.45-2.79,4.89-4.27,7.32a90.34,90.34,0,0,1-8.81,12.3,77.46,77.46,0,0,1-20.36,16.47c6.13-3.08,12.88-6.38,20.36-9.93,1.47-.7,2.9-1.45,4.36-2.18,8.39-4.18,9.89-4.87,10.9-6.54a7.16,7.16,0,0,0,1-3.51A15.68,15.68,0,0,0,278.37,666Zm-43.79,31.52c2.74-1.24,5.48-2.62,8.17-4.15Q238.46,695.5,234.58,697.51Zm-24.26,8.18q3,.62,6.06,1.53c5.12-2.84,11.17-6.09,18.2-9.71A143.25,143.25,0,0,1,210.32,705.69Zm24.26-8.18c2.74-1.24,5.48-2.62,8.17-4.15Q238.46,695.5,234.58,697.51ZM278.37,666a31.3,31.3,0,0,1-1-10.79c-.37.69-.76,1.38-1.15,2.07-1.4,2.45-2.79,4.89-4.27,7.32a90.34,90.34,0,0,1-8.81,12.3,77.46,77.46,0,0,1-20.36,16.47c6.13-3.08,12.88-6.38,20.36-9.93,1.47-.7,2.9-1.45,4.36-2.18,8.39-4.18,9.89-4.87,10.9-6.54a7.16,7.16,0,0,0,1-3.51A15.68,15.68,0,0,0,278.37,666Zm443.2,48.12A89,89,0,0,0,707,697.63q6.72,11.86,14.61,25.37l3.66,6.21A100,100,0,0,0,736.55,745a15.61,15.61,0,0,0,2.49-5C732.45,730.81,727.2,722,721.57,714.11ZM277.34,655.2c-.37.69-.76,1.38-1.15,2.07-1.4,2.45-2.79,4.89-4.27,7.32a90.34,90.34,0,0,1-8.81,12.3,77.46,77.46,0,0,1-20.36,16.47c6.13-3.08,12.88-6.38,20.36-9.93,1.47-.7,2.9-1.45,4.36-2.18,8.39-4.18,9.89-4.87,10.9-6.54a7.16,7.16,0,0,0,1-3.51,15.68,15.68,0,0,0-1-5.21A31.3,31.3,0,0,1,277.34,655.2Zm-34.59,38.16q-4.29,2.14-8.17,4.15C237.32,696.27,240.06,694.89,242.75,693.36Zm-26.37,13.86c5.12-2.84,11.17-6.09,18.2-9.71a143.25,143.25,0,0,1-24.26,8.18Q213.31,706.31,216.38,707.22ZM0,0V879c10.39-18,21.4-31,29.84-40.82A275.94,275.94,0,0,1,60.36,807.7a288.85,288.85,0,0,1,26.16-19.63c26.23-17.61,35-18.3,50.14-28.34a99.18,99.18,0,0,0,9.86-7.38,23.92,23.92,0,0,0-5.5-3.52,24.87,24.87,0,0,0-8.72-2.18c-8.33-.69-31.37-17-56.68-48a277.25,277.25,0,0,1-19-26c-1.39-2.18-2.33-3.74-2.79-4.51-6.73-11.3-10.69-20.22-15.26-30.52-7.14-16.08-10.71-24.12-13.08-34.88a126.65,126.65,0,0,1-2.17-16.51,129,129,0,0,1,0-18.37c.68-9.18,10.18-22.82,27.33-39.25,35.28-33.8,102.94-79.39,192.86-122.08,0,0,173.18-68.31,228.91-28.34,14.09,10.1,20.26,20.18,22.66,25.15a25.73,25.73,0,0,1,1.32,3.19c1.24,4.19,1.49,7.9,4.36,15.26a72.12,72.12,0,0,0,10.9,19.62c3.47,4.4,6.13,7.76,10.9,10.9,5.8,3.83,11.12,5,10.9,6.54-.17,1.21-3.37,1.48-6.54,2.18a27.16,27.16,0,0,0-5.78,1.94c-3.24,1.52-6.21,3.66-11.66,6.78-8.79,5-16,7.72-30.52,13.08A29.64,29.64,0,0,1,465.85,485a27.52,27.52,0,0,1-8.72-2.18c-8.53-3.43-21.25-.24-34.88,4.36-18.06,6.11-29.72,10.17-45.78,19.62-5.87,3.46-32,19.22-56.68,50.15-10.08,12.6-24,30.35-32.7,56.68-2.95,8.93-9.07,27.53-9.75,41.53A178.84,178.84,0,0,0,295.81,605c8.87-38,62.82-80.24,106.82-100.29,73.63-33.53,142.59-18.58,167.69-12.1l4.54,1.2a278,278,0,0,1,63.22,26.16c17.79,10.3,40.86,24,61,50.15,7.86,10.2,13.26,19.67,19,31.11.55,1.07,1.09,2.15,1.63,3.26,1.77,3.57,3.59,7.35,5.54,11.41,3.27,6.77,6,12.42,8.29,17.6a120.58,120.58,0,0,1,9.16,28.18c1.39,7.33,1.71,14.84,1.42,25,0,1.45-.09,3-.16,4.53-.27,6.41-.72,13.84-1.26,22.79-.48,7.87-1.35,19-3.69,26-6.59-9.18-11.84-18-17.47-25.88A89,89,0,0,0,707,697.63q6.72,11.86,14.61,25.37c.12,6.86.42,13.81.91,20.76l2.75.71c7.36,2,7.73,2.37,8.72,2.18a4.36,4.36,0,0,0,2.55-1.68,62,62,0,0,0,6.18,6c3.51,3,5.46,3.85,10.9,8.72,5.11,4.58,6.4,6.5,8.72,6.54h.1c4.92,0,8.87-8.59,10.8-13.07,8.56-19.88,11.24-37.53,13.08-48,4.77-27.14,6.78-22.34,8.72-39.24.26-2.35.57-5.13.83-8.29l2.86-1.3c4.21,2.49,8.77,5,13.75,7.41a113.66,113.66,0,0,0,34.88,10.9,108.46,108.46,0,0,0,28.34,0c5.69-.75,8.54-1.12,10.9-2.18,12-5.35,10.53-16.91,21.8-24,4.79-3,9.73-3.46,19.62-4.36a84.4,84.4,0,0,1,28.34,2.18c11.38,2.9,19,7.47,28.34,13.08,6.48,3.89,11.59,7.68,21.8,15.26,16.88,12.53,17.6,14.3,24,17.44,8,3.94,14.79,4.81,28.34,6.54,16.36,2.09,32,2.14,45.78,2.18,9.79,0,16.56-.19,26.16,2.18a63.52,63.52,0,0,1,17.44,6.54c11.31,6.45,10.62,11.31,21.8,17.44a69.11,69.11,0,0,0,17.44,6.54c8.94,1.79,13.64.47,17.44,4.36,3,3,1.74,5.52,4.36,10.9,3.61,7.43,8.94,8.84,13.08,13.08,7.51,7.69,6.31,19.72,4.36,39.24-1.82,18.3-2.81,28.16-10.9,37.07-8.51,9.37-19.8,12.07-24,13.08-8,1.91-13.76,1.3-26.16,0-41.24-4.33-40.9-4.27-41.42-4.36-25.64-4.75-24.59-9.36-50.14-15.26-15-3.48-28.91-4.5-56.68-6.54-22.77-1.68-34.15-2.52-45.79-2.18A174.91,174.91,0,0,0,947,825.38c1.63.57,3.29,1.21,5,1.94,16.94,7.08,29.71,17.51,34.88,21.8,13.08,10.82,12.93,14.3,28.35,26.16,10.27,7.9,15.4,11.85,21.8,15.26,9.71,5.18,14.18,5.64,17.44,10.9,3.75,6.06,4,15.41,0,21.8s-9.08,5.12-19.62,15.26c-4.61,4.42-3.93,4.93-6.54,6.54-7.78,4.77-14,.42-24,2.18-9.25,1.63-10.42,6.54-19.62,10.9-13.23,6.28-26.41,3.53-34.88,2.18q-.21,0-89.38,0c-39,0-71,1.32-91.56,2.18-33.36,1.4-27.45,1.82-43.61,2.18-60.44,1.34-73.47-6.14-109,0-9.92,1.72-23.33,6.23-50.14,15.26C519,995.79,507.4,1003,474.58,1014.8a721.17,721.17,0,0,1-117.73,30.52c-43.25,7.44-64.88,11.15-89.38,10.9-12.68-.13-30.64-1.1-54.5,4.36a269.59,269.59,0,0,0-34.89,10.9,200.41,200.41,0,0,0-19.16,8.52H1920V0ZM271.92,664.59a90.34,90.34,0,0,1-8.81,12.3,77.46,77.46,0,0,1-20.36,16.47c6.13-3.08,12.88-6.38,20.36-9.93,1.47-.7,2.9-1.45,4.36-2.18,8.39-4.18,9.89-4.87,10.9-6.54a7.16,7.16,0,0,0,1-3.51,15.68,15.68,0,0,0-1-5.21,31.3,31.3,0,0,1-1-10.79c-.37.69-.76,1.38-1.15,2.07C274.79,659.72,273.4,662.16,271.92,664.59Zm-29.17,28.77q-4.29,2.14-8.17,4.15C237.32,696.27,240.06,694.89,242.75,693.36Zm-60.31,16.23c-15.05,9.25-15.41,25.31-35.92,42.76.45.37.8.67,1,.84,6.19,4.27,24.15-15.17,41.79-29.1l1.81-1.42s6.79-5.21,25.22-15.45c5.12-2.84,11.17-6.09,18.2-9.71a143.25,143.25,0,0,1-24.26,8.18C200.2,703.64,190.86,704.42,182.44,709.59ZM0,1051.93V1080H44.94c-10.27-2.86-17.92-5.53-26-10.7A75.47,75.47,0,0,1,0,1051.93ZM210.32,705.69q3,.62,6.06,1.53c5.12-2.84,11.17-6.09,18.2-9.71A143.25,143.25,0,0,1,210.32,705.69Zm24.26-8.18c2.74-1.24,5.48-2.62,8.17-4.15Q238.46,695.5,234.58,697.51ZM278.37,666a31.3,31.3,0,0,1-1-10.79c-.37.69-.76,1.38-1.15,2.07-1.4,2.45-2.79,4.89-4.27,7.32a90.34,90.34,0,0,1-8.81,12.3,77.46,77.46,0,0,1-20.36,16.47c6.13-3.08,12.88-6.38,20.36-9.93,1.47-.7,2.9-1.45,4.36-2.18,8.39-4.18,9.89-4.87,10.9-6.54a7.16,7.16,0,0,0,1-3.51A15.68,15.68,0,0,0,278.37,666Zm443.2,48.12A89,89,0,0,0,707,697.63q6.72,11.86,14.61,25.37l3.66,6.21A100,100,0,0,0,736.55,745a15.61,15.61,0,0,0,2.49-5C732.45,730.81,727.2,722,721.57,714.11ZM278.37,666a31.3,31.3,0,0,1-1-10.79c-.37.69-.76,1.38-1.15,2.07-1.4,2.45-2.79,4.89-4.27,7.32a90.34,90.34,0,0,1-8.81,12.3,77.46,77.46,0,0,1-20.36,16.47c6.13-3.08,12.88-6.38,20.36-9.93,1.47-.7,2.9-1.45,4.36-2.18,8.39-4.18,9.89-4.87,10.9-6.54a7.16,7.16,0,0,0,1-3.51A15.68,15.68,0,0,0,278.37,666Zm-43.79,31.52c2.74-1.24,5.48-2.62,8.17-4.15Q238.46,695.5,234.58,697.51Zm-24.26,8.18q3,.62,6.06,1.53c5.12-2.84,11.17-6.09,18.2-9.71A143.25,143.25,0,0,1,210.32,705.69Zm24.26-8.18c2.74-1.24,5.48-2.62,8.17-4.15Q238.46,695.5,234.58,697.51Zm37.34-32.92a90.34,90.34,0,0,1-8.81,12.3,77.46,77.46,0,0,1-20.36,16.47c6.13-3.08,12.88-6.38,20.36-9.93,1.47-.7,2.9-1.45,4.36-2.18,8.39-4.18,9.89-4.87,10.9-6.54a7.16,7.16,0,0,0,1-3.51A35,35,0,0,1,271.92,664.59Zm449.65,49.52A89,89,0,0,0,707,697.63q6.72,11.86,14.61,25.37l3.66,6.21A100,100,0,0,0,736.55,745a15.61,15.61,0,0,0,2.49-5C732.45,730.81,727.2,722,721.57,714.11Zm-487-16.6c2.74-1.24,5.48-2.62,8.17-4.15Q238.46,695.5,234.58,697.51Zm487,16.6A89,89,0,0,0,707,697.63q6.72,11.86,14.61,25.37l3.66,6.21A100,100,0,0,0,736.55,745a15.61,15.61,0,0,0,2.49-5C732.45,730.81,727.2,722,721.57,714.11Z"/></g><g id="kaktus"><path class="cls-3" d="M726.65,600.78q-3.43,1.89-6.91,3.66c-.54-1.11-1.08-2.19-1.63-3.26l2-1.27a7.62,7.62,0,0,1,3.73-1.47C725.23,598.42,726.7,599.43,726.65,600.78Z"/><path class="cls-3" d="M709.12,676.31q7.08,2.13,14.19,4.21c-.08.7-.15,1.4-.21,2.11Q716.08,679.57,709.12,676.31Z"/><path class="cls-3" d="M750.49,693.54c-2.18-.77-4.34-1.56-6.5-2.38.07-1.57.12-3.08.16-4.53l2.05.6a8.69,8.69,0,0,1,4.17,2.09C751.44,690.48,751.7,692.53,750.49,693.54Z"/><path class="cls-4" d="M863.28,165.64V139.15l-20.4-31.61a66.81,66.81,0,0,1-3.79-6.67A10.19,10.19,0,0,1,838,96.71a6.62,6.62,0,0,1,2.25-5,7.82,7.82,0,0,1,5.56-2.11,6.8,6.8,0,0,1,5.27,2,59.25,59.25,0,0,1,5.38,7.83l15.61,25.35,15.78-25.35,2.39-3.93a24.88,24.88,0,0,1,2.14-3A8.48,8.48,0,0,1,895,90.33a7.52,7.52,0,0,1,3.48-.74,7.33,7.33,0,0,1,5.33,2.08,6.54,6.54,0,0,1,2.13,4.81,10.11,10.11,0,0,1-1.08,4.45,58.55,58.55,0,0,1-3.7,6.15L880.2,139.15v26.49q0,5.19-2.39,7.75a8.56,8.56,0,0,1-12.2,0Q863.28,170.89,863.28,165.64Z"/><path class="cls-5" d="M871.71,171.79a3.74,3.74,0,0,1-3-1.19c-.81-.88-1.24-2.59-1.24-5V137.93l-21.06-32.65a64.67,64.67,0,0,1-3.51-6.16,6.2,6.2,0,0,1-.72-2.41,2.46,2.46,0,0,1,.93-2,3.68,3.68,0,0,1,2.71-1,3,3,0,0,1,2.19.61,52.59,52.59,0,0,1,4.91,7.19L872,132.66l19.34-31.07,2.42-4a20.2,20.2,0,0,1,1.77-2.48A4.29,4.29,0,0,1,896.88,94a3.47,3.47,0,0,1,1.55-.27,3.16,3.16,0,0,1,2.42.9,2.36,2.36,0,0,1,.87,1.82,5.84,5.84,0,0,1-.66,2.62,53.43,53.43,0,0,1-3.42,5.67L876,137.92v27.72c0,1.62-.22,3.78-1.27,4.91A3.84,3.84,0,0,1,871.71,171.79Z"/><path class="cls-4" d="M967.36,144.34a36.86,36.86,0,0,1-2.16,12.82,28.33,28.33,0,0,1-6.27,10.08,27.63,27.63,0,0,1-9.8,6.47A34.66,34.66,0,0,1,936.31,176a33.61,33.61,0,0,1-12.7-2.28,28.11,28.11,0,0,1-16-16.55,36.79,36.79,0,0,1-2.13-12.79,37.16,37.16,0,0,1,2.16-12.93,28,28,0,0,1,6.21-10,27.41,27.41,0,0,1,9.8-6.41,37.07,37.07,0,0,1,25.52,0,27.92,27.92,0,0,1,9.86,6.49,28.26,28.26,0,0,1,6.24,10A37,37,0,0,1,967.36,144.34Zm-15.61,0q0-9.51-4.18-14.81a13.6,13.6,0,0,0-11.26-5.3,14,14,0,0,0-8,2.36,14.93,14.93,0,0,0-5.35,7,31.68,31.68,0,0,0,0,21.42,15.21,15.21,0,0,0,5.3,7,14.65,14.65,0,0,0,19.37-2.91Q951.76,153.73,951.75,144.34Z"/><path class="cls-5" d="M936.31,171.79a29.7,29.7,0,0,1-11.14-2,23.87,23.87,0,0,1-13.69-14.13,32.58,32.58,0,0,1-1.88-11.34,33,33,0,0,1,1.91-11.49,24,24,0,0,1,5.29-8.57,23.38,23.38,0,0,1,8.33-5.43,33,33,0,0,1,22.47,0A23.41,23.41,0,0,1,961.31,133a35,35,0,0,1,0,22.75,24.18,24.18,0,0,1-5.35,8.62,23.52,23.52,0,0,1-8.34,5.5A30.68,30.68,0,0,1,936.31,171.79Zm0-51.73a18.07,18.07,0,0,0-10.37,3.09,19.07,19.07,0,0,0-6.87,8.85,35.75,35.75,0,0,0,0,24.56,19.38,19.38,0,0,0,6.76,8.82,18.81,18.81,0,0,0,25-3.74c3.37-4.29,5.08-10.11,5.08-17.3s-1.71-13.13-5.09-17.4A17.85,17.85,0,0,0,936.31,120.06Z"/><path class="cls-4" d="M1020,167.18v-2a34.3,34.3,0,0,1-5.87,5.92,21.32,21.32,0,0,1-6.72,3.56,27.19,27.19,0,0,1-8.32,1.17A21.58,21.58,0,0,1,989,173.51a17.1,17.1,0,0,1-6.92-6.44q-2.91-5-2.91-14.24V122c0-3.12.71-5.44,2.11-7a7.21,7.21,0,0,1,5.59-2.31,7.38,7.38,0,0,1,5.69,2.34q2.18,2.32,2.17,7V146.9a38.33,38.33,0,0,0,.91,9.09,10.93,10.93,0,0,0,3.27,5.75,9.36,9.36,0,0,0,6.41,2.08,13.11,13.11,0,0,0,7.41-2.33,13.6,13.6,0,0,0,5.07-6.1q1.31-3.3,1.31-14.47V122q0-4.62,2.17-7a7.32,7.32,0,0,1,5.64-2.34,7.21,7.21,0,0,1,5.58,2.31c1.4,1.54,2.11,3.86,2.11,7v45.06q0,4.44-2,6.66a6.68,6.68,0,0,1-5.21,2.23,6.78,6.78,0,0,1-5.27-2.31A9.3,9.3,0,0,1,1020,167.18Z"/><path class="cls-5" d="M1027.35,171.79a2.62,2.62,0,0,1-2.17-.93,5.45,5.45,0,0,1-1-3.68v-14L1022,156c.64-2.12,1.28-6.07,1.28-15V122c0-1.36.18-3.18,1-4.12a3.15,3.15,0,0,1,2.59-1,3,3,0,0,1,2.5,1c.66.72,1,2.2,1,4.17v45.06c0,1.82-.33,3.2-.94,3.86A2.53,2.53,0,0,1,1027.35,171.79Zm-28.26-.11a17.19,17.19,0,0,1-8.18-1.87,12.78,12.78,0,0,1-5.27-4.88c-1.53-2.61-2.32-6.69-2.32-12.1V122c0-2,.36-3.45,1-4.17a3,3,0,0,1,2.51-1,3.25,3.25,0,0,1,2.64,1c.87.94,1,2.76,1,4.12V146.9a42.34,42.34,0,0,0,1,10.09,15.06,15.06,0,0,0,4.57,7.88,13.42,13.42,0,0,0,9.16,3.12,17.06,17.06,0,0,0,8.91-2.52,26.91,26.91,0,0,1-2.63,2.35,17.73,17.73,0,0,1-5.44,2.89A23.37,23.37,0,0,1,999.09,171.68Z"/><path class="cls-4" d="M1065.52,153.51v13c0,3.15-.74,5.52-2.22,7.09a7.39,7.39,0,0,1-5.64,2.37,7.13,7.13,0,0,1-5.53-2.4c-1.44-1.59-2.16-3.95-2.16-7.06V123.2q0-10.49,7.58-10.48,3.87,0,5.58,2.45c1.14,1.63,1.76,4,1.88,7.23a27.23,27.23,0,0,1,5.72-7.23,11.87,11.87,0,0,1,7.84-2.45,20.1,20.1,0,0,1,9.51,2.45c3.08,1.63,4.62,3.8,4.62,6.49a6.17,6.17,0,0,1-2,4.7,6.07,6.07,0,0,1-4.24,1.86,19.85,19.85,0,0,1-4.13-1.06,19.35,19.35,0,0,0-5.79-1,8.47,8.47,0,0,0-5.58,1.79,11.56,11.56,0,0,0-3.36,5.33,36.73,36.73,0,0,0-1.65,8.4Q1065.52,146.51,1065.52,153.51Z"/><path class="cls-5" d="M1057.66,171.79a3,3,0,0,1-2.44-1c-.9-1-1.08-2.87-1.08-4.27V123.2c0-6.31,2.13-6.31,3.41-6.31,1.7,0,2,.5,2.16.66.38.54,1,1.91,1.13,5l.52,14.38,1.68-2.88a44.83,44.83,0,0,0-1.21,7.19c-.32,3.36-.48,7.49-.48,12.27v13c0,1.4-.19,3.28-1.09,4.24A3.27,3.27,0,0,1,1057.66,171.79Zm11-47.35a23.35,23.35,0,0,1,4.76-6.07,7.81,7.81,0,0,1,5.17-1.48,15.84,15.84,0,0,1,7.56,2c2.4,1.27,2.4,2.35,2.4,2.81a2,2,0,0,1-.66,1.67,2.17,2.17,0,0,1-1.25.71,25.27,25.27,0,0,1-3-.84,22.88,22.88,0,0,0-7.06-1.26A12.65,12.65,0,0,0,1068.64,124.44Z"/><path class="cls-4" d="M1145.56,99.05v23.07a33.4,33.4,0,0,1,5.79-5.41,20.74,20.74,0,0,1,6.23-3,26,26,0,0,1,7.35-1,21.55,21.55,0,0,1,10.51,2.51,19.44,19.44,0,0,1,9.43,13.53,49.1,49.1,0,0,1,.57,7.94v29.8c0,3.11-.71,5.47-2.13,7.06a7.24,7.24,0,0,1-5.67,2.4q-7.7,0-7.69-9.46V140.24q0-7.47-2.22-11.48t-8.44-4a12.67,12.67,0,0,0-7.49,2.36,14.28,14.28,0,0,0-5,6.47q-1.26,3.48-1.26,12.36V166.5c0,3.08-.69,5.42-2.08,7a7.21,7.21,0,0,1-5.78,2.42q-7.7,0-7.69-9.46V99.05c0-3.16.68-5.52,2-7.1a7.08,7.08,0,0,1,5.67-2.36,7.25,7.25,0,0,1,5.78,2.39C1144.87,93.58,1145.56,95.93,1145.56,99.05Z"/><path class="cls-5" d="M1177.64,171.79c-1.65,0-3.53,0-3.53-5.29V140.24c0-5.75-.89-10.16-2.74-13.5-1.55-2.81-4.91-6.17-12.08-6.17a16.81,16.81,0,0,0-9,2.51,25.77,25.77,0,0,1,3.41-3,16.73,16.73,0,0,1,5-2.39,22.14,22.14,0,0,1,6.18-.83,17.39,17.39,0,0,1,8.52,2,13.78,13.78,0,0,1,5.55,5.64l.07.12a13.76,13.76,0,0,1,1.69,4.8,45.32,45.32,0,0,1,.52,7.26v29.8c0,2-.38,3.5-1.08,4.29A3.06,3.06,0,0,1,1177.64,171.79Zm-39.94,0c-1.65,0-3.52,0-3.52-5.29V99.05c0-2.06.36-3.62,1-4.39a2.93,2.93,0,0,1,2.5-.9,3.11,3.11,0,0,1,2.64,1c.69.79,1.06,2.29,1.06,4.33v34.24l2-2.31c-.16.33-.31.68-.45,1l0,.15c-1,2.84-1.5,7.21-1.5,13.77V166.5c0,2-.37,3.5-1.08,4.32A3.06,3.06,0,0,1,1137.7,171.79Z"/><path class="cls-4" d="M1259.05,144.34a36.63,36.63,0,0,1-2.17,12.82,28.31,28.31,0,0,1-6.26,10.08,27.72,27.72,0,0,1-9.8,6.47A34.66,34.66,0,0,1,1228,176a33.61,33.61,0,0,1-12.7-2.28,28,28,0,0,1-16-16.55,36.55,36.55,0,0,1-2.14-12.79,36.93,36.93,0,0,1,2.17-12.93,28,28,0,0,1,6.21-10,27.32,27.32,0,0,1,9.8-6.41,37.07,37.07,0,0,1,25.52,0,27.56,27.56,0,0,1,16.09,16.52A36.77,36.77,0,0,1,1259.05,144.34Zm-15.61,0q0-9.51-4.19-14.81a13.57,13.57,0,0,0-11.25-5.3,14,14,0,0,0-8,2.36,15,15,0,0,0-5.36,7,31.68,31.68,0,0,0,0,21.42,15.28,15.28,0,0,0,5.3,7,13.74,13.74,0,0,0,8.12,2.42,13.54,13.54,0,0,0,11.25-5.33Q1243.44,153.73,1243.44,144.34Z"/><path class="cls-5" d="M1228,171.79a29.66,29.66,0,0,1-11.14-2,23.8,23.8,0,0,1-13.69-14.13,32.58,32.58,0,0,1-1.88-11.34,33,33,0,0,1,1.91-11.49,24.12,24.12,0,0,1,5.28-8.57,23.46,23.46,0,0,1,8.33-5.43,33,33,0,0,1,22.47,0A23.39,23.39,0,0,1,1253,133a35.09,35.09,0,0,1,0,22.75,24.16,24.16,0,0,1-5.34,8.62,23.48,23.48,0,0,1-8.34,5.5A30.68,30.68,0,0,1,1228,171.79Zm0-51.73a18.1,18.1,0,0,0-10.38,3.09,19.19,19.19,0,0,0-6.87,8.85,35.75,35.75,0,0,0,0,24.56,19.45,19.45,0,0,0,6.77,8.82,18.81,18.81,0,0,0,25-3.74c3.37-4.29,5.08-10.11,5.08-17.3s-1.72-13.13-5.09-17.4A17.87,17.87,0,0,0,1228,120.06Z"/><path class="cls-4" d="M1271.3,166.5V99.05c0-3.12.69-5.47,2.08-7.07a7.05,7.05,0,0,1,5.61-2.39,7.36,7.36,0,0,1,5.69,2.36c1.45,1.58,2.17,3.94,2.17,7.1V166.5c0,3.15-.73,5.52-2.19,7.09A7.4,7.4,0,0,1,1279,176a7.05,7.05,0,0,1-5.56-2.45C1272,171.87,1271.3,169.54,1271.3,166.5Z"/><path class="cls-5" d="M1279,171.79a2.91,2.91,0,0,1-2.42-1c-.91-1.05-1.11-2.9-1.11-4.27V99.05c0-2,.37-3.54,1.06-4.33a2.88,2.88,0,0,1,2.47-1,3.17,3.17,0,0,1,2.62,1c.7.76,1.07,2.24,1.07,4.28V166.5c0,2-.37,3.5-1.08,4.26A3.18,3.18,0,0,1,1279,171.79Z"/><path class="cls-4" d="M1346.33,148.16H1315.9a20.64,20.64,0,0,0,2.14,9.34,14.31,14.31,0,0,0,13.13,8.14,18.54,18.54,0,0,0,5.1-.65,16.64,16.64,0,0,0,4.47-2.05,33.46,33.46,0,0,0,4-3c1.22-1.06,2.79-2.51,4.73-4.33a5.08,5.08,0,0,1,3.42-1,5.65,5.65,0,0,1,3.87,1.31,4.69,4.69,0,0,1,1.48,3.71,10.12,10.12,0,0,1-1.65,4.92,19.59,19.59,0,0,1-5,5.42,28.75,28.75,0,0,1-8.38,4.3,36,36,0,0,1-11.59,1.71q-15,0-23.3-8.55T1300,144.22a38.67,38.67,0,0,1,2-12.79,28.24,28.24,0,0,1,6-10.11,25.91,25.91,0,0,1,9.69-6.46,34.75,34.75,0,0,1,12.76-2.25,30.3,30.3,0,0,1,15.64,3.84,25.32,25.32,0,0,1,9.77,9.94,26.22,26.22,0,0,1,3.24,12.42q0,5.87-3.36,7.61T1346.33,148.16Zm-30.43-8.84h28.2q-.57-8-4.3-11.93a12.85,12.85,0,0,0-9.82-4,12.45,12.45,0,0,0-9.55,4Q1316.71,131.46,1315.9,139.32Z"/><path class="cls-5" d="M1331.63,171.79c-8.9,0-15.55-2.38-20.32-7.29s-7.13-11.56-7.13-20.28A34.66,34.66,0,0,1,1306,132.8a24.16,24.16,0,0,1,5.09-8.64,22,22,0,0,1,8.15-5.42,30.71,30.71,0,0,1,11.25-2A26.31,26.31,0,0,1,1344,120a21.12,21.12,0,0,1,8.21,8.31,21.83,21.83,0,0,1,2.76,10.46c0,.78-.08,3.37-1.11,3.91s-3.34,1.27-7.54,1.27h-34.64l0,4.21a24.87,24.87,0,0,0,2.59,11.2,18.49,18.49,0,0,0,16.84,10.41,22.87,22.87,0,0,0,6.24-.81,20.84,20.84,0,0,0,5.59-2.56,36.48,36.48,0,0,0,4.47-3.36c1.22-1.06,2.75-2.46,4.68-4.27h0a5.78,5.78,0,0,1,.72-.05,1.77,1.77,0,0,1,1.11.26,1.6,1.6,0,0,1,.08.59,6.21,6.21,0,0,1-1.09,2.82,15.57,15.57,0,0,1-3.94,4.23,24.32,24.32,0,0,1-7.16,3.64A32,32,0,0,1,1331.63,171.79ZM1330,119.26a16.52,16.52,0,0,0-12.6,5.35c-3.11,3.35-5,8.15-5.62,14.29l-.47,4.59h37.29l-.32-4.46c-.45-6.28-2.27-11.15-5.42-14.5A17,17,0,0,0,1330,119.26Z"/><path class="cls-4" d="M1422.32,155.62a18,18,0,0,1-12.39,18A41.37,41.37,0,0,1,1395,176a36.32,36.32,0,0,1-14.36-2.57,20.86,20.86,0,0,1-8.83-6.41,12.89,12.89,0,0,1-2.85-7.72,6,6,0,0,1,1.82-4.38,6.26,6.26,0,0,1,4.62-1.83,5.39,5.39,0,0,1,3.76,1.2,13.1,13.1,0,0,1,2.5,3.36,17.15,17.15,0,0,0,5.73,6.21q3.33,2.06,9.09,2.05a13.1,13.1,0,0,0,7.66-2.08c2-1.38,3-3,3-4.75a6.5,6.5,0,0,0-3.1-6q-3.1-1.87-10.23-3.58a85.29,85.29,0,0,1-13.08-4.19,21.59,21.59,0,0,1-8.06-5.78,13.29,13.29,0,0,1-3-8.83,15.55,15.55,0,0,1,2.8-8.84,19.11,19.11,0,0,1,8.23-6.63,31.52,31.52,0,0,1,13.13-2.48,43.42,43.42,0,0,1,10.85,1.25,27.22,27.22,0,0,1,8,3.36,16.6,16.6,0,0,1,4.9,4.68,9.12,9.12,0,0,1,1.68,5,5.79,5.79,0,0,1-1.79,4.39,7.11,7.11,0,0,1-5.1,1.7,6.25,6.25,0,0,1-4.07-1.36,27.26,27.26,0,0,1-3.85-4.1,14,14,0,0,0-4.16-3.65,13.1,13.1,0,0,0-6.49-1.37,12.7,12.7,0,0,0-7,1.8,5.22,5.22,0,0,0-2.79,4.47,4.85,4.85,0,0,0,2,4,17.27,17.27,0,0,0,5.53,2.59q3.47,1,9.57,2.5a51.48,51.48,0,0,1,11.82,4.22,19.64,19.64,0,0,1,7,5.78A12.79,12.79,0,0,1,1422.32,155.62Z"/><path class="cls-5" d="M1395,171.79a32.4,32.4,0,0,1-12.72-2.23,16.91,16.91,0,0,1-7.12-5.06,8.78,8.78,0,0,1-2-5.24,1.86,1.86,0,0,1,.6-1.44,2.09,2.09,0,0,1,1.67-.6,2.47,2.47,0,0,1,1,.14,9.34,9.34,0,0,1,1.63,2.27,21.27,21.27,0,0,0,7.19,7.74c2.87,1.77,6.67,2.67,11.27,2.67a17.22,17.22,0,0,0,10-2.83c4-2.74,4.78-6,4.78-8.17a10.51,10.51,0,0,0-5.12-9.55c-2.46-1.49-6.19-2.82-11.41-4.08a81.4,81.4,0,0,1-12.38-3.95,17.57,17.57,0,0,1-6.54-4.65,9.14,9.14,0,0,1-2-6.14,11.36,11.36,0,0,1,2.09-6.51,15,15,0,0,1,6.49-5.17,27.59,27.59,0,0,1,11.41-2.1,38.84,38.84,0,0,1,9.8,1.12,22.9,22.9,0,0,1,6.8,2.81,12.48,12.48,0,0,1,3.7,3.47,5.19,5.19,0,0,1,1,2.73,1.65,1.65,0,0,1-.5,1.37,3.55,3.55,0,0,1-2.23.56,2.07,2.07,0,0,1-1.44-.43,22.7,22.7,0,0,1-3.21-3.46,18.3,18.3,0,0,0-5.36-4.68,19.37,19.37,0,0,0-17.82.54c-3.89,2.5-4.71,5.72-4.71,8a9,9,0,0,0,3.69,7.33,20.88,20.88,0,0,0,6.88,3.27c2.37.7,5.65,1.56,9.76,2.56a47.07,47.07,0,0,1,10.85,3.85,15.61,15.61,0,0,1,5.51,4.51,8.74,8.74,0,0,1,1.6,5.2,13.9,13.9,0,0,1-9.73,14.08A37.42,37.42,0,0,1,1395,171.79Z"/><path class="cls-4" d="M1479.86,99.05v23.07a33.4,33.4,0,0,1,5.79-5.41,20.74,20.74,0,0,1,6.23-3,26,26,0,0,1,7.35-1,21.55,21.55,0,0,1,10.51,2.51,19.44,19.44,0,0,1,9.43,13.53,49.1,49.1,0,0,1,.57,7.94v29.8c0,3.11-.71,5.47-2.13,7.06a7.24,7.24,0,0,1-5.67,2.4q-7.7,0-7.69-9.46V140.24q0-7.47-2.23-11.48t-8.43-4a12.67,12.67,0,0,0-7.49,2.36,14.28,14.28,0,0,0-5,6.47q-1.26,3.48-1.26,12.36V166.5c0,3.08-.69,5.42-2.08,7A7.21,7.21,0,0,1,1472,176q-7.7,0-7.69-9.46V99.05c0-3.16.67-5.52,2-7.1a7.08,7.08,0,0,1,5.67-2.36,7.25,7.25,0,0,1,5.78,2.39C1479.17,93.58,1479.86,95.93,1479.86,99.05Z"/><path class="cls-5" d="M1511.94,171.79c-1.65,0-3.53,0-3.53-5.29V140.24c0-5.75-.89-10.16-2.74-13.5-1.55-2.81-4.91-6.17-12.08-6.17a16.79,16.79,0,0,0-8.95,2.51,25.15,25.15,0,0,1,3.41-3,16.73,16.73,0,0,1,5-2.39,22.14,22.14,0,0,1,6.18-.83,17.39,17.39,0,0,1,8.52,2,13.78,13.78,0,0,1,5.55,5.64l.06.12a13.58,13.58,0,0,1,1.7,4.8,45.32,45.32,0,0,1,.52,7.26v29.8c0,2-.38,3.5-1.08,4.29A3.06,3.06,0,0,1,1511.94,171.79Zm-39.94,0c-1.65,0-3.52,0-3.52-5.29V99.05c0-2.06.36-3.62,1-4.39a2.93,2.93,0,0,1,2.5-.9,3.11,3.11,0,0,1,2.64,1c.69.79,1.06,2.29,1.06,4.33v34.24l2-2.31c-.16.33-.31.68-.45,1l0,.15c-1,2.84-1.5,7.21-1.5,13.77V166.5a6.83,6.83,0,0,1-1.08,4.32A3.06,3.06,0,0,1,1472,171.79Z"/><path class="cls-4" d="M1575.52,167.18v-2a34.66,34.66,0,0,1-5.87,5.92,21.32,21.32,0,0,1-6.72,3.56,27.28,27.28,0,0,1-8.32,1.17,21.58,21.58,0,0,1-10.11-2.33,17.13,17.13,0,0,1-6.93-6.44q-2.89-5-2.9-14.24V122c0-3.12.7-5.44,2.11-7a7.18,7.18,0,0,1,5.58-2.31,7.42,7.42,0,0,1,5.7,2.34q2.16,2.32,2.16,7V146.9a38.86,38.86,0,0,0,.91,9.09,10.87,10.87,0,0,0,3.28,5.75,9.33,9.33,0,0,0,6.41,2.08,13.06,13.06,0,0,0,7.4-2.33,13.6,13.6,0,0,0,5.07-6.1q1.32-3.3,1.31-14.47V122c0-3.08.73-5.4,2.17-7a7.32,7.32,0,0,1,5.64-2.34A7.18,7.18,0,0,1,1588,115c1.41,1.54,2.11,3.86,2.11,7v45.06q0,4.44-2,6.66a7.18,7.18,0,0,1-10.48-.08A9.3,9.3,0,0,1,1575.52,167.18Z"/><path class="cls-5" d="M1582.87,171.79a2.65,2.65,0,0,1-2.18-.93,5.45,5.45,0,0,1-1-3.68v-14L1577.5,156c.63-2.12,1.27-6.07,1.27-15V122c0-1.36.18-3.18,1.06-4.12a3.11,3.11,0,0,1,2.58-1,3,3,0,0,1,2.51,1c.65.72,1,2.2,1,4.17v45.06a6.1,6.1,0,0,1-.93,3.86A2.55,2.55,0,0,1,1582.87,171.79Zm-28.26-.11a17.21,17.21,0,0,1-8.19-1.87,12.84,12.84,0,0,1-5.27-4.88c-1.53-2.61-2.31-6.69-2.31-12.1V122c0-2,.36-3.45,1-4.17a3,3,0,0,1,2.51-1,3.22,3.22,0,0,1,2.64,1c.87.94,1,2.76,1,4.12V146.9a41.78,41.78,0,0,0,1,10.09,15,15,0,0,0,4.57,7.88,13.4,13.4,0,0,0,9.16,3.12,17.08,17.08,0,0,0,8.91-2.52,28.2,28.2,0,0,1-2.64,2.35,17.57,17.57,0,0,1-5.43,2.89A23.42,23.42,0,0,1,1554.61,171.68Z"/><path class="cls-4" d="M1621,153.51v13c0,3.15-.75,5.52-2.23,7.09a7.39,7.39,0,0,1-5.64,2.37,7.09,7.09,0,0,1-5.52-2.4c-1.45-1.59-2.17-3.95-2.17-7.06V123.2q0-10.49,7.58-10.48,3.87,0,5.58,2.45t1.88,7.23a27,27,0,0,1,5.73-7.23,11.82,11.82,0,0,1,7.83-2.45,20.11,20.11,0,0,1,9.52,2.45c3.07,1.63,4.61,3.8,4.61,6.49a6.17,6.17,0,0,1-2,4.7,6.07,6.07,0,0,1-4.24,1.86,19.85,19.85,0,0,1-4.13-1.06,19.24,19.24,0,0,0-5.78-1,8.52,8.52,0,0,0-5.59,1.79,11.56,11.56,0,0,0-3.36,5.33,37.28,37.28,0,0,0-1.65,8.4Q1621,146.51,1621,153.51Z"/><path class="cls-5" d="M1613.17,171.79a3,3,0,0,1-2.43-1c-.9-1-1.09-2.87-1.09-4.27V123.2c0-6.31,2.13-6.31,3.41-6.31,1.7,0,2,.5,2.17.66.37.54,1,1.91,1.13,5l.51,14.38,1.69-2.88a45.92,45.92,0,0,0-1.22,7.19c-.31,3.36-.47,7.49-.47,12.27v13c0,1.4-.19,3.28-1.09,4.24A3.29,3.29,0,0,1,1613.17,171.79Zm11-47.35a22.94,22.94,0,0,1,4.76-6.07,7.77,7.77,0,0,1,5.16-1.48,15.81,15.81,0,0,1,7.56,2c2.4,1.27,2.4,2.35,2.4,2.81a2,2,0,0,1-.65,1.67,2.18,2.18,0,0,1-1.26.71,24.86,24.86,0,0,1-3-.84,23,23,0,0,0-7.06-1.26A12.63,12.63,0,0,0,1624.16,124.44Z"/><path class="cls-4" d="M1659,114.09h1.71v-9.35c0-2.5.06-4.47.2-5.89a8.65,8.65,0,0,1,1.11-3.68,7,7,0,0,1,2.62-2.59,7.47,7.47,0,0,1,3.81-1,7.66,7.66,0,0,1,5.36,2.23,6.54,6.54,0,0,1,2,3.61,32.45,32.45,0,0,1,.43,6.07v10.6h5.7a7.31,7.31,0,0,1,5,1.56,5.18,5.18,0,0,1,1.74,4,4.51,4.51,0,0,1-2.48,4.39,16.22,16.22,0,0,1-7.1,1.25h-2.9v28.6a44.43,44.43,0,0,0,.26,5.61,5.72,5.72,0,0,0,1.36,3.19,4.67,4.67,0,0,0,3.62,1.23,19.59,19.59,0,0,0,3.7-.49,19.48,19.48,0,0,1,3.65-.48,4.68,4.68,0,0,1,3.39,1.51,5,5,0,0,1,1.51,3.73c0,2.51-1.37,4.42-4.1,5.75s-6.67,2-11.8,2q-7.29,0-11-2.45a11.44,11.44,0,0,1-4.93-6.78,46.48,46.48,0,0,1-1.16-11.57V125.31h-2a7.37,7.37,0,0,1-5.13-1.6,5.2,5.2,0,0,1-1.77-4,5.06,5.06,0,0,1,1.85-4A8.17,8.17,0,0,1,1659,114.09Z"/><path class="cls-5" d="M1677.83,171.79c-5,0-7.53-1-8.77-1.77a7.15,7.15,0,0,1-3.18-4.38,42.19,42.19,0,0,1-1-10.48v-34h-6.21a3.88,3.88,0,0,1-2.34-.52,1.05,1.05,0,0,1-.39-1,.9.9,0,0,1,.38-.84,4.25,4.25,0,0,1,2.69-.58h5.87V104.74c0-2.36.06-4.22.18-5.51a4.7,4.7,0,0,1,.55-1.93,2.92,2.92,0,0,1,1.14-1.12,3.29,3.29,0,0,1,1.71-.43,3.48,3.48,0,0,1,2.52,1.11,2.49,2.49,0,0,1,.78,1.38,29.34,29.34,0,0,1,.34,5.25v14.76h9.87a3.81,3.81,0,0,1,2.25.5,1,1,0,0,1,.36.92,1.66,1.66,0,0,1-.08.61l-.11.06c-.6.3-2.06.8-5.22.8h-7.07v32.77a51.07,51.07,0,0,0,.29,6.15,9.86,9.86,0,0,0,2.42,5.45,8.6,8.6,0,0,0,6.7,2.59,22.57,22.57,0,0,0,4.55-.57,15.76,15.76,0,0,1,2.8-.4s.15,0,.44.29a.93.93,0,0,1,.29.79c0,.43,0,1.15-1.75,2C1686.33,170.93,1683.4,171.79,1677.83,171.79Z"/><path class="cls-4" d="M774.6,307.19a47.74,47.74,0,0,1-10.91,6.58,30.51,30.51,0,0,1-11.82,2.2,22.37,22.37,0,0,1-10.51-2.37,17.28,17.28,0,0,1-7-6.41,16.64,16.64,0,0,1-2.45-8.77A15.7,15.7,0,0,1,736,287.54a20.21,20.21,0,0,1,11.11-6q1.49-.35,7.35-1.54t10-2.19c2.79-.67,5.82-1.47,9.09-2.42q-.29-6.17-2.48-9T762,263.44q-5.93,0-8.91,1.65a14.5,14.5,0,0,0-5.13,5q-2.13,3.3-3,4.36c-.59.7-1.85,1-3.79,1a6.66,6.66,0,0,1-4.53-1.68,5.48,5.48,0,0,1-1.9-4.3,13.14,13.14,0,0,1,2.9-8q2.91-3.87,9.06-6.38A40.81,40.81,0,0,1,762,252.61q10.26,0,16.13,2.43a15,15,0,0,1,8.29,7.66q2.42,5.24,2.42,13.9c0,3.65,0,6.74,0,9.29s-.05,5.37-.09,8.48a31.25,31.25,0,0,0,1.46,9.15,29.35,29.35,0,0,1,1.45,6.12,5.73,5.73,0,0,1-2.25,4.36,7.55,7.55,0,0,1-5.1,2,6.88,6.88,0,0,1-4.73-2.25A33.73,33.73,0,0,1,774.6,307.19Zm-1-22.5a79.12,79.12,0,0,1-9.94,2.65q-6.52,1.4-9,2.05a12.38,12.38,0,0,0-4.79,2.56,6.58,6.58,0,0,0-2.28,5.33,7.91,7.91,0,0,0,2.68,6,9.93,9.93,0,0,0,7,2.48,18.39,18.39,0,0,0,8.52-2,13.52,13.52,0,0,0,5.72-5.22q2.12-3.52,2.11-11.62Z"/><path class="cls-5" d="M784.29,311.8a3.3,3.3,0,0,1-1.84-1.09,29.2,29.2,0,0,1-4.29-5.7l-2.44-4-2,1.54a16.46,16.46,0,0,0,1.35-2c1.77-3,2.66-7.47,2.66-13.69v-8.19l-5.61,2.06a74.88,74.88,0,0,1-9.37,2.48c-4.45,1-7.46,1.64-9.21,2.1a16.29,16.29,0,0,0-6.41,3.4,10.71,10.71,0,0,0-3.77,8.52,12.12,12.12,0,0,0,4,9.07,14,14,0,0,0,9.84,3.58,23,23,0,0,0,7.4-1.19c-.86.44-1.71.84-2.54,1.18a26.34,26.34,0,0,1-10.22,1.88,18.47,18.47,0,0,1-8.58-1.89A13.06,13.06,0,0,1,738,305a12.43,12.43,0,0,1-1.85-6.61,11.56,11.56,0,0,1,3-8.1,16.09,16.09,0,0,1,8.89-4.75c1-.23,3.44-.74,7.3-1.53s7.37-1.55,10.19-2.22,5.95-1.5,9.28-2.47l3.15-.92-.15-3.28c-.23-5-1.32-8.73-3.32-11.36-2.32-3-6.38-4.52-12.41-4.52-4.71,0-8.28.71-10.93,2.17a18.83,18.83,0,0,0-6.61,6.34c-1.21,1.88-1.92,2.9-2.33,3.46a7.36,7.36,0,0,1-1,.05,2.46,2.46,0,0,1-1.77-.64,1.33,1.33,0,0,1-.5-1.17A9.07,9.07,0,0,1,741,264a17,17,0,0,1,7.3-5,36.93,36.93,0,0,1,13.75-2.2c6.26,0,11.15.71,14.54,2.11a10.88,10.88,0,0,1,6.09,5.56c1.35,2.92,2,7,2,12.15,0,3.63,0,6.72,0,9.25s0,5.37-.08,8.47a35.74,35.74,0,0,0,1.63,10.41,27.21,27.21,0,0,1,1.27,5c0,.27-.28.68-.82,1.16A3.4,3.4,0,0,1,784.29,311.8Z"/><path class="cls-4" d="M818.76,261.33v1.88a27.13,27.13,0,0,1,9-7.95,23.9,23.9,0,0,1,11.19-2.53,22.29,22.29,0,0,1,11,2.68,17,17,0,0,1,7.23,7.57,18.06,18.06,0,0,1,2,6.16,64.48,64.48,0,0,1,.45,8.43v28.94c0,3.11-.71,5.47-2.13,7.06a7.11,7.11,0,0,1-5.56,2.4,7.2,7.2,0,0,1-5.64-2.45c-1.44-1.64-2.16-4-2.16-7V280.59q0-7.69-2.14-11.77t-8.52-4.07a12.62,12.62,0,0,0-7.57,2.48,14.27,14.27,0,0,0-5,6.81q-1.14,3.46-1.14,13v19.49c0,3.15-.73,5.52-2.19,7.09a7.37,7.37,0,0,1-5.67,2.37,7,7,0,0,1-5.52-2.45c-1.45-1.64-2.17-4-2.17-7V261.56c0-3,.65-5.18,1.94-6.64a6.71,6.71,0,0,1,5.3-2.19,7.15,7.15,0,0,1,3.7,1,6.94,6.94,0,0,1,2.65,2.9A10.3,10.3,0,0,1,818.76,261.33Z"/><path class="cls-5" d="M851.91,311.8a3,3,0,0,1-2.52-1,6.44,6.44,0,0,1-1.12-4.25V280.59c0-5.87-.85-10.35-2.61-13.7-1.51-2.88-4.85-6.31-12.21-6.31a16.72,16.72,0,0,0-9.53,2.93,21.31,21.31,0,0,1,5.73-4.55,19.92,19.92,0,0,1,9.27-2.06,18.08,18.08,0,0,1,9,2.15,12.83,12.83,0,0,1,5.51,5.76l.08.15a13.87,13.87,0,0,1,1.53,4.75,59.19,59.19,0,0,1,.42,7.86v28.94c0,2-.38,3.5-1.08,4.29A3,3,0,0,1,851.91,311.8Zm-40,0a2.88,2.88,0,0,1-2.4-1,6.44,6.44,0,0,1-1.12-4.25V261.56c0-2.5.56-3.5.89-3.88a2.57,2.57,0,0,1,2.18-.78,3,3,0,0,1,1.59.39,2.8,2.8,0,0,1,1,1.22,6.18,6.18,0,0,1,.54,2.82v14.28l2.44-3.23c0,.07-.13.36-.13.36-.91,2.8-1.34,7.34-1.34,14.28v19.49c0,2-.38,3.49-1.08,4.26A3.22,3.22,0,0,1,811.86,311.8Z"/><path class="cls-4" d="M917.71,307.08v-1.54a39.77,39.77,0,0,1-6.18,5.84,23.22,23.22,0,0,1-6.61,3.42,24.73,24.73,0,0,1-7.77,1.17,22.83,22.83,0,0,1-10.34-2.37,24.07,24.07,0,0,1-8.24-6.75,30.92,30.92,0,0,1-5.27-10.31,44.24,44.24,0,0,1-1.79-12.82q0-14.58,7.12-22.73t18.74-8.15a25.12,25.12,0,0,1,11.34,2.31,31.52,31.52,0,0,1,9,7.09v-23q0-4.78,1.91-7.23a6.5,6.5,0,0,1,5.44-2.45,6.73,6.73,0,0,1,5.44,2.25q1.9,2.25,1.91,6.64v68.59q0,4.44-2,6.66a6.89,6.89,0,0,1-5.3,2.23,6.78,6.78,0,0,1-5.27-2.31A9.53,9.53,0,0,1,917.71,307.08Zm-30.59-22.85a26.53,26.53,0,0,0,2,10.77,15,15,0,0,0,5.38,6.69,13.21,13.21,0,0,0,7.46,2.25,13.78,13.78,0,0,0,7.49-2.13,14.76,14.76,0,0,0,5.42-6.55,26.64,26.64,0,0,0,2-11,25.89,25.89,0,0,0-2-10.68,16.17,16.17,0,0,0-5.47-6.84,13.13,13.13,0,0,0-7.55-2.36,12.8,12.8,0,0,0-7.64,2.42,15.61,15.61,0,0,0-5.21,7A27.74,27.74,0,0,0,887.12,284.23Z"/><path class="cls-5" d="M925.06,311.8a2.62,2.62,0,0,1-2.17-.93,5.66,5.66,0,0,1-1-3.79V294.43l-5,5.78a22.53,22.53,0,0,0,1.79-3.22A30.55,30.55,0,0,0,921,284.23a29.93,29.93,0,0,0-2.4-12.39,20.1,20.1,0,0,0-6.91-8.56,17.15,17.15,0,0,0-9.9-3.1,16.85,16.85,0,0,0-10.07,3.21,19.69,19.69,0,0,0-6.64,8.76A31.89,31.89,0,0,0,883,284.23a30.82,30.82,0,0,0,2.32,12.46,19.18,19.18,0,0,0,6.91,8.48,17.44,17.44,0,0,0,9.75,2.94,17.92,17.92,0,0,0,9.72-2.78,17.39,17.39,0,0,0,1.93-1.42,33.91,33.91,0,0,1-4.52,4.12,19.27,19.27,0,0,1-5.44,2.81,21,21,0,0,1-6.47,1,18.61,18.61,0,0,1-8.49-1.93,20,20,0,0,1-6.82-5.61,26.79,26.79,0,0,1-4.55-8.93,40.17,40.17,0,0,1-1.61-11.61c0-8.64,2.05-15.36,6.09-20s9.06-6.72,15.6-6.72a21.25,21.25,0,0,1,9.48,1.87,27.71,27.71,0,0,1,7.79,6.18l7.24,7.89V239.28c0-2.16.36-3.82,1-4.67a2.35,2.35,0,0,1,2.15-.84c1.6,0,2.07.54,2.27.78a6.46,6.46,0,0,1,.91,3.94v68.59a6,6,0,0,1-.94,3.84A2.74,2.74,0,0,1,925.06,311.8Z"/><path class="cls-4" d="M991.55,317.9l1.42-3.47-19.14-48.2a18,18,0,0,1-1.77-6,7,7,0,0,1,1-3.7,7.65,7.65,0,0,1,2.82-2.74,7.43,7.43,0,0,1,3.73-1,6.09,6.09,0,0,1,5.07,2.14,19.77,19.77,0,0,1,3,6.12l13.16,38.28,12.48-35.6a61.16,61.16,0,0,1,2.67-6.78,8.07,8.07,0,0,1,2.54-3.31,7,7,0,0,1,3.79-.85,6.68,6.68,0,0,1,3.39.94,6.6,6.6,0,0,1,2.5,2.53,6.88,6.88,0,0,1,.89,3.37c-.16.72-.4,1.74-.74,3.07s-.76,2.68-1.26,4.05l-20.28,53.09a62.51,62.51,0,0,1-5.13,11,16.82,16.82,0,0,1-6.63,6.12Q991,339,984,339c-4.56,0-8-.5-10.26-1.48a5.41,5.41,0,0,1-3.41-5.42,5.27,5.27,0,0,1,1.62-4.13,7.05,7.05,0,0,1,4.81-1.45,9.11,9.11,0,0,1,2.45.34,11.66,11.66,0,0,0,2.57.35,9.25,9.25,0,0,0,4.21-.8,7.32,7.32,0,0,0,2.77-2.77A43.61,43.61,0,0,0,991.55,317.9Z"/><path class="cls-5" d="M984,334.87c-4.94,0-7.4-.62-8.6-1.14-.6-.26-.91-.44-.91-1.59,0-.3,0-.84.24-1a3.52,3.52,0,0,1,2-.39,4.82,4.82,0,0,1,1.31.18l.21,0a15.06,15.06,0,0,0,3.5.45,13.14,13.14,0,0,0,6.13-1.26,11.48,11.48,0,0,0,4.38-4.26,44.7,44.7,0,0,0,3.13-6.38l2.07-5.06L977.7,264.69c-1.44-3.4-1.47-4.46-1.47-4.5a3,3,0,0,1,.43-1.56,3.53,3.53,0,0,1,1.31-1.26,3.31,3.31,0,0,1,1.67-.47c1.36,0,1.69.41,1.82.57a15.54,15.54,0,0,1,2.31,4.82L1000.85,312l16.45-46.93a57.36,57.36,0,0,1,2.49-6.33,5.16,5.16,0,0,1,1.05-1.64h0a4.46,4.46,0,0,1,1.53-.18,2.6,2.6,0,0,1,1.3.37,2.48,2.48,0,0,1,.95,1,3,3,0,0,1,.34,1c-.15.62-.34,1.42-.59,2.38-.31,1.19-.69,2.43-1.14,3.67l-20.25,53a58.88,58.88,0,0,1-4.76,10.26,12.75,12.75,0,0,1-5,4.64C991.05,334.31,988,334.87,984,334.87Z"/><path class="cls-4" d="M1097.11,284.35a36.9,36.9,0,0,1-2.16,12.82,28.47,28.47,0,0,1-6.27,10.08,27.76,27.76,0,0,1-9.8,6.47,34.66,34.66,0,0,1-12.82,2.25,33.61,33.61,0,0,1-12.7-2.28,28.11,28.11,0,0,1-16-16.55,36.79,36.79,0,0,1-2.14-12.79,37.26,37.26,0,0,1,2.17-12.94,28,28,0,0,1,6.21-10,27.41,27.41,0,0,1,9.8-6.41,37.07,37.07,0,0,1,25.52,0A27.49,27.49,0,0,1,1095,271.53,36.77,36.77,0,0,1,1097.11,284.35Zm-15.61,0q0-9.53-4.19-14.82a13.59,13.59,0,0,0-11.25-5.29,14,14,0,0,0-8,2.36,15,15,0,0,0-5.36,7,28.5,28.5,0,0,0-1.88,10.77,28.07,28.07,0,0,0,1.86,10.65,15.26,15.26,0,0,0,5.29,7,13.81,13.81,0,0,0,8.12,2.42,13.54,13.54,0,0,0,11.25-5.33Q1081.51,293.75,1081.5,284.35Z"/><path class="cls-5" d="M1066.06,311.8a29.66,29.66,0,0,1-11.14-2,23.8,23.8,0,0,1-13.69-14.13,32.58,32.58,0,0,1-1.88-11.34,33,33,0,0,1,1.91-11.49,24,24,0,0,1,5.29-8.57,23.38,23.38,0,0,1,8.33-5.43,33,33,0,0,1,22.47,0A23.41,23.41,0,0,1,1091.06,273a35.18,35.18,0,0,1,0,22.75,24.18,24.18,0,0,1-5.35,8.62,23.52,23.52,0,0,1-8.34,5.5A30.68,30.68,0,0,1,1066.06,311.8Zm0-51.73a18.14,18.14,0,0,0-10.37,3.08,19.09,19.09,0,0,0-6.87,8.86,35.75,35.75,0,0,0,0,24.56,19.43,19.43,0,0,0,6.76,8.82,18.81,18.81,0,0,0,25-3.74c3.37-4.29,5.08-10.11,5.08-17.3s-1.71-13.13-5.09-17.4A17.86,17.86,0,0,0,1066.06,260.07Z"/><path class="cls-4" d="M1149.75,307.19v-2a34.66,34.66,0,0,1-5.87,5.92,21.32,21.32,0,0,1-6.72,3.56,27.19,27.19,0,0,1-8.32,1.17,21.58,21.58,0,0,1-10.11-2.33,17.1,17.1,0,0,1-6.92-6.44q-2.91-5-2.91-14.24V262c0-3.11.71-5.44,2.11-7a7.21,7.21,0,0,1,5.58-2.31,7.42,7.42,0,0,1,5.7,2.33q2.18,2.34,2.17,6.95v24.9a38.33,38.33,0,0,0,.91,9.09,10.93,10.93,0,0,0,3.27,5.75,9.36,9.36,0,0,0,6.41,2.08,13.11,13.11,0,0,0,7.41-2.33,13.6,13.6,0,0,0,5.07-6.1q1.31-3.3,1.31-14.47V262q0-4.61,2.16-6.95a7.38,7.38,0,0,1,5.64-2.33,7.21,7.21,0,0,1,5.59,2.31c1.4,1.53,2.11,3.86,2.11,7v45.07q0,4.44-2,6.66a7.18,7.18,0,0,1-10.48-.08A9.32,9.32,0,0,1,1149.75,307.19Z"/><path class="cls-5" d="M1157.1,311.8a2.62,2.62,0,0,1-2.17-.93,5.45,5.45,0,0,1-1-3.68v-14l-2.19,2.77c.64-2.12,1.28-6.07,1.28-15V262c0-1.35.18-3.17,1-4.11a3.14,3.14,0,0,1,2.58-1,3,3,0,0,1,2.51,1c.66.71,1,2.2,1,4.16v45.07a6.05,6.05,0,0,1-.94,3.86A2.53,2.53,0,0,1,1157.1,311.8Zm-28.26-.12a17.19,17.19,0,0,1-8.18-1.86,12.78,12.78,0,0,1-5.27-4.88c-1.53-2.61-2.32-6.69-2.32-12.1V262c0-2,.36-3.45,1-4.16a3,3,0,0,1,2.5-1,3.26,3.26,0,0,1,2.65,1c.87.94,1,2.76,1,4.11v24.9a42.34,42.34,0,0,0,1,10.09,15.06,15.06,0,0,0,4.57,7.88,13.42,13.42,0,0,0,9.16,3.12,17.06,17.06,0,0,0,8.91-2.52,26.91,26.91,0,0,1-2.63,2.35,17.49,17.49,0,0,1-5.44,2.88A23.06,23.06,0,0,1,1128.84,311.68Z"/><path class="cls-4" d="M1251.61,307.08v-1.54a39.77,39.77,0,0,1-6.18,5.84,23.22,23.22,0,0,1-6.61,3.42,24.73,24.73,0,0,1-7.77,1.17,22.87,22.87,0,0,1-10.34-2.37,23.94,23.94,0,0,1-8.23-6.75,30.56,30.56,0,0,1-5.27-10.31,43.89,43.89,0,0,1-1.8-12.82q0-14.58,7.12-22.73t18.75-8.15a25.11,25.11,0,0,1,11.33,2.31,31.52,31.52,0,0,1,9,7.09v-23q0-4.78,1.91-7.23a6.5,6.5,0,0,1,5.44-2.45,6.73,6.73,0,0,1,5.44,2.25c1.28,1.5,1.91,3.71,1.91,6.64v68.59q0,4.44-2,6.66A6.89,6.89,0,0,1,1259,316a6.8,6.8,0,0,1-5.27-2.31A9.53,9.53,0,0,1,1251.61,307.08ZM1221,284.23a26.53,26.53,0,0,0,2,10.77,15,15,0,0,0,5.38,6.69,13.23,13.23,0,0,0,7.46,2.25,13.78,13.78,0,0,0,7.49-2.13,14.76,14.76,0,0,0,5.42-6.55,26.64,26.64,0,0,0,2-11,25.89,25.89,0,0,0-2-10.68,16.09,16.09,0,0,0-5.47-6.84,13.13,13.13,0,0,0-7.55-2.36,12.8,12.8,0,0,0-7.64,2.42,15.61,15.61,0,0,0-5.21,7A27.74,27.74,0,0,0,1221,284.23Z"/><path class="cls-5" d="M1259,311.8a2.62,2.62,0,0,1-2.17-.93,5.66,5.66,0,0,1-1-3.79V294.43l-5,5.78a22.56,22.56,0,0,0,1.8-3.22,30.68,30.68,0,0,0,2.4-12.76,30,30,0,0,0-2.4-12.4,20.13,20.13,0,0,0-6.91-8.55,17.15,17.15,0,0,0-9.9-3.1,16.85,16.85,0,0,0-10.07,3.21,19.69,19.69,0,0,0-6.64,8.76,31.89,31.89,0,0,0-2.16,12.08,30.82,30.82,0,0,0,2.33,12.46,19.09,19.09,0,0,0,6.9,8.48,17.44,17.44,0,0,0,9.75,2.94,17.92,17.92,0,0,0,9.72-2.78,17.39,17.39,0,0,0,1.93-1.42A33.91,33.91,0,0,1,1243,308a19.35,19.35,0,0,1-5.43,2.81,21.08,21.08,0,0,1-6.48,1,18.61,18.61,0,0,1-8.49-1.93,19.84,19.84,0,0,1-6.82-5.61,26.79,26.79,0,0,1-4.55-8.93,40.17,40.17,0,0,1-1.61-11.61c0-8.64,2.05-15.36,6.09-20s9.06-6.72,15.61-6.72a21.23,21.23,0,0,1,9.47,1.87,27.57,27.57,0,0,1,7.79,6.18l7.24,7.9V239.28a8.15,8.15,0,0,1,1-4.67,2.35,2.35,0,0,1,2.15-.84c1.6,0,2.07.54,2.27.77a6.52,6.52,0,0,1,.91,4v68.59a6,6,0,0,1-.94,3.84A2.74,2.74,0,0,1,1259,311.8Z"/><path class="cls-4" d="M1289.78,245.49a8.2,8.2,0,0,1-5.55-2,7.73,7.73,0,0,1,.06-11.08,7.89,7.89,0,0,1,5.49-2.14,8.17,8.17,0,0,1,5.36,1.94,6.89,6.89,0,0,1,2.33,5.64,7.14,7.14,0,0,1-2.27,5.61A7.89,7.89,0,0,1,1289.78,245.49Zm7.69,16.07v44.95c0,3.11-.74,5.47-2.22,7.06a7.35,7.35,0,0,1-5.64,2.4,7,7,0,0,1-5.55-2.45c-1.43-1.64-2.14-4-2.14-7V262q0-4.61,2.14-6.95a7.18,7.18,0,0,1,5.55-2.33,7.47,7.47,0,0,1,5.64,2.33A9.07,9.07,0,0,1,1297.47,261.56Z"/><path class="cls-5" d="M1289.61,311.8a2.88,2.88,0,0,1-2.41-1c-.92-1-1.11-2.91-1.11-4.27V262c0-2,.36-3.39,1-4.13a3,3,0,0,1,2.48-1,3.28,3.28,0,0,1,2.62,1c.27.28,1.08,1.13,1.08,3.62v44.95c0,1.38-.2,3.24-1.11,4.23A3.24,3.24,0,0,1,1289.61,311.8Zm.17-70.47a4.1,4.1,0,0,1-2.83-1c-.26-.23-.86-.75-.86-2.49a2.87,2.87,0,0,1,1-2.35,3.8,3.8,0,0,1,2.7-1.06,4,4,0,0,1,2.7,1c.25.2.83.68.83,2.43a3,3,0,0,1-.88,2.49A3.69,3.69,0,0,1,1289.78,241.33Z"/><path class="cls-4" d="M1356.15,307.08v-1.54a39.77,39.77,0,0,1-6.18,5.84,23.22,23.22,0,0,1-6.61,3.42,24.73,24.73,0,0,1-7.77,1.17,22.87,22.87,0,0,1-10.34-2.37,23.94,23.94,0,0,1-8.23-6.75,30.56,30.56,0,0,1-5.27-10.31,43.89,43.89,0,0,1-1.8-12.82q0-14.58,7.12-22.73t18.75-8.15a25.11,25.11,0,0,1,11.33,2.31,31.52,31.52,0,0,1,9,7.09v-23q0-4.78,1.91-7.23a6.5,6.5,0,0,1,5.44-2.45,6.73,6.73,0,0,1,5.44,2.25c1.28,1.5,1.91,3.71,1.91,6.64v68.59q0,4.44-2,6.66a6.89,6.89,0,0,1-5.3,2.23,6.8,6.8,0,0,1-5.27-2.31A9.53,9.53,0,0,1,1356.15,307.08Zm-30.59-22.85a26.53,26.53,0,0,0,2,10.77,15,15,0,0,0,5.38,6.69,13.23,13.23,0,0,0,7.46,2.25,13.78,13.78,0,0,0,7.49-2.13,14.76,14.76,0,0,0,5.42-6.55,26.64,26.64,0,0,0,2-11,25.89,25.89,0,0,0-2-10.68,16.09,16.09,0,0,0-5.47-6.84,13.13,13.13,0,0,0-7.55-2.36,12.8,12.8,0,0,0-7.64,2.42,15.61,15.61,0,0,0-5.21,7A27.74,27.74,0,0,0,1325.56,284.23Z"/><path class="cls-5" d="M1363.5,311.8a2.62,2.62,0,0,1-2.17-.93,5.66,5.66,0,0,1-1-3.79V294.43l-5,5.78a22.53,22.53,0,0,0,1.79-3.22,30.52,30.52,0,0,0,2.41-12.76,30,30,0,0,0-2.4-12.4,20.13,20.13,0,0,0-6.91-8.55,17.15,17.15,0,0,0-9.9-3.1,16.85,16.85,0,0,0-10.07,3.21,19.69,19.69,0,0,0-6.64,8.76,31.89,31.89,0,0,0-2.16,12.08,30.65,30.65,0,0,0,2.33,12.46,19.09,19.09,0,0,0,6.9,8.48,17.44,17.44,0,0,0,9.75,2.94,17.92,17.92,0,0,0,9.72-2.78,16.4,16.4,0,0,0,1.92-1.42,33.27,33.27,0,0,1-4.51,4.12,19.35,19.35,0,0,1-5.43,2.81,21.08,21.08,0,0,1-6.48,1,18.61,18.61,0,0,1-8.49-1.93,19.84,19.84,0,0,1-6.82-5.61,26.79,26.79,0,0,1-4.55-8.93,40.17,40.17,0,0,1-1.61-11.61c0-8.64,2.05-15.36,6.09-20s9.06-6.72,15.61-6.72a21.23,21.23,0,0,1,9.47,1.87,27.57,27.57,0,0,1,7.79,6.18l7.24,7.9V239.28a8.15,8.15,0,0,1,1-4.67,2.35,2.35,0,0,1,2.15-.84c1.6,0,2.07.54,2.27.77a6.52,6.52,0,0,1,.91,4v68.59a6,6,0,0,1-.94,3.84A2.74,2.74,0,0,1,1363.5,311.8Z"/><path class="cls-4" d="M1429.76,261.33v1.88a27.13,27.13,0,0,1,9-7.95,23.92,23.92,0,0,1,11.2-2.53,22.28,22.28,0,0,1,11,2.68,17,17,0,0,1,7.24,7.57,18,18,0,0,1,2,6.16,64.24,64.24,0,0,1,.46,8.43v28.94c0,3.11-.72,5.47-2.14,7.06a7.09,7.09,0,0,1-5.55,2.4,7.21,7.21,0,0,1-5.65-2.45c-1.44-1.64-2.16-4-2.16-7V280.59q0-7.69-2.14-11.77t-8.51-4.07a12.62,12.62,0,0,0-7.58,2.48,14.19,14.19,0,0,0-5,6.81q-1.14,3.46-1.14,13v19.49c0,3.15-.73,5.52-2.2,7.09a7.36,7.36,0,0,1-5.66,2.37,7,7,0,0,1-5.53-2.45c-1.44-1.64-2.17-4-2.17-7V261.56c0-3,.65-5.18,1.94-6.64a6.71,6.71,0,0,1,5.3-2.19,7.12,7.12,0,0,1,3.7,1,6.87,6.87,0,0,1,2.65,2.9A10.18,10.18,0,0,1,1429.76,261.33Z"/><path class="cls-5" d="M1462.92,311.8a3,3,0,0,1-2.52-1c-.75-.84-1.12-2.27-1.12-4.25V280.59c0-5.87-.86-10.35-2.62-13.7-1.51-2.88-4.85-6.31-12.2-6.31a16.75,16.75,0,0,0-9.54,2.93,21.31,21.31,0,0,1,5.73-4.55,20,20,0,0,1,9.28-2.06,18.07,18.07,0,0,1,9,2.15,12.83,12.83,0,0,1,5.51,5.76l.08.15a13.94,13.94,0,0,1,1.53,4.75,59.19,59.19,0,0,1,.42,7.86v28.94c0,2-.37,3.5-1.08,4.29A3,3,0,0,1,1462.92,311.8Zm-40.05,0a2.9,2.9,0,0,1-2.41-1,6.44,6.44,0,0,1-1.12-4.25V261.56c0-2.5.56-3.5.9-3.88a2.53,2.53,0,0,1,2.17-.78,3,3,0,0,1,1.59.39,2.88,2.88,0,0,1,1.06,1.22,6.32,6.32,0,0,1,.53,2.82v14.28l2.45-3.23c0,.07-.13.36-.13.36-.92,2.8-1.35,7.34-1.35,14.28v19.49c0,2-.37,3.49-1.08,4.26A3.2,3.2,0,0,1,1422.87,311.8Z"/><path class="cls-4" d="M1544.33,284.35a36.9,36.9,0,0,1-2.17,12.82,28.19,28.19,0,0,1-6.27,10.08,27.76,27.76,0,0,1-9.8,6.47,34.6,34.6,0,0,1-12.81,2.25,33.67,33.67,0,0,1-12.71-2.28,28.05,28.05,0,0,1-16-16.55,36.55,36.55,0,0,1-2.14-12.79,37.26,37.26,0,0,1,2.16-12.94,28.3,28.3,0,0,1,6.21-10,27.49,27.49,0,0,1,9.8-6.41,37.07,37.07,0,0,1,25.52,0,27.54,27.54,0,0,1,16.1,16.52A37,37,0,0,1,1544.33,284.35Zm-15.61,0q0-9.53-4.19-14.82a13.59,13.59,0,0,0-11.25-5.29,14,14,0,0,0-8,2.36,15,15,0,0,0-5.35,7,31.68,31.68,0,0,0,0,21.42,15.21,15.21,0,0,0,5.3,7,13.79,13.79,0,0,0,8.12,2.42,13.54,13.54,0,0,0,11.25-5.33Q1528.72,293.75,1528.72,284.35Z"/><path class="cls-5" d="M1513.28,311.8a29.76,29.76,0,0,1-11.15-2,24.08,24.08,0,0,1-8.34-5.56,24.34,24.34,0,0,1-5.35-8.57,32.82,32.82,0,0,1-1.87-11.34,33.25,33.25,0,0,1,1.9-11.49,24.28,24.28,0,0,1,5.29-8.57,23.46,23.46,0,0,1,8.33-5.43,33,33,0,0,1,22.47,0A23.46,23.46,0,0,1,1538.28,273a35.09,35.09,0,0,1,0,22.75,24.16,24.16,0,0,1-5.34,8.62,23.65,23.65,0,0,1-8.35,5.5A30.63,30.63,0,0,1,1513.28,311.8Zm0-51.73a18.14,18.14,0,0,0-10.38,3.08A19.09,19.09,0,0,0,1496,272a35.75,35.75,0,0,0,0,24.56,19.43,19.43,0,0,0,6.76,8.82,18.81,18.81,0,0,0,25-3.74c3.37-4.29,5.08-10.11,5.08-17.3s-1.71-13.13-5.08-17.4A17.87,17.87,0,0,0,1513.28,260.07Z"/><path class="cls-4" d="M1557.43,254.1h1.71v-9.35c0-2.5.06-4.47.2-5.89a8.65,8.65,0,0,1,1.11-3.68,7,7,0,0,1,2.62-2.59,7.48,7.48,0,0,1,3.82-1,7.67,7.67,0,0,1,5.35,2.22,6.6,6.6,0,0,1,2,3.62,32.45,32.45,0,0,1,.43,6.07v10.6h5.7a7.31,7.31,0,0,1,5,1.56,5.18,5.18,0,0,1,1.74,4,4.51,4.51,0,0,1-2.48,4.39,16.17,16.17,0,0,1-7.09,1.25h-2.91v28.6a46.43,46.43,0,0,0,.26,5.61,5.72,5.72,0,0,0,1.36,3.19,4.67,4.67,0,0,0,3.62,1.22,19.43,19.43,0,0,0,3.7-.48,19.48,19.48,0,0,1,3.65-.48,4.68,4.68,0,0,1,3.39,1.51,5,5,0,0,1,1.51,3.73q0,3.75-4.1,5.75t-11.79,2q-7.3,0-11.06-2.45a11.39,11.39,0,0,1-4.92-6.78,46,46,0,0,1-1.17-11.57V265.32h-2.05a7.39,7.39,0,0,1-5.13-1.6,5.2,5.2,0,0,1-1.77-4,5.06,5.06,0,0,1,1.85-4A8.17,8.17,0,0,1,1557.43,254.1Z"/><path class="cls-5" d="M1576.29,311.8c-5,0-7.54-1-8.78-1.78a7.1,7.1,0,0,1-3.18-4.37,42.19,42.19,0,0,1-1-10.48v-34h-6.21a3.88,3.88,0,0,1-2.34-.52,1.08,1.08,0,0,1-.39-.95.9.9,0,0,1,.38-.84,4.25,4.25,0,0,1,2.69-.58h5.87V244.75c0-2.36.07-4.22.19-5.51a4.51,4.51,0,0,1,.54-1.93,2.92,2.92,0,0,1,1.14-1.12,3.3,3.3,0,0,1,1.72-.43,3.51,3.51,0,0,1,2.52,1.11,2.48,2.48,0,0,1,.77,1.38,29.34,29.34,0,0,1,.34,5.25v14.76h9.87a3.79,3.79,0,0,1,2.25.5,1,1,0,0,1,.36.92,1.53,1.53,0,0,1-.08.6s0,0-.11.07c-.6.3-2.06.8-5.21.8h-7.08v32.77a51.07,51.07,0,0,0,.29,6.15,9.86,9.86,0,0,0,2.42,5.45,8.6,8.6,0,0,0,6.7,2.59,22.57,22.57,0,0,0,4.55-.57,14.76,14.76,0,0,1,2.8-.4s.15,0,.45.29a1,1,0,0,1,.28.79c0,.43,0,1.15-1.75,2C1584.78,310.94,1581.85,311.8,1576.29,311.8Z"/><path class="cls-4" d="M1684.24,264.12V309.3a47.35,47.35,0,0,1-1.65,13.33,21.34,21.34,0,0,1-5.3,9.23,22.24,22.24,0,0,1-9.54,5.41,51.78,51.78,0,0,1-14.67,1.77,42.73,42.73,0,0,1-14.36-2.25A24.87,24.87,0,0,1,1629,331q-3.42-3.57-3.42-7.32a6.07,6.07,0,0,1,1.94-4.65,6.65,6.65,0,0,1,4.67-1.79,7.62,7.62,0,0,1,6,3c.84,1,1.7,2.06,2.6,3.1a14.94,14.94,0,0,0,3,2.68,11.54,11.54,0,0,0,3.9,1.65,22.88,22.88,0,0,0,5.24.54q6,0,9.37-1.68a9.58,9.58,0,0,0,4.68-4.7,18.9,18.9,0,0,0,1.56-6.46c.15-2.3.27-6,.34-11.08a25.58,25.58,0,0,1-8.28,7.63,22.65,22.65,0,0,1-11.2,2.62,23.58,23.58,0,0,1-13.64-4,25.41,25.41,0,0,1-9-11.16,41.11,41.11,0,0,1-3.13-16.58,39.4,39.4,0,0,1,1.91-12.65,26.38,26.38,0,0,1,5.44-9.51,23.13,23.13,0,0,1,8.15-5.84,25.58,25.58,0,0,1,10.14-2,24.39,24.39,0,0,1,11.45,2.54,27.81,27.81,0,0,1,9,7.95v-2.11a9.06,9.06,0,0,1,2-6.27,6.58,6.58,0,0,1,5.13-2.22q4.5,0,6,2.93T1684.24,264.12Zm-45.06,19.71q0,9.46,4.13,14.3A13.38,13.38,0,0,0,1654,303a14,14,0,0,0,7.32-2.08,15.26,15.26,0,0,0,5.61-6.27,21.83,21.83,0,0,0,2.17-10.17q0-9.51-4.19-14.81a13.36,13.36,0,0,0-11-5.3,12.92,12.92,0,0,0-10.68,5.07Q1639.18,274.49,1639.18,283.83Z"/><path class="cls-5" d="M1653.08,334.87a38.59,38.59,0,0,1-13-2,20.78,20.78,0,0,1-8.13-4.77c-1.52-1.58-2.26-3-2.26-4.43a1.91,1.91,0,0,1,.6-1.59,2.49,2.49,0,0,1,1.84-.68,3.49,3.49,0,0,1,2.81,1.54c.8,1,1.68,2.05,2.6,3.12a19.3,19.3,0,0,0,3.78,3.41,15.66,15.66,0,0,0,5.29,2.27,27.26,27.26,0,0,0,6.2.65c4.73,0,8.41-.7,11.25-2.13a13.65,13.65,0,0,0,6.6-6.73,23,23,0,0,0,1.92-7.88c.16-2.39.27-6.08.35-11.29l.2-13.32-.89,1.25a29.64,29.64,0,0,0,1-7.82,32.23,32.23,0,0,0-2.23-12.52l2.8,3.65V261.22a5.27,5.27,0,0,1,.92-3.49,2.47,2.47,0,0,1,2-.83c.72,0,2,.08,2.26.64.47.94,1,2.84,1,6.58V309.3a43.58,43.58,0,0,1-1.48,12.15,17.1,17.1,0,0,1-4.25,7.46,18.21,18.21,0,0,1-7.79,4.37A48,48,0,0,1,1653.08,334.87Zm-3.76-24.5a19.32,19.32,0,0,1-11.29-3.26,21.21,21.21,0,0,1-7.51-9.39,37.14,37.14,0,0,1-2.78-14.91,35.33,35.33,0,0,1,1.69-11.31,22.61,22.61,0,0,1,4.57-8.05,19.13,19.13,0,0,1,6.7-4.81,21.63,21.63,0,0,1,8.51-1.63,20.4,20.4,0,0,1,9.52,2.06,21.21,21.21,0,0,1,5.38,4.16,17.9,17.9,0,0,0-10.23-3.05,17.21,17.21,0,0,0-14,6.65c-3.26,4.12-4.92,9.84-4.92,17s1.73,13,5.13,17a17.45,17.45,0,0,0,13.85,6.3,18.08,18.08,0,0,0,9.08-2.44,19.84,19.84,0,0,1-4.58,3.58A18.67,18.67,0,0,1,1649.32,310.37Z"/><path class="cls-4" d="M1740.47,288.16h-30.42a20.65,20.65,0,0,0,2.14,9.35,14.28,14.28,0,0,0,13.13,8.14,18.54,18.54,0,0,0,5.1-.65,16.64,16.64,0,0,0,4.47-2.05,35.16,35.16,0,0,0,4-3q1.81-1.6,4.73-4.33a5,5,0,0,1,3.41-1,5.66,5.66,0,0,1,3.88,1.31,4.68,4.68,0,0,1,1.48,3.7,10.12,10.12,0,0,1-1.65,4.93,19.64,19.64,0,0,1-5,5.42,28.56,28.56,0,0,1-8.37,4.3,36.08,36.08,0,0,1-11.6,1.71q-15,0-23.3-8.55t-8.31-23.19a38.63,38.63,0,0,1,2-12.79,28.09,28.09,0,0,1,6-10.11,26,26,0,0,1,9.68-6.46,34.58,34.58,0,0,1,12.76-2.26,30.3,30.3,0,0,1,15.64,3.85,25.25,25.25,0,0,1,9.77,9.94,26.12,26.12,0,0,1,3.25,12.42q0,5.87-3.36,7.61C1747.69,287.59,1744.54,288.16,1740.47,288.16Zm-30.42-8.83h28.2q-.57-8-4.3-11.93a12.88,12.88,0,0,0-9.83-4,12.45,12.45,0,0,0-9.54,4Q1710.84,271.47,1710.05,279.33Z"/><path class="cls-5" d="M1725.77,311.8c-8.89,0-15.54-2.38-20.31-7.29s-7.14-11.56-7.14-20.28a34.66,34.66,0,0,1,1.82-11.42,24.23,24.23,0,0,1,5.1-8.64,22,22,0,0,1,8.15-5.42,30.65,30.65,0,0,1,11.24-2,26.32,26.32,0,0,1,13.53,3.27,21.12,21.12,0,0,1,8.21,8.31,21.9,21.9,0,0,1,2.75,10.46c0,.78-.08,3.37-1.1,3.9s-3.35,1.28-7.55,1.28h-34.63l0,4.21a24.88,24.88,0,0,0,2.6,11.2,18.47,18.47,0,0,0,16.84,10.41,22.92,22.92,0,0,0,6.24-.81,21.12,21.12,0,0,0,5.59-2.56,39.51,39.51,0,0,0,4.47-3.36c1.22-1.06,2.75-2.46,4.68-4.27h0a5.52,5.52,0,0,1,.71-.05,1.8,1.8,0,0,1,1.12.26,1.77,1.77,0,0,1,.07.58,6.11,6.11,0,0,1-1.08,2.83,15.62,15.62,0,0,1-4,4.23,24.62,24.62,0,0,1-7.15,3.64A32,32,0,0,1,1725.77,311.8Zm-1.65-52.53a16.49,16.49,0,0,0-12.59,5.35c-3.11,3.34-5,8.15-5.62,14.29l-.47,4.59h37.29l-.32-4.46c-.45-6.28-2.28-11.15-5.43-14.5A17,17,0,0,0,1724.12,259.27Z"/><path class="cls-4" d="M1767.25,254.1H1769v-9.35c0-2.5.06-4.47.2-5.89a8.65,8.65,0,0,1,1.11-3.68,7,7,0,0,1,2.62-2.59,7.48,7.48,0,0,1,3.82-1,7.67,7.67,0,0,1,5.35,2.22,6.6,6.6,0,0,1,2,3.62,32.45,32.45,0,0,1,.43,6.07v10.6h5.7a7.31,7.31,0,0,1,5,1.56,5.18,5.18,0,0,1,1.74,4,4.51,4.51,0,0,1-2.48,4.39,16.17,16.17,0,0,1-7.09,1.25h-2.91v28.6a46.43,46.43,0,0,0,.26,5.61,5.72,5.72,0,0,0,1.36,3.19,4.67,4.67,0,0,0,3.62,1.22,19.43,19.43,0,0,0,3.7-.48,19.48,19.48,0,0,1,3.65-.48,4.68,4.68,0,0,1,3.39,1.51,5,5,0,0,1,1.51,3.73q0,3.75-4.1,5.75t-11.79,2q-7.3,0-11.06-2.45a11.39,11.39,0,0,1-4.92-6.78,46,46,0,0,1-1.17-11.57V265.32h-2a7.39,7.39,0,0,1-5.13-1.6,5.2,5.2,0,0,1-1.77-4,5.06,5.06,0,0,1,1.85-4A8.17,8.17,0,0,1,1767.25,254.1Z"/><path class="cls-5" d="M1786.11,311.8c-5,0-7.54-1-8.78-1.78a7.1,7.1,0,0,1-3.18-4.37,42.19,42.19,0,0,1-1-10.48v-34h-6.21a3.88,3.88,0,0,1-2.34-.52,1.08,1.08,0,0,1-.39-.95.9.9,0,0,1,.38-.84,4.25,4.25,0,0,1,2.69-.58h5.87V244.75c0-2.36.07-4.22.19-5.51a4.51,4.51,0,0,1,.54-1.93,2.92,2.92,0,0,1,1.14-1.12,3.3,3.3,0,0,1,1.72-.43,3.51,3.51,0,0,1,2.52,1.11,2.48,2.48,0,0,1,.77,1.38,29.34,29.34,0,0,1,.34,5.25v14.76h9.87a3.79,3.79,0,0,1,2.25.5,1,1,0,0,1,.36.92,1.53,1.53,0,0,1-.08.6s0,0-.11.07c-.6.3-2.06.8-5.21.8h-7.08v32.77a51.07,51.07,0,0,0,.29,6.15,9.86,9.86,0,0,0,2.42,5.45,8.61,8.61,0,0,0,6.7,2.59,22.57,22.57,0,0,0,4.55-.57,14.76,14.76,0,0,1,2.8-.4s.15,0,.45.29a1,1,0,0,1,.28.79c0,.43,0,1.15-1.75,2C1794.6,310.94,1791.67,311.8,1786.11,311.8Z"/><path class="cls-4" d="M767.8,447.2a48,48,0,0,1-10.91,6.58A30.58,30.58,0,0,1,745.07,456a22.38,22.38,0,0,1-10.52-2.36,17.32,17.32,0,0,1-7-6.41,16.57,16.57,0,0,1-2.45-8.77,15.67,15.67,0,0,1,4-10.88,20.21,20.21,0,0,1,11.11-6q1.49-.35,7.35-1.54t10-2.19c2.8-.67,5.82-1.48,9.09-2.43q-.28-6.15-2.48-9t-9.08-2.88c-4,0-6.93.55-8.92,1.65a14.5,14.5,0,0,0-5.13,5,50.73,50.73,0,0,1-3,4.35c-.59.71-1.85,1.06-3.78,1.06a6.62,6.62,0,0,1-4.53-1.68,5.46,5.46,0,0,1-1.91-4.3,13.19,13.19,0,0,1,2.9-8q2.91-3.87,9.06-6.38a40.83,40.83,0,0,1,15.33-2.51q10.24,0,16.12,2.43a15,15,0,0,1,8.29,7.66q2.42,5.24,2.42,13.9c0,3.64,0,6.74,0,9.28s0,5.38-.09,8.49a31.25,31.25,0,0,0,1.46,9.15,28.67,28.67,0,0,1,1.45,6.12,5.73,5.73,0,0,1-2.25,4.36,7.54,7.54,0,0,1-5.1,2,6.9,6.9,0,0,1-4.73-2.25A32.93,32.93,0,0,1,767.8,447.2Zm-1-22.5a79.12,79.12,0,0,1-9.94,2.65q-6.52,1.39-9,2A12.25,12.25,0,0,0,743,432a6.59,6.59,0,0,0-2.27,5.33,7.9,7.9,0,0,0,2.67,6,9.93,9.93,0,0,0,7,2.48,18.21,18.21,0,0,0,8.52-2,13.38,13.38,0,0,0,5.72-5.21q2.12-3.53,2.11-11.62Z"/><path class="cls-5" d="M777.48,451.81a3.3,3.3,0,0,1-1.84-1.09,29.51,29.51,0,0,1-4.29-5.7l-2.44-4-2,1.54a15.38,15.38,0,0,0,1.35-2c1.78-3,2.66-7.48,2.66-13.69v-8.19l-5.6,2.06a75.13,75.13,0,0,1-9.38,2.48c-4.45,1-7.46,1.64-9.21,2.1a16.36,16.36,0,0,0-6.41,3.4,10.7,10.7,0,0,0-3.77,8.52,12.12,12.12,0,0,0,4,9.07,14,14,0,0,0,9.84,3.58,23,23,0,0,0,7.4-1.19c-.86.44-1.7.84-2.53,1.18a26.41,26.41,0,0,1-10.22,1.88,18.48,18.48,0,0,1-8.59-1.89,13.13,13.13,0,0,1-5.34-4.88,12.43,12.43,0,0,1-1.85-6.61,11.6,11.6,0,0,1,3-8.1,16.08,16.08,0,0,1,8.9-4.75q1.5-.34,7.29-1.53c3.94-.8,7.37-1.55,10.19-2.22s6-1.51,9.28-2.47l3.16-.92-.16-3.28c-.23-5-1.32-8.73-3.32-11.36-2.32-3-6.38-4.52-12.4-4.52-4.71,0-8.29.71-10.93,2.17a18.77,18.77,0,0,0-6.62,6.34c-1.21,1.88-1.92,2.9-2.33,3.46a7.19,7.19,0,0,1-1,.05,2.47,2.47,0,0,1-1.78-.64,1.33,1.33,0,0,1-.5-1.17,9,9,0,0,1,2.08-5.48c1.46-2,3.92-3.65,7.29-5a37,37,0,0,1,13.76-2.2c6.25,0,11.14.71,14.53,2.11a10.9,10.9,0,0,1,6.1,5.56c1.35,2.92,2,7,2,12.15,0,3.63,0,6.72,0,9.25s0,5.37-.08,8.47a35.74,35.74,0,0,0,1.63,10.41,27.21,27.21,0,0,1,1.27,5c0,.27-.27.68-.82,1.16A3.38,3.38,0,0,1,777.48,451.81Z"/><path class="cls-4" d="M812,401.34v1.88a27.13,27.13,0,0,1,9-8,23.92,23.92,0,0,1,11.2-2.53,22.28,22.28,0,0,1,11,2.68,17,17,0,0,1,7.24,7.57,18,18,0,0,1,2,6.16,64.24,64.24,0,0,1,.46,8.43v28.94c0,3.11-.72,5.47-2.14,7.06a7.69,7.69,0,0,1-11.2-.06q-2.16-2.44-2.16-7V420.6q0-7.69-2.14-11.77t-8.51-4.07a12.56,12.56,0,0,0-7.58,2.48,14.21,14.21,0,0,0-5,6.8q-1.14,3.48-1.14,13v19.49c0,3.15-.74,5.51-2.2,7.09a7.36,7.36,0,0,1-5.67,2.36,7,7,0,0,1-5.52-2.45q-2.17-2.44-2.17-7V401.57c0-3,.65-5.18,1.94-6.64a6.71,6.71,0,0,1,5.3-2.19,7.12,7.12,0,0,1,3.7,1,6.87,6.87,0,0,1,2.65,2.9A10.18,10.18,0,0,1,812,401.34Z"/><path class="cls-5" d="M845.1,451.81a3,3,0,0,1-2.51-1,6.4,6.4,0,0,1-1.12-4.25V420.6c0-5.87-.86-10.35-2.62-13.7-1.5-2.88-4.85-6.31-12.2-6.31a16.75,16.75,0,0,0-9.54,2.93,21.12,21.12,0,0,1,5.73-4.55,20,20,0,0,1,9.28-2.07,18.07,18.07,0,0,1,9,2.16,12.83,12.83,0,0,1,5.51,5.76l.08.15a13.87,13.87,0,0,1,1.53,4.75,59.19,59.19,0,0,1,.42,7.86v28.94c0,2-.37,3.5-1.08,4.29A3,3,0,0,1,845.1,451.81Zm-40.05,0a2.91,2.91,0,0,1-2.4-1,6.46,6.46,0,0,1-1.12-4.25V401.57c0-2.5.56-3.5.89-3.88a2.57,2.57,0,0,1,2.18-.79,3.07,3.07,0,0,1,1.6.4,2.94,2.94,0,0,1,1,1.22,6.32,6.32,0,0,1,.53,2.82v14.28l2.45-3.23c0,.07-.13.36-.13.36-.92,2.8-1.35,7.34-1.35,14.28v19.49c0,2-.37,3.49-1.08,4.26A3.2,3.2,0,0,1,805.05,451.81Z"/><path class="cls-4" d="M882.65,457.91l1.42-3.47-19.14-48.2a18,18,0,0,1-1.77-6,7.1,7.1,0,0,1,1-3.7,7.65,7.65,0,0,1,2.82-2.74,7.46,7.46,0,0,1,3.73-1,6.11,6.11,0,0,1,5.07,2.13,19.73,19.73,0,0,1,3,6.13L892,439.28l12.48-35.6a61.16,61.16,0,0,1,2.67-6.78,8,8,0,0,1,2.54-3.31,7,7,0,0,1,3.79-.85,6.63,6.63,0,0,1,3.39.94,6.47,6.47,0,0,1,2.5,2.53,6.87,6.87,0,0,1,.89,3.36c-.15.73-.4,1.75-.74,3.08s-.76,2.68-1.26,4.05L898,459.79a61.87,61.87,0,0,1-5.12,11,16.91,16.91,0,0,1-6.64,6.12q-4.14,2.14-11.14,2.14c-4.56,0-8-.5-10.25-1.48a5.42,5.42,0,0,1-3.42-5.42A5.27,5.27,0,0,1,863,468a7.06,7.06,0,0,1,4.82-1.45,8.84,8.84,0,0,1,2.45.34,11.43,11.43,0,0,0,2.56.34,9.26,9.26,0,0,0,4.21-.79,7.4,7.4,0,0,0,2.77-2.77A43.61,43.61,0,0,0,882.65,457.91Z"/><path class="cls-5" d="M875.07,474.88c-4.94,0-7.4-.62-8.6-1.14-.59-.26-.91-.44-.91-1.59a1.69,1.69,0,0,1,.24-1,3.54,3.54,0,0,1,2-.39,4.74,4.74,0,0,1,1.3.18l.21.05a15.69,15.69,0,0,0,3.5.45,13.14,13.14,0,0,0,6.13-1.26,11.48,11.48,0,0,0,4.38-4.26,45.24,45.24,0,0,0,3.13-6.38l2.08-5.06L868.8,404.7c-1.44-3.4-1.47-4.46-1.47-4.5a3,3,0,0,1,.43-1.56,3.48,3.48,0,0,1,1.32-1.26,3.29,3.29,0,0,1,1.66-.48c1.36,0,1.69.42,1.82.58a15.54,15.54,0,0,1,2.31,4.82L892,452l16.45-46.94a57.05,57.05,0,0,1,2.49-6.32,5,5,0,0,1,1.06-1.64h0a4.14,4.14,0,0,1,1.52-.19,2.62,2.62,0,0,1,1.3.38,2.41,2.41,0,0,1,1,1,3,3,0,0,1,.34,1c-.14.63-.34,1.43-.59,2.39a38.35,38.35,0,0,1-1.14,3.67l-20.25,53a58.68,58.68,0,0,1-4.76,10.27,12.68,12.68,0,0,1-5,4.64C882.15,474.32,879.05,474.88,875.07,474.88Z"/><path class="cls-4" d="M975.05,401.45v1.88a30.91,30.91,0,0,1,9.12-7.94,22.3,22.3,0,0,1,10.71-2.54,24.91,24.91,0,0,1,13.22,3.7,25.58,25.58,0,0,1,9.54,10.83,37.9,37.9,0,0,1,3.5,16.86,41.09,41.09,0,0,1-2,13.19,29.44,29.44,0,0,1-5.56,10.08,24.1,24.1,0,0,1-8.34,6.27A24.69,24.69,0,0,1,994.88,456a21.72,21.72,0,0,1-11.2-2.67,32.12,32.12,0,0,1-8.63-7.87v23.36q0,10.26-7.46,10.26c-2.93,0-4.86-.89-5.81-2.65s-1.43-4.34-1.43-7.72V401.57c0-3,.65-5.18,1.94-6.64a6.71,6.71,0,0,1,5.3-2.19A7,7,0,0,1,973,395Q975.06,397.24,975.05,401.45Zm30.48,22.62a26.81,26.81,0,0,0-1.88-10.57,15.53,15.53,0,0,0-5.21-6.78,12.5,12.5,0,0,0-7.38-2.36,13.84,13.84,0,0,0-10.85,5.07q-4.41,5.07-4.42,14.93,0,9.28,4.39,14.44A13.7,13.7,0,0,0,991.06,444a12.5,12.5,0,0,0,7.18-2.25,15.5,15.5,0,0,0,5.3-6.75A26.77,26.77,0,0,0,1005.53,424.07Z"/><path class="cls-5" d="M967.59,474.88c-1.38,0-2.05-.28-2.14-.45-.35-.65-.93-2.25-.93-5.75V401.57c0-2.5.56-3.5.89-3.88a2.57,2.57,0,0,1,2.18-.79,2.82,2.82,0,0,1,2.32.92,5.62,5.62,0,0,1,1,3.63v13.64l3.44-4.24a30.46,30.46,0,0,0-2.7,13.51c0,5.65,1.12,10.43,3.34,14.26l-4.08-5.17v35.34C970.89,474.88,968.9,474.88,967.59,474.88Zm27.29-23.07a17.76,17.76,0,0,1-9.08-2.1,27.65,27.65,0,0,1-7.25-6.58,17.51,17.51,0,0,0,12.51,5,16.7,16.7,0,0,0,9.53-3,19.71,19.71,0,0,0,6.76-8.51,34.79,34.79,0,0,0,.14-24.77,19.77,19.77,0,0,0-6.64-8.55,16.66,16.66,0,0,0-9.79-3.13,17.61,17.61,0,0,0-10.79,3.51,23.59,23.59,0,0,1,5.87-4.64,18.08,18.08,0,0,1,8.74-2,20.52,20.52,0,0,1,11,3.09,21.29,21.29,0,0,1,8,9.11,33.9,33.9,0,0,1,3.07,15,37.13,37.13,0,0,1-1.8,11.86,25.73,25.73,0,0,1-4.75,8.68,20,20,0,0,1-6.93,5.21A20.58,20.58,0,0,1,994.88,451.81Z"/><path class="cls-4" d="M1033.62,446.52V379.06q0-4.67,2.08-7.06a7.05,7.05,0,0,1,5.61-2.39A7.4,7.4,0,0,1,1047,372q2.16,2.37,2.16,7.09v67.46q0,4.73-2.19,7.09a7.36,7.36,0,0,1-5.67,2.36,7,7,0,0,1-5.56-2.45Q1033.62,451.08,1033.62,446.52Z"/><path class="cls-5" d="M1041.31,451.81a2.91,2.91,0,0,1-2.42-1c-.91-1.06-1.1-2.91-1.1-4.27V379.06c0-2,.36-3.53,1-4.33a2.92,2.92,0,0,1,2.47-1,3.14,3.14,0,0,1,2.62,1c.7.76,1.07,2.24,1.07,4.27v67.46c0,2-.37,3.49-1.08,4.26A3.18,3.18,0,0,1,1041.31,451.81Z"/><path class="cls-4" d="M1108.65,428.17h-30.42a20.65,20.65,0,0,0,2.13,9.35,14.73,14.73,0,0,0,5.53,6.09,14.56,14.56,0,0,0,7.6,2.05,18.93,18.93,0,0,0,5.1-.65,16.64,16.64,0,0,0,4.47-2.05,33.46,33.46,0,0,0,4-3c1.22-1.07,2.79-2.51,4.73-4.33a5.08,5.08,0,0,1,3.42-1,5.63,5.63,0,0,1,3.87,1.31,4.67,4.67,0,0,1,1.48,3.7,10.12,10.12,0,0,1-1.65,4.93,19.42,19.42,0,0,1-5,5.41,28.39,28.39,0,0,1-8.38,4.31A36.3,36.3,0,0,1,1094,456q-15,0-23.3-8.54t-8.32-23.19a38.63,38.63,0,0,1,2.05-12.79,28.24,28.24,0,0,1,6-10.11,26.05,26.05,0,0,1,9.69-6.47,34.75,34.75,0,0,1,12.76-2.25,30.3,30.3,0,0,1,15.64,3.85,25.32,25.32,0,0,1,9.77,9.94,26.18,26.18,0,0,1,3.25,12.42q0,5.87-3.37,7.61T1108.65,428.17Zm-30.42-8.83h28.2q-.57-8-4.31-11.93a12.85,12.85,0,0,0-9.82-4,12.48,12.48,0,0,0-9.55,4Q1079,411.48,1078.23,419.34Z"/><path class="cls-5" d="M1094,451.81c-8.9,0-15.54-2.39-20.32-7.29s-7.13-11.57-7.13-20.28a34.62,34.62,0,0,1,1.82-11.42,24.22,24.22,0,0,1,5.09-8.64,22.05,22.05,0,0,1,8.16-5.43,30.82,30.82,0,0,1,11.24-2,26.31,26.31,0,0,1,13.52,3.27,21,21,0,0,1,8.21,8.31,21.77,21.77,0,0,1,2.76,10.46c0,.78-.08,3.37-1.11,3.9s-3.34,1.28-7.54,1.28H1074l0,4.21a24.75,24.75,0,0,0,2.6,11.2,18.47,18.47,0,0,0,16.83,10.41,22.87,22.87,0,0,0,6.24-.81,20.84,20.84,0,0,0,5.59-2.56,39.64,39.64,0,0,0,4.48-3.36c1.21-1.06,2.78-2.5,4.67-4.27h0a5.78,5.78,0,0,1,.72-.05,1.77,1.77,0,0,1,1.11.26h0a1.44,1.44,0,0,1,.08.58,6.24,6.24,0,0,1-1.08,2.83,15.61,15.61,0,0,1-4,4.22,24.39,24.39,0,0,1-7.15,3.65A32.11,32.11,0,0,1,1094,451.81Zm-1.65-52.53a16.53,16.53,0,0,0-12.6,5.35c-3.11,3.34-5,8.15-5.62,14.29l-.46,4.59h37.28l-.32-4.46c-.45-6.28-2.27-11.16-5.42-14.5A16.94,16.94,0,0,0,1092.3,399.28Z"/><path class="cls-4" d="M1173.88,447.2a48,48,0,0,1-10.91,6.58,30.55,30.55,0,0,1-11.82,2.19,22.34,22.34,0,0,1-10.51-2.36,17.28,17.28,0,0,1-7-6.41,16.57,16.57,0,0,1-2.45-8.77,15.72,15.72,0,0,1,4-10.88,20.21,20.21,0,0,1,11.11-6q1.48-.35,7.35-1.54t10.06-2.19q4.18-1,9.08-2.43c-.19-4.1-1-7.11-2.48-9s-4.49-2.88-9.08-2.88q-5.93,0-8.92,1.65a14.5,14.5,0,0,0-5.13,5c-1.42,2.2-2.43,3.65-3,4.35s-1.86,1.06-3.79,1.06a6.62,6.62,0,0,1-4.53-1.68,5.49,5.49,0,0,1-1.91-4.3,13.19,13.19,0,0,1,2.9-8q2.91-3.87,9.06-6.38a40.83,40.83,0,0,1,15.33-2.51q10.24,0,16.12,2.43a14.94,14.94,0,0,1,8.29,7.66q2.41,5.24,2.42,13.9c0,3.64,0,6.74,0,9.28s0,5.38-.08,8.49a31.22,31.22,0,0,0,1.45,9.15,28.67,28.67,0,0,1,1.45,6.12,5.73,5.73,0,0,1-2.25,4.36,7.54,7.54,0,0,1-5.1,2,6.9,6.9,0,0,1-4.73-2.25A33.72,33.72,0,0,1,1173.88,447.2Zm-1-22.5a79.12,79.12,0,0,1-9.94,2.65q-6.53,1.39-9,2a12.22,12.22,0,0,0-4.78,2.56,6.57,6.57,0,0,0-2.28,5.33,7.9,7.9,0,0,0,2.67,6,9.94,9.94,0,0,0,7,2.48,18.21,18.21,0,0,0,8.52-2,13.38,13.38,0,0,0,5.72-5.21q2.12-3.53,2.11-11.62Z"/><path class="cls-5" d="M1183.56,451.81a3.25,3.25,0,0,1-1.83-1.09,29.49,29.49,0,0,1-4.3-5.7l-2.43-4-2,1.54a15.3,15.3,0,0,0,1.34-2c1.78-3,2.66-7.47,2.66-13.69v-8.19l-5.6,2.06a75.13,75.13,0,0,1-9.38,2.48c-4.45,1-7.46,1.64-9.21,2.1a16.36,16.36,0,0,0-6.41,3.4,10.7,10.7,0,0,0-3.77,8.52,12.12,12.12,0,0,0,4,9.07,14,14,0,0,0,9.84,3.58,23,23,0,0,0,7.4-1.19c-.86.44-1.7.84-2.53,1.18a26.41,26.41,0,0,1-10.22,1.88,18.51,18.51,0,0,1-8.59-1.89,13.13,13.13,0,0,1-5.34-4.88,12.43,12.43,0,0,1-1.85-6.61,11.6,11.6,0,0,1,3-8.1,16.08,16.08,0,0,1,8.9-4.75q1.5-.34,7.29-1.53c3.94-.8,7.37-1.55,10.19-2.22s6-1.51,9.29-2.47l3.15-.92-.15-3.28c-.24-5-1.33-8.73-3.33-11.36-2.32-3-6.38-4.52-12.4-4.52-4.71,0-8.29.71-10.93,2.17a18.66,18.66,0,0,0-6.61,6.34c-1.22,1.88-1.93,2.9-2.34,3.46a7.19,7.19,0,0,1-1,.05,2.47,2.47,0,0,1-1.78-.64,1.32,1.32,0,0,1-.49-1.17,9,9,0,0,1,2.07-5.48,16.82,16.82,0,0,1,7.29-5,37,37,0,0,1,13.76-2.2c6.25,0,11.14.71,14.53,2.11a10.92,10.92,0,0,1,6.1,5.55c1.35,2.93,2,7,2,12.16,0,3.63,0,6.72,0,9.25s0,5.37-.09,8.47a35.74,35.74,0,0,0,1.63,10.41,29.58,29.58,0,0,1,1.28,5c0,.27-.28.68-.83,1.16A3.38,3.38,0,0,1,1183.56,451.81Z"/><path class="cls-4" d="M1254,435.64a18.06,18.06,0,0,1-12.39,18,41.44,41.44,0,0,1-14.9,2.36,36.36,36.36,0,0,1-14.36-2.56,20.86,20.86,0,0,1-8.83-6.41,12.91,12.91,0,0,1-2.85-7.72,5.94,5.94,0,0,1,1.83-4.38,6.22,6.22,0,0,1,4.61-1.83,5.37,5.37,0,0,1,3.76,1.2,13.11,13.11,0,0,1,2.51,3.36,17,17,0,0,0,5.72,6.21c2.23,1.37,5.25,2.05,9.09,2.05a13.1,13.1,0,0,0,7.66-2.08c2-1.38,3-3,3-4.76a6.48,6.48,0,0,0-3.1-6q-3.1-1.87-10.23-3.59a85.23,85.23,0,0,1-13.07-4.18,21.53,21.53,0,0,1-8.06-5.79,13.2,13.2,0,0,1-3-8.83,15.61,15.61,0,0,1,2.79-8.83,19.11,19.11,0,0,1,8.23-6.63,31.43,31.43,0,0,1,13.13-2.48,43.44,43.44,0,0,1,10.86,1.25,27.46,27.46,0,0,1,8,3.36,16.7,16.7,0,0,1,4.9,4.67,9.15,9.15,0,0,1,1.68,5,5.78,5.78,0,0,1-1.8,4.38,7.07,7.07,0,0,1-5.09,1.71,6.26,6.26,0,0,1-4.08-1.36,26.92,26.92,0,0,1-3.84-4.11A14.1,14.1,0,0,0,1232,404a13.14,13.14,0,0,0-6.5-1.37,12.66,12.66,0,0,0-7,1.8,5.21,5.21,0,0,0-2.8,4.47,4.85,4.85,0,0,0,2,4,17.06,17.06,0,0,0,5.53,2.6q3.48,1,9.57,2.5a51.13,51.13,0,0,1,11.82,4.22,19.55,19.55,0,0,1,6.95,5.78A12.8,12.8,0,0,1,1254,435.64Z"/><path class="cls-5" d="M1226.69,451.81a32.4,32.4,0,0,1-12.72-2.23,17.07,17.07,0,0,1-7.12-5.06,8.86,8.86,0,0,1-2-5.24,1.86,1.86,0,0,1,.6-1.44,2.13,2.13,0,0,1,1.67-.6,2.38,2.38,0,0,1,1,.14,8.81,8.81,0,0,1,1.63,2.27,21.27,21.27,0,0,0,7.19,7.74c2.88,1.77,6.67,2.67,11.27,2.67a17.18,17.18,0,0,0,10-2.83c4-2.74,4.78-6,4.78-8.18a10.5,10.5,0,0,0-5.11-9.54c-2.46-1.49-6.2-2.83-11.41-4.08a81.21,81.21,0,0,1-12.39-3.95,17.45,17.45,0,0,1-6.53-4.65,9.1,9.1,0,0,1-2-6.15,11.4,11.4,0,0,1,2.09-6.5,14.92,14.92,0,0,1,6.5-5.17,27.5,27.5,0,0,1,11.4-2.11,39.44,39.44,0,0,1,9.81,1.12,23.28,23.28,0,0,1,6.8,2.82,12.55,12.55,0,0,1,3.69,3.47,5.1,5.1,0,0,1,1,2.73,1.65,1.65,0,0,1-.5,1.37,3.53,3.53,0,0,1-2.22.56,2.06,2.06,0,0,1-1.45-.44,23,23,0,0,1-3.21-3.45,18,18,0,0,0-5.36-4.68,19.29,19.29,0,0,0-17.82.54c-3.89,2.5-4.7,5.72-4.7,8a8.92,8.92,0,0,0,3.69,7.32,20.73,20.73,0,0,0,6.87,3.28c2.37.7,5.66,1.56,9.77,2.56a47.48,47.48,0,0,1,10.84,3.84,15.64,15.64,0,0,1,5.51,4.52,8.63,8.63,0,0,1,1.6,5.2,13.91,13.91,0,0,1-9.72,14.08A37.48,37.48,0,0,1,1226.69,451.81Z"/><path class="cls-4" d="M1307.53,447.2v-2a34.66,34.66,0,0,1-5.87,5.92,21.53,21.53,0,0,1-6.72,3.56,27.19,27.19,0,0,1-8.32,1.17,21.47,21.47,0,0,1-10.11-2.34,17,17,0,0,1-6.92-6.43c-1.94-3.31-2.91-8-2.91-14.25V402c0-3.11.7-5.44,2.11-7a7.21,7.21,0,0,1,5.58-2.31,7.42,7.42,0,0,1,5.7,2.33q2.16,2.34,2.16,6.95v24.9a38.28,38.28,0,0,0,.92,9.09,10.9,10.9,0,0,0,3.27,5.75,9.35,9.35,0,0,0,6.41,2.08,13,13,0,0,0,7.41-2.34,13.7,13.7,0,0,0,5.07-6.09q1.31-3.3,1.31-14.47V402q0-4.61,2.16-6.95a7.38,7.38,0,0,1,5.64-2.33,7.21,7.21,0,0,1,5.59,2.31c1.4,1.53,2.1,3.86,2.1,7v45.07q0,4.44-2,6.66a7.21,7.21,0,0,1-10.48-.08A9.32,9.32,0,0,1,1307.53,447.2Z"/><path class="cls-5" d="M1314.88,451.81a2.65,2.65,0,0,1-2.18-.93,5.53,5.53,0,0,1-1-3.68v-14l-2.19,2.77c.63-2.12,1.27-6.07,1.27-15V402c0-1.36.19-3.17,1.06-4.11a3.12,3.12,0,0,1,2.58-1,3,3,0,0,1,2.51,1c.66.71,1,2.19,1,4.16v45.07A6.12,6.12,0,0,1,1317,451,2.58,2.58,0,0,1,1314.88,451.81Zm-28.26-.12a17.28,17.28,0,0,1-8.18-1.86,12.87,12.87,0,0,1-5.28-4.88c-1.53-2.61-2.31-6.69-2.31-12.11V402c0-2,.36-3.45,1-4.16a3,3,0,0,1,2.5-1,3.22,3.22,0,0,1,2.64,1c.87.94,1.06,2.75,1.06,4.11v24.9a42.4,42.4,0,0,0,1,10.09,15.06,15.06,0,0,0,4.57,7.88,13.4,13.4,0,0,0,9.16,3.12,17.08,17.08,0,0,0,8.91-2.52,25.88,25.88,0,0,1-2.64,2.35,17.33,17.33,0,0,1-5.43,2.88A23.06,23.06,0,0,1,1286.62,451.69Z"/><path class="cls-4" d="M1353.05,433.53v13q0,4.73-2.22,7.09a7.38,7.38,0,0,1-5.64,2.36,7.11,7.11,0,0,1-5.53-2.39c-1.44-1.59-2.16-3.95-2.16-7.06v-43.3q0-10.49,7.57-10.48,3.89,0,5.59,2.45c1.14,1.63,1.76,4,1.88,7.23a27.23,27.23,0,0,1,5.72-7.23,11.86,11.86,0,0,1,7.83-2.45,20.11,20.11,0,0,1,9.52,2.45c3.07,1.63,4.61,3.8,4.61,6.49a6.17,6.17,0,0,1-2,4.7,6.08,6.08,0,0,1-4.25,1.85,19.7,19.7,0,0,1-4.13-1.05,19.24,19.24,0,0,0-5.78-1.05,8.42,8.42,0,0,0-5.58,1.79,11.4,11.4,0,0,0-3.36,5.33,37.25,37.25,0,0,0-1.66,8.4Q1353.05,426.53,1353.05,433.53Z"/><path class="cls-5" d="M1345.19,451.81a3,3,0,0,1-2.44-1c-.9-1-1.09-2.87-1.09-4.27v-43.3c0-6.32,2.14-6.32,3.41-6.32,1.7,0,2,.51,2.17.67.37.54,1,1.91,1.13,5l.52,14.38,1.68-2.88a45.92,45.92,0,0,0-1.22,7.19c-.31,3.36-.47,7.49-.47,12.27v13c0,1.4-.19,3.28-1.09,4.24A3.27,3.27,0,0,1,1345.19,451.81Zm11-47.35a23.35,23.35,0,0,1,4.76-6.07,7.78,7.78,0,0,1,5.16-1.49,15.89,15.89,0,0,1,7.57,2c2.4,1.27,2.4,2.35,2.4,2.81a2,2,0,0,1-.66,1.67,2.15,2.15,0,0,1-1.26.71,27.67,27.67,0,0,1-3-.85,23.14,23.14,0,0,0-7.06-1.25A12.65,12.65,0,0,0,1356.17,404.46Z"/><path class="cls-4" d="M1429.22,428.17H1398.8a20.65,20.65,0,0,0,2.13,9.35,14.73,14.73,0,0,0,5.53,6.09,14.56,14.56,0,0,0,7.6,2.05,18.93,18.93,0,0,0,5.1-.65,16.64,16.64,0,0,0,4.47-2.05,33.46,33.46,0,0,0,4-3c1.22-1.07,2.79-2.51,4.73-4.33a5.08,5.08,0,0,1,3.42-1,5.63,5.63,0,0,1,3.87,1.31,4.67,4.67,0,0,1,1.48,3.7,10.12,10.12,0,0,1-1.65,4.93,19.42,19.42,0,0,1-5,5.41,28.39,28.39,0,0,1-8.38,4.31,36.3,36.3,0,0,1-11.59,1.7q-15,0-23.3-8.54t-8.32-23.19a38.63,38.63,0,0,1,2-12.79,28.24,28.24,0,0,1,6-10.11,26.05,26.05,0,0,1,9.69-6.47,34.75,34.75,0,0,1,12.76-2.25,30.3,30.3,0,0,1,15.64,3.85,25.32,25.32,0,0,1,9.77,9.94,26.18,26.18,0,0,1,3.25,12.42q0,5.87-3.37,7.61T1429.22,428.17Zm-30.42-8.83H1427q-.57-8-4.31-11.93a12.85,12.85,0,0,0-9.82-4,12.48,12.48,0,0,0-9.55,4Q1399.6,411.48,1398.8,419.34Z"/><path class="cls-5" d="M1414.52,451.81c-8.9,0-15.54-2.39-20.32-7.29s-7.13-11.57-7.13-20.28a34.62,34.62,0,0,1,1.82-11.42,24.22,24.22,0,0,1,5.09-8.64,22.05,22.05,0,0,1,8.16-5.43,30.82,30.82,0,0,1,11.24-2,26.31,26.31,0,0,1,13.52,3.27,21,21,0,0,1,8.21,8.31,21.77,21.77,0,0,1,2.76,10.46c0,.78-.08,3.37-1.11,3.9s-3.34,1.28-7.54,1.28h-34.64l.05,4.21a24.75,24.75,0,0,0,2.6,11.2,18.47,18.47,0,0,0,16.83,10.41,22.87,22.87,0,0,0,6.24-.81,20.84,20.84,0,0,0,5.59-2.56,39.64,39.64,0,0,0,4.48-3.36c1.21-1.06,2.78-2.5,4.67-4.27h0a5.78,5.78,0,0,1,.72-.05,1.77,1.77,0,0,1,1.11.26h0a1.44,1.44,0,0,1,.08.58,6.24,6.24,0,0,1-1.08,2.83,15.61,15.61,0,0,1-4,4.22,24.32,24.32,0,0,1-7.16,3.65A32,32,0,0,1,1414.52,451.81Zm-1.65-52.53a16.53,16.53,0,0,0-12.6,5.35c-3.11,3.34-5,8.15-5.62,14.29l-.47,4.59h37.29l-.32-4.46c-.45-6.28-2.27-11.16-5.42-14.5A16.94,16.94,0,0,0,1412.87,399.28Z"/><path class="cls-4" d="M1459.64,456a8.91,8.91,0,0,1-6.1-2.27,8.1,8.1,0,0,1-2.56-6.39,8.28,8.28,0,0,1,2.45-6,8.11,8.11,0,0,1,6-2.5,8.44,8.44,0,0,1,6.12,2.47,8.8,8.8,0,0,1,0,12.37A8.53,8.53,0,0,1,1459.64,456Z"/><path class="cls-5" d="M1459.64,451.81a4.72,4.72,0,0,1-3.33-1.23c-.5-.44-1.16-1.27-1.16-3.27a4.1,4.1,0,0,1,1.26-3.06,4,4,0,0,1,3.06-1.26,4.27,4.27,0,0,1,3.21,1.29,3.94,3.94,0,0,1,1.28,3,4,4,0,0,1-1.17,3.28A4.4,4.4,0,0,1,1459.64,451.81Z"/><path class="cls-4" d="M1496.16,456a8.91,8.91,0,0,1-6.1-2.27,8.1,8.1,0,0,1-2.56-6.39,8.24,8.24,0,0,1,2.45-6,8.1,8.1,0,0,1,6-2.5,8.44,8.44,0,0,1,6.12,2.47,8.8,8.8,0,0,1,0,12.37A8.53,8.53,0,0,1,1496.16,456Z"/><path class="cls-5" d="M1496.16,451.81a4.72,4.72,0,0,1-3.33-1.23,3.93,3.93,0,0,1-1.17-3.27,4.07,4.07,0,0,1,1.27-3.06A4,4,0,0,1,1496,443a4.3,4.3,0,0,1,3.21,1.29,4,4,0,0,1,1.28,3,4,4,0,0,1-1.17,3.28A4.4,4.4,0,0,1,1496.16,451.81Z"/><path class="cls-4" d="M1532.67,456a8.9,8.9,0,0,1-6.09-2.27,8.1,8.1,0,0,1-2.56-6.39,8.27,8.27,0,0,1,2.44-6,8.13,8.13,0,0,1,6-2.5,8.44,8.44,0,0,1,6.13,2.47,8.82,8.82,0,0,1,0,12.37A8.56,8.56,0,0,1,1532.67,456Z"/><path class="cls-5" d="M1532.67,451.81a4.71,4.71,0,0,1-3.32-1.23,3.93,3.93,0,0,1-1.17-3.27,4.07,4.07,0,0,1,1.27-3.06,3.93,3.93,0,0,1,3-1.26,4.31,4.31,0,0,1,3.22,1.29,4.65,4.65,0,0,1,.1,6.31A4.38,4.38,0,0,1,1532.67,451.81Z"/><path class="cls-4" d="M1569.19,456a8.9,8.9,0,0,1-6.09-2.27,8.11,8.11,0,0,1-2.57-6.39,8.28,8.28,0,0,1,2.45-6,8.13,8.13,0,0,1,6-2.5,8.46,8.46,0,0,1,6.13,2.47,8.82,8.82,0,0,1,0,12.37A8.56,8.56,0,0,1,1569.19,456Z"/><path class="cls-5" d="M1569.19,451.81a4.7,4.7,0,0,1-3.32-1.23c-.51-.44-1.17-1.27-1.17-3.27a4.1,4.1,0,0,1,1.26-3.06A4,4,0,0,1,1569,443a4.27,4.27,0,0,1,3.21,1.29,3.94,3.94,0,0,1,1.28,3,4,4,0,0,1-1.17,3.28A4.4,4.4,0,0,1,1569.19,451.81Z"/><path class="cls-4" d="M1605.71,456a8.93,8.93,0,0,1-6.1-2.27,8.13,8.13,0,0,1-2.56-6.39,8.28,8.28,0,0,1,2.45-6,8.11,8.11,0,0,1,6-2.5,8.44,8.44,0,0,1,6.12,2.47,8.8,8.8,0,0,1,0,12.37A8.53,8.53,0,0,1,1605.71,456Z"/><path class="cls-5" d="M1605.71,451.81a4.72,4.72,0,0,1-3.33-1.23c-.5-.44-1.16-1.27-1.16-3.27a4.1,4.1,0,0,1,1.26-3.06,4,4,0,0,1,3.06-1.26,4.27,4.27,0,0,1,3.21,1.29,3.94,3.94,0,0,1,1.28,3,4,4,0,0,1-1.17,3.28A4.4,4.4,0,0,1,1605.71,451.81Z"/><path class="cls-4" d="M1642.23,456a8.91,8.91,0,0,1-6.1-2.27,8.1,8.1,0,0,1-2.56-6.39,8.24,8.24,0,0,1,2.45-6,8.1,8.1,0,0,1,6-2.5,8.44,8.44,0,0,1,6.12,2.47,8.8,8.8,0,0,1,0,12.37A8.53,8.53,0,0,1,1642.23,456Z"/><path class="cls-5" d="M1642.23,451.81a4.72,4.72,0,0,1-3.33-1.23c-.5-.44-1.16-1.27-1.16-3.27a4.06,4.06,0,0,1,1.26-3.06,4,4,0,0,1,3.06-1.26,4.3,4.3,0,0,1,3.21,1.29,4,4,0,0,1,1.28,3,4,4,0,0,1-1.17,3.28A4.4,4.4,0,0,1,1642.23,451.81Z"/><path class="cls-4" d="M1678.75,456a8.91,8.91,0,0,1-6.1-2.27,8.1,8.1,0,0,1-2.56-6.39,8.24,8.24,0,0,1,2.45-6,8.09,8.09,0,0,1,6-2.5,8.44,8.44,0,0,1,6.13,2.47,8.82,8.82,0,0,1,0,12.37A8.55,8.55,0,0,1,1678.75,456Z"/><path class="cls-5" d="M1678.75,451.81a4.72,4.72,0,0,1-3.33-1.23,3.93,3.93,0,0,1-1.17-3.27,4.07,4.07,0,0,1,1.27-3.06,3.94,3.94,0,0,1,3-1.26,4.31,4.31,0,0,1,3.22,1.29,4.65,4.65,0,0,1,.1,6.31A4.38,4.38,0,0,1,1678.75,451.81Z"/><path class="cls-4" d="M1715.26,456a8.9,8.9,0,0,1-6.09-2.27,8.11,8.11,0,0,1-2.57-6.39,8.28,8.28,0,0,1,2.45-6,8.13,8.13,0,0,1,6-2.5,8.44,8.44,0,0,1,6.13,2.47,8.82,8.82,0,0,1,0,12.37A8.56,8.56,0,0,1,1715.26,456Z"/><path class="cls-5" d="M1715.26,451.81a4.7,4.7,0,0,1-3.32-1.23,3.93,3.93,0,0,1-1.17-3.27,4.1,4.1,0,0,1,1.26-3.06,4,4,0,0,1,3.06-1.26,4.27,4.27,0,0,1,3.21,1.29,3.94,3.94,0,0,1,1.28,3,4,4,0,0,1-1.17,3.28A4.4,4.4,0,0,1,1715.26,451.81Z"/><path class="cls-4" d="M1751.78,456a8.88,8.88,0,0,1-6.09-2.27,8.11,8.11,0,0,1-2.57-6.39,8.28,8.28,0,0,1,2.45-6,8.11,8.11,0,0,1,6-2.5,8.44,8.44,0,0,1,6.12,2.47,8.8,8.8,0,0,1,0,12.37A8.53,8.53,0,0,1,1751.78,456Z"/><path class="cls-5" d="M1751.78,451.81a4.74,4.74,0,0,1-3.33-1.23c-.5-.44-1.16-1.27-1.16-3.27a4.1,4.1,0,0,1,1.26-3.06,4,4,0,0,1,3.06-1.26,4.27,4.27,0,0,1,3.21,1.29,3.94,3.94,0,0,1,1.28,3,4,4,0,0,1-1.17,3.28A4.4,4.4,0,0,1,1751.78,451.81Z"/><path class="cls-4" d="M1788.3,456a8.91,8.91,0,0,1-6.1-2.27,8.1,8.1,0,0,1-2.56-6.39,8.28,8.28,0,0,1,2.45-6,8.11,8.11,0,0,1,6-2.5,8.44,8.44,0,0,1,6.12,2.47,8.8,8.8,0,0,1,0,12.37A8.53,8.53,0,0,1,1788.3,456Z"/><path class="cls-5" d="M1788.3,451.81a4.72,4.72,0,0,1-3.33-1.23c-.5-.44-1.16-1.27-1.16-3.27a4.1,4.1,0,0,1,1.26-3.06,4,4,0,0,1,3.06-1.26,4.27,4.27,0,0,1,3.21,1.29,3.94,3.94,0,0,1,1.28,3,4,4,0,0,1-1.17,3.28A4.4,4.4,0,0,1,1788.3,451.81Z"/><path class="cls-6" d="M15.07,0a54.78,54.78,0,0,0-4.85,7.61C9,9.85,6.5,15.64,1.5,27.23c-1.29,3-2.43,5.62-3.44,8A81.21,81.21,0,0,0-12.67,37c-10.44,2.49-15,5.71-24,8.72-10.61,3.53-15.27,2.71-24,4.36-14,2.63-23.15,8.72-39.25,19.62C-110,76.59-134.07,93-152.2,115.52a75.51,75.51,0,0,0-7.58,11.66c-2.92.21-5.85.33-8.77.33-.22,0-1.91-.06-4.36,0-3.6.09-3.82.32-4.36,0-2.55-1.53.89-7.71-2.18-10.9-1.94-2-5.83-2.17-6.54-2.18-2.44-.05-3.58.75-4.36,0-1.1-1.07.75-3.15,0-6.54-.41-1.86-1-1.56-2.18-4.36-1.58-3.86-.69-5.15-2.18-6.54-1.65-1.55-3.49-.66-4.36-2.18-.71-1.24.31-2.15,0-4.36s-1.44-2.29-2.18-4.36c-1.42-4,1.62-6.61,0-8.72-1.28-1.67-3.7-.72-4.36-2.18-.88-2,3.06-4.6,2.18-6.54-.72-1.58-3.72-.72-4.36-2.18-.81-1.87,3.81-3.85,4.36-8.72.12-1-.09-1,0-4.36.07-2.7.21-3.24,0-4.36-.42-2.22-1.38-2.17-2.18-4.36-1-2.73.25-11.62,0-8.72,0,0,3.16-4,2.18-6.54-.5-1.31-1.56-.92-2.18-2.18-1-2.12,1.52-4,2.18-8.72.05-.34,0-.23,0-4.36,0-3.1,0-5.18,0-6.54.33.06,1.72-3.41,2.1-7.61Z"/><path class="cls-7" d="M1226.7,801.15c-1.82,18.3-2.81,28.16-10.9,37.07-8.51,9.37-19.8,12.07-24,13.08-8,1.91-13.76,1.3-26.16,0-41.24-4.33-40.9-4.27-41.42-4.36-25.64-4.75-24.59-9.36-50.14-15.26-15-3.48-28.91-4.5-56.68-6.54-22.77-1.68-34.15-2.52-45.79-2.18A174.91,174.91,0,0,0,947,825.38c-9.3-3.25-17.73-4.24-36.39-6.78-39.12-5.34-58.68-8-69.76-10.9-26.16-6.85-44.31-17.82-54.5-24a160.62,160.62,0,0,1-23.88-17.45c4.92,0,8.87-8.59,10.8-13.07,8.56-19.88,11.24-37.53,13.08-48,4.77-27.14,6.78-22.34,8.72-39.24.26-2.35.57-5.13.83-8.29l2.86-1.3c4.21,2.49,8.77,5,13.75,7.41a113.66,113.66,0,0,0,34.88,10.9,108.46,108.46,0,0,0,28.34,0c5.69-.75,8.54-1.12,10.9-2.18,12-5.35,10.53-16.91,21.8-24,4.79-3,9.73-3.46,19.62-4.36a84.4,84.4,0,0,1,28.34,2.18c11.38,2.9,19,7.47,28.34,13.08,6.48,3.89,11.59,7.68,21.8,15.26,16.88,12.53,17.6,14.3,24,17.44,8,3.94,14.79,4.81,28.34,6.54,16.36,2.09,32,2.14,45.78,2.18,9.79,0,16.56-.19,26.16,2.18a63.52,63.52,0,0,1,17.44,6.54c11.31,6.45,10.62,11.31,21.8,17.44a69.11,69.11,0,0,0,17.44,6.54c8.94,1.79,13.64.47,17.44,4.36,3,3,1.74,5.52,4.36,10.9,3.61,7.43,8.94,8.84,13.08,13.08C1229.85,769.6,1228.65,781.63,1226.7,801.15Z"/><path class="cls-8" d="M798.74,656.4l-2.86,1.3c.06-.75.12-1.52.17-2.32,0-.17,0-.34,0-.51v-.06l0,0Z"/><path class="cls-9" d="M56.61,672.68c-2.81,6.66-5,10.75-5,10.75a203.24,203.24,0,0,1-15.26,24c-8,11-9.24,10.77-17.44,21.8A257.48,257.48,0,0,0,0,758.5l-.68,1.23c-8.7,15.95-7.29,17.67-13.08,24-2.45,2.68-11.88,12.95-26.16,15.26-6.42,1-6.88-.64-19.62,0-10.38.53-10.85,1.69-19.63,2.18A115,115,0,0,1-107.51,799a130.37,130.37,0,0,1-21.8-6.54c-9.52-3.55-14.28-5.33-19.62-8.72s-8.42-6.42-15.26-8.72c-2-.68-1.41-.29-8.72-2.18-5-1.29-9.74-2.51-15.26-4.36-6-2-9-3-10.9-4.36a21.91,21.91,0,0,1-6.11-6.83c.22-.27.43-.51.66-.8a276.52,276.52,0,0,0,17.44-24c3.79-5.7,7-10.36,9.77-14.27a14.89,14.89,0,0,0,8.76.1c2.3-.69,3.25-1.54,6.54-2.18,3.88-.74,6.26-.27,8.72-2.18,1.17-.9.9-1.21,2.18-2.18,2.22-1.67,4.22-1.64,6.54-2.18,3.9-.9,3-2.08,8.72-4.36a34.11,34.11,0,0,1,8.72-2.18,10.63,10.63,0,0,1,4.36,0c2.33.58,2.17,1.6,4.36,2.18,1.25.33,1.38,0,6.54,0,1.91,0,1.7,0,2.18,0,3.24-.23,4.49-1.59,6.54-2.18,3-.86,3.68,1,10.9,2.18,3.56.56,5.36.83,6.54,0s2-2.71,2.18-10.9a84.44,84.44,0,0,0,0-8.72c0-.41,0-8.27,0-24s1.24-21.5,2.18-45.78c1.15-29.25-.24-30.47,2.18-41.42,2.49-11.24,4.52-20.42,10.91-30.52,4.11-6.51,8.63-11.21,13.08-21.81,2.09-5,2-6.08,4.36-10.9,1.55-3.14,2.91-5.34,10.9-17.44,5.28-8,5.84-8.78,6.54-10.9a22.62,22.62,0,0,0,1.17-6.26c3.47,2.06,5.71,3.09,8.64,3,5-.17,7.62-3.35,13.08-2.18a8.19,8.19,0,0,1,4.36,2.18c.45.48,1.68,1.93,2.18,6.54a21.7,21.7,0,0,1,0,6.54c-.42,2.95,1.47,7.08,4,11.25,3.55,6,8.3,12.06,9.13,14.91,7.06,24.44,4,58.66,10.9,65.41a7.53,7.53,0,0,0,3.28,2,126.65,126.65,0,0,0,2.17,16.51c2.37,10.76,5.94,18.8,13.08,34.88,4.57,10.3,8.53,19.22,15.26,30.52C54.28,668.94,55.22,670.5,56.61,672.68Z"/><path class="cls-7" d="M1054.48,923.24c-3.93,6.28-9.08,5.12-19.62,15.26-4.61,4.42-3.93,4.93-6.54,6.54-7.78,4.77-14,.42-24,2.18-9.25,1.63-10.42,6.54-19.62,10.9-13.23,6.28-26.41,3.53-34.88,2.18q-.21,0-89.38,0c-39,0-71,1.32-91.56,2.18-33.36,1.4-27.45,1.82-43.61,2.18-60.44,1.34-73.47-6.14-109,0-9.92,1.72-23.33,6.23-50.14,15.26C519,995.79,507.4,1003,474.58,1014.8a721.17,721.17,0,0,1-117.73,30.52c-43.25,7.44-64.88,11.15-89.38,10.9-12.68-.13-30.64-1.1-54.5,4.36a269.59,269.59,0,0,0-34.89,10.9,200.41,200.41,0,0,0-19.16,8.52h-114c-10.27-2.86-17.92-5.53-26-10.7A75.47,75.47,0,0,1,0,1051.93V879c10.39-18,21.4-31,29.84-40.82A275.94,275.94,0,0,1,60.36,807.7a288.85,288.85,0,0,1,26.16-19.63c26.23-17.61,35-18.3,50.14-28.34a99.18,99.18,0,0,0,9.86-7.38c.45.37.8.67,1,.84,6.19,4.27,24.15-15.17,41.79-29.1a101.28,101.28,0,0,0,14.9,5.12,71.28,71.28,0,0,0,13.08,2.18c6.57.37,7.53-.67,10.9,0,6.61,1.33,9.3,6.62,15.26,13.08,8.31,9,10.33,6.56,19.62,15.26,15.1,14.15,12.49,23.2,21.8,26.16,8.71,2.78,12.53-4.68,28.34-6.54,10.8-1.27,15.9,1.4,30.52,4.36,20.55,4.17,22.26,1.29,48,4.36,8.71,1,11.15,1.69,54.5,10.9,31.65,6.73,47.57,10.11,52.33,10.91,32.79,5.5,49.19,8.26,65.4,6.54,13.52-1.44,41.92-6.47,52.32-4.36a20.71,20.71,0,0,0,8.72,0,21.21,21.21,0,0,0,8.72-4.36c9.68-7.81,17.44-26.17,17.44-26.17,9.54-19.07,27.43-27.76,37.06-32.7,12.93-6.63,23-7.83,28.34-6.54,2.46.59,4.49,1.1,6,1.47l2.75.71c7.36,2,7.73,2.37,8.72,2.18a4.36,4.36,0,0,0,2.55-1.68,62,62,0,0,0,6.18,6c3.51,3,5.46,3.85,10.9,8.72,5.11,4.58,6.4,6.5,8.72,6.54h.1a160.62,160.62,0,0,0,23.88,17.45c10.19,6.17,28.34,17.14,54.5,24,11.08,2.89,30.64,5.56,69.76,10.9,18.66,2.54,27.09,3.53,36.39,6.78,1.63.57,3.29,1.21,5,1.94,16.94,7.08,29.71,17.51,34.88,21.8,13.08,10.82,12.93,14.3,28.35,26.16,10.27,7.9,15.4,11.85,21.8,15.26,9.71,5.18,14.18,5.64,17.44,10.9C1058.23,907.5,1058.47,916.85,1054.48,923.24Z"/><path class="cls-10" d="M796.09,654.81v.06c0,.17,0,.34,0,.51,0,.8-.11,1.57-.17,2.32-.26,3.16-.57,5.94-.83,8.29-1.94,16.9-3.95,12.1-8.72,39.24-1.84,10.43-4.52,28.08-13.08,48-1.93,4.48-5.88,13-10.8,13.07A155.06,155.06,0,0,1,739,740c2.34-7,3.21-18.17,3.69-26,.54-9,1-16.38,1.26-22.79.07-1.57.12-3.08.16-4.53.29-10.16,0-17.67-1.42-25a120.58,120.58,0,0,0-9.16-28.18c-2.3-5.18-5-10.83-8.29-17.6-1.95-4.06-3.77-7.84-5.54-11.41-.54-1.11-1.08-2.19-1.63-3.26-5.73-11.44-11.13-20.91-19-31.11-20.18-26.19-43.25-39.85-61-50.15a266.85,266.85,0,0,0-26.27-13.11c-.66-.63-1.36-1.34-2.07-2.15-3.21-3.64-4.78-7.06-6.54-10.9-.45-1-1.76-5-4.36-13.08-1.77-5.48-2.65-8.28-2.18-10.9a26.52,26.52,0,0,1,1.78-5.66c5.79.28,11.85.79,17.84,1.3,22.57,1.92,38.71,8.73,54.5,15.26,13.26,5.49,36.74,15.44,61,37.06,4.32,3.84,8.24,7.68,11.8,11.44q1.82,1.92,3.51,3.8a215.27,215.27,0,0,1,23.94,32.73c5.66,9.21,11.12,18.09,15.56,28.69.36.86.71,1.73,1.06,2.61a122.1,122.1,0,0,1,5.18,16.66A138.56,138.56,0,0,1,796.09,654.81Z"/><path class="cls-9" d="M762.45,766.26h-.1c-2.32,0-3.61-2-8.72-6.54-5.44-4.87-7.39-5.74-10.9-8.72a62,62,0,0,1-6.18-6,15.61,15.61,0,0,0,2.49-5A155.06,155.06,0,0,0,762.45,766.26Z"/><path class="cls-11" d="M744.15,686.63c0,1.45-.09,3-.16,4.53-.27,6.41-.72,13.84-1.26,22.79-.48,7.87-1.35,19-3.69,26a15.61,15.61,0,0,1-2.49,5,4.36,4.36,0,0,1-2.55,1.68c-1,.19-1.36-.22-8.72-2.18l-2.75-.71c-1.48-.37-3.51-.88-6-1.47-5.38-1.29-15.41-.09-28.34,6.54-9.63,4.94-27.52,13.63-37.06,32.7,0,0-7.76,18.36-17.44,26.17a21.21,21.21,0,0,1-8.72,4.36,20.71,20.71,0,0,1-8.72,0c-10.4-2.11-38.8,2.92-52.32,4.36-16.21,1.72-32.61-1-65.4-6.54-4.76-.8-20.68-4.18-52.33-10.91-43.35-9.21-45.79-9.85-54.5-10.9-25.7-3.07-27.41-.19-48-4.36-14.62-3-19.72-5.63-30.52-4.36-15.81,1.86-19.63,9.32-28.34,6.54-9.31-3-6.7-12-21.8-26.16-9.29-8.7-11.31-6.24-19.62-15.26-6-6.46-8.65-11.75-15.26-13.08-3.37-.67-4.33.37-10.9,0a71.28,71.28,0,0,1-13.08-2.18,101.28,101.28,0,0,1-14.9-5.12c-17.64,13.93-35.6,33.37-41.79,29.1-.24-.17-.59-.47-1-.84a23.92,23.92,0,0,0-5.5-3.52,24.87,24.87,0,0,0-8.72-2.18c-8.33-.69-31.37-17-56.68-48a277.25,277.25,0,0,1-19-26c-1.39-2.18-2.33-3.74-2.79-4.51-6.73-11.3-10.69-20.22-15.26-30.52-7.14-16.08-10.71-24.12-13.08-34.88a126.65,126.65,0,0,1-2.17-16.51,129,129,0,0,1,0-18.37c.68-9.18,10.18-22.82,27.33-39.25,35.28-33.8,102.94-79.39,192.86-122.08,0,0,173.18-68.31,228.91-28.34,14.09,10.1,20.26,20.18,22.66,25.15a25.73,25.73,0,0,1,1.32,3.19c1.24,4.19,1.49,7.9,4.36,15.26a72.12,72.12,0,0,0,10.9,19.62c3.47,4.4,6.13,7.76,10.9,10.9,5.8,3.83,11.12,5,10.9,6.54-.17,1.21-3.37,1.48-6.54,2.18a27.16,27.16,0,0,0-5.78,1.94c-3.24,1.52-6.21,3.66-11.66,6.78-8.79,5-16,7.72-30.52,13.08A29.64,29.64,0,0,1,465.85,485a27.52,27.52,0,0,1-8.72-2.18c-8.53-3.43-21.25-.24-34.88,4.36-18.06,6.11-29.72,10.17-45.78,19.62-5.87,3.46-32,19.22-56.68,50.15-10.08,12.6-24,30.35-32.7,56.68-2.95,8.93-9.07,27.53-9.75,41.53A178.84,178.84,0,0,0,295.81,605c8.87-38,62.82-80.24,106.82-100.29,73.63-33.53,142.59-18.58,167.69-12.1l4.54,1.2a278,278,0,0,1,63.22,26.16c17.79,10.3,40.86,24,61,50.15,7.86,10.2,13.26,19.67,19,31.11.55,1.07,1.09,2.15,1.63,3.26,1.77,3.57,3.59,7.35,5.54,11.41,3.27,6.77,6,12.42,8.29,17.6a120.58,120.58,0,0,1,9.16,28.18C744.12,669,744.44,676.47,744.15,686.63Z"/><path class="cls-12" d="M495.29,403.29a.49.49,0,0,1-.23.08c-2.4-5-8.57-15.05-22.66-25.15-55.73-40-228.91,28.34-228.91,28.34C153.57,449.25,85.91,494.84,50.63,528.64,33.48,545.07,24,558.71,23.3,567.89a129,129,0,0,0,0,18.37,7.53,7.53,0,0,1-3.28-2c-6.87-6.75-3.84-41-10.9-65.41C8.3,516,3.55,509.9,0,503.92c-2.48-4.17-4.37-8.3-3.95-11.25a21.7,21.7,0,0,0,0-6.54c-.5-4.61-1.73-6.06-2.18-6.54a8.19,8.19,0,0,0-4.36-2.18c-5.46-1.17-8.1,2-13.08,2.18-2.93.1-5.17-.93-8.64-3-.7-.42-1.44-.86-2.26-1.37,0,0-2.05-1.26-4.81-3.33C-29.9,461.59-22.59,452-17,444.71l.55-.73c.13-.16.27-.36.44-.58l1.11-1.49.65-.89.06-.09.43-.58c1.31-1.79,3-4.09,4.82-6.76.35-.5.71-1,1.07-1.54,2.41-3.47,5.12-7.51,7.9-11.87.2-.3.39-.61.58-.92s.4-.62.59-.93c.43-.67.86-1.35,1.28-2q1.29-2.07,2.56-4.2c.85-1.42,1.7-2.86,2.53-4.31.42-.72.84-1.46,1.24-2.19.83-1.46,1.63-2.93,2.42-4.41s1.55-2.95,2.29-4.43L17.85,388c.61-1.93.87-3.42,2.18-4.36,2.26-1.63,5.78-.26,6.54,0C34.17,386.3,54,378.26,68,370.59c16.21-8.91,26.2-18.29,39.24-30.52,15.78-14.8,23.67-22.21,28.34-32.7s1.41-10.68,8.72-37.06c2.54-9.16,4.46-14.64,8.72-30.53,3.44-12.8,4.71-18.59,4.36-26.16A61.29,61.29,0,0,0,153,194c-14.72-39.41-32.7-65.4-32.7-65.4-13.94-20.15-26.56-32.93-39.24-45.78C63.43,64.94,50.41,54.87,41.21,49a82,82,0,0,0-14.64-7.6,111.53,111.53,0,0,0-11.38-3.8,71.13,71.13,0,0,1,2.66-7.1,26,26,0,0,1,8.72-10.9C33.36,14.9,41,15.17,44,15.24c14.4.32,27.22-1.59,45.78-4.36C109.25,8,115.81,3.31,127.55,0H246.88a77.93,77.93,0,0,1,19.5,6.52,112,112,0,0,1,10.9,6.54C287.8,19.79,289.79,22,296.9,26.14A124.75,124.75,0,0,0,310,32.68c20.32,9.3,38.41,30.57,45.78,39.24,11.31,13.3,19.72,23.19,26.16,39.24,7,17.45,10.17,38.43,8.72,43.6a7.24,7.24,0,0,0,0,4.36c1,2.75,3.76,4,4.36,4.36,6.34,3.41,6.45,27,6.54,30.52.89,33.67,46.76,70.15,54.5,76.31a28,28,0,0,1,8.72,10.9c1.94,4.44,1.91,7.94,2.18,10.9,1.15,12.26,7.4,14.67,10.91,26.16,3.95,13-3,13.05,0,30.52,2,11.59,5.76,15.38,8.72,28.34.83,3.64,1.62,8.11,4.36,13.08a44.44,44.44,0,0,1,2.18,4.36C493.64,395.83,496.45,402.41,495.29,403.29Z"/><path class="cls-11" d="M153,239.78c-4.26,15.89-6.18,21.37-8.72,30.53-7.31,26.38-4,26.56-8.72,37.06s-12.56,17.9-28.34,32.7c-13,12.23-23,21.61-39.24,30.52C54,378.26,34.17,386.3,26.57,383.67c-.76-.26-4.28-1.63-6.54,0-1.31.94-1.57,2.43-2.18,4.36l-4.36,8.72c-.74,1.48-1.5,2.95-2.29,4.43s-1.59,2.95-2.42,4.41c-.41.73-.82,1.46-1.24,2.19-.83,1.45-1.68,2.89-2.53,4.31s-1.7,2.82-2.56,4.2c-.42.69-.85,1.37-1.28,2-.19.31-.39.63-.59.93s-.38.62-.58.92c-2.78,4.36-5.49,8.4-7.9,11.87-.36.53-.72,1-1.07,1.54-1.86,2.67-3.51,5-4.82,6.76l-.43.58-.06.09-.65.89L-16,443.4c-.17.22-.31.42-.44.58l-.55.73C-22.59,452-29.9,461.59-39.28,471.9a59.12,59.12,0,0,1-10.45-9.75,6.94,6.94,0,0,1-.46-.66,7.18,7.18,0,0,1-.43-.78c-.14-.28-.27-.59-.4-.91a22,22,0,0,1-.7-2.16c-.1-.4-.2-.82-.3-1.25s-.19-.9-.27-1.37c-.13-.71-.24-1.47-.35-2.26-.07-.53-.14-1.08-.2-1.65-.09-.84-.17-1.73-.24-2.66,0-.62-.09-1.25-.12-1.91-.59-10.37,0-25,1.55-42.67.12-1.35.24-2.72.37-4.11s.27-3,.43-4.54.3-3.09.46-4.66q.72-7.1,1.61-14.66c.09-.82.19-1.64.29-2.47q1.18-10.15,2.64-21c.23-1.8.48-3.63.73-5.46.12-.92.24-1.85.37-2.78l.39-2.75c.06-.53.14-1.07.22-1.6.13-1,.27-1.92.4-2.89q1.07-7.57,2.23-15.38l.78-5.28c2.12-14.11,4.43-28.66,6.88-43.38.28-1.65.55-3.3.83-5l.78-4.63c.2-1.2.4-2.4.61-3.6s.41-2.4.62-3.6c0-.16.05-.32.08-.48.38-2.24.77-4.49,1.16-6.73q.73-4.29,1.5-8.58.81-4.6,1.63-9.18a2.56,2.56,0,0,1,.05-.27c.21-1.2.42-2.4.64-3.6q.75-4.17,1.51-8.34.54-3,1.1-6,1-5.35,2-10.67l.66-3.54c.43-2.31.87-4.62,1.3-6.91l1.14-5.94c.3-1.55.6-3.1.89-4.65l.81-4.18q1.14-5.85,2.27-11.6c2.09-10.59,4.17-20.89,6.23-30.77.21-1.05.43-2.1.65-3.14,1.52-7.3,3-14.37,4.5-21.14l.63-2.89c.24-1.08.47-2.16.71-3.23q.8-3.6,1.57-7.08V52.58l-.73-.11-.7-.12c-.44-.09-.86-.18-1.26-.28l-.64-.18-.53-.18a10,10,0,0,1-1-.4h0a6.11,6.11,0,0,1-.84-.47c-.13-.09-.26-.18-.38-.28l-.29-.25a3.84,3.84,0,0,1-.28-.3,3,3,0,0,1-.58-1c-.13-.34.29-1.69,1.21-4.05s2.25-5.52,4.07-9.77c1-2.36,2.15-5,3.44-8C6.5,15.64,9,9.85,10.22,7.61A54.78,54.78,0,0,1,15.07,0H127.55c-11.74,3.31-18.3,8-37.76,10.88C71.23,13.65,58.41,15.56,44,15.24c-3-.07-10.65-.34-17.44,4.36a26,26,0,0,0-8.72,10.9,71.13,71.13,0,0,0-2.66,7.1,111.53,111.53,0,0,1,11.38,3.8A82,82,0,0,1,41.21,49c9.2,5.87,22.22,15.94,39.86,33.82,12.68,12.85,25.3,25.63,39.24,45.78,0,0,18,26,32.7,65.4a61.29,61.29,0,0,1,4.36,19.62C157.72,221.19,156.45,227,153,239.78Z"/><path class="cls-7" d="M611.81,506.81a265.05,265.05,0,0,0-36.95-13.05l-4.54-1.2c-25.1-6.48-94.06-21.43-167.69,12.1C358.63,524.71,304.68,567,295.81,605a178.84,178.84,0,0,1-18.47,50.25c.68-14,6.8-32.6,9.75-41.53,8.67-26.33,22.62-44.08,32.7-56.68,24.73-30.93,50.81-46.69,56.68-50.15,16.06-9.45,27.72-13.51,45.78-19.62,13.63-4.6,26.35-7.79,34.88-4.36a27.52,27.52,0,0,0,8.72,2.18,29.64,29.64,0,0,0,13.09-2.18c14.49-5.36,21.73-8.05,30.52-13.08,5.45-3.12,8.42-5.26,11.66-6.78,6.92-1.32,13.66-3.32,16.68-6.3.38-.38,2.76-2.83,4.36-2.18,1.11.46.64,2.14,2.18,4.36a15.23,15.23,0,0,0,4.36,4.36,15.79,15.79,0,0,0,6.54,2.18,37.49,37.49,0,0,0,10.9,0c7.26-.88,12.72-2.1,13.08-2.18,13.79-3.11,21-5.94,21.8-4.36.32.63-.7,1.26-2.18,4.36l-.4.88a26.52,26.52,0,0,0-1.78,5.66c-.47,2.62.41,5.42,2.18,10.9,2.6,8.05,3.91,12.1,4.36,13.08,1.76,3.84,3.33,7.26,6.54,10.9C610.45,505.47,611.15,506.18,611.81,506.81Z"/></g><g id="kaktus-2" data-name="kaktus"><path class="cls-3" d="M743.64,491.71c1.4-1.65,2.9-3.38,5-4.08s4.78.11,5.38,2.19c-14.12,15-29.14,29-44.62,42.51C720.87,518.87,732.22,505.26,743.64,491.71Z"/><path class="cls-3" d="M815.1,634.49a15.85,15.85,0,0,1,5.2,1.45c1.4.82,2,2.32.63,3.08-17.36-3.37-34.33-7.4-51.18-11.75C784.84,629.74,800,632.09,815.1,634.49Z"/><path class="cls-3" d="M715.59,581.57a15.78,15.78,0,0,1,5.4-.19c1.58.37,2.56,1.62,1.52,2.75-17.56,2-35,3.3-52.33,4.24C685.31,586.17,700.46,583.84,715.59,581.57Z"/><path class="cls-3" d="M698,641.91a7.39,7.39,0,0,1,2.38,3.41c.34,1.4-.36,3.24-1.77,3.62a385.55,385.55,0,0,1-25.24-30.83C681.5,626.1,689.77,634,698,641.91Z"/><path class="cls-3" d="M778.3,607.77a9.72,9.72,0,0,1,4.49.41c1.33.6,2.17,2.14,1.33,3.29-14.57.27-29-.31-43.47-1.26C753.2,609.47,765.75,608.59,778.3,607.77Z"/></g></svg>