<svg xmlns="http://www.w3.org/2000/svg" viewBox="0 0 200 600"><g id="Layer_1" data-name="Layer 1"><path d="M109.1,42.4c-2.5.9-10.3,3.6-15.4,11.6-1.1,1.8-5.5,8.5-4.3,16.5.6,4,2.7,7.9,6.8,15.7,2.1,4,3.4,5.9,3.4,9.1a15,15,0,0,1-3.4,9.1c-2.2,2.6-4.1,3-9.4,5.8a69.2,69.2,0,0,0-11.1,6.6c-5.3,4.3-7.3,9.8-9.4,15.7-2.4,6.8-4.8,13.3-2.6,20.7,1.7,5.8,5.9,11,7.7,13.2,2.4,3,3.8,4,6,7.4a27.59,27.59,0,0,1,4.3,9.9c.5,2.7,1.2,6.9-.9,10.7-1.5,2.7-3.3,3.1-10.3,7.4a117.33,117.33,0,0,0-12,8.3c-3.3,2.7-7.2,5.8-10.3,10.7-5.2,8.1-5.1,16.4-5.1,20.7a40.48,40.48,0,0,0,5.1,20.7c2.1,3.6,5,8.8,11.1,12.4,4.5,2.7,6.7,2,9.4,5,4.6,5,3.6,12.3,3.4,13.2a19.52,19.52,0,0,1-5.1,9.9c-2.8,3.1-4,2.7-8.6,6.6a39.83,39.83,0,0,0-7.7,8.3c-2.8,4.2-3.8,8-5.1,13.2s-2.1,8-1.7,11.6A26,26,0,0,0,48.2,354c1.8,2.7,3.7,4.6,7.7,8.3,3.6,3.4,5.5,4.6,8.6,8.3a21.11,21.11,0,0,1,3.4,5c1.4,3,1.5,5.5,1.7,9.1.2,4.2.3,6.2-.9,8.3-.9,1.6-1.5,1.2-4.3,4.1a35.58,35.58,0,0,0-5.1,6.6,26.47,26.47,0,0,0-2.6,5,20.75,20.75,0,0,0-.9,9.9,24.26,24.26,0,0,0,3.4,9.1c.5.9,2.1,2.8,5.1,6.6a57.69,57.69,0,0,0,4.3,5c2.2,2,5.1,4.1,5.1,4.1a34.57,34.57,0,0,1,1.7,9.9c0,3.1,0,5.5-1.7,7.4-1.9,2.1-3.9,1.4-7.7,3.3-1.2.6-2.3,1.3-6.8,5.8-4.8,4.8-7.2,7.2-9.4,9.9a66.08,66.08,0,0,0-7.7,12.4c-2.5,5-5.5,10.9-6.8,19A60.76,60.76,0,0,0,37,536.7c2,7,4.7,11.6,8.6,18.2,4.6,7.9,7.3,12.4,12.8,16.5,4.2,3.1,7.9,4.5,13.7,6.6a82.47,82.47,0,0,0,19.7,5c4.3.4,18.5,1.7,33.4-5.8,14.4-7.2,21.3-18.5,25.7-25.6,3.2-5.2,7.6-12.5,9.4-23.1,1-5.5,3.2-23.8-8.6-41.3-1.8-2.6-8.9-13.2-21.4-19s-18.7-8.8-20.6-9.1c-1.3-.2-4.8-.7-6.8-3.3-1.5-1.8-1.6-3.9-1.7-6.6a19.32,19.32,0,0,1,1.7-9.9c1.7-3.4,3.6-4,6-6.6,7-7.8,5.3-19.4,5.1-20.7-.5-3.3-1.6-10.1-6.8-14.1-2.4-1.8-4.8-2.4-7.7-5.8a15.23,15.23,0,0,1-3.4-5.8,14.2,14.2,0,0,1,0-8.3c1.4-4.4,5-6.4,8.6-9.1,2.6-1.9,10.8-8.1,14.6-15.7,4-8.1,2.3-16.6.9-24-1-5.2-1.8-9.3-5.1-13.2-2.9-3.4-8-7.2-9.4-8.3-3.4-2.5-4.5-2.9-6-5a14.72,14.72,0,0,1-2.6-9.1,15.17,15.17,0,0,1,4.3-9.1c4.5-5.1,9.4-6.1,13.7-8.3,13.5-6.9,17.4-24,18-26.4.7-3.3,3.2-15.9-3.4-28.1a50,50,0,0,0-12.8-14.9c-3.9-2.8-5.7-3-7.7-5.8-3.7-5.2-3.9-13.3,0-18.2,1.9-2.4,3.6-2.5,8.6-5a66.78,66.78,0,0,0,15.4-10.7c8.7-8.8,9.3-20.9,9.4-23.1s.4-19-10.3-26.4c-3.3-2.3-5.9-2.5-7.7-5.8-2.4-4.3-1.1-10.2,1.7-14.1,2.6-3.7,5.1-3.4,9.4-6.6.6-.5,11.4-8.6,12-21.5.4-8.3-3.7-14.3-5.1-16.5a27.79,27.79,0,0,0-12.8-10.7C120.3,38.7,111.9,41.5,109.1,42.4Zm25.6,22.5c3.6,16.2-20.9,28.8-17.6,45,1.7,8.1,9.9,13.5,12.5,21.4,3.7,10.8-4,22-12.1,30.3s-17.5,17.1-18,28.5c-.9,20,26.1,34.2,23.7,54.1-2.7,21.9-38.9,30.2-38.3,52.3.2,9.8,8,17.5,14.8,24.8S113,338,110.2,347.4c-4.1,13.9-26.4,18.9-26.9,33.4-.4,12.5,16.7,20.6,16.6,33.2,0,5.9-4,11-6.3,16.5-4.9,11.4-2.7,24.8,3.8,35.4s16.9,18.5,28.1,24.4c8.9,4.6,19.3,8.8,23.1,17.9,4.3,10.2-2.1,21.8-10.2,29.6-17.5,16.8-45.9,24-68,13.4S37.3,510.6,51,490.8c8.5-12.3,30.3-20.9,32.8-36.5,1.2-7.4-4.8-13.1-8.4-19-4.1-6.9-7.1-14.7-6.1-22.8,1-7.8,5.5-14.8,8.7-22s5.1-16,.9-22.8c-3.6-5.8-10.8-9-14.1-15-4.1-7.5-.8-16.7,3.2-24.3,4.2-8.2,9.2-16.1,11.7-25s2.1-19-3.7-26.2c-4.8-6-12.5-9.3-17.9-14.8-9.5-9.9-9.1-27.2,1-36.7,9.9-9.3,27-11.7,32-24.1,3.9-9.8-2.2-20.3-6.3-30-5.9-14.3-6.5-32.9,5.5-43,6.6-5.5,16.5-8.4,19.2-16.3,3.1-9.2-5.5-17.8-9.5-26.7-4.5-10-2.1-23.3,7.3-29.5C116.8,49.7,132.3,54.2,134.7,64.9Z"/></g><g id="Layer_2" data-name="Layer 2"><path d="M134.61,64.48c3.6,16.22-21,28.82-17.65,45.09,1.66,8.1,9.86,13.55,12.55,21.38,3.73,10.84-4,22.06-12.11,30.4s-17.54,17.16-18.06,28.56C98.42,210,125.5,224.13,123,244c-2.7,21.94-38.9,30.26-38.36,52.35.23,9.77,8,17.56,14.78,24.84s13.32,16.71,10.54,26.11c-4.14,14-26.48,19-26.94,33.47-.38,12.56,16.75,20.63,16.67,33.2,0,5.92-4,11.05-6.31,16.52-4.89,11.39-2.7,24.87,3.81,35.46s16.89,18.58,28.15,24.4c8.91,4.61,19.35,8.85,23.17,17.9,4.31,10.22-2.08,21.82-10.18,29.61-17.52,16.86-45.94,24-68.12,13.44s-33.2-40.64-19.4-60.46c8.55-12.3,30.32-20.91,32.87-36.56,1.21-7.38-4.83-13.14-8.38-19.08-4.15-6.95-7.1-14.7-6.06-22.85,1-7.85,5.5-14.8,8.71-22.08s5.07-16,.92-22.83c-3.56-5.85-10.78-9-14.08-15C60.67,345,64,335.73,68,328.11c4.25-8.19,9.2-16.16,11.67-25s2.07-19-3.69-26.28C71.16,270.77,63.4,267.55,58,262c-9.55-9.94-9.09-27.27,1-36.73,9.88-9.28,27.09-11.67,32-24.09,3.89-9.82-2.24-20.33-6.29-30.08-5.95-14.34-6.55-32.92,5.51-43.07,6.57-5.53,16.53-8.37,19.26-16.37,3.15-9.2-5.5-17.8-9.49-26.7-4.52-10.06-2.13-23.35,7.27-29.51S132.23,53.76,134.61,64.48Z"/><path d="M160.42,528.77c-1.82,10.63-6.25,18-9.43,23.18-4.4,7.18-11.32,18.44-25.72,25.66a61.08,61.08,0,0,1-33.45,5.79,78.51,78.51,0,0,1-19.72-5c-5.83-2.13-9.56-3.51-13.73-6.62-5.54-4.13-8.24-8.67-12.86-16.55C41.65,548.64,39,544,36.93,537a59.34,59.34,0,0,1-1.71-25.66c1.39-8.15,4.36-14.07,6.86-19a68.82,68.82,0,0,1,7.71-12.42c2.18-2.77,4.59-5.16,9.43-9.93,4.52-4.47,5.66-5.2,6.86-5.8,3.8-1.9,5.84-1.21,7.71-3.31,1.7-1.92,1.71-4.39,1.72-7.45a34.36,34.36,0,0,0-1.72-9.94,64.42,64.42,0,0,1-5.14-4.13,46.36,46.36,0,0,1-4.29-5c-3.06-3.81-4.59-5.71-5.14-6.62a23.67,23.67,0,0,1-3.43-9.11,20.43,20.43,0,0,1,.86-9.93,23.94,23.94,0,0,1,2.57-5,39.57,39.57,0,0,1,5.14-6.62c2.83-2.91,3.35-2.51,4.29-4.14,1.18-2,1.07-4.12.86-8.28-.18-3.58-.32-6.1-1.72-9.1a21.26,21.26,0,0,0-3.43-5c-3-3.63-4.93-4.87-8.57-8.28-4-3.71-5.94-5.56-7.71-8.28a25.36,25.36,0,0,1-4.29-11.58c-.35-3.62.34-6.28,1.72-11.59s2.32-9,5.14-13.25a38.89,38.89,0,0,1,7.71-8.28c4.57-3.89,5.8-3.54,8.58-6.62a19.37,19.37,0,0,0,5.14-9.94c.16-1,1.21-8.24-3.43-13.24-2.75-3-4.9-2.31-9.43-5-6.09-3.57-9.08-8.79-11.15-12.42a40.33,40.33,0,0,1-5.14-20.69c0-4.27,0-12.53,5.14-20.69,3.11-4.91,7-8.1,10.29-10.76a118.17,118.17,0,0,1,12-8.28c7-4.33,8.79-4.72,10.3-7.46,2.1-3.82,1.35-8,.86-10.76a26.66,26.66,0,0,0-4.29-9.94c-2.2-3.47-3.56-4.42-6-7.45-1.76-2.19-6-7.4-7.72-13.25-2.2-7.39.14-13.9,2.58-20.69,2.11-5.93,4.08-11.4,9.42-15.73,2.92-2.35,6.88-4.41,11.16-6.62,5.31-2.75,7.27-3.24,9.43-5.79A14.61,14.61,0,0,0,99.53,95c0-3.22-1.3-5.13-3.42-9.1-4.16-7.8-6.23-11.69-6.86-15.73-1.26-8,3.13-14.79,4.28-16.56A29.45,29.45,0,0,1,109,42c2.78-1,11.27-3.71,20.59,0a27.88,27.88,0,0,1,12.87,10.76c1.48,2.19,5.5,8.29,5.14,16.56-.56,12.91-11.37,21-12,21.52-4.36,3.19-6.78,2.92-9.43,6.62-2.77,3.89-4.07,9.76-1.71,14.08,1.76,3.24,4.44,3.51,7.71,5.79,10.72,7.45,10.37,24.3,10.3,26.49S141.74,158.2,133,167a64.17,64.17,0,0,1-15.44,10.77c-4.94,2.5-6.65,2.59-8.57,5-3.93,4.85-3.72,13,0,18.22,2,2.81,3.78,3,7.71,5.79a48.93,48.93,0,0,1,12.87,14.9c6.63,12.19,4.17,24.85,3.43,28.15-.57,2.47-4.45,19.62-18,26.48-4.33,2.2-9.26,3.15-13.72,8.28A15.41,15.41,0,0,0,97,293.67a14.33,14.33,0,0,0,2.57,9.1c1.45,2,2.64,2.49,6,5,1.46,1.09,6.57,4.86,9.43,8.28,3.3,4,4.11,8,5.14,13.25,1.46,7.39,3.15,15.89-.85,24-3.77,7.62-12,13.79-14.58,15.73-3.54,2.65-7.14,4.71-8.58,9.1a14.71,14.71,0,0,0,0,8.28,15.49,15.49,0,0,0,3.43,5.79c2.92,3.36,5.35,4,7.72,5.8,5.24,4,6.32,10.73,6.86,14.07.19,1.24,1.88,12.89-5.15,20.69-2.36,2.62-4.27,3.21-6,6.62a19.06,19.06,0,0,0-1.71,9.94c.14,2.7.25,4.79,1.71,6.62,2.07,2.6,5.57,3.1,6.86,3.31,1.85.3,8.1,3.24,20.58,9.1s19.67,16.42,21.44,19.05C163.67,504.94,161.37,523.24,160.42,528.77Z"/><path d="M91.46,451.12h0l-.41.25Z"/><path d="M91.46,451.12h0l-.41.25Z"/><path d="M90.72,367.54h0Z"/><path d="M134.61,64.48c-2.38-10.72-17.93-15.22-27.33-9.06-7,4.56-10.06,13-9.38,21.17l.6.38c-.2-.11-.4-.24-.6-.37A25.74,25.74,0,0,0,100,84.93c4,8.9,12.64,17.5,9.49,26.7,0,0,0,.05,0,.08h0c-2.78,7.92-12.68,10.77-19.23,16.28-5.4,4.54-8.25,10.78-9.24,17.56.68-.51,1.38-1,2.1-1.43-.72.45-1.41.93-2.09,1.44-1.21,8.37.44,17.58,3.72,25.5,2.35,5.65,5.39,11.56,6.79,17.44h0A20.67,20.67,0,0,1,91,201.15C86.1,213.57,68.88,216,59,225.24a25.05,25.05,0,0,0-7.24,13.12C50,246.63,52.06,255.74,58,262a56.65,56.65,0,0,0,8.5,6.77c3.44,2.42,6.87,4.85,9.43,8.08,5.76,7.28,6.16,17.44,3.69,26.28s-7.41,16.82-11.67,25a49.2,49.2,0,0,0-4.37,11.11c9-10.83,23.79-17.36,38.13-15.42-.75-.88-1.52-1.75-2.29-2.58-6.76-7.28-14.55-15.08-14.78-24.84-.47-19.24,26.95-28,35.8-44.5h0a22,22,0,0,0,2.55-7.82,24.34,24.34,0,0,0-2.73-13.88l-.45-.13c-.55-.15-1.09-.28-1.65-.41.56.12,1.1.26,1.65.4l.45.13c-6.5-13.39-21.67-25.16-21-40.24a21.32,21.32,0,0,1,.45-3.51h0c2-9.75,10.38-17.6,17.61-25.06,6.71-6.92,13.18-15.82,13.06-24.84-.83-.27-1.65-.51-2.49-.72.84.21,1.66.44,2.49.71a17.71,17.71,0,0,0-1-5.56c-2.16-6.29-7.86-11-10.9-16.86l-.71-.1.7.09a17.06,17.06,0,0,1-1.65-4.51c-2.68-13.1,12.72-23.81,16.94-36h0A16.39,16.39,0,0,0,134.61,64.48Zm-81,172.1a25,25,0,0,1,2-1.61C54.85,235.48,54.2,236,53.57,236.58Z"/><path d="M148.56,508.3c-.23-.53-.47-1-.74-1.53-.36.12-.72.24-1.08.34l1.08-.35c-4.3-8-14-12-22.43-16.38-11.26-5.81-21.64-13.79-28.15-24.4a44.28,44.28,0,0,1-5.57-13.93l.15-.1a33.84,33.84,0,0,1,2.06-20.59c2.33-5.13,6.12-10,6.62-15.44h0c0-.36,0-.72.05-1.08s0-.48,0-.72a5.93,5.93,0,0,1,0,.73c0,.36,0,.72,0,1.07a66.34,66.34,0,0,1,11.19,5.78C108.51,407,83.3,396.86,83.91,381.55c.23-5.68,3.79-10.24,8.85-14.34-.68.14-1.36.24-2,.33h0c7-6.24,16.7-11.46,19.29-20.19,2.47-8.32-2.41-16.68-8.25-23.54-14.34-1.94-29.14,4.59-38.13,15.42-1.07,4.57-1.05,9.17,1.21,13.27,3.3,6,10.53,9.13,14.08,15,.1.17.19.34.28.52,0,0,0,0,0,.05h0c3.7,8.17.78,17.72-3.88,25.87C70.83,401.84,64.82,409.46,62,417.7a43,43,0,0,1,6.33-3.05c-.58,7.63,2.42,14.89,6.54,21.44,3.51,5.56,9.3,11,9,17.74,0-.13,0-.27,0-.39h0c0,.13,0,.27,0,.4a1.34,1.34,0,0,1,0,.2v-.19c0,.15,0,.31,0,.47C81.18,470,59.41,478.58,50.86,490.88a33.67,33.67,0,0,0-5.67,14.43l.5-.3-.5.31c-2.66,17.81,7.82,37.8,25.06,46,22.18,10.59,50.61,3.42,68.13-13.45C146.48,530.11,152.87,518.51,148.56,508.3ZM69,410.33c.08-.32.16-.63.25-.95h0C69.17,409.69,69.08,410,69,410.33Zm22.46,40.79h0l-.41.25ZM47.81,503.83c-.54.28-1.07.57-1.6.87l-.51.3.51-.31c.53-.3,1.06-.59,1.6-.86,1.09-.56,2.19-1.06,3.31-1.52C50,502.77,48.9,503.28,47.81,503.83Zm84.85,5.06-.59-.05.59,0a38.63,38.63,0,0,0,3.88,0A35.87,35.87,0,0,1,132.66,508.89Zm3.92,0a38.09,38.09,0,0,0,4.41-.46A34.34,34.34,0,0,1,136.58,508.92Z"/><path d="M118.61,114.07h0l-.71-.1.7.09Z"/><path d="M118.61,114.07h0l-.71-.1.7.09Z"/><path d="M72.48,270.76a39.49,39.49,0,0,0,9,1.23A39.41,39.41,0,0,1,72.48,270.76Z"/><path d="M72.48,270.76a39.49,39.49,0,0,0,9,1.23A39.41,39.41,0,0,1,72.48,270.76Z"/><path d="M69.26,409.38c-.09.31-.18.63-.26.95.08-.32.16-.63.25-.95Z"/><path d="M90.72,367.54h0Z"/><path d="M69.26,409.38c-.09.31-.18.63-.26.95.08-.32.16-.63.25-.95Z"/></g></svg>