<?xml version="1.0" encoding="utf-8"?>
<!-- Generator: Adobe Illustrator 25.4.1, SVG Export Plug-In . SVG Version: 6.00 Build 0)  -->
<svg version="1.1" id="Layer_1" xmlns="http://www.w3.org/2000/svg" xmlns:xlink="http://www.w3.org/1999/xlink" x="0px" y="0px"
	 viewBox="0 0 1801 1441" style="enable-background:new 0 0 1801 1441;" xml:space="preserve">
<style type="text/css">
	.st0{fill:#473F48;}
	.st1{fill:#C23772;}
	.st2{fill:#48414A;}
	.st3{fill:#BF22E3;}
	.st4{fill:#9B2256;}
	.st5{fill:#E300E7;}
	.st6{fill:#575757;}
</style>
<g>
	<path class="st0" d="M396.69,377.01c-0.45,0.83-1.77,3.01-2.04,6.11c-0.17,2,0.29,2.19,0,4.07c-0.42,2.78-1.56,3.35-2.04,6.11
		c-0.29,1.7,0.11,1.68,0,4.07c-0.2,4.38-1.7,8.21-2.04,8.14c-0.23-0.05-0.03-2.04,0-2.04c0.03,0-0.03,1.85,0,8.14
		c0.02,3.86,0.04,3.76,0,4.07c-0.61,4.38-3.01,6.16-2.04,8.14c0.58,1.18,1.57,0.82,2.04,2.04c0.91,2.39-2.04,6.11-2.04,6.11
		c0.23-2.7-0.93,5.59,0,8.14c0.75,2.04,1.64,2.01,2.04,4.07c0.2,1.05,0.07,1.55,0,4.07c-0.08,3.15,0.11,3.1,0,4.07
		c-0.52,4.55-4.83,6.4-4.07,8.14c0.6,1.37,3.4,0.56,4.07,2.04c0.82,1.81-2.86,4.27-2.04,6.11c0.62,1.37,2.88,0.48,4.07,2.04
		c1.51,1.97-1.33,4.45,0,8.14c0.69,1.93,1.75,2.04,2.04,4.07c0.29,2.06-0.66,2.92,0,4.07c0.81,1.42,2.53,0.59,4.07,2.04
		c1.4,1.3,0.56,2.5,2.04,6.11c1.07,2.62,1.65,2.34,2.04,4.07c0.7,3.17-1.03,5.11,0,6.11c0.72,0.7,1.79-0.04,4.07,0
		c0.66,0.01,4.29,0.15,6.11,2.04c2.87,2.98-0.34,8.75,2.04,10.18c0.5,0.3,0.71,0.08,4.07,0c2.29-0.06,3.87,0,4.07,0
		c65.55,0,132.33-59.04,132.33-59.04c27.36-24.69,55.51-50.08,65.15-93.65c9.74-44.06,0.91-108.29-36.65-128.26
		c-67-35.62-174.19,96.84-179.16,114.01C404.27,352.5,399.65,371.56,396.69,377.01z"/>
	<path class="st1" d="M380.4,238.57c0.45,1.87,1.89,7.27,2.04,14.25c0.07,3.14,0,6.11,0,6.11c-0.14,6.26-0.58,7.29,0,10.18
		c0.52,2.57,1.49,4.83,2.04,6.11c1.09,2.54,1.28,3.33,2.04,4.07c1.03,1.02,2.02,1.29,2.04,2.04c0.01,0.85-1.25,1.23-2.04,2.04
		c-1.98,2.04-0.53,6.5,0,8.14c2.17,6.74,3.73,13.69,6.11,20.36c3.37,9.46,3.75,10.88,4.07,12.22c1.49,6.2,1.84,11.29,2.04,14.25
		c0.32,4.95,0.2,8.8,0,14.25c-0.36,10.04-1.11,13.88,0,14.25c1.2,0.4,3.12-3.76,6.11-8.14c2.06-3.03,11.21-16.45,24.43-20.36
		c7.85-2.32,9.27,1.04,20.36-2.04c6.59-1.83,7.29-3.35,12.22-4.07c6.25-0.92,11.03,0.66,20.36,4.07
		c14.71,5.39,22.07,8.08,26.47,10.18c18.46,8.81,20.17,13.07,26.47,12.22c9.13-1.24,14.63-11.44,20.36-22.39
		c6.81-13.02,10.62-26.55,14.25-52.93c3.08-22.36,4.62-33.55,4.07-40.72c-2.63-34.6-27.28-67.94-59.04-85.51
		c-35.65-19.72-70.1-13.92-79.4-12.22c-14.83,2.73-50.28,9.24-59.04,32.57C369.83,194.82,376.96,224.31,380.4,238.57z"/>
	<path class="st2" d="M417.05,244.68c0.71,0.06,1.18,0.75,2.04,2.04c1.57,2.36,1.94,4.77,2.04,6.11c0.14,2.04,0.42,5.71-2.04,8.14
		c-1.38,1.37-3.07,1.79-4.07,2.04c-1.9,0.47-2.92,0.16-6.11,0c0,0,0,0-6.11,0c-6.48,0-6.63-0.48-8.14,0
		c-1.88,0.59-5.9,2.49-8.14,6.11c-0.5,0.8-1.12,2.03-2.04,2.04c-0.91,0.01-1.69-1.18-2.04-2.04c-0.54-1.34-0.18-2.28,0-4.07
		c0.39-3.92-0.83-4.72,0-6.11c0.84-1.42,2.66-1.52,6.11-2.04c5.89-0.89,2.73-0.92,10.18-2.04c9.9-1.48,10.37-0.66,12.22-2.04
		C414.85,249.9,415.01,244.52,417.05,244.68z"/>
	<path class="st2" d="M435.37,246.71c0.49,1.92,1.42,3.3,2.04,4.07c2.25,2.84,5.23,3.79,6.11,4.07c2.67,0.85,5.02,0.59,8.14,0
		c7-1.31,12.3-3.32,14.25-4.07c8.3-3.19,7.8-3.65,14.25-6.11c10.67-4.06,14.93-4.09,16.29-4.07c3.85,0.06,6.66,0.93,10.18,2.04
		c4.81,1.51,6.91,3.01,8.14,4.07c1.26,1.08,2.02,2.05,2.04,2.04c0.04-0.04-3.24-4.17-8.14-8.14c-2.1-1.71-3.67-2.95-6.11-4.07
		c-1.07-0.49-3.88-1.67-8.14-2.04c-3.34-0.29-7.14-0.03-14.25,2.04c-6.08,1.77-9,3.24-22.39,8.14c-0.6,0.22-3.79,1.37-8.14,2.04
		c-3.77,0.58-5.83,0.87-8.14,0c-3.69-1.38-5.13-4.61-6.11-4.07C434.46,243.14,435.24,246.21,435.37,246.71z"/>
	<path class="st1" d="M679.68,348.51c-1.88-3.79-3.29-5.92-6.11-10.18c-5.94-8.97-8.3-10.17-10.18-10.18
		c-2.21-0.01-3.73,1.61-6.11,4.07c-4.67,4.83-9.58,9.42-14.25,14.25c-6.73,6.95-8.58,5.53-16.29,12.22
		c-5.61,4.87-5.37,6.27-16.29,20.36c-13.25,17.1-15.39,17.33-20.36,26.47c-1.14,2.1-3.48,7.51-8.14,18.32
		c-5.63,13.04-8.43,19.57-8.14,20.36c6.6,17.89,193.15-35.13,191.37-42.75c-0.4-1.74-10.22,0.53-22.39-6.11
		c-6.19-3.37-7.07-9.09-14.25-12.22c-4.92-2.14-7.15-1.14-12.22-2.04C698.58,377.96,684.63,358.51,679.68,348.51z"/>
	<path class="st3" d="M1487.93,1166.93c10.87-0.31,21.5,0.47,42.75,2.04c25.94,1.91,38.9,2.87,52.93,6.11
		c23.86,5.51,22.88,9.82,46.83,14.25c0.48,0.09,0.17,0.03,38.68,4.07c11.58,1.22,16.98,1.79,24.43,0
		c3.9-0.94,14.45-3.46,22.39-12.22c7.55-8.32,8.47-17.53,10.18-34.61c1.82-18.23,2.94-29.46-4.07-36.65
		c-3.87-3.96-8.84-5.28-12.22-12.22c-2.44-5.02-1.3-7.34-4.07-10.18c-3.55-3.64-7.94-2.4-16.29-4.07c0,0-8.1-1.62-16.29-6.11
		c-10.45-5.72-9.8-10.26-20.36-16.29c-6.46-3.69-12.14-5.09-16.29-6.11c-8.97-2.21-15.28-2.01-24.43-2.04
		c-12.89-0.04-27.48-0.08-42.75-2.04c-12.65-1.62-18.97-2.43-26.47-6.11c-5.97-2.93-6.64-4.59-22.39-16.29
		c-9.54-7.08-14.31-10.62-20.36-14.25c-8.74-5.24-15.84-9.5-26.47-12.22c-3.94-1.01-13.82-3.19-26.47-2.04
		c-9.24,0.84-13.86,1.27-18.32,4.07c-10.52,6.61-9.18,17.4-20.36,22.39c-2.21,0.99-4.87,1.34-10.18,2.04
		c-12.53,1.65-22.6,0.52-26.47,0c-15.27-2.07-26.82-7.37-32.57-10.18c-40.55-19.83-52.41-43.23-63.11-40.72
		c-29.16,6.85-37.36,202.98,28.5,228.02c21.65,8.23,51.76-1.98,111.97-22.39C1437.22,1176.25,1457.63,1167.81,1487.93,1166.93z"/>
	<path class="st4" d="M516.81,906.34c-5.96,9.44-7.86,18.01-10.18,28.5c-2.26,10.23-0.97,11.37-2.04,38.68
		c-0.89,22.68-2.02,27.98-2.04,42.75c-0.02,14.67-0.03,22.01,0,22.39c0.16,2.05,0.1,4.08,0,8.14c-0.2,7.65-0.8,9.32-2.04,10.18
		c-1.11,0.77-2.79,0.52-6.11,0c-6.75-1.07-7.39-2.84-10.18-2.04c-1.92,0.55-3.08,1.82-6.11,2.04c-0.45,0.03-0.25-0.01-2.04,0
		c-4.83,0.02-4.95,0.31-6.11,0c-2.05-0.54-1.9-1.49-4.07-2.04c-1.13-0.28-2.16-0.28-4.07,0c-2.4,0.35-4.73,0.68-8.14,2.04
		c-5.36,2.12-4.51,3.23-8.14,4.07c-2.17,0.5-4.03,0.47-6.11,2.04c-1.2,0.9-0.95,1.19-2.04,2.04c-2.3,1.78-4.53,1.34-8.14,2.04
		c-3.08,0.59-3.96,1.39-6.11,2.04c-6.87,2.06-11.11-2.1-16.29-2.04c-10.67,0.13-24.05,18.22-20.36,32.57
		c0.28,1.09,2.14,7.93,8.14,12.22c1.76,1.26,4.57,2.2,10.18,4.07c5.15,1.72,9.56,2.86,14.25,4.07c6.83,1.76,6.24,1.4,8.14,2.04
		c6.39,2.14,9.16,4.91,14.25,8.14c4.98,3.16,9.43,4.82,18.32,8.14c5.56,2.07,11.77,4.39,20.36,6.11
		c13.44,2.68,24.06,2.17,26.47,2.04c8.19-0.46,8.64-1.54,18.32-2.04c11.9-0.6,12.33,0.97,18.32,0
		c13.34-2.16,22.14-11.76,24.43-14.25c5.41-5.9,4.1-7.5,12.22-22.39c7.72-14.16,15.3-24.43,18.32-28.5
		c7.66-10.3,8.87-10.12,16.29-20.36c3.04-4.2,8.97-12.44,14.25-22.39c0,0,9.85-18.57,14.25-40.72
		c8.33-41.9-7.76-134.25-65.15-154.73c-7.19-2.56-22.53-8.98-26.47-4.07c-1.88,2.35,0.17,5.57-2.04,12.22
		c-0.65,1.97-1.17,2.7-6.11,10.18c-7.46,11.3-8.73,13.35-10.18,16.29c-2.22,4.5-2.11,5.51-4.07,10.18
		C524.87,895.87,520.65,900.26,516.81,906.34z"/>
	<path class="st5" d="M661.36,1134.36c-12.96,8.71-21.31,15.67-24.43,18.32c-4.6,3.91-15.83,13.74-28.5,28.5
		c-9.75,11.35-23.16,27.18-34.61,50.9c-7.47,15.47-16.7,34.35-18.32,61.08c-1.66,27.25,5.44,47.85,8.14,54.97
		c5.18,13.63,13.41,35.3,34.61,48.86c9.57,6.12,18.49,8.48,32.57,12.22c15.92,4.22,28.67,5.22,40.72,6.11
		c17.99,1.33,26.99,1.99,36.65,0c14.3-2.94,15.6-7.32,38.68-16.29c3.88-1.51,17.75-6.78,32.57-10.18c22.28-5.1,39.06-4.19,50.9-4.07
		c22.89,0.23,43.08-3.24,83.47-10.18c57.27-9.84,100.51-25.11,109.94-28.5c30.65-11.02,41.52-17.76,85.51-32.57
		c25.04-8.43,37.56-12.65,46.83-14.25c33.18-5.74,45.35,1.25,101.79,0c15.08-0.33,9.57-0.73,40.72-2.04
		c19.21-0.81,49.1-2.03,85.51-2.04c55.56-0.01,83.34-0.02,83.47,0c7.9,1.26,20.21,3.83,32.57-2.04c8.58-4.07,9.68-8.66,18.32-10.18
		c9.3-1.64,15.14,2.41,22.39-2.04c2.45-1.5,1.81-1.98,6.11-6.11c9.85-9.47,14.66-8.38,18.32-14.25c3.73-5.96,3.51-14.69,0-20.36
		c-3.04-4.91-7.22-5.34-16.29-10.18c-5.97-3.18-10.77-6.87-20.36-14.25c-14.4-11.08-14.26-14.32-26.47-24.43
		c-4.83-4-16.75-13.74-32.57-20.36c-10.92-4.57-18.2-5.35-38.68-8.14c-36.54-4.98-54.8-7.47-65.15-10.18
		c-24.43-6.39-41.38-16.64-50.9-22.39c-47.63-28.79-51.59-62.27-75.33-81.44c-73.43-59.28-220.96,111.4-360.35,59.04
		c-50.83-19.09-96.54-66.32-128.26-46.83c-16.02,9.85-14.21,27.95-42.75,46.83C694.01,1117.27,685.85,1117.91,661.36,1134.36z"/>
	<path class="st4" d="M1274.16,1099.75c3.28,2.78,5.1,3.59,10.18,8.14c4.77,4.28,5.98,6.07,8.14,6.11c4.64,0.08,8.36-8,10.18-12.22
		c8-18.56,10.5-35.05,12.22-44.79c4.46-25.35,6.34-20.86,8.14-36.65c1.12-9.77,3-27.51-2.04-48.86
		c-4.46-18.92-12.18-31.49-20.36-44.79c-6.06-9.86-16.93-27.24-36.65-44.79c-22.69-20.19-44.62-29.49-57-34.61
		c-14.75-6.1-29.82-12.46-50.9-14.25c-20.95-1.78-42.82-3.64-48.86,6.11c-11.78,19.01,56.14,50.72,95.69,138.44
		c0,0,16.78,37.21,54.97,101.79C1260.62,1084.04,1266.16,1092.99,1274.16,1099.75z"/>
	<path class="st1" d="M846.62,1132.32c8.14,2.59,11.7-4.37,26.47-6.11c10.08-1.19,14.85,1.31,28.5,4.07
		c19.19,3.89,20.79,1.2,44.79,4.07c8.13,0.97,10.41,1.58,50.9,10.18c29.56,6.28,44.42,9.43,48.86,10.18
		c30.63,5.14,45.94,7.72,61.08,6.11c12.63-1.34,39.15-6.03,48.86-4.07c0.81,0.16,4.11,0.9,8.14,0c4.2-0.94,7.03-3.17,8.14-4.07
		c9.04-7.29,16.29-24.43,16.29-24.43c8.91-17.81,25.62-25.92,34.61-30.54c12.07-6.19,21.44-7.31,26.47-6.11
		c5,1.2,8.14,2.04,8.14,2.04c6.87,1.83,7.21,2.21,8.14,2.04c5.93-1.09,7.46-19.35,8.14-30.54c1.5-24.69,2.25-37.04,0-48.86
		c-2.82-14.82-7.48-24.49-16.29-42.75c-8.43-17.49-14.19-29.46-24.43-42.75c-18.85-24.46-40.4-37.21-57-46.83
		c-3.86-2.24-28.35-16.22-59.04-24.43c-18.84-5.04-87.35-23.29-160.84,10.18c-41.1,18.72-91.47,58.2-99.76,93.65
		c-1.26,5.37-5.01,25.53-18.32,48.86c-3.54,6.21-7.06,12.38-12.22,18.32c-27.86,32.12-77.99,27.44-77.36,36.65
		c0.43,6.26,18.56,11.18,22.39,12.22c6.3,1.71,12.22,2.04,12.22,2.04c6.14,0.34,7.03-0.63,10.18,0c6.18,1.24,8.69,6.18,14.25,12.22
		c7.77,8.42,9.65,6.12,18.32,14.25C840.37,1121.11,837.93,1129.56,846.62,1132.32z"/>
	<path class="st1" d="M1186.62,753.65"/>
	<path class="st5" d="M605.37,416.71c6.34-4.38,13.5-4.13,16.29-4.07c13.45,0.3,25.42-1.48,42.75-4.07
		c22.77-3.4,26.62-9.38,44.79-12.22c6.71-1.05,13.05-1.31,18.32-6.11c1.69-1.54,3.27-3.55,6.11-4.07c4.64-0.85,8.84,2.97,10.18,4.07
		c12,9.91,36.07,1.95,67.18,8.14c3.89,0.78,10.59,2.31,18.32,6.11c2.88,1.41,5.31,2.99,10.18,6.11c9.83,6.29,11.69,8.35,18.32,12.22
		c5.68,3.32,9.8,5,12.22,6.11c18.98,8.69,35.87,28.55,42.75,36.65c10.56,12.42,18.41,21.65,24.43,36.65
		c6.54,16.3,9.5,35.88,8.14,40.72c-0.11,0.4-0.67,2.18,0,4.07c0.91,2.57,3.51,3.77,4.07,4.07c5.92,3.19,6.02,25.2,6.11,28.5
		c0.83,31.44,43.67,65.51,50.9,71.26c1.29,1.03,5.6,4.32,8.14,10.18c1.8,4.15,1.78,7.42,2.04,10.18
		c1.06,11.46,6.9,13.71,10.18,24.43c3.7,12.1-2.84,12.19,0,28.5c1.88,10.82,5.38,14.37,8.14,26.47c0.78,3.4,1.52,7.58,4.07,12.22
		c0.41,0.75,1.18,2.08,2.04,4.07c0.5,1.17,3.12,7.32,2.04,8.14c-1.31,0.99-5.96-7.15-14.25-12.22c-18.55-11.33-45.89-1.52-50.9,2.04
		c-0.38,0.27-1.85,1.37-4.07,2.04c-3.83,1.15-7.22,0.23-8.14,0c-11.91-3.03-24.53-2-36.65-4.07c-14.1-2.41-25.27-0.2-46.83,4.07
		c-29.71,5.88-59.12,21.31-99.76,48.86c-50.09,33.95-59.21,46.98-107.9,81.44c-37.58,26.59-60.98,39.23-65.15,44.79
		c-0.49,0.65-2.91,4.14-6.11,4.07c-2.04-0.04-3.53-1.51-4.07-2.04c-6.42-6.3-3.58-38.26-10.18-61.08
		c-1.31-4.52-13.17-17.72-12.22-24.43c0.37-2.63,0.25-3.79,0-6.11c-0.46-4.31-1.62-5.66-2.04-6.11c-0.27-0.29-1.45-1.47-4.07-2.04
		c-5.1-1.1-7.56,1.88-12.22,2.04c-3.29,0.11-5.63-1.28-10.18-4.07c0,0-8.79-5.39-14.25-12.22
		c-19.14-23.91,46.93-367.64,63.11-403.11C598.09,424.99,600.36,420.17,605.37,416.71z"/>
	<path class="st6" d="M600.93,342.4c-0.36-8.25-1.38-14.54-2.01-18.32c-1.39-8.35-3.48-16.97-8.06-30.54
		c-3.71-10.99-8.79-25.85-18.13-44.79c-8.2-16.61-15.09-30.58-28.21-46.83c-5.15-6.38-19-22.68-40.3-36.65
		c-11.23-7.37-19-10.45-26.19-12.22c-2.37-0.58-10.87-2.54-22.16-2.04c-3.99,0.18-9.83,0.74-22.16,4.07
		c-21.41,5.78-32.11,8.68-40.3,16.29c-2.69,2.5-11.09,10.31-14.1,22.39c-0.3,1.21-0.87,6.91-2.01,18.32
		c-0.28,2.75-0.58,5.98,0,10.18c0.67,4.86,2.12,8.11,2.01,8.14c-0.18,0.07-5.75-9.72-8.06-22.39c-2.72-14.92,0.56-26.47,4.03-38.68
		c4.77-16.78,13.09-32.59,20.15-40.72c3.46-3.98,6.57-8.28,10.07-12.22c3.52-3.95,5.09-5.4,6.04-8.14c1.64-4.71-0.7-7.3-2.01-14.25
		c-1.74-9.19,1.46-8.87,2.01-28.5c0.16-5.66-0.03-8.29,2.01-10.18c3.42-3.16,9.88-1.25,14.1,0c6.81,2.01,11.65,5.5,18.13,10.18
		c4.59,3.31,8.06,6.11,8.06,6.11c5.01,4.04,5.78,5.14,8.06,6.11c3.7,1.57,7.06,0.97,12.09,0c9.53-1.84,14.29-2.75,20.15-4.07
		c6.98-1.57,12.04-2.4,22.16-4.07c3.46-0.57,8.35-1.06,18.13-2.04c2.95-0.29,5.14-0.49,8.06,0c4.51,0.76,5.76,2.33,8.06,2.04
		c4.68-0.61,7.23-8.13,8.06-10.18c4.13-10.28,12.32-6.82,38.28-22.39c8.02-4.81,16.76-8.53,24.18-14.25
		c3.3-2.54,6.12-5.03,8.06-4.07c2.94,1.45,1.06,9.49,0,20.36c-0.22,2.26-0.15,13.72,0,36.65c0.11,17.84,0.37,24.14-2.01,30.54
		c-1.57,4.21-2.39,6.88-4.03,12.22c-1.86,6.03-2,7.14-2.01,8.14c-0.1,6.99,6.04,12.27,8.06,14.25c5.22,5.1,7.49,12.1,12.09,57
		c1.04,10.2,0.61,6.78,4.03,42.75c2.85,30.04,3.66,37.74,8.06,48.86c3.49,8.8,5.99,11.57,8.06,20.36c1.2,5.11,3.6,18.25,0,32.57
		c-3.12,12.43-17.57,26.1-46.34,52.93c-7.56,7.05-12.96,11.84-16.12,10.18c-2.34-1.23-2.35-5.44,0-30.54
		C600.63,356.69,601.33,351.52,600.93,342.4z"/>
	<path class="st1" d="M582.97,430.96c-3.35,0.17-8.36,0.63-14.25,2.04c-9.74,2.33-13.98,5.34-22.39,8.14
		c-9.91,3.3-14.25,2.54-22.39,4.07c-13.03,2.46-21.61,8.14-36.65,18.32c-9.44,6.39-31.94,21.7-48.86,42.75
		c-17.15,21.34-25.92,64.05-42.75,148.62c-7.13,35.8-7.09,39.14-12.22,61.08c-8.22,35.23-12.46,44.42-14.25,65.15
		c-1.02,11.85-2.04,20.79-4.07,38.68c-0.24,2.14-0.85,7.38-2.04,14.25c-1.73,10-2.99,17.09-6.11,24.43
		c-3.38,7.97-7.62,13.12-10.18,16.29c-12.81,15.83-24.38,32.61-36.65,48.86c-26.98,35.72-35.79,74.73-38.68,87.54
		c-3.09,13.66-1.79,13.87-8.14,48.86c-4.7,25.92-7.63,39.9-10.18,50.9c0,0-7.91,34.15-18.32,54.97c-0.17,0.35-0.94,1.81-2.04,4.07
		c-1.78,3.65-1.69,3.74-2.04,4.07c-2.26,2.17-6.8-0.83-14.25-2.04c-2.74-0.45-7.32-1.19-12.22,0c-7.56,1.84-7.37,6.22-14.25,8.14
		c-5.05,1.41-9.47,0.26-18.32-2.04c-9.67-2.51-8.05-3.86-12.22-4.07c-7.71-0.4-11.91,4.29-28.5,12.22
		c-0.68,0.33-2.14,1.02-4.07,2.04c-5.47,2.88-8.58,5.13-10.18,6.11c-9.54,5.82-19.79-0.4-22.39,4.07
		c-2.19,3.76,4.64,8.86,2.04,14.25c-1.32,2.72-4.43,4.27-8.14,6.11c-4.88,2.42-7.36,2.14-8.14,4.07c-0.98,2.43,1.62,6.1,4.07,8.14
		c5.73,4.78,13.98,3.48,22.39,2.04c23.72-4.07,26.11-5.33,32.57-6.11c19.97-2.42,24.55,6.27,61.08,10.18
		c11.73,1.26,17.15,0.99,22.39,0c8.26-1.56,10.89-3.93,18.32-4.07c8.29-0.16,10.3,2.69,18.32,4.07c13.02,2.24,24.03-2.46,32.57-6.11
		c11.73-5.01,19.2-11.59,24.43-16.29c8.74-7.85,13.78-14.98,20.36-24.43c9.88-14.18,16.17-26.4,20.36-34.61
		c10.14-19.86,10.04-24.11,18.32-34.61c4.79-6.07,6.62-6.92,14.25-16.29c8.11-9.95,13.28-17.86,16.29-22.39
		c21.33-32.16,23.25-29.05,34.61-48.86c19.6-34.17,18.61-51.62,18.32-54.97c-0.11-1.35-0.36-3.32,0-6.11
		c1.44-11.09,9.9-14.78,18.32-26.47c5.37-7.44,7.88-14.18,10.18-20.36c3.7-9.92,3.48-13.97,8.14-26.47
		c1.18-3.16,3.32-8.91,6.11-14.25c7.35-14.12,17.55-22.34,22.39-26.47c19.06-16.23,32.11-33.58,40.72-44.79
		c0,0,17.47-22.75,28.5-44.79c4.06-8.12,4.07-8.14,4.07-8.14c0.57-1.8,0.81-3.19,2.04-4.07c2.12-1.52,5.4-0.24,6.11,0
		c7.1,2.46,25.65-5.05,38.68-12.22c15.13-8.32,24.47-17.08,36.65-28.5c14.73-13.82,22.1-20.74,26.47-30.54
		c4.37-9.81,1.32-9.97,8.14-34.61c2.37-8.55,4.16-13.67,8.14-28.5c3.21-11.95,4.39-17.36,4.07-24.43
		c-0.36-7.94-2.43-13.92-4.07-18.32c-13.75-36.81-30.54-61.08-30.54-61.08c-13.02-18.82-24.8-30.75-36.65-42.75
		c-28.95-29.33-44.58-36.19-50.9-38.68C596.26,433.48,588.29,431.81,582.97,430.96z"/>
	<path class="st5" d="M846.62,1026.46c2.56-1.27,1.45-6.79,2.04-16.29c0,0,0.43-6.44,4.07-22.39c4.62-20.25,19.59-38.38,36.65-59.04
		c8.77-10.63,14.66-17.76,24.43-26.47c3.79-3.38,17.48-15.27,38.68-26.47c12.22-6.45,24.1-12.73,40.72-16.29
		c13.47-2.88,28.66-1.92,59.04,0c13.2,0.84,25.79,1.66,42.75,4.07c18.85,2.68,36.01,6.31,42.75,8.14c2.7,0.73,5.43,1.34,8.14,2.04
		c7.19,1.85,9.85,2.69,10.18,2.04c0.37-0.73-2.7-2.23-6.11-6.11c-3-3.41-4.46-6.6-6.11-10.18c-0.42-0.92-1.64-4.7-4.07-12.22
		c-1.65-5.12-2.47-7.73-2.04-10.18c0.17-0.93,0.71-3.34,2.04-6.11c1.39-2.89,2.34-3.49,2.04-4.07c-0.77-1.48-7.48,1.17-20.36,4.07
		c-0.34,0.08-5.43,1.21-12.22,2.04c-2.69,0.33-6.04,0.65-10.18,0c-3.53-0.56-5.18-1.44-6.11-2.04c-2.22-1.42-3.49-3.23-4.07-4.07
		c-1.43-2.07-1-3.65-2.04-4.07c-1.49-0.61-3.71,1.68-4.07,2.04c-6.89,6.8-34.61,8.14-34.61,8.14c-21.73,1.02-43.42,2.97-65.15,4.07
		c-60.43,3.05-105.05,70.01-126.22,101.79c-10.59,15.9-37.97,56.99-24.43,77.36C835.5,1020.98,843.18,1028.16,846.62,1026.46z"/>
	<path class="st1" d="M616.57,993.88c4.27,9.62,7.97,17.95,14.25,28.5c1.49,2.5,8.16,13.6,20.36,28.5
		c23.64,28.89,45.15,44.14,52.93,44.79c0.75,0.06,4.19,0.22,8.14,2.04c3.47,1.59,5.3,3.52,6.11,4.07
		c5.98,4.13,23.71-15.44,40.72-28.5c0,0,16.2-12.45,67.18-36.65c1.37-0.65,2.71-1.36,4.07-2.04c7.83-3.91,9.24-4.54,10.18-6.11
		c1.82-3.02,0.39-6.94,0-8.14c-3.94-12.19,4.59-38.07,8.14-48.86c8.1-24.58,21.13-41.16,30.54-52.93
		c23.1-28.88,47.45-43.6,52.93-46.83c15-8.83,25.88-12.62,42.75-18.32c12.73-4.3,24.61-7.27,32.57-4.07c1,0.4,3.96,1.71,8.14,2.04
		c5.45,0.42,9.69-1.1,12.22-2.04c13.53-5.01,20.3-7.52,28.5-12.22c7.79-4.46,10.13-6.78,16.29-8.14c2.96-0.66,5.95-0.9,6.11-2.04
		c0.21-1.49-4.76-2.53-10.18-6.11c-4.45-2.93-6.93-6.07-10.18-10.18c-5.87-7.43-8.62-14.32-10.18-18.32
		c-2.68-6.87-2.91-10.34-4.07-14.25c0,0-3.91-13.21-22.39-26.47c-52.04-37.33-213.77,26.47-213.77,26.47
		c-124.77,59.24-203.67,124.46-205.62,150.66c-1.3,17.43,2.04,32.57,2.04,32.57C606.57,971.36,609.9,978.87,616.57,993.88z"/>
</g>
</svg>
