<?xml version="1.0" encoding="utf-8"?>
<!-- Generator: Adobe Illustrator 25.4.1, SVG Export Plug-In . SVG Version: 6.00 Build 0)  -->
<svg version="1.1" id="Layer_1" xmlns="http://www.w3.org/2000/svg" xmlns:xlink="http://www.w3.org/1999/xlink" x="0px" y="0px"
	 viewBox="0 0 1801 1441" style="enable-background:new 0 0 1801 1441;" xml:space="preserve">
<style type="text/css">
	.st0{fill:#D133E0;}
	.st1{fill:#575757;}
	.st2{fill:none;}
	.st3{fill:#902E55;}
	.st4{opacity:0.45;fill:#902E55;}
	.st5{fill:#B44371;}
	.st6{opacity:0.26;fill:#B44371;}
</style>
<g>
	<path class="st0" d="M1225.19,849.48c7.43,8.74,3.12,27.94-0.39,43.58c-2.6,11.58-5.99,17.01-9.78,26.85
		c-8.86,22.99-6.07,49.75-16.35,72.08c-8.56,18.59-25.29,31.97-33.3,50.83c1.16-19.78,17.8-34.46,24.71-52.95
		c4.85-12.96,4.75-27.43,9.14-40.57c4.86-14.54,15.27-28.41,12.67-43.48c-2.8,0.07-5.59,1.2-7.74,3.15
		c-2.97,2.68-4.6,6.65-6.04,10.5c-8.12,21.82-13.25,44.85-15.19,68.15c3.45-8.82-2.81-18.24-3.54-27.7
		c-1-13.06,8.65-24.94,8.72-38.06c-10.93,0.56-19.31-13.62-30.08-11.45c-6.72,1.35-10.98,8.75-12.44,15.88
		c-1.46,7.13-1.01,14.58-2.76,21.64c-1.03,4.16-2.82,8.12-3.47,12.36c-1.17,7.67,1.49,15.41,1.01,23.15
		c-1.07,17.6-17.89,33.29-13.12,50.08c-1.79-20.26,1.14-40.69,4.07-60.87c1.16-8.02,2.32-16.04,3.48-24.06
		c0.73-5.07,1.47-10.27,0.48-15.26c-2.44-12.28-14.21-19.43-25.25-23.71c-4.21-1.63-9.13-3-13.02-0.51
		c-5.44,3.48-5.21,11.69-6.71,18.24c-2.14,9.36-8.84,16.79-12.41,25.66c-4.99,12.35-3.56,26.31-4.37,39.68
		c-0.97,15.77-5.24,31.35-12.42,45.27c5.06-14.59,6.15-30.67,3.09-45.76c-1.06-5.22-2.61-10.4-2.47-15.76
		c0.36-14.34,12.61-27.57,9.13-41.36c0.71,15.34-13.88,26.72-17.78,41.58c-3.18,12.1,1.1,24.73,1.69,37.22
		c0.99,21.17-8.69,41.61-9.21,62.82c-0.26,10.5,1.74,20.92,1.61,31.42c-0.13,10.51-2.88,21.8-10.56,28.5
		c6.97-8.29,8.43-20.31,7.6-31.31c-0.83-11.01-3.58-21.79-3.69-32.84c-0.17-16.49,5.55-32.61,5.85-49.1
		c0.22-12.44-2.64-24.86-1.08-37.21c1.97-15.52,10.72-29.26,14.08-44.53c4.57-20.74-0.64-44.4,10.46-62.2
		c1.99-0.22,4.75-0.55,8.03-0.98C1168.52,866.6,1211.37,833.24,1225.19,849.48z"/>
	<path class="st1" d="M1065.96,546.6c6.33,18.37,12.38,36.89,20.94,54.39c11.42,23.35,27.57,45.97,28.28,71.77
		c-7.17-1.77-10.29-9.8-12.51-16.68c-6.54-20.3-14.89-40.02-23.23-59.7c-27.03-63.84-54.06-127.67-81.1-191.51
		c-7.65-18.08-15.76-36.05-22.94-54.3c15.03-1.66,19.98,21.13,24.69,31.43c8.3,18.13,16.3,36.39,24,54.77
		C1039.24,472.95,1053.21,509.58,1065.96,546.6z"/>
	<path class="st1" d="M761.89,535.91c-3.01-5.85-6.65-12.13-12.69-14.13c-2.68-0.89-5.84-0.73-8.09,1.1
		c-2.25,1.83-3.15,5.55-1.46,7.91c0.72,1.01,1.8,1.67,2.71,2.51c4.53,4.17,4.17,11.52,4.85,17.85c0.94,8.78,4.51,16.95,8.11,24.9
		c8.1,17.89,16.56,35.59,25.03,53.28c0.32,0.67,1.43,1.78,2.46,3.67c3.02,5.53,1.65,8.07,3.73,10.15
		c3.77,3.77,12.41-0.45,14.84-2.17c0.71-0.51,2.02-1.46,2.65-3.2c0.15-0.41,0.44-1.25,0.33-2.43c-0.25-2.74-2.77-5.96-3.77-8.51
		c-1.64-4.18-2.97-8.51-4.5-12.73c-6.32-17.34-13.32-34.4-21-51.1c-2.13-4.63-4.31-9.24-6.54-13.82
		C767.21,546.46,761.57,538.8,761.89,535.91z"/>
	<path class="st1" d="M668.84,469.42"/>
	<path class="st1" d="M686.5,206.65c-3.04-12.75-6.14-25.48-9.03-38.27c-8.59-37.9-15.48-76.25-20.64-114.88
		c-0.67-5.05-1.5-10.5-4.97-14.02c-3.47-3.52-10.51-3.31-12.16,1.52c9.47,17.86,13.43,38.35,17.28,58.46
		c19.79,103.24,40.27,206.33,61.44,309.26c5.29,25.73,10.63,51.45,16.01,77.16c2.65,12.65,4.37,26.14,8.08,38.47
		c2.7,8.98,5.49,9.64,7.56-0.28c2.15-10.3-2.24-22.69-4.05-32.75c-2.3-12.78-4.64-25.55-7.04-38.31
		c-4.79-25.52-9.77-50.99-14.94-76.42C712.48,319.7,699.96,263.04,686.5,206.65z"/>
	<g>
		<path class="st2" d="M897.82,455.63c0.55,2.25,2.93,2.2,9.03,6.16c3.99,2.59,5.99,3.92,6.63,5.88c1.36,4.21-2.82,7.4-1.15,10.13
			c0.9,1.47,2.32,0.93,8.12,3.49c1.01,0.45,2.64,1.2,3.46,1.68c1.24,0.72,2.26,1.74,3.1,2.9c-5.37,2.6-11.22,3.77-16.93,2.55
			c-6.62-1.41-12.3-5.8-17.1-10.77c-4.49-4.66-8.48-10.05-10.51-16.35c-0.61-1.9-1.04-3.94-0.65-5.92c0.76-3.82,4.25-6.27,7.44-8.28
			c4.24-2.68,8.71-5.43,13.62-5.69c0.13-0.01,0.26,0,0.4-0.01c-0.29,1.27-1,3.05-2.04,5.63
			C898.86,452.96,897.36,453.74,897.82,455.63z"/>
		<path class="st1" d="M989.14,570.64c2.66-3.27,5-6.81,7.04-10.53c1.01,3.27,2.02,6.54,3.03,9.82c0.21,0.7,0.43,1.41,0.43,2.14
			c0,1.54-0.95,2.89-1.9,4.07c-3.13,3.85-7.14,7.88-6.83,12.91c0.26,4.31,3.72,7.69,4.53,11.92c0.43,2.25,0.09,4.59-0.28,6.86
			c-0.92,5.71-1.97,11.4-3.13,17.06c-5.22-13.16-15.3-23.75-22.14-32.76c-0.77-1.01-1.52-2.04-2.25-3.07
			C975.58,583.88,983.09,578.07,989.14,570.64z"/>
		<path class="st3" d="M1036.38,680.71c0.43,1.4,0.85,2.77,1.25,4.08c2.11,6.95,3.77,12.68,4.95,16.94
			c7.04,25.39,1.99,16.33,4.61,26.51c-0.84-1.78-1.73-3.53-2.67-5.23c1.95,4.79,3.11,9.84,3.88,15.03
			c-0.07,0.09-0.15,0.18-0.24,0.26c-1.67,1.39-5.56-1.31-9.32-3.62c-7.65-4.71,0.52,1.6-20.75-10.05
			c-14.68-8.04-26.42-15.34-27.38-15.94c-0.67-0.42-1.32-0.82-1.96-1.2c0.32-8.71,0.05-17.48-0.56-26.17
			c3.47-0.66,5.16-1.38,8.37-2.76c4.15-1.78,4.92-2.79,5.23-3.26c0.38-0.57,0.6-1.18,0.72-1.83c3.68,1.71,7.86,2.82,11.98,3.48
			C1022.18,678.18,1029.62,677.67,1036.38,680.71z"/>
		<path class="st3" d="M886.04,409.38c0.44,2.99-1,3.63-0.72,6.33c0.41,3.96,3.88,6.57,6.34,8.42c4.07,3.06,5.8,2.59,10.37,5.03
			c6.8,3.62,5.78,6.15,11.14,8.96c5.44,2.85,8.87,1.5,13.15,1.98c-4.64-0.33-9.47,1.84-14.25,1.92c-2.95,0.05-5.87-0.7-8.82-0.62
			c0.18-0.79,0.2-1.38,0.03-1.83c-1.42-3.66-8.86-0.96-18.78-5.98c-5.52-2.8-6.42-5.26-6.63-5.88c-1.12-3.43,1.19-5.61-0.19-9
			c-1.36-3.35-4.35-3.05-5.43-5.75c-1.42-3.54,2.07-8.16,5.04-12.26c0.08-0.11,0.15-0.21,0.23-0.32c1.21,0.66,2.5,0.59,4.43,2.13
			C882.38,402.84,885.46,405.4,886.04,409.38z"/>
		<path class="st1" d="M912.08,442.02c4.78-0.08,9.62-2.26,14.25-1.92c1.06,0.12,2.18,0.35,3.39,0.79c0.18,0.07,0.37,0.14,0.55,0.22
			c0.04,0.02,0.09,0.04,0.13,0.06c1.61,0.77,3.1,1.84,4.62,2.8c3.29,2.75,5.29,6.27,6.88,8.96c3.68,6.2,6.73,10.4,9.59,13.93
			c-0.58,0.22-1.16,0.45-1.73,0.73c-4.69,2.3-8.08,6.73-11.86,10.46c-3.19,3.15-6.91,5.88-10.91,7.82c-0.84-1.16-1.86-2.18-3.1-2.9
			c-0.82-0.47-2.45-1.23-3.46-1.68c-5.79-2.56-7.22-2.02-8.12-3.49c-1.67-2.74,2.51-5.92,1.15-10.13c-0.64-1.97-2.64-3.3-6.63-5.88
			c-6.1-3.95-8.48-3.91-9.03-6.16c-0.46-1.89,1.03-2.67,3.41-8.6c1.03-2.58,1.75-4.36,2.04-5.63
			C906.21,441.32,909.13,442.07,912.08,442.02z"/>
		<path class="st3" d="M937.91,478.05c3.78-3.74,7.16-8.16,11.86-10.46c0.56-0.28,1.14-0.51,1.73-0.73
			c6.15,7.6,11.37,12.05,19.86,26.63c7.4,12.7,10.8,21.97,24.46,63.08c14.72,44.33,23.25,70.95,24.96,76.28
			c0.01,0.02,0.01,0.03,0.02,0.05c-2.7-0.24-5.39-0.48-8.08-0.68c-2.91-0.22-5.91-0.39-8.64,0.32c-3.68,0.96-6.2,3.3-8.03,6.09
			c-0.63-2.61-1.51-6.08-2.41-9.18c-0.46-1.56-1-3.08-1.6-4.58c1.16-5.66,2.21-11.35,3.13-17.06c0.37-2.27,0.71-4.61,0.28-6.86
			c-0.82-4.23-4.27-7.6-4.53-11.92c-0.31-5.03,3.7-9.05,6.83-12.91c0.95-1.18,1.9-2.53,1.9-4.07c0-0.73-0.22-1.44-0.43-2.14
			c-1.01-3.27-2.02-6.54-3.03-9.82c-2.04,3.72-4.38,7.27-7.04,10.53c-6.05,7.43-13.56,13.24-21.49,18.4
			c-17.05-24-24.25-52.4-27.64-65.76c-2.32-9.15-7.45-17.39-9.13-26.7c-0.34-1.86-1.2-7.03-3.87-10.72
			C931,483.93,934.72,481.2,937.91,478.05z"/>
		<path class="st3" d="M931.05,441.44c1.52,0.7,2.82,1.57,3.98,2.54c-1.52-0.96-3.01-2.04-4.62-2.8
			C930.62,441.26,930.83,441.33,931.05,441.44z"/>
		<path class="st3" d="M930.27,441.11c-0.18-0.08-0.37-0.15-0.55-0.22C929.9,440.96,930.09,441.04,930.27,441.11z"/>
		<path class="st2" d="M1183.23,857.64c-0.08-0.04-0.16-0.06-0.24-0.11c-0.41-0.21-0.88-0.54-1.56-1.6c0.65,0.12,1.31,0.14,2,0.03
			c1.78-0.29,3.34-1.37,5.04-2.02c4.22-1.6,9.01-0.31,12.73,2.26c1.23,0.85,2.36,1.83,3.42,2.89c-0.09,0.37-0.2,0.74-0.36,1.09
			c-0.52,1.13-1.38,2.05-2.33,2.81c-1.8,1.44-3.94,2.32-6.07,3.1c-0.65,0.24-1.31,0.47-1.99,0.5c-0.65,0.03-1.66-0.1-1.81-0.89
			c-0.16-0.87,0.14-2.01,0.1-2.92c-0.03-0.64-0.11-1.29-0.31-1.88c0.13-1.07,0.02-1.85-0.44-2.43
			C1189.86,856.52,1186.61,859.2,1183.23,857.64z"/>
		<path class="st2" d="M1147.19,1010.81c0.09-3.77,0.21-7.58,0.69-11.31C1148.06,1003.27,1147.83,1007.07,1147.19,1010.81z"/>
		<path class="st0" d="M1160.74,949.7c0.23,2.65,0.2,5.3-0.51,7.86c-0.67,2.43-1.93,4.66-2.62,7.09c-1.04,3.69-0.72,7.65-1.51,11.41
			c-1.11,5.3-4.35,9.83-6.23,14.9c-1.02,2.75-1.62,5.62-2,8.54c-0.07-1.42-0.19-2.85-0.37-4.26c-0.41-3.17-1.12-6.32-0.99-9.52
			c0.13-3.09,1.04-6.08,1.91-9.05c2.68-9.14,5.06-18.9,3.66-28.15c0.3,0.18,0.63,0.38,1.05,0.57
			C1155.54,950.2,1158.28,950.22,1160.74,949.7z"/>
		<path class="st2" d="M1183.95,882.1c0.26-0.5,0.62-0.95,1.15-1.34c2.05-1.51,3.17-0.45,3.74,1.61
			C1186.42,882.81,1184.58,882.98,1183.95,882.1z"/>
		<path class="st3" d="M1060.34,866.71c4.96-0.79,8.53-0.55,33.76,2.55c13.56,1.67,16.02,2.03,20.55,1.05
			c10.72-2.32,17.63-8.83,19.45-10.62c4.93-4.88,7.15-9.63,10.42-16.78c1.22-2.67,2.29-5.3,3.24-7.88
			c7.73,1.03,15.97,5.98,22.62,1.67c0.22,0.42,0.41,0.86,0.59,1.3c-0.31,0.44-0.63,0.87-0.97,1.28c-2.34,2.79-5.22,5.26-6.53,8.71
			c-2.45,6.47,1.5,13.71,0.43,20.57c-1.07,6.9-6.89,11.91-9.35,18.41c-3.02,8-0.62,17.19-2.93,25.44
			c-1.45,5.18-4.73,9.86-5.02,15.24c-0.31,5.81,2.91,11.04,4.54,16.57c0.42,1.42,0.72,2.87,0.94,4.32c-0.74-0.46-1.28-0.87-2.41-1.1
			c-3.01-0.64-5.52,0.92-8.84,2.85c-3.84,2.23-7.81,4.19-11.67,6.37c-7.16,4.05-8.56,4.67-10.32,5.24
			c-2.27,0.74-5.05,1.65-8.69,1.58c-1.29-0.02-10.16-0.32-15.03-6.84c-1.72-2.31-2.26-4.47-2.88-6.74
			c-2.3-8.35-6.24-22.67-14.56-32.45c-1.84-2.17-4.49-5.22-8.89-7.42c-5.12-2.57-7.36-1.36-14.26-2.9
			c-9.15-2.04-15.58-6.47-18.49-8.51c-5.39-3.79-9.27-7.99-11-10.23c-1.3-1.67-2.45-3.63-3.46-5.78c7.27-2.89,13.72-5.81,18.39-7.92
			C1050.99,869.67,1053.56,867.78,1060.34,866.71z"/>
		<path class="st0" d="M1146.61,927.63c0.29-5.38,3.57-10.06,5.02-15.24c2.31-8.25-0.09-17.44,2.93-25.44
			c2.46-6.51,8.28-11.52,9.35-18.41c1.06-6.85-2.88-14.1-0.43-20.57c1.31-3.45,4.19-5.91,6.53-8.71c0.34-0.4,0.66-0.83,0.97-1.28
			c1.44,3.48,1.92,7.39,3.31,10.91c1.02,2.59,2.88,5.05,5.16,6.3c-0.4,0.42-0.76,0.93-0.79,1.52c-0.05,0.78,0.48,1.44,1.04,1.95
			c0.34,0.31,0.71,0.6,1.1,0.82c-0.34,0.28-0.69,0.55-1.01,0.86c-3.73,3.45-6.48,8.5-6.08,13.67c0.07,0.9,0.23,1.82,0,2.69
			c-0.65,2.45-3.67,2.92-5.78,4.18c-3.61,2.16-4.7,7.16-4.41,11.49c0.29,4.34,1.56,8.61,1.15,12.95c-0.46,4.8-2.94,9.12-4.35,13.73
			c-2.44,7.99-1.57,16.61-0.32,24.86c0.29,1.92,0.59,3.86,0.75,5.81c-2.46,0.52-5.21,0.5-7.6-0.61c-0.42-0.19-0.75-0.39-1.05-0.57
			c-0.22-1.45-0.52-2.9-0.94-4.32C1149.52,938.67,1146.29,933.43,1146.61,927.63z"/>
		<path class="st0" d="M1182.99,857.53c0.08,0.04,0.16,0.07,0.24,0.11c-0.84,0.57-1.65,1.19-2.44,1.84c-0.4-0.22-0.76-0.51-1.1-0.82
			c-0.55-0.51-1.08-1.18-1.04-1.95c0.03-0.59,0.4-1.1,0.79-1.52c0.63,0.34,1.29,0.61,1.99,0.74
			C1182.1,856.99,1182.58,857.32,1182.99,857.53z"/>
		<path class="st3" d="M1160.31,919.04c1.4-4.61,3.89-8.92,4.35-13.73c0.42-4.33-0.86-8.61-1.15-12.95
			c-0.29-4.34,0.8-9.34,4.41-11.49c2.1-1.26,5.12-1.73,5.78-4.18c0.23-0.87,0.07-1.79,0-2.69c-0.41-5.18,2.35-10.22,6.08-13.67
			c0.33-0.3,0.67-0.57,1.01-0.86c0.41,0.23,0.84,0.38,1.3,0.42c1.22,0.1,2.34-0.65,3.51-1.04c1.31-0.44,2.75-0.44,4.05,0.01
			c0.62,0.21,1.23,0.54,1.66,1.06c0.24,0.29,0.39,0.63,0.52,0.99c-0.15,1.25-0.63,2.9-1.3,5.17c-1.12,3.82-2.62,7-3.41,8.6
			c-2.45,4.97-3.82,6.3-3.26,7.33c0.02,0.04,0.07,0.06,0.09,0.1c-1.26,2.42,0.21,5.9,0.04,8.45c-0.26,3.85-2.51,7.21-3.47,10.87
			c-1.22,4.7-0.39,9.66,0.45,14.42c-0.94-5.44,0.39-11.29,3.56-15.75c1.5-2.1,3.43-3.99,4.14-6.51c0.5-1.77,1.09-7.84,0.17-11.22
			c1.1-0.2,2.3-0.45,3.57-0.68c5.24-0.95,20.11-3.65,22.96,1.32c0.72,1.26-0.38,1.71-0.86,7.6c-0.76,9.2,0.09,11.46-1.73,15.2
			c-1.11,2.28-1.23,1.04-5.67,7.06c-2.93,3.98-3.47,5.32-5.67,7.06c-0.54,0.42-2.9,2.23-6.43,3.12c-4.12,1.04-5.58-0.1-8.55,0.31
			c-5.23,0.73-8.71,5.52-12.1,10.17c-5.9,8.11-4.27,11.6-8.93,14.38c-1.25,0.74-2.89,1.4-4.69,1.78c-0.17-1.94-0.46-3.89-0.75-5.81
			C1158.74,935.65,1157.87,927.03,1160.31,919.04z"/>
		<path class="st3" d="M1189.65,858.86c-1.3-0.44-2.74-0.45-4.05-0.01c-1.17,0.39-2.3,1.14-3.51,1.04c-0.46-0.04-0.9-0.19-1.3-0.42
			c0.79-0.65,1.6-1.27,2.44-1.84c3.38,1.56,6.63-1.11,8.16,0.85c0.46,0.59,0.56,1.37,0.44,2.43c-0.12-0.36-0.28-0.7-0.52-0.99
			C1190.88,859.4,1190.28,859.08,1189.65,858.86z"/>
		<path class="st0" d="M1188.68,893.59c-0.71,2.52-2.64,4.41-4.14,6.51c-3.17,4.45-4.5,10.31-3.56,15.75
			c-0.84-4.76-1.67-9.72-0.45-14.42c0.95-3.66,3.2-7.02,3.47-10.87c0.18-2.55-1.3-6.04-0.04-8.45c0.63,0.88,2.47,0.71,4.89,0.27
			C1189.77,885.75,1189.18,891.81,1188.68,893.59z"/>
		<path class="st0" d="M1203.88,858.98c-0.39-1.01-1.2-1.8-2.09-2.38c-2.23-1.47-4.99-1.83-7.64-1.77
			c-2.65,0.06-5.29,0.51-7.95,0.51c-1.37,0-2.76-0.12-4.11,0.16c-0.94,0.2-1.83,0.6-2.62,1.15c-0.87-1.76-2-4.53-3.53-8.98
			c-2.51-7.31-2.36-8.28-3.88-9.43c-0.27-0.21-0.54-0.37-0.82-0.51c-2.02-1-4.41-0.37-11.4-0.88c-3-0.22-3.65-0.41-7.34-0.83
			c-1.94-0.22-3.84-0.44-5.74-0.65c5.86-16.69,6.34-30.9,6.53-39.07c0.15-6.32-0.23-9.7-1.01-12.96
			c-1.46-6.11-4.04-10.61-11.29-20.55c-9.74-13.35-11.07-13.44-17.26-22.51c-5.67-8.31-9.31-15.22-11.43-19.28
			c-2.25-4.29-5.32-10.54-10.86-24.35c-3.02-7.54-5.38-13.39-7.34-18.51c0.25-0.29,0.48-0.6,0.65-0.97
			c0.81-1.78,0.15-3.87-0.59-5.67c-1.3-3.16-2.83-6.21-4.56-9.14c1.32,0.28,2.64,0.87,3.84,1.46c9.93,4.97,20.07,10.1,27.7,18.33
			s12.35,20.33,9.11,31.32c-0.07,0.24-0.14,0.49-0.22,0.74c-0.62,0.72-1.26,1.42-1.94,2.08c-1.78,1.73-3.74,3.24-5.7,4.75
			c-2.3,1.77-4.6,3.54-6.91,5.31c1.54,3.07,3.26,6.05,5.16,8.89c4.91-3.45,8.48-8.46,11.64-13.74c1.47,0.16,3.17-0.39,4.72-0.55
			c4.44-0.45,8.81,3.5,8.97,8.12c0.07,1.95-0.35,4.32,1.16,5.47c1.06,0.81,2.73,0.63,3.51,1.71c0.71,0.99,0.26,2.38,0.08,3.6
			c-0.73,4.82,3.43,9.18,7.97,10.43c4.54,1.25,9.35,0.27,14.02-0.34c18.19-2.39,38.25,1.68,50.54,15.65
			c6.61,7.51,10.44,17.22,13.13,27.01c10.78,39.23,4.5,83.27-16.81,117.85c-0.44-13.68-1.3-31.28-9.55-41.89
			c-1.9-2.45-3.84-4.91-6.05-7.05C1204.19,860.68,1204.19,859.79,1203.88,858.98z"/>
		<path class="st1" d="M1122.99,733.13c-1.86-2.84-3.55-5.8-5.06-8.87c2.26-1.77,4.53-3.54,6.79-5.32c1.93-1.51,3.86-3.02,5.61-4.75
			c0.67-0.66,1.3-1.36,1.91-2.09c-0.67,2.35-1.27,5.08,0.44,6.57c0.52,0.45,1.12,0.64,1.76,0.71
			C1131.34,724.66,1127.83,729.67,1122.99,733.13z"/>
		<path class="st0" d="M1188.46,853.95c-1.69,0.64-3.26,1.73-5.04,2.02c-0.68,0.11-1.35,0.09-2-0.03c-0.27-0.42-0.57-0.96-0.9-1.66
			c0.78-0.55,1.66-0.96,2.58-1.16c1.33-0.28,2.69-0.17,4.04-0.17c2.61,0,5.2-0.46,7.81-0.52c2.61-0.07,5.32,0.29,7.5,1.75
			c0.87,0.58,1.66,1.36,2.04,2.38c0.3,0.8,0.3,1.7,0.11,2.55c-1.07-1.05-2.2-2.04-3.42-2.89
			C1197.47,853.64,1192.68,852.34,1188.46,853.95z"/>
		<path class="st3" d="M1154.07,833.72c3.62,0.41,4.26,0.61,7.2,0.82c6.87,0.5,9.22-0.14,11.2,0.85c-0.41,0.91-0.93,1.78-1.51,2.59
			c-0.18-0.44-0.37-0.87-0.59-1.3c-6.66,4.32-14.89-0.63-22.62-1.67c0.24-0.65,0.45-1.29,0.68-1.94
			C1150.3,833.29,1152.16,833.5,1154.07,833.72z"/>
		<path class="st0" d="M1173.28,835.9c1.5,1.14,1.35,2.11,3.8,9.41c1.49,4.44,2.59,7.2,3.45,8.96c-0.37,0.26-0.73,0.55-1.05,0.88
			c-0.01,0.01-0.02,0.02-0.03,0.03c-2.29-1.24-4.14-3.71-5.16-6.3c-1.39-3.53-1.87-7.43-3.31-10.91c0.57-0.82,1.1-1.68,1.51-2.59
			C1172.75,835.53,1173.01,835.69,1173.28,835.9z"/>
		<path class="st0" d="M1180.53,854.27c0.34,0.69,0.64,1.24,0.9,1.66c-0.69-0.13-1.35-0.4-1.99-0.74c0.01-0.01,0.02-0.02,0.03-0.03
			C1179.79,854.82,1180.15,854.54,1180.53,854.27z"/>
		<path class="st2" d="M875.04,828.49c-0.01,0-0.02,0-0.04,0.01c-21.68-13.27-40.19-32.08-53.53-54.33c0.02-0.15,0.03-0.3,0.05-0.45
			C834.84,796.15,853.35,815.12,875.04,828.49z"/>
		<path class="st2" d="M873.24,828.78c0.76,1.14,1.69,2.13,2.73,2.98l0,0c-1.04-0.85-1.98-1.84-2.74-2.97
			C873.23,828.78,873.24,828.78,873.24,828.78z"/>
		<path class="st2" d="M810.65,1245.12c2.18-8.11,3.99-15.76,4.08-25.2c0.02-2.02-0.05-3.32-0.14-4.45c1.47,0.02,2.94,0.06,4.4,0.13
			c0.37,0.02,0.79,0.06,1.03,0.37c0.23,0.3,0.19,0.73,0.14,1.11c-1.52,11.79-3.11,23.58-4.77,35.35c-0.24,1.72-0.57,3.61-1.85,4.72
			c-1.43,1.25-3.49,1.08-5.31,0.84c-0.24-0.03-0.48-0.06-0.73-0.1c0.3-1.7,0.64-3.46,1.08-5.31
			C809.36,1249.35,809.76,1248.46,810.65,1245.12z"/>
		<path class="st3" d="M832.44,957.95c3.7,11.66,0.19,22.13-2.21,28.92c-5.57,15.79-15.63,24.89-20.4,29.76
			c-13.25,13.52-19.71,33.44-32.64,73.28c-8.73,26.92-19.47,60.02-21.44,92.52c-0.1,1.69-0.23,4-0.69,6.77
			c-1.58-3.25-3.21-6.48-5.18-9.46c-2.35-3.58-5.16-6.77-8.18-9.74c2.17-3.11,1.03-8.12,0.73-9.6c-3.41-17.32,7.93-70.1,14.24-93.33
			c3.79-13.96,7.41-23.33,10.8-30.85c1.74-3.87,5.81-12.54,12.34-22.98c9.53-15.23,12.74-15.72,25.64-33.02
			c13.82-18.54,17.25-27.5,23.16-30.53c1.54,2.49,2.82,5.16,3.73,7.92C832.38,957.71,832.41,957.83,832.44,957.95z"/>
		<path class="st4" d="M729.51,1223.18c-0.64,0.4-1.27,0.78-1.9,1.14c-1.14-1.01-1.81-2.03-1.83-2.95c0-0.26,0.06-0.52,0.15-0.77
			c0.07,0.16,0.13,0.33,0.23,0.49C726.92,1222.28,728.16,1222.84,729.51,1223.18z"/>
		<path class="st1" d="M749.88,1179.73c1.96,2.98,3.6,6.21,5.18,9.46c-0.41,2.45-1.07,5.24-2.24,8.3
			c-4.49,11.75-14.42,20.17-23.31,25.69c-1.36-0.35-2.59-0.9-3.34-2.1c-0.1-0.15-0.15-0.32-0.23-0.49c0.91-2.52,6.05-4.64,5.8-8.82
			c-0.15-2.58-2.19-2.97-2.88-6.74c-0.58-3.18,0.31-5.9,0.86-7.6c1.48-4.54,4.6-8.44,4.61-8.46c-2.56-9.64-1.37-13.62,0.52-15.34
			c1.97-1.79,4.46-0.93,6.43-3.12c0.15-0.17,0.29-0.35,0.42-0.53C744.72,1172.97,747.53,1176.16,749.88,1179.73z"/>
		<path class="st2" d="M1080.31,626.46c-0.27-1.03-0.45-2.03-0.58-3.01c1.33-0.39,2.67-0.77,4.02-1.1c2.38-0.58,4.91-1.04,7.21-0.23
			c3.92,1.38,5.87,5.86,7.4,9.9c1.38,3.64,2.73,7.9,0.88,11.34c-2.29,4.26-8.8,5.87-9.14,10.58c-2.12-8.57-3.18-14.26-6.91-20.75
			C1082.53,632.06,1081.18,629.83,1080.31,626.46z"/>
		<path class="st1" d="M1000.69,663.62c1.16,4.41,2.28,7.44,1.83,9.85c-3.17-1.47-5.97-3.38-8.02-5.84
			c-5.61-6.75-4.08-15.53-1.34-23.04c0.73-2.01,1.65-4.08,2.87-5.95c0.58,2.37,0.95,4.04,0.95,4.04
			C1000.17,656.84,998.37,654.84,1000.69,663.62z"/>
		<path class="st1" d="M1004.06,632.54c2.73-0.71,5.73-0.54,8.64-0.32c2.69,0.2,5.39,0.44,8.08,0.68c0.2,0.62,0.31,0.96,0.31,0.96
			c6.32,18.4,11.44,34.33,15.29,46.85c-6.76-3.04-14.2-2.53-21.88-3.77c-4.12-0.66-8.3-1.77-11.98-3.48
			c0.45-2.41-0.67-5.44-1.83-9.85c-2.32-8.78-0.52-6.78-3.7-20.95c0,0-0.37-1.66-0.95-4.04
			C997.86,635.84,1000.39,633.5,1004.06,632.54z"/>
		<path class="st2" d="M1091.26,658.5c-0.08-0.3-0.15-0.58-0.23-0.88c0.3,0.57,0.64,1.13,0.97,1.68c0.22,0.36,0.42,0.72,0.62,1.08
			c-0.3-0.06-0.59-0.1-0.88-0.13C1091.58,659.67,1091.42,659.09,1091.26,658.5z"/>
		<path class="st2" d="M1097.66,675.17c-0.17,0.37-0.39,0.68-0.64,0.97c-2.16-5.78-3.8-10.63-5.27-15.88
			c0.29,0.03,0.59,0.07,0.88,0.13c1.69,2.92,3.19,5.97,4.46,9.12C1097.81,671.3,1098.46,673.38,1097.66,675.17z"/>
		<path class="st2" d="M908.63,853.34c0.16-0.02,0.31,0.02,0.47,0.09c-0.59,0.53-1.15,1.08-1.67,1.67
			C907.83,853.95,908.11,853.4,908.63,853.34z"/>
		<path class="st2" d="M901.95,868.61c0.03-0.44,0.12-0.85,0.27-1.27C902.13,867.76,902.04,868.18,901.95,868.61z"/>
		<path class="st1" d="M963.62,695.26c-1.58-0.68-3.26-1.41-5.1-2.2c2.34-7.46,4.44-15.01,6.25-22.65
			c1.74-7.34,5.42-16.6,12.56-16.07c6.71,0.5,9.25,9.31,9.96,16.36c0.35,3.52,0.66,7.06,0.91,10.61c-0.16,0.03-0.3,0.06-0.46,0.09
			C983.62,682.14,972.33,687.56,963.62,695.26z"/>
		<path class="st1" d="M963.62,695.26c8.72-7.7,20.01-13.12,24.11-13.87c0.17-0.03,0.31-0.06,0.46-0.09
			c0.61,8.7,0.88,17.47,0.56,26.17C981.39,703.04,976.03,700.63,963.62,695.26z"/>
		<path class="st2" d="M775.19,609.27c4.86,2.08,11.07-4.64,15.18-1.21c1.06,0.89,1.62,2.26,2.14,3.58
			c3.62,9.17,7.25,18.34,10.87,27.51c-11.9-2.71-16.68-3.86-20.21-4.67C780.61,626.04,777.91,617.64,775.19,609.27z"/>
		<path class="st5" d="M584.61,665.16c10.15-11.15,20.59-16.88,30.49-22.2c6.6-3.55,30.4-15.74,67.85-19.24
			c33.53-3.13,60.08,2.37,93.79,9.36c2.58,0.54,4.28,0.91,6.44,1.41c6.91,22.66,12.96,45.6,16.24,69.16
			c1.94,13.91,2.85,28.42-1.27,41.87c-1.39,4.52-3.25,9.57-3.14,14.1c-12.08,0.17-24.16,3.1-35.15,8.55
			c-1.4,0.7-2.83,1.47-3.84,2.71c-1.02,1.24-1.53,3.07-0.87,4.53c6.59-3.22,13.22-6.46,20.21-8.49c6.67-1.93,13.55-2.73,20.45-3.11
			c0.29,0.72,0.67,1.42,1.15,2.08c1.3,1.78,3.2,3.04,4.29,4.97c1.21,2.16,1.22,4.83,1.14,7.35
			c-1.71,52.42-29.34,103.09-70.51,132.74c-19.1-4.3-51.33-15.12-80.38-31.62c-24.78-14.08-44.6-25.34-62.49-49.43
			c-7.23-9.74-35.26-48.7-29.9-100.91C560.22,718.37,563.15,688.74,584.61,665.16z"/>
		<path class="st3" d="M775.37,766.92c-6.99,2.03-13.62,5.27-20.21,8.49c-0.66-1.46-0.15-3.29,0.87-4.53
			c1.02-1.24,2.44-2.01,3.84-2.71c10.98-5.45,23.06-8.38,35.15-8.55c0.04,1.46,0.28,2.87,0.81,4.19
			C788.91,764.19,782.04,764.98,775.37,766.92z"/>
		<path class="st5" d="M785.64,1216.78c-4.78-0.4-9.44-1.97-13.55-4.52c11.6-28.68,15.31-87.27,49.33-158.39
			c19.84-41.49,43.82-74.34,31.34-93.96c-1.93-3.03-4.9-5.99-8.33-8.14c9.2-5.55,17.56-12.62,24.58-21.01
			c5.89-7.04,10.84-14.87,15.69-22.73c6.68-10.81,13.31-21.98,16.21-34.47c0.38-1.62,0.7-3.29,1.04-4.94
			c-0.01,0.21-0.02,0.42,0,0.65c0.26,3.66,3.92,6.05,5.28,7.02c4.72,3.35,10.31,14.17,21.48,35.8c7.05,13.66,10.61,20.49,11.68,25.7
			c0.88,4.28,3.25,16.58-1.05,30.68c-3.24,10.63-7.47,12.77-15.89,32.84c-3.93,9.38-3.63,10.38-6.67,15.92
			c-5.5,10.01-9.57,12.32-14.59,21.44c-3.66,6.63-4.51,10.86-6.96,18.46c-4.2,13.03-8.53,21.81-16.46,37.91
			c-3.79,7.7-11.61,20.92-27.22,46.95c-5.04,8.4-9.66,17.07-15.03,25.24c-12.55,19.12-22.48,29.93-22.13,44.96
			c0.03,1.26,0.12,2.19,0.2,3.29c-4.93-0.08-9.87,0.11-14.79,0.57C795.09,1216.49,790.35,1217.18,785.64,1216.78z"/>
		<path class="st1" d="M768.59,1251.54c-7-3.05-12.19-9.27-17.43-15c-1.71-1.87-3.5-3.73-5.4-5.44c2.82,0.32,5.61,0.32,8.13-0.12
			c8.47-1.5,13.88-8.04,18.2-18.71c4.11,2.54,8.78,4.11,13.55,4.52c4.71,0.4,9.45-0.29,14.17-0.74c4.92-0.46,9.86-0.65,14.79-0.57
			c0.08,1.13,0.16,2.43,0.14,4.45c-0.09,9.44-1.9,17.09-4.08,25.2c-0.9,3.34-1.29,4.23-2.06,7.46c-0.44,1.86-0.78,3.61-1.08,5.31
			c-8.72-1.15-17.43-2.29-26.15-3.44C777.02,1253.89,772.62,1253.3,768.59,1251.54z"/>
		<path class="st5" d="M751.15,1236.54c5.25,5.74,10.43,11.96,17.43,15c4.03,1.75,8.43,2.34,12.77,2.91
			c8.72,1.15,17.43,2.29,26.15,3.44c-1.29,7.34-1.4,13.23-1.51,17.49c-0.56,22.02-2.19,20.99-2.2,40.81
			c-0.01,11.76-0.01,17.64,1.16,21.94c1.49,5.49,5.45,16.23,12.73,27.11c2.37,3.55,5.39,7.54,5.77,13.49
			c0.11,1.75,0.33,6.21-2.35,10c-1.85,2.61-4.45,4.02-5.38,4.52c-2.69,1.46-3.18,0.77-5.09,1.99c-3.34,2.13-2.82,4.83-5.67,7.06
			c-3.46,2.7-8.07,1.71-8.69,1.58c-5.33-1.14-8.38-6.25-9.94-8.83c-7.5-12.35-16.33-23.75-23.88-36.07
			c-4.07-6.65-7.47-12.18-12.39-19.37c-5.91-8.63-11.08-16.16-17.97-23.85c-14.18-15.83-18.65-13.31-28.63-26.35
			c-6.61-8.63-13.41-17.5-12.45-29.64c0.82-10.37,7.18-21.48,16.37-26.37c1.94-1.03,3.16-1.34,5.09-1.99
			c0.65-0.22,7.28-2.49,15.13-7.09c3.36,2.97,10.83,5.95,18.14,6.77C747.65,1232.81,749.44,1234.67,751.15,1236.54z"/>
		<path class="st4" d="M732.44,1223.75c5.04,0.93,9.4,3.82,13.32,7.35c-7.31-0.83-14.78-3.8-18.14-6.77
			c0.63-0.37,1.26-0.75,1.9-1.14C730.47,1223.43,731.49,1223.57,732.44,1223.75z"/>
		<path class="st6" d="M732.44,1223.75c5.04,0.93,9.4,3.82,13.32,7.35c-7.31-0.83-14.78-3.8-18.14-6.77
			c0.63-0.37,1.26-0.75,1.9-1.14C730.47,1223.43,731.49,1223.57,732.44,1223.75z"/>
		<path class="st1" d="M765.36,1206.66c1.97,2.19,4.25,4.08,6.72,5.61c-4.32,10.67-9.73,17.21-18.2,18.71
			c-2.52,0.44-5.31,0.44-8.13,0.12c-3.92-3.54-8.28-6.42-13.32-7.35c-0.95-0.18-1.97-0.32-2.93-0.57
			c8.89-5.52,18.82-13.94,23.31-25.69c1.17-3.06,1.83-5.85,2.24-8.3C758.06,1195.37,760.87,1201.66,765.36,1206.66z"/>
		<path class="st5" d="M852.75,959.91c12.49,19.62-11.5,52.47-31.34,93.96c-34.02,71.13-37.73,129.71-49.33,158.39
			c-2.47-1.53-4.75-3.41-6.72-5.61c-4.5-5-7.3-11.29-10.3-17.46c0.46-2.76,0.59-5.08,0.69-6.77c1.97-32.49,12.71-65.59,21.44-92.52
			c12.93-39.84,19.39-59.76,32.64-73.28c4.77-4.87,14.83-13.97,20.4-29.76c2.4-6.79,5.91-17.26,2.21-28.92
			c4.11-1.78,8.12-3.85,11.98-6.18C847.86,953.92,850.82,956.88,852.75,959.91z"/>
		<path class="st1" d="M966.81,430.73c0.79-1.06,1.53-2.15,2.22-3.28c3.38-5.57,5.42-12,6.02-18.55
			c4.25,8.83,7.67,17.03,12.24,26.19c-1.42,4.82-3.67,9.35-6.55,13.41C976.14,442.19,971.47,436.27,966.81,430.73z"/>
		<path class="st5" d="M969.02,427.45c-0.69,1.13-1.43,2.23-2.22,3.28c-32.49-38.53-65.02-57.98-74.91-51.48
			c-2.63,1.72-2.24,4.35-14.36,21.12c-0.43-0.23-0.85-0.56-1.29-1.08c-1.65-1.99-1.67-4.61-1.68-6.61c-0.03-3.99,1.28-4.4,2.35-10
			c0.97-5.09,0.39-7.35,2.21-8.73c0.76-0.58,1.76-0.67,3.75-0.86c4.63-0.43,6.31,0.71,7.35-0.45c0.92-1.02-0.16-2.15,0.58-5.07
			c0.21-0.86,0.93-3.72,2.98-4.79c0.56-0.29,1.51-0.61,6,0.68c5.1,1.47,5.24,2.26,7.06,2.08c3.04-0.29,3.16-2.55,6.43-3.12
			c3.71-0.65,5.26,1.96,7.2,0.82c2.56-1.5,0.59-6.39,3.41-8.6c2.28-1.79,6.18-0.62,8.4,0.95c0.75,0.53,2.63,1.86,3.17,4.21
			c0.71,3.05-1.55,4.75-0.72,6.33c0.84,1.61,3.68,0.77,9.61,1.09c4.98,0.27,8.18,0.48,10.66,2.49c2.67,2.17,3.22,5.38,3.94,8.15
			c1.55,5.95,3.07,6.51,9.99,19.1c2.3,4.18,4.28,8.11,6.11,11.92C974.45,415.45,972.4,421.87,969.02,427.45z"/>
		<path class="st5" d="M1048.8,625.45c-29.59-99.58-20.74-89.57-32.97-116.66c-10.24-22.67-22.41-42.91-35.1-60.3
			c2.88-4.06,5.13-8.6,6.55-13.41c3.1,6.21,6.72,12.86,11.49,20.46c6.97,11.11,10.19,14.84,17.54,27.65
			c11.16,19.45,10.89,23.31,22.73,46.21c11.33,21.92,16.99,32.88,25.27,45.21c9.29,13.84,19.01,25.8,16.53,36.52
			c-0.42,1.81-1.86,6.53-1.1,12.33c-9.66,2.86-18.99,7.11-28.82,9.07C1050.22,630.22,1049.52,627.86,1048.8,625.45z"/>
		<path class="st5" d="M1020.77,632.84c-1.7-5.33-10.23-31.95-24.96-76.28c-13.66-41.11-17.06-50.38-24.46-63.08
			c-8.49-14.57-13.71-19.03-19.86-26.63c2.26-0.84,4.64-1.31,6.95-1.98c8.89-2.59,16.76-8.59,22.29-16.38
			c12.69,17.4,24.86,37.63,35.1,60.3c12.23,27.09,3.39,17.08,32.97,116.66c0.72,2.41,1.42,4.76,2.11,7.07
			c-0.7,0.14-1.4,0.3-2.11,0.42C1039.52,634.45,1030.14,633.63,1020.77,632.84z"/>
		<path class="st1" d="M958.44,464.88c-2.31,0.67-4.69,1.15-6.95,1.98c-2.85-3.52-5.91-7.72-9.59-13.93
			c-1.59-2.69-3.59-6.21-6.88-8.96c1.47,0.93,2.97,1.75,4.66,2.05c1.94,0.35,3.95-0.03,5.87-0.56c8.33-2.29,15.91-7.59,21.25-14.73
			c4.67,5.53,9.33,11.46,13.93,17.76C975.2,456.29,967.33,462.29,958.44,464.88z"/>
		<path class="st5" d="M930.41,441.17c-0.04-0.02-0.09-0.04-0.13-0.06C930.32,441.13,930.36,441.15,930.41,441.17z"/>
		<path class="st5" d="M926.34,440.1c0.9,0.06,1.79,0.21,2.67,0.5c0.24,0.08,0.48,0.19,0.72,0.29
			C928.51,440.46,927.4,440.22,926.34,440.1z"/>
		<path class="st5" d="M891.9,379.25c9.89-6.5,42.42,12.95,74.91,51.48c-5.34,7.15-12.92,12.44-21.25,14.73
			c-1.92,0.53-3.92,0.9-5.87,0.56c-1.68-0.3-3.19-1.12-4.66-2.05c-1.16-0.96-2.46-1.84-3.98-2.54c-0.22-0.1-0.43-0.18-0.64-0.27
			c-0.04-0.02-0.09-0.04-0.13-0.06c-0.18-0.07-0.37-0.16-0.55-0.22c-0.24-0.1-0.47-0.21-0.72-0.29c-0.88-0.29-1.77-0.44-2.67-0.5
			c-4.28-0.48-7.71,0.88-13.15-1.98c-5.37-2.81-4.34-5.34-11.14-8.96c-4.57-2.43-6.31-1.97-10.37-5.03
			c-2.46-1.85-5.93-4.46-6.34-8.42c-0.28-2.71,1.15-3.34,0.72-6.33c-0.58-3.99-3.66-6.54-4.08-6.88c-1.92-1.55-3.21-1.48-4.43-2.13
			C889.66,383.6,889.27,380.98,891.9,379.25z"/>
		<path class="st5" d="M917.19,845.05c1.12-2.54,1.11-5.44,1.58-8.19c1.62-9.44,8.75-16.64,15.46-23.18
			c16.85-16.43,33.82-33.68,43.7-55.49c1.38-3.03,2.59-6.12,3.68-9.25c7.44,4.32,15.43,7.82,22.85,10.05
			c3.64,1.1,26.66,7.73,46.07,3.68c0.44,5.29,1.05,10.51,2.23,15.53c1.9,8.12,5.03,15.95,5.81,24.28c0.41,4.33,0.29,9.1,2.87,12.47
			c0.45,0.59,1.02,1.14,1.73,1.27c1.64,0.3,2.81-1.65,3.4-3.31c2.07-5.8,3.31-11.92,3.69-18.08c0.07-1.12,0.04-2.4-0.77-3.11
			c-0.59-0.52-1.42-0.56-2.17-0.72c-3.82-0.79-6.25-4.66-7.9-8.36c-2.16-4.86-3.71-10.04-4.58-15.34c-0.3-1.83-0.52-3.67-0.7-5.52
			c6.56-1.9,12.51-5.21,16.88-10.64c9.95-12.35,6.75-29.48-4.73-67.98c5.47-1.02,10.94-2.04,16.42-3.06
			c-0.12,8.66,2.25,17.56,5.9,25.36c6.03,12.87,15.15,23.77,22.5,35.83s13.08,26.26,11.03,40.54c-2.33,16.2-14.3,30.09-14.61,46.44
			c0,0.12,0,0.24,0,0.36c-47.98-4.71-73.97-4.33-84.08,9.49c-8.51,11.63-7.87,31.63-1.86,44.44c-8.45,3.36-18.03,6.7-27.27,8.71
			c-13.06,2.84-27.76,6.04-45,0.03c-5.8-2.02-29.2-10.19-35.69-28.43c-0.87-2.45-2.72-8.67-4.53-9.46
			C912.04,850.79,915.58,848.7,917.19,845.05z M931.12,878.66c1.14,1.33,2.61,2.27,4.07,3.2c3.45,2.18,7.01,4.38,10.97,5.15
			c1.61,0.31,3.49,0.3,4.65-0.94c1.19-1.28,1.12-3.36,0.57-5.03c-1.26-3.83-4.54-6.62-8.13-8.08c-2.45-1-8.53-3.18-11.19-2.28
			C928.6,871.84,929.04,876.22,931.12,878.66z"/>
		<path class="st5" d="M988.75,707.48c0.64,0.38,1.29,0.78,1.96,1.2c0.96,0.6,12.69,7.89,27.38,15.94
			c21.27,11.65,13.1,5.35,20.75,10.05c3.76,2.31,7.65,5.01,9.32,3.62c0.09-0.08,0.17-0.16,0.24-0.26c1.2,8.06,1.45,16.43,2.13,24.64
			c-19.41,4.05-42.43-2.59-46.07-3.68c-7.42-2.23-15.41-5.74-22.85-10.05C986.17,735.71,988.23,721.68,988.75,707.48z"/>
		<path class="st5" d="M1047.18,728.24c-2.61-10.18,2.43-1.12-4.61-26.51c-1.18-4.26-2.84-10-4.95-16.94c4.5,2,8.81,2.08,15.1,0.91
			c4.52-0.84,9.04-1.68,13.56-2.53c11.48,38.5,14.68,55.63,4.73,67.98c-4.37,5.42-10.32,8.73-16.88,10.64
			c-0.67-6.83-0.8-13.74-2.31-20.4C1050.8,736.85,1049.16,732.44,1047.18,728.24z"/>
		<path class="st5" d="M1023.45,838.14c10.11-13.83,36.1-14.2,84.08-9.49c-0.01,3.69,0.82,7.7,3.65,9.82
			c2.02,1.51,4.67,1.75,7.16,1.61c9.86-0.57,19.32-6.28,29.11-5.11c0.1,0.01,0.21,0.03,0.31,0.05c-0.95,2.58-2.02,5.21-3.24,7.88
			c-3.26,7.15-5.48,11.9-10.42,16.78c-1.81,1.79-8.73,8.31-19.45,10.62c-4.53,0.98-7,0.62-20.55-1.05
			c-25.23-3.1-28.8-3.34-33.76-2.55c-6.78,1.07-9.35,2.97-20.36,7.95c-4.67,2.12-11.12,5.03-18.39,7.92
			C1015.57,869.77,1014.94,849.77,1023.45,838.14z"/>
		<path class="st5" d="M1097.02,676.14c1.91,5.11,4.22,10.96,7.17,18.48c5.41,13.78,8.42,20.02,10.62,24.3
			c2.08,4.05,5.64,10.94,11.19,19.23c6.06,9.05,7.37,9.14,16.91,22.45c7.1,9.91,9.63,14.4,11.05,20.5
			c0.76,3.26,1.12,6.62,0.96,12.94c-0.2,8.16-0.71,22.36-6.49,39.04c-15.12-1.71-28.72-3.24-40.9-4.43c0-0.12-0.01-0.24,0-0.36
			c0.3-16.35,12.28-30.25,14.61-46.44c2.05-14.28-3.67-28.47-11.03-40.54s-16.48-22.97-22.5-35.83c-3.65-7.8-6.02-16.7-5.9-25.36
			c3.08-0.57,6.16-1.15,9.23-1.72C1093.77,678.05,1095.82,677.52,1097.02,676.14z"/>
		<path class="st5" d="M1147.76,835.02c-0.1-0.01-0.21-0.03-0.31-0.05c-9.79-1.18-19.25,4.53-29.11,5.11
			c-2.49,0.14-5.14-0.09-7.16-1.61c-2.82-2.12-3.66-6.13-3.65-9.82c12.18,1.19,25.79,2.72,40.9,4.43
			C1148.21,833.72,1148,834.37,1147.76,835.02z"/>
		<path class="st6" d="M1090.1,653.95c0.29,1.17,0.6,2.39,0.94,3.67c-0.55-1.04-0.97-2.13-0.97-3.31
			C1090.07,654.19,1090.09,654.08,1090.1,653.95z"/>
		<path class="st1" d="M1091.74,660.25c-1.11-0.1-2.18,0.06-3.13,0.72c-1,0.7-1.66,1.83-2.21,2.95c-2.51,5.05-3.62,10.57-3.69,16.19
			c-5.47,1.02-10.94,2.04-16.42,3.06c-4.13-13.86-9.33-30.48-15.38-50.65c9.82-1.96,19.16-6.21,28.82-9.07
			c0.13,0.98,0.31,1.98,0.58,3.01c0.87,3.36,2.23,5.6,2.88,6.74c3.73,6.49,4.79,12.18,6.91,20.75c-0.01,0.12-0.03,0.24-0.03,0.36
			c0,1.18,0.42,2.27,0.97,3.31c0.08,0.29,0.15,0.58,0.23,0.88C1091.42,659.09,1091.58,659.67,1091.74,660.25z"/>
		<path class="st1" d="M1037.63,684.79c-0.4-1.31-0.82-2.68-1.25-4.08c0.74,0.33,1.47,0.7,2.19,1.12c2.97,1.75,5.63,3.06,8.24,4
			c-5.65-13.25-13.55-30.93-23.49-51.72c0,0-0.16-0.36-0.46-1.03c-0.69-0.06-1.39-0.12-2.08-0.19c-0.01-0.02-0.01-0.03-0.02-0.05
			c9.37,0.78,18.75,1.61,28.03,0.1c0.71-0.12,1.41-0.28,2.11-0.42c6.05,20.17,11.25,36.79,15.38,50.65
			c-4.52,0.84-9.04,1.68-13.56,2.53C1046.44,686.87,1042.12,686.79,1037.63,684.79z"/>
		<path class="st1" d="M1086.4,663.92c0.56-1.12,1.21-2.25,2.21-2.95c0.95-0.66,2.03-0.83,3.13-0.72c1.47,5.25,3.11,10.1,5.27,15.88
			c-1.2,1.39-3.25,1.92-5.08,2.26c-3.08,0.57-6.16,1.15-9.23,1.72C1082.78,674.49,1083.89,668.97,1086.4,663.92z"/>
		<path class="st1" d="M1023.32,634.11c9.94,20.79,17.83,38.47,23.49,51.72c-2.61-0.95-5.27-2.26-8.24-4
			c-0.72-0.42-1.45-0.79-2.19-1.12c-3.85-12.52-8.97-28.45-15.29-46.85c0,0-0.11-0.34-0.31-0.96c0.69,0.06,1.39,0.12,2.08,0.19
			C1023.17,633.75,1023.32,634.11,1023.32,634.11z"/>
		<path class="st3" d="M875,828.49c-0.59,0.1-1.18,0.19-1.77,0.27c0,0.01,0.01,0.01,0.02,0.02c-0.01,0-0.01,0-0.02,0
			c0.77,1.14,1.7,2.13,2.74,2.97c-4.94-0.37-9.73-3.32-13.91-6.39c-15.9-11.67-29.88-26.19-41.24-42.73
			c0.09-2.84,0.31-5.66,0.65-8.47C834.81,796.41,853.32,815.23,875,828.49z"/>
		<path class="st5" d="M896.68,818.17c-5.7,6.02-13.66,8.99-21.64,10.31c-21.69-13.36-40.19-32.34-53.52-54.77
			c0.19-1.53,0.41-3.05,0.69-4.56c1.02-5.56,2.64-11.48,0.59-16.67c-0.8-2.04-2.12-3.8-2.97-5.81c-1.85-4.4-1.29-9.48-0.74-14.29
			c1.64-14.37,2.78-28.97,0.64-43.21c-2.1-13.93-7.27-27.06-12.4-40.05c-1.31-3.32-2.63-6.64-3.94-9.97
			c8.06,1.27,14.36,2.95,18.41,4.16c10.81,3.24,15,5.95,30.35,11.14c6.78,2.29,10.17,3.44,12.92,4.03c1.48,0.32,4.4,0.89,8.26,2.22
			c2.43,0.83,4.17,1.6,4.66,1.81c7.28,3.14,22.35,6.09,33.2,9.55c6.38,2.03,4.17,2.08,28.71,12.88c7.5,3.3,13.57,5.93,18.62,8.11
			c-12.82,40.85-33.03,79.09-55.07,115.55C901.42,811.97,899.35,815.35,896.68,818.17z"/>
		<path class="st5" d="M819.86,856.99c7.32-23.64,0.22-49.17,0.95-73.94c11.36,16.39,25.35,30.79,41.24,42.36
			c4.18,3.04,8.97,5.98,13.91,6.35c0,0,0,0,0,0l0,0c4,3.27,9.7,4.29,14.47,2.24c-14.69,22.08-29.44,44.24-46.87,63.99
			c-12.06,13.67-25.51,26.2-40.42,36.17c-1.69,0.07-3.99,0.15-8.28-0.07c-8.46-0.43-12.74-0.7-15.46-3.04
			c-3.62-3.1-2.79-6.52-6.16-10.05c9.63-8.81,18.26-19.03,26.37-29.43C807.84,881.04,815.85,869.92,819.86,856.99z"/>
		<path class="st5" d="M862.06,825.37c4.17,3.06,8.96,6.02,13.91,6.39c0,0,0,0,0,0c-4.94-0.37-9.74-3.3-13.91-6.35
			c-15.89-11.58-29.88-25.97-41.24-42.36c0-0.14,0.01-0.27,0.01-0.41C832.18,799.18,846.16,813.7,862.06,825.37z"/>
		<path class="st1" d="M843.57,897.99c17.43-19.75,32.18-41.91,46.87-63.99c-4.76,2.05-10.47,1.03-14.47-2.24
			c1.35,0.1,2.71,0.02,4.07-0.32c-1.69-0.95-3.35-1.94-5-2.95c7.98-1.32,15.94-4.3,21.64-10.31c2.67-2.82,4.74-6.2,6.78-9.56
			c22.04-36.46,42.25-74.7,55.07-115.55c1.83,0.79,3.51,1.52,5.1,2.2c-5.53,4.89-10.03,10.69-10.99,16.79
			c-2.04,13.01,12.04,27.06,28.98,36.89c-1.08,3.13-2.3,6.22-3.68,9.25c-9.88,21.8-26.85,39.06-43.7,55.49
			c-6.71,6.54-13.84,13.74-15.46,23.18c-0.47,2.75-0.46,5.65-1.58,8.19c-1.61,3.65-5.14,5.74-8.09,8.38
			c-0.16-0.07-0.31-0.11-0.47-0.09c-0.51,0.06-0.79,0.61-1.2,1.76c-0.08,0.09-0.16,0.17-0.24,0.26c-2.81,3.31-4.02,7.59-4.97,11.97
			c-0.15,0.43-0.24,0.83-0.27,1.27c-0.34,1.66-0.67,3.32-1.04,4.94c-2.91,12.49-9.54,23.66-16.21,34.47
			c-4.85,7.86-9.8,15.69-15.69,22.73c-7.02,8.39-15.39,15.46-24.58,21.01c-3.77-2.36-8.1-3.75-12.28-3.18
			c-1.31,0.18-2.47,0.54-3.54,1.09c-5.13-8.3-13.32-14.62-21.58-15.49c-1.42-0.15-2.42-0.09-3.88-0.03
			C818.06,924.19,831.51,911.66,843.57,897.99z"/>
		<path class="st1" d="M981.61,748.94c-16.94-9.82-31.01-23.87-28.98-36.89c0.96-6.11,5.45-11.91,10.99-16.79
			c12.41,5.37,17.78,7.78,25.14,12.22C988.23,721.68,986.17,735.71,981.61,748.94z"/>
		<path class="st1" d="M875.03,828.51c-0.01-0.01-0.02-0.01-0.03-0.02c0.01,0,0.02,0,0.04-0.01c1.65,1.02,3.32,2,5,2.95
			c-1.36,0.34-2.72,0.42-4.07,0.32c-1.04-0.85-1.96-1.84-2.73-2.98C873.84,828.7,874.44,828.61,875.03,828.51z"/>
		<path class="st1" d="M873.24,828.78c0-0.01-0.01-0.01-0.02-0.02c0.59-0.08,1.18-0.17,1.77-0.27c0.01,0.01,0.02,0.01,0.03,0.02
			C874.44,828.61,873.84,828.7,873.24,828.78z"/>
		<path class="st1" d="M844.42,951.77c-3.86,2.33-7.86,4.4-11.98,6.18c-0.04-0.12-0.06-0.23-0.1-0.35
			c-0.91-2.76-2.19-5.42-3.73-7.92c1.07-0.55,2.22-0.91,3.54-1.09C836.32,948.02,840.65,949.41,844.42,951.77z"/>
		<path class="st6" d="M907.42,855.1c-0.42,1.18-0.98,2.99-2.06,5.57c-1.56,3.72-2.65,5.31-3.14,6.67
			c0.95-4.39,2.16-8.66,4.97-11.97C907.26,855.27,907.35,855.18,907.42,855.1z"/>
		<path class="st1" d="M802.4,778.21c0.08-2.52,0.08-5.19-1.14-7.35c-1.09-1.93-2.99-3.19-4.29-4.97c-0.48-0.66-0.85-1.36-1.15-2.08
			c3.83-0.21,7.68-0.31,11.5-0.39c-3.83,0.08-7.67,0.18-11.5,0.39c-0.53-1.32-0.77-2.73-0.81-4.19c1.8-0.03,3.6,0.01,5.39,0.1
			c-1.79-0.1-3.59-0.13-5.39-0.1c-0.11-4.53,1.75-9.58,3.14-14.1c4.12-13.45,3.21-27.96,1.27-41.87
			c-3.28-23.56-9.32-46.5-16.24-69.16c3.53,0.81,8.3,1.96,20.21,4.67c1.31,3.32,2.63,6.64,3.94,9.97
			c5.13,12.99,10.3,26.12,12.4,40.05c2.15,14.24,1,28.84-0.64,43.21c-0.55,4.81-1.12,9.89,0.74,14.29c0.85,2.01,2.17,3.78,2.97,5.81
			c2.05,5.19,0.43,11.11-0.59,16.67c-0.28,1.52-0.5,3.04-0.69,4.56c-1.59-2.68-3.13-5.4-4.58-8.18c1.44,2.78,2.98,5.5,4.58,8.18
			c-0.02,0.15-0.03,0.3-0.05,0.45c0,0,0-0.01,0-0.01c-0.35,2.8-0.56,5.62-0.66,8.45c-1.97-2.87-3.87-5.79-5.67-8.78
			c1.81,2.99,3.7,5.91,5.67,8.78c0,0.13-0.02,0.26-0.02,0.4c0.01,0.02,0.02,0.03,0.03,0.04c-0.74,24.77,6.37,50.3-0.95,73.94
			c-4,12.93-12.01,24.06-20.23,34.59c-8.11,10.4-16.74,20.62-26.37,29.43c-0.33-0.34-0.68-0.69-1.1-1.04
			c-2.19-1.82-4.36-2.54-8.12-3.49c-8.52-2.15-12.78-3.22-19.07-3.45c-2.93-0.11-7.44-0.81-13.09-2.08
			C773.06,881.3,800.68,830.63,802.4,778.21z"/>
		<path class="st1" d="M820.81,783.05c-0.01-0.02-0.02-0.03-0.03-0.04c0-0.13,0.02-0.26,0.02-0.4c0.01,0.01,0.01,0.02,0.02,0.03
			C820.82,782.77,820.82,782.91,820.81,783.05z"/>
		<path class="st1" d="M820.8,782.61c0.1-2.83,0.31-5.65,0.66-8.45c0,0,0,0.01,0,0.01c-0.34,2.81-0.55,5.64-0.65,8.47
			C820.82,782.63,820.81,782.62,820.8,782.61z"/>
		<path class="st3" d="M932.07,870.66c2.66-0.9,8.74,1.28,11.19,2.28c3.59,1.47,6.86,4.25,8.13,8.08c0.55,1.67,0.62,3.75-0.57,5.03
			c-1.16,1.24-3.04,1.26-4.65,0.94c-3.97-0.77-7.52-2.97-10.97-5.15c-1.46-0.92-2.94-1.86-4.07-3.2
			C929.04,876.22,928.6,871.84,932.07,870.66z"/>
		<path class="st3" d="M1048.4,738.04c-0.77-5.18-1.93-10.24-3.88-15.03c0.94,1.7,1.83,3.45,2.67,5.23
			c0.18,0.68,0.38,1.45,0.63,2.32C1048.41,732.62,1049.58,736.5,1048.4,738.04z"/>
		<path class="st3" d="M1054.84,767.31c0.88,5.31,2.42,10.48,4.58,15.34c1.65,3.7,4.08,7.57,7.9,8.36c0.75,0.16,1.58,0.2,2.17,0.72
			c0.81,0.71,0.84,2,0.77,3.11c-0.38,6.16-1.62,12.28-3.69,18.08c-0.59,1.66-1.76,3.61-3.4,3.31c-0.71-0.13-1.28-0.68-1.73-1.27
			c-2.58-3.37-2.47-8.14-2.87-12.47c-0.78-8.33-3.91-16.16-5.81-24.28c-1.17-5.02-1.79-10.24-2.23-15.53
			c1.22-0.25,2.43-0.55,3.61-0.89C1054.32,763.64,1054.53,765.48,1054.84,767.31z"/>
		<path class="st3" d="M1047.82,730.56c-0.25-0.87-0.46-1.64-0.63-2.32c1.98,4.2,3.62,8.61,4.64,13.15
			c1.51,6.66,1.64,13.58,2.31,20.4c-1.19,0.34-2.39,0.63-3.61,0.89c-0.68-8.21-0.92-16.59-2.13-24.64
			C1049.58,736.5,1048.41,732.62,1047.82,730.56z"/>
	</g>
	<path class="st1" d="M937.95,365.84c3.38-11.02,6.76-22.04,10.14-33.06c2.68-8.73,5.37-17.52,6.5-26.59
		c1.23-9.84,0.59-19.8,0.16-29.71c-1.05-23.87,0.54-39.99,0.38-102.31c-0.07-27.03-0.78-66.05-3.75-115.37
		c2.16-2.83,5.24-6.03,8.17-5.49c8.33,1.55,8.74,32.14,9.65,67.08c1.3,50.03,3.65,111.32,8.6,166.13
		c1.38,15.28,2.76,30.57,5.33,45.68c3.79,22.32,10.17,44.43,9.76,67.1c-0.11,5.99-0.29,12.99,4.29,16.73
		c1.07,0.88,2.34,1.5,3.35,2.45c2.36,2.25,2.81,5.84,3.22,9.12c2.21,18.01,7.37,35.63,15.18,51.92
		c13.36-24.89,26.72-49.77,40.09-74.66c9.04-16.84,18.09-33.69,26.66-50.79c5.24-10.46,10.31-21.01,15.29-31.61
		c15.24-32.4,26.63-57.1,27.55-59.11c10.61-23.29,34.01-68.84,88.98-165.37c16.22-22.78,21-27.62,21.94-27.02
		c0.61,0.39,1.04,3.95-58.76,114.12c-15.13,27.88-42.4,79.07-54.39,108.92c-7.63,19.01-14.67,38.27-22.78,57.08
		c-30.51,70.77-60.3,99.41-73.76,134.36c-1.08,2.81-4.08,10.92-8.5,11.1c-3.76,0.15-6.22-5.54-10.99-14.08
		c-7.82-14-5.05-5.55-24.69-37.44c-6.62-10.75-9.93-16.12-11.43-19.57c-5.9-13.53-5.42-15.87-9.38-31.65
		c-2.69-10.73-8.05-21.98-18.15-26.04c-3.53-1.42-7.44-1.86-10.73-3.79c-3.52-2.06-3.78-6.83-4.04-9.65"/>
</g>
</svg>
