<?xml version="1.0" encoding="utf-8"?>
<!-- Generator: Adobe Illustrator 25.4.1, SVG Export Plug-In . SVG Version: 6.00 Build 0)  -->
<svg version="1.1" id="Layer_1" xmlns="http://www.w3.org/2000/svg" xmlns:xlink="http://www.w3.org/1999/xlink" x="0px" y="0px"
	 viewBox="0 0 1801 1441" style="enable-background:new 0 0 1801 1441;" xml:space="preserve">
<style type="text/css">
	.st0{stroke:#000000;stroke-miterlimit:10;}
	.st1{fill:#FFFFFF;stroke:#000000;stroke-miterlimit:10;}
	.st2{fill:#FFFFFF;}
</style>
<g>
	<g>
		<path class="st0" d="M1571.89,738.14c-2.04-1.91-4.61-1.54-5.11-3.41c-0.6-2.26,2.88-3.91,5.11-8.51c1.4-2.9,1.54-5.39,1.7-8.51
			c0.69-13.01-5.11-28.94-5.11-28.94c-3.08-8.3-7.91-19.68-15.32-32.35c-19.32-33.02-42.91-52.11-54.48-61.29
			c-14.51-11.52-33.55-20.68-71.51-39.16c-38.25-18.63-57.38-27.94-71.51-27.24c-2.54,0.13-13.57,0.9-15.32-3.41
			c-0.97-2.39,1.41-5.09,3.41-8.51c3.39-5.81,3.97-11.82,5.11-23.84c3.19-33.74-3.3-120.79,0-139.61c0.47-2.65,1.64-6.9,0-11.92
			c-1.79-5.47-5.47-7.4-5.11-11.92c0.23-2.95,1.9-3.33,3.41-6.81c2.45-5.67,1.9-13.61-1.7-18.73c-4.39-6.23-10.3-3.99-13.62-10.22
			c-1.01-1.88-0.48-2.11-1.7-11.92c-1.44-11.53-2.38-12.83-3.41-13.62c-3.89-3-9.15,1.11-11.92-1.7c-2.82-2.86,1.96-7.8,0-13.62
			c-2.25-6.68-10.14-4.92-20.43-13.62c-8.46-7.15-7.38-11.93-13.62-13.62c-7.33-1.99-13.25,3.39-17.03,0
			c-2.86-2.57-0.71-6.78-3.41-8.51c-3.66-2.36-8.68,4.75-15.32,3.41c-5.75-1.17-5.16-7.14-11.92-10.22
			c-6.46-2.94-10.43,0.96-18.73,0c-9.11-1.05-14.92-6.98-18.73-10.22c-14.44-12.26-35.85-16.08-69.81-22.13
			c-18.64-3.32-12.18-0.46-56.19-5.11c-44.99-4.75-67.04-9.35-78.32-11.92c-16.22-3.69-21.43-5.73-32.35-8.51
			c-85.22-21.73-176.08-1.68-199.2,5.11c-2.99,0.88-10.98,3.33-22.13,5.11c-16.55,2.63-24.19,1.24-42.56,1.7
			c-9.99,0.25-28.08,0.78-49.38,5.11c-8.77,1.78-3.48,1.24-37.46,10.22c-19.29,5.09-24.91,6.3-35.75,10.22
			c-12.81,4.62-12.39,5.61-18.73,6.81c-11.14,2.11-15.51-0.37-32.35,1.7c-9.79,1.2-15.8,2.96-17.03,6.81c-0.9,2.82,1.33,5.04,0,6.81
			c-2.23,2.98-9.12-2.48-15.32,0c-7.28,2.91-4.39,13.08-13.62,20.43c-6.3,5.01-9.75,1.95-13.62,6.81
			c-4.39,5.5-0.69,10.36-5.11,22.13c-1.82,4.86-2.19,3.33-5.11,10.22c-3.57,8.42-3.93,12.85-8.51,17.03
			c-2.39,2.18-2.72,1.36-5.11,3.41c-7.79,6.67-10.13,20.42-5.11,25.54c2.12,2.16,4.13,1.33,5.11,3.41c1.67,3.56-3.6,7.36-5.11,15.32
			c-0.7,3.68-0.23,6.37,0,8.51c2.31,21.45-1.7,137.52-1.7,165.15c0,0,0,9.89,0,10.22c0,7.02,1.33,9.4,0,11.92
			c-2.24,4.21-8.79,4.85-11.92,5.11c-29.81,2.5-35.37,2.35-42.56,3.41c-14.28,2.1-25.13,7.49-37.46,13.62
			c-3.11,1.55-10.93,5.55-20.43,11.92c-6.11,4.1-17.82,12.46-30.65,25.54c-24.32,24.79-29.14,42.51-40.86,51.08
			c-1.75,1.28-5.77,3.9-6.81,8.51c-1.07,4.74,1.83,7.99,0,10.22c-2.15,2.6-6.92-0.91-10.22,1.7c-3.64,2.88-3.77,11.84,0,17.03
			c1.61,2.22,3.52,3.16,3.41,5.11c-0.14,2.39-3.11,3.17-5.11,5.11c0,0-4.51,4.37,1.7,32.35c2.15,0.03,4.55,0.35,5.11,1.7
			c0.72,1.74-2.22,3.67-3.41,6.81c-1.89,4.99,1.59,10.52,3.41,13.62c7.33,12.49-0.92,4.82,11.92,27.24
			c14.8,25.86,44.24,68.34,59.59,97.05c11.38,21.29,16.19,37.2,25.54,68.1c16.44,54.38,11.71,68.76,22.13,114.07
			c7.74,33.63,35.41,134.9,119.18,207.72c1.69,1.47,4.53,6.13,10.22,8.51c3.74,1.57,6.9,1.61,8.51,1.7
			c10.33,0.59,17.55,6.87,23.84,10.22c10.91,5.8,18.45,2.46,44.27,1.7c0.1,0,14.82,0.57,44.27,1.7
			c53.23,2.06,147.85,7.48,206.01,10.22c80.08,3.77,120.13,5.66,158.34,5.11c127.18-1.83,172.25-17.18,224.74-11.92
			c6.6,0.66,27.4,3.06,52.78-3.41c17.57-4.48,30.39-11.43,37.46-15.32c9.14-5.03,27.16-15.98,47.67-37.46
			c27.42-28.72,41.27-57.41,52.78-81.72c22.4-47.34,32.29-89.73,39.16-119.18c10.76-46.09,13.62-61.29,13.62-61.29
			c1.05-5.55,1.73-9.48,3.41-15.32c1.64-5.73,7.09-23.25,22.13-44.27c6.76-9.44,13.02-15.94,25.54-28.94
			c18.66-19.37,22.8-20.08,27.24-28.94c1.34-2.67,3.44-7.55,8.51-10.22c5.53-2.9,9.53-0.54,11.92-3.41c3.61-4.34-3.47-12.3,0-17.03
			c2.66-3.63,7.66-0.06,13.62-3.41c9.16-5.14,13.55-22.64,8.51-30.65c-0.71-1.13-2.2-3.01-1.7-5.11c0.64-2.69,3.98-3.28,6.81-5.11
			c4.77-3.09,6.04-8.42,8.51-18.73C1573.81,748.86,1575.56,741.57,1571.89,738.14z M714.88,1058.09
			c-17.79,2.11-35.29-4.47-52.78-8.38c-22.16-4.95-45.44-5.74-66.47-14.3c-29.51-12.01-50.9-37.69-71.02-62.4
			c-1.08-1.33-2.23-2.85-2.08-4.56c0.2-2.35,2.9-3.84,5.24-3.58c2.35,0.26,4.35,1.75,6.19,3.24c8.09,6.56,13.82,14.65,21.04,21.91
			c5.54,5.57,13.02,9.97,19.78,14.03c16.89,10.15,35.57,16.9,54.27,22.87c25.62,8.18,51.67,15.05,77.99,20.58
			c2.74,0.58,5.65,1.22,7.65,3.19C716.69,1052.68,717.15,1056.45,714.88,1058.09z"/>
	</g>
	<path class="st1" d="M695.83,273.55c0.63,2.74,1.32,5.51,2.64,7.99c3.57,6.7,7.13-1.38,7.82-5.1c0.7-3.77,1.16-8.24,0.04-11.97
		c-0.93-3.07-2.76-4.99-6.05-3.62C695.07,263,694.75,268.88,695.83,273.55z"/>
	<path class="st1" d="M1031.14,263.94c-1.25,2.6-2.27,5.37-2.37,8.25c-0.13,3.5,1.08,6.89,2.27,10.18c0.43,1.18,1.07,2.54,2.31,2.72
		c0.89,0.13,1.72-0.42,2.39-1.02c4.04-3.57,5.54-9.16,6.53-14.47c0.47-2.51,0.78-5.39-0.87-7.34c-1.03-1.22-4.13-3.71-5.71-3.56
		C1033.59,258.92,1031.92,262.33,1031.14,263.94z"/>
	<path class="st1" d="M1220.55,371.85c-2.36,0.69-4.17,2.69-5.14,4.94c-0.97,2.26-1.21,4.76-1.27,7.21
		c-0.16,6.4,0.79,12.77,1.73,19.09c0.09,0.59,0.18,1.19,0.48,1.7c0.7,1.16,2.33,1.47,3.62,1.04c1.29-0.43,2.3-1.41,3.25-2.38
		c3.2-3.27,6.27-6.92,7.45-11.34c0.57-2.13,0.67-4.36,0.76-6.56c0.07-1.8,0.13-3.63-0.37-5.35
		C1229.81,375.88,1225.67,370.35,1220.55,371.85z"/>
	<path class="st1" d="M1222.06,422.23c-1.54-0.33-3.18,0.22-4.44,1.17c-1.26,0.95-2.2,2.26-3.05,3.59
		c-2.01,3.16-3.62,6.58-4.77,10.15c-0.36,1.12-0.68,2.29-0.56,3.46s0.77,2.36,1.86,2.8c1.11,0.45,2.38,0.05,3.45-0.48
		C1219.42,440.52,1233.33,424.67,1222.06,422.23z"/>
	<path class="st1" d="M1178.98,446.6c-2.17,5.33-2.45,11.41-0.78,16.92c2.84,0.42,5.29-1.9,7.08-4.14c1.51-1.89,2.91-3.86,4.2-5.9
		c2.25-3.57,3.92-10.13-0.6-12.97C1184.55,437.79,1180.41,443.08,1178.98,446.6z"/>
	<path class="st1" d="M1234.75,527.04c0.53,0.27,1.12,0.51,1.7,0.4c0.29-0.06,0.56-0.2,0.82-0.35c1.61-0.99,2.75-2.7,3.05-4.57
		c0.54-3.33-1.64-6.67-4.58-8.34c-2.77-1.57-12.01-3.91-9.91,2.06C1227.29,520.41,1230.8,525.02,1234.75,527.04z"/>
	<path class="st1" d="M1387.19,647.97c-2.01-0.53-4.33-0.26-5.87,1.13c-0.72,0.65-1.24,1.51-1.67,2.38
		c-2.24,4.45-2.79,9.73-1.52,14.54c0.14,0.51,0.31,1.06,0.73,1.39c0.42,0.33,0.98,0.38,1.51,0.41c2.88,0.19,6.1,0.27,8.26-1.64
		c1.47-1.31,2.13-3.29,2.56-5.22C1392.29,655.94,1393.72,649.7,1387.19,647.97z"/>
	<path class="st1" d="M1376.51,624c-0.22,0.95-0.34,1.94-0.1,2.89c0.42,1.61,1.8,2.76,3.19,3.68c8.93,5.9,16.36-3.77,13.57-12.75
		C1390.17,608.21,1377.96,617.87,1376.51,624z"/>
	<path class="st1" d="M1356.71,662.62c-1.38-0.46-2.88-0.32-4.3-0.06c-1.94,0.36-3.93,1.01-5.31,2.43
		c-4.43,4.52-1.51,17.98,6.07,14.88C1358.66,677.63,1364.95,665.36,1356.71,662.62z"/>
	<path class="st2" d="M706.51,1047.79c-26.32-5.53-52.37-12.4-77.99-20.58c-18.7-5.97-37.38-12.72-54.27-22.87
		c-6.76-4.06-14.24-8.46-19.78-14.03c-7.23-7.26-12.96-15.35-21.04-21.91c-1.83-1.49-3.84-2.98-6.19-3.24
		c-2.35-0.26-5.05,1.23-5.24,3.58c-0.14,1.71,1,3.23,2.08,4.56c20.12,24.71,41.5,50.39,71.02,62.4c21.03,8.56,44.31,9.35,66.47,14.3
		c17.49,3.9,34.98,10.48,52.78,8.38c2.27-1.64,1.81-5.41-0.18-7.38C712.16,1049.02,709.25,1048.37,706.51,1047.79z"/>
	<path class="st1" d="M1002.43,1014.17c-10.9-0.32-21.8-1.38-32.68-0.73c-5.69,0.34-11.49,1.19-16.54,3.84
		c-5.05,2.65-9.28,7.37-10.12,13.01c9.29,5.98,21.4,3.51,32.3,1.67c15.32-2.59,30.93-3.48,46.45-2.65
		c8.76,0.47,17.58,1.48,26.26,0.22c7.73-1.12,15.09-4,22.16-7.33c9.1-4.29,19.55-9.23,26.99-16.06c-3.84-3.84-16.06,0.7-21.2,1.56
		c-8.22,1.37-16.45,2.63-24.71,3.68C1035.12,1013.42,1018.77,1014.65,1002.43,1014.17z"/>
	<path class="st1" d="M1159.42,998.67c20.99-5.01,40.1-17.52,53.08-34.75c2.67-3.54,5-8.84,1.91-12.02
		c-1.36-1.4-3.42-1.88-5.37-1.99c-9.15-0.51-17.25,5.42-24.47,11.06c-17.15,13.39-36.89,25.88-52.33,41.15
		C1135.22,1006.17,1154.39,999.87,1159.42,998.67z"/>
	<path class="st1" d="M1239.88,912.63c0.88,0.6,2.09,0.02,2.9-0.68c2.83-2.43,4.23-6.51,3.24-10.1c-0.99-3.6-4.46-6.44-8.19-6.46
		c-3.73-0.02-7.32,2.98-7.73,6.69c-0.31,2.78,1.05,5.56,3.05,7.51c2,1.95,4.59,3.19,7.2,4.19c0.23-0.65,0.46-1.31,0.69-1.96"/>
	<path class="st1" d="M1239.83,961.69c3.36-2.74,6.65-5.89,8.07-9.98c1.42-4.1,0.38-9.34-3.37-11.51
		c-3.49-2.02-8.24-0.68-10.94,2.32c-2.7,2.99-3.64,7.23-3.57,11.26c0.06,3.92,0.81,8.05,2.41,11.59
		C1235.16,964.78,1237.66,963.46,1239.83,961.69z"/>
	<path class="st1" d="M986.37,1060.5c3.67,0.22,7.4,0.49,10.98-0.38c3.57-0.86,7.03-3.08,8.4-6.48c0.28-0.69,0.47-1.45,0.39-2.19
		c-0.3-2.59-3.47-3.62-6.06-3.91c-11.77-1.32-23.52,0.67-35.07,2.77c-8.6,1.57-22.16,1.15-29.62,4.87
		c3.9,4.66,11.49,4.73,17.11,4.76C963.81,1060.01,975.06,1059.82,986.37,1060.5z"/>
	<path class="st1" d="M986.18,914.27c-0.38,0.45-0.71,0.98-0.76,1.57c-0.13,1.65,1.84,2.57,3.47,2.88
		c7.04,1.32,14.28,0.11,21.44,0.2c9.14,0.12,18.19,2.36,27.32,1.95c9.72-0.43,19.03-3.84,28.15-7.22c2.27-0.84,4.57-1.69,6.51-3.12
		c0.52-0.39,1.07-0.93,0.97-1.58c-0.14-0.89-1.29-1.12-2.18-1.14c-18.09-0.37-36.17,0.67-54.23,1.7
		c-6.07,0.35-12.17,0.88-18.25,0.92C994.35,910.46,989.13,910.72,986.18,914.27z"/>
	<path class="st1" d="M557.88,917.27c-2.81-3.79-7.47-6.14-12.19-6.13c-0.95,0-1.93,0.1-2.8,0.49c-1.74,0.78-2.8,2.67-3.01,4.57
		c-0.21,1.9,0.3,3.8,0.99,5.58c2.18,5.59,6.13,10.3,10.1,14.8c1.32,1.49,2.7,3.02,4.53,3.8C566.71,945.15,560.64,921,557.88,917.27z
		"/>
	<path class="st1" d="M514.53,904.98c-0.87,0.8-1.36,1.94-1.62,3.1c-0.83,3.82,0.73,7.74,2.49,11.23c0.77,1.54,1.63,3.11,3.02,4.12
		c1.39,1.01,3.45,1.31,4.79,0.23c1.23-0.99,1.49-2.8,1.13-4.33c-0.36-1.53-1.21-2.89-1.88-4.32
		C520.86,911.6,521.51,898.58,514.53,904.98z"/>
	<path class="st1" d="M387.03,670.8c-2.87,2.2-3.75,6.5-2.27,9.8c1.47,3.3,5,5.48,8.61,5.69c1.21,0.07,2.51-0.08,3.48-0.81
		c1.69-1.26,1.85-3.7,1.65-5.8C397.94,673.99,394.29,665.22,387.03,670.8z"/>
	<path class="st1" d="M364.79,542.89c-1.33-0.09-2.72-0.08-3.92,0.5c-2.08,1.02-3.04,3.67-2.54,5.94c0.5,2.27,2.18,4.13,4.15,5.35
		c1.97,1.23,4.22,1.9,6.45,2.56c0.99,0.29,2,0.59,3.03,0.52c4.92-0.35,4.83-6.2,2.97-9.41C372.81,544.71,368.9,543.17,364.79,542.89
		z"/>
	<path class="st1" d="M366.31,574.76c-1.05-0.33-2.1-0.63-3.17-0.9c-1.99-0.51-4.38-0.83-5.87,0.59c-1.14,1.09-1.32,2.93-0.78,4.41
		c0.54,1.49,1.67,2.68,2.86,3.72c1.31,1.15,2.83,2.2,4.56,2.37c1.73,0.17,3.68-0.83,4.04-2.53c0.61-2.91-3.33-4.92-3.61-7.88"/>
	<path class="st1" d="M570.84,369.81c-2.93,0.8-5.14,3.36-6.2,6.21s-1.13,5.96-1,8.99c0.25,5.62,1.18,11.2,2.76,16.6
		c1.2,4.11,3.26,8.59,7.33,9.91c0.44,0.14,0.93,0.24,1.36,0.07c0.44-0.17,0.73-0.57,0.98-0.96c4.66-7.2,3.76-16.52,2.69-25.03
		C578.31,381.92,576.84,368.17,570.84,369.81z"/>
	<path class="st1" d="M550.59,418.33c-0.94,1.67-1.1,3.67-1.07,5.58c0.03,2.4,0.32,4.8,0.85,7.15c0.55,2.39,1.93,5.16,4.38,5.2
		c1.63,0.02,3.03-1.31,3.61-2.84c0.58-1.52,0.52-3.21,0.44-4.83C558.55,423.06,558.77,410.16,550.59,418.33z"/>
	<path class="st1" d="M500.93,406.68c0.2,1.2,0.51,2.57,1.58,3.16c1.23,0.67,2.85-0.16,3.52-1.39c0.67-1.23,0.64-2.71,0.56-4.11
		c-0.15-2.91-0.97-21.54-5.06-20.23C496.83,385.62,500.38,403.32,500.93,406.68z"/>
	<path class="st1" d="M535.06,427.38c-0.17,3.43,0.27,6.89,1.28,10.17c0.44,1.45,1.05,2.93,2.22,3.88c1.18,0.95,3.07,1.16,4.14,0.09
		c0.6-0.6,0.82-1.47,1-2.29c0.93-4.43,1.86-12.91-0.9-16.93C539.26,417.14,535.27,423.07,535.06,427.38z"/>
	<path class="st1" d="M502.31,429.14c-2.81,0.48-4.54,3.63-4.35,6.48s1.83,5.38,3.59,7.63c2.85-3.93,1.62-9.4-0.08-13.95
		c-0.07-0.18-0.18-0.39-0.37-0.38c-0.19,0.01-0.12,0.41,0.03,0.29"/>
	<path class="st1" d="M483.74,413.15c-0.71,4.1-0.69,8.33,0.08,12.42c0.26,1.38,0.63,2.8,1.52,3.9s2.43,1.77,3.75,1.27
		c1.62-0.62,2.19-2.6,2.4-4.32c0.55-4.57,0.18-9.8-1.62-14.1C487.95,407.74,484.65,407.91,483.74,413.15z"/>
	<path class="st1" d="M744.77,249.31c-2.07,1.29-3.08,3.78-3.54,6.18c-1.02,5.26-0.08,10.69,0.91,15.96
		c0.26,1.37,0.6,2.87,1.71,3.72c1.49,1.13,3.78,0.5,5.03-0.89c1.25-1.39,1.7-3.32,2.01-5.16
		C751.5,265.5,754.38,243.32,744.77,249.31z"/>
</g>
</svg>
