<?xml version="1.0" encoding="utf-8"?>
<!-- Generator: Adobe Illustrator 25.4.1, SVG Export Plug-In . SVG Version: 6.00 Build 0)  -->
<svg version="1.1" id="Layer_1" xmlns="http://www.w3.org/2000/svg" xmlns:xlink="http://www.w3.org/1999/xlink" x="0px" y="0px"
	 viewBox="0 0 606 740" style="enable-background:new 0 0 606 740;" xml:space="preserve">
<style type="text/css">
	.st0{fill:#D4D4F9;}
	.st1{fill:#FFFFFF;}
	.st2{fill:#DDDEE2;}
	.st3{fill:#FBC5FF;}
	.st4{fill:#EE7FF4;}
	.st5{fill:none;}
	.st6{fill:#FFFDFF;}
</style>
<g>
	<path class="st0" d="M421.75,131.8c-4.29,16.61-5.54,35.39,3.67,49.86c1.89,2.97,4.33,5.8,7.63,7.04
		c3.87,1.46,8.37,0.45,11.79-1.89s5.87-5.84,7.77-9.51c6.42-12.4,7-27.67,1.54-40.53c-1.55-3.64-3.54-7.07-5.23-10.65
		c-3.17-6.68-5.26-13.78-7.22-20.88c-1.51-5.48-2.34-14.9-6-19.22c-4.16,2.74-4.85,15.49-6.21,20.08
		C426.96,114.69,423.99,123.14,421.75,131.8z"/>
	<path class="st1" d="M428.53,147.8c-0.64,3.14-1.28,6.34-0.98,9.53c0.3,3.19,1.67,6.43,4.32,8.24c1.06,0.72,2.4,1.2,3.62,0.82
		c2.02-0.63,2.72-3.27,2.15-5.3c-0.57-2.04-2-3.7-3.02-5.55c-4.19-7.57,0.38-16.43-2.77-23.67
		C430.41,137.04,429.6,142.5,428.53,147.8z"/>
	<g>
		<path class="st2" d="M262.29,622.73c-39.48-3.59-77.69-17.1-111.69-37.63c0.14,41.56,0.46,47.64-0.05,54.17
			c-0.07,0.86-0.32,3.9,0,7.9c0,0,0.99,12.31,7.9,23.69c5.04,8.3,15,16.74,39.48,25.66c13.64,4.97,36.97,11.97,69.09,13.82
			c7.91,0.45,34.25,1.62,63.17-3.95c4.28-0.82,23.74-4.71,43.43-13.82c2.17-1.01,3.13-1.51,3.95-1.97
			c16.65-9.43,22.01-27.58,23.69-33.56c0.74-2.64,1.56-6.14,1.97-29.61c0.28-15.42,0.17-27.45,0.06-38.73
			C362.23,615.81,311.36,627.2,262.29,622.73z"/>
		<path class="st2" d="M458.49,56.94c-1.45-4.43-6.2-4.55-19.74-9.87c-10.06-3.95-13.16-6.08-19.74-7.9
			c-0.83-0.23-3.04-0.82-5.92-1.97c-4.56-1.82-7.63-3.79-7.9-3.95c-12.67-7.65-150.38-1.97-155.95-1.97c-2.97,0-3.95,0-3.95,0
			c-7.87,0-7.82-0.01-7.9,0c-6.62,1.07-7.65,18.28-11.84,39.48c-0.2,1.02-0.65,3.24,0,5.92c1.38,5.71,6.67,9.09,7.9,9.87
			c2.31,1.47,2.59,1.02,3.95,1.97c6.58,4.64,3.74,17.99,0,35.53c-0.18,0.86-0.57,2.56-1.97,3.95c-2.5,2.46-5.61,1.1-7.9,1.97
			c-9.8,3.77-3.95,48.12-3.95,57.25c0,3.93,0,3.95,0,3.95c-0.13,4.54-0.58,5.23,0,5.92c1.69,2.02,7.15-2.17,9.87,0
			c2,1.6,2.02,6.24,0,7.9c-2.62,2.15-7.15-2-9.87,0c-3.01,2.22,0.93,8.47-1.97,11.84c-2.84,3.3-8.86-0.07-19.74,0
			c-1.2,0.01-10.59,0.13-19.74,3.95c-10.69,4.46-16.88,12.14-19.74,15.79c-7.63,9.73-10.87,20.64-12.76,35.35
			c10.91,3.9,22.09,7.09,33.41,9.61c1.33-10.23,3.71-20.27,9.08-28.97c5.19-8.41,42.59-35.79,47.02-12.39
			c1.58,8.36-17.48,19.07-22.77,24.06c-6.51,6.16-12.62,12.84-17.45,20.37c42.03,6.91,85.17,5.01,127.21-1.88
			c26.3-4.31,52.63-10.75,77.08-21.15c0-1.31,0-1.32,0-1.32c0.04-0.54,0.16-2,0-3.95c-0.45-5.66-2.75-9.77-3.95-11.84
			c-4.08-7.11-12.42-15.05-23.69-19.74c-2.41-1-8.13-3.3-15.79-3.95c-4.17-0.35-6.74-0.03-21.71,0c-0.88,0-2.61,0.86-3.95,0
			c-2.19-1.4-2.04-5.93-1.97-7.9c0.12-3.46,0.97-5.07,0-5.92c-0.71-0.62-1.71-0.24-3.95,0c-4.65,0.5-5.44,0.54-5.92,0
			c-0.52-0.59-0.03-1.17,0-3.95c0.03-2.9-0.49-3.33,0-3.95c0.31-0.39,1.06-0.9,7.9,0c2.53,0.33,3.32,0.52,3.95,0
			c1.53-1.26,0.25-5.11,0-5.92c-3.72-12.08-3.29-39.08-1.97-47.38c0.16-0.99,0.7-4.04,0-7.9c-0.56-3.07-0.59-4.87-1.97-5.92
			c-1.67-1.27-3.49-0.32-5.92-1.97c0,0-1.01-0.69-1.97-1.97c-4.43-5.89,1.06-20.46-1.97-31.58c-0.23-0.84-0.72-2.43,0-3.95
			c1.55-3.28,7.56-3.76,9.87-3.95c2.32-0.19,2.95,0.62,3.95,0c0.43-0.27,1.63-1.19,1.97-7.9c0.25-4.9-0.37-5,0-5.92
			c2.34-5.87,25.39-0.42,57.25,0c4.09,0.05,5.28-0.29,7.9,0c11.14,1.23,24.69,8.05,29.61,15.79c0.3,0.48,0.86,1.41,1.97,1.97
			c4.58,2.33,12.41-4.66,13.82-5.92c9.67-8.64,11.32-20.05,11.84-23.69C459.07,58.87,458.66,57.47,458.49,56.94z"/>
		<path class="st3" d="M179.37,406.35c2.24-24.59,4.47-49.18,6.71-73.76c1.17-12.86,2.4-25.95,7.43-37.85
			c1.51-3.56,3.36-6.91,5.42-10.13c-0.1-0.02-0.21-0.03-0.31-0.05c-5.22-0.86-10.41-1.89-15.58-3.03
			c-0.55,4.22-0.93,8.47-1.25,12.68C178.88,331.5,178.07,368.96,179.37,406.35z"/>
		<path class="st1" d="M198.93,284.61c4.82-7.53,10.94-14.22,17.45-20.37c5.28-5,24.35-15.71,22.77-24.06
			c-4.42-23.41-41.82,3.98-47.02,12.39c-5.38,8.7-7.75,18.74-9.08,28.97c5.17,1.15,10.36,2.17,15.58,3.03
			C198.72,284.58,198.82,284.59,198.93,284.61z"/>
		<g>
			<path class="st4" d="M403.22,582.02c0,0,0,0,0-37.51c0-22.37,0-44.74,0-67.12c0-21.71,0-43.43,0-65.14c0-21.71,0-43.43,0-65.14
				c0-19.74,0-39.48,0-59.22c0-17.63,0-24.01,0-26.32c-9.98,4.25-20.29,7.81-30.76,10.86c1.87,11.79,1.87,24.24,2.17,31.27
				c1.84,43.9-6.61,87.45-7.09,131.26c0.15,7.07,0.3,14.15,0.45,21.22c-0.42-7.08-0.53-14.16-0.45-21.22
				c-0.48-22.49-0.96-44.97-1.44-67.46c-0.55-26.08-1.16-52.67-8.46-77.91c-0.63-2.18-2.72-6.67-5.05-12.02
				c-8.77,2-17.61,3.71-26.44,5.16c-42.04,6.88-85.18,8.79-127.21,1.88c-2.06,3.22-3.91,6.57-5.42,10.13
				c-5.03,11.89-6.26,24.99-7.43,37.85c-2.24,24.59-4.47,49.18-6.71,73.76c-1.3-37.39-0.49-74.85,2.41-112.14
				c0.33-4.21,0.7-8.46,1.25-12.68c-11.32-2.52-22.5-5.7-33.41-9.61c-0.41,3.17-0.75,6.5-1.06,10.05c-2.42,27.76-1.09,48.24,0,71.06
				c0.91,19.07,1.18,38.17,1.97,57.25c1.18,28.36,0.1,24.31,0,122.39c-0.02,21.97,0.01,39.03,0.05,52.43
				c34,20.53,72.2,34.04,111.69,37.63c49.08,4.47,99.94-6.92,140.99-34.04C403.26,586.45,403.23,584.23,403.22,582.02z"/>
			<path class="st1" d="M355.2,243.59c-18.2-4.28-9.37,18.5-2.62,33.98c6.68-1.52,13.31-3.22,19.87-5.13
				C370.3,258.8,365.65,246.05,355.2,243.59z"/>
			<path class="st3" d="M366.1,367.5c0.48,22.49,0.96,44.97,1.44,67.46c0.47-43.81,8.93-87.36,7.09-131.26
				c-0.29-7.03-0.3-19.48-2.17-31.27c-6.56,1.91-13.2,3.61-19.87,5.13c2.33,5.35,4.42,9.84,5.05,12.02
				C364.94,314.83,365.54,341.43,366.1,367.5z"/>
			<path class="st4" d="M367.99,456.19c-0.15-7.07-0.3-14.15-0.45-21.22C367.46,442.03,367.57,449.1,367.99,456.19z"/>
		</g>
	</g>
	<path class="st5" d="M228.09,203.59c2.06-0.03,4.12-0.06,6.18-0.09c-0.73,0.41-1.46,0.82-2.19,1.22"/>
	<path class="st5" d="M329.67,205.99c-2.03-0.56-4.13-0.86-6.24-0.91c-0.81,1.15-2.54,1.52-3.75,0.81"/>
	<path class="st1" d="M263.94,306.53c-0.01-2.27-0.44-4.59-1.56-6.51c-1.97-3.39-5.74-5-9.36-5.89c-4.52-1.1-9.63-1.26-13.38,1.67
		c-2.78,2.17-4.35,5.73-5.21,9.31c-1.37,5.73-1.14,11.89,0.64,17.48c1.59,5,4.38,9.49,5.8,14.55c1.33,4.73,1.39,9.86,0.19,14.63
		c-1.47,5.83-4.74,10.97-6.36,16.76s-1.03,13.1,3.66,16.43c3.77,2.68,8.92,1.78,12.87-0.57s7.13-5.93,10.74-8.86
		c3.61-2.93,8.03-5.28,12.49-4.53c4.88,0.83,8.53,5.07,12.65,8c5.23,3.72,11.78,5.44,17.93,4.1s11.73-5.9,14.09-12.16
		c2.35-6.26,1.13-14.04-3.39-18.73c-6.31-6.55-16.65-5.67-24.73-2.02s-15.25,9.57-23.67,12.19c-2.56,0.8-5.59,1.18-7.64-0.66
		c-1.1-0.98-1.71-2.44-2.28-3.85c-1.78-4.37-4.89-9.21-6.01-13.78c-1-4.09,1.12-8.77,2.77-12.36
		C257.93,323.66,263.94,316,263.94,306.53z"/>
	<path class="st6" d="M258.4,434.08c-2.23-4.06-2.14-8.89-0.3-13.09c1.66-3.79,4.63-7.07,6.62-10.74c1.99-3.68,2.88-8.21,0.35-11.64
		c-2.66-3.6-8.47-4.82-13.3-3.73c-4.83,1.09-8.8,4.03-12.05,7.26c-4.14,4.1-7.53,9.91-4.69,14.75c1.91,3.27,6.14,5.07,8.64,8.04
		c6.68,7.91-1.47,19.27,1.85,28.59c1.82,5.09,7.04,8.98,12.95,10.73c5.91,1.75,12.41,1.57,18.53,0.46
		c13.84-2.51,27.45-11.43,28.3-23.45c0.25-3.57-0.63-7.13-0.67-10.7c-0.04-3.57,0.94-7.43,4.11-9.78c1.92-1.41,4.43-2.13,6.38-3.51
		c4.07-2.9,4.72-7.93,5.08-12.45c0.16-2.1,0.31-4.31-0.76-6.21c-1.42-2.53-4.71-3.96-7.95-4.46c-9.82-1.52-20.35,4.92-21.78,13.32
		c-1.49,8.78,5.71,17.85,2.35,26.25C287.26,445.71,264.19,444.64,258.4,434.08z"/>
	<path class="st6" d="M236.66,564.06c1.44,1.87,3.73,3.38,5.52,5.11c4.71,4.56,5.61,10.74,2.3,15.82c-1.82,2.79-4.75,5.18-6.89,7.87
		c-2.14,2.68-3.45,5.93-1.73,8.74c1.86,3.03,6.72,4.76,11.45,5.69c1.96,0.39,4,0.68,6.04,0.55c2.82-0.19,5.35-1.18,7.97-1.91
		c6.78-1.9,14.61-2.1,21.58-0.54c5.43,1.22,10.42,3.46,16.12,3.87c7.38,0.52,15.01-2.54,17.74-7.13c2.07-3.48,1.1-7.89-3.24-10.29
		c-3.52-1.94-8.51-2.26-13.02-1.78c-4.51,0.49-8.77,1.68-13.19,2.47c-4.41,0.79-9.23,1.17-13.47,0.05s-7.61-4.14-6.68-7.1
		c0.22-0.71,0.68-1.39,1.44-1.91c2.05-1.39,5.6-1.12,8.18-0.2s4.68,2.36,7.31,3.22c5.5,1.81,12.83,0.49,16.34-2.85
		c3.51-3.34,2.89-8.28-1.28-11.27c-4.17-2.99-11.41-3.8-16.9-1.98c-3.92,1.3-7.82,3.84-11.93,2.84c-2.77-0.67-4.2-2.92-3.51-4.82
		c0.7-1.9,3.14-3.37,5.91-4.03s5.82-0.62,8.72-0.31c2.34,0.25,4.64,0.68,6.85,1.27c3.9,1.04,7.52,2.59,11.61,3.23
		c9.16,1.44,19.48-2.68,21.87-8.72c2.39-6.04-3.54-12.98-12.59-14.72c-5.37-1.03-11.17-0.38-16.46,0.82
		c-5.29,1.2-10.28,2.92-15.58,4.1c-4.91,1.1-10.89,1.74-15.7,0.08c-4.46-1.55-6.69-5.78-12.59-4.66
		C238.53,547.53,231.92,557.89,236.66,564.06z"/>
	<path class="st1" d="M240.96,477.48c-5.57,2.74-8.85,8.08-5.33,12.02c2.67,3,8.35,4.37,11.18,7.3c4.09,4.22,0.83,9.79-3.15,14.05
		c-3.98,4.27-8.84,8.82-7.69,13.77c1.52,6.53,12.61,10.01,22.52,11.16c11.51,1.34,23.46,1.06,34.8-0.81
		c7.57-1.25,15.57-3.63,18.69-8.32c3.75-5.64-1.78-12.67-10.33-15.18c-2.59-0.76-5.43-1.2-7.81-2.22c-2.38-1.02-4.28-2.88-3.57-4.68
		c0.37-0.95,1.38-1.72,2.47-2.39c4.59-2.84,10.73-4.3,16.04-6.53c5.31-2.24,10.16-5.88,9.51-10c-0.79-5-8.97-7.89-16.31-9.33
		C285.44,473.06,256.11,470.04,240.96,477.48z"/>
	<path class="st4" d="M295.07,486.76c-1.62,0.25-3.22,0.81-4.57,1.74c-1.94,1.33-3.3,3.34-4.57,5.32c-0.57,0.89-1.14,1.81-1.31,2.85
		s0.15,2.23,1.05,2.79c0.57,0.35,1.27,0.41,1.94,0.4c3.95-0.03,7.71-1.69,11.14-3.65c2.2-1.26,5.66-3.87,4.6-6.9
		C302.3,486.36,297.54,486.38,295.07,486.76z"/>
	<path class="st4" d="M293.09,520.32c-1.62,0.25-3.22,0.81-4.57,1.74c-1.94,1.33-3.3,3.34-4.57,5.32c-0.57,0.89-1.14,1.81-1.31,2.85
		c-0.17,1.04,0.15,2.23,1.05,2.79c0.57,0.35,1.27,0.41,1.94,0.4c3.95-0.03,7.71-1.69,11.14-3.65c2.2-1.26,5.66-3.87,4.6-6.9
		C300.32,519.91,295.57,519.94,293.09,520.32z"/>
</g>
</svg>
