<?xml version="1.0" encoding="utf-8"?>
<!-- Generator: Adobe Illustrator 25.4.1, SVG Export Plug-In . SVG Version: 6.00 Build 0)  -->
<svg version="1.1" id="Layer_1" xmlns="http://www.w3.org/2000/svg" xmlns:xlink="http://www.w3.org/1999/xlink" x="0px" y="0px"
	 viewBox="0 0 650 1500" style="enable-background:new 0 0 650 1500;" xml:space="preserve">
<style type="text/css">
	.st0{fill:#D2C0C2;}
	.st1{fill:none;}
	.st2{fill:#FFFFFF;}
	.st3{fill:#A5A5A5;}
	.st4{fill:#C4C4C4;}
	.st5{fill:#6B6B6B;}
	.st6{fill:#050504;}
	.st7{fill:#747474;}
	.st8{fill:#CBCCCC;}
	.st9{fill:#F8F8F2;}
</style>
<g>
	<path class="st0" d="M166.31,1160.17c1.49,9.04,2.23,13.56,3.25,16.3c2.94,7.87,7.27,12.99,11.39,17.79
		c2.93,3.41,10.98,12.26,22.78,19.27c11.31,6.72,23.61,10.29,50.43,13.34c7.53,0.85,33.45,3.63,81.34,2.96
		c23.14-0.32,39.25-1.27,55.31-2.96c23.5-2.48,35.16-5.29,45.55-8.89c12.97-4.5,23.4-8.24,32.54-17.79
		c9.46-9.88,12.95-21.18,14.64-26.68c1.92-6.22,4.42-14.33,3.25-19.27c-9.2-38.89-276.42-7.46-309.09-13.34
		c-1.5-0.27-8.07-1.62-11.39,1.48C164.43,1144.14,164.11,1146.82,166.31,1160.17z"/>
	<g>
		<path class="st1" d="M260.63,1048.43c-1.81,0.02-3.16,0.4-3.67,1.36c-0.22,0.42-0.19,1.12,0.01,1.99
			C258.29,1050.87,259.59,1049.75,260.63,1048.43z"/>
		<path class="st1" d="M395.72,1053.27c0.76-0.83,1.49-1.7,2.12-2.64c-1.35,0.35-2.7,0.7-4.05,1.05
			C394.33,1052.28,394.96,1052.8,395.72,1053.27z"/>
		<path class="st1" d="M297.69,1154.49c-9.53,0.04-20.9,0.04-33.35-0.07c0.55,1.83,1.52,3.44,3.29,4.4c1.75,0.95,3.9,1.02,5.94,1.04
			c7,0.04,14-0.27,20.96-0.94c2.79-0.27,5.76-0.67,7.84-2.38c0.66-0.54,1.16-1.18,1.56-1.86c-1.19,0.1-2.39,0.19-3.58,0.3
			C299.42,1155.06,298.51,1154.87,297.69,1154.49z"/>
		<path class="st2" d="M279.47,724.45c1.21-0.04,2.41-0.08,3.62-0.12c2.12-0.83,4.22-1.69,6.31-2.56
			c9.88-4.15,20.49-9.5,23.95-18.89c2.86-7.76,0.03-16.19-2.81-23.96c-9.26-25.31-18.72-50.55-28.3-75.76
			c-1.27,6.37-2.54,12.74-3.81,19.11c-5.59,27.85-15.08,57.1-16.63,85.4c-0.48,8.77,1.12,15.26,4.62,20.04
			C268.25,723.92,274.68,724.61,279.47,724.45z"/>
		<path d="M313.34,702.88c-3.46,9.39-14.07,14.75-23.95,18.89c-2.08,0.87-4.19,1.73-6.31,2.56c15.66-0.51,31.31-0.94,46.96-1.65
			c18.62-0.85,37.23-2,55.78-3.69c6.83-0.62,15.2-0.59,19.46,3.75c-26.95-95.56-57.22-190.35-90.83-284.14
			c3.41,9.49-6.37,33.07-8.34,43.24c-3.06,15.76-6.13,31.52-9.22,47.28c-4.84,24.69-9.74,49.37-14.67,74.05
			c9.58,25.21,19.04,50.45,28.3,75.76C313.37,686.69,316.2,695.13,313.34,702.88z"/>
		<path d="M408.12,732.69c-0.16-0.56-0.32-1.12-0.48-1.68c-0.12,0.63-0.29,1.25-0.5,1.88C407.47,732.82,407.79,732.76,408.12,732.69
			z"/>
		<path class="st3" d="M406.84,724.85c-0.42-0.8-0.94-1.5-1.55-2.11c0.78,2.76,1.58,5.51,2.35,8.27
			C408.03,728.91,407.88,726.82,406.84,724.85z"/>
		<path class="st3" d="M266.4,727.72c-0.31,0.64-0.51,1.4-0.52,2.33c0.67-0.17,1.33-0.34,2-0.52
			C267.35,728.95,266.86,728.34,266.4,727.72z"/>
		<path class="st4" d="M326.93,784.19c1.72-0.01,3.39,0.51,5.01,1.04c8.45,2.76,16.79,5.8,25.01,9.08
			c16.83-16.56,32.17-34.38,45.71-53.28c1.78-2.49,3.55-5.29,4.5-8.14c-36.14,7.57-73.87,10.04-110.81,6.86
			c-13.05-1.13-22.71-3.98-28.46-10.23c-0.66,0.18-1.33,0.35-2,0.52c0,0.01,0,0.01,0,0.02c-0.08,5.18,8.64,14.21,11.63,18.53
			c10.06,14.53,21.03,28.53,32.83,41.92c3.45-1.51,6.9-3.03,10.35-4.55C322.67,785.1,324.73,784.21,326.93,784.19z"/>
		<path class="st2" d="M283.09,724.34c-1.21,0.04-2.41,0.08-3.62,0.12c-4.79,0.16-11.22-0.53-13.06,3.26
			c0.46,0.63,0.95,1.24,1.47,1.81C273.04,728.1,278.11,726.3,283.09,724.34z"/>
		<path class="st4" d="M385.83,718.99c-18.55,1.69-37.16,2.84-55.78,3.69c-15.65,0.72-31.31,1.14-46.96,1.65
			c-4.98,1.96-10.05,3.77-15.21,5.19c5.75,6.25,15.41,9.1,28.46,10.23c36.94,3.18,74.67,0.71,110.81-6.86
			c0.21-0.62,0.38-1.25,0.5-1.88c-0.77-2.76-1.57-5.51-2.35-8.27C401.03,718.4,392.66,718.37,385.83,718.99z"/>
		<path class="st1" d="M387.78,810.32c-0.13,0.22-0.21,0.42-0.27,0.64c1.76-0.15,3.53-0.26,5.3-0.32c-1.14-0.59-2.29-1.15-3.43-1.73
			C388.69,809.25,388.16,809.68,387.78,810.32z"/>
		<path class="st5" d="M333.92,815.39c-8.19-8.03-16.05-16.33-23.58-24.88c-8.21,3.6-16.44,7.15-24.77,10.49
			c-5.71,2.29-11.49,4.42-17.28,6.54c-8.47,3.1-5.51,4.07,1.95,5.3c20.06,3.29,40.52,5.83,60.93,5.3c4.76-1.77,12.42-2.58,15.28-1.4
			c0.21,0.09,0.38,0.21,0.57,0.32c0.94-0.11,1.88-0.2,2.83-0.32c12.61-1.63,25.02-4.71,37.67-5.78c0.06-0.21,0.14-0.42,0.27-0.64
			c0.38-0.64,0.91-1.07,1.6-1.41c-10.56-5.32-21.38-10.19-32.43-14.6C349.55,801.59,341.89,808.64,333.92,815.39z"/>
		<path class="st5" d="M356.94,794.31c-8.22-3.28-16.56-6.32-25.01-9.08c-1.62-0.53-3.28-1.06-5.01-1.04
			c-2.2,0.02-4.26,0.9-6.23,1.77c-3.45,1.52-6.9,3.03-10.35,4.55c7.53,8.55,15.39,16.85,23.58,24.88
			C341.89,808.64,349.55,801.59,356.94,794.31z"/>
		<path class="st6" d="M355.01,1025.42c-6.35-59.29-8.2-118.98-5.54-178.5c0.35-7.76,0.77-15.53,0.36-23.28
			c-0.13-2.44-0.67-5.27-2.82-6.57c-5.27,0.59-10.56,0.94-15.84,1.08c-0.48,0.18-0.93,0.37-1.34,0.57
			c-0.04,0.02-0.08,0.04-0.13,0.06c-0.39,0.2-0.76,0.4-1.08,0.61c-0.15,0.1-0.3,0.21-0.44,0.31c-0.17,0.14-0.34,0.28-0.47,0.42
			c-3.37,3.71-1.35,12.17-1.21,16.43c0.58,17.14,1.17,34.28,1.75,51.42c1.17,34.28,2.34,68.56,3.5,102.84
			c0.64,18.82,1.35,37.64,1.92,56.46c0.07,2,0.15,4.05,1,5.9c0.21,0.46,0.47,0.89,0.76,1.3c0.22,0.3,0.48,0.58,0.74,0.85
			c0.08,0.09,0.15,0.19,0.24,0.28c0.35,0.34,0.73,0.66,1.14,0.96c0.01,0,0.01,0.01,0.02,0.01c0.32,0.23,0.67,0.44,1.02,0.64
			c1.89,0.28,3.78,0.55,5.68,0.74c2.92,0.29,5.85,0.4,8.77,0.38c1.89-0.45,3.75-1.01,5.59-1.58
			C357.39,1046.32,356.13,1035.87,355.01,1025.42z"/>
		<path class="st6" d="M344.29,1057.96c-1.9-0.19-3.79-0.46-5.68-0.74c0.1,0.06,0.2,0.13,0.3,0.19c0,0,0,0,0,0h0
			c1.92,0.17,3.7,0.58,5.11,1.65c0.52,0.07,1.04,0.13,1.55,0.15c2.53,0.11,5.02-0.27,7.48-0.86
			C350.14,1058.36,347.22,1058.25,344.29,1057.96z"/>
		<path class="st5" d="M346.44,816.75c-2.86-1.18-10.52-0.37-15.28,1.4c5.29-0.14,10.57-0.49,15.84-1.08
			C346.83,816.95,346.65,816.84,346.44,816.75z"/>
		<path class="st6" d="M339.79,1057.83c0.16,0.07,0.31,0.14,0.47,0.21c0.28,0.11,0.56,0.22,0.85,0.31c0.2,0.07,0.4,0.13,0.61,0.19
			c0.27,0.08,0.54,0.16,0.81,0.22c0.25,0.06,0.49,0.1,0.74,0.15c0.25,0.05,0.5,0.1,0.75,0.14h0c-1.41-1.06-3.19-1.48-5.11-1.65
			C339.2,1057.56,339.5,1057.7,339.79,1057.83z"/>
		<path class="st3" d="M269.78,1111.27c0.11-0.08,0.21-0.17,0.32-0.24c3.14-2.02,8.54-2.77,12.88-3.63
			c-2.47-3.39-4.02-7.43-5.5-11.32c-3.01-7.88-6.25-15.68-9.74-23.4c-1.39-3.07-9.53-15.54-10.75-20.9c-0.9,0.63-1.8,1.17-2.59,1.62
			c-10.08,5.68-17.63,5.3-32.54,10.38c-2.31,0.78-0.63,0.29-11.39,4.45c-4.41,1.71-16.1,6.23-27.66,10.38
			c-9.68,3.47-20.84,6.79-35.79,11.86c0,0-4.72,1.6-13.01,5.93c-3.15,1.64-4.69,2.62-5.89,3.8c10,2.58,20.67,3.4,31.1,4.15
			C195.89,1106.97,232.82,1109.56,269.78,1111.27z"/>
		<path class="st3" d="M280.16,1052.49c8.82,1.46,17.76,2.29,26.72,2.47c6.62,0.14,13.27-0.07,19.86,0.57
			c0.32,0.03,0.64,0.08,0.95,0.12c-0.31-0.23-0.61-0.48-0.88-0.78c-0.86-0.96-1.3-2.17-1.68-3.36c-6.53-20.21-3.14-41.79-2.21-62.84
			c2.33-53.02-11.43-106.3-3.81-158.91c0.42-2.9,0.98-5.96,3.05-8.21c1.55-1.68,4.23-2.64,6.47-2.17c0.32-0.21,0.68-0.42,1.08-0.61
			c0.04-0.02,0.08-0.04,0.13-0.06c0.41-0.2,0.85-0.39,1.34-0.57c-20.4,0.53-40.87-2.01-60.93-5.3c-7.46-1.23-10.42-2.2-1.95-5.3
			c5.79-2.12,11.57-4.25,17.28-6.54c8.33-3.34,16.56-6.9,24.77-10.49c-11.8-13.4-22.78-27.39-32.83-41.92
			c-2.99-4.31-11.71-13.35-11.63-18.53c0-0.01,0-0.01,0-0.02c-6.56,1.67-13.25,2.68-20.07,2.58c6.82,0.1,13.51-0.92,20.07-2.58
			c0.02-0.93,0.21-1.68,0.52-2.33c-3.5-4.78-5.1-11.27-4.62-20.04c1.56-28.3,11.04-57.55,16.63-85.4
			c1.28-6.37,2.54-12.74,3.81-19.11c-1.6-4.21-3.17-8.42-4.78-12.63c1.61,4.2,3.18,8.42,4.78,12.63
			c4.93-24.68,9.83-49.36,14.67-74.05c3.09-15.76,6.17-31.52,9.22-47.28c1.97-10.17,11.75-33.75,8.34-43.24
			c33.61,93.8,63.88,188.58,90.83,284.14c0.6,0.61,1.12,1.31,1.55,2.11c1.04,1.97,1.2,4.06,0.8,6.16c0.16,0.56,0.32,1.12,0.48,1.68
			c-0.32,0.07-0.65,0.13-0.97,0.2c-0.94,2.85-2.71,5.66-4.5,8.14c-13.54,18.9-28.88,36.72-45.71,53.28
			c11.05,4.41,21.87,9.29,32.43,14.6c1.18-0.59,2.81-0.91,4.91-1.55c0.22-0.07,3.4-1.53,9.76-4.45c4.67-2.14,14.96-7.42,26.03-14.82
			c2.33-1.56,12.08-8.15,24.4-19.27c9.65-8.7,21.18-19.1,32.54-35.57c13.06-18.94,18.9-35.78,21.15-42.98
			c4.6-14.74,5.79-26.56,6.51-34.09c0.29-3.03,1.53-16.81,0-35.57c-1.23-15.12-3.64-25.89-8.13-45.95
			c-1.61-7.18-4.1-18.22-8.13-32.61c-2.57-9.16-10.28-35.75-24.4-69.66c-9.88-23.72-18.92-41.49-22.78-48.91
			c-5.69-10.95-14.86-28.49-29.28-50.39c-7.69-11.69-13.44-19.4-24.4-34.09c0,0-20.05-26.89-37.42-45.95
			c-6.87-7.55-7.93-7.48-14.64-14.82c-0.6-0.65-1.61-1.77-3.25-2.96c-2.74-1.99-6.22-3.46-13.01-4.45c-9.21-1.33-16.6-0.63-22.78,0
			c-5.05,0.51-7.58,0.77-9.76,1.48c-8.61,2.81-13.21,9.29-16.27,13.34c-10.02,13.28,2.43-7.32-22.78,25.2
			c-21.79,28.1-32.54,44.46-32.54,44.46c-24.58,37.41-36.86,56.11-47.18,78.55c-12.08,26.29-19.54,50.6-27.66,77.07
			c-0.81,2.64-4.21,13.56-8.13,28.16c-6.92,25.73-10.38,38.6-11.39,53.36c-0.19,2.84-0.6,10.13-1.63,20.75
			c-0.75,7.72-1.42,13.09-1.63,14.82c-1.47,12.53-0.92,29.83,1.63,44.46c5.31,30.49,20.01,53.26,27.66,63.73
			c14.45,19.79,30.14,31.81,39.04,38.54c0,0,15.91,12.01,40.67,25.2c10.9,5.8,16.34,8.7,17.89,8.89c0.5,0.06,2.45,0.24,3.25,1.48
			c0.7,1.09,0.18,2.45,0,2.96c0,0,0,0,0,10.38c0,7.58,0,34.09,0,34.09c0,21.52,0.03,45.31,1.63,74.11
			c0.72,12.98,1.32,19.03,1.63,32.61c0.44,19.46-0.56,16.84,0,32.61c1.06,29.47,1.58,44.21,1.63,44.46c0.07,0.39,0.27,1.53,0,2.96
			c-0.28,1.48-0.98,2.78-1.88,3.93C266.39,1048.35,276.85,1051.95,280.16,1052.49z"/>
		<path class="st3" d="M380.59,1065.05c-13.69,11.03-19.3,27.91-25.02,43.72c-0.61,1.68-1.37,3.51-2.89,4.53
			c58.27-0.11,116.16-3.97,172.73-14.9c-1.45-1.67-4.14-2.39-7.49-3.49c-3.88-1.28-7.49-3.21-11.39-4.45
			c-10.41-3.3-6.89-2.91-29.28-10.38c-16.88-5.63-18.77-5.81-32.54-10.38c-11.77-3.9-19.82-7.49-29.28-10.38
			c-9.73-2.96-14.59-4.44-14.64-4.45c-1-0.13-2.9-0.33-4.88-1.48c-0.07-0.04-0.13-0.09-0.19-0.13
			C391.53,1057.85,385.56,1061.04,380.59,1065.05z"/>
		<path class="st3" d="M347.01,817.06c2.15,1.29,2.69,4.13,2.82,6.57c0.42,7.76-0.01,15.53-0.36,23.28
			c-2.66,59.52-0.81,119.21,5.54,178.5c1.12,10.46,2.38,20.9,3.64,31.34c-1.84,0.57-3.71,1.13-5.59,1.58
			c13.72-0.08,27.37-3.23,40.73-6.67c-1-1.1-1.78-2.47-2.75-4.21c-0.98-1.76-2.6-4.72-3.25-8.89c-0.56-3.58-0.15-6.36,0-7.41
			c0,0,0,0,0-28.16c0-7.41,0-14.82,0-22.23c0-22.23,0-44.46,0-66.7c0-24.7,0-49.41,0-74.11c0-5.93,0-11.86,0-17.79v-5.93
			c-0.2-3.04-0.58-4.24-0.27-5.29c-12.65,1.07-25.06,4.15-37.67,5.78C348.89,816.86,347.95,816.96,347.01,817.06z"/>
		<path class="st7" d="M277.47,1096.08c1.48,3.89,3.04,7.93,5.5,11.32c0.96-0.19,1.89-0.39,2.71-0.6c4.66-1.24,9.41-2.49,14.26-2.46
			c4.86,0.03,9.93,1.53,13.03,4.94c-1.25,0.88-2.1,2.07-2.72,3.39c0.93,0.04,1.88,0.1,2.87,0.17c13.2,0.32,26.38,0.49,39.55,0.46
			c1.51-1.02,2.28-2.85,2.89-4.53c5.72-15.81,11.34-32.7,25.02-43.72c4.97-4,10.93-7.2,15.13-11.78c-0.76-0.47-1.39-0.99-1.93-1.59
			c-13.36,3.43-27,6.59-40.73,6.67c-2.46,0.59-4.95,0.97-7.48,0.86c-0.52-0.02-1.03-0.08-1.55-0.15c0.11,0.09,0.24,0.15,0.35,0.25
			c-0.11-0.09-0.23-0.16-0.35-0.25h0c-0.25-0.04-0.5-0.09-0.75-0.14c-0.25-0.05-0.5-0.09-0.74-0.15c-0.27-0.07-0.54-0.14-0.81-0.22
			c-0.2-0.06-0.41-0.12-0.61-0.19c-0.29-0.1-0.57-0.2-0.85-0.31c-0.16-0.07-0.31-0.14-0.47-0.21c-0.3-0.13-0.6-0.27-0.88-0.42h0
			c-3.94-0.34-8.41,0.3-11.23-1.76c-0.32-0.04-0.63-0.09-0.95-0.12c-6.59-0.65-13.23-0.44-19.86-0.57
			c-8.96-0.19-17.9-1.02-26.72-2.47c-3.3-0.55-13.77-4.14-19.53-4.06c-1.04,1.32-2.35,2.44-3.66,3.35
			c1.22,5.36,9.36,17.83,10.75,20.9C271.21,1080.39,274.46,1088.2,277.47,1096.08z"/>
		<path class="st3" d="M282.97,1107.4c-4.34,0.86-9.74,1.61-12.88,3.63c-0.11,0.07-0.21,0.16-0.32,0.24
			c5.97,0.28,11.93,0.53,17.9,0.76c-0.3-0.21-0.61-0.41-0.9-0.64C285.27,1110.24,284.05,1108.87,282.97,1107.4z"/>
		<path class="st3" d="M310.26,1112.67c0.63-1.32,1.48-2.51,2.72-3.39c-3.1-3.41-8.17-4.9-13.03-4.94
			c-4.86-0.03-9.6,1.22-14.26,2.46c-0.82,0.22-1.75,0.41-2.71,0.6c1.07,1.47,2.3,2.84,3.8,3.99c0.29,0.23,0.6,0.43,0.9,0.64
			c6.01,0.23,12.02,0.43,18.02,0.61C307.09,1112.56,308.63,1112.59,310.26,1112.67z"/>
		<path class="st8" d="M526.06,1103.79c0.29-1.11,0.82-2.76,0-4.45c-0.17-0.35-0.4-0.66-0.65-0.95
			c-56.57,10.93-114.45,14.8-172.73,14.9c-0.24,0.16-0.5,0.31-0.78,0.43c-0.04,0.01-0.07,0.02-0.11,0.04
			c10.74,0.19,20.28,0.44,20.31,0.76c0.63,6.12,1.25,12.24,1.88,18.36c0.2,1.96,0.42,3.99,1.51,5.69c1.41,2.21,4.03,3.5,6.16,5.17
			c2.13,1.67,3.92,4.32,2.84,6.69c-0.44,0.96-1.22,1.6-2.17,2.06c9.54-0.38,19.3-0.81,29.86-1.27c20.07-0.88,40.1-3.12,60.19-2.96
			c0,0,7.71,0.06,21.15-1.48c0,0,11.02-1.26,22.78-5.93c2.5-0.99,6.06-2.55,8.13-5.93c1.15-1.87,1.4-3.58,1.63-5.93
			C527.46,1114.21,523.98,1111.62,526.06,1103.79z"/>
		<path class="st8" d="M322.42,1113.34c2.35,0.06,16.7,0.19,29.37,0.41c0.04-0.01,0.07-0.02,0.11-0.04
			c0.28-0.12,0.54-0.26,0.78-0.43c-13.17,0.02-26.36-0.14-39.55-0.46C315.95,1113.02,319.05,1113.26,322.42,1113.34z"/>
		<path class="st8" d="M306.81,1154.43c9.92-0.08,16.76-0.2,19.15-0.25c15.09-0.28,28.42-0.66,41.57-1.13
			C347.28,1152.33,326.99,1152.8,306.81,1154.43z"/>
		<path class="st8" d="M265.18,1123.97c0.52-3.73,1.07-10.08,4.59-12.7c-36.96-1.71-73.89-4.3-110.56-6.94
			c-10.43-0.75-21.11-1.57-31.1-4.15c-0.21,0.21-0.42,0.42-0.62,0.65c-2.05,2.35-2.56,4.77-3.25,10.38c-0.18,1.43-1.55,13.06,0,25.2
			c0.13,1.03,0.37,2.74,1.63,4.45c1.91,2.6,5.01,3.6,8.13,4.45c8.89,2.42,14.64,2.96,14.64,2.96c10.62,1.01,14.95,0.8,24.4,1.48
			c6.81,0.49,11.17,1.08,14.64,1.48c18.38,2.12,44.27,2.72,58.56,2.96c6.22,0.11,12.27,0.18,18.1,0.24
			c-0.49-1.64-0.64-3.44-0.67-5.12C263.52,1140.84,264.02,1132.37,265.18,1123.97z"/>
		<path class="st2" d="M297.69,1154.49c-1.47-0.68-2.68-1.96-3.31-3.38c-0.97-2.22-0.86-4.69-0.72-7.07
			c0.32-5.86,0.65-11.73,0.97-17.59c0.29-5.33,1.4-8.68,3.25-10.75c-3.72-0.55-7.22-1.64-10.21-3.67
			c-5.97-0.23-11.93-0.48-17.9-0.76c-3.53,2.62-4.08,8.97-4.59,12.7c-1.16,8.4-1.67,16.86-1.51,25.33c0.03,1.68,0.18,3.49,0.67,5.12
			C276.79,1154.53,288.16,1154.54,297.69,1154.49z"/>
		<path class="st2" d="M305.7,1112.64c-6.01-0.17-12.01-0.38-18.02-0.61c2.99,2.02,6.49,3.12,10.21,3.67
			C299.76,1113.61,302.39,1112.82,305.7,1112.64z"/>
		<path class="st3" d="M329.7,818.78c-0.4,0.2-0.76,0.4-1.08,0.61h0C328.95,819.18,329.31,818.98,329.7,818.78z"/>
		<path class="st9" d="M337.59,1056.58c-0.01,0-0.01-0.01-0.02-0.01c-0.41-0.3-0.79-0.62-1.14-0.96c-0.09-0.09-0.16-0.19-0.24-0.28
			c-0.26-0.27-0.52-0.55-0.74-0.85c-0.29-0.41-0.55-0.84-0.76-1.3c-0.85-1.84-0.93-3.9-1-5.9c-0.57-18.82-1.28-37.64-1.92-56.46
			c-1.17-34.28-2.34-68.56-3.5-102.84c-0.58-17.14-1.17-34.28-1.75-51.42c-0.15-4.26-2.17-12.72,1.21-16.43
			c0.13-0.14,0.3-0.28,0.47-0.42c0.13-0.11,0.28-0.21,0.44-0.31c-2.24-0.46-4.93,0.49-6.47,2.17c-2.07,2.24-2.63,5.3-3.05,8.21
			c-7.62,52.6,6.14,105.89,3.81,158.91c-0.92,21.05-4.32,42.63,2.21,62.84c0.38,1.19,0.82,2.4,1.68,3.36
			c0.27,0.3,0.57,0.55,0.88,0.78c3.66,0.4,7.29,1.02,10.92,1.57C338.26,1057.02,337.92,1056.81,337.59,1056.58z"/>
		<path class="st9" d="M338.61,1057.22c-3.64-0.55-7.26-1.16-10.92-1.57c2.82,2.05,7.29,1.42,11.23,1.76c0,0,0,0,0,0
			C338.81,1057.35,338.72,1057.28,338.61,1057.22z"/>
		<path class="st9" d="M328.63,819.39L328.63,819.39c-0.16,0.1-0.3,0.21-0.44,0.31C328.33,819.6,328.47,819.49,328.63,819.39z"/>
		<path class="st1" d="M375.49,1153.39c2.27,0.12,4.92,0.02,6.83-0.9c-4.96,0.2-9.86,0.39-14.79,0.56
			C370.18,1153.15,372.84,1153.25,375.49,1153.39z"/>
		<path class="st1" d="M303.93,1154.67c0.96-0.08,1.92-0.17,2.88-0.24c-0.88,0.01-1.8,0.01-2.73,0.02
			C304.04,1154.53,303.98,1154.6,303.93,1154.67z"/>
		<path class="st1" d="M297.69,1154.49c0.82,0.38,1.73,0.57,2.66,0.49c1.19-0.11,2.39-0.2,3.58-0.3c0.05-0.08,0.11-0.14,0.15-0.22
			C302.06,1154.47,299.93,1154.48,297.69,1154.49z"/>
		<path class="st3" d="M313.13,1112.83c-1-0.07-1.95-0.12-2.87-0.17c-0.01,0.03-0.03,0.06-0.05,0.09
			C311.19,1112.78,312.16,1112.81,313.13,1112.83z"/>
		<path class="st3" d="M305.7,1112.64c1.5,0.04,3.01,0.08,4.51,0.12c0.01-0.03,0.03-0.06,0.05-0.09
			C308.63,1112.59,307.09,1112.56,305.7,1112.64z"/>
		<path d="M384.49,1150.43c1.08-2.36-0.71-5.02-2.84-6.69c-2.13-1.67-4.75-2.96-6.16-5.17c-1.09-1.7-1.31-3.73-1.51-5.69
			c-0.63-6.12-1.25-12.24-1.88-18.36c-0.03-0.32-9.57-0.57-20.31-0.76c-0.91,0.35-1.92,0.41-2.91,0.46
			c-12.24,0.6-24.49,1.2-36.73,1.8c-1.01,0.05-2.04,0.09-3.08,0.13c-0.09,0.35-0.17,0.7-0.25,1.05c-2.13,9.61-3.26,19.4-3.36,29.21
			c-0.03,2.72-0.1,5.7-1.39,8.05c0.93-0.01,1.85-0.01,2.73-0.02c20.18-1.63,40.47-2.1,60.72-1.38c4.92-0.18,9.83-0.36,14.79-0.56
			C383.27,1152.03,384.05,1151.38,384.49,1150.43z"/>
		<path d="M313.13,1112.83c-0.97-0.02-1.95-0.05-2.92-0.08c-0.5,1.07-0.85,2.23-1.13,3.39c1.03-0.03,2.06-0.08,3.08-0.13
			c12.24-0.6,24.49-1.2,36.73-1.8c0.99-0.05,2-0.11,2.91-0.46c-12.67-0.22-27.02-0.36-29.37-0.41
			C319.05,1113.26,315.95,1113.02,313.13,1112.83z"/>
		<path d="M297.89,1115.7c-1.85,2.07-2.96,5.42-3.25,10.75c-0.32,5.86-0.65,11.73-0.97,17.59c-0.13,2.38-0.25,4.86,0.72,7.07
			c0.62,1.42,1.83,2.7,3.31,3.38c2.24-0.01,4.37-0.02,6.39-0.04c1.28-2.35,1.36-5.33,1.39-8.05c0.1-9.8,1.23-19.6,3.36-29.21
			c0.08-0.35,0.16-0.7,0.25-1.05C305.34,1116.27,301.51,1116.24,297.89,1115.7z"/>
		<path d="M305.7,1112.64c-3.31,0.19-5.94,0.97-7.81,3.06c3.63,0.54,7.45,0.57,11.19,0.44c0.29-1.15,0.64-2.31,1.13-3.39
			C308.71,1112.72,307.2,1112.68,305.7,1112.64z"/>
	</g>
	<path class="st1" d="M271.86,1109.35c-2.11,1.73-2.66,4.5-3.1,7.06c-1.26,7.48-2.47,15.03-2.15,22.6s2.26,15.24,6.85,21.55"/>
</g>
</svg>
