<?xml version="1.0" encoding="utf-8"?>
<!-- Generator: Adobe Illustrator 25.4.1, SVG Export Plug-In . SVG Version: 6.00 Build 0)  -->
<svg version="1.1" id="Layer_1" xmlns="http://www.w3.org/2000/svg" xmlns:xlink="http://www.w3.org/1999/xlink" x="0px" y="0px"
	 viewBox="0 0 650 1500" style="enable-background:new 0 0 650 1500;" xml:space="preserve">
<style type="text/css">
	.st0{fill:#B9458F;}
	.st1{fill:none;}
	.st2{fill:#DF9EC6;}
	.st3{fill:#EEBCE0;}
	.st4{fill:#AE3E8F;}
</style>
<g>
	<path class="st0" d="M363.36,341.99c7.71,1.05,15.54,2.39,22.95,4.71c-2.91-2.62-8.43-7.11-13.01-15.2
		c-4.52-7.99-5.84-15.46-6.55-19.64c-1.09-6.44-1.08-11.91-0.73-16.79c-3.68,2.78-7.12,6.27-10.42,9.33
		c-23.09,21.41-59.79,25.12-87.82,11.49c-0.42,1.55-0.88,3.11-1.43,4.7c-2.61,7.53-6.1,13.02-13.09,24.01
		c-1.78,2.79-3.35,5.13-4.8,7.19c2.71-1.18,5.44-2.28,8.21-3.27C290.55,336.38,327.72,337.12,363.36,341.99z"/>
	<g>
		<path class="st1" d="M405.02,375c1.27,0.13,2.5,0.19,3.61,0.04c1.25-0.16,9.06-1.78,12.54-3.47
			c-6.07-5.76-11.74-12.18-18.61-16.89c-5.05-3.47-10.65-5.88-16.49-7.71c0.03,0.02,0.06,0.05,0.08,0.08
			C395.41,355.39,401.34,366.16,405.02,375z"/>
		<path class="st1" d="M249.58,646.76c-0.94,0.65-1.82,1.39-2.66,2.17c0.39,1.1,0.87,2.19,1.43,3.24c0.11-0.78,0.23-1.37,0.31-1.75
			C248.85,649.5,249.13,648.23,249.58,646.76z"/>
		<path class="st1" d="M280.75,817.73c-0.84,0.05-1.67,0.09-2.51,0.14c-1.33,0.44-2.63,0.91-3.92,1.42
			C276.44,818.68,278.58,818.13,280.75,817.73z"/>
		<path class="st1" d="M253.03,639.51c2.42-3.59,4.06-4.09,4.37-6.55c0.03-0.23,0.04-0.52,0.03-0.83
			c-7.79-1.07-15.57-2.13-23.36-3.2c2.75,11.66,4.72,23.51,5.9,35.43c-0.37-5.87,2.57-11.4,6.96-15.42
			c-1.06-2.99-1.41-6.12-0.4-9.11c-1,2.99-0.66,6.12,0.4,9.11c0.84-0.77,1.72-1.51,2.66-2.17
			C250.24,644.65,251.27,642.11,253.03,639.51z"/>
		<path class="st1" d="M410.88,479.5c-11.63-0.78-23.27-1.33-34.93-1.68c-0.29,0.46-0.47,0.93-0.58,1.43
			C387.21,479.19,399.05,479.27,410.88,479.5z"/>
		<path class="st1" d="M375.25,255.39c-1.17,2.78-2.62,6.55-4.04,11.06c2.95,3.71,5.62,7.65,7.89,11.79
			c14.41-24.79,26.18-51.11,35.05-78.37c-4.5,3.76-9.21,7.33-14.07,10.68c-1.43,3.99-3.13,8.04-5.19,12.1
			C387.33,237.58,382.68,237.76,375.25,255.39z"/>
		<path class="st1" d="M421.17,371.57c1.06-0.51,1.73-1.03,1.68-1.52c0.12,1.11,0.2,2.23,0.29,3.35c4.27,3.86,8.8,7.29,14.14,9.47
			c-2.45-21.22-16.6-40.7-36.03-49.58c5.92-0.47,11.84-0.93,17.75-1.4c-7.1-12.29-15.86-23.61-25.97-33.57
			c-3.49-3.44-7.4-6.85-12.22-7.75c-5.51-1.03-10.45,1.31-15.03,4.77c-0.35,4.88-0.35,10.35,0.73,16.79
			c0.7,4.18,2.03,11.65,6.55,19.64c4.58,8.1,10.1,12.59,13.01,15.2c5.84,1.82,11.43,4.24,16.49,7.71
			C409.43,359.39,415.1,365.82,421.17,371.57z"/>
		<path class="st2" d="M305.48,235.94c5.61,0.65,11.24,1.09,16.88,1.09c0.63,0,1.26-0.04,1.89-0.05c-4.9-0.97-9.89-1.44-14.94-1.3
			C308.04,235.72,306.76,235.81,305.48,235.94z"/>
		<path class="st0" d="M371.21,266.45c1.42-4.51,2.87-8.28,4.04-11.06c7.43-17.62,12.08-17.81,19.64-32.74
			c2.06-4.06,3.76-8.11,5.19-12.1c-22.54,15.51-48.68,25.98-75.82,26.43C342.59,240.6,359.4,251.59,371.21,266.45z"/>
		<path class="st3" d="M248.57,198.04c-0.54-4.68-1.55-9.35-1.24-14.04c0.53-8.16,4.97-15.58,10.31-21.77
			c5.34-6.19,11.65-11.49,16.98-17.68c14.11-16.36,20.68-38.45,20.32-60.05c-0.05-3.24-0.24-6.58,0.85-9.63
			c2.35-6.57,9.82-9.8,16.73-10.74c10.26-1.4,20.97,0.66,29.98,5.78c9.55,5.42,16.97,13.99,26.33,19.73
			c3.05,1.87,6.51,3.37,10.07,4.29c-6.23-8.45-13.74-17.25-23.29-28.42c-2.52-2.95-6.47-7.46-13.1-10.91
			c-10.55-5.51-20.85-4.66-24.01-4.36c-2.03,0.19-9.99,1.09-19.64,6.55c-7.75,4.39-14.51,9.7-24.01,24.01
			c-20.35,30.67-30.81,53.67-32.74,58.93c-5.1,13.9-6.19,21.25-6.55,24.01c-2.29,17.61,1.21,31.37,2.18,34.92
			c2.91,10.62,6.51,15.25,10.7,21.16C249.12,212.54,249.41,205.26,248.57,198.04z"/>
		<path class="st3" d="M389.91,149.36c1.71,8.87,0.89,18,0.06,26.99c-0.77,8.34-1.58,16.84-4.94,24.51
			c6.79,0.92,13.47-1.29,19.19-5.18c3.87-18.67,2.19-33.88,1.58-38.51c-1.65-12.49-5.04-21.15-8.73-30.56
			c-0.38-0.96-0.77-1.87-1.15-2.8c-3.68,3.25-8.12,5.63-12.9,6.77C386.02,136.56,388.65,142.79,389.91,149.36z"/>
		<path class="st2" d="M305.48,235.94c1.28-0.12,2.55-0.22,3.84-0.25c5.04-0.15,10.04,0.33,14.94,1.3
			c27.14-0.45,53.28-10.92,75.82-26.43c1.82-5.11,3.16-10.09,4.14-14.86c-5.72,3.89-12.4,6.1-19.19,5.18
			c3.36-7.67,4.17-16.18,4.94-24.51c0.83-8.99,1.65-18.12-0.06-26.99c-1.27-6.57-3.89-12.8-6.89-18.77
			c4.77-1.14,9.22-3.52,12.9-6.77c-4.73-11.4-10.07-20.44-17.03-29.89c-3.56-0.92-7.02-2.41-10.07-4.29
			c-9.36-5.74-16.78-14.31-26.33-19.73c-9.01-5.12-19.71-7.18-29.98-5.78c-6.91,0.94-14.39,4.17-16.73,10.74
			c-1.09,3.05-0.9,6.39-0.85,9.63c0.37,21.6-6.21,43.69-20.32,60.05c-5.34,6.19-11.65,11.49-16.98,17.68
			c-5.34,6.19-9.78,13.61-10.31,21.77c-0.3,4.7,0.7,9.37,1.24,14.04c0.84,7.23,0.55,14.5-0.12,21.77c1.71,2.42,3.53,5.04,5.43,8.39
			c11.7,1.8,23.41,3.61,35.11,5.41C294.48,234.45,299.97,235.3,305.48,235.94z"/>
		<path class="st0" d="M305.48,235.94c-5.51-0.64-11-1.48-16.48-2.33c-11.7-1.8-23.41-3.61-35.11-5.41
			c1.81,3.18,3.71,7.01,5.69,11.91c2.3,5.71,3.98,11.06,5.23,15.89C275.36,244.88,290.12,237.4,305.48,235.94z"/>
		<path class="st2" d="M371.21,266.45c-11.81-14.86-28.61-25.84-46.95-29.47c-0.63,0.01-1.26,0.05-1.89,0.05
			c-5.65,0-11.27-0.44-16.88-1.09c-15.36,1.47-30.12,8.94-40.68,20.06c1.3,5.06,2.13,9.55,2.71,13.27
			c13.19-13.78,32.44-21.85,51.54-20.67c-7.06,7.44-10.89,17.83-10.36,28.06c0.54,10.24,5.43,20.17,13.23,26.83
			c-10.14,6.25-22.5,8.8-34.28,7.09c-6.31-0.92-12.42-3.09-17.96-6.25c-0.37,3.84-1.04,7.77-2.13,11.82
			c28.02,13.63,64.72,9.92,87.82-11.49c3.3-3.06,6.74-6.56,10.42-9.33c0.18-2.55,0.46-4.94,0.73-7.22
			C367.53,279.7,369.34,272.4,371.21,266.45z"/>
		<path class="st3" d="M321.92,303.5c-7.79-6.66-12.69-16.6-13.23-26.83c-0.54-10.24,3.3-20.63,10.36-28.06
			c-19.1-1.19-38.35,6.88-51.54,20.67c0.34,2.2,0.59,4.13,0.8,5.76c1.18,9.24,2.38,18.92,1.38,29.32
			c5.55,3.15,11.65,5.33,17.96,6.25C299.43,312.3,311.78,309.75,321.92,303.5z"/>
		<path class="st0" d="M375.38,479.25c0.11-0.49,0.29-0.97,0.58-1.43c-27.81-0.84-55.65-0.44-83.4,1.41
			c-10.03,0.67-20.1,1.53-30.13,0.92c-4.61-0.28-9.21-0.89-13.74-1.79c0.25,3.71-2.7,7.07-4.83,9.05c6.97-1.88,14.29-2.6,21.52-3.21
			C301.95,481.09,338.66,479.45,375.38,479.25z"/>
		<path class="st0" d="M253.03,639.51c-1.76,2.6-2.79,5.14-3.44,7.26c0.97-0.67,1.97-1.28,3.01-1.81c7.3-3.68,15.77-4.18,23.94-3.95
			c21.95,0.6,43.93,5.85,65.68,2.86c11.13-1.53,21.88-5.2,32.98-6.91c0.21-0.03,0.41-0.06,0.62-0.09c-1.56-1.09-2.67-2.18-2.76-3.9
			c-0.11-2.2,1.51-3.99,3.11-5.45c-10.21,5.1-21.5,8.36-32.8,9.91c-23.49,3.22-47.33,0-70.83-3.22c-5.05-0.69-10.09-1.38-15.14-2.08
			c0.01,0.31,0,0.6-0.03,0.83C257.09,635.42,255.45,635.91,253.03,639.51z"/>
		<path class="st0" d="M257.42,744.84c2.49-9.22,10.17-17.2,19.6-18.7c-6.55-0.97-13.2-1.1-19.79-0.48
			c0.11,0.35,0.17,0.73,0.17,1.15c0.01,2.52-2.04,3.41-4.37,6.55c-5.63,7.6-4.61,17.26-4.37,19.64c0.25,2.36,0.81,7.79,4.37,13.1
			c2.47,3.7,4.39,4.35,4.37,6.55c-0.01,0.69-0.23,1.28-0.57,1.81c1.73-0.74,3.49-1.44,5.23-2.12
			C257.15,764.13,254.93,754.05,257.42,744.84z"/>
		<path class="st2" d="M246.69,847.75c-0.01,0.09-0.03,0.18-0.03,0.28c0.06,0.06,0.12,0.12,0.18,0.18
			C246.79,848.05,246.74,847.9,246.69,847.75z"/>
		<path class="st4" d="M369.45,896.48c-0.8,0.4-1.62,0.77-2.42,1.16c-1.38,0.66-2.76,1.32-4.15,1.96c-1.02,0.47-2.04,0.91-3.06,1.37
			c-1.18,0.52-2.36,1.04-3.54,1.55c-1.16,0.49-2.32,0.97-3.48,1.45c-1.04,0.43-2.09,0.85-3.14,1.27c-1.27,0.5-2.55,1-3.83,1.48
			c-0.93,0.35-1.86,0.7-2.8,1.04c-1.38,0.51-2.77,1-4.16,1.49c-0.8,0.28-1.61,0.55-2.41,0.82c-1.52,0.51-3.03,1.02-4.56,1.5
			c-0.61,0.19-1.22,0.37-1.84,0.56c-1.71,0.53-3.43,1.05-5.15,1.55c0,0,0,0,0,0c0.34,0.12,0.69,0.24,1.04,0.37
			c-1.11,0.09-2.22,0.17-3.33,0.27c-1.39,0.39-2.78,0.79-4.18,1.15c20.61,0.93,40.58-6.31,60.87-10.08c1.05-0.19,2.1-0.36,3.15-0.54
			c-0.25-0.38-0.49-0.77-0.66-1.23c-1.14-3.23,0.99-6.52,2.18-8.73c1.41-2.6,2.59-5.69,3.42-8.92c-3.44,2.88-7.44,5.13-11.43,7.23
			C373.81,894.3,371.64,895.4,369.45,896.48z"/>
		<path class="st4" d="M364.88,760.45c-9.34,4.82-19.24,8.53-29.43,11.11c10.5-1.62,21.05-2.93,31.64-3.68
			c3.44-0.24,6.92-0.42,10.37-0.29c0.14-1.24,0.71-2.22,2.14-5.86c2.84-7.21,4.26-10.82,4.36-13.09c0.04-0.86-0.02-1.68-0.15-2.47
			C378.89,752.27,371.94,756.8,364.88,760.45z"/>
		<path class="st4" d="M330.23,814.7c14.4,3.87,29.29,4.2,44.27,4.08c-0.85-0.67-1.39-1.44-1.44-2.49
			c-0.05-1.25,0.69-2.31,2.18-4.36c0.75-1.04,1.51-1.93,2.23-2.7c-3.83,1.02-7.8,1.48-11.75,1.9
			C353.91,812.36,342.07,813.56,330.23,814.7z"/>
		<path class="st4" d="M251.04,656.38c-0.98-1.31-1.89-2.73-2.68-4.21c-0.34,2.39-0.64,6.49,0.31,11.34
			c0.75,3.84,1.47,7.54,4.37,10.91c2.38,2.78,3.79,2.49,4.37,4.36c0.76,2.5-1.32,4.4-3.66,7.84c17.61-1.43,35.27-2.33,52.94-2.66
			C285.55,681.4,263.78,673.43,251.04,656.38z"/>
		<path class="st4" d="M246.16,876.64c0.99-2.88,2.6-5.78,5.33-7.14c2.29-1.14,4.98-1.02,7.54-0.88c19.36,1.03,38.77,1.2,58.14,0.51
			c3.41-0.12,6.83-0.27,10.22-0.7c6.99-0.89,13.76-2.97,20.48-5.05c-14.06,1.38-28.19,2.11-42.31,2.19
			c-4.32,0.03-8.65-0.01-12.95-0.43c-4.97-0.49-9.87-1.5-14.76-2.51c-5.18-1.07-10.39-2.15-15.31-4.09
			c-5.79-2.28-11.08-5.78-15.52-10.15c-0.01,0.08-0.03,0.16-0.04,0.24c-0.05-0.14-0.09-0.28-0.14-0.41
			c-0.06-0.06-0.12-0.12-0.18-0.18c-0.02,0.2-0.06,0.4-0.07,0.6c0.47,1.6,1.14,3.21,2.07,4.77c2.17,3.62,5.08,5.8,4.37,8.73
			c-0.52,2.13-2.45,2.65-4.37,4.36c-6.47,5.78-4.64,17.85-4.36,19.64c0.11,0.74,0.25,1.4,0.4,2.03
			C244.43,884.27,244.89,880.33,246.16,876.64z"/>
		<path class="st4" d="M271.17,820.26c1.04-0.37,2.1-0.66,3.15-0.97c1.29-0.51,2.59-0.98,3.92-1.42c-7.38,0.41-14.77,0.6-22.16,0.47
			c-0.23,0-0.46-0.02-0.69-0.02c2.05-1.73,3.44-2.33,3.98-3.56c-0.05,0-0.1,0-0.15,0c-0.09,0.06-0.17,0.11-0.26,0.17
			c-9,6.26-11.54,15-12.14,17.07c-0.47,1.6-2.45,8.5-0.13,15.75c0.36-3.76,1.48-7.47,3.31-10.75
			C254.5,828.98,262.52,823.36,271.17,820.26z"/>
		<path class="st4" d="M246.98,848.62c0.01-0.08,0.03-0.16,0.04-0.24c-0.06-0.06-0.12-0.11-0.17-0.17
			C246.89,848.34,246.93,848.48,246.98,848.62z"/>
		<path class="st4" d="M255.39,818.32c0.23,0.01,0.46,0.02,0.69,0.02c7.39,0.13,14.78-0.05,22.16-0.47
			c0.97-0.32,1.94-0.65,2.93-0.94c4.34-1.25,8.8-2.16,13.32-2.83c-11.42,0.58-22.86,0.84-34.3,0.68c-0.27,0-0.54-0.01-0.82-0.02
			C258.84,815.99,257.44,816.58,255.39,818.32z"/>
		<path class="st4" d="M247.02,848.38c0.4-4.45,2.02-8.87,4.72-12.75c5.03-7.22,13.28-12.67,22.58-16.33
			c-1.05,0.31-2.11,0.6-3.15,0.97c-8.65,3.1-16.67,8.71-21.16,16.73c-1.84,3.28-2.95,7-3.31,10.75c0.05,0.15,0.1,0.31,0.15,0.46
			C246.9,848.26,246.96,848.32,247.02,848.38z"/>
		<path class="st0" d="M375.98,732.64c-0.64-1.31-1.02-2.69-0.96-4.19c-6.25,2.23-12.78,3.65-19.4,4.07
			C362.32,733.42,369.22,732.67,375.98,732.64z"/>
		<path class="st2" d="M343.38,637.42c11.3-1.55,22.58-4.81,32.8-9.91c0.43-0.39,0.86-0.76,1.25-1.1
			c6.62-5.74,11.3-13.42,17.46-19.64c9.65-9.75,12.7-22.23,15.28-32.74c5.92-24.18-0.13-44.12-2.18-50.2
			c-4.85-14.35-9.41-27.86-21.82-34.92c-4.41-2.51-10.78-4.76-10.91-8.73c-0.01-0.32,0.06-0.63,0.13-0.93
			c-36.72,0.2-73.43,1.84-110.01,4.95c-7.22,0.61-14.55,1.33-21.52,3.21c-0.73,0.68-1.37,1.2-1.73,1.51
			c-5.83,4.89-10.24,12.38-16.98,25.44c10.63-10.91,24.45-18.73,39.36-21.93c-15,19.94-16.49,49.08-3.59,70.44
			c-12.03,3.36-23.56,10.21-30.05,20.88c-2.82,4.64-4.48,10.06-4.8,15.5c4.03,6.23,9.38,12.81,16.05,16.25
			c0.15,0.08,5.71,2.94,10.91,8.73c3.62,4.03,4.34,6.44,4.39,7.9c5.05,0.69,10.09,1.38,15.14,2.08
			C296.05,637.42,319.89,640.65,343.38,637.42z M368.37,541.73c-1.25-4.98-7.38-15.19-3.34-19.54c3.78-4.06,15.84-0.86,20.54-1.21
			c0.61-0.05,1.32-0.08,1.75,0.36c0.32,0.33,0.38,0.82,0.43,1.27c2.42,23.99,4.62,49.36-5.61,71.19c-7.24-0.13-14.39-3.2-19.48-8.36
			C369.95,572.28,372.03,556.33,368.37,541.73z M303.28,563.09c2.52-3.87,7.42-5.23,11.66-7.07c8.62-3.73,14.66-10.12,20.15-17.49
			c4.93-6.62,12.82-10.77,16.22,1.26c0.59,2.08,0.4,4.29,0.18,6.43c-0.54,5.07-1.28,10.12-2.24,15.13
			c-1.32,6.9-3.06,13.81-6.45,19.96c-3.39,6.15-8.59,11.53-15.19,13.95c-6.59,2.41-14.63,1.42-19.69-3.45
			c-4.97-4.78-6.32-12.18-6.53-19.08C301.3,569.41,301.46,565.88,303.28,563.09z"/>
		<path class="st3" d="M260.91,562.87c-12.9-21.36-11.42-50.5,3.59-70.44c-14.9,3.2-28.73,11.01-39.36,21.93
			c-1.49,2.88-3.09,6.02-4.84,9.48c-9.65,18.99-10.52,46.02,0,65.47c1.46,2.7,3.39,6.26,5.77,9.94c0.32-5.44,1.98-10.86,4.8-15.5
			C237.35,573.07,248.87,566.23,260.91,562.87z"/>
		<path class="st3" d="M263.41,453.43c1.2-1.8,2.35-3.73,2.65-5.88c0.6-4.22-2.09-8.11-4.3-11.76c-6-9.88-9.25-22.38-4.83-33.06
			c2.69-6.48,7.85-11.55,12.77-16.56c7.31-7.45,14.41-15.28,19.42-24.43c3.63-6.64,6.08-14.1,6.47-21.61
			c-13.34,1.39-26.47,4.12-39.14,8.66c-2.77,0.99-5.5,2.09-8.21,3.27c-8.41,11.96-11.9,13.35-17.02,23.37
			c-3.63,7.1-9.53,21.4-8.73,39.28c0.13,2.86,1.19,22.47,10.91,37.1c4.25,6.4,6.93,13.9,11.6,19.97
			C252.23,466.92,258.56,460.68,263.41,453.43z"/>
		<path class="st2" d="M292.55,479.23c27.75-1.85,55.6-2.25,83.4-1.41c1.46-2.33,4.95-4.24,8.02-6.37c0,0,3.49-2.44,9.14-9.28
			c-4.02-3.37-8.7-5.95-13.72-7.47c11.19-17.18,15.74-38.39,13.32-58.69c-0.74-6.16-6.23-19.05,2.32-21.53
			c2.71-0.79,6.52,0.16,9.99,0.51c-3.68-8.84-9.62-19.61-18.86-27.95c-0.03-0.02-0.06-0.05-0.08-0.08
			c-7.42-2.32-15.24-3.65-22.95-4.71c-22.31-3.05-45.22-4.48-67.54-2.15c-0.39,7.52-2.83,14.97-6.47,21.61
			c-5.01,9.16-12.11,16.98-19.42,24.43c-4.91,5.01-10.08,10.08-12.77,16.56c-4.43,10.68-1.17,23.18,4.83,33.06
			c2.21,3.65,4.9,7.53,4.3,11.76c-0.3,2.15-1.45,4.08-2.65,5.88c-4.85,7.26-11.17,13.5-18.43,18.35c0.48,0.63,0.97,1.26,1.5,1.86
			c0.5,0.56,1.91,2.1,2.18,4.37c0.01,0.12,0.01,0.24,0.02,0.35c4.53,0.9,9.12,1.51,13.74,1.79
			C272.46,480.76,282.52,479.9,292.55,479.23z M374.67,402.56c1.22-4.78,1.82-10.58-1.74-13.99c-1.84-1.76-4.76-2.91-5.04-5.44
			c1.61-1.43,14.21-1.22,14.16-1.65c2.69,22.2-1.9,45.23-12.89,64.71c-3.67-2.87-7.35-5.74-11.02-8.62
			C365.81,427.1,371.45,415.15,374.67,402.56z M310.71,412.76c3.06-3.93,7.94-5.87,12.28-8.32c6.16-3.49,25.76-28.24,32.93-12.12
			c1.01,2.26,0.5,4.93-0.49,7.2c-2.23,5.13-6.64,8.95-11.11,12.32c-8.56,6.45-18.9,12.12-29.48,10.4c-2.2-0.36-4.6-1.24-5.52-3.27
			C308.41,416.94,309.34,414.52,310.71,412.76z"/>
		<path class="st4" d="M382.14,593.81c10.23-21.84,8.02-47.2,5.61-71.19c-0.05-0.45-0.11-0.94-0.43-1.27
			c-0.43-0.44-1.13-0.41-1.75-0.36c-4.7,0.35-16.76-2.85-20.54,1.21c-4.04,4.35,2.09,14.56,3.34,19.54
			c3.66,14.59,1.58,30.55-5.71,43.71C367.75,590.61,374.89,593.68,382.14,593.81z"/>
		<path class="st4" d="M382.03,381.48c0.05,0.43-12.54,0.22-14.16,1.65c0.28,2.53,3.2,3.68,5.04,5.44c3.57,3.41,2.97,9.2,1.74,13.99
			c-3.21,12.58-8.86,24.54-16.54,35.01c3.67,2.87,7.35,5.74,11.02,8.62C380.14,426.71,384.72,403.69,382.03,381.48z"/>
		<path class="st4" d="M324.91,913.66c-0.72,0.21-1.44,0.4-2.15,0.59c-0.05,0.01-0.09,0.03-0.14,0.04c1.11-0.09,2.22-0.17,3.33-0.27
			C325.6,913.9,325.25,913.78,324.91,913.66z"/>
		<path class="st4" d="M322.75,914.25c0.72-0.2,1.44-0.39,2.15-0.59c-24.5-8.74-52.65-7.19-76.14-17.08c1.16,1.86,2.08,3.78,2.08,7
			c0,6.83-4.11,12.13-6.55,15.28c-0.05,0.06-0.09,0.11-0.14,0.17c26.18-1,52.34-2.58,78.46-4.74
			C322.66,914.28,322.71,914.27,322.75,914.25z"/>
		<path class="st4" d="M324.91,913.66c-0.72,0.21-1.44,0.39-2.15,0.59C323.47,914.06,324.19,913.87,324.91,913.66L324.91,913.66z"/>
		<path class="st4" d="M348.51,1045.36c-36.51,5.01-74.38-0.62-107.94-15.84c2.98,4.1,6.28,7.35,10.27,9.38
			c1.42,0.72,6.3,3.01,6.55,6.55c0.21,3.06-3.12,5.56-4.37,6.55c-4.05,3.21-7.04,7.45-9.8,11.9c24.08-2.71,48.12-5.75,72.01-9.81
			C326.57,1052.16,337.98,1049.97,348.51,1045.36z"/>
		<path class="st4" d="M370,1044.61c-1.77,1.23-3.79,3.21-2.89,5.17c0.95,2.06,3.94,1.64,6.1,0.97c5.34-1.66,10.83-2.82,16.39-3.5
			c-3.06-1.25-5.38-2.1-5.62-3.99c-0.32-2.52,3.37-4.41,8.73-8.73c0,0,5.03-4.05,13.1-13.1c5.58-6.26,9.52-14.6,12.01-23.54
			C404.52,1015.91,388.34,1031.79,370,1044.61z"/>
		<path class="st3" d="M268.05,712.61c-2.2-5-1.55-10.93,0.81-15.85c0.31-0.64,0.65-1.33,0.5-2.02c-0.18-0.81-0.98-1.32-1.73-1.68
			c-4.17-2-9.14-2.24-13.48-0.65c-1.49,0.55-2.88,1.3-4.24,2.13c-0.93,3.16-1.11,5.92-1.25,8.25c-0.31,5.11-0.58,10.08,1.89,14.7
			c9.24,2.06,18.71,3.12,28.18,3.16C274.15,720.2,269.93,716.89,268.05,712.61z"/>
		<polygon class="st2" points="324.91,913.66 324.91,913.66 324.91,913.66 		"/>
		<path class="st4" d="M283.75,1182.5c-14.18-2.38-28.54-5.72-41.44-11.83c2.88,4.04,6.38,7.56,10.72,10.09
			c4.2,2.45,11.19,5.2,10.91,8.73c-0.29,3.62-8.04,5.57-10.91,6.55c-3.47,1.18-6.57,3.23-9.36,5.86
			c39.22-3.73,78.34-8.47,117.31-14.25C335.15,1188.51,309.23,1186.78,283.75,1182.5z"/>
		<path class="st4" d="M416.71,1217.87c-9.22-15.03-21.82-21.82-21.82-21.83c-4.38-2.36-8.62-3.78-8.73-6.55
			c-0.02-0.51,0.14-0.99,0.38-1.46c-5.39,2.79-11.02,5.08-16.83,6.82c11.49,1.74,22.33,7.54,30.14,16.14
			c6.62,7.28,10.99,16.31,14.57,25.47c5.32,13.6,9.13,27.98,9.17,42.59c0.04,17.06-5.02,33.67-9.61,50.1
			c-4.97,17.78-9.43,35.7-13.38,53.74c-0.98,4.46-1.9,9.05-2.31,13.61c10.81-19.71,18.48-41.94,24.97-60.77
			c3.43-9.95,5.14-14.92,6.55-21.83c5.78-28.37,0.18-51.16-6.55-78.57C421.43,1227.87,419.94,1223.12,416.71,1217.87z"/>
		<path class="st3" d="M241.23,995.09c4.43-6.02,1.28-14.47,2.12-21.9c1.24-11.05,11.44-19.03,21.86-22.92
			c10.42-3.88,21.76-5.02,31.94-9.51c2.76-1.22,5.88-3.7,4.95-6.57c-0.79-2.44-3.88-3.07-6.43-3.29
			c-19.83-1.73-39.71-3.46-59.6-4.63c-1.64,1.09-3.25,2.11-4.86,3.51c-8.45,7.31-9.65,18.63-10.91,30.55
			c-1.87,17.63,2.32,32.33,5.72,41.09c0.17-0.02,0.34-0.05,0.51-0.07C231.95,1000.6,237.98,999.51,241.23,995.09z"/>
		<path class="st2" d="M413.98,1329.15c4.59-16.44,9.66-33.04,9.61-50.1c-0.04-14.61-3.85-28.99-9.17-42.59
			c-3.58-9.16-7.96-18.19-14.57-25.47c-7.82-8.6-18.65-14.4-30.14-16.14c5.81-1.73,11.45-4.03,16.83-6.82
			c0.93-1.8,3.56-3.3,6.17-5.09c0,0,3.98-2.74,15.28-15.28c7.71-8.57,17.46-27.35,17.46-50.2c0-14.46-5.88-26.37-17.46-50.2
			c-5.12-10.53-8.44-14.64-13.09-17.46c-1.85-1.12-3.67-1.9-5.3-2.56c-5.55,0.68-11.05,1.83-16.39,3.5
			c-2.16,0.67-5.16,1.09-6.1-0.97c-0.9-1.96,1.13-3.93,2.89-5.17c18.35-12.82,34.52-28.7,47.82-46.71
			c2.66-9.53,3.69-19.74,3.26-28.84c-0.43-9.12-1-21.38-8.73-32.74c-4.45-6.54-12.66-14.82-15.28-17.46
			c-7.1-7.16-10.64-10.74-10.91-10.91c-1.32-0.87-2.76-1.73-3.71-3.13c-1.05,0.18-2.11,0.35-3.15,0.54
			c-20.28,3.77-40.26,11.01-60.87,10.08c1.4-0.36,2.79-0.76,4.18-1.15c-26.11,2.15-52.27,3.74-78.46,4.74
			c-2.9,3.7-5.54,5.55-8.09,7.24c19.89,1.18,39.77,2.9,59.6,4.63c2.55,0.22,5.64,0.85,6.43,3.29c0.93,2.87-2.19,5.36-4.95,6.57
			c-10.17,4.49-21.52,5.63-31.94,9.51c-10.42,3.88-20.62,11.86-21.86,22.92c-0.84,7.43,2.32,15.88-2.12,21.9
			c-3.25,4.41-9.28,5.51-14.71,6.26c-0.17,0.02-0.34,0.05-0.51,0.07c1.2,3.09,2.3,5.46,3.01,6.92c3.86,8.07,7.39,15.45,11.56,21.18
			c33.56,15.21,71.43,20.85,107.94,15.84c-10.53,4.62-21.94,6.8-33.28,8.73c-23.89,4.06-47.92,7.1-72.01,9.81
			c-2.39,3.85-4.63,7.84-7.23,11.49c33.01-5.87,66.24-9.88,99.75-9.74c6.39,0.03,14.65,1.75,15.51,8.09
			c-8.86,9.35-20.82,15.7-33.53,17.8c-14.9,2.46-30.21-0.8-45.22,0.83c-15.01,1.63-31.33,10.81-32.93,25.83
			c-0.62,5.81,1.07,11.86-0.71,17.42c-1.22,3.82-3.84,6.66-7.18,8.6c1.95,8.92,5.08,18.69,10.61,26.46
			c12.9,6.11,27.27,9.44,41.44,11.83c25.49,4.28,51.4,6.01,77.23,5.16c-38.97,5.77-78.09,10.52-117.31,14.25
			c-3.16,2.99-5.9,6.75-8.28,10.86c17.09,2.27,34.21,4.32,51.36,6.14c-23,17.63-47.78,38.15-51.99,66.82
			c-1.76,12.01,0.37,24.41-2.13,36.28c-1.03,4.87-3.29,9.74-6.42,13.72c6.27,21.94,14.58,38.72,18.09,45.83c0,0,0.02,0.04,0.04,0.07
			c0.06,0.07,0.12,0.14,0.18,0.2c4.29,4.78,9.13,9.03,14.01,13.21c15.38,13.17,31.39,25.83,49.32,35.21
			c6.01,3.15,12.39,5.96,19.16,6.41c10.92,0.73,21.2-4.72,30.71-10.14c11.92-6.81,23.71-13.86,35.35-21.14
			c1.82-2.89,3.56-5.85,5.23-8.89c0.4-4.56,1.33-9.15,2.31-13.61C404.55,1364.85,409.01,1346.93,413.98,1329.15z M351.5,978.45
			c7.26-6.7,18.27-13.99,28.37-15.08c31.76-3.44-0.91,35.31-13.23,41.34c-4.07,1.99-8.43,3.68-12.96,3.68
			C332.83,1008.43,342.64,986.63,351.5,978.45z M359.65,1140.61c-11.55,12.99-17.8,1.68-13-10.92c3.74-9.81,10.99-22.73,20.09-28.56
			c5.82-3.73,24.18-6.93,26.3,3.98c1.63,8.42-18.06,15.9-22.79,20.71C366,1130.16,363.69,1136.07,359.65,1140.61z M378.52,1279.85
			c-4.35,12.82-12.16,24.14-19.87,35.27c-3.39,4.89-7.72,10.3-13.67,10.32c-4.94,0.01-9.16-3.99-10.97-8.58
			c-1.82-4.59-1.73-9.68-1.62-14.61c0.18-7.87,0.35-15.75,0.53-23.62c0.33-14.89,11.23-19.37,19.87-29.88
			c6.32-7.7,11.64-18.29,23.1-18.47C409.3,1229.78,383.26,1265.87,378.52,1279.85z"/>
		<path class="st3" d="M234.76,1285.73c4.2-28.67,28.98-49.2,51.99-66.82c-17.15-1.82-34.27-3.86-51.36-6.14
			c-7.1,12.27-10.94,27.73-12.92,35.65c-7.83,31.34-3.34,62.59,3.73,87.31c3.13-3.98,5.39-8.85,6.42-13.72
			C235.13,1310.14,233,1297.73,234.76,1285.73z"/>
		<path class="st3" d="M238.87,1135.61c1.77-5.56,0.09-11.62,0.71-17.42c1.6-15.01,17.92-24.19,32.93-25.83
			c15.01-1.63,30.32,1.63,45.22-0.83c12.71-2.1,24.67-8.45,33.53-17.8c-0.86-6.33-9.12-8.06-15.51-8.09
			c-33.5-0.13-66.73,3.87-99.75,9.74c-0.15,0.2-0.28,0.42-0.43,0.62c-11.6,15.8-8.07,41.34-6.55,52.38
			c0.6,4.32,1.38,9.88,2.68,15.83C235.04,1142.27,237.65,1139.43,238.87,1135.61z"/>
		<path class="st4" d="M327.01,1436.66c-6.77-0.45-13.15-3.26-19.16-6.41c-17.94-9.39-33.94-22.05-49.32-35.21
			c-4.88-4.18-9.72-8.43-14.01-13.21c-0.06-0.07-0.12-0.14-0.18-0.2c0.73,1.46,17.22,33.94,47.98,58.86
			c3.16,2.56,6.65,4.82,10.91,6.55c10.08,4.08,19.29,3.04,26.19,2.18c2.84-0.35,15.75-2.11,28.37-8.73
			c14.54-7.63,25.97-20.3,35.28-35.1c-11.64,7.28-23.43,14.33-35.35,21.14C348.21,1431.95,337.93,1437.39,327.01,1436.66z"/>
		<path class="st1" d="M408.63,375.04c-1.11,0.14-2.34,0.09-3.61-0.04c3.18,7.63,4.69,13.83,5.14,15.7
			c0.89,3.69,7.77,33.94-6.55,56.74c-3.98,6.34-7.54,11.13-10.5,14.73c2.85,2.38,5.38,5.15,7.43,8.24
			c17.53-28.86,25.52-63.38,22.59-97.02c-0.66-0.6-1.32-1.21-1.97-1.83C417.69,373.26,409.88,374.88,408.63,375.04z"/>
		<path class="st1" d="M421.17,371.57c0.65,0.62,1.31,1.23,1.97,1.83c-0.1-1.12-0.17-2.23-0.29-3.35
			C422.9,370.54,422.23,371.06,421.17,371.57z"/>
		<path class="st3" d="M410.17,390.7c-0.45-1.88-1.96-8.07-5.14-15.7c-3.47-0.36-7.28-1.3-9.99-0.51
			c-8.55,2.48-3.05,15.37-2.32,21.53c2.43,20.3-2.13,41.51-13.32,58.69c5.02,1.51,9.7,4.1,13.72,7.47c2.97-3.6,6.52-8.39,10.5-14.73
			C417.94,424.64,411.06,394.39,410.17,390.7z"/>
		<path class="st3" d="M314.84,422.24c10.58,1.72,20.92-3.95,29.48-10.4c4.47-3.37,8.87-7.19,11.11-12.32
			c0.99-2.27,1.5-4.93,0.49-7.2c-7.17-16.12-26.77,8.63-32.93,12.12c-4.34,2.45-9.22,4.39-12.28,8.32c-1.37,1.76-2.3,4.18-1.38,6.21
			C310.25,421,312.64,421.88,314.84,422.24z"/>
		<path class="st3" d="M307.93,591.81c5.06,4.87,13.09,5.87,19.69,3.45c6.59-2.41,11.8-7.79,15.19-13.95
			c3.39-6.15,5.13-13.06,6.45-19.96c0.96-5.01,1.7-10.06,2.24-15.13c0.23-2.15,0.41-4.36-0.18-6.43
			c-3.4-12.03-11.29-7.88-16.22-1.26c-5.5,7.38-11.54,13.76-20.15,17.49c-4.24,1.84-9.14,3.19-11.66,7.07
			c-1.82,2.79-1.98,6.32-1.88,9.65C301.61,579.63,302.96,587.03,307.93,591.81z"/>
		<path class="st2" d="M281.04,720.67c-0.77,0.01-1.54,0-2.31-0.01C279.49,720.74,280.26,720.76,281.04,720.67z"/>
		<path class="st3" d="M354.34,678.3c7.68-3.12,25.79-15.65,20.49-26.29c-8.21-16.5-20.68,13.58-24.34,17.71
			c-3.31,3.75-8.07,5.83-12.67,7.8c-3.79,1.62-7.59,3.25-11.38,4.87C335.91,682.67,345.57,681.86,354.34,678.3z"/>
		<path class="st2" d="M335.45,771.56c-7.22,1.11-14.42,2.37-21.6,3.71C321.14,774.62,328.36,773.35,335.45,771.56z"/>
		<path class="st2" d="M280.75,817.73c5.86-0.37,11.72-0.87,17.55-1.59C292.43,816.28,286.51,816.67,280.75,817.73z"/>
		<path class="st2" d="M368,698.41c-0.33-0.2-0.68-0.37-1.06-0.48c-0.22,0.16-0.45,0.32-0.67,0.49c0.56-0.04,1.12-0.05,1.67-0.01
			C367.96,698.41,367.98,698.41,368,698.41z"/>
		<path class="st2" d="M368.07,698.46l0.1-0.03c-0.06,0-0.11-0.01-0.17-0.02C368.03,698.43,368.05,698.45,368.07,698.46z"/>
		<path class="st2" d="M352.76,703.82c-0.94,1.01-1.8,2.16-2.14,3.49c-0.92,3.57,2.39,7.22,6.04,7.71c3.11,0.41,6.18-0.92,8.69-2.87
			c-2.15-0.12-4.19-1.09-6.12-2.09c-0.96-0.5-1.98-1.05-2.49-2c-0.4-0.75-0.43-1.65-0.3-2.48c0.7-4.35,5.33-6.87,9.82-7.16
			c0.22-0.16,0.45-0.32,0.67-0.49c0.38,0.11,0.73,0.28,1.06,0.48c0.06,0,0.11,0.01,0.17,0.02l1.05-0.33
			C363.25,697.21,356.9,699.42,352.76,703.82z"/>
		<path class="st2" d="M366.27,698.42c-4.5,0.29-9.12,2.8-9.82,7.16c-0.13,0.84-0.1,1.74,0.3,2.48c0.51,0.95,1.53,1.5,2.49,2
			c1.93,1,3.97,1.97,6.12,2.09c0.44-0.34,0.87-0.69,1.27-1.07c1.96-1.82,3.67-4.11,4-6.77c0.28-2.23-0.71-4.69-2.55-5.85l-3.25,1.01
			C365.31,699.12,365.79,698.77,366.27,698.42z"/>
		<path class="st3" d="M273.7,807.65c-5.98-0.78-9.87-7.25-9.91-13.29c-0.03-6.03,2.78-11.67,5.53-17.04
			c-7.79,0.06-15.33,3.02-21.91,7.18c-0.59,0.37-1.14,0.8-1.72,1.19c-1.83,6.92,2.71,14.86,2.97,15.3c1.5,2.54,3.31,4.4,5.04,5.92
			C260.27,808.24,267.06,808.51,273.7,807.65z"/>
		<path class="st2" d="M324.91,913.66c1.72-0.49,3.44-1.02,5.15-1.55c0.61-0.19,1.23-0.37,1.84-0.56c1.52-0.48,3.04-0.99,4.56-1.5
			c0.81-0.27,1.61-0.54,2.41-0.82c1.39-0.48,2.78-0.98,4.16-1.49c0.94-0.34,1.87-0.69,2.8-1.04c1.28-0.48,2.56-0.98,3.83-1.48
			c1.05-0.41,2.09-0.84,3.14-1.27c1.16-0.48,2.33-0.96,3.48-1.45c1.19-0.51,2.36-1.03,3.54-1.55c1.02-0.45,2.04-0.9,3.06-1.37
			c1.39-0.64,2.77-1.3,4.15-1.96c0.81-0.39,1.62-0.76,2.42-1.16c2.19-1.08,4.36-2.18,6.52-3.31c3.99-2.1,7.98-4.35,11.43-7.23
			c1.78-6.99,1.87-14.64-1.23-19.45c-3.23-5.01-8.87-5.32-8.73-8.73c0.11-2.67,3.58-3.1,6.55-6.55c5.64-6.55,5.76-19.69,0-26.19
			c-3.05-3.44-7.29-4.51-9.48-6.24c-14.98,0.13-29.87-0.21-44.27-4.08c11.84-1.14,23.67-2.33,35.5-3.58
			c3.95-0.42,7.92-0.88,11.75-1.9c1.88-2.01,3.55-3.22,4.31-3.84c5.7-4.69,7.77-16.49,4.36-24.01c-2.9-6.39-8.72-7.4-8.73-13.09
			c0-0.25,0.01-0.47,0.04-0.68c-3.45-0.13-6.93,0.05-10.37,0.29c-10.6,0.75-21.14,2.06-31.64,3.68c-7.09,1.8-14.31,3.06-21.6,3.71
			c7.18-1.34,14.38-2.59,21.6-3.71c10.19-2.58,20.09-6.29,29.43-11.11c7.06-3.65,14.01-8.18,18.95-14.28
			c-0.94-5.54-5.76-9.21-7.85-13.52c-6.76,0.03-13.66,0.77-20.36-0.12c6.62-0.42,13.15-1.85,19.4-4.07
			c0.02-0.53,0.08-1.08,0.22-1.65c0.03-0.13,0.75-1.54,2.18-4.36c5.73-11.28,6.03-11.57,6.55-13.09c0.33-0.98,2.71-8.23,0-15.28
			c-3.32-8.64-11.9-10.76-10.91-15.28c0.35-1.62,1.55-1.78,4.36-4.36c1.05-0.96,6.71-6.16,8.73-13.1c0.2-0.67,2.78-10.03-2.18-17.46
			c-2.5-3.75-5.83-5.38-8.16-7.01c-0.21,0.03-0.41,0.06-0.62,0.09c-11.11,1.71-21.85,5.38-32.98,6.91
			c-21.75,3-43.73-2.26-65.68-2.86c-8.17-0.22-16.64,0.27-23.94,3.95c-1.04,0.52-2.04,1.14-3.01,1.81
			c-0.45,1.47-0.73,2.74-0.92,3.65c-0.08,0.38-0.19,0.98-0.31,1.75c0.79,1.48,1.7,2.9,2.68,4.21
			c12.74,17.04,34.51,25.01,55.63,27.58c-17.67,0.33-35.33,1.23-52.94,2.66c-0.98,1.43-2,3.13-2.88,5.26
			c-0.38,0.92-0.68,1.8-0.93,2.66c1.36-0.83,2.75-1.58,4.24-2.13c4.34-1.59,9.31-1.35,13.48,0.65c0.75,0.36,1.54,0.86,1.73,1.68
			c0.15,0.69-0.19,1.38-0.5,2.02c-2.36,4.92-3.01,10.85-0.81,15.85c1.88,4.28,6.1,7.59,10.68,8.05c0.77,0,1.54,0.02,2.31,0.01
			c-0.77,0.09-1.55,0.07-2.31-0.01c-9.47-0.04-18.93-1.1-28.18-3.16c0.1,0.19,0.18,0.38,0.29,0.57c2.47,4.19,5.62,5.14,6.38,7.58
			c6.59-0.62,13.25-0.49,19.79,0.48c-9.43,1.51-17.11,9.49-19.6,18.7c-2.49,9.22-0.27,19.3,4.64,27.49
			c-1.75,0.69-3.5,1.38-5.23,2.12c-1.83,2.82-7.71,3.83-10.34,9.11c-0.35,0.7-0.59,1.42-0.78,2.16c0.58-0.39,1.13-0.82,1.72-1.19
			c6.58-4.16,14.13-7.12,21.91-7.18c-2.75,5.37-5.57,11-5.53,17.04c0.03,6.03,3.92,12.51,9.91,13.29
			c-6.65,0.86-13.43,0.59-20.01-0.73c3.34,2.94,6.32,4.56,5.88,7.18c-0.04,0.24-0.11,0.46-0.2,0.66c0.27,0.01,0.54,0.02,0.82,0.02
			c11.44,0.16,22.89-0.09,34.3-0.68c-4.52,0.67-8.98,1.58-13.32,2.83c-0.99,0.28-1.96,0.62-2.93,0.94c0.84-0.05,1.67-0.08,2.51-0.14
			c5.77-1.06,11.68-1.45,17.55-1.59c-5.83,0.71-11.69,1.21-17.55,1.59c-2.17,0.4-4.31,0.94-6.43,1.56
			c-9.3,3.67-17.55,9.11-22.58,16.33c-2.71,3.88-4.32,8.3-4.72,12.75c4.44,4.37,9.73,7.87,15.52,10.15
			c4.92,1.94,10.13,3.02,15.31,4.09c4.89,1.01,9.79,2.02,14.76,2.51c4.3,0.43,8.63,0.46,12.95,0.43
			c14.13-0.09,28.25-0.82,42.31-2.19c-6.73,2.08-13.5,4.16-20.48,5.05c-3.39,0.43-6.8,0.58-10.22,0.7
			c-19.38,0.69-38.78,0.52-58.14-0.51c-2.56-0.14-5.25-0.26-7.54,0.88c-2.73,1.36-4.34,4.26-5.33,7.14
			c-1.27,3.69-1.73,7.63-1.46,11.52c0.98,4.11,2.69,6.23,4.07,8.42C272.26,906.47,300.4,904.93,324.91,913.66
			C324.91,913.66,324.91,913.66,324.91,913.66z M374.79,702.48c0.42,1.33,0.18,2.8-0.34,4.1c-1.23,3.06-4.06,5.42-7.29,6.07
			c3.23-0.65,6.06-3.01,7.29-6.07C374.97,705.28,375.21,703.81,374.79,702.48c-0.83-2.62-3.85-3.82-6.61-4.05l-0.1,0.03
			c1.85,1.17,2.83,3.62,2.55,5.85c-0.33,2.65-2.04,4.95-4,6.77c-0.4,0.37-0.83,0.73-1.27,1.07c0.25,0.01,0.5,0.07,0.75,0.05
			c2.43-0.11,4.95-2,4.83-4.43c0.12,2.43-2.41,4.31-4.83,4.43c-0.25,0.01-0.5-0.04-0.75-0.05c-2.51,1.95-5.58,3.28-8.69,2.87
			c-3.66-0.48-6.96-4.13-6.04-7.71c0.34-1.34,1.2-2.49,2.14-3.49c4.14-4.4,10.49-6.61,16.46-5.72l-1.05,0.33
			C370.93,698.66,373.95,699.86,374.79,702.48z M337.83,677.52c4.6-1.97,9.36-4.05,12.67-7.8c3.65-4.13,16.12-34.22,24.34-17.71
			c5.3,10.64-12.82,23.17-20.49,26.29c-8.77,3.56-18.43,4.38-27.9,4.09C330.24,680.76,334.03,679.14,337.83,677.52z M344.06,751.03
			c4.96-2.47,10.01-5.33,15.55-5.39c1.29-0.01,2.86,0.35,3.22,1.58c0.42,1.43-1.12,2.62-2.45,3.29c-5.08,2.54-10.45,4.48-15.96,5.82
			c-1.47,0.92-2.86,2.02-4.28,3.01c-10.12,7.03-23.85,8.52-35.25,3.82C318.48,761.27,331.77,757.15,344.06,751.03z M341.63,849.2
			c7.78-1.55,15.09-5.37,20.8-10.88c1.03-0.99,2.08-2.22,1.96-3.64c-0.12-1.46-1.48-2.55-2.89-2.98c-4.99-1.51-9.57,2.89-13.59,6.2
			c-9.25,7.61-21.28,10.81-33.01,13.17c-7.5,1.51-15.05,2.76-22.63,3.74c20.06,2.71,40.92-0.85,58.95-10.05
			c-18.03,9.2-38.89,12.76-58.95,10.05c7.59-0.98,15.14-2.23,22.63-3.74c11.74-2.36,23.77-5.56,33.01-13.17
			c4.03-3.31,8.61-7.71,13.59-6.2c1.41,0.43,2.77,1.51,2.89,2.98c0.12,1.42-0.93,2.65-1.96,3.64
			C356.72,843.83,349.41,847.65,341.63,849.2z M297.77,893.99c11.45-1.1,22.77-3.51,33.68-7.14c8.56-2.85,16.87-6.46,24.8-10.77
			c1.25-0.68,2.56-1.4,3.99-1.37c1.42,0.02,2.93,1.11,2.86,2.53c-0.03,0.52-0.26,1.01-0.49,1.48c-4.95,9.88-15.67,20.55-27.19,21.8
			c-5.07,0.55-10.32-0.66-15.29-1.5C313.77,897.93,303.83,893.41,297.77,893.99z"/>
		<path class="st3" d="M340.13,759.35c1.42-0.99,2.81-2.09,4.28-3.01c-1.58,0.39-3.18,0.74-4.78,1.02c1.61-0.28,3.2-0.64,4.78-1.02
			c1.22-0.77,2.49-1.42,3.88-1.76c2.31-0.58,5.41-0.77,6.02-3.07c-0.61,2.31-3.71,2.49-6.02,3.07c-1.4,0.35-2.66,1-3.88,1.76
			c5.52-1.34,10.89-3.29,15.96-5.82c1.33-0.67,2.87-1.86,2.45-3.29c-0.36-1.23-1.93-1.59-3.22-1.58c-5.54,0.05-10.6,2.92-15.55,5.39
			c-12.29,6.12-25.58,10.24-39.18,12.14C316.27,767.87,330.01,766.38,340.13,759.35z"/>
		<path class="st2" d="M367.94,698.41c-0.55-0.04-1.11-0.02-1.67,0.01c-0.48,0.35-0.97,0.7-1.45,1.05l3.25-1.01
			c-0.02-0.02-0.05-0.03-0.07-0.05C367.98,698.41,367.96,698.41,367.94,698.41z"/>
		<path class="st3" d="M335.41,900.51c11.52-1.25,22.24-11.93,27.19-21.8c0.24-0.47,0.47-0.96,0.49-1.48
			c0.07-1.42-1.44-2.51-2.86-2.53c-1.42-0.02-2.74,0.69-3.99,1.37c-7.92,4.32-16.23,7.92-24.8,10.77
			c-10.91,3.63-22.23,6.04-33.68,7.14c6.06-0.58,16,3.94,22.35,5.02C325.09,899.85,330.33,901.06,335.41,900.51z"/>
		<path class="st3" d="M366.64,1004.71c12.32-6.03,44.99-44.79,13.23-41.34c-10.1,1.1-21.11,8.39-28.37,15.08
			c-8.86,8.17-18.68,29.97,2.19,29.94C358.22,1008.39,362.58,1006.7,366.64,1004.71z"/>
		<path class="st3" d="M393.04,1105.11c-2.12-10.91-20.49-7.71-26.3-3.98c-9.09,5.83-16.34,18.75-20.09,28.56
			c-4.81,12.6,1.45,23.91,13,10.92c4.03-4.54,6.34-10.45,10.6-14.79C374.98,1121.01,394.68,1113.53,393.04,1105.11z"/>
		<path class="st3" d="M375.88,1230.28c-11.47,0.17-16.78,10.77-23.1,18.47c-8.64,10.52-19.54,15-19.87,29.88
			c-0.18,7.87-0.35,15.75-0.53,23.62c-0.11,4.93-0.19,10.02,1.62,14.61c1.82,4.59,6.04,8.6,10.97,8.58
			c5.95-0.02,10.28-5.43,13.67-10.32c7.71-11.13,15.52-22.45,19.87-35.27C383.26,1265.87,409.3,1229.78,375.88,1230.28z"/>
	</g>
</g>
</svg>
