<?xml version="1.0" encoding="utf-8"?>
<!-- Generator: Adobe Illustrator 25.4.1, SVG Export Plug-In . SVG Version: 6.00 Build 0)  -->
<svg version="1.1" id="Layer_1" xmlns="http://www.w3.org/2000/svg" xmlns:xlink="http://www.w3.org/1999/xlink" x="0px" y="0px"
	 viewBox="0 0 650 1500" style="enable-background:new 0 0 650 1500;" xml:space="preserve">
<style type="text/css">
	.st0{fill:#649A76;}
	.st1{fill:none;}
	.st2{fill:#DF9EC6;}
	.st3{fill:#C1E0CC;}
	.st4{fill:#7BC195;}
	.st5{fill:#B9458F;}
	.st6{fill:#AE3E8F;}
	.st7{fill:#CEED1A;}
</style>
<g>
	<path class="st0" d="M362.72,360.6c7.58,1.04,15.27,2.35,22.57,4.63c-2.86-2.57-8.29-6.99-12.79-14.95
		c-4.44-7.85-5.75-15.2-6.44-19.31c-1.07-6.33-1.06-11.71-0.72-16.51c-3.62,2.73-7,6.17-10.25,9.18
		c-22.71,21.05-58.79,24.7-86.34,11.3c-0.41,1.52-0.86,3.06-1.4,4.62c-2.56,7.41-6,12.81-12.88,23.6c-1.75,2.74-3.3,5.04-4.72,7.07
		c2.66-1.16,5.35-2.24,8.07-3.22C291.13,355.08,327.67,355.82,362.72,360.6z"/>
	<g>
		<path class="st1" d="M403.68,393.05c1.25,0.13,2.46,0.18,3.55,0.04c1.23-0.16,8.91-1.75,12.33-3.41
			c-5.96-5.66-11.54-11.98-18.3-16.61c-4.97-3.41-10.47-5.78-16.21-7.58c0.03,0.02,0.06,0.05,0.08,0.07
			C394.23,373.77,400.06,384.36,403.68,393.05z"/>
		<path class="st1" d="M250.85,660.25c-0.92,0.64-1.79,1.37-2.62,2.13c0.38,1.09,0.86,2.15,1.41,3.19c0.11-0.76,0.22-1.35,0.3-1.72
			C250.13,662.95,250.4,661.7,250.85,660.25z"/>
		<path class="st1" d="M281.49,828.35c-0.82,0.05-1.64,0.09-2.47,0.13c-1.3,0.43-2.59,0.9-3.85,1.4
			C277.26,829.28,279.36,828.75,281.49,828.35z"/>
		<path class="st1" d="M254.24,653.12c2.38-3.53,3.99-4.02,4.29-6.44c0.03-0.23,0.04-0.51,0.02-0.82
			c-7.65-1.05-15.31-2.1-22.96-3.15c2.7,11.47,4.64,23.11,5.8,34.83c-0.37-5.77,2.53-11.2,6.85-15.16c-1.04-2.94-1.38-6.02-0.4-8.96
			c-0.99,2.94-0.65,6.02,0.4,8.96c0.83-0.76,1.69-1.49,2.62-2.13C251.49,658.18,252.51,655.68,254.24,653.12z"/>
		<path class="st1" d="M409.44,495.8c-11.43-0.77-22.88-1.31-34.34-1.65c-0.28,0.45-0.46,0.92-0.57,1.4
			C386.17,495.49,397.8,495.57,409.44,495.8z"/>
		<path class="st1" d="M374.4,275.45c-1.15,2.74-2.58,6.44-3.97,10.88c2.9,3.65,5.53,7.52,7.76,11.59
			c14.17-24.37,25.74-50.25,34.46-77.05c-4.43,3.7-9.05,7.21-13.84,10.5c-1.4,3.92-3.08,7.9-5.1,11.9
			C386.28,257.94,381.71,258.12,374.4,275.45z"/>
		<path class="st1" d="M419.56,389.69c1.04-0.5,1.7-1.02,1.65-1.49c0.12,1.09,0.19,2.19,0.29,3.29c4.2,3.8,8.66,7.16,13.9,9.31
			c-2.4-20.86-16.33-40.02-35.42-48.75c5.82-0.46,11.64-0.92,17.46-1.37c-6.98-12.08-15.59-23.21-25.53-33
			c-3.43-3.38-7.28-6.73-12.01-7.62c-5.42-1.01-10.28,1.29-14.78,4.69c-0.35,4.8-0.35,10.17,0.72,16.51
			c0.69,4.11,1.99,11.46,6.44,19.31c4.5,7.96,9.93,12.37,12.79,14.95c5.74,1.79,11.24,4.17,16.21,7.58
			C408.01,377.71,413.59,384.03,419.56,389.69z"/>
		<path class="st2" d="M305.81,256.33c5.52,0.64,11.05,1.07,16.6,1.08c0.62,0,1.24-0.04,1.86-0.05c-4.81-0.95-9.73-1.42-14.69-1.27
			C308.32,256.11,307.06,256.21,305.81,256.33z"/>
		<path class="st0" d="M370.43,286.32c1.39-4.44,2.82-8.14,3.97-10.88c7.31-17.33,11.88-17.51,19.31-32.19c2.02-4,3.7-7.98,5.1-11.9
			c-22.16,15.25-47.86,25.55-74.55,25.99C342.3,260.92,358.82,271.72,370.43,286.32z"/>
		<path class="st3" d="M249.85,219.06c-0.53-4.6-1.52-9.19-1.22-13.81c0.52-8.02,4.89-15.32,10.14-21.4
			c5.25-6.09,11.45-11.29,16.7-17.38c13.87-16.09,20.34-37.8,19.98-59.04c-0.05-3.19-0.24-6.47,0.83-9.47
			c2.31-6.46,9.66-9.63,16.45-10.56c10.09-1.38,20.62,0.65,29.47,5.68c9.39,5.33,16.68,13.75,25.88,19.4c3,1.84,6.41,3.31,9.9,4.22
			c-6.12-8.31-13.51-16.96-22.9-27.94c-2.48-2.9-6.36-7.33-12.88-10.73c-10.38-5.41-20.5-4.59-23.6-4.29
			c-2,0.19-9.82,1.07-19.31,6.44c-7.62,4.31-14.27,9.54-23.6,23.6c-20.01,30.15-30.29,52.77-32.19,57.94
			c-5.02,13.66-6.09,20.9-6.44,23.6c-2.25,17.31,1.19,30.85,2.15,34.33c2.86,10.45,6.4,14.99,10.52,20.81
			C250.39,233.32,250.68,226.17,249.85,219.06z"/>
		<path class="st3" d="M388.82,171.2c1.68,8.72,0.87,17.7,0.05,26.54c-0.76,8.2-1.56,16.56-4.85,24.1
			c6.68,0.91,13.24-1.27,18.87-5.09c3.8-18.35,2.16-33.31,1.55-37.87c-1.62-12.28-4.96-20.8-8.58-30.04
			c-0.37-0.94-0.75-1.84-1.13-2.75c-3.62,3.19-7.99,5.53-12.68,6.65C385,158.62,387.58,164.75,388.82,171.2z"/>
		<path class="st4" d="M305.81,256.33c1.25-0.12,2.51-0.21,3.77-0.25c4.96-0.14,9.87,0.32,14.69,1.27
			c26.69-0.44,52.39-10.74,74.55-25.99c1.79-5.02,3.1-9.92,4.08-14.61c-5.63,3.82-12.19,6-18.87,5.09c3.3-7.54,4.1-15.9,4.85-24.1
			c0.82-8.84,1.63-17.82-0.05-26.54c-1.25-6.46-3.83-12.58-6.77-18.46c4.69-1.12,9.06-3.46,12.68-6.65
			c-4.65-11.21-9.9-20.1-16.74-29.39c-3.5-0.91-6.9-2.37-9.9-4.22c-9.2-5.65-16.5-14.07-25.88-19.4
			c-8.86-5.03-19.38-7.06-29.47-5.68c-6.8,0.93-14.14,4.1-16.45,10.56c-1.07,3-0.89,6.28-0.83,9.47
			c0.36,21.24-6.1,42.95-19.98,59.04c-5.25,6.09-11.45,11.29-16.7,17.38c-5.25,6.09-9.62,13.38-10.14,21.4
			c-0.3,4.62,0.69,9.21,1.22,13.81c0.82,7.11,0.54,14.26-0.12,21.4c1.69,2.38,3.47,4.96,5.34,8.25c11.51,1.77,23.02,3.55,34.52,5.32
			C294.99,254.87,300.39,255.7,305.81,256.33z"/>
		<path class="st0" d="M305.81,256.33c-5.42-0.63-10.82-1.46-16.21-2.29c-11.51-1.77-23.02-3.55-34.52-5.32
			c1.78,3.13,3.65,6.89,5.59,11.71c2.26,5.61,3.91,10.88,5.14,15.62C276.19,265.12,290.71,257.77,305.81,256.33z"/>
		<path class="st4" d="M370.43,286.32c-11.61-14.61-28.13-25.41-46.16-28.98c-0.62,0.01-1.24,0.05-1.86,0.05
			c-5.55,0-11.08-0.44-16.6-1.08c-15.1,1.44-29.62,8.79-40,19.73c1.28,4.98,2.1,9.39,2.66,13.05c12.97-13.55,31.9-21.49,50.68-20.32
			c-6.94,7.31-10.71,17.53-10.18,27.59s5.34,19.83,13,26.38c-9.97,6.14-22.12,8.66-33.7,6.97c-6.21-0.9-12.21-3.04-17.66-6.14
			c-0.37,3.77-1.02,7.64-2.1,11.62c27.55,13.4,63.64,9.75,86.34-11.3c3.25-3.01,6.63-6.45,10.25-9.18c0.18-2.5,0.45-4.86,0.72-7.1
			C366.82,299.35,368.59,292.18,370.43,286.32z"/>
		<path class="st3" d="M321.97,322.76c-7.66-6.55-12.48-16.32-13-26.38s3.24-20.28,10.18-27.59c-18.78-1.17-37.71,6.77-50.68,20.32
			c0.33,2.16,0.58,4.06,0.78,5.66c1.16,9.09,2.34,18.6,1.35,28.83c5.45,3.1,11.45,5.24,17.66,6.14
			C299.86,331.41,312.01,328.9,321.97,322.76z"/>
		<path class="st5" d="M374.53,495.55c0.11-0.48,0.28-0.96,0.57-1.4c-27.34-0.83-54.71-0.43-82,1.39c-9.87,0.66-19.76,1.5-29.63,0.9
			c-4.54-0.28-9.05-0.88-13.51-1.76c0.24,3.65-2.66,6.96-4.75,8.9c6.85-1.84,14.05-2.55,21.15-3.16
			C302.34,497.37,338.43,495.75,374.53,495.55z"/>
		<path class="st0" d="M254.24,653.12c-1.73,2.56-2.74,5.06-3.38,7.14c0.95-0.66,1.94-1.26,2.96-1.78
			c7.18-3.62,15.51-4.11,23.54-3.89c21.58,0.59,43.19,5.75,64.58,2.81c10.95-1.51,21.51-5.11,32.43-6.8
			c0.2-0.03,0.41-0.06,0.61-0.09c-1.53-1.07-2.63-2.15-2.71-3.84c-0.11-2.16,1.48-3.92,3.06-5.36c-10.04,5.01-21.14,8.22-32.25,9.75
			c-23.1,3.17-46.54,0-69.64-3.17c-4.96-0.68-9.92-1.36-14.88-2.04c0.01,0.31,0,0.59-0.02,0.82
			C258.23,649.1,256.62,649.59,254.24,653.12z"/>
		<path class="st0" d="M258.55,756.68c2.45-9.06,10-16.91,19.27-18.39c-6.44-0.95-12.98-1.09-19.46-0.47
			c0.11,0.34,0.17,0.72,0.17,1.13c0.01,2.47-2.01,3.35-4.29,6.44c-5.53,7.47-4.54,16.97-4.29,19.31c0.24,2.32,0.8,7.66,4.29,12.88
			c2.43,3.63,4.32,4.28,4.29,6.44c-0.01,0.68-0.22,1.26-0.56,1.78c1.7-0.73,3.43-1.41,5.14-2.09
			C258.29,775.65,256.1,765.74,258.55,756.68z"/>
		<path class="st2" d="M248.01,857.86c-0.01,0.09-0.02,0.18-0.03,0.27c0.06,0.06,0.12,0.12,0.18,0.18
			C248.11,858.16,248.06,858.01,248.01,857.86z"/>
		<path class="st0" d="M368.7,905.77c-0.79,0.39-1.59,0.76-2.38,1.14c-1.36,0.65-2.71,1.3-4.08,1.93c-1,0.46-2,0.9-3.01,1.34
			c-1.16,0.51-2.32,1.03-3.48,1.52c-1.14,0.49-2.28,0.96-3.42,1.43c-1.03,0.42-2.05,0.84-3.08,1.25c-1.25,0.5-2.51,0.98-3.77,1.46
			c-0.92,0.35-1.83,0.69-2.75,1.02c-1.36,0.5-2.73,0.99-4.09,1.46c-0.79,0.27-1.58,0.54-2.37,0.8c-1.49,0.5-2.98,1-4.48,1.47
			c-0.6,0.19-1.2,0.37-1.81,0.55c-1.68,0.52-3.37,1.04-5.06,1.52c0,0,0,0,0,0c0.34,0.12,0.68,0.23,1.02,0.36
			c-1.09,0.09-2.18,0.17-3.27,0.26c-1.37,0.38-2.74,0.77-4.11,1.13c20.26,0.91,39.9-6.21,59.84-9.91c1.03-0.19,2.07-0.36,3.1-0.53
			c-0.25-0.37-0.48-0.75-0.65-1.21c-1.12-3.17,0.97-6.41,2.15-8.58c1.38-2.56,2.55-5.6,3.36-8.77c-3.39,2.83-7.31,5.04-11.24,7.11
			C372.99,903.63,370.85,904.72,368.7,905.77z"/>
		<path class="st0" d="M364.21,772.03c-9.18,4.74-18.92,8.39-28.94,10.92c10.33-1.59,20.69-2.88,31.11-3.62
			c3.38-0.24,6.81-0.41,10.2-0.28c0.13-1.22,0.7-2.18,2.11-5.77c2.79-7.09,4.19-10.63,4.29-12.88c0.04-0.85-0.02-1.66-0.15-2.43
			C377.99,763.99,371.15,768.44,364.21,772.03z"/>
		<path class="st0" d="M330.14,825.37c14.16,3.8,28.8,4.13,43.53,4.01c-0.83-0.66-1.37-1.41-1.41-2.45
			c-0.05-1.23,0.68-2.27,2.15-4.29c0.74-1.02,1.48-1.89,2.2-2.66c-3.76,1-7.67,1.46-11.55,1.87
			C353.42,823.07,341.78,824.25,330.14,825.37z"/>
		<path class="st0" d="M252.28,669.71c-0.96-1.29-1.86-2.69-2.64-4.14c-0.34,2.34-0.63,6.38,0.3,11.15
			c0.74,3.78,1.45,7.41,4.29,10.73c2.34,2.73,3.73,2.45,4.29,4.29c0.75,2.46-1.3,4.33-3.6,7.71c17.32-1.41,34.68-2.29,52.05-2.62
			C286.21,694.3,264.81,686.47,252.28,669.71z"/>
		<path class="st0" d="M247.48,886.27c0.97-2.84,2.56-5.68,5.24-7.02c2.25-1.12,4.9-1,7.41-0.87c19.04,1.01,38.12,1.18,57.17,0.5
			c3.36-0.12,6.72-0.26,10.05-0.69c6.87-0.88,13.52-2.92,20.14-4.97c-13.83,1.35-27.71,2.07-41.6,2.16
			c-4.25,0.03-8.5-0.01-12.73-0.43c-4.88-0.48-9.7-1.48-14.51-2.47c-5.09-1.05-10.22-2.11-15.06-4.02
			c-5.7-2.24-10.9-5.69-15.26-9.98c-0.01,0.08-0.03,0.16-0.04,0.24c-0.05-0.14-0.09-0.27-0.13-0.41c-0.06-0.06-0.12-0.12-0.18-0.18
			c-0.02,0.2-0.06,0.39-0.07,0.59c0.46,1.58,1.12,3.16,2.04,4.69c2.13,3.56,4.99,5.7,4.29,8.58c-0.51,2.09-2.41,2.61-4.29,4.29
			c-6.36,5.69-4.56,17.55-4.29,19.31c0.11,0.72,0.25,1.38,0.39,2C245.78,893.77,246.24,889.89,247.48,886.27z"/>
		<path class="st0" d="M272.07,830.84c1.02-0.37,2.06-0.65,3.1-0.95c1.27-0.5,2.55-0.97,3.85-1.4c-7.25,0.41-14.52,0.59-21.78,0.46
			c-0.23,0-0.45-0.02-0.68-0.02c2.01-1.7,3.38-2.29,3.91-3.5c-0.05,0-0.1,0-0.14,0c-0.09,0.06-0.16,0.11-0.25,0.17
			c-8.85,6.16-11.35,14.75-11.94,16.79c-0.46,1.58-2.41,8.35-0.13,15.48c0.36-3.69,1.45-7.35,3.26-10.57
			C255.68,839.41,263.57,833.89,272.07,830.84z"/>
		<path class="st6" d="M248.29,858.72c0.01-0.08,0.03-0.16,0.04-0.24c-0.06-0.06-0.11-0.11-0.17-0.17
			C248.2,858.45,248.24,858.58,248.29,858.72z"/>
		<path class="st0" d="M256.56,828.93c0.23,0.01,0.45,0.02,0.68,0.02c7.26,0.13,14.53-0.05,21.78-0.46
			c0.96-0.32,1.91-0.64,2.88-0.92c4.27-1.23,8.65-2.12,13.1-2.78c-11.23,0.57-22.48,0.82-33.73,0.66c-0.27,0-0.53-0.01-0.8-0.02
			C259.95,826.64,258.58,827.22,256.56,828.93z"/>
		<path class="st0" d="M248.33,858.48c0.39-4.37,1.98-8.72,4.64-12.54c4.95-7.1,13.06-12.45,22.2-16.06
			c-1.04,0.3-2.08,0.59-3.1,0.95c-8.5,3.05-16.39,8.57-20.81,16.45c-1.81,3.23-2.9,6.88-3.26,10.57c0.05,0.15,0.1,0.3,0.15,0.45
			C248.21,858.37,248.27,858.43,248.33,858.48z"/>
		<path class="st3" d="M375.12,744.69c-0.62-1.29-1-2.64-0.94-4.12c-6.14,2.19-12.57,3.59-19.07,4.01
			C361.69,745.45,368.47,744.72,375.12,744.69z"/>
		<path class="st4" d="M343.07,651.07c11.11-1.52,22.2-4.73,32.25-9.75c0.42-0.38,0.84-0.75,1.23-1.08
			c6.51-5.64,11.11-13.19,17.17-19.31c9.49-9.58,12.49-21.86,15.02-32.19c5.82-23.77-0.13-43.38-2.15-49.35
			c-4.77-14.11-9.26-27.4-21.46-34.33c-4.33-2.46-10.6-4.68-10.73-8.58c-0.01-0.32,0.06-0.62,0.13-0.92
			c-36.1,0.2-72.19,1.81-108.16,4.86c-7.1,0.6-14.3,1.31-21.15,3.16c-0.72,0.67-1.34,1.18-1.71,1.48
			c-5.73,4.81-10.07,12.17-16.7,25.01c10.45-10.73,24.04-18.42,38.7-21.56c-14.75,19.61-16.21,48.26-3.53,69.26
			c-11.83,3.3-23.16,10.04-29.54,20.53c-2.77,4.56-4.4,9.9-4.72,15.24c3.97,6.12,9.23,12.6,15.78,15.97
			c0.15,0.08,5.61,2.89,10.73,8.58c3.56,3.96,4.26,6.33,4.32,7.77c4.96,0.68,9.92,1.36,14.88,2.04
			C296.53,651.07,319.98,654.24,343.07,651.07z M367.64,556.99c-1.23-4.9-7.26-14.94-3.28-19.21c3.72-3.99,15.57-0.84,20.2-1.19
			c0.6-0.05,1.29-0.08,1.72,0.35c0.31,0.32,0.37,0.8,0.42,1.25c2.38,23.59,4.55,48.53-5.51,70c-7.12-0.13-14.15-3.15-19.15-8.22
			C369.19,587.03,371.24,571.34,367.64,556.99z M303.64,577.98c2.48-3.81,7.29-5.14,11.46-6.95c8.47-3.67,14.41-9.95,19.82-17.2
			c4.85-6.51,12.61-10.59,15.95,1.24c0.58,2.04,0.4,4.21,0.17,6.33c-0.53,4.99-1.26,9.95-2.2,14.88
			c-1.29,6.78-3.01,13.58-6.34,19.63c-3.33,6.05-8.45,11.34-14.93,13.71c-6.48,2.37-14.38,1.39-19.36-3.39
			c-4.88-4.7-6.21-11.98-6.42-18.76C301.7,584.2,301.86,580.73,303.64,577.98z"/>
		<path class="st3" d="M261.98,577.76c-12.68-21-11.22-49.65,3.53-69.26c-14.65,3.14-28.25,10.83-38.7,21.56
			c-1.46,2.83-3.03,5.92-4.76,9.32c-9.49,18.67-10.35,45.25,0,64.38c1.44,2.66,3.33,6.16,5.68,9.78c0.31-5.35,1.94-10.68,4.72-15.24
			C238.82,587.8,250.15,581.07,261.98,577.76z"/>
		<path class="st3" d="M264.44,470.16c1.18-1.77,2.31-3.67,2.61-5.78c0.59-4.15-2.05-7.98-4.23-11.56c-5.9-9.72-9.1-22-4.75-32.5
			c2.64-6.37,7.72-11.36,12.55-16.28c7.19-7.33,14.17-15.02,19.09-24.02c3.57-6.53,5.98-13.86,6.36-21.25
			c-13.12,1.37-26.03,4.05-38.48,8.51c-2.72,0.97-5.41,2.05-8.07,3.22c-8.27,11.76-11.7,13.12-16.74,22.98
			c-3.57,6.98-9.37,21.04-8.58,38.63c0.13,2.81,1.17,22.09,10.73,36.48c4.18,6.29,6.82,13.67,11.4,19.63
			C253.45,483.43,259.67,477.3,264.44,470.16z"/>
		<path class="st4" d="M293.1,495.54c27.29-1.82,54.66-2.21,82-1.39c1.44-2.29,4.87-4.17,7.89-6.26c0,0,3.43-2.4,8.98-9.12
			c-3.95-3.31-8.55-5.85-13.49-7.34c11-16.89,15.48-37.75,13.09-57.7c-0.72-6.05-6.13-18.73,2.28-21.17
			c2.67-0.78,6.41,0.15,9.82,0.5c-3.62-8.69-9.45-19.28-18.55-27.48c-0.03-0.02-0.06-0.05-0.08-0.07
			c-7.29-2.28-14.98-3.59-22.57-4.63c-21.94-3-44.46-4.4-66.41-2.11c-0.38,7.39-2.79,14.72-6.36,21.25
			c-4.92,9-11.9,16.7-19.09,24.02c-4.83,4.93-9.91,9.91-12.55,16.28c-4.35,10.5-1.15,22.79,4.75,32.5
			c2.18,3.58,4.82,7.41,4.23,11.56c-0.3,2.11-1.42,4.01-2.61,5.78c-4.77,7.14-10.99,13.27-18.12,18.04
			c0.48,0.62,0.95,1.24,1.47,1.83c0.49,0.55,1.87,2.07,2.15,4.29c0.01,0.12,0.01,0.23,0.02,0.35c4.46,0.89,8.97,1.49,13.51,1.76
			C273.34,497.04,283.23,496.2,293.1,495.54z M373.83,420.15c1.2-4.7,1.79-10.4-1.72-13.75c-1.81-1.73-4.68-2.86-4.96-5.35
			c1.58-1.4,13.97-1.2,13.92-1.62c2.64,21.83-1.87,44.47-12.67,63.62c-3.61-2.82-7.22-5.65-10.83-8.47
			C365.12,444.28,370.67,432.53,373.83,420.15z M310.95,430.18c3.01-3.87,7.81-5.77,12.07-8.18c6.06-3.43,25.33-27.77,32.38-11.92
			c0.99,2.22,0.49,4.84-0.48,7.07c-2.2,5.04-6.53,8.8-10.92,12.11c-8.42,6.34-18.58,11.92-28.98,10.23
			c-2.16-0.35-4.52-1.22-5.42-3.22C308.69,434.29,309.6,431.91,310.95,430.18z"/>
		<path class="st0" d="M381.18,608.19c10.06-21.47,7.89-46.41,5.51-70c-0.04-0.45-0.11-0.93-0.42-1.25
			c-0.42-0.43-1.11-0.4-1.72-0.35c-4.62,0.35-16.48-2.81-20.2,1.19c-3.97,4.27,2.06,14.31,3.28,19.21
			c3.6,14.35,1.55,30.04-5.62,42.98C367.03,605.04,374.06,608.06,381.18,608.19z"/>
		<path class="st0" d="M381.07,399.43c0.05,0.42-12.33,0.22-13.92,1.62c0.28,2.49,3.15,3.62,4.96,5.35
			c3.51,3.35,2.92,9.05,1.72,13.75c-3.16,12.37-8.71,24.13-16.26,34.43c3.61,2.82,7.22,5.65,10.83,8.47
			C379.21,443.9,383.72,421.26,381.07,399.43z"/>
		<path class="st6" d="M324.91,922.67c-0.7,0.2-1.41,0.39-2.12,0.58c-0.05,0.01-0.09,0.02-0.14,0.04c1.09-0.09,2.18-0.17,3.27-0.26
			C325.59,922.9,325.25,922.79,324.91,922.67z"/>
		<path class="st0" d="M322.79,923.25c0.71-0.2,1.41-0.38,2.12-0.58c-24.09-8.59-51.77-7.07-74.86-16.79
			c1.14,1.83,2.05,3.71,2.04,6.89c0,6.71-4.04,11.92-6.44,15.02c-0.05,0.06-0.09,0.1-0.14,0.16c25.74-0.98,51.46-2.54,77.14-4.66
			C322.7,923.28,322.74,923.26,322.79,923.25z"/>
		<path class="st6" d="M324.91,922.67c-0.7,0.2-1.41,0.39-2.12,0.58C323.49,923.06,324.2,922.87,324.91,922.67L324.91,922.67z"/>
		<path class="st0" d="M348.12,1052.16c-35.9,4.93-73.13-0.61-106.12-15.57c2.93,4.03,6.18,7.23,10.1,9.22
			c1.4,0.71,6.19,2.95,6.44,6.44c0.21,3.01-3.07,5.47-4.29,6.44c-3.99,3.16-6.92,7.33-9.63,11.7c23.68-2.66,47.31-5.65,70.8-9.64
			C326.54,1058.85,337.76,1056.69,348.12,1052.16z"/>
		<path class="st0" d="M369.24,1051.42c-1.74,1.21-3.73,3.16-2.84,5.08c0.93,2.02,3.87,1.61,6,0.95c5.25-1.63,10.65-2.77,16.11-3.44
			c-3-1.23-5.29-2.06-5.52-3.92c-0.32-2.48,3.31-4.34,8.58-8.58c0,0,4.94-3.98,12.88-12.88c5.48-6.15,9.36-14.35,11.81-23.14
			C403.18,1023.2,387.28,1038.81,369.24,1051.42z"/>
		<path class="st3" d="M269.01,724.99c-2.16-4.91-1.52-10.74,0.8-15.58c0.3-0.63,0.64-1.31,0.49-1.99c-0.18-0.8-0.96-1.29-1.7-1.65
			c-4.1-1.96-8.99-2.2-13.25-0.64c-1.46,0.54-2.84,1.28-4.17,2.09c-0.91,3.1-1.09,5.82-1.23,8.11c-0.31,5.03-0.57,9.91,1.86,14.46
			c9.09,2.02,18.39,3.07,27.7,3.11C275,732.45,270.86,729.2,269.01,724.99z"/>
		<polygon class="st2" points="324.91,922.67 324.91,922.67 324.91,922.67 		"/>
		<path class="st0" d="M284.44,1186.99c-13.94-2.34-28.06-5.62-40.75-11.63c2.83,3.97,6.27,7.43,10.54,9.92
			c4.13,2.41,11.01,5.11,10.73,8.58c-0.28,3.56-7.91,5.48-10.73,6.44c-3.41,1.16-6.46,3.17-9.2,5.77
			c38.56-3.67,77.02-8.33,115.34-14.01C334.98,1192.9,309.5,1191.2,284.44,1186.99z"/>
		<path class="st0" d="M415.17,1221.77c-9.07-14.77-21.46-21.46-21.46-21.46c-4.3-2.32-8.48-3.72-8.58-6.44
			c-0.02-0.51,0.13-0.98,0.37-1.43c-5.29,2.74-10.84,5-16.55,6.7c11.3,1.71,21.95,7.41,29.64,15.86
			c6.51,7.16,10.8,16.03,14.33,25.04c5.23,13.37,8.98,27.51,9.01,41.87c0.04,16.78-4.94,33.1-9.45,49.26
			c-4.88,17.48-9.27,35.1-13.16,52.84c-0.96,4.39-1.87,8.89-2.27,13.38c10.63-19.38,18.17-41.24,24.55-59.75
			c3.37-9.78,5.06-14.67,6.44-21.46c5.68-27.9,0.18-50.3-6.44-77.25C419.81,1231.6,418.35,1226.93,415.17,1221.77z"/>
		<path class="st3" d="M242.64,1002.73c4.36-5.92,1.26-14.23,2.08-21.53c1.22-10.86,11.25-18.71,21.49-22.53
			c10.24-3.82,21.4-4.94,31.4-9.35c2.72-1.2,5.78-3.64,4.87-6.46c-0.77-2.4-3.82-3.02-6.32-3.24c-19.49-1.7-39.04-3.4-58.6-4.55
			c-1.62,1.07-3.2,2.08-4.78,3.45c-8.31,7.19-9.49,18.31-10.73,30.04c-1.84,17.33,2.28,31.79,5.63,40.4
			c0.17-0.02,0.33-0.05,0.5-0.07C233.52,1008.15,239.44,1007.07,242.64,1002.73z"/>
		<path class="st4" d="M412.48,1331.18c4.51-16.16,9.49-32.48,9.45-49.26c-0.04-14.36-3.78-28.5-9.01-41.87
			c-3.52-9.01-7.82-17.88-14.33-25.04c-7.69-8.45-18.34-14.16-29.64-15.86c5.71-1.71,11.26-3.96,16.55-6.7
			c0.92-1.77,3.5-3.24,6.07-5c0,0,3.92-2.69,15.02-15.02c7.58-8.42,17.16-26.89,17.17-49.35c0-14.22-5.78-25.93-17.17-49.35
			c-5.04-10.36-8.3-14.39-12.88-17.17c-1.82-1.1-3.61-1.86-5.21-2.52c-5.46,0.66-10.86,1.8-16.11,3.44c-2.12,0.66-5.07,1.07-6-0.95
			c-0.88-1.92,1.11-3.87,2.84-5.08c18.04-12.61,33.94-28.22,47.01-45.92c2.62-9.37,3.63-19.41,3.21-28.36
			c-0.42-8.97-0.99-21.02-8.58-32.19c-4.37-6.43-12.44-14.57-15.02-17.17c-6.98-7.04-10.47-10.55-10.73-10.73
			c-1.29-0.85-2.72-1.7-3.64-3.08c-1.03,0.17-2.07,0.34-3.1,0.53c-19.94,3.71-39.58,10.83-59.84,9.91c1.38-0.36,2.74-0.75,4.11-1.13
			c-25.67,2.12-51.4,3.68-77.14,4.66c-2.85,3.64-5.45,5.46-7.95,7.12c19.55,1.16,39.1,2.85,58.6,4.55c2.51,0.22,5.55,0.84,6.32,3.24
			c0.91,2.82-2.15,5.27-4.87,6.46c-10,4.41-21.16,5.53-31.4,9.35c-10.24,3.82-20.27,11.67-21.49,22.53
			c-0.82,7.3,2.28,15.61-2.08,21.53c-3.2,4.34-9.12,5.42-14.46,6.16c-0.17,0.02-0.33,0.05-0.5,0.07c1.18,3.04,2.27,5.36,2.96,6.81
			c3.79,7.94,7.27,15.19,11.36,20.82c32.99,14.96,70.23,20.5,106.12,15.57c-10.36,4.54-21.58,6.69-32.72,8.58
			c-23.48,3.99-47.12,6.98-70.8,9.64c-2.35,3.78-4.55,7.71-7.11,11.29c32.46-5.77,65.13-9.71,98.07-9.58
			c6.29,0.02,14.41,1.72,15.25,7.95c-8.71,9.19-20.47,15.44-32.96,17.5c-14.65,2.42-29.7-0.79-44.46,0.82
			c-14.76,1.61-30.8,10.63-32.37,25.39c-0.61,5.71,1.05,11.66-0.7,17.13c-1.2,3.76-3.77,6.55-7.06,8.46
			c1.92,8.77,5,18.38,10.43,26.02c12.68,6.01,26.81,9.29,40.75,11.63c25.06,4.21,50.54,5.91,75.94,5.08
			c-38.31,5.68-76.78,10.34-115.34,14.01c-3.11,2.94-5.81,6.64-8.14,10.68c16.8,2.23,33.64,4.25,50.49,6.03
			c-22.62,17.33-46.98,37.51-51.11,65.7c-1.73,11.8,0.37,24-2.1,35.67c-1.01,4.78-3.24,9.58-6.32,13.49
			c6.17,21.57,14.33,38.07,17.79,45.06c0,0,0.02,0.04,0.03,0.07c0.06,0.07,0.11,0.14,0.17,0.2c4.22,4.7,8.98,8.88,13.78,12.99
			c15.12,12.95,30.86,25.39,48.49,34.62c5.91,3.09,12.18,5.86,18.84,6.3c10.74,0.71,20.85-4.64,30.19-9.97
			c11.72-6.69,23.31-13.63,34.76-20.78c1.79-2.84,3.5-5.76,5.14-8.74c0.39-4.49,1.31-8.99,2.27-13.38
			C403.21,1366.28,407.6,1348.66,412.48,1331.18z M351.06,986.37c7.14-6.59,17.97-13.75,27.9-14.83
			c31.22-3.39-0.89,34.72-13.01,40.65c-4,1.96-8.29,3.61-12.74,3.62C332.69,1015.84,342.35,994.41,351.06,986.37z M359.07,1145.81
			c-11.35,12.77-17.5,1.65-12.78-10.74c3.68-9.64,10.81-22.35,19.75-28.08c5.72-3.67,23.78-6.81,25.86,3.91
			c1.6,8.27-17.76,15.63-22.41,20.36C365.31,1135.53,363.04,1141.34,359.07,1145.81z M377.62,1282.71
			c-4.27,12.61-11.95,23.74-19.54,34.68c-3.33,4.81-7.59,10.13-13.44,10.14c-4.85,0.01-9-3.93-10.79-8.44s-1.7-9.52-1.59-14.37
			c0.17-7.74,0.35-15.48,0.52-23.22c0.33-14.64,11.04-19.04,19.53-29.38c6.21-7.57,11.44-17.99,22.71-18.16
			C407.88,1233.47,382.28,1268.96,377.62,1282.71z"/>
		<path class="st3" d="M236.28,1288.48c4.13-28.19,28.5-48.37,51.11-65.7c-16.86-1.79-33.69-3.8-50.49-6.03
			c-6.98,12.07-10.75,27.27-12.7,35.05c-7.7,30.81-3.28,61.54,3.67,85.84c3.08-3.91,5.3-8.7,6.32-13.49
			C236.64,1312.49,234.54,1300.29,236.28,1288.48z"/>
		<path class="st3" d="M240.32,1140.89c1.74-5.47,0.09-11.42,0.7-17.13c1.57-14.76,17.62-23.79,32.37-25.39
			c14.76-1.61,29.81,1.6,44.46-0.82c12.49-2.06,24.26-8.31,32.96-17.5c-0.85-6.23-8.97-7.93-15.25-7.95
			c-32.94-0.13-65.61,3.81-98.07,9.58c-0.14,0.2-0.28,0.41-0.42,0.61c-11.4,15.54-7.94,40.65-6.44,51.5
			c0.59,4.24,1.35,9.72,2.63,15.56C236.55,1147.43,239.12,1144.65,240.32,1140.89z"/>
		<path class="st0" d="M326.97,1436.89c-6.66-0.44-12.93-3.21-18.84-6.3c-17.64-9.23-33.37-21.68-48.49-34.62
			c-4.8-4.11-9.56-8.29-13.78-12.99c-0.06-0.07-0.11-0.14-0.17-0.2c0.72,1.43,16.93,33.37,47.17,57.87
			c3.1,2.51,6.54,4.74,10.73,6.44c9.91,4.01,18.97,2.99,25.75,2.15c2.79-0.35,15.49-2.08,27.9-8.58
			c14.3-7.5,25.54-19.96,34.69-34.51c-11.45,7.15-23.03,14.09-34.76,20.78C347.82,1432.25,337.71,1437.6,326.97,1436.89z"/>
		<path class="st1" d="M407.23,393.1c-1.09,0.14-2.3,0.09-3.55-0.04c3.13,7.5,4.61,13.59,5.06,15.44
			c0.87,3.63,7.64,33.37-6.44,55.79c-3.91,6.23-7.41,10.95-10.33,14.48c2.8,2.34,5.29,5.06,7.31,8.1
			c17.23-28.38,25.09-62.32,22.21-95.39c-0.65-0.59-1.3-1.19-1.94-1.8C416.13,391.35,408.46,392.94,407.23,393.1z"/>
		<path class="st1" d="M419.56,389.69c0.64,0.61,1.29,1.21,1.94,1.8c-0.1-1.1-0.17-2.2-0.29-3.29
			C421.26,388.67,420.6,389.18,419.56,389.69z"/>
		<path class="st3" d="M408.74,408.49c-0.44-1.84-1.93-7.93-5.06-15.44c-3.41-0.35-7.16-1.28-9.82-0.5
			c-8.41,2.44-3,15.12-2.28,21.17c2.39,19.96-2.09,40.81-13.09,57.7c4.94,1.49,9.53,4.03,13.49,7.34
			c2.92-3.54,6.41-8.25,10.33-14.48C416.38,441.86,409.61,412.12,408.74,408.49z"/>
		<path class="st3" d="M315.01,439.5c10.4,1.69,20.57-3.88,28.98-10.23c4.39-3.31,8.72-7.07,10.92-12.11
			c0.97-2.23,1.47-4.85,0.48-7.07c-7.05-15.85-26.32,8.49-32.38,11.92c-4.26,2.41-9.07,4.31-12.07,8.18
			c-1.35,1.73-2.27,4.11-1.36,6.11C310.49,438.28,312.85,439.15,315.01,439.5z"/>
		<path class="st3" d="M308.22,606.23c4.97,4.79,12.87,5.77,19.36,3.39c6.48-2.37,11.6-7.66,14.93-13.71
			c3.33-6.05,5.05-12.84,6.34-19.63c0.94-4.93,1.67-9.89,2.2-14.88c0.22-2.11,0.4-4.28-0.17-6.33c-3.34-11.83-11.1-7.75-15.95-1.24
			c-5.41,7.25-11.34,13.53-19.82,17.2c-4.17,1.8-8.98,3.14-11.46,6.95c-1.79,2.74-1.95,6.22-1.85,9.49
			C302,594.25,303.33,601.52,308.22,606.23z"/>
		<path class="st2" d="M281.78,732.92c-0.76,0.01-1.51,0-2.27-0.01C280.26,732.99,281.01,733.01,281.78,732.92z"/>
		<path class="st3" d="M353.85,691.26c7.55-3.07,25.36-15.39,20.15-25.85c-8.08-16.23-20.34,13.35-23.93,17.42
			c-3.26,3.69-7.94,5.73-12.46,7.67c-3.73,1.6-7.46,3.19-11.19,4.79C335.72,695.56,345.23,694.76,353.85,691.26z"/>
		<path class="st2" d="M335.27,782.95c-7.1,1.1-14.17,2.33-21.23,3.65C321.2,785.96,328.3,784.72,335.27,782.95z"/>
		<path class="st2" d="M281.49,828.35c5.77-0.37,11.52-0.86,17.26-1.56C292.98,826.93,287.16,827.31,281.49,828.35z"/>
		<path class="st2" d="M367.28,711.04c-0.32-0.2-0.66-0.36-1.04-0.47c-0.22,0.16-0.44,0.32-0.66,0.48c0.55-0.03,1.1-0.05,1.64-0.01
			C367.24,711.03,367.26,711.03,367.28,711.04z"/>
		<path class="st2" d="M367.35,711.08l0.1-0.03c-0.06,0-0.11-0.01-0.17-0.02C367.3,711.05,367.33,711.07,367.35,711.08z"/>
		<path class="st4" d="M352.3,716.36c-0.93,0.99-1.77,2.12-2.11,3.43c-0.9,3.51,2.35,7.1,5.94,7.58c3.06,0.4,6.08-0.91,8.55-2.83
			c-2.11-0.12-4.12-1.07-6.02-2.06c-0.94-0.49-1.94-1.03-2.45-1.96c-0.4-0.73-0.43-1.62-0.29-2.44c0.69-4.28,5.24-6.76,9.66-7.04
			c0.22-0.16,0.44-0.32,0.66-0.48c0.37,0.11,0.72,0.27,1.04,0.47c0.06,0,0.11,0.01,0.17,0.02l1.04-0.32
			C362.61,709.86,356.36,712.03,352.3,716.36z"/>
		<path class="st4" d="M365.58,711.04c-4.42,0.28-8.97,2.76-9.66,7.04c-0.13,0.82-0.1,1.71,0.29,2.44c0.5,0.94,1.5,1.48,2.45,1.96
			c1.9,0.98,3.91,1.94,6.02,2.06c0.43-0.33,0.85-0.68,1.25-1.05c1.93-1.79,3.61-4.04,3.93-6.65c0.27-2.19-0.7-4.61-2.51-5.76
			l-3.19,0.99C364.63,711.73,365.11,711.39,365.58,711.04z"/>
		<path class="st3" d="M274.57,818.44c-5.88-0.77-9.71-7.13-9.74-13.06c-0.03-5.93,2.74-11.47,5.44-16.75
			c-7.66,0.06-15.07,2.97-21.55,7.06c-0.58,0.37-1.13,0.79-1.69,1.17c-1.79,6.8,2.66,14.61,2.92,15.05c1.47,2.5,3.26,4.33,4.95,5.82
			C261.36,819.02,268.03,819.28,274.57,818.44z"/>
		<path class="st4" d="M324.91,922.67c1.69-0.49,3.38-1,5.06-1.52c0.6-0.19,1.21-0.36,1.81-0.55c1.5-0.47,2.99-0.97,4.48-1.47
			c0.79-0.27,1.58-0.53,2.37-0.8c1.37-0.48,2.73-0.97,4.09-1.46c0.92-0.34,1.84-0.67,2.75-1.02c1.26-0.48,2.51-0.96,3.77-1.46
			c1.03-0.41,2.06-0.83,3.08-1.25c1.14-0.47,2.29-0.94,3.42-1.43c1.17-0.5,2.32-1.01,3.48-1.52c1-0.45,2.01-0.89,3.01-1.34
			c1.37-0.63,2.72-1.28,4.08-1.93c0.79-0.38,1.59-0.75,2.38-1.14c2.15-1.06,4.29-2.14,6.41-3.26c3.92-2.07,7.85-4.28,11.24-7.11
			c1.75-6.87,1.83-14.4-1.21-19.12c-3.17-4.92-8.72-5.23-8.58-8.58c0.11-2.62,3.52-3.05,6.44-6.44c5.54-6.44,5.66-19.36,0-25.75
			c-3-3.39-7.17-4.43-9.32-6.14c-14.73,0.12-29.37-0.21-43.53-4.01c11.64-1.12,23.28-2.29,34.91-3.52
			c3.88-0.41,7.78-0.87,11.55-1.87c1.85-1.97,3.49-3.16,4.24-3.78c5.6-4.61,7.64-16.21,4.29-23.6c-2.85-6.28-8.57-7.28-8.58-12.88
			c0-0.24,0.01-0.46,0.04-0.67c-3.39-0.13-6.82,0.05-10.2,0.28c-10.42,0.73-20.79,2.02-31.11,3.62c-6.97,1.77-14.07,3.01-21.23,3.65
			c7.06-1.32,14.14-2.55,21.23-3.65c10.02-2.54,19.75-6.18,28.94-10.92c6.95-3.59,13.78-8.04,18.63-14.04
			c-0.93-5.44-5.66-9.05-7.71-13.29c-6.65,0.03-13.43,0.76-20.02-0.12c6.51-0.42,12.93-1.81,19.07-4.01
			c0.02-0.52,0.08-1.06,0.22-1.62c0.03-0.13,0.74-1.52,2.15-4.29c5.63-11.09,5.92-11.37,6.44-12.88c0.33-0.96,2.66-8.1,0-15.02
			c-3.27-8.49-11.7-10.57-10.73-15.02c0.35-1.59,1.52-1.75,4.29-4.29c1.03-0.94,6.59-6.05,8.58-12.88
			c0.19-0.66,2.73-9.86-2.15-17.17c-2.46-3.68-5.73-5.29-8.02-6.89c-0.2,0.03-0.41,0.05-0.61,0.09c-10.92,1.69-21.48,5.29-32.43,6.8
			c-21.39,2.95-42.99-2.22-64.58-2.81c-8.03-0.22-16.36,0.27-23.54,3.89c-1.02,0.52-2.01,1.12-2.96,1.78
			c-0.45,1.44-0.72,2.69-0.91,3.59c-0.08,0.37-0.19,0.96-0.3,1.72c0.77,1.46,1.67,2.85,2.64,4.14
			c12.53,16.76,33.93,24.59,54.7,27.12c-17.37,0.33-34.73,1.21-52.05,2.62c-0.96,1.41-1.97,3.08-2.83,5.17
			c-0.37,0.9-0.67,1.77-0.92,2.62c1.33-0.81,2.7-1.55,4.17-2.09c4.27-1.56,9.16-1.33,13.25,0.64c0.74,0.35,1.52,0.85,1.7,1.65
			c0.15,0.68-0.19,1.36-0.49,1.99c-2.32,4.84-2.96,10.67-0.8,15.58c1.85,4.21,6,7.46,10.5,7.92c0.76,0,1.51,0.02,2.27,0.01
			c-0.76,0.09-1.52,0.07-2.27-0.01c-9.31-0.04-18.61-1.08-27.7-3.11c0.1,0.19,0.18,0.38,0.29,0.56c2.43,4.12,5.52,5.06,6.27,7.45
			c6.48-0.61,13.02-0.48,19.46,0.47c-9.27,1.48-16.82,9.33-19.27,18.39c-2.45,9.06-0.27,18.97,4.56,27.02
			c-1.72,0.67-3.44,1.36-5.14,2.09c-1.8,2.77-7.58,3.77-10.17,8.95c-0.34,0.69-0.58,1.4-0.77,2.12c0.57-0.39,1.11-0.81,1.69-1.17
			c6.47-4.09,13.89-7,21.55-7.06c-2.7,5.28-5.47,10.82-5.44,16.75c0.03,5.93,3.86,12.3,9.74,13.06c-6.54,0.84-13.21,0.58-19.67-0.71
			c3.29,2.9,6.21,4.49,5.78,7.06c-0.04,0.24-0.11,0.45-0.2,0.65c0.27,0.01,0.54,0.02,0.8,0.02c11.25,0.16,22.5-0.09,33.73-0.66
			c-4.45,0.66-8.83,1.55-13.1,2.78c-0.97,0.28-1.92,0.61-2.88,0.92c0.82-0.05,1.64-0.08,2.47-0.13c5.67-1.05,11.49-1.43,17.26-1.56
			c-5.74,0.7-11.49,1.19-17.26,1.56c-2.14,0.39-4.24,0.93-6.32,1.53c-9.15,3.6-17.26,8.96-22.2,16.06
			c-2.66,3.82-4.25,8.16-4.64,12.54c4.36,4.29,9.56,7.74,15.26,9.98c4.84,1.91,9.96,2.97,15.06,4.02c4.81,0.99,9.62,1.99,14.51,2.47
			c4.23,0.42,8.48,0.45,12.73,0.43c13.89-0.08,27.78-0.8,41.6-2.16c-6.62,2.04-13.27,4.09-20.14,4.97
			c-3.33,0.42-6.69,0.57-10.05,0.69c-19.05,0.67-38.13,0.51-57.17-0.5c-2.51-0.13-5.16-0.26-7.41,0.87
			c-2.68,1.34-4.27,4.19-5.24,7.02c-1.24,3.63-1.7,7.51-1.43,11.33c0.96,4.04,2.65,6.12,4,8.28
			C273.14,915.6,300.82,914.08,324.91,922.67C324.91,922.67,324.91,922.67,324.91,922.67z M373.95,715.03
			c0.42,1.31,0.18,2.75-0.33,4.03c-1.21,3.01-3.99,5.33-7.17,5.97c3.18-0.64,5.96-2.96,7.17-5.97
			C374.13,717.79,374.37,716.34,373.95,715.03c-0.82-2.57-3.79-3.75-6.5-3.98l-0.1,0.03c1.82,1.15,2.78,3.56,2.51,5.76
			c-0.32,2.61-2,4.86-3.93,6.65c-0.4,0.37-0.82,0.71-1.25,1.05c0.25,0.01,0.49,0.07,0.74,0.05c2.39-0.11,4.87-1.97,4.75-4.35
			c0.11,2.39-2.37,4.24-4.75,4.35c-0.25,0.01-0.49-0.04-0.74-0.05c-2.47,1.92-5.49,3.23-8.55,2.83c-3.6-0.47-6.85-4.06-5.94-7.58
			c0.34-1.31,1.18-2.44,2.11-3.43c4.07-4.33,10.31-6.5,16.19-5.62l-1.04,0.32C370.16,711.28,373.13,712.46,373.95,715.03z
			 M337.61,690.49c4.52-1.93,9.2-3.98,12.46-7.67c3.59-4.06,15.85-33.64,23.93-17.42c5.21,10.46-12.6,22.78-20.15,25.85
			c-8.62,3.5-18.13,4.3-27.43,4.02C330.15,693.68,333.88,692.09,337.61,690.49z M343.74,762.77c4.87-2.43,9.85-5.24,15.29-5.3
			c1.27-0.01,2.81,0.34,3.16,1.56c0.41,1.41-1.1,2.58-2.41,3.23c-4.99,2.49-10.27,4.4-15.7,5.72c-1.44,0.91-2.81,1.99-4.21,2.96
			c-9.95,6.91-23.45,8.38-34.65,3.76C318.59,772.84,331.65,768.79,343.74,762.77z M341.35,859.29c7.65-1.53,14.84-5.28,20.46-10.69
			c1.01-0.97,2.04-2.18,1.92-3.58c-0.12-1.44-1.46-2.51-2.84-2.93c-4.9-1.49-9.41,2.84-13.36,6.09
			c-9.09,7.48-20.92,10.63-32.46,12.95c-7.37,1.48-14.8,2.71-22.25,3.68c19.72,2.66,40.24-0.84,57.96-9.88
			c-17.73,9.05-38.24,12.54-57.96,9.88c7.46-0.97,14.88-2.19,22.25-3.68c11.54-2.32,23.37-5.47,32.46-12.95
			c3.96-3.26,8.46-7.58,13.36-6.09c1.38,0.42,2.72,1.49,2.84,2.93c0.12,1.4-0.91,2.61-1.92,3.58
			C356.19,854.01,349,857.76,341.35,859.29z M298.23,903.33c11.25-1.08,22.38-3.45,33.11-7.02c8.42-2.8,16.59-6.35,24.38-10.59
			c1.23-0.67,2.52-1.38,3.92-1.35c1.4,0.02,2.89,1.09,2.82,2.49c-0.03,0.52-0.25,1-0.48,1.46c-4.87,9.71-15.41,20.21-26.74,21.44
			c-4.99,0.54-10.15-0.65-15.04-1.48C313.96,907.2,304.19,902.75,298.23,903.33z"/>
		<path class="st3" d="M339.87,770.95c1.4-0.97,2.77-2.05,4.21-2.96c-1.56,0.38-3.12,0.73-4.7,1c1.58-0.28,3.15-0.62,4.7-1
			c1.2-0.75,2.44-1.39,3.82-1.73c2.28-0.57,5.32-0.75,5.92-3.02c-0.6,2.27-3.65,2.45-5.92,3.02c-1.37,0.34-2.62,0.98-3.82,1.73
			c5.42-1.32,10.7-3.23,15.7-5.72c1.31-0.66,2.82-1.82,2.41-3.23c-0.36-1.21-1.9-1.57-3.16-1.56c-5.45,0.05-10.42,2.87-15.29,5.3
			c-12.08,6.02-25.15,10.07-38.52,11.94C316.42,779.33,329.92,777.86,339.87,770.95z"/>
		<path class="st2" d="M367.22,711.03c-0.54-0.03-1.09-0.02-1.64,0.01c-0.47,0.34-0.95,0.69-1.42,1.03l3.19-0.99
			c-0.02-0.02-0.05-0.03-0.07-0.05C367.26,711.03,367.24,711.03,367.22,711.03z"/>
		<path class="st3" d="M335.23,909.74c11.32-1.23,21.87-11.73,26.74-21.44c0.23-0.46,0.46-0.94,0.48-1.46
			c0.07-1.4-1.42-2.47-2.82-2.49c-1.4-0.02-2.69,0.68-3.92,1.35c-7.79,4.25-15.96,7.79-24.38,10.59
			c-10.73,3.57-21.86,5.94-33.11,7.02c5.96-0.57,15.73,3.88,21.97,4.93C325.09,909.09,330.24,910.28,335.23,909.74z"/>
		<path class="st3" d="M365.95,1012.19c12.12-5.93,44.23-44.03,13.01-40.65c-9.93,1.08-20.76,8.25-27.9,14.83
			c-8.71,8.03-18.36,29.47,2.15,29.44C357.66,1015.81,361.94,1014.15,365.95,1012.19z"/>
		<path class="st3" d="M391.9,1110.91c-2.08-10.73-20.14-7.58-25.86-3.91c-8.94,5.73-16.07,18.44-19.75,28.08
			c-4.73,12.39,1.43,23.51,12.78,10.74c3.97-4.47,6.24-10.28,10.42-14.54C374.14,1126.54,393.51,1119.18,391.9,1110.91z"/>
		<path class="st3" d="M375.03,1233.97c-11.27,0.17-16.5,10.59-22.71,18.16c-8.49,10.34-19.21,14.74-19.53,29.38
			c-0.17,7.74-0.35,15.48-0.52,23.22c-0.11,4.85-0.19,9.85,1.59,14.37s5.94,8.45,10.79,8.44c5.85-0.02,10.11-5.34,13.44-10.14
			c7.58-10.94,15.26-22.07,19.54-34.68C382.28,1268.96,407.88,1233.47,375.03,1233.97z"/>
	</g>
	<polygon class="st7" points="317.53,50.26 328.2,61.19 338.59,50 337.97,64.89 353.65,63.94 342.11,74.07 353.89,83.91 
		338.19,83.34 339.18,98.22 328.51,87.28 318.12,98.47 318.74,83.58 303.06,84.53 314.6,74.4 302.81,64.56 318.51,65.13 	"/>
	<polygon class="st7" points="347.57,176.86 358.24,187.79 368.63,176.6 368.01,191.5 383.69,190.55 372.15,200.67 383.94,210.52 
		368.24,209.95 369.22,224.82 358.56,213.89 348.16,225.08 348.78,210.19 333.1,211.14 344.64,201.01 332.86,191.17 348.56,191.73 	
		"/>
	<polygon class="st7" points="235.99,176.86 246.65,187.79 257.05,176.6 256.43,191.5 272.11,190.55 260.57,200.67 272.35,210.52 
		256.65,209.95 257.63,224.82 246.97,213.89 236.58,225.08 237.2,210.19 221.52,211.14 233.06,201.01 221.27,191.17 236.97,191.73 	
		"/>
	<polygon class="st7" points="261.74,318.49 272.4,329.42 282.8,318.23 282.18,333.12 297.86,332.17 286.32,342.3 298.1,352.14 
		282.4,351.58 283.38,366.45 272.72,355.52 262.33,366.71 262.95,351.81 247.27,352.76 258.81,342.64 247.02,332.79 262.72,333.36 	
		"/>
	<polygon class="st7" points="351.87,303.47 362.53,314.4 372.92,303.21 372.3,318.1 387.98,317.15 376.44,327.28 388.23,337.12 
		372.53,336.55 373.51,351.43 362.85,340.49 352.45,351.68 353.07,336.79 337.39,337.74 348.93,327.61 337.15,317.77 352.85,318.34 
			"/>
	<polygon class="st7" points="308.95,415.05 319.61,425.98 330.01,414.79 329.39,429.69 345.07,428.73 333.53,438.86 345.31,448.71 
		329.61,448.14 330.59,463.01 319.93,452.08 309.54,463.27 310.16,448.38 294.47,449.33 306.01,439.2 294.23,429.35 309.93,429.92 	
		"/>
	<polygon class="st7" points="229.55,449.38 240.22,460.32 250.61,449.13 249.99,464.02 265.67,463.07 254.13,473.2 265.91,483.04 
		250.21,482.47 251.2,497.34 240.53,486.41 230.14,497.6 230.76,482.71 215.08,483.66 226.62,473.53 214.84,463.69 230.54,464.26 	
		"/>
	<polygon class="st7" points="360.45,584.57 371.11,595.5 381.51,584.32 380.89,599.21 396.57,598.26 385.03,608.38 396.81,618.23 
		381.11,617.66 382.09,632.53 371.43,621.6 361.04,632.79 361.66,617.9 345.98,618.85 357.52,608.72 345.73,598.88 361.43,599.45 	
		"/>
	<polygon class="st7" points="336.84,496.59 347.51,507.53 357.9,496.34 357.28,511.23 372.96,510.28 361.42,520.41 373.21,530.25 
		357.51,529.68 358.49,544.55 347.83,533.62 337.43,544.81 338.05,529.92 322.37,530.87 333.91,520.74 322.13,510.9 337.83,511.47 	
		"/>
	<polygon class="st7" points="244.57,550.24 255.24,561.17 265.63,549.98 265.01,564.87 280.69,563.92 269.15,574.05 280.94,583.9 
		265.24,583.33 266.22,598.2 255.55,587.27 245.16,598.46 245.78,583.56 230.1,584.52 241.64,574.39 229.86,564.54 245.56,565.11 	
		"/>
	<polygon class="st7" points="251.01,674.7 261.67,685.63 272.07,674.44 271.45,689.33 287.13,688.38 275.59,698.51 287.37,708.35 
		271.67,707.79 272.66,722.66 261.99,711.73 251.6,722.92 252.22,708.02 236.54,708.97 248.08,698.85 236.29,689 251.99,689.57 	"/>
	<polygon class="st7" points="360.45,764.82 371.11,775.76 381.51,764.57 380.89,779.46 396.57,778.51 385.03,788.64 396.81,798.48 
		381.11,797.91 382.09,812.78 371.43,801.85 361.04,813.04 361.66,798.15 345.98,799.1 357.52,788.97 345.73,779.13 361.43,779.7 	
		"/>
	<polygon class="st7" points="334.7,704.74 345.36,715.67 355.76,704.48 355.14,719.38 370.82,718.42 359.28,728.55 371.06,738.4 
		355.36,737.83 356.34,752.7 345.68,741.77 335.29,752.96 335.91,738.06 320.22,739.02 331.77,728.89 319.98,719.04 335.68,719.61 	
		"/>
	<polygon class="st7" points="257.45,820.61 268.11,831.55 278.51,820.36 277.89,835.25 293.57,834.3 282.03,844.43 293.81,854.27 
		278.11,853.7 279.09,868.58 268.43,857.64 258.04,868.83 258.66,853.94 242.97,854.89 254.51,844.76 242.73,834.92 258.43,835.49 	
		"/>
	<polygon class="st7" points="326.12,902.16 336.78,913.09 347.17,901.9 346.55,916.79 362.23,915.84 350.69,925.97 362.48,935.81 
		346.78,935.25 347.76,950.12 337.1,939.19 326.7,950.37 327.32,935.48 311.64,936.43 323.18,926.31 311.4,916.46 327.1,917.03 	"/>
	<polygon class="st7" points="246.72,964.39 257.38,975.32 267.78,964.13 267.16,979.02 282.84,978.07 271.3,988.2 283.08,998.04 
		267.38,997.47 268.36,1012.35 257.7,1001.41 247.31,1012.6 247.93,997.71 232.25,998.66 243.79,988.53 232,978.69 247.7,979.26 	
		"/>
	<polygon class="st7" points="321.82,998.72 332.49,1009.65 342.88,998.46 342.26,1013.36 357.94,1012.4 346.4,1022.53 
		358.19,1032.38 342.49,1031.81 343.47,1046.68 332.81,1035.75 322.41,1046.94 323.03,1032.05 307.35,1033 318.89,1022.87 
		307.11,1013.02 322.81,1013.59 	"/>
	<polygon class="st7" points="377.62,1065.24 388.28,1076.17 398.67,1064.98 398.05,1079.88 413.73,1078.93 402.19,1089.05 
		413.98,1098.9 398.28,1098.33 399.26,1113.2 388.6,1102.27 378.2,1113.46 378.82,1098.57 363.14,1099.52 374.68,1089.39 
		362.9,1079.55 378.6,1080.11 	"/>
	<polygon class="st7" points="235.99,1125.32 246.65,1136.26 257.05,1125.07 256.43,1139.96 272.11,1139.01 260.57,1149.14 
		272.35,1158.98 256.65,1158.41 257.63,1173.29 246.97,1162.35 236.58,1173.54 237.2,1158.65 221.52,1159.6 233.06,1149.47 
		221.27,1139.63 236.97,1140.2 	"/>
	<polygon class="st7" points="364.74,1185.41 375.4,1196.34 385.8,1185.15 385.18,1200.04 400.86,1199.09 389.32,1209.22 
		401.1,1219.07 385.4,1218.5 386.39,1233.37 375.72,1222.44 365.33,1233.63 365.95,1218.73 350.27,1219.69 361.81,1209.56 
		350.02,1199.71 365.72,1200.28 	"/>
	<polygon class="st7" points="274.62,1185.41 285.28,1196.34 295.67,1185.15 295.05,1200.04 310.73,1199.09 299.19,1209.22 
		310.98,1219.07 295.28,1218.5 296.26,1233.37 285.6,1222.44 275.2,1233.63 275.82,1218.73 260.14,1219.69 271.68,1209.56 
		259.9,1199.71 275.6,1200.28 	"/>
	<polygon class="st7" points="235.99,1256.22 246.65,1267.15 257.05,1255.96 256.43,1270.86 272.11,1269.91 260.57,1280.03 
		272.35,1289.88 256.65,1289.31 257.63,1304.18 246.97,1293.25 236.58,1304.44 237.2,1289.55 221.52,1290.5 233.06,1280.37 
		221.27,1270.53 236.97,1271.09 	"/>
	<polygon class="st7" points="358.3,1359.22 368.97,1370.15 379.36,1358.97 378.74,1373.86 394.42,1372.91 382.88,1383.03 
		394.67,1392.88 378.97,1392.31 379.95,1407.18 369.28,1396.25 358.89,1407.44 359.51,1392.55 343.83,1393.5 355.37,1383.37 
		343.59,1373.53 359.29,1374.09 	"/>
	<polygon class="st7" points="358.3,1288.41 368.97,1299.34 379.36,1288.15 378.74,1303.04 394.42,1302.09 382.88,1312.22 
		394.67,1322.07 378.97,1321.5 379.95,1336.37 369.28,1325.44 358.89,1336.63 359.51,1321.73 343.83,1322.69 355.37,1312.56 
		343.59,1302.71 359.29,1303.28 	"/>
	<polygon class="st7" points="281.05,1376.39 291.72,1387.32 302.11,1376.13 301.49,1391.02 317.17,1390.07 305.63,1400.2 
		317.41,1410.05 301.71,1409.48 302.7,1424.35 292.03,1413.42 281.64,1424.61 282.26,1409.71 266.58,1410.67 278.12,1400.54 
		266.34,1390.69 282.04,1391.26 	"/>
</g>
</svg>
