<?xml version="1.0" encoding="utf-8"?>
<!-- Generator: Adobe Illustrator 25.4.1, SVG Export Plug-In . SVG Version: 6.00 Build 0)  -->
<svg version="1.1" id="Layer_1" xmlns="http://www.w3.org/2000/svg" xmlns:xlink="http://www.w3.org/1999/xlink" x="0px" y="0px"
	 viewBox="0 0 650 1500" style="enable-background:new 0 0 650 1500;" xml:space="preserve">
<style type="text/css">
	.st0{fill:#90583B;}
	.st1{fill:#001400;}
	.st2{fill:none;}
	.st3{fill:#569623;}
	.st4{fill:#A8B718;}
	.st5{fill:#DFE828;}
	.st6{fill:#EFA990;}
	.st7{fill:#DD9F77;}
	.st8{fill:#D0EF18;}
</style>
<g>
	<polygon class="st0" points="349.59,1266.5 190.58,1266.5 154.61,1147.52 395.02,1147.52 	"/>
	<path class="st1" d="M351.3,1079.31h-56.99c-7.7,0-14-6.3-14-14v-58.2c0-7.7,6.3-14,14-14h56.99c7.7,0,14,6.3,14,14v58.2
		C365.3,1073.01,359,1079.31,351.3,1079.31z"/>
	<g>
		<path class="st1" d="M386.68,837.99c-0.11,0.15-0.25,0.27-0.38,0.42l-0.09,0.09c-0.68,0.69-1.38,1.36-2.06,1.87
			C384.99,839.59,385.85,838.79,386.68,837.99z"/>
		<path class="st1" d="M389.19,835.57c-0.93,0.96-1.9,1.91-2.89,2.84l-0.09,0.09c-0.66,0.62-1.36,1.26-2.06,1.87
			c0.84-0.78,1.7-1.58,2.53-2.38c0.09-0.09,0.18-0.16,0.25-0.25C387.68,837.03,388.44,836.3,389.19,835.57z"/>
	</g>
	<line class="st2" x1="-19.02" y1="1019.87" x2="505.66" y2="1019.87"/>
	<line class="st2" x1="-226.85" y1="591.83" x2="297.82" y2="591.83"/>
	<line class="st2" x1="51.3" y1="1116.51" x2="384.15" y2="1116.51"/>
	<line class="st2" x1="51.3" y1="1093.01" x2="434.73" y2="1093.01"/>
	<line class="st2" x1="17.7" y1="1104.76" x2="450.95" y2="1104.76"/>
	<g>
		<g>
			<path class="st3" d="M178.99,385.94c-2.34,19.84-3.38,39.81-3.5,59.79c-0.12,20.01,0.67,40.02,1.94,59.99
				c1.27,20,3.01,39.97,4.8,59.93c1.76,19.64,3.31,39.38,7.7,58.64c4.11,18.05,10.45,35.6,18.78,52.13
				c1.05,2.08,2.13,4.14,3.24,6.19c1.33,2.46,5.47,0.79,4.57-1.93c-7.6-22.81-15.2-45.76-19.28-69.51
				c-2.01-11.7-3.08-23.57-2.81-35.45c0.25-11.19,1.72-22.3,3.89-33.26c4.39-22.24,11.46-43.82,17.02-65.77
				c2.76-10.9,5.14-21.9,6.65-33.05c1.45-10.72,2.38-21.71,0.76-32.47c-1.47-9.72-5.61-19.29-13.7-25.24
				c-6.72-4.95-16.3-7.34-24.27-4.13c-2.09,0.84-3.92,1.97-5.66,3.41c-1.04,0.86-0.89,2.64,0,3.54c1.03,1.03,2.5,0.87,3.54,0
				c6.08-5.07,14.94-3.88,21.36-0.15c8.12,4.72,12.08,13.53,13.67,22.47c1.83,10.28,0.81,21.11-0.54,31.39
				c-1.42,10.75-3.73,21.37-6.37,31.88c-5.39,21.46-12.27,42.54-16.76,64.22c-2.23,10.76-3.86,21.67-4.42,32.64
				c-0.59,11.6,0.17,23.2,1.79,34.69c3.28,23.2,10.25,45.68,17.57,67.87c0.91,2.75,1.82,5.51,2.74,8.26
				c1.52-0.64,3.05-1.28,4.57-1.93c-8.71-16.06-15.43-33.15-19.99-50.84c-4.86-18.85-6.75-38.16-8.49-57.5
				c-1.78-19.76-3.55-39.53-4.9-59.33c-1.36-19.87-2.3-39.78-2.38-59.7c-0.09-19.78,0.67-39.57,2.67-59.24
				c0.26-2.51,0.53-5.02,0.83-7.53c0.16-1.34-1.26-2.5-2.5-2.5C180,383.44,179.15,384.59,178.99,385.94L178.99,385.94z"/>
		</g>
	</g>
	<g>
		<path class="st2" d="M347.08,667.58c0.58,5.89,1.42,11.94,2.45,18.11c2.4-16.78,5.44-33.46,9.16-49.99
			c4.83-21.43,10.77-42.72,15.11-64.23c-4.43,9.07-9.45,18.07-15.19,26.95C346.86,616.58,344.38,640.5,347.08,667.58z"/>
		<path class="st2" d="M512.72,528.54c-0.2-8.01-2.04-15.49-7.22-21.97c-10.11-12.64-29.68-14.21-43.99-6.83
			c-14.3,7.37-23.96,21.69-30.37,36.61c-9.54,22.21-13.16,47.01-10.38,71.07c0.53,4.59,1.29,9.13,2.21,13.64
			C435.59,569.4,472.98,526,512.72,528.54z"/>
		<path class="st2" d="M509.9,787.99c-0.5,0.49-1.35,1.46-2.3,2.46c-0.07,0.09-0.16,0.16-0.25,0.25c-0.83,0.8-1.69,1.6-2.53,2.38
			c-0.07,0.07-0.14,0.13-0.22,0.18c-27.88,20.87-64.71,37.72-90.53,59.96c-8.14,7.02-12.77,18.18-14.68,27.49
			c0.04,0.2,0.05,0.38,0.09,0.58c0.7,4.69,1.27,9.32,1.67,13.83c0.46,4.06,0.87,8.08,1.27,12.08c3.72-4.54,7.61-8.96,11.73-13.18
			c21.36-21.91,47.4-38.61,69.33-59.94c21.22-20.63,38.33-45.55,50.23-72.81C525.98,771.18,517.91,780.19,509.9,787.99z"/>
		<path class="st3" d="M570.24,569.92c-17.97-27.84-38.03-40.13-57.52-41.38c0.45,18-7.38,38.73-4.29,57.22
			c3.82,22.83,23.72,39,34.02,59.67c11.73,23.55,10.3,51.73,4.18,77.37c-3.15,13.19-7.49,26.08-12.9,38.48
			C575.51,707.84,607.85,628.21,570.24,569.92z"/>
		<path class="st3" d="M348.36,746.92c3.88,15.75,13.86,30.76,28.76,36.68c23.01,9.15,50.08-7.08,60.5-29.81
			c10.42-22.73,7.8-49.39,1.65-73.67c-5.02-19.8-12.26-39.12-16.32-59.07c-3.49,14.28-5.09,29.2-4.32,43.94
			c1.06,20.34-24.08,58.37-47.76,70.06c-2.89,1.46-5.85,3.02-8.88,4.71c-5.14-18.6-9.6-36.82-12.48-54.08
			c-0.61,4.27-1.21,8.54-1.73,12.82C345.82,714.62,344.48,731.17,348.36,746.92z"/>
		<path class="st3" d="M348.55,408.13c22.02,35.7,32.99,78.3,30.98,120.36c-0.69,14.49-2.87,28.77-5.74,42.97
			c76.34-156.35-34.57-335.48-113.84-322.53c-0.27,23.5,8.29,48.1,20.71,68.44C300.41,349.68,328.68,375.91,348.55,408.13z"/>
		<path class="st4" d="M542.45,645.42c-10.3-20.67-30.2-36.83-34.02-59.67c-3.1-18.49,4.74-39.22,4.29-57.22
			c-39.73-2.54-77.13,40.86-89.76,92.51c4.06,19.96,11.3,39.27,16.32,59.07c6.16,24.27,8.77,50.94-1.65,73.67
			c-10.42,22.73-37.5,38.96-60.5,29.81c-14.9-5.92-24.88-20.94-28.76-36.68c-3.88-15.75-2.55-32.3-0.57-48.41
			c0.52-4.28,1.12-8.55,1.73-12.82c-1.03-6.17-1.87-12.22-2.45-18.11c-2.69-27.08-0.22-51,11.54-69.17
			c5.73-8.88,10.76-17.88,15.19-26.95c2.87-14.19,5.05-28.48,5.74-42.97c2-42.06-8.96-84.66-30.98-120.36
			c-19.87-32.22-48.15-58.45-67.88-90.76c-12.42-20.34-20.99-44.94-20.71-68.44c-2.48,0.4-4.93,0.97-7.34,1.76
			c-68.43,22.35-139.86,210.02-44.08,517.38c11.05,48.55,19.18,95.48,9.01,130.49c-2.8,9.64-6.98,18.38-12.86,25.98
			c-57.41,74.18-63.7,158.84-44.94,226.9c17.17,3.65,35.07,4.85,52.83,5.49c-3.24-28.75-0.67-60.53,5.84-85.52
			c6.01-23.03,27.39-100.11,56.38-100.52c2.1,39.44-18.43,74.55-20.36,113.47c-1.31,26.38,3.16,50.18,9.94,74.02
			c2.9,0.08,5.8,0.16,8.71,0.24c13.05,0.35,26.12,0.71,39.17,0.12c8.25-0.37,16.47-1.15,24.65-2.22
			c0.4-41.32,2.13-82.66,10.04-123.13c8.91-45.65,26.31-90.59,55.5-126.2c-0.4-4-0.81-8.02-1.27-12.08
			c-0.5-4.57-1.06-9.19-1.67-13.83c-0.04-0.2-0.05-0.38-0.09-0.58c1.9-9.32,6.53-20.47,14.68-27.49
			c25.82-22.24,62.65-39.09,90.53-59.96c0.07-0.05,0.14-0.11,0.22-0.18c0.84-0.78,1.7-1.58,2.53-2.38c0.09-0.09,0.18-0.16,0.25-0.25
			c0.95-1,1.79-1.97,2.3-2.46c8.01-7.8,16.08-16.8,23.82-26.71c5.42-12.41,9.75-25.29,12.9-38.48
			C552.75,697.16,554.18,668.97,542.45,645.42z"/>
		<path class="st5" d="M254.43,1084.39c1.93-38.92,22.45-74.03,20.36-113.47c-28.99,0.4-50.37,77.48-56.38,100.52
			c-6.52,24.98-9.09,56.76-5.84,85.52c4.45,0.16,8.9,0.3,13.32,0.42c12.83,0.35,25.66,0.69,38.49,1.04
			C257.59,1134.57,253.12,1110.77,254.43,1084.39z"/>
		<path class="st3" d="M336.9,1156.54c16.43-2.15,32.7-5.57,48.75-9.89c12.14-41.01,20.01-91.06,20.81-149.58
			c0.38-28.03-0.86-58.01-4.02-89.86c-29.19,35.62-46.59,80.55-55.5,126.2C339.03,1073.88,337.3,1115.21,336.9,1156.54z"/>
		<path class="st6" d="M401.17,895.13c-0.39-4.51-0.97-9.13-1.67-13.83C400.11,885.94,400.66,890.56,401.17,895.13z"/>
		<path class="st2" d="M294.97,523.31c-5.11-26.78-14.26-59.59-30.88-81.64c-23.26-30.85-23.15,36.68-23.51,48.41
			c-0.35,11.4-0.67,23.1,2.97,33.9c3.19,9.45,9.2,17.6,15.13,25.57c4.4,5.92,9.52,12.3,16.74,13.45c8.5,1.35,16.6-5.62,19.48-13.84
			C297.76,540.94,296.6,531.88,294.97,523.31z"/>
	</g>
	<path class="st7" d="M401.46,1173.25H153.17c-7.7,0-14-6.3-14-14v-22.95c0-7.7,6.3-14,14-14h248.29c7.7,0,14,6.3,14,14v22.95
		C415.46,1166.95,409.16,1173.25,401.46,1173.25z"/>
	<polygon class="st8" points="200.5,770.02 217.87,789.06 234.78,769.59 233.79,795.52 259.32,793.88 240.54,811.5 259.73,828.65 
		234.17,827.64 235.79,853.54 218.42,834.49 201.51,853.96 202.5,828.03 176.97,829.67 195.75,812.05 176.55,794.9 202.11,795.91 	
		"/>
	<polygon class="st8" points="500.1,500.71 517.48,519.75 534.39,500.28 533.39,526.21 558.92,524.57 540.15,542.19 559.34,559.34 
		533.78,558.33 535.4,584.23 518.02,565.18 501.11,584.65 502.11,558.73 476.58,560.37 495.35,542.75 476.16,525.59 501.72,526.6 	
		"/>
	<polygon class="st8" points="370.93,921.05 388.3,940.09 405.21,920.62 404.22,946.55 429.75,944.91 410.97,962.53 430.17,979.68 
		404.61,978.67 406.22,1004.57 388.85,985.52 371.94,1004.99 372.93,979.07 347.4,980.71 366.18,963.08 346.99,945.93 
		372.55,946.94 	"/>
	<polygon class="st8" points="159.23,1032.05 176.61,1051.09 193.52,1031.62 192.52,1057.55 218.05,1055.91 199.27,1073.53 
		218.47,1090.68 192.91,1089.67 194.52,1115.57 177.15,1096.52 160.24,1115.99 161.24,1090.06 135.71,1091.7 154.48,1074.08 
		135.29,1056.93 160.85,1057.94 	"/>
	<polygon class="st8" points="238.17,205.92 255.54,224.97 272.45,205.5 271.46,231.43 296.99,229.79 278.21,247.41 297.41,264.56 
		271.85,263.55 273.46,289.45 256.09,270.4 239.18,289.87 240.17,263.94 214.64,265.58 233.42,247.96 214.23,230.81 239.79,231.82 	
		"/>
	<polygon class="st8" points="279.43,571.67 296.81,590.72 313.72,571.25 312.72,597.18 338.25,595.54 319.48,613.16 338.67,630.31 
		313.11,629.3 314.73,655.2 297.35,636.15 280.44,655.62 281.44,629.69 255.91,631.33 274.68,613.71 255.49,596.56 281.05,597.57 	
		"/>
	<polygon class="st8" points="342.23,296.91 359.6,315.95 376.51,296.48 375.52,322.41 401.05,320.77 382.27,338.39 401.46,355.54 
		375.9,354.53 377.52,380.43 360.15,361.38 343.24,380.85 344.23,354.93 318.7,356.56 337.48,338.94 318.28,321.79 343.84,322.8 	
		"/>
	<polygon class="st8" points="204.08,396.99 221.46,416.03 238.37,396.56 237.37,422.49 262.9,420.85 244.13,438.47 263.32,455.62 
		237.76,454.61 239.38,480.51 222,461.46 205.09,480.93 206.09,455.01 180.56,456.65 199.33,439.03 180.14,421.87 205.7,422.88 	"/>
	<polygon class="st8" points="132.32,517.08 149.69,536.13 166.6,516.66 165.61,542.59 191.14,540.95 172.36,558.57 191.56,575.72 
		166,574.71 167.61,600.61 150.24,581.56 133.33,601.03 134.32,575.1 108.79,576.74 127.57,559.12 108.38,541.97 133.94,542.98 	"/>
</g>
</svg>
