<?xml version="1.0" encoding="utf-8"?>
<!-- Generator: Adobe Illustrator 25.4.1, SVG Export Plug-In . SVG Version: 6.00 Build 0)  -->
<svg version="1.1" id="Layer_1" xmlns="http://www.w3.org/2000/svg" xmlns:xlink="http://www.w3.org/1999/xlink" x="0px" y="0px"
	 viewBox="0 0 650 1500" style="enable-background:new 0 0 650 1500;" xml:space="preserve">
<style type="text/css">
	.st0{fill:none;}
	.st1{fill:#EB8D98;}
	.st2{fill:#DF6B75;}
	.st3{fill:#E68961;}
	.st4{fill:#EFA990;}
</style>
<g>
	<path class="st0" d="M331.21,632.54c7.43-22.55,16.18-44.76,23.05-67.42c-3.11,5.59-6.45,11.15-10.06,16.66
		C335.03,595.75,331.3,613.05,331.21,632.54z"/>
	<path class="st0" d="M386.51,870.51c0.04,0.2,0.06,0.39,0.09,0.6c0.73,4.8,1.32,9.53,1.73,14.14c0.58,5.05,1.1,10.06,1.59,15.02
		c2.9-6.82,5.97-13.57,9.26-20.22c10.66-21.55,23.54-41.82,36.98-61.77c-12.37,7.59-24.23,15.45-34.42,24.11
		C393.29,849.57,388.49,860.98,386.51,870.51z"/>
	<path class="st0" d="M406.46,649.88c-2.65-49.81,21.53-101.5,54.77-125.66c-4.73-0.1-9.45,0.46-14.05,1.83
		c-23.28,6.95-37.17,31.33-42.14,55.11c-5.26,25.14-3.2,50.8,0.78,76.36C406.35,654.79,406.59,652.22,406.46,649.88z"/>
	<path class="st0" d="M680.34,594.08c-15.28-42.72-32.72-84.9-56.34-123.64c-44.19-72.5-108.34-130.41-173.17-185.24
		c-19.24-16.27-38.8-32.49-61.08-44.26c-44.17-23.34-95.31-27.47-145.57-29.18c0.47,4.06,1.12,8.09,1.95,12.09
		c83.76-6.58,196.78,181.66,108.12,341.28c-6.86,22.66-15.62,44.87-23.05,67.42c-0.03,6.44,0.33,13.11,1.02,19.98
		c2.29,22.89,8.24,48.02,15.48,73.83c3.15-1.73,6.22-3.33,9.21-4.82c21.81-10.61,44.79-42.44,48.91-64.02
		c-3.98-25.56-6.04-51.22-0.78-76.36c4.97-23.78,18.86-48.16,42.14-55.11c4.59-1.37,9.32-1.93,14.05-1.83
		c31.07-22.58,70.06-21.12,102.49,28.42c46.25,70.66-9.45,172-62.59,223.03c-0.52,0.5-1.4,1.49-2.38,2.51
		c-0.07,0.09-0.17,0.17-0.26,0.26c-0.86,0.82-1.75,1.64-2.62,2.44c-0.07,0.07-0.15,0.13-0.22,0.19
		c-17.91,13.22-39.37,24.86-59.48,37.21c-13.44,19.95-26.32,40.22-36.98,61.77c-3.29,6.65-6.35,13.4-9.26,20.22
		c3.08,31.58,4.29,61.35,3.9,89.23c-2.08,149.46-49.84,244.98-98.23,277c1.52,1.88,3.24,3.64,5.19,5.27
		c20.77,17.33,53.92,5.88,71.79-14.43c31.69-36.02,32.08-88.92,47.29-134.42c12.81-38.32,37.2-72.68,69.16-97.4
		c27.83-21.53,60.63-35.52,90.74-53.74c57.82-34.98,106.93-88.21,125.4-153.2C726.11,744.94,706.13,666.16,680.34,594.08z"/>
	<path class="st1" d="M291.82,1195.92c20.4-74.89,45.53-148.38,70.93-221.73c-3.76-3.94-6.96-8.44-9.94-13.02
		c-6.36-9.74-12.88-20.69-23.86-24.54c-9.22-3.24-19.31-0.62-28.93,1.08c-13.71,2.41-28.75,2.63-40.52-4.82
		c-15-9.49-21.24-29.18-36.44-38.36c-7.58-4.58-16.28-5.91-25.21-5.76c-2.9,9.85-7.23,18.78-13.34,26.57
		c-131.19,167.1-5.06,386.28,89.24,361.3c7.19-1.9,14.52-5.31,21.84-10.15C280.97,1248.41,285.4,1219.5,291.82,1195.92z"/>
	<path class="st2" d="M393.83,989.5c-9.23-1.87-18.18-4.71-25.59-10.35c-1.97-1.5-3.78-3.18-5.48-4.97
		c-25.4,73.35-50.53,146.84-70.93,221.73c-6.42,23.58-10.85,52.5,3.77,70.58C343.99,1234.49,391.75,1138.97,393.83,989.5z"/>
	<path class="st3" d="M362.76,974.19c1.7,1.79,3.51,3.47,5.48,4.97c7.42,5.64,16.37,8.48,25.59,10.35
		c0.39-27.89-0.82-57.65-3.9-89.23c-8.26,19.39-15.19,39.36-22.1,59.29C366.13,964.44,364.44,969.31,362.76,974.19z"/>
	<path class="st3" d="M501.93,542.88c13.89,14.51,20.89,34.48,23.49,54.4c6.81,52.26-14.26,104.31-41.58,149.38
		c-14.85,24.51-31.67,47.84-47.68,71.62c20.11-12.35,41.58-23.99,59.48-37.21c0.07-0.06,0.15-0.11,0.22-0.19
		c0.87-0.8,1.77-1.62,2.62-2.44c0.09-0.09,0.19-0.17,0.26-0.26c0.99-1.02,1.86-2.01,2.38-2.51
		c53.13-51.03,108.83-152.36,62.59-223.03c-32.43-49.54-71.42-51-102.49-28.42C476.31,524.54,491.36,531.83,501.93,542.88z"/>
	<path class="st4" d="M259.51,932.89c11.77,7.44,26.81,7.23,40.52,4.82c9.62-1.69,19.71-4.31,28.93-1.08
		c10.98,3.85,17.5,14.8,23.86,24.54c2.98,4.57,6.18,9.08,9.94,13.02c1.69-4.88,3.38-9.75,5.07-14.62
		c6.91-19.93,13.84-39.9,22.1-59.29c-0.49-4.97-1.01-9.97-1.59-15.02c-0.52-4.67-1.1-9.4-1.73-14.14c-0.04-0.2-0.06-0.39-0.09-0.6
		c1.97-9.53,6.77-20.94,15.22-28.12c10.2-8.66,22.06-16.52,34.42-24.11c16.02-23.78,32.83-47.11,47.68-71.62
		c27.32-45.07,48.39-97.12,41.58-149.38c-2.6-19.92-9.6-39.88-23.49-54.4c-10.57-11.05-25.63-18.34-40.7-18.66
		c-33.24,24.16-57.41,75.85-54.77,125.66c0.12,2.34-0.11,4.91-0.63,7.64c2.06,13.22,4.62,26.41,6.97,39.48
		c3.85,21.43,7.03,43.93,0.21,64.61c-6.83,20.67-26.77,38.64-48.37,35.89c-19.41-2.47-33.46-20.23-40.45-38.51
		c-14.32-37.48-7.6-79.71,4.31-118.02c0.87-2.81,1.78-5.62,2.7-8.42c0.1-19.49,3.82-36.79,12.99-50.76
		c3.61-5.51,6.95-11.07,10.06-16.66c3.89-12.85,7.19-25.85,9.25-39.15c6.5-41.86,0.42-85.6-17.27-124.09
		c-16.33-35.54-41.84-65.9-63.52-98.44c-16.25-24.38-30.69-51.22-36.58-79.59c-4.04,0.32-8.01,1.07-11.89,2.31
		c-70.98,22.85-145.09,214.8-45.73,529.15c11.46,49.65,19.88,97.66,9.34,133.47c8.93-0.15,17.63,1.18,25.21,5.76
		C238.26,903.71,244.5,923.4,259.51,932.89z"/>
	<path class="st4" d="M324.19,758.98c6.98,18.28,21.04,36.03,40.45,38.51c21.6,2.75,41.54-15.22,48.37-35.89
		c6.83-20.67,3.65-43.18-0.21-64.61c-2.35-13.07-4.91-26.26-6.97-39.48c-4.12,21.57-27.1,53.41-48.91,64.02
		c-3,1.49-6.07,3.09-9.21,4.82c-7.24-25.81-13.19-50.94-15.48-73.83c-0.69-6.87-1.05-13.55-1.02-19.98c-0.92,2.8-1.83,5.61-2.7,8.42
		C316.6,679.28,309.88,721.5,324.19,758.98z"/>
	<path class="st3" d="M346.24,401.88c17.69,38.5,23.77,82.23,17.27,124.09c-2.07,13.3-5.36,26.29-9.25,39.15
		c88.66-159.62-24.36-347.86-108.12-341.28c5.89,28.37,20.33,55.21,36.58,79.59C304.4,335.98,329.91,366.34,346.24,401.88z"/>
	<path class="st4" d="M388.34,885.25c-0.41-4.62-1-9.34-1.73-14.14C387.24,875.85,387.82,880.58,388.34,885.25z"/>
</g>
</svg>
