<?xml version="1.0" encoding="utf-8"?>
<!-- Generator: Adobe Illustrator 25.4.1, SVG Export Plug-In . SVG Version: 6.00 Build 0)  -->
<svg version="1.1" id="Layer_1" xmlns="http://www.w3.org/2000/svg" xmlns:xlink="http://www.w3.org/1999/xlink" x="0px" y="0px"
	 viewBox="0 0 300 300" style="enable-background:new 0 0 300 300;" xml:space="preserve">
<style type="text/css">
	.st0{fill:#A8A8A8;}
	.st1{fill:none;}
	.st2{fill:#E6DEE4;}
	.st3{fill:#020700;}
	.st4{fill:#010200;}
</style>
<g>
	<g>
		<path class="st0" d="M31.68,146.82c-0.02,0.14,0,0.04,0,25.7c0,12.14,0,18.21,0,18.36c-0.06,10.68-0.18,10.97,0,12.85
			c0.96,9.86,5.69,17,9.11,22.03c2.21,3.26,9.87,13.97,30.96,27.53c11.72,7.53,23.65,15.21,41.89,20.19
			c23.66,6.47,42.75,4.27,47.35,3.67c17.41-2.27,29.57-7.95,40.06-12.85c15.39-7.19,26.09-12.19,36.42-23.86
			c3.87-4.37,15.17-17.47,18.21-36.71c0.44-2.8,0.29-10.43,0-25.7c-0.29-15.23-0.97-23.82-1.82-31.21
			c-0.13-1.17-1.19-10.34-1.82-12.85C243.82,101.21,36,113.86,31.68,146.82z"/>
		<path class="st1" d="M80.15,133.64c1.31-2.86,4.75-4.55,7.79-3.83c2.48,0.59,4.46,2.51,6.89,3.29c3.15,1.02,6.74-0.06,9.2-2.29
			s3.88-5.44,4.45-8.73c0.44-2.53,0.39-5.23-0.71-7.55c-2.06-4.34-7.23-6.25-11.99-6.54c-14.28-0.86-28.21,10.75-30.06,25.05
			c-0.63,4.87,0.06,10.05,2.72,14.16c2.66,4.11,7.5,6.94,12.34,6.42c2.06-0.22,4.03-1.01,6.1-1.21c4.54-0.42,9.32,2.66,10.33,7.14
			c1.01,4.48-2.47,9.6-7.03,9.78c-7.28,0.29-12.17-10.15-19.34-8.83c-4.95,0.91-7.12,7.13-6.35,12.15
			c1.37,8.92,9.27,16.14,18.11,17.52c8.85,1.38,18.11-2.66,23.9-9.53c4.45-5.28,7.04-12.41,5.9-19.25
			c-1.14-6.84-6.42-13.07-13.2-14.28c-3.42-0.61-6.99,0.01-10.38-0.76C83.55,145.14,77.35,139.73,80.15,133.64z"/>
		<path class="st2" d="M104.52,62.38c-7.49,2.42-13.2,5.56-16.39,7.34c-8.64,4.82-14.46,9.68-18.21,12.85
			c-8.96,7.57-14.75,14.51-16.39,16.52c-7.2,8.8-14.37,17.57-18.21,31.21c-1.3,4.62-4.04,14.77-1.82,27.53
			c2.31,13.27,8.73,22.13,12.75,27.53c6.33,8.52,15.84,15.59,34.6,29.37c10.43,7.66,15.64,11.49,18.21,12.85
			c20.03,10.59,39.66,9.69,50.99,9.18c22.18-1.01,38.61-7.81,45.53-11.01c12.02-5.57,19.49-11.5,32.78-22.03
			c12.04-9.54,18.13-14.47,21.85-22.03c4.37-8.89,4.13-16.94,3.64-33.04c-0.47-15.48-0.82-26.96-7.28-40.38
			c-5.27-10.95-12.22-18.21-16.39-22.03c-9.12-8.34-17.73-11.86-29.14-16.52c-4.94-2.02-16.76-6.54-32.78-9.18
			c-14.18-2.34-24.78-2.08-34.6-1.84C121.71,59.01,114.22,59.25,104.52,62.38z"/>
		<path class="st2" d="M268.42,22"/>
		<g>
			<path class="st1" d="M205.41,203.88c-1.48-0.63-3.31-0.06-4.32,1.19c-1.01,1.25-1.22,3.06-0.68,4.59
				c0.4,1.14,1.39,2.23,2.59,2.14c0.4-0.03,0.77-0.18,1.12-0.37c0.72-0.39,1.35-0.95,1.84-1.61c0.78-1.07,1.16-2.54,0.62-3.75
				c-0.33-0.74-0.96-1.3-1.66-1.69c-0.7-0.39-1.47-0.63-2.24-0.86"/>
		</g>
		<path class="st3" d="M91.57,142.58c-7.37-2.18-16.33,0-20.5,6.5c-4.17,6.5-1.36,16.94,6.04,19.02c6.56,1.84,13.22-2.84,20.02-2.74
			c4.4,0.06,8.51,2.12,12.39,4.22c9.57,5.18,18.84,10.91,27.75,17.17c3.51-22.78,2.66-46.24-2.51-68.71
			c-3.7,3.22-7.41,6.45-11.11,9.67c-4.03,3.51-8.09,7.04-12.69,9.75c-13.16,7.75-27.14,2-28.22,5.53c-0.36,1.18,0.71,3.31,7.22,7.5"
			/>
	</g>
	<path d="M146.6,145.94c1.59,7.11,7.66,13.52,8.26,20.7c0.07,0.84,0.07,1.7,0.56,2.46c0.49,0.76,1.64,1.39,2.78,1.2
		c1.09-0.18,1.71-0.99,2.07-1.75c2.12-4.57-0.92-9.43-2.92-14.03c-3.47-7.99-3.81-16.66-0.96-24.77c1.83-5.22-5.01-2.95-7.05-0.05
		C146.12,134.25,145.5,141.01,146.6,145.94z"/>
	<path class="st4" d="M164.65,136.25c-0.5,2.83-0.78,5.75-0.34,8.59c0.68,4.42,3.03,8.37,4.53,12.58
		c2.69,7.54,2.58,16.06-0.31,23.53c-0.75,1.95-1.39,4.74,0.48,5.63c1.86,0.89,3.63-1.38,4.38-3.31c4.32-11.19,4.61-23.92,0.79-35.3
		c-1.22-3.63-2.85-7.17-3.34-10.98c-0.66-5.1,0.89-10.45,4.17-14.39c0.49-0.59,1.05-1.21,1.12-1.99c0.49-5.2-5.69-0.22-6.71,1.08
		C166.63,125.27,165.43,131.89,164.65,136.25z"/>
</g>
</svg>
