<?xml version="1.0" encoding="utf-8"?>
<!-- Generator: Adobe Illustrator 25.4.1, SVG Export Plug-In . SVG Version: 6.00 Build 0)  -->
<svg version="1.1" id="Layer_1" xmlns="http://www.w3.org/2000/svg" xmlns:xlink="http://www.w3.org/1999/xlink" x="0px" y="0px"
	 viewBox="0 0 300 300" style="enable-background:new 0 0 300 300;" xml:space="preserve">
<style type="text/css">
	.st0{fill:#A8A8A8;}
	.st1{fill:none;}
	.st2{fill:#E6DEE4;}
</style>
<g>
	<g>
		<g>
			<path class="st0" d="M34.5,129.21c-0.02,0.14,0,0.04,0,25.7c0,12.14,0,18.21,0,18.36c-0.06,10.68-0.18,10.97,0,12.85
				c0.96,9.86,5.69,17,9.11,22.03c2.21,3.26,9.87,13.97,30.96,27.53c11.72,7.53,23.65,15.21,41.89,20.19
				c23.66,6.47,42.75,4.27,47.35,3.67c17.41-2.27,29.57-7.95,40.06-12.85c15.39-7.19,26.09-12.19,36.42-23.86
				c3.87-4.37,15.17-17.47,18.21-36.71c0.44-2.8,0.29-10.43,0-25.7c-0.29-15.23-0.97-23.82-1.82-31.21
				c-0.13-1.17-1.19-10.34-1.82-12.85C246.65,83.59,38.82,96.24,34.5,129.21z"/>
			<path class="st1" d="M82.98,116.02c1.31-2.86,4.75-4.55,7.79-3.83c2.48,0.59,4.46,2.51,6.89,3.29c3.15,1.02,6.74-0.06,9.2-2.29
				c2.46-2.23,3.88-5.44,4.45-8.73c0.44-2.53,0.39-5.23-0.71-7.55c-2.06-4.34-7.23-6.25-11.99-6.54
				c-14.28-0.86-28.21,10.75-30.06,25.05c-0.63,4.87,0.06,10.05,2.72,14.16c2.66,4.11,7.5,6.94,12.34,6.42
				c2.06-0.22,4.03-1.01,6.1-1.21c4.54-0.42,9.32,2.66,10.33,7.14c1.01,4.48-2.47,9.6-7.03,9.78c-7.28,0.29-12.17-10.15-19.34-8.83
				c-4.95,0.91-7.12,7.13-6.35,12.15c1.37,8.92,9.27,16.14,18.11,17.52c8.85,1.38,18.11-2.66,23.9-9.53
				c4.45-5.28,7.04-12.41,5.9-19.25s-6.42-13.07-13.2-14.28c-3.42-0.61-6.99,0.01-10.38-0.76
				C86.38,127.52,80.18,122.11,82.98,116.02z"/>
			<path class="st2" d="M107.34,44.77c-7.49,2.42-13.2,5.56-16.39,7.34c-8.64,4.82-14.46,9.68-18.21,12.85
				C63.78,72.53,58,79.47,56.35,81.48c-7.2,8.8-14.37,17.57-18.21,31.21c-1.3,4.62-4.04,14.77-1.82,27.53
				c2.31,13.27,8.73,22.13,12.75,27.53c6.33,8.52,15.84,15.59,34.6,29.37c10.43,7.66,15.64,11.49,18.21,12.85
				c20.03,10.59,39.66,9.69,50.99,9.18c22.18-1.01,38.61-7.81,45.53-11.01c12.02-5.57,19.49-11.5,32.78-22.03
				c12.04-9.54,18.13-14.47,21.85-22.03c4.37-8.89,4.13-16.94,3.64-33.04c-0.47-15.48-0.82-26.96-7.28-40.38
				c-5.27-10.95-12.22-18.21-16.39-22.03c-9.12-8.34-17.73-11.86-29.14-16.52c-4.94-2.02-16.76-6.54-32.78-9.18
				c-14.18-2.34-24.78-2.08-34.6-1.84C124.53,41.39,117.04,41.64,107.34,44.77z"/>
			<path class="st2" d="M271.24,4.38"/>
			<g>
				<path class="st1" d="M208.23,186.26c-1.48-0.63-3.31-0.06-4.32,1.19c-1.01,1.25-1.22,3.06-0.68,4.59
					c0.4,1.14,1.39,2.23,2.59,2.14c0.4-0.03,0.77-0.18,1.12-0.37c0.72-0.39,1.35-0.95,1.84-1.61c0.78-1.07,1.16-2.54,0.62-3.75
					c-0.33-0.74-0.96-1.3-1.66-1.69s-1.47-0.63-2.24-0.86"/>
			</g>
		</g>
	</g>
	<path d="M115.61,120.45c6.03-0.79,7.93-8.38,9.08-14.35c1.3-6.75,3.52-13.53,7.93-18.8c4.42-5.27,11.38-8.8,18.16-7.67
		s12.62,7.8,11.5,14.59c-0.9,5.48-5.65,9.49-10.51,12.16c-4.87,2.67-10.26,4.6-14.33,8.37c-5.67,5.26-7.87,13.23-9.11,20.86
		c-1.09,6.67-1.61,13.67,0.55,20.07c2.17,6.41,7.58,12.1,14.31,12.8c6.73,0.69,13.9-5.17,13.06-11.88
		c-0.93-7.5-10-11.52-12.07-18.79c-2.06-7.23,3.71-14.47,10.2-18.25c6.49-3.78,14.1-5.67,19.95-10.37
		c6.77-5.44,10.43-14.53,9.3-23.15c-1.5-11.51-11.22-21-22.46-23.94c-11.23-2.94-23.47,0.03-33.27,6.25
		c-8.61,5.46-20.24,15.86-24.01,25.72C100.84,102.07,103.4,122.06,115.61,120.45z"/>
	<path d="M159.02,183.3c-6.9-2.93-15.79-1.35-20.41,4.55s-3.51,15.79,2.89,19.7c2.83,1.73,6.22,2.2,9.52,2.51
		c3.07,0.28,6.39,0.39,8.97-1.3c1.8-1.18,2.99-3.09,3.76-5.1c3.64-9.53-3.26-21.55-13.32-23.22"/>
</g>
</svg>
