<?xml version="1.0" encoding="utf-8"?>
<!-- Generator: Adobe Illustrator 25.4.1, SVG Export Plug-In . SVG Version: 6.00 Build 0)  -->
<svg version="1.1" id="Layer_1" xmlns="http://www.w3.org/2000/svg" xmlns:xlink="http://www.w3.org/1999/xlink" x="0px" y="0px"
	 viewBox="0 0 2209 793" style="enable-background:new 0 0 2209 793;" xml:space="preserve">
<style type="text/css">
	.st0{fill:#DFE828;}
</style>
<path class="st0" d="M788.42,639.53"/>
<path d="M150.74,53.79c-3.18,1.09-12.94,4.57-19.45,14.6c-1.45,2.23-6.98,10.73-5.4,20.86c0.79,5.1,3.41,10,8.64,19.82
	c2.67,5.01,4.3,7.41,4.32,11.47c0.04,6.17-3.64,10.67-4.32,11.47c-2.72,3.22-5.19,3.83-11.88,7.3c-5.39,2.79-10.38,5.38-14.05,8.34
	c-6.73,5.45-9.21,12.35-11.88,19.82c-3.07,8.55-6.01,16.76-3.24,26.07c2.19,7.36,7.5,13.93,9.72,16.69
	c3.08,3.81,4.79,5.01,7.56,9.39c2.05,3.24,4.42,7.08,5.4,12.52c0.62,3.42,1.57,8.74-1.08,13.56c-1.9,3.45-4.16,3.94-12.97,9.39
	c-3.31,2.05-9.69,6-15.13,10.43c-4.12,3.36-9.05,7.38-12.97,13.56c-6.51,10.28-6.49,20.69-6.48,26.07c0.01,4.67,0.15,15,6.48,26.07
	c2.61,4.57,6.37,11.14,14.05,15.64c5.71,3.35,8.41,2.51,11.88,6.26c5.85,6.3,4.52,15.47,4.32,16.69
	c-1.02,6.34-4.69,10.52-6.48,12.52c-3.5,3.88-5.05,3.44-10.8,8.34c-2.65,2.26-6.44,5.49-9.72,10.43
	c-3.55,5.34-4.77,10.06-6.48,16.69c-1.73,6.69-2.6,10.04-2.16,14.6c0.7,7.28,4.01,12.48,5.4,14.6c2.23,3.42,4.73,5.75,9.72,10.43
	c4.58,4.29,6.99,5.85,10.8,10.43c2,2.4,3.21,3.88,4.32,6.26c1.76,3.78,1.93,6.96,2.16,11.47c0.27,5.24,0.41,7.86-1.08,10.43
	c-1.19,2.05-1.84,1.55-5.4,5.21c-0.9,0.93-3.77,3.95-6.48,8.34c-1.37,2.22-2.39,3.87-3.24,6.26c-2.02,5.66-1.36,10.6-1.08,12.52
	c0.8,5.56,3.1,9.44,4.32,11.47c0.69,1.15,2.62,3.55,6.48,8.34c3.78,4.7,4.66,5.57,5.4,6.26c2.73,2.52,6.48,5.21,6.48,5.21
	c0,0,2.17,6.23,2.16,12.52c-0.01,3.86-0.02,6.97-2.16,9.39c-2.36,2.65-4.93,1.78-9.72,4.17c-1.51,0.75-2.95,1.68-8.64,7.3
	c-6.1,6.02-9.14,9.03-11.88,12.52c-5.07,6.46-7.91,12.03-9.72,15.64c-3.15,6.27-6.89,13.72-8.64,23.99
	c-0.44,2.59-2.57,15.92,2.16,32.33c2.54,8.82,5.94,14.62,10.8,22.95c5.82,9.94,9.23,15.65,16.21,20.86
	c5.25,3.92,9.95,5.65,17.29,8.34c5.31,1.95,14.1,5.18,24.85,6.26c5.47,0.55,23.35,2.11,42.14-7.3
	c18.15-9.09,26.86-23.28,32.41-32.33c4.01-6.54,9.58-15.81,11.88-29.2c1.2-6.96,4.09-30.02-10.8-52.15
	c-2.23-3.31-11.28-16.6-27.01-23.99c-15.73-7.39-23.6-11.09-25.93-11.47c-1.63-0.27-6.04-0.89-8.64-4.17
	c-1.84-2.31-1.98-4.94-2.16-8.34c-0.13-2.43-0.4-7.45,2.16-12.52c2.18-4.3,4.58-5.04,7.56-8.34c8.86-9.83,6.73-24.51,6.48-26.07
	c-0.67-4.21-2.03-12.71-8.64-17.73c-2.98-2.26-6.04-3.07-9.72-7.3c-1.29-1.48-3.23-3.76-4.32-7.3c-0.21-0.7-1.62-5.47,0-10.43
	c1.81-5.53,6.35-8.13,10.8-11.47c3.26-2.44,13.63-10.21,18.37-19.82c5.04-10.22,2.92-20.93,1.08-30.25
	c-1.3-6.59-2.32-11.71-6.48-16.69c-3.6-4.31-10.04-9.06-11.88-10.43c-4.23-3.13-5.74-3.71-7.56-6.26
	c-3.64-5.08-3.31-10.62-3.24-11.47c0.43-5.66,3.62-9.42,5.4-11.47c5.63-6.47,11.84-7.67,17.29-10.43
	c17.08-8.65,21.98-30.26,22.69-33.37c0.94-4.15,4.03-20.11-4.32-35.46c-6.39-11.75-16.21-18.77-16.21-18.77
	c-4.96-3.55-7.19-3.76-9.72-7.3c-4.68-6.55-4.95-16.84,0-22.95c2.42-2.99,4.58-3.1,10.8-6.26c8.11-4.11,15.37-9.45,19.45-13.56
	c11.02-11.1,11.79-26.34,11.88-29.2c0.09-2.75,0.53-23.98-12.97-33.37c-4.12-2.87-7.5-3.21-9.72-7.3
	c-2.97-5.44-1.33-12.83,2.16-17.73c3.33-4.67,6.38-4.32,11.88-8.34c0.81-0.59,14.42-10.85,15.13-27.12
	c0.45-10.42-4.61-18.1-6.48-20.86c-2.01-2.96-6.81-9.82-16.21-13.56C164.94,49.12,154.24,52.59,150.74,53.79z M183.04,82.11
	c4.54,20.43-26.43,36.31-22.24,56.81c2.09,10.2,12.43,17.07,15.82,26.94c4.7,13.65-5.07,27.79-15.26,38.29
	c-10.18,10.5-22.1,21.62-22.76,35.99c-1.16,25.24,32.96,43.11,29.87,68.2c-3.41,27.64-49.02,38.12-48.34,65.95
	c0.3,12.31,10.11,22.13,18.62,31.29c8.51,9.17,16.79,21.06,13.28,32.9c-5.21,17.6-33.36,23.87-33.93,42.17
	c-0.49,15.83,21.1,25.99,21,41.83c-0.05,7.46-5.01,13.92-7.96,20.81c-6.16,14.35-3.39,31.33,4.81,44.68
	c8.2,13.36,21.28,23.4,35.46,30.74c11.23,5.81,24.38,11.15,29.19,22.55c5.43,12.88-2.62,27.49-12.82,37.3
	c-22.07,21.25-57.88,30.28-85.83,16.94c-27.94-13.34-41.82-51.2-24.44-76.18c10.77-15.49,38.2-26.34,41.42-46.06
	c1.52-9.29-6.09-16.55-10.56-24.03c-5.23-8.76-8.95-18.53-7.64-28.79c1.27-9.89,6.93-18.65,10.98-27.82
	c4.05-9.17,6.38-20.18,1.15-28.77c-4.48-7.37-13.58-11.34-17.74-18.88c-5.23-9.48-1-21.11,3.98-30.72
	c5.35-10.32,11.59-20.36,14.7-31.5c3.11-11.14,2.61-23.94-4.65-33.11c-6.05-7.63-15.82-11.68-22.6-18.72
	c-12.03-12.52-11.46-34.35,1.22-46.27c12.44-11.69,34.13-14.7,40.33-30.35c4.9-12.37-2.83-25.61-7.93-37.9
	c-7.5-18.06-8.25-41.47,6.94-54.26c8.28-6.97,20.83-10.55,24.27-20.62c3.97-11.6-6.93-22.43-11.96-33.64
	c-5.69-12.68-2.68-29.42,9.16-37.18C160.44,62.94,180.04,68.6,183.04,82.11z"/>
<g>
	<path d="M180.59,642.01c-11.65-0.72-22.56-5.46-33.75-8.67c-12.79-3.68-26.17-5.4-39.51-5.09c-12.37,0.29-25,2.42-35.66,8.49
		c-0.44,0.25-0.87,0.52-1.29,0.78c-3.35,22.44,9.86,47.62,31.58,57.99c27.94,13.34,63.76,4.31,85.83-16.94
		c10.2-9.82,18.25-24.43,12.82-37.3c-0.28-0.66-0.59-1.3-0.93-1.92C193.58,641.44,187.06,642.42,180.59,642.01z"/>
	<path d="M119,572.65c-0.02,0.2-0.03,0.4-0.06,0.61c-3.22,19.72-30.64,30.57-41.42,46.06c-3.87,5.56-6.18,11.76-7.14,18.19
		c0.43-0.26,0.86-0.53,1.29-0.78c10.67-6.06,23.29-8.2,35.66-8.49c13.34-0.31,26.72,1.42,39.51,5.09
		c11.19,3.22,22.1,7.95,33.75,8.67c6.47,0.4,12.99-0.57,19.09-2.67c-5.41-10.09-17.68-15.15-28.26-20.63
		c-14.18-7.33-27.26-17.38-35.46-30.74c-3.32-5.41-5.73-11.41-7.03-17.59c-3.01,1.79-6.45,2.94-9.94,2.79
		C119,573,118.99,572.83,119,572.65z"/>
	<path d="M104.91,521.6c-1.89,0.46-3.69,1.03-5.42,1.69c-0.73,9.61,3.04,18.75,8.24,27c4.42,7.02,11.73,13.87,11.27,22.38
		c0.02-0.17,0.04-0.35,0.05-0.52c3.39,0.15,6.72-1.06,9.63-2.91c0.07,0.39,0.16,0.77,0.25,1.16c0.07-0.04,0.14-0.08,0.2-0.12
		c-1.73-8.73-1.1-17.76,2.6-25.94c2.93-6.47,7.71-12.56,8.33-19.45c-0.93-0.37-1.87-0.72-2.83-1.06
		C127.18,520.34,115.44,519.03,104.91,521.6z"/>
	<path d="M119.06,572.14c-0.01,0.17-0.04,0.35-0.05,0.52c-0.01,0.18,0,0.35-0.02,0.52c3.5,0.15,6.93-1.01,9.94-2.79
		c-0.08-0.39-0.17-0.77-0.25-1.16C125.78,571.08,122.44,572.29,119.06,572.14z"/>
	<path d="M93.61,428.26c-1.35,5.76-1.32,11.56,1.53,16.72c4.16,7.54,13.26,11.51,17.74,18.88c0.14,0.24,0.26,0.48,0.39,0.72
		c-0.15-0.33-0.28-0.65-0.44-0.98c4.95,0.81,9.98,0.98,14.89,0.34c8.84-7.86,21.06-14.44,24.33-25.45
		c3.11-10.48-3.04-21.01-10.4-29.65C123.59,406.39,104.94,414.62,93.61,428.26z"/>
	<path d="M183.04,82.11c-3-13.51-22.59-19.17-34.43-11.41c-8.76,5.74-12.67,16.39-11.82,26.67c4.49,2.99,9.65,5.02,15.04,5.79
		c10.5,1.5,21.63-1.81,29.44-8.74c0.3-0.27,0.6-0.55,0.89-0.83C183.44,89.89,183.92,86.09,183.04,82.11z"/>
	<path d="M151.83,103.17c-5.39-0.77-10.56-2.81-15.04-5.79c0.3,3.62,1.18,7.2,2.66,10.5c5.03,11.21,15.93,22.04,11.96,33.64
		c-0.01,0.04-0.03,0.07-0.05,0.11c2.54,1.1,5.24,1.89,7.97,2.43c1.17,0.23,2.36,0.4,3.55,0.54c-0.94-1.8-1.68-3.68-2.09-5.69
		c-3.38-16.51,16.04-30.02,21.36-45.32c-0.3,0.28-0.59,0.56-0.89,0.83C173.45,101.36,162.33,104.67,151.83,103.17z"/>
	<path d="M127.13,162.14c-6.8,5.72-10.4,13.58-11.64,22.12c3.42-2.56,7.32-4.51,11.27-6.23c15.98-6.94,34.49-10.54,51.06-5.18
		c-0.03-2.34-0.4-4.68-1.2-7.01c-2.73-7.92-9.92-13.92-13.74-21.25c-1.19-0.14-2.38-0.31-3.55-0.54c-2.73-0.54-5.43-1.33-7.97-2.43
		C147.86,151.61,135.38,155.2,127.13,162.14z"/>
	<path d="M126.77,178.04c-3.96,1.72-7.86,3.67-11.27,6.23c-1.53,10.55,0.55,22.15,4.69,32.13c2.96,7.12,6.79,14.57,8.55,21.97
		c3.56-0.43,7.06-1.4,10.44-2.64c2.58-12.28,13.08-22.18,22.19-31.58c8.45-8.71,16.6-19.92,16.46-31.29
		C161.26,167.51,142.75,171.1,126.77,178.04z"/>
	<path d="M128.12,254.3c-6.2,15.65-27.89,18.66-40.33,30.35c-4.74,4.46-7.79,10.3-9.12,16.53c5.75-6.26,13.98-10.24,22.45-12.23
		c9.56-2.25,19.52-2.22,29.36-1.98c11.43,0.28,22.95,0.84,33.99,3.72c0.19,0.05,0.38,0.11,0.57,0.16
		c-8.19-16.87-27.31-31.7-26.44-50.7c0.07-1.51,0.27-2.98,0.57-4.42c-3.38,1.24-6.87,2.21-10.44,2.64
		C130,243.75,130.18,249.1,128.12,254.3z"/>
	<path d="M130.48,286.97c-9.84-0.24-19.8-0.27-29.36,1.98c-8.48,1.99-16.7,5.98-22.45,12.23c-2.22,10.42,0.37,21.9,7.9,29.74
		c3.15,3.27,6.94,5.9,10.71,8.54c11.88,5.13,25.99,5.66,37.82,0.32c11.27-5.08,20.17-14.53,30.17-21.58
		c1.64-3.05,2.77-6.31,3.21-9.85c0.76-6.2-0.75-11.96-3.44-17.49c-0.19-0.05-0.38-0.11-0.57-0.16
		C153.43,287.81,141.91,287.25,130.48,286.97z"/>
	<path d="M97.28,339.46c4.34,3.04,8.65,6.1,11.88,10.18c7.26,9.17,7.76,21.97,4.65,33.11c-3.11,11.14-9.34,21.19-14.7,31.5
		c-2.27,4.38-4.37,9.18-5.51,14c11.33-13.64,29.98-21.87,48.04-19.43c-0.95-1.11-1.92-2.2-2.89-3.25
		c-8.51-9.17-18.32-18.99-18.62-31.29c-0.59-24.26,34-35.34,45.13-56.1c-10,7.05-18.9,16.5-30.17,21.58
		C123.27,345.12,109.16,344.59,97.28,339.46z"/>
	<path d="M124.72,466.8c-3.39,0.85-6.92,0.79-10.37,0.06c-0.31-0.78-0.68-1.54-1.09-2.29c4.67,10.3,0.99,22.34-4.88,32.61
		c-5.69,9.96-13.27,19.56-16.87,29.95c2.52-1.46,5.15-2.77,7.98-3.85c0.05-0.6,0.1-1.19,0.19-1.79c0.22-1.64,0.58-3.25,1.03-4.84
		c2.54-1.81,5.27-3.32,8.37-4.25c6.58-1.97,13.92-0.96,20.2,1.71c3.85,1.64,7.35,3.86,10.59,6.39c0.17,0.99,0.27,1.99,0.26,3.03
		c0,0.46-0.03,0.91-0.07,1.36c5.06,2,9.73,4.49,14.11,7.27c-4.01-18.46-35.78-31.29-35.01-50.58c0.29-7.16,4.78-12.9,11.15-18.06
		c-0.86,0.17-1.73,0.3-2.6,0.41C126.66,464.86,125.66,465.82,124.72,466.8z"/>
	<path d="M112.82,463.59c0.16,0.32,0.29,0.65,0.44,0.98c0.41,0.75,0.78,1.51,1.09,2.29c3.45,0.73,6.97,0.79,10.37-0.06
		c0.94-0.98,1.94-1.93,3-2.87C122.8,464.57,117.77,464.4,112.82,463.59z"/>
	<path d="M139.86,520.5c-3.24-2.52-6.74-4.75-10.59-6.39c-6.28-2.67-13.62-3.68-20.2-1.71c-3.11,0.93-5.84,2.43-8.37,4.25
		c-0.45,1.59-0.81,3.2-1.03,4.84c-0.08,0.6-0.14,1.2-0.19,1.79c1.73-0.66,3.53-1.23,5.42-1.69c10.53-2.56,22.27-1.25,32.32,2.23
		c0.96,0.33,1.9,0.69,2.83,1.06c0.04-0.45,0.06-0.9,0.07-1.36C140.13,522.49,140.04,521.49,139.86,520.5z"/>
</g>
<path d="M322,53.79c-3.18,1.09-12.94,4.57-19.45,14.6c-1.45,2.23-6.98,10.73-5.4,20.86c0.79,5.1,3.41,10,8.64,19.82
	c2.67,5.01,4.3,7.41,4.32,11.47c0.04,6.17-3.64,10.67-4.32,11.47c-2.72,3.22-5.19,3.83-11.88,7.3c-5.39,2.79-10.38,5.38-14.05,8.34
	c-6.73,5.45-9.21,12.35-11.88,19.82c-3.07,8.55-6.01,16.76-3.24,26.07c2.19,7.36,7.5,13.93,9.72,16.69
	c3.08,3.81,4.79,5.01,7.56,9.39c2.05,3.24,4.42,7.08,5.4,12.52c0.62,3.42,1.57,8.74-1.08,13.56c-1.9,3.45-4.16,3.94-12.97,9.39
	c-3.31,2.05-9.69,6-15.13,10.43c-4.12,3.36-9.05,7.38-12.97,13.56c-6.51,10.28-6.49,20.69-6.48,26.07c0.01,4.67,0.15,15,6.48,26.07
	c2.61,4.57,6.37,11.14,14.05,15.64c5.71,3.35,8.41,2.51,11.88,6.26c5.85,6.3,4.52,15.47,4.32,16.69
	c-1.02,6.34-4.69,10.52-6.48,12.52c-3.5,3.88-5.05,3.44-10.8,8.34c-2.65,2.26-6.44,5.49-9.72,10.43
	c-3.55,5.34-4.77,10.06-6.48,16.69c-1.73,6.69-2.6,10.04-2.16,14.6c0.7,7.28,4.01,12.48,5.4,14.6c2.23,3.42,4.73,5.75,9.72,10.43
	c4.58,4.29,6.99,5.85,10.8,10.43c2,2.4,3.21,3.88,4.32,6.26c1.76,3.78,1.93,6.96,2.16,11.47c0.27,5.24,0.41,7.86-1.08,10.43
	c-1.19,2.05-1.84,1.55-5.4,5.21c-0.9,0.93-3.77,3.95-6.48,8.34c-1.37,2.22-2.39,3.87-3.24,6.26c-2.02,5.66-1.36,10.6-1.08,12.52
	c0.8,5.56,3.1,9.44,4.32,11.47c0.69,1.15,2.62,3.55,6.48,8.34c3.78,4.7,4.66,5.57,5.4,6.26c2.73,2.52,6.48,5.21,6.48,5.21
	c0,0,2.17,6.23,2.16,12.52c-0.01,3.86-0.02,6.97-2.16,9.39c-2.36,2.65-4.93,1.78-9.72,4.17c-1.51,0.75-2.95,1.68-8.64,7.3
	c-6.1,6.02-9.14,9.03-11.88,12.52c-5.07,6.46-7.91,12.03-9.72,15.64c-3.15,6.27-6.89,13.72-8.64,23.99
	c-0.44,2.59-2.57,15.92,2.16,32.33c2.54,8.82,5.94,14.62,10.8,22.95c5.82,9.94,9.23,15.65,16.21,20.86
	c5.25,3.92,9.95,5.65,17.29,8.34c5.31,1.95,14.1,5.18,24.85,6.26c5.47,0.55,23.35,2.11,42.14-7.3
	c18.15-9.09,26.86-23.28,32.41-32.33c4.01-6.54,9.58-15.81,11.88-29.2c1.2-6.96,4.09-30.02-10.8-52.15
	c-2.23-3.31-11.28-16.6-27.01-23.99c-15.73-7.39-23.6-11.09-25.93-11.47c-1.63-0.27-6.04-0.89-8.64-4.17
	c-1.84-2.31-1.98-4.94-2.16-8.34c-0.13-2.43-0.4-7.45,2.16-12.52c2.18-4.3,4.58-5.04,7.56-8.34c8.86-9.83,6.73-24.51,6.48-26.07
	c-0.67-4.21-2.03-12.71-8.64-17.73c-2.98-2.26-6.04-3.07-9.72-7.3c-1.29-1.48-3.23-3.76-4.32-7.3c-0.21-0.7-1.62-5.47,0-10.43
	c1.81-5.53,6.35-8.13,10.8-11.47c3.26-2.44,13.63-10.21,18.37-19.82c5.04-10.22,2.92-20.93,1.08-30.25
	c-1.3-6.59-2.32-11.71-6.48-16.69c-3.6-4.31-10.04-9.06-11.88-10.43c-4.23-3.13-5.74-3.71-7.56-6.26
	c-3.64-5.08-3.31-10.62-3.24-11.47c0.43-5.66,3.62-9.42,5.4-11.47c5.63-6.47,11.84-7.67,17.29-10.43
	c17.08-8.65,21.98-30.26,22.69-33.37c0.94-4.15,4.03-20.11-4.32-35.46c-6.39-11.75-16.21-18.77-16.21-18.77
	c-4.96-3.55-7.19-3.76-9.72-7.3c-4.68-6.55-4.95-16.84,0-22.95c2.42-2.99,4.58-3.1,10.8-6.26c8.11-4.11,15.37-9.45,19.45-13.56
	c11.02-11.1,11.79-26.34,11.88-29.2c0.09-2.75,0.53-23.98-12.97-33.37c-4.12-2.87-7.5-3.21-9.72-7.3
	c-2.97-5.44-1.33-12.83,2.16-17.73c3.33-4.67,6.38-4.32,11.88-8.34c0.81-0.59,14.42-10.85,15.13-27.12
	c0.45-10.42-4.61-18.1-6.48-20.86c-2.01-2.96-6.81-9.82-16.21-13.56C336.2,49.12,325.5,52.59,322,53.79z M354.29,82.11
	c4.54,20.43-26.43,36.31-22.24,56.81c2.09,10.2,12.43,17.07,15.82,26.94c4.7,13.65-5.07,27.79-15.26,38.29
	c-10.18,10.5-22.1,21.62-22.76,35.99c-1.16,25.24,32.96,43.11,29.87,68.2c-3.41,27.64-49.02,38.12-48.34,65.95
	c0.3,12.31,10.11,22.13,18.62,31.29c8.51,9.17,16.79,21.06,13.28,32.9c-5.21,17.6-33.36,23.87-33.93,42.17
	c-0.49,15.83,21.1,25.99,21,41.83c-0.05,7.46-5.01,13.92-7.96,20.81c-6.16,14.35-3.39,31.33,4.81,44.68
	c8.2,13.36,21.28,23.4,35.46,30.74c11.23,5.81,24.38,11.15,29.19,22.55c5.43,12.88-2.62,27.49-12.82,37.3
	c-22.07,21.25-57.88,30.28-85.83,16.94c-27.94-13.34-41.82-51.2-24.44-76.18c10.77-15.49,38.2-26.34,41.42-46.06
	c1.52-9.29-6.09-16.55-10.56-24.03c-5.23-8.76-8.95-18.53-7.64-28.79c1.27-9.89,6.93-18.65,10.98-27.82
	c4.05-9.17,6.38-20.18,1.15-28.77c-4.48-7.37-13.58-11.34-17.74-18.88c-5.23-9.48-1-21.11,3.98-30.72
	c5.35-10.32,11.59-20.36,14.7-31.5c3.11-11.14,2.61-23.94-4.65-33.11c-6.05-7.63-15.82-11.68-22.6-18.72
	c-12.03-12.52-11.46-34.35,1.22-46.27c12.44-11.69,34.13-14.7,40.33-30.35c4.9-12.37-2.83-25.61-7.93-37.9
	c-7.5-18.06-8.25-41.47,6.94-54.26c8.28-6.97,20.83-10.55,24.27-20.62c3.97-11.6-6.93-22.43-11.96-33.64
	c-5.69-12.68-2.68-29.42,9.16-37.18C331.7,62.94,351.29,68.6,354.29,82.11z"/>
<g>
	<path d="M351.85,642.01c-11.65-0.72-22.56-5.46-33.75-8.67c-12.79-3.68-26.17-5.4-39.51-5.09c-12.37,0.29-25,2.42-35.66,8.49
		c-0.44,0.25-0.87,0.52-1.29,0.78c-3.35,22.44,9.86,47.62,31.58,57.99c27.94,13.34,63.76,4.31,85.83-16.94
		c10.2-9.82,18.25-24.43,12.82-37.3c-0.28-0.66-0.59-1.3-0.93-1.92C364.84,641.44,358.32,642.42,351.85,642.01z"/>
	<path d="M290.26,572.65c-0.02,0.2-0.03,0.4-0.06,0.61c-3.22,19.72-30.64,30.57-41.42,46.06c-3.87,5.56-6.18,11.76-7.14,18.19
		c0.43-0.26,0.86-0.53,1.29-0.78c10.67-6.06,23.29-8.2,35.66-8.49c13.34-0.31,26.72,1.42,39.51,5.09
		c11.19,3.22,22.1,7.95,33.75,8.67c6.47,0.4,12.99-0.57,19.09-2.67c-5.41-10.09-17.68-15.15-28.26-20.63
		c-14.18-7.33-27.26-17.38-35.46-30.74c-3.32-5.41-5.73-11.41-7.03-17.59c-3.01,1.79-6.45,2.94-9.94,2.79
		C290.26,573,290.25,572.83,290.26,572.65z"/>
	<path d="M276.16,521.6c-1.89,0.46-3.69,1.03-5.42,1.69c-0.73,9.61,3.04,18.75,8.24,27c4.42,7.02,11.73,13.87,11.27,22.38
		c0.02-0.17,0.04-0.35,0.05-0.52c3.39,0.15,6.72-1.06,9.63-2.91c0.07,0.39,0.16,0.77,0.25,1.16c0.07-0.04,0.14-0.08,0.2-0.12
		c-1.73-8.73-1.1-17.76,2.6-25.94c2.93-6.47,7.71-12.56,8.33-19.45c-0.93-0.37-1.87-0.72-2.83-1.06
		C298.44,520.34,286.7,519.03,276.16,521.6z"/>
	<path d="M290.31,572.14c-0.01,0.17-0.04,0.35-0.05,0.52c-0.01,0.18,0,0.35-0.02,0.52c3.5,0.15,6.93-1.01,9.94-2.79
		c-0.08-0.39-0.17-0.77-0.25-1.16C297.03,571.08,293.7,572.29,290.31,572.14z"/>
	<path d="M264.87,428.26c-1.35,5.76-1.32,11.56,1.53,16.72c4.16,7.54,13.26,11.51,17.74,18.88c0.14,0.24,0.26,0.48,0.39,0.72
		c-0.15-0.33-0.28-0.65-0.44-0.98c4.95,0.81,9.98,0.98,14.89,0.34c8.84-7.86,21.06-14.44,24.33-25.45
		c3.11-10.48-3.04-21.01-10.4-29.65C294.85,406.39,276.2,414.62,264.87,428.26z"/>
	<path d="M323.08,103.17c-5.39-0.77-10.56-2.81-15.04-5.79c0.3,3.62,1.18,7.2,2.66,10.5c5.03,11.21,15.93,22.04,11.96,33.64
		c-0.01,0.04-0.03,0.07-0.05,0.11c2.54,1.1,5.24,1.89,7.97,2.43c1.17,0.23,2.36,0.4,3.55,0.54c-0.94-1.8-1.68-3.68-2.09-5.69
		c-3.38-16.51,16.04-30.02,21.36-45.32c-0.3,0.28-0.59,0.56-0.89,0.83C344.71,101.36,333.58,104.67,323.08,103.17z"/>
	<path d="M298.39,162.14c-6.8,5.72-10.4,13.58-11.64,22.12c3.42-2.56,7.32-4.51,11.27-6.23c15.98-6.94,34.49-10.54,51.06-5.18
		c-0.03-2.34-0.4-4.68-1.2-7.01c-2.73-7.92-9.92-13.92-13.74-21.25c-1.19-0.14-2.38-0.31-3.55-0.54c-2.73-0.54-5.43-1.33-7.97-2.43
		C319.12,151.61,306.63,155.2,298.39,162.14z"/>
	<path d="M298.02,178.04c-3.96,1.72-7.86,3.67-11.27,6.23c-1.53,10.55,0.55,22.15,4.69,32.13c2.96,7.12,6.79,14.57,8.55,21.97
		c3.56-0.43,7.06-1.4,10.44-2.64c2.58-12.28,13.08-22.18,22.19-31.58c8.45-8.71,16.6-19.92,16.46-31.29
		C332.51,167.51,314.01,171.1,298.02,178.04z"/>
	<path d="M299.38,254.3c-6.2,15.65-27.89,18.66-40.33,30.35c-4.74,4.46-7.79,10.3-9.12,16.53c5.75-6.26,13.98-10.24,22.45-12.23
		c9.56-2.25,19.52-2.22,29.36-1.98c11.43,0.28,22.95,0.84,33.99,3.72c0.19,0.05,0.38,0.11,0.57,0.16
		c-8.19-16.87-27.31-31.7-26.44-50.7c0.07-1.51,0.27-2.98,0.57-4.42c-3.38,1.24-6.87,2.21-10.44,2.64
		C301.26,243.75,301.44,249.1,299.38,254.3z"/>
	<path d="M301.74,286.97c-9.84-0.24-19.8-0.27-29.36,1.98c-8.48,1.99-16.7,5.98-22.45,12.23c-2.22,10.42,0.37,21.9,7.9,29.74
		c3.15,3.27,6.94,5.9,10.71,8.54c11.88,5.13,25.99,5.66,37.82,0.32c11.27-5.08,20.17-14.53,30.17-21.58
		c1.64-3.05,2.77-6.31,3.21-9.85c0.76-6.2-0.75-11.96-3.44-17.49c-0.19-0.05-0.38-0.11-0.57-0.16
		C324.69,287.81,313.16,287.25,301.74,286.97z"/>
	<path d="M268.53,339.46c4.34,3.04,8.65,6.1,11.88,10.18c7.26,9.17,7.76,21.97,4.65,33.11c-3.11,11.14-9.34,21.19-14.7,31.5
		c-2.27,4.38-4.37,9.18-5.51,14c11.33-13.64,29.98-21.87,48.04-19.43c-0.95-1.11-1.92-2.2-2.89-3.25
		c-8.51-9.17-18.32-18.99-18.62-31.29c-0.59-24.26,34-35.34,45.13-56.1c-10,7.05-18.9,16.5-30.17,21.58
		C294.52,345.12,280.42,344.59,268.53,339.46z"/>
	<path d="M295.98,466.8c-3.39,0.85-6.92,0.79-10.37,0.06c-0.31-0.78-0.68-1.54-1.09-2.29c4.67,10.3,0.99,22.34-4.88,32.61
		c-5.69,9.96-13.27,19.56-16.87,29.95c2.52-1.46,5.15-2.77,7.98-3.85c0.05-0.6,0.1-1.19,0.19-1.79c0.22-1.64,0.58-3.25,1.03-4.84
		c2.54-1.81,5.27-3.32,8.37-4.25c6.58-1.97,13.92-0.96,20.2,1.71c3.85,1.64,7.35,3.86,10.59,6.39c0.17,0.99,0.27,1.99,0.26,3.03
		c0,0.46-0.03,0.91-0.07,1.36c5.06,2,9.73,4.49,14.11,7.27c-4.01-18.46-35.78-31.29-35.01-50.58c0.29-7.16,4.78-12.9,11.15-18.06
		c-0.86,0.17-1.73,0.3-2.6,0.41C297.92,464.86,296.91,465.82,295.98,466.8z"/>
	<path d="M284.08,463.59c0.16,0.32,0.29,0.65,0.44,0.98c0.41,0.75,0.78,1.51,1.09,2.29c3.45,0.73,6.97,0.79,10.37-0.06
		c0.94-0.98,1.94-1.93,3-2.87C294.06,464.57,289.03,464.4,284.08,463.59z"/>
	<path d="M311.12,520.5c-3.24-2.52-6.74-4.75-10.59-6.39c-6.28-2.67-13.62-3.68-20.2-1.71c-3.11,0.93-5.84,2.43-8.37,4.25
		c-0.45,1.59-0.81,3.2-1.03,4.84c-0.08,0.6-0.14,1.2-0.19,1.79c1.73-0.66,3.53-1.23,5.42-1.69c10.53-2.56,22.27-1.25,32.32,2.23
		c0.96,0.33,1.9,0.69,2.83,1.06c0.04-0.45,0.06-0.9,0.07-1.36C311.39,522.49,311.3,521.49,311.12,520.5z"/>
</g>
<path d="M500.32,53.79c-3.18,1.09-12.94,4.57-19.45,14.6c-1.45,2.23-6.98,10.73-5.4,20.86c0.79,5.1,3.41,10,8.64,19.82
	c2.67,5.01,4.3,7.41,4.32,11.47c0.04,6.17-3.64,10.67-4.32,11.47c-2.72,3.22-5.19,3.83-11.88,7.3c-5.39,2.79-10.38,5.38-14.05,8.34
	c-6.73,5.45-9.21,12.35-11.88,19.82c-3.07,8.55-6.01,16.76-3.24,26.07c2.19,7.36,7.5,13.93,9.72,16.69
	c3.08,3.81,4.79,5.01,7.56,9.39c2.05,3.24,4.42,7.08,5.4,12.52c0.62,3.42,1.57,8.74-1.08,13.56c-1.9,3.45-4.16,3.94-12.97,9.39
	c-3.31,2.05-9.69,6-15.13,10.43c-4.12,3.36-9.05,7.38-12.97,13.56c-6.51,10.28-6.49,20.69-6.48,26.07c0.01,4.67,0.15,15,6.48,26.07
	c2.61,4.57,6.37,11.14,14.05,15.64c5.71,3.35,8.41,2.51,11.88,6.26c5.85,6.3,4.52,15.47,4.32,16.69
	c-1.02,6.34-4.69,10.52-6.48,12.52c-3.5,3.88-5.05,3.44-10.8,8.34c-2.65,2.26-6.44,5.49-9.72,10.43
	c-3.55,5.34-4.77,10.06-6.48,16.69c-1.73,6.69-2.6,10.04-2.16,14.6c0.7,7.28,4.01,12.48,5.4,14.6c2.23,3.42,4.73,5.75,9.72,10.43
	c4.58,4.29,6.99,5.85,10.8,10.43c2,2.4,3.21,3.88,4.32,6.26c1.76,3.78,1.93,6.96,2.16,11.47c0.27,5.24,0.41,7.86-1.08,10.43
	c-1.19,2.05-1.84,1.55-5.4,5.21c-0.9,0.93-3.77,3.95-6.48,8.34c-1.37,2.22-2.39,3.87-3.24,6.26c-2.02,5.66-1.36,10.6-1.08,12.52
	c0.8,5.56,3.1,9.44,4.32,11.47c0.69,1.15,2.62,3.55,6.48,8.34c3.78,4.7,4.66,5.57,5.4,6.26c2.73,2.52,6.48,5.21,6.48,5.21
	c0,0,2.17,6.23,2.16,12.52c-0.01,3.86-0.02,6.97-2.16,9.39c-2.36,2.65-4.93,1.78-9.72,4.17c-1.51,0.75-2.95,1.68-8.64,7.3
	c-6.1,6.02-9.14,9.03-11.88,12.52c-5.07,6.46-7.91,12.03-9.72,15.64c-3.15,6.27-6.89,13.72-8.64,23.99
	c-0.44,2.59-2.57,15.92,2.16,32.33c2.54,8.82,5.94,14.62,10.8,22.95c5.82,9.94,9.23,15.65,16.21,20.86
	c5.25,3.92,9.95,5.65,17.29,8.34c5.31,1.95,14.1,5.18,24.85,6.26c5.47,0.55,23.35,2.11,42.14-7.3
	c18.15-9.09,26.86-23.28,32.41-32.33c4.01-6.54,9.58-15.81,11.88-29.2c1.2-6.96,4.09-30.02-10.8-52.15
	c-2.23-3.31-11.28-16.6-27.01-23.99c-15.73-7.39-23.6-11.09-25.93-11.47c-1.63-0.27-6.04-0.89-8.64-4.17
	c-1.84-2.31-1.98-4.94-2.16-8.34c-0.13-2.43-0.4-7.45,2.16-12.52c2.18-4.3,4.58-5.04,7.56-8.34c8.86-9.83,6.73-24.51,6.48-26.07
	c-0.67-4.21-2.03-12.71-8.64-17.73c-2.98-2.26-6.04-3.07-9.72-7.3c-1.29-1.48-3.23-3.76-4.32-7.3c-0.21-0.7-1.62-5.47,0-10.43
	c1.81-5.53,6.35-8.13,10.8-11.47c3.26-2.44,13.63-10.21,18.37-19.82c5.04-10.22,2.92-20.93,1.08-30.25
	c-1.3-6.59-2.32-11.71-6.48-16.69c-3.6-4.31-10.04-9.06-11.88-10.43c-4.23-3.13-5.74-3.71-7.56-6.26
	c-3.64-5.08-3.31-10.62-3.24-11.47c0.43-5.66,3.62-9.42,5.4-11.47c5.63-6.47,11.84-7.67,17.29-10.43
	c17.08-8.65,21.98-30.26,22.69-33.37c0.94-4.15,4.03-20.11-4.32-35.46c-6.39-11.75-16.21-18.77-16.21-18.77
	c-4.96-3.55-7.19-3.76-9.72-7.3c-4.68-6.55-4.95-16.84,0-22.95c2.42-2.99,4.58-3.1,10.8-6.26c8.11-4.11,15.37-9.45,19.45-13.56
	c11.02-11.1,11.79-26.34,11.88-29.2c0.09-2.75,0.53-23.98-12.97-33.37c-4.12-2.87-7.5-3.21-9.72-7.3
	c-2.97-5.44-1.33-12.83,2.16-17.73c3.33-4.67,6.38-4.32,11.88-8.34c0.81-0.59,14.42-10.85,15.13-27.12
	c0.45-10.42-4.61-18.1-6.48-20.86c-2.01-2.96-6.81-9.82-16.21-13.56C514.52,49.12,503.82,52.59,500.32,53.79z M532.61,82.11
	c4.54,20.43-26.43,36.31-22.24,56.81c2.09,10.2,12.43,17.07,15.82,26.94c4.7,13.65-5.07,27.79-15.26,38.29
	c-10.18,10.5-22.1,21.62-22.76,35.99c-1.16,25.24,32.96,43.11,29.87,68.2c-3.41,27.64-49.02,38.12-48.34,65.95
	c0.3,12.31,10.11,22.13,18.62,31.29c8.51,9.17,16.79,21.06,13.28,32.9c-5.21,17.6-33.36,23.87-33.93,42.17
	c-0.49,15.83,21.1,25.99,21,41.83c-0.05,7.46-5.01,13.92-7.96,20.81c-6.16,14.35-3.39,31.33,4.81,44.68
	c8.2,13.36,21.28,23.4,35.46,30.74c11.23,5.81,24.38,11.15,29.19,22.55c5.43,12.88-2.62,27.49-12.82,37.3
	c-22.07,21.25-57.88,30.28-85.83,16.94c-27.94-13.34-41.82-51.2-24.44-76.18c10.77-15.49,38.2-26.34,41.42-46.06
	c1.52-9.29-6.09-16.55-10.56-24.03c-5.23-8.76-8.95-18.53-7.64-28.79c1.27-9.89,6.93-18.65,10.98-27.82
	c4.05-9.17,6.38-20.18,1.15-28.77c-4.48-7.37-13.58-11.34-17.74-18.88c-5.23-9.48-1-21.11,3.98-30.72
	c5.35-10.32,11.59-20.36,14.7-31.5c3.11-11.14,2.61-23.94-4.65-33.11c-6.05-7.63-15.82-11.68-22.6-18.72
	c-12.03-12.52-11.46-34.35,1.22-46.27c12.44-11.69,34.13-14.7,40.33-30.35c4.9-12.37-2.83-25.61-7.93-37.9
	c-7.5-18.06-8.25-41.47,6.94-54.26c8.28-6.97,20.83-10.55,24.27-20.62c3.97-11.6-6.93-22.43-11.96-33.64
	c-5.69-12.68-2.68-29.42,9.16-37.18C510.02,62.94,529.61,68.6,532.61,82.11z"/>
<g>
	<path d="M530.17,642.01c-11.65-0.72-22.56-5.46-33.75-8.67c-12.79-3.68-26.17-5.4-39.51-5.09c-12.37,0.29-25,2.42-35.66,8.49
		c-0.44,0.25-0.87,0.52-1.29,0.78c-3.35,22.44,9.86,47.62,31.58,57.99c27.94,13.34,63.76,4.31,85.83-16.94
		c10.2-9.82,18.25-24.43,12.82-37.3c-0.28-0.66-0.59-1.3-0.93-1.92C543.16,641.44,536.64,642.42,530.17,642.01z"/>
	<path d="M468.58,572.65c-0.02,0.2-0.03,0.4-0.06,0.61c-3.22,19.72-30.64,30.57-41.42,46.06c-3.87,5.56-6.18,11.76-7.14,18.19
		c0.43-0.26,0.86-0.53,1.29-0.78c10.67-6.06,23.29-8.2,35.66-8.49c13.34-0.31,26.72,1.42,39.51,5.09
		c11.19,3.22,22.1,7.95,33.75,8.67c6.47,0.4,12.99-0.57,19.09-2.67c-5.41-10.09-17.68-15.15-28.26-20.63
		c-14.18-7.33-27.26-17.38-35.46-30.74c-3.32-5.41-5.73-11.41-7.03-17.59c-3.01,1.79-6.45,2.94-9.94,2.79
		C468.58,573,468.57,572.83,468.58,572.65z"/>
	<path d="M454.48,521.6c-1.89,0.46-3.69,1.03-5.42,1.69c-0.73,9.61,3.04,18.75,8.24,27c4.42,7.02,11.73,13.87,11.27,22.38
		c0.02-0.17,0.04-0.35,0.05-0.52c3.39,0.15,6.72-1.06,9.63-2.91c0.07,0.39,0.16,0.77,0.25,1.16c0.07-0.04,0.14-0.08,0.2-0.12
		c-1.73-8.73-1.1-17.76,2.6-25.94c2.93-6.47,7.71-12.56,8.33-19.45c-0.93-0.37-1.87-0.72-2.83-1.06
		C476.76,520.34,465.02,519.03,454.48,521.6z"/>
	<path d="M468.63,572.14c-0.01,0.17-0.04,0.35-0.05,0.52c-0.01,0.18,0,0.35-0.02,0.52c3.5,0.15,6.93-1.01,9.94-2.79
		c-0.08-0.39-0.17-0.77-0.25-1.16C475.35,571.08,472.02,572.29,468.63,572.14z"/>
	<path d="M443.19,428.26c-1.35,5.76-1.32,11.56,1.53,16.72c4.16,7.54,13.26,11.51,17.74,18.88c0.14,0.24,0.26,0.48,0.39,0.72
		c-0.15-0.33-0.28-0.65-0.44-0.98c4.95,0.81,9.98,0.98,14.89,0.34c8.84-7.86,21.06-14.44,24.33-25.45
		c3.11-10.48-3.04-21.01-10.4-29.65C473.17,406.39,454.52,414.62,443.19,428.26z"/>
	<path d="M476.71,162.14c-6.8,5.72-10.4,13.58-11.64,22.12c3.42-2.56,7.32-4.51,11.27-6.23c15.98-6.94,34.49-10.54,51.06-5.18
		c-0.03-2.34-0.4-4.68-1.2-7.01c-2.73-7.92-9.92-13.92-13.74-21.25c-1.19-0.14-2.38-0.31-3.55-0.54c-2.73-0.54-5.43-1.33-7.97-2.43
		C497.44,151.61,484.95,155.2,476.71,162.14z"/>
	<path d="M476.34,178.04c-3.96,1.72-7.86,3.67-11.27,6.23c-1.53,10.55,0.55,22.15,4.69,32.13c2.96,7.12,6.79,14.57,8.55,21.97
		c3.56-0.43,7.06-1.4,10.44-2.64c2.58-12.28,13.08-22.18,22.19-31.58c8.45-8.71,16.6-19.92,16.46-31.29
		C510.83,167.51,492.33,171.1,476.34,178.04z"/>
	<path d="M477.7,254.3c-6.2,15.65-27.89,18.66-40.33,30.35c-4.74,4.46-7.79,10.3-9.12,16.53c5.75-6.26,13.98-10.24,22.45-12.23
		c9.56-2.25,19.52-2.22,29.36-1.98c11.43,0.28,22.95,0.84,33.99,3.72c0.19,0.05,0.38,0.11,0.57,0.16
		c-8.19-16.87-27.31-31.7-26.44-50.7c0.07-1.51,0.27-2.98,0.57-4.42c-3.38,1.24-6.87,2.21-10.44,2.64
		C479.58,243.75,479.76,249.1,477.7,254.3z"/>
	<path d="M480.06,286.97c-9.84-0.24-19.8-0.27-29.36,1.98c-8.48,1.99-16.7,5.98-22.45,12.23c-2.22,10.42,0.37,21.9,7.9,29.74
		c3.15,3.27,6.94,5.9,10.71,8.54c11.88,5.13,25.99,5.66,37.82,0.32c11.27-5.08,20.17-14.53,30.17-21.58
		c1.64-3.05,2.77-6.31,3.21-9.85c0.76-6.2-0.75-11.96-3.44-17.49c-0.19-0.05-0.38-0.11-0.57-0.16
		C503.01,287.81,491.48,287.25,480.06,286.97z"/>
	<path d="M446.85,339.46c4.34,3.04,8.65,6.1,11.88,10.18c7.26,9.17,7.76,21.97,4.65,33.11c-3.11,11.14-9.34,21.19-14.7,31.5
		c-2.27,4.38-4.37,9.18-5.51,14c11.33-13.64,29.98-21.87,48.04-19.43c-0.95-1.11-1.92-2.2-2.89-3.25
		c-8.51-9.17-18.32-18.99-18.62-31.29c-0.59-24.26,34-35.34,45.13-56.1c-10,7.05-18.9,16.5-30.17,21.58
		C472.84,345.12,458.74,344.59,446.85,339.46z"/>
	<path d="M474.3,466.8c-3.39,0.85-6.92,0.79-10.37,0.06c-0.31-0.78-0.68-1.54-1.09-2.29c4.67,10.3,0.99,22.34-4.88,32.61
		c-5.69,9.96-13.27,19.56-16.87,29.95c2.52-1.46,5.15-2.77,7.98-3.85c0.05-0.6,0.1-1.19,0.19-1.79c0.22-1.64,0.58-3.25,1.03-4.84
		c2.54-1.81,5.27-3.32,8.37-4.25c6.58-1.97,13.92-0.96,20.2,1.71c3.85,1.64,7.35,3.86,10.59,6.39c0.17,0.99,0.27,1.99,0.26,3.03
		c0,0.46-0.03,0.91-0.07,1.36c5.06,2,9.73,4.49,14.11,7.27c-4.01-18.46-35.78-31.29-35.01-50.58c0.29-7.16,4.78-12.9,11.15-18.06
		c-0.86,0.17-1.73,0.3-2.6,0.41C476.24,464.86,475.23,465.82,474.3,466.8z"/>
	<path d="M462.4,463.59c0.16,0.32,0.29,0.65,0.44,0.98c0.41,0.75,0.78,1.51,1.09,2.29c3.45,0.73,6.97,0.79,10.37-0.06
		c0.94-0.98,1.94-1.93,3-2.87C472.38,464.57,467.35,464.4,462.4,463.59z"/>
	<path d="M489.44,520.5c-3.24-2.52-6.74-4.75-10.59-6.39c-6.28-2.67-13.62-3.68-20.2-1.71c-3.11,0.93-5.84,2.43-8.37,4.25
		c-0.45,1.59-0.81,3.2-1.03,4.84c-0.08,0.6-0.14,1.2-0.19,1.79c1.73-0.66,3.53-1.23,5.42-1.69c10.53-2.56,22.27-1.25,32.32,2.23
		c0.96,0.33,1.9,0.69,2.83,1.06c0.04-0.45,0.06-0.9,0.07-1.36C489.71,522.49,489.62,521.49,489.44,520.5z"/>
</g>
<path d="M678.64,53.79c-3.18,1.09-12.94,4.57-19.45,14.6c-1.45,2.23-6.98,10.73-5.4,20.86c0.79,5.1,3.41,10,8.64,19.82
	c2.67,5.01,4.3,7.41,4.32,11.47c0.04,6.17-3.64,10.67-4.32,11.47c-2.72,3.22-5.19,3.83-11.88,7.3c-5.39,2.79-10.38,5.38-14.05,8.34
	c-6.73,5.45-9.21,12.35-11.88,19.82c-3.07,8.55-6.01,16.76-3.24,26.07c2.19,7.36,7.5,13.93,9.72,16.69
	c3.08,3.81,4.79,5.01,7.56,9.39c2.05,3.24,4.42,7.08,5.4,12.52c0.62,3.42,1.57,8.74-1.08,13.56c-1.9,3.45-4.16,3.94-12.97,9.39
	c-3.31,2.05-9.69,6-15.13,10.43c-4.12,3.36-9.05,7.38-12.97,13.56c-6.51,10.28-6.49,20.69-6.48,26.07c0.01,4.67,0.15,15,6.48,26.07
	c2.61,4.57,6.37,11.14,14.05,15.64c5.71,3.35,8.41,2.51,11.88,6.26c5.85,6.3,4.52,15.47,4.32,16.69
	c-1.02,6.34-4.69,10.52-6.48,12.52c-3.5,3.88-5.05,3.44-10.8,8.34c-2.65,2.26-6.44,5.49-9.72,10.43
	c-3.55,5.34-4.77,10.06-6.48,16.69c-1.73,6.69-2.6,10.04-2.16,14.6c0.7,7.28,4.01,12.48,5.4,14.6c2.23,3.42,4.73,5.75,9.72,10.43
	c4.58,4.29,6.99,5.85,10.8,10.43c2,2.4,3.21,3.88,4.32,6.26c1.76,3.78,1.93,6.96,2.16,11.47c0.27,5.24,0.41,7.86-1.08,10.43
	c-1.19,2.05-1.84,1.55-5.4,5.21c-0.9,0.93-3.77,3.95-6.48,8.34c-1.37,2.22-2.39,3.87-3.24,6.26c-2.02,5.66-1.36,10.6-1.08,12.52
	c0.8,5.56,3.1,9.44,4.32,11.47c0.69,1.15,2.62,3.55,6.48,8.34c3.78,4.7,4.66,5.57,5.4,6.26c2.73,2.52,6.48,5.21,6.48,5.21
	c0,0,2.17,6.23,2.16,12.52c-0.01,3.86-0.02,6.97-2.16,9.39c-2.36,2.65-4.93,1.78-9.72,4.17c-1.51,0.75-2.95,1.68-8.64,7.3
	c-6.1,6.02-9.14,9.03-11.88,12.52c-5.07,6.46-7.91,12.03-9.72,15.64c-3.15,6.27-6.89,13.72-8.64,23.99
	c-0.44,2.59-2.57,15.92,2.16,32.33c2.54,8.82,5.94,14.62,10.8,22.95c5.82,9.94,9.23,15.65,16.21,20.86
	c5.25,3.92,9.95,5.65,17.29,8.34c5.31,1.95,14.1,5.18,24.85,6.26c5.47,0.55,23.35,2.11,42.14-7.3
	c18.15-9.09,26.86-23.28,32.41-32.33c4.01-6.54,9.58-15.81,11.88-29.2c1.2-6.96,4.09-30.02-10.8-52.15
	c-2.23-3.31-11.28-16.6-27.01-23.99c-15.73-7.39-23.6-11.09-25.93-11.47c-1.63-0.27-6.04-0.89-8.64-4.17
	c-1.84-2.31-1.98-4.94-2.16-8.34c-0.13-2.43-0.4-7.45,2.16-12.52c2.18-4.3,4.58-5.04,7.56-8.34c8.86-9.83,6.73-24.51,6.48-26.07
	c-0.67-4.21-2.03-12.71-8.64-17.73c-2.98-2.26-6.04-3.07-9.72-7.3c-1.29-1.48-3.23-3.76-4.32-7.3c-0.21-0.7-1.62-5.47,0-10.43
	c1.81-5.53,6.35-8.13,10.8-11.47c3.26-2.44,13.63-10.21,18.37-19.82c5.04-10.22,2.92-20.93,1.08-30.25
	c-1.3-6.59-2.32-11.71-6.48-16.69c-3.6-4.31-10.04-9.06-11.88-10.43c-4.23-3.13-5.74-3.71-7.56-6.26
	c-3.64-5.08-3.31-10.62-3.24-11.47c0.43-5.66,3.62-9.42,5.4-11.47c5.63-6.47,11.84-7.67,17.29-10.43
	c17.08-8.65,21.98-30.26,22.69-33.37c0.94-4.15,4.03-20.11-4.32-35.46c-6.39-11.75-16.21-18.77-16.21-18.77
	c-4.96-3.55-7.19-3.76-9.72-7.3c-4.68-6.55-4.95-16.84,0-22.95c2.42-2.99,4.58-3.1,10.8-6.26c8.11-4.11,15.37-9.45,19.45-13.56
	c11.02-11.1,11.79-26.34,11.88-29.2c0.09-2.75,0.53-23.98-12.97-33.37c-4.12-2.87-7.5-3.21-9.72-7.3
	c-2.97-5.44-1.33-12.83,2.16-17.73c3.33-4.67,6.38-4.32,11.88-8.34c0.81-0.59,14.42-10.85,15.13-27.12
	c0.45-10.42-4.61-18.1-6.48-20.86c-2.01-2.96-6.81-9.82-16.21-13.56C692.84,49.12,682.14,52.59,678.64,53.79z M710.93,82.11
	c4.54,20.43-26.43,36.31-22.24,56.81c2.09,10.2,12.43,17.07,15.82,26.94c4.7,13.65-5.07,27.79-15.26,38.29s-22.1,21.62-22.76,35.99
	c-1.16,25.24,32.96,43.11,29.87,68.2c-3.41,27.64-49.02,38.12-48.34,65.95c0.3,12.31,10.11,22.13,18.62,31.29
	s16.79,21.06,13.28,32.9c-5.21,17.6-33.36,23.87-33.93,42.17c-0.49,15.83,21.1,25.99,21,41.83c-0.05,7.46-5.01,13.92-7.96,20.81
	c-6.16,14.35-3.39,31.33,4.81,44.68c8.2,13.36,21.28,23.4,35.46,30.74c11.23,5.81,24.38,11.15,29.19,22.55
	c5.43,12.88-2.62,27.49-12.82,37.3c-22.07,21.25-57.88,30.28-85.83,16.94c-27.94-13.34-41.82-51.2-24.44-76.18
	c10.77-15.49,38.2-26.34,41.42-46.06c1.52-9.29-6.09-16.55-10.56-24.03c-5.23-8.76-8.95-18.53-7.64-28.79
	c1.27-9.89,6.93-18.65,10.98-27.82c4.05-9.17,6.38-20.18,1.15-28.77c-4.48-7.37-13.58-11.34-17.74-18.88
	c-5.23-9.48-1-21.11,3.98-30.72c5.35-10.32,11.59-20.36,14.7-31.5s2.61-23.94-4.65-33.11c-6.05-7.63-15.82-11.68-22.6-18.72
	c-12.03-12.52-11.46-34.35,1.22-46.27c12.44-11.69,34.13-14.7,40.33-30.35c4.9-12.37-2.83-25.61-7.93-37.9
	c-7.5-18.06-8.25-41.47,6.94-54.26c8.28-6.97,20.83-10.55,24.27-20.62c3.97-11.6-6.93-22.43-11.96-33.64
	c-5.69-12.68-2.68-29.42,9.16-37.18C688.34,62.94,707.93,68.6,710.93,82.11z"/>
<g>
	<path d="M708.49,642.01c-11.65-0.72-22.56-5.46-33.75-8.67c-12.79-3.68-26.17-5.4-39.51-5.09c-12.37,0.29-25,2.42-35.66,8.49
		c-0.44,0.25-0.87,0.52-1.29,0.78c-3.35,22.44,9.86,47.62,31.58,57.99c27.94,13.34,63.76,4.31,85.83-16.94
		c10.2-9.82,18.25-24.43,12.82-37.3c-0.28-0.66-0.59-1.3-0.93-1.92C721.47,641.44,714.96,642.42,708.49,642.01z"/>
	<path d="M646.9,572.65c-0.02,0.2-0.03,0.4-0.06,0.61c-3.22,19.72-30.64,30.57-41.42,46.06c-3.87,5.56-6.18,11.76-7.14,18.19
		c0.43-0.26,0.86-0.53,1.29-0.78c10.67-6.06,23.29-8.2,35.66-8.49c13.34-0.31,26.72,1.42,39.51,5.09
		c11.19,3.22,22.1,7.95,33.75,8.67c6.47,0.4,12.99-0.57,19.09-2.67c-5.41-10.09-17.68-15.15-28.26-20.63
		c-14.18-7.33-27.26-17.38-35.46-30.74c-3.32-5.41-5.73-11.41-7.03-17.59c-3.01,1.79-6.45,2.94-9.94,2.79
		C646.89,573,646.89,572.83,646.9,572.65z"/>
	<path d="M632.8,521.6c-1.89,0.46-3.69,1.03-5.42,1.69c-0.73,9.61,3.04,18.75,8.24,27c4.42,7.02,11.73,13.87,11.27,22.38
		c0.02-0.17,0.04-0.35,0.05-0.52c3.39,0.15,6.72-1.06,9.63-2.91c0.07,0.39,0.16,0.77,0.25,1.16c0.07-0.04,0.14-0.08,0.2-0.12
		c-1.73-8.73-1.1-17.76,2.6-25.94c2.93-6.47,7.71-12.56,8.33-19.45c-0.93-0.37-1.87-0.72-2.83-1.06
		C655.08,520.34,643.34,519.03,632.8,521.6z"/>
	<path d="M646.95,572.14c-0.01,0.17-0.04,0.35-0.05,0.52c-0.01,0.18,0,0.35-0.02,0.52c3.5,0.15,6.93-1.01,9.94-2.79
		c-0.08-0.39-0.17-0.77-0.25-1.16C653.67,571.08,650.34,572.29,646.95,572.14z"/>
	<path d="M621.51,428.26c-1.35,5.76-1.32,11.56,1.53,16.72c4.16,7.54,13.26,11.51,17.74,18.88c0.14,0.24,0.26,0.48,0.39,0.72
		c-0.15-0.33-0.28-0.65-0.44-0.98c4.95,0.81,9.98,0.98,14.89,0.34c8.84-7.86,21.06-14.44,24.33-25.45
		c3.11-10.48-3.04-21.01-10.4-29.65C651.49,406.39,632.83,414.62,621.51,428.26z"/>
	<path d="M654.66,178.04c-3.96,1.72-7.86,3.67-11.27,6.23c-1.53,10.55,0.55,22.15,4.69,32.13c2.96,7.12,6.79,14.57,8.55,21.97
		c3.56-0.43,7.06-1.4,10.44-2.64c2.58-12.28,13.08-22.18,22.19-31.58c8.45-8.71,16.6-19.92,16.46-31.29
		C689.15,167.51,670.64,171.1,654.66,178.04z"/>
	<path d="M656.02,254.3c-6.2,15.65-27.89,18.66-40.33,30.35c-4.74,4.46-7.79,10.3-9.12,16.53c5.75-6.26,13.98-10.24,22.45-12.23
		c9.56-2.25,19.52-2.22,29.36-1.98c11.43,0.28,22.95,0.84,33.99,3.72c0.19,0.05,0.38,0.11,0.57,0.16
		c-8.19-16.87-27.31-31.7-26.44-50.7c0.07-1.51,0.27-2.98,0.57-4.42c-3.38,1.24-6.87,2.21-10.44,2.64
		C657.9,243.75,658.08,249.1,656.02,254.3z"/>
	<path d="M658.37,286.97c-9.84-0.24-19.8-0.27-29.36,1.98c-8.48,1.99-16.7,5.98-22.45,12.23c-2.22,10.42,0.37,21.9,7.9,29.74
		c3.15,3.27,6.94,5.9,10.71,8.54c11.88,5.13,25.99,5.66,37.82,0.32c11.27-5.08,20.17-14.53,30.17-21.58
		c1.64-3.05,2.77-6.31,3.21-9.85c0.76-6.2-0.75-11.96-3.44-17.49c-0.19-0.05-0.38-0.11-0.57-0.16
		C681.33,287.81,669.8,287.25,658.37,286.97z"/>
	<path d="M625.17,339.46c4.34,3.04,8.65,6.1,11.88,10.18c7.26,9.17,7.76,21.97,4.65,33.11s-9.34,21.19-14.7,31.5
		c-2.27,4.38-4.37,9.18-5.51,14c11.33-13.64,29.98-21.87,48.04-19.43c-0.95-1.11-1.92-2.2-2.89-3.25
		c-8.51-9.17-18.32-18.99-18.62-31.29c-0.59-24.26,34-35.34,45.13-56.1c-10,7.05-18.9,16.5-30.17,21.58
		C651.16,345.12,637.05,344.59,625.17,339.46z"/>
	<path d="M652.61,466.8c-3.39,0.85-6.92,0.79-10.37,0.06c-0.31-0.78-0.68-1.54-1.09-2.29c4.67,10.3,0.99,22.34-4.88,32.61
		c-5.69,9.96-13.27,19.56-16.87,29.95c2.52-1.46,5.15-2.77,7.98-3.85c0.05-0.6,0.1-1.19,0.19-1.79c0.22-1.64,0.58-3.25,1.03-4.84
		c2.54-1.81,5.27-3.32,8.37-4.25c6.58-1.97,13.92-0.96,20.2,1.71c3.85,1.64,7.35,3.86,10.59,6.39c0.17,0.99,0.27,1.99,0.26,3.03
		c0,0.46-0.03,0.91-0.07,1.36c5.06,2,9.73,4.49,14.11,7.27c-4.01-18.46-35.78-31.29-35.01-50.58c0.29-7.16,4.78-12.9,11.15-18.06
		c-0.86,0.17-1.73,0.3-2.6,0.41C654.56,464.86,653.55,465.82,652.61,466.8z"/>
	<path d="M640.72,463.59c0.16,0.32,0.29,0.65,0.44,0.98c0.41,0.75,0.78,1.51,1.09,2.29c3.45,0.73,6.97,0.79,10.37-0.06
		c0.94-0.98,1.94-1.93,3-2.87C650.7,464.57,645.66,464.4,640.72,463.59z"/>
	<path d="M667.76,520.5c-3.24-2.52-6.74-4.75-10.59-6.39c-6.28-2.67-13.62-3.68-20.2-1.71c-3.11,0.93-5.84,2.43-8.37,4.25
		c-0.45,1.59-0.81,3.2-1.03,4.84c-0.08,0.6-0.14,1.2-0.19,1.79c1.73-0.66,3.53-1.23,5.42-1.69c10.53-2.56,22.27-1.25,32.32,2.23
		c0.96,0.33,1.9,0.69,2.83,1.06c0.04-0.45,0.06-0.9,0.07-1.36C668.03,522.49,667.94,521.49,667.76,520.5z"/>
</g>
<path d="M849.89,53.79c-3.18,1.09-12.94,4.57-19.45,14.6c-1.45,2.23-6.98,10.73-5.4,20.86c0.79,5.1,3.41,10,8.64,19.82
	c2.67,5.01,4.3,7.41,4.32,11.47c0.04,6.17-3.64,10.67-4.32,11.47c-2.72,3.22-5.19,3.83-11.88,7.3c-5.39,2.79-10.38,5.38-14.05,8.34
	c-6.73,5.45-9.21,12.35-11.88,19.82c-3.07,8.55-6.01,16.76-3.24,26.07c2.19,7.36,7.5,13.93,9.72,16.69
	c3.08,3.81,4.79,5.01,7.56,9.39c2.05,3.24,4.42,7.08,5.4,12.52c0.62,3.42,1.57,8.74-1.08,13.56c-1.9,3.45-4.16,3.94-12.97,9.39
	c-3.31,2.05-9.69,6-15.13,10.43c-4.12,3.36-9.05,7.38-12.97,13.56c-6.51,10.28-6.49,20.69-6.48,26.07c0.01,4.67,0.15,15,6.48,26.07
	c2.61,4.57,6.37,11.14,14.05,15.64c5.71,3.35,8.41,2.51,11.88,6.26c5.85,6.3,4.52,15.47,4.32,16.69
	c-1.02,6.34-4.69,10.52-6.48,12.52c-3.5,3.88-5.05,3.44-10.8,8.34c-2.65,2.26-6.44,5.49-9.72,10.43
	c-3.54,5.34-4.77,10.06-6.48,16.69c-1.73,6.69-2.6,10.04-2.16,14.6c0.7,7.28,4.01,12.48,5.4,14.6c2.23,3.42,4.73,5.75,9.72,10.43
	c4.58,4.29,6.99,5.85,10.8,10.43c2,2.4,3.21,3.88,4.32,6.26c1.76,3.78,1.93,6.96,2.16,11.47c0.27,5.24,0.41,7.86-1.08,10.43
	c-1.19,2.05-1.84,1.55-5.4,5.21c-0.9,0.93-3.77,3.95-6.48,8.34c-1.37,2.22-2.39,3.87-3.24,6.26c-2.02,5.66-1.36,10.6-1.08,12.52
	c0.8,5.56,3.1,9.44,4.32,11.47c0.69,1.15,2.62,3.55,6.48,8.34c3.78,4.7,4.66,5.57,5.4,6.26c2.73,2.52,6.48,5.21,6.48,5.21
	c0,0,2.17,6.23,2.16,12.52c-0.01,3.86-0.02,6.97-2.16,9.39c-2.36,2.65-4.93,1.78-9.72,4.17c-1.51,0.75-2.95,1.68-8.64,7.3
	c-6.1,6.02-9.14,9.03-11.88,12.52c-5.07,6.46-7.91,12.03-9.72,15.64c-3.15,6.27-6.89,13.72-8.64,23.99
	c-0.44,2.59-2.57,15.92,2.16,32.33c2.54,8.82,5.94,14.62,10.8,22.95c5.82,9.94,9.23,15.65,16.21,20.86
	c5.25,3.92,9.95,5.65,17.29,8.34c5.31,1.95,14.1,5.18,24.85,6.26c5.47,0.55,23.35,2.11,42.14-7.3
	c18.15-9.09,26.86-23.28,32.41-32.33c4.01-6.54,9.58-15.81,11.88-29.2c1.2-6.96,4.09-30.02-10.8-52.15
	c-2.23-3.31-11.28-16.6-27.01-23.99c-15.73-7.39-23.6-11.09-25.93-11.47c-1.63-0.27-6.04-0.89-8.64-4.17
	c-1.84-2.31-1.98-4.94-2.16-8.34c-0.13-2.43-0.4-7.45,2.16-12.52c2.18-4.3,4.58-5.04,7.56-8.34c8.86-9.83,6.73-24.51,6.48-26.07
	c-0.67-4.21-2.03-12.71-8.64-17.73c-2.98-2.26-6.04-3.07-9.72-7.3c-1.29-1.48-3.23-3.76-4.32-7.3c-0.21-0.7-1.62-5.47,0-10.43
	c1.81-5.53,6.35-8.13,10.8-11.47c3.26-2.44,13.63-10.21,18.37-19.82c5.04-10.22,2.92-20.93,1.08-30.25
	c-1.3-6.59-2.32-11.71-6.48-16.69c-3.6-4.31-10.04-9.06-11.88-10.43c-4.23-3.13-5.74-3.71-7.56-6.26
	c-3.64-5.08-3.31-10.62-3.24-11.47c0.43-5.66,3.62-9.42,5.4-11.47c5.63-6.47,11.84-7.67,17.29-10.43
	c17.08-8.65,21.98-30.26,22.69-33.37c0.94-4.15,4.03-20.11-4.32-35.46c-6.39-11.75-16.21-18.77-16.21-18.77
	c-4.96-3.55-7.19-3.76-9.72-7.3c-4.68-6.55-4.95-16.84,0-22.95c2.42-2.99,4.58-3.1,10.8-6.26c8.11-4.11,15.37-9.45,19.45-13.56
	c11.02-11.1,11.79-26.34,11.88-29.2c0.09-2.75,0.53-23.98-12.97-33.37c-4.12-2.87-7.5-3.21-9.72-7.3
	c-2.97-5.44-1.33-12.83,2.16-17.73c3.33-4.67,6.38-4.32,11.88-8.34c0.81-0.59,14.42-10.85,15.13-27.12
	c0.45-10.42-4.61-18.1-6.48-20.86c-2.01-2.96-6.81-9.82-16.21-13.56C864.09,49.12,853.4,52.59,849.89,53.79z M882.19,82.11
	c4.54,20.43-26.43,36.31-22.24,56.81c2.09,10.2,12.43,17.07,15.82,26.94c4.7,13.65-5.07,27.79-15.26,38.29s-22.1,21.62-22.76,35.99
	c-1.16,25.24,32.96,43.11,29.87,68.2c-3.41,27.64-49.02,38.12-48.34,65.95c0.3,12.31,10.11,22.13,18.62,31.29
	c8.51,9.17,16.79,21.06,13.28,32.9c-5.21,17.6-33.36,23.87-33.93,42.17c-0.49,15.83,21.1,25.99,21,41.83
	c-0.05,7.46-5.01,13.92-7.96,20.81c-6.16,14.35-3.39,31.33,4.81,44.68c8.2,13.36,21.28,23.4,35.46,30.74
	c11.23,5.81,24.38,11.15,29.19,22.55c5.43,12.88-2.62,27.49-12.82,37.3c-22.07,21.25-57.88,30.28-85.83,16.94
	c-27.94-13.34-41.82-51.2-24.44-76.18c10.77-15.49,38.2-26.34,41.42-46.06c1.52-9.29-6.09-16.55-10.56-24.03
	c-5.23-8.76-8.95-18.53-7.64-28.79c1.27-9.89,6.93-18.65,10.98-27.82c4.05-9.17,6.38-20.18,1.15-28.77
	c-4.48-7.37-13.58-11.34-17.74-18.88c-5.23-9.48-1-21.11,3.98-30.72c5.35-10.32,11.59-20.36,14.7-31.5
	c3.11-11.14,2.61-23.94-4.65-33.11c-6.05-7.63-15.82-11.68-22.6-18.72c-12.03-12.52-11.46-34.35,1.22-46.27
	c12.44-11.69,34.13-14.7,40.33-30.35c4.9-12.37-2.83-25.61-7.93-37.9c-7.5-18.06-8.25-41.47,6.94-54.26
	c8.28-6.97,20.83-10.55,24.27-20.62c3.97-11.6-6.93-22.43-11.96-33.64c-5.69-12.68-2.68-29.42,9.16-37.18
	C859.6,62.94,879.19,68.6,882.19,82.11z"/>
<g>
	<path d="M879.75,642.01c-11.65-0.72-22.56-5.46-33.75-8.67c-12.79-3.68-26.17-5.4-39.51-5.09c-12.37,0.29-25,2.42-35.66,8.49
		c-0.44,0.25-0.87,0.52-1.29,0.78c-3.35,22.44,9.86,47.62,31.58,57.99c27.94,13.34,63.76,4.31,85.83-16.94
		c10.2-9.82,18.25-24.43,12.82-37.3c-0.28-0.66-0.59-1.3-0.93-1.92C892.73,641.44,886.22,642.42,879.75,642.01z"/>
	<path d="M818.15,572.65c-0.02,0.2-0.03,0.4-0.06,0.61c-3.22,19.72-30.64,30.57-41.42,46.06c-3.87,5.56-6.18,11.76-7.14,18.19
		c0.43-0.26,0.86-0.53,1.29-0.78c10.67-6.06,23.29-8.2,35.66-8.49c13.34-0.31,26.72,1.42,39.51,5.09
		c11.19,3.22,22.1,7.95,33.75,8.67c6.47,0.4,12.99-0.57,19.09-2.67c-5.41-10.09-17.68-15.15-28.26-20.63
		c-14.18-7.33-27.26-17.38-35.46-30.74c-3.32-5.41-5.73-11.41-7.03-17.59c-3.01,1.79-6.45,2.94-9.94,2.79
		C818.15,573,818.14,572.83,818.15,572.65z"/>
	<path d="M804.06,521.6c-1.89,0.46-3.69,1.03-5.42,1.69c-0.73,9.61,3.04,18.75,8.24,27c4.42,7.02,11.73,13.87,11.27,22.38
		c0.02-0.17,0.04-0.35,0.05-0.52c3.39,0.15,6.72-1.06,9.63-2.91c0.07,0.39,0.16,0.77,0.25,1.16c0.07-0.04,0.14-0.08,0.2-0.12
		c-1.73-8.73-1.1-17.76,2.6-25.94c2.93-6.47,7.71-12.56,8.33-19.45c-0.93-0.37-1.87-0.72-2.83-1.06
		C826.34,520.34,814.59,519.03,804.06,521.6z"/>
	<path d="M818.21,572.14c-0.01,0.17-0.04,0.35-0.05,0.52c-0.01,0.18,0,0.35-0.02,0.52c3.5,0.15,6.93-1.01,9.94-2.79
		c-0.08-0.39-0.17-0.77-0.25-1.16C824.93,571.08,821.6,572.29,818.21,572.14z"/>
	<path d="M792.76,428.26c-1.35,5.76-1.32,11.56,1.53,16.72c4.16,7.54,13.26,11.51,17.74,18.88c0.14,0.24,0.26,0.48,0.39,0.72
		c-0.15-0.33-0.28-0.65-0.44-0.98c4.95,0.81,9.98,0.98,14.89,0.34c8.84-7.86,21.06-14.44,24.33-25.45
		c3.11-10.48-3.04-21.01-10.4-29.65C822.75,406.39,804.09,414.62,792.76,428.26z"/>
	<path d="M827.27,254.3c-6.2,15.65-27.89,18.66-40.33,30.35c-4.74,4.46-7.79,10.3-9.12,16.53c5.75-6.26,13.98-10.24,22.45-12.23
		c9.56-2.25,19.52-2.22,29.36-1.98c11.43,0.28,22.95,0.84,33.99,3.72c0.19,0.05,0.38,0.11,0.57,0.16
		c-8.19-16.87-27.31-31.7-26.44-50.7c0.07-1.51,0.27-2.98,0.57-4.42c-3.38,1.24-6.87,2.21-10.44,2.64
		C829.16,243.75,829.33,249.1,827.27,254.3z"/>
	<path d="M829.63,286.97c-9.84-0.24-19.8-0.27-29.36,1.98c-8.48,1.99-16.7,5.98-22.45,12.23c-2.22,10.42,0.37,21.9,7.9,29.74
		c3.15,3.27,6.94,5.9,10.71,8.54c11.88,5.13,25.99,5.66,37.82,0.32c11.27-5.08,20.17-14.53,30.17-21.58
		c1.64-3.05,2.77-6.31,3.21-9.85c0.76-6.2-0.75-11.96-3.44-17.49c-0.19-0.05-0.38-0.11-0.57-0.16
		C852.59,287.81,841.06,287.25,829.63,286.97z"/>
	<path d="M796.43,339.46c4.34,3.04,8.65,6.1,11.88,10.18c7.26,9.17,7.76,21.97,4.65,33.11c-3.11,11.14-9.34,21.19-14.7,31.5
		c-2.27,4.38-4.37,9.18-5.51,14c11.33-13.64,29.98-21.87,48.04-19.43c-0.95-1.11-1.92-2.2-2.89-3.25
		c-8.51-9.17-18.32-18.99-18.62-31.29c-0.59-24.26,34-35.34,45.13-56.1c-10,7.05-18.9,16.5-30.17,21.58
		C822.42,345.12,808.31,344.59,796.43,339.46z"/>
	<path d="M823.87,466.8c-3.39,0.85-6.92,0.79-10.37,0.06c-0.31-0.78-0.68-1.54-1.09-2.29c4.67,10.3,0.99,22.34-4.88,32.61
		c-5.69,9.96-13.27,19.56-16.87,29.95c2.52-1.46,5.15-2.77,7.98-3.85c0.05-0.6,0.1-1.19,0.19-1.79c0.22-1.64,0.58-3.25,1.03-4.84
		c2.54-1.81,5.27-3.32,8.37-4.25c6.58-1.97,13.92-0.96,20.2,1.71c3.85,1.64,7.35,3.86,10.59,6.39c0.17,0.99,0.27,1.99,0.26,3.03
		c0,0.46-0.03,0.91-0.07,1.36c5.06,2,9.73,4.49,14.11,7.27c-4.01-18.46-35.78-31.29-35.01-50.58c0.29-7.16,4.78-12.9,11.15-18.06
		c-0.86,0.17-1.73,0.3-2.6,0.41C825.82,464.86,824.81,465.82,823.87,466.8z"/>
	<path d="M811.97,463.59c0.16,0.32,0.29,0.65,0.44,0.98c0.41,0.75,0.78,1.51,1.09,2.29c3.45,0.73,6.97,0.79,10.37-0.06
		c0.94-0.98,1.94-1.93,3-2.87C821.96,464.57,816.92,464.4,811.97,463.59z"/>
	<path d="M839.02,520.5c-3.24-2.52-6.74-4.75-10.59-6.39c-6.28-2.67-13.62-3.68-20.2-1.71c-3.11,0.93-5.84,2.43-8.37,4.25
		c-0.45,1.59-0.81,3.2-1.03,4.84c-0.08,0.6-0.14,1.2-0.19,1.79c1.73-0.66,3.53-1.23,5.42-1.69c10.53-2.56,22.27-1.25,32.32,2.23
		c0.96,0.33,1.9,0.69,2.83,1.06c0.04-0.45,0.06-0.9,0.07-1.36C839.29,522.49,839.19,521.49,839.02,520.5z"/>
</g>
<path d="M1030.57,53.79c-3.18,1.09-12.94,4.57-19.45,14.6c-1.45,2.23-6.98,10.73-5.4,20.86c0.79,5.1,3.41,10,8.64,19.82
	c2.67,5.01,4.3,7.41,4.32,11.47c0.04,6.17-3.64,10.67-4.32,11.47c-2.72,3.22-5.19,3.83-11.88,7.3c-5.39,2.79-10.38,5.38-14.05,8.34
	c-6.73,5.45-9.21,12.35-11.88,19.82c-3.07,8.55-6.01,16.76-3.24,26.07c2.19,7.36,7.5,13.93,9.72,16.69
	c3.08,3.81,4.79,5.01,7.56,9.39c2.05,3.24,4.42,7.08,5.4,12.52c0.62,3.42,1.57,8.74-1.08,13.56c-1.9,3.45-4.16,3.94-12.97,9.39
	c-3.31,2.05-9.69,6-15.13,10.43c-4.12,3.36-9.05,7.38-12.97,13.56c-6.51,10.28-6.49,20.69-6.48,26.07c0.01,4.67,0.15,15,6.48,26.07
	c2.61,4.57,6.37,11.14,14.05,15.64c5.71,3.35,8.41,2.51,11.88,6.26c5.85,6.3,4.52,15.47,4.32,16.69
	c-1.02,6.34-4.69,10.52-6.48,12.52c-3.5,3.88-5.05,3.44-10.8,8.34c-2.65,2.26-6.44,5.49-9.72,10.43
	c-3.55,5.34-4.77,10.06-6.48,16.69c-1.73,6.69-2.6,10.04-2.16,14.6c0.7,7.28,4.01,12.48,5.4,14.6c2.23,3.42,4.73,5.75,9.72,10.43
	c4.58,4.29,6.99,5.85,10.8,10.43c2,2.4,3.21,3.88,4.32,6.26c1.76,3.78,1.93,6.96,2.16,11.47c0.27,5.24,0.41,7.86-1.08,10.43
	c-1.19,2.05-1.84,1.55-5.4,5.21c-0.9,0.93-3.77,3.95-6.48,8.34c-1.37,2.22-2.39,3.87-3.24,6.26c-2.02,5.66-1.36,10.6-1.08,12.52
	c0.8,5.56,3.1,9.44,4.32,11.47c0.69,1.15,2.62,3.55,6.48,8.34c3.78,4.7,4.66,5.57,5.4,6.26c2.73,2.52,6.48,5.21,6.48,5.21
	c0,0,2.17,6.23,2.16,12.52c-0.01,3.86-0.02,6.97-2.16,9.39c-2.36,2.65-4.93,1.78-9.72,4.17c-1.51,0.75-2.95,1.68-8.64,7.3
	c-6.1,6.02-9.14,9.03-11.88,12.52c-5.07,6.46-7.91,12.03-9.72,15.64c-3.15,6.27-6.89,13.72-8.64,23.99
	c-0.44,2.59-2.57,15.92,2.16,32.33c2.54,8.82,5.94,14.62,10.8,22.95c5.82,9.94,9.23,15.65,16.21,20.86
	c5.25,3.92,9.95,5.65,17.29,8.34c5.31,1.95,14.1,5.18,24.85,6.26c5.47,0.55,23.35,2.11,42.14-7.3
	c18.15-9.09,26.86-23.28,32.41-32.33c4.01-6.54,9.58-15.81,11.88-29.2c1.2-6.96,4.09-30.02-10.8-52.15
	c-2.23-3.31-11.28-16.6-27.01-23.99c-15.73-7.39-23.6-11.09-25.93-11.47c-1.63-0.27-6.04-0.89-8.64-4.17
	c-1.84-2.31-1.98-4.94-2.16-8.34c-0.13-2.43-0.4-7.45,2.16-12.52c2.18-4.3,4.58-5.04,7.56-8.34c8.86-9.83,6.73-24.51,6.48-26.07
	c-0.67-4.21-2.03-12.71-8.64-17.73c-2.98-2.26-6.04-3.07-9.72-7.3c-1.29-1.48-3.23-3.76-4.32-7.3c-0.21-0.7-1.62-5.47,0-10.43
	c1.81-5.53,6.35-8.13,10.8-11.47c3.26-2.44,13.63-10.21,18.37-19.82c5.04-10.22,2.92-20.93,1.08-30.25
	c-1.3-6.59-2.32-11.71-6.48-16.69c-3.6-4.31-10.04-9.06-11.88-10.43c-4.23-3.13-5.74-3.71-7.56-6.26
	c-3.64-5.08-3.31-10.62-3.24-11.47c0.43-5.66,3.62-9.42,5.4-11.47c5.63-6.47,11.84-7.67,17.29-10.43
	c17.08-8.65,21.98-30.26,22.69-33.37c0.94-4.15,4.03-20.11-4.32-35.46c-6.39-11.75-16.21-18.77-16.21-18.77
	c-4.96-3.55-7.19-3.76-9.72-7.3c-4.68-6.55-4.95-16.84,0-22.95c2.42-2.99,4.58-3.1,10.8-6.26c8.11-4.11,15.37-9.45,19.45-13.56
	c11.02-11.1,11.79-26.34,11.88-29.2c0.09-2.75,0.53-23.98-12.97-33.37c-4.12-2.87-7.5-3.21-9.72-7.3
	c-2.97-5.44-1.33-12.83,2.16-17.73c3.33-4.67,6.38-4.32,11.88-8.34c0.81-0.59,14.42-10.85,15.13-27.12
	c0.45-10.42-4.61-18.1-6.48-20.86c-2.01-2.96-6.81-9.82-16.21-13.56C1044.77,49.12,1034.07,52.59,1030.57,53.79z M1062.86,82.11
	c4.54,20.43-26.43,36.31-22.24,56.81c2.09,10.2,12.43,17.07,15.82,26.94c4.7,13.65-5.07,27.79-15.26,38.29s-22.1,21.62-22.76,35.99
	c-1.16,25.24,32.97,43.11,29.87,68.2c-3.41,27.64-49.02,38.12-48.34,65.95c0.3,12.31,10.11,22.13,18.62,31.29
	c8.51,9.17,16.79,21.06,13.28,32.9c-5.21,17.6-33.36,23.87-33.93,42.17c-0.49,15.83,21.1,25.99,21,41.83
	c-0.05,7.46-5.01,13.92-7.96,20.81c-6.16,14.35-3.39,31.33,4.81,44.68c8.2,13.36,21.28,23.4,35.46,30.74
	c11.23,5.81,24.38,11.15,29.19,22.55c5.43,12.88-2.62,27.49-12.82,37.3c-22.07,21.25-57.88,30.28-85.83,16.94
	c-27.94-13.34-41.82-51.2-24.44-76.18c10.77-15.49,38.2-26.34,41.42-46.06c1.52-9.29-6.09-16.55-10.56-24.03
	c-5.23-8.76-8.95-18.53-7.64-28.79c1.27-9.89,6.93-18.65,10.98-27.82c4.05-9.17,6.38-20.18,1.15-28.77
	c-4.48-7.37-13.58-11.34-17.74-18.88c-5.23-9.48-1-21.11,3.98-30.72c5.35-10.32,11.59-20.36,14.7-31.5s2.61-23.94-4.65-33.11
	c-6.05-7.63-15.82-11.68-22.6-18.72c-12.03-12.52-11.46-34.35,1.22-46.27c12.44-11.69,34.13-14.7,40.33-30.35
	c4.9-12.37-2.83-25.61-7.93-37.9c-7.5-18.06-8.25-41.47,6.94-54.26c8.28-6.97,20.83-10.55,24.27-20.62
	c3.97-11.6-6.93-22.43-11.96-33.64c-5.69-12.68-2.68-29.42,9.16-37.18C1040.27,62.94,1059.86,68.6,1062.86,82.11z"/>
<g>
	<path d="M1060.42,642.01c-11.65-0.72-22.56-5.46-33.75-8.67c-12.79-3.68-26.17-5.4-39.51-5.09c-12.37,0.29-25,2.42-35.66,8.49
		c-0.44,0.25-0.87,0.52-1.29,0.78c-3.35,22.44,9.86,47.62,31.58,57.99c27.94,13.34,63.76,4.31,85.83-16.94
		c10.2-9.82,18.25-24.43,12.82-37.3c-0.28-0.66-0.59-1.3-0.93-1.92C1073.41,641.44,1066.89,642.42,1060.42,642.01z"/>
	<path d="M998.83,572.65c-0.02,0.2-0.03,0.4-0.06,0.61c-3.22,19.72-30.64,30.57-41.42,46.06c-3.87,5.56-6.18,11.76-7.14,18.19
		c0.43-0.26,0.86-0.53,1.29-0.78c10.67-6.06,23.29-8.2,35.66-8.49c13.34-0.31,26.72,1.42,39.51,5.09
		c11.19,3.22,22.1,7.95,33.75,8.67c6.47,0.4,12.99-0.57,19.09-2.67c-5.41-10.09-17.68-15.15-28.26-20.63
		c-14.18-7.33-27.26-17.38-35.46-30.74c-3.32-5.41-5.73-11.41-7.03-17.59c-3.01,1.79-6.45,2.94-9.94,2.79
		C998.83,573,998.82,572.83,998.83,572.65z"/>
	<path d="M984.73,521.6c-1.89,0.46-3.69,1.03-5.42,1.69c-0.73,9.61,3.04,18.75,8.24,27c4.42,7.02,11.73,13.87,11.27,22.38
		c0.02-0.17,0.04-0.35,0.05-0.52c3.39,0.15,6.72-1.06,9.63-2.91c0.07,0.39,0.16,0.77,0.25,1.16c0.07-0.04,0.14-0.08,0.2-0.12
		c-1.73-8.73-1.1-17.76,2.6-25.94c2.93-6.47,7.71-12.56,8.33-19.45c-0.93-0.37-1.87-0.72-2.83-1.06
		C1007.01,520.34,995.27,519.03,984.73,521.6z"/>
	<path d="M998.88,572.14c-0.01,0.17-0.04,0.35-0.05,0.52c-0.01,0.18,0,0.35-0.02,0.52c3.5,0.15,6.93-1.01,9.94-2.79
		c-0.08-0.39-0.17-0.77-0.25-1.16C1005.6,571.08,1002.27,572.29,998.88,572.14z"/>
	<path d="M973.44,428.26c-1.35,5.76-1.32,11.56,1.53,16.72c4.16,7.54,13.26,11.51,17.74,18.88c0.14,0.24,0.26,0.48,0.39,0.72
		c-0.15-0.33-0.28-0.65-0.44-0.98c4.95,0.81,9.98,0.98,14.89,0.34c8.84-7.86,21.06-14.44,24.33-25.45
		c3.11-10.48-3.04-21.01-10.4-29.65C1003.42,406.39,984.76,414.62,973.44,428.26z"/>
	<path d="M977.1,339.46c4.34,3.04,8.65,6.1,11.88,10.18c7.26,9.17,7.76,21.97,4.65,33.11s-9.34,21.19-14.7,31.5
		c-2.27,4.38-4.37,9.18-5.51,14c11.33-13.64,29.98-21.87,48.04-19.43c-0.95-1.11-1.92-2.2-2.89-3.25
		c-8.51-9.17-18.32-18.99-18.62-31.29c-0.59-24.26,34-35.34,45.13-56.1c-10,7.05-18.9,16.5-30.17,21.58
		C1003.09,345.12,988.99,344.59,977.1,339.46z"/>
	<path d="M1004.55,466.8c-3.39,0.85-6.92,0.79-10.37,0.06c-0.31-0.78-0.68-1.54-1.09-2.29c4.67,10.3,0.99,22.34-4.88,32.61
		c-5.69,9.96-13.27,19.56-16.87,29.95c2.52-1.46,5.15-2.77,7.98-3.85c0.05-0.6,0.1-1.19,0.19-1.79c0.22-1.64,0.58-3.25,1.03-4.84
		c2.54-1.81,5.27-3.32,8.37-4.25c6.58-1.97,13.92-0.96,20.2,1.71c3.85,1.64,7.35,3.86,10.59,6.39c0.17,0.99,0.27,1.99,0.26,3.03
		c0,0.46-0.03,0.91-0.07,1.36c5.06,2,9.73,4.49,14.11,7.27c-4.01-18.46-35.78-31.29-35.01-50.58c0.29-7.16,4.78-12.9,11.15-18.06
		c-0.86,0.17-1.73,0.3-2.6,0.41C1006.49,464.86,1005.48,465.82,1004.55,466.8z"/>
	<path d="M992.65,463.59c0.16,0.32,0.29,0.65,0.44,0.98c0.41,0.75,0.78,1.51,1.09,2.29c3.45,0.73,6.97,0.79,10.37-0.06
		c0.94-0.98,1.94-1.93,3-2.87C1002.63,464.57,997.6,464.4,992.65,463.59z"/>
	<path d="M1019.69,520.5c-3.24-2.52-6.74-4.75-10.59-6.39c-6.28-2.67-13.62-3.68-20.2-1.71c-3.11,0.93-5.84,2.43-8.37,4.25
		c-0.45,1.59-0.81,3.2-1.03,4.84c-0.08,0.6-0.14,1.2-0.19,1.79c1.73-0.66,3.53-1.23,5.42-1.69c10.53-2.56,22.27-1.25,32.32,2.23
		c0.96,0.33,1.9,0.69,2.83,1.06c0.04-0.45,0.06-0.9,0.07-1.36C1019.96,522.49,1019.87,521.49,1019.69,520.5z"/>
</g>
<path d="M1211.24,53.79c-3.18,1.09-12.94,4.57-19.45,14.6c-1.45,2.23-6.98,10.73-5.4,20.86c0.79,5.1,3.41,10,8.64,19.82
	c2.67,5.01,4.3,7.41,4.32,11.47c0.04,6.17-3.64,10.67-4.32,11.47c-2.72,3.22-5.19,3.83-11.88,7.3c-5.39,2.79-10.38,5.38-14.05,8.34
	c-6.73,5.45-9.21,12.35-11.88,19.82c-3.07,8.55-6.01,16.76-3.24,26.07c2.19,7.36,7.5,13.93,9.72,16.69
	c3.08,3.81,4.79,5.01,7.56,9.39c2.05,3.24,4.42,7.08,5.4,12.52c0.62,3.42,1.57,8.74-1.08,13.56c-1.9,3.45-4.16,3.94-12.97,9.39
	c-3.31,2.05-9.69,6-15.13,10.43c-4.12,3.36-9.05,7.38-12.97,13.56c-6.51,10.28-6.49,20.69-6.48,26.07c0.01,4.67,0.15,15,6.48,26.07
	c2.61,4.57,6.37,11.14,14.05,15.64c5.71,3.35,8.41,2.51,11.88,6.26c5.85,6.3,4.52,15.47,4.32,16.69
	c-1.02,6.34-4.69,10.52-6.48,12.52c-3.5,3.88-5.05,3.44-10.8,8.34c-2.65,2.26-6.44,5.49-9.72,10.43
	c-3.55,5.34-4.77,10.06-6.48,16.69c-1.73,6.69-2.6,10.04-2.16,14.6c0.7,7.28,4.01,12.48,5.4,14.6c2.23,3.42,4.73,5.75,9.72,10.43
	c4.58,4.29,6.99,5.85,10.8,10.43c2,2.4,3.21,3.88,4.32,6.26c1.76,3.78,1.93,6.96,2.16,11.47c0.27,5.24,0.41,7.86-1.08,10.43
	c-1.19,2.05-1.84,1.55-5.4,5.21c-0.9,0.93-3.77,3.95-6.48,8.34c-1.37,2.22-2.39,3.87-3.24,6.26c-2.02,5.66-1.36,10.6-1.08,12.52
	c0.81,5.56,3.1,9.44,4.32,11.47c0.69,1.15,2.62,3.55,6.48,8.34c3.78,4.7,4.66,5.57,5.4,6.26c2.73,2.52,6.48,5.21,6.48,5.21
	c0,0,2.17,6.23,2.16,12.52c-0.01,3.86-0.02,6.97-2.16,9.39c-2.36,2.65-4.93,1.78-9.72,4.17c-1.51,0.75-2.95,1.68-8.64,7.3
	c-6.1,6.02-9.14,9.03-11.88,12.52c-5.07,6.46-7.91,12.03-9.72,15.64c-3.15,6.27-6.89,13.72-8.64,23.99
	c-0.44,2.59-2.57,15.92,2.16,32.33c2.54,8.82,5.94,14.62,10.8,22.95c5.82,9.94,9.23,15.65,16.21,20.86
	c5.25,3.92,9.95,5.65,17.29,8.34c5.31,1.95,14.1,5.18,24.85,6.26c5.47,0.55,23.35,2.11,42.14-7.3
	c18.15-9.09,26.86-23.28,32.41-32.33c4.01-6.54,9.58-15.81,11.88-29.2c1.2-6.96,4.09-30.02-10.8-52.15
	c-2.23-3.31-11.28-16.6-27.01-23.99c-15.73-7.39-23.6-11.09-25.93-11.47c-1.63-0.27-6.04-0.89-8.64-4.17
	c-1.84-2.31-1.98-4.94-2.16-8.34c-0.13-2.43-0.4-7.45,2.16-12.52c2.18-4.3,4.58-5.04,7.56-8.34c8.86-9.83,6.73-24.51,6.48-26.07
	c-0.67-4.21-2.03-12.71-8.64-17.73c-2.98-2.26-6.04-3.07-9.72-7.3c-1.29-1.48-3.23-3.76-4.32-7.3c-0.21-0.7-1.62-5.47,0-10.43
	c1.81-5.53,6.35-8.13,10.8-11.47c3.26-2.44,13.63-10.21,18.37-19.82c5.04-10.22,2.92-20.93,1.08-30.25
	c-1.3-6.59-2.32-11.71-6.48-16.69c-3.6-4.31-10.04-9.06-11.88-10.43c-4.23-3.13-5.74-3.71-7.56-6.26
	c-3.64-5.08-3.31-10.62-3.24-11.47c0.43-5.66,3.62-9.42,5.4-11.47c5.63-6.47,11.84-7.67,17.29-10.43
	c17.08-8.65,21.98-30.26,22.69-33.37c0.94-4.15,4.03-20.11-4.32-35.46c-6.39-11.75-16.21-18.77-16.21-18.77
	c-4.96-3.55-7.19-3.76-9.72-7.3c-4.68-6.55-4.95-16.84,0-22.95c2.42-2.99,4.58-3.1,10.8-6.26c8.11-4.11,15.37-9.45,19.45-13.56
	c11.02-11.1,11.79-26.34,11.88-29.2c0.09-2.75,0.53-23.98-12.97-33.37c-4.12-2.87-7.5-3.21-9.72-7.3
	c-2.96-5.44-1.33-12.83,2.16-17.73c3.33-4.67,6.38-4.32,11.88-8.34c0.81-0.59,14.42-10.85,15.13-27.12
	c0.45-10.42-4.61-18.1-6.48-20.86c-2.01-2.96-6.81-9.82-16.21-13.56C1225.44,49.12,1214.74,52.59,1211.24,53.79z M1243.53,82.11
	c4.54,20.43-26.43,36.31-22.24,56.81c2.09,10.2,12.43,17.07,15.82,26.94c4.7,13.65-5.07,27.79-15.26,38.29s-22.1,21.62-22.76,35.99
	c-1.16,25.24,32.96,43.11,29.87,68.2c-3.41,27.64-49.02,38.12-48.34,65.95c0.3,12.31,10.11,22.13,18.62,31.29
	c8.51,9.17,16.79,21.06,13.28,32.9c-5.21,17.6-33.36,23.87-33.93,42.17c-0.49,15.83,21.1,25.99,21,41.83
	c-0.05,7.46-5.01,13.92-7.96,20.81c-6.16,14.35-3.39,31.33,4.81,44.68c8.2,13.36,21.28,23.4,35.46,30.74
	c11.23,5.81,24.38,11.15,29.19,22.55c5.43,12.88-2.62,27.49-12.82,37.3c-22.07,21.25-57.88,30.28-85.83,16.94
	c-27.94-13.34-41.82-51.2-24.44-76.18c10.78-15.49,38.2-26.34,41.42-46.06c1.52-9.29-6.09-16.55-10.56-24.03
	c-5.23-8.76-8.95-18.53-7.64-28.79c1.27-9.89,6.93-18.65,10.98-27.82c4.05-9.17,6.38-20.18,1.15-28.77
	c-4.48-7.37-13.58-11.34-17.74-18.88c-5.23-9.48-1-21.11,3.98-30.72c5.35-10.32,11.59-20.36,14.7-31.5s2.61-23.94-4.65-33.11
	c-6.05-7.63-15.82-11.68-22.6-18.72c-12.03-12.52-11.46-34.35,1.22-46.27c12.44-11.69,34.13-14.7,40.33-30.35
	c4.9-12.37-2.83-25.61-7.93-37.9c-7.5-18.06-8.25-41.47,6.94-54.26c8.28-6.97,20.83-10.55,24.27-20.62
	c3.97-11.6-6.93-22.43-11.96-33.64c-5.69-12.68-2.68-29.42,9.16-37.18C1220.94,62.94,1240.54,68.6,1243.53,82.11z"/>
<g>
	<path d="M1241.09,642.01c-11.65-0.72-22.56-5.46-33.75-8.67c-12.79-3.68-26.17-5.4-39.51-5.09c-12.37,0.29-25,2.42-35.66,8.49
		c-0.44,0.25-0.87,0.52-1.29,0.78c-3.35,22.44,9.86,47.62,31.58,57.99c27.94,13.34,63.76,4.31,85.83-16.94
		c10.2-9.82,18.25-24.43,12.82-37.3c-0.28-0.66-0.59-1.3-0.93-1.92C1254.08,641.44,1247.56,642.42,1241.09,642.01z"/>
	<path d="M1179.5,572.65c-0.02,0.2-0.03,0.4-0.06,0.61c-3.22,19.72-30.64,30.57-41.42,46.06c-3.87,5.56-6.18,11.76-7.14,18.19
		c0.43-0.26,0.86-0.53,1.29-0.78c10.67-6.06,23.29-8.2,35.66-8.49c13.34-0.31,26.72,1.42,39.51,5.09
		c11.19,3.22,22.1,7.95,33.75,8.67c6.47,0.4,12.99-0.57,19.09-2.67c-5.41-10.09-17.68-15.15-28.26-20.63
		c-14.18-7.33-27.26-17.38-35.46-30.74c-3.32-5.41-5.73-11.41-7.03-17.59c-3.01,1.79-6.45,2.94-9.94,2.79
		C1179.5,573,1179.49,572.83,1179.5,572.65z"/>
	<path d="M1165.41,521.6c-1.89,0.46-3.69,1.03-5.42,1.69c-0.73,9.61,3.04,18.75,8.24,27c4.42,7.02,11.73,13.87,11.27,22.38
		c0.02-0.17,0.04-0.35,0.05-0.52c3.39,0.15,6.72-1.06,9.63-2.91c0.07,0.39,0.16,0.77,0.25,1.16c0.07-0.04,0.14-0.08,0.2-0.12
		c-1.73-8.73-1.1-17.76,2.6-25.94c2.93-6.47,7.71-12.56,8.33-19.45c-0.93-0.37-1.87-0.72-2.83-1.06
		C1187.68,520.34,1175.94,519.03,1165.41,521.6z"/>
	<path d="M1179.55,572.14c-0.01,0.17-0.04,0.35-0.05,0.52c-0.01,0.18,0,0.35-0.02,0.52c3.5,0.15,6.93-1.01,9.94-2.79
		c-0.08-0.39-0.17-0.77-0.25-1.16C1186.28,571.08,1182.94,572.29,1179.55,572.14z"/>
	<path d="M1154.11,428.26c-1.35,5.76-1.32,11.56,1.53,16.72c4.16,7.54,13.26,11.51,17.74,18.88c0.14,0.24,0.26,0.48,0.39,0.72
		c-0.15-0.33-0.28-0.65-0.44-0.98c4.95,0.81,9.98,0.98,14.89,0.34c8.84-7.86,21.06-14.44,24.33-25.45
		c3.11-10.48-3.04-21.01-10.4-29.65C1184.09,406.39,1165.44,414.62,1154.11,428.26z"/>
	<path d="M1185.22,466.8c-3.39,0.85-6.92,0.79-10.37,0.06c-0.31-0.78-0.68-1.54-1.09-2.29c4.67,10.3,0.99,22.34-4.88,32.61
		c-5.69,9.96-13.27,19.56-16.87,29.95c2.52-1.46,5.15-2.77,7.98-3.85c0.05-0.6,0.1-1.19,0.19-1.79c0.22-1.64,0.58-3.25,1.03-4.84
		c2.54-1.81,5.27-3.32,8.37-4.25c6.58-1.97,13.92-0.96,20.2,1.71c3.85,1.64,7.35,3.86,10.59,6.39c0.17,0.99,0.27,1.99,0.26,3.03
		c0,0.46-0.03,0.91-0.07,1.36c5.06,2,9.73,4.49,14.11,7.27c-4.01-18.46-35.78-31.29-35.01-50.58c0.29-7.16,4.78-12.9,11.15-18.06
		c-0.86,0.17-1.73,0.3-2.6,0.41C1187.16,464.86,1186.15,465.82,1185.22,466.8z"/>
	<path d="M1173.32,463.59c0.16,0.32,0.29,0.65,0.44,0.98c0.41,0.75,0.78,1.51,1.09,2.29c3.45,0.73,6.97,0.79,10.37-0.06
		c0.94-0.98,1.94-1.93,3-2.87C1183.3,464.57,1178.27,464.4,1173.32,463.59z"/>
	<path d="M1200.36,520.5c-3.24-2.52-6.74-4.75-10.59-6.39c-6.28-2.67-13.62-3.68-20.2-1.71c-3.11,0.93-5.84,2.43-8.37,4.25
		c-0.45,1.59-0.81,3.2-1.03,4.84c-0.08,0.6-0.14,1.2-0.19,1.79c1.73-0.66,3.53-1.23,5.42-1.69c10.53-2.56,22.27-1.25,32.32,2.23
		c0.96,0.33,1.9,0.69,2.83,1.06c0.04-0.45,0.06-0.9,0.07-1.36C1200.63,522.49,1200.54,521.49,1200.36,520.5z"/>
</g>
<path d="M1382.5,53.79c-3.18,1.09-12.94,4.57-19.45,14.6c-1.45,2.23-6.98,10.73-5.4,20.86c0.79,5.1,3.41,10,8.64,19.82
	c2.67,5.01,4.3,7.41,4.32,11.47c0.04,6.17-3.64,10.67-4.32,11.47c-2.72,3.22-5.19,3.83-11.88,7.3c-5.39,2.79-10.38,5.38-14.05,8.34
	c-6.73,5.45-9.21,12.35-11.88,19.82c-3.07,8.55-6.01,16.76-3.24,26.07c2.19,7.36,7.5,13.93,9.72,16.69c3.08,3.81,4.8,5.01,7.56,9.39
	c2.05,3.24,4.42,7.08,5.4,12.52c0.62,3.42,1.57,8.74-1.08,13.56c-1.9,3.45-4.16,3.94-12.97,9.39c-3.31,2.05-9.69,6-15.13,10.43
	c-4.12,3.36-9.05,7.38-12.97,13.56c-6.51,10.28-6.49,20.69-6.48,26.07c0.01,4.67,0.15,15,6.48,26.07
	c2.61,4.57,6.37,11.14,14.05,15.64c5.71,3.35,8.41,2.51,11.88,6.26c5.85,6.3,4.52,15.47,4.32,16.69
	c-1.02,6.34-4.69,10.52-6.48,12.52c-3.5,3.88-5.05,3.44-10.8,8.34c-2.65,2.26-6.44,5.49-9.72,10.43
	c-3.54,5.34-4.77,10.06-6.48,16.69c-1.73,6.69-2.6,10.04-2.16,14.6c0.7,7.28,4.01,12.48,5.4,14.6c2.23,3.42,4.73,5.75,9.72,10.43
	c4.58,4.29,6.99,5.85,10.8,10.43c2,2.4,3.21,3.88,4.32,6.26c1.76,3.78,1.93,6.96,2.16,11.47c0.27,5.24,0.41,7.86-1.08,10.43
	c-1.19,2.05-1.84,1.55-5.4,5.21c-0.9,0.93-3.77,3.95-6.48,8.34c-1.37,2.22-2.39,3.87-3.24,6.26c-2.02,5.66-1.36,10.6-1.08,12.52
	c0.8,5.56,3.1,9.44,4.32,11.47c0.69,1.15,2.62,3.55,6.48,8.34c3.78,4.7,4.66,5.57,5.4,6.26c2.73,2.52,6.48,5.21,6.48,5.21
	c0,0,2.17,6.23,2.16,12.52c-0.01,3.86-0.02,6.97-2.16,9.39c-2.36,2.65-4.93,1.78-9.72,4.17c-1.51,0.75-2.95,1.68-8.64,7.3
	c-6.1,6.02-9.14,9.03-11.88,12.52c-5.07,6.46-7.91,12.03-9.72,15.64c-3.15,6.27-6.89,13.72-8.64,23.99
	c-0.44,2.59-2.57,15.92,2.16,32.33c2.54,8.82,5.94,14.62,10.8,22.95c5.82,9.94,9.23,15.65,16.21,20.86
	c5.25,3.92,9.95,5.65,17.29,8.34c5.31,1.95,14.1,5.18,24.85,6.26c5.47,0.55,23.35,2.11,42.14-7.3
	c18.15-9.09,26.86-23.28,32.41-32.33c4.01-6.54,9.58-15.81,11.88-29.2c1.2-6.96,4.09-30.02-10.8-52.15
	c-2.23-3.31-11.28-16.6-27.01-23.99c-15.73-7.39-23.6-11.09-25.93-11.47c-1.63-0.27-6.04-0.89-8.64-4.17
	c-1.84-2.31-1.98-4.94-2.16-8.34c-0.13-2.43-0.4-7.45,2.16-12.52c2.18-4.3,4.58-5.04,7.56-8.34c8.86-9.83,6.73-24.51,6.48-26.07
	c-0.67-4.21-2.03-12.71-8.64-17.73c-2.98-2.26-6.04-3.07-9.72-7.3c-1.29-1.48-3.23-3.76-4.32-7.3c-0.21-0.7-1.62-5.47,0-10.43
	c1.81-5.53,6.35-8.13,10.8-11.47c3.26-2.44,13.63-10.21,18.37-19.82c5.04-10.22,2.92-20.93,1.08-30.25
	c-1.3-6.59-2.32-11.71-6.48-16.69c-3.6-4.31-10.04-9.06-11.88-10.43c-4.23-3.13-5.74-3.71-7.56-6.26
	c-3.64-5.08-3.31-10.62-3.24-11.47c0.43-5.66,3.62-9.42,5.4-11.47c5.63-6.47,11.84-7.67,17.29-10.43
	c17.08-8.65,21.98-30.26,22.69-33.37c0.94-4.15,4.03-20.11-4.32-35.46c-6.39-11.75-16.21-18.77-16.21-18.77
	c-4.96-3.55-7.19-3.76-9.72-7.3c-4.68-6.55-4.95-16.84,0-22.95c2.42-2.99,4.58-3.1,10.8-6.26c8.11-4.11,15.37-9.45,19.45-13.56
	c11.02-11.1,11.79-26.34,11.88-29.2c0.09-2.75,0.53-23.98-12.97-33.37c-4.12-2.87-7.5-3.21-9.72-7.3
	c-2.97-5.44-1.33-12.83,2.16-17.73c3.33-4.67,6.38-4.32,11.88-8.34c0.81-0.59,14.42-10.85,15.13-27.12
	c0.45-10.42-4.61-18.1-6.48-20.86c-2.01-2.96-6.81-9.82-16.21-13.56C1396.7,49.12,1386,52.59,1382.5,53.79z M1414.79,82.11
	c4.54,20.43-26.43,36.31-22.24,56.81c2.09,10.2,12.43,17.07,15.82,26.94c4.7,13.65-5.07,27.79-15.26,38.29s-22.1,21.62-22.76,35.99
	c-1.16,25.24,32.97,43.11,29.87,68.2c-3.41,27.64-49.02,38.12-48.34,65.95c0.3,12.31,10.11,22.13,18.62,31.29
	s16.79,21.06,13.28,32.9c-5.21,17.6-33.36,23.87-33.93,42.17c-0.49,15.83,21.1,25.99,21,41.83c-0.05,7.46-5.01,13.92-7.96,20.81
	c-6.16,14.35-3.39,31.33,4.81,44.68c8.2,13.36,21.28,23.4,35.46,30.74c11.23,5.81,24.38,11.15,29.19,22.55
	c5.43,12.88-2.62,27.49-12.82,37.3c-22.07,21.25-57.88,30.28-85.83,16.94c-27.94-13.34-41.82-51.2-24.44-76.18
	c10.77-15.49,38.2-26.34,41.42-46.06c1.52-9.29-6.09-16.55-10.56-24.03c-5.23-8.76-8.95-18.53-7.64-28.79
	c1.27-9.89,6.94-18.65,10.98-27.82c4.05-9.17,6.38-20.18,1.15-28.77c-4.48-7.37-13.58-11.34-17.74-18.88
	c-5.23-9.48-1-21.11,3.98-30.72c5.35-10.32,11.59-20.36,14.7-31.5c3.11-11.14,2.61-23.94-4.65-33.11
	c-6.05-7.63-15.82-11.68-22.6-18.72c-12.03-12.52-11.46-34.35,1.22-46.27c12.44-11.69,34.13-14.7,40.33-30.35
	c4.9-12.37-2.83-25.61-7.93-37.9c-7.5-18.06-8.25-41.47,6.94-54.26c8.28-6.97,20.83-10.55,24.27-20.62
	c3.97-11.6-6.93-22.43-11.96-33.64c-5.69-12.68-2.68-29.42,9.16-37.18C1392.2,62.94,1411.79,68.6,1414.79,82.11z"/>
<g>
	<path d="M1412.35,642.01c-11.65-0.72-22.56-5.46-33.75-8.67c-12.79-3.68-26.17-5.4-39.51-5.09c-12.37,0.29-25,2.42-35.66,8.49
		c-0.44,0.25-0.86,0.52-1.29,0.78c-3.35,22.44,9.86,47.62,31.58,57.99c27.94,13.34,63.76,4.31,85.83-16.94
		c10.2-9.82,18.25-24.43,12.82-37.3c-0.28-0.66-0.59-1.3-0.93-1.92C1425.34,641.44,1418.82,642.42,1412.35,642.01z"/>
	<path d="M1350.76,572.65c-0.02,0.2-0.03,0.4-0.06,0.61c-3.22,19.72-30.64,30.57-41.42,46.06c-3.87,5.56-6.18,11.76-7.14,18.19
		c0.43-0.26,0.86-0.53,1.29-0.78c10.67-6.06,23.29-8.2,35.66-8.49c13.34-0.31,26.72,1.42,39.51,5.09
		c11.19,3.22,22.1,7.95,33.75,8.67c6.47,0.4,12.99-0.57,19.09-2.67c-5.41-10.09-17.68-15.15-28.26-20.63
		c-14.18-7.33-27.26-17.38-35.46-30.74c-3.32-5.41-5.73-11.41-7.03-17.59c-3.01,1.79-6.45,2.94-9.94,2.79
		C1350.76,573,1350.75,572.83,1350.76,572.65z"/>
	<path d="M1336.66,521.6c-1.89,0.46-3.69,1.03-5.42,1.69c-0.73,9.61,3.04,18.75,8.24,27c4.42,7.02,11.73,13.87,11.27,22.38
		c0.02-0.17,0.04-0.35,0.05-0.52c3.39,0.15,6.72-1.06,9.63-2.91c0.07,0.39,0.16,0.77,0.25,1.16c0.07-0.04,0.14-0.08,0.2-0.12
		c-1.73-8.73-1.1-17.76,2.6-25.94c2.93-6.47,7.71-12.56,8.33-19.45c-0.93-0.37-1.87-0.72-2.83-1.06
		C1358.94,520.34,1347.2,519.03,1336.66,521.6z"/>
	<path d="M1350.81,572.14c-0.01,0.17-0.04,0.35-0.05,0.52c-0.01,0.18,0,0.35-0.02,0.52c3.5,0.15,6.93-1.01,9.94-2.79
		c-0.08-0.39-0.17-0.77-0.25-1.16C1357.53,571.08,1354.2,572.29,1350.81,572.14z"/>
	<path d="M1356.48,466.8c-3.39,0.85-6.92,0.79-10.37,0.06c-0.31-0.78-0.68-1.54-1.09-2.29c4.67,10.3,0.99,22.34-4.88,32.61
		c-5.69,9.96-13.27,19.56-16.87,29.95c2.52-1.46,5.15-2.77,7.98-3.85c0.05-0.6,0.1-1.19,0.19-1.79c0.22-1.64,0.58-3.25,1.03-4.84
		c2.54-1.81,5.27-3.32,8.37-4.25c6.58-1.97,13.92-0.96,20.2,1.71c3.85,1.64,7.35,3.86,10.59,6.39c0.17,0.99,0.27,1.99,0.26,3.03
		c0,0.46-0.03,0.91-0.07,1.36c5.06,2,9.73,4.49,14.11,7.27c-4.01-18.46-35.78-31.29-35.01-50.58c0.29-7.16,4.78-12.9,11.15-18.06
		c-0.86,0.17-1.73,0.3-2.6,0.41C1358.42,464.86,1357.41,465.82,1356.48,466.8z"/>
	<path d="M1344.58,463.59c0.16,0.32,0.29,0.65,0.44,0.98c0.41,0.75,0.78,1.51,1.09,2.29c3.45,0.73,6.97,0.79,10.37-0.06
		c0.94-0.98,1.94-1.93,3-2.87C1354.56,464.57,1349.53,464.4,1344.58,463.59z"/>
	<path d="M1371.62,520.5c-3.24-2.52-6.74-4.75-10.59-6.39c-6.28-2.67-13.62-3.68-20.2-1.71c-3.11,0.93-5.84,2.43-8.37,4.25
		c-0.45,1.59-0.81,3.2-1.03,4.84c-0.08,0.6-0.14,1.2-0.19,1.79c1.73-0.66,3.53-1.23,5.42-1.69c10.53-2.56,22.27-1.25,32.32,2.23
		c0.96,0.33,1.9,0.69,2.83,1.06c0.04-0.45,0.06-0.9,0.07-1.36C1371.89,522.49,1371.8,521.49,1371.62,520.5z"/>
</g>
<path d="M1553.76,53.79c-3.18,1.09-12.94,4.57-19.45,14.6c-1.45,2.23-6.98,10.73-5.4,20.86c0.79,5.1,3.41,10,8.64,19.82
	c2.67,5.01,4.3,7.41,4.32,11.47c0.04,6.17-3.64,10.67-4.32,11.47c-2.72,3.22-5.19,3.83-11.88,7.3c-5.39,2.79-10.38,5.38-14.05,8.34
	c-6.73,5.45-9.21,12.35-11.88,19.82c-3.07,8.55-6.01,16.76-3.24,26.07c2.19,7.36,7.5,13.93,9.72,16.69c3.08,3.81,4.8,5.01,7.56,9.39
	c2.05,3.24,4.42,7.08,5.4,12.52c0.62,3.42,1.57,8.74-1.08,13.56c-1.9,3.45-4.16,3.94-12.97,9.39c-3.31,2.05-9.69,6-15.13,10.43
	c-4.12,3.36-9.05,7.38-12.97,13.56c-6.51,10.28-6.49,20.69-6.48,26.07c0.01,4.67,0.15,15,6.48,26.07
	c2.61,4.57,6.37,11.14,14.05,15.64c5.71,3.35,8.41,2.51,11.88,6.26c5.85,6.3,4.52,15.47,4.32,16.69
	c-1.02,6.34-4.69,10.52-6.48,12.52c-3.5,3.88-5.05,3.44-10.8,8.34c-2.65,2.26-6.44,5.49-9.72,10.43
	c-3.55,5.34-4.77,10.06-6.48,16.69c-1.73,6.69-2.6,10.04-2.16,14.6c0.7,7.28,4.01,12.48,5.4,14.6c2.23,3.42,4.73,5.75,9.72,10.43
	c4.58,4.29,6.99,5.85,10.8,10.43c2,2.4,3.21,3.88,4.32,6.26c1.76,3.78,1.93,6.96,2.16,11.47c0.27,5.24,0.41,7.86-1.08,10.43
	c-1.19,2.05-1.84,1.55-5.4,5.21c-0.9,0.93-3.77,3.95-6.48,8.34c-1.37,2.22-2.39,3.87-3.24,6.26c-2.02,5.66-1.36,10.6-1.08,12.52
	c0.8,5.56,3.1,9.44,4.32,11.47c0.69,1.15,2.62,3.55,6.48,8.34c3.78,4.7,4.66,5.57,5.4,6.26c2.73,2.52,6.48,5.21,6.48,5.21
	c0,0,2.17,6.23,2.16,12.52c-0.01,3.86-0.02,6.97-2.16,9.39c-2.36,2.65-4.93,1.78-9.72,4.17c-1.51,0.75-2.95,1.68-8.64,7.3
	c-6.1,6.02-9.14,9.03-11.88,12.52c-5.07,6.46-7.91,12.03-9.72,15.64c-3.15,6.27-6.89,13.72-8.64,23.99
	c-0.44,2.59-2.57,15.92,2.16,32.33c2.54,8.82,5.94,14.62,10.8,22.95c5.82,9.94,9.23,15.65,16.21,20.86
	c5.25,3.92,9.95,5.65,17.29,8.34c5.31,1.95,14.1,5.18,24.85,6.26c5.47,0.55,23.35,2.11,42.14-7.3
	c18.15-9.09,26.86-23.28,32.41-32.33c4.01-6.54,9.58-15.81,11.88-29.2c1.2-6.96,4.09-30.02-10.8-52.15
	c-2.23-3.31-11.28-16.6-27.01-23.99c-15.73-7.39-23.6-11.09-25.93-11.47c-1.63-0.27-6.04-0.89-8.64-4.17
	c-1.83-2.31-1.98-4.94-2.16-8.34c-0.13-2.43-0.4-7.45,2.16-12.52c2.18-4.3,4.58-5.04,7.56-8.34c8.86-9.83,6.73-24.51,6.48-26.07
	c-0.67-4.21-2.03-12.71-8.64-17.73c-2.98-2.26-6.04-3.07-9.72-7.3c-1.29-1.48-3.23-3.76-4.32-7.3c-0.21-0.7-1.62-5.47,0-10.43
	c1.81-5.53,6.35-8.13,10.8-11.47c3.26-2.44,13.63-10.21,18.37-19.82c5.04-10.22,2.92-20.93,1.08-30.25
	c-1.3-6.59-2.32-11.71-6.48-16.69c-3.6-4.31-10.04-9.06-11.88-10.43c-4.23-3.13-5.74-3.71-7.56-6.26
	c-3.64-5.08-3.31-10.62-3.24-11.47c0.43-5.66,3.62-9.42,5.4-11.47c5.63-6.47,11.84-7.67,17.29-10.43
	c17.08-8.65,21.98-30.26,22.69-33.37c0.94-4.15,4.03-20.11-4.32-35.46c-6.39-11.75-16.21-18.77-16.21-18.77
	c-4.96-3.55-7.19-3.76-9.72-7.3c-4.68-6.55-4.95-16.84,0-22.95c2.42-2.99,4.58-3.1,10.8-6.26c8.11-4.11,15.37-9.45,19.45-13.56
	c11.02-11.1,11.79-26.34,11.88-29.2c0.09-2.75,0.53-23.98-12.97-33.37c-4.12-2.87-7.5-3.21-9.72-7.3
	c-2.97-5.44-1.33-12.83,2.16-17.73c3.33-4.67,6.38-4.32,11.88-8.34c0.81-0.59,14.42-10.85,15.13-27.12
	c0.45-10.42-4.61-18.1-6.48-20.86c-2.01-2.96-6.81-9.82-16.21-13.56C1567.95,49.12,1557.26,52.59,1553.76,53.79z M1586.05,82.11
	c4.54,20.43-26.43,36.31-22.24,56.81c2.09,10.2,12.43,17.07,15.82,26.94c4.7,13.65-5.07,27.79-15.26,38.29s-22.1,21.62-22.76,35.99
	c-1.16,25.24,32.96,43.11,29.87,68.2c-3.41,27.64-49.02,38.12-48.34,65.95c0.3,12.31,10.11,22.13,18.62,31.29
	c8.51,9.17,16.79,21.06,13.28,32.9c-5.21,17.6-33.36,23.87-33.93,42.17c-0.49,15.83,21.1,25.99,21,41.83
	c-0.05,7.46-5.01,13.92-7.96,20.81c-6.16,14.35-3.39,31.33,4.81,44.68c8.2,13.36,21.28,23.4,35.46,30.74
	c11.23,5.81,24.38,11.15,29.19,22.55c5.43,12.88-2.62,27.49-12.82,37.3c-22.07,21.25-57.88,30.28-85.83,16.94
	c-27.94-13.34-41.82-51.2-24.44-76.18c10.77-15.49,38.2-26.34,41.42-46.06c1.52-9.29-6.09-16.55-10.56-24.03
	c-5.23-8.76-8.95-18.53-7.64-28.79c1.27-9.89,6.93-18.65,10.98-27.82c4.05-9.17,6.38-20.18,1.15-28.77
	c-4.48-7.37-13.58-11.34-17.74-18.88c-5.23-9.48-1-21.11,3.98-30.72c5.35-10.32,11.59-20.36,14.7-31.5s2.61-23.94-4.65-33.11
	c-6.05-7.63-15.82-11.68-22.6-18.72c-12.03-12.52-11.46-34.35,1.22-46.27c12.44-11.69,34.13-14.7,40.33-30.35
	c4.9-12.37-2.83-25.61-7.93-37.9c-7.5-18.06-8.25-41.47,6.94-54.26c8.28-6.97,20.83-10.55,24.27-20.62
	c3.97-11.6-6.93-22.43-11.96-33.64c-5.69-12.68-2.68-29.42,9.16-37.18C1563.46,62.94,1583.05,68.6,1586.05,82.11z"/>
<g>
	<path d="M1583.61,642.01c-11.65-0.72-22.56-5.46-33.75-8.67c-12.79-3.68-26.17-5.4-39.51-5.09c-12.37,0.29-25,2.42-35.66,8.49
		c-0.44,0.25-0.86,0.52-1.29,0.78c-3.35,22.44,9.86,47.62,31.58,57.99c27.94,13.34,63.76,4.31,85.83-16.94
		c10.2-9.82,18.25-24.43,12.82-37.3c-0.28-0.66-0.59-1.3-0.93-1.92C1596.59,641.44,1590.08,642.42,1583.61,642.01z"/>
	<path d="M1522.01,572.65c-0.02,0.2-0.03,0.4-0.06,0.61c-3.22,19.72-30.64,30.57-41.42,46.06c-3.87,5.56-6.18,11.76-7.14,18.19
		c0.43-0.26,0.86-0.53,1.29-0.78c10.67-6.06,23.29-8.2,35.66-8.49c13.34-0.31,26.72,1.42,39.51,5.09
		c11.19,3.22,22.1,7.95,33.75,8.67c6.47,0.4,12.99-0.57,19.09-2.67c-5.41-10.09-17.68-15.15-28.26-20.63
		c-14.18-7.33-27.26-17.38-35.46-30.74c-3.32-5.41-5.73-11.41-7.03-17.59c-3.01,1.79-6.45,2.94-9.94,2.79
		C1522.01,573,1522.01,572.83,1522.01,572.65z"/>
	<path d="M1507.92,521.6c-1.89,0.46-3.69,1.03-5.42,1.69c-0.73,9.61,3.04,18.75,8.24,27c4.42,7.02,11.73,13.87,11.27,22.38
		c0.02-0.17,0.04-0.35,0.05-0.52c3.39,0.15,6.72-1.06,9.63-2.91c0.07,0.39,0.16,0.77,0.25,1.16c0.07-0.04,0.14-0.08,0.2-0.12
		c-1.73-8.73-1.1-17.76,2.6-25.94c2.93-6.47,7.71-12.56,8.33-19.45c-0.93-0.37-1.87-0.72-2.83-1.06
		C1530.2,520.34,1518.45,519.03,1507.92,521.6z"/>
	<path d="M1522.07,572.14c-0.01,0.17-0.04,0.35-0.05,0.52c-0.01,0.18,0,0.35-0.02,0.52c3.5,0.15,6.93-1.01,9.94-2.79
		c-0.08-0.39-0.17-0.77-0.25-1.16C1528.79,571.08,1525.46,572.29,1522.07,572.14z"/>
	<path d="M1542.88,520.5c-3.24-2.52-6.74-4.75-10.59-6.39c-6.28-2.67-13.62-3.68-20.2-1.71c-3.11,0.93-5.84,2.43-8.37,4.25
		c-0.45,1.59-0.81,3.2-1.03,4.84c-0.08,0.6-0.14,1.2-0.19,1.79c1.73-0.66,3.53-1.23,5.42-1.69c10.53-2.56,22.28-1.25,32.32,2.23
		c0.96,0.33,1.9,0.69,2.83,1.06c0.04-0.45,0.06-0.9,0.07-1.36C1543.15,522.49,1543.05,521.49,1542.88,520.5z"/>
</g>
<path d="M1729.72,53.79c-3.18,1.09-12.94,4.57-19.45,14.6c-1.45,2.23-6.98,10.73-5.4,20.86c0.79,5.1,3.41,10,8.64,19.82
	c2.67,5.01,4.3,7.41,4.32,11.47c0.04,6.17-3.64,10.67-4.32,11.47c-2.72,3.22-5.19,3.83-11.88,7.3c-5.39,2.79-10.38,5.38-14.05,8.34
	c-6.73,5.45-9.21,12.35-11.88,19.82c-3.07,8.55-6.01,16.76-3.24,26.07c2.19,7.36,7.5,13.93,9.72,16.69c3.08,3.81,4.8,5.01,7.56,9.39
	c2.05,3.24,4.42,7.08,5.4,12.52c0.62,3.42,1.57,8.74-1.08,13.56c-1.9,3.45-4.16,3.94-12.97,9.39c-3.31,2.05-9.69,6-15.13,10.43
	c-4.12,3.36-9.05,7.38-12.97,13.56c-6.51,10.28-6.49,20.69-6.48,26.07c0.01,4.67,0.15,15,6.48,26.07
	c2.61,4.57,6.37,11.14,14.05,15.64c5.71,3.35,8.41,2.51,11.88,6.26c5.85,6.3,4.52,15.47,4.32,16.69
	c-1.02,6.34-4.69,10.52-6.48,12.52c-3.5,3.88-5.05,3.44-10.8,8.34c-2.65,2.26-6.44,5.49-9.72,10.43
	c-3.55,5.34-4.77,10.06-6.48,16.69c-1.73,6.69-2.6,10.04-2.16,14.6c0.7,7.28,4.01,12.48,5.4,14.6c2.23,3.42,4.73,5.75,9.72,10.43
	c4.58,4.29,6.99,5.85,10.8,10.43c2,2.4,3.21,3.88,4.32,6.26c1.76,3.78,1.93,6.96,2.16,11.47c0.27,5.24,0.41,7.86-1.08,10.43
	c-1.19,2.05-1.84,1.55-5.4,5.21c-0.9,0.93-3.77,3.95-6.48,8.34c-1.37,2.22-2.39,3.87-3.24,6.26c-2.02,5.66-1.36,10.6-1.08,12.52
	c0.8,5.56,3.1,9.44,4.32,11.47c0.69,1.15,2.62,3.55,6.48,8.34c3.78,4.7,4.66,5.57,5.4,6.26c2.73,2.52,6.48,5.21,6.48,5.21
	c0,0,2.17,6.23,2.16,12.52c-0.01,3.86-0.02,6.97-2.16,9.39c-2.36,2.65-4.93,1.78-9.72,4.17c-1.51,0.75-2.95,1.68-8.64,7.3
	c-6.1,6.02-9.14,9.03-11.88,12.52c-5.07,6.46-7.91,12.03-9.72,15.64c-3.15,6.27-6.89,13.72-8.64,23.99
	c-0.44,2.59-2.57,15.92,2.16,32.33c2.54,8.82,5.94,14.62,10.8,22.95c5.82,9.94,9.23,15.65,16.21,20.86
	c5.25,3.92,9.95,5.65,17.29,8.34c5.31,1.95,14.1,5.18,24.85,6.26c5.47,0.55,23.35,2.11,42.14-7.3
	c18.15-9.09,26.86-23.28,32.41-32.33c4.01-6.54,9.58-15.81,11.88-29.2c1.2-6.96,4.09-30.02-10.8-52.15
	c-2.23-3.31-11.28-16.6-27.01-23.99c-15.73-7.39-23.6-11.09-25.93-11.47c-1.63-0.27-6.04-0.89-8.64-4.17
	c-1.83-2.31-1.98-4.94-2.16-8.34c-0.13-2.43-0.4-7.45,2.16-12.52c2.18-4.3,4.58-5.04,7.56-8.34c8.86-9.83,6.73-24.51,6.48-26.07
	c-0.67-4.21-2.03-12.71-8.64-17.73c-2.98-2.26-6.04-3.07-9.72-7.3c-1.29-1.48-3.23-3.76-4.32-7.3c-0.21-0.7-1.62-5.47,0-10.43
	c1.81-5.53,6.35-8.13,10.8-11.47c3.26-2.44,13.63-10.21,18.37-19.82c5.04-10.22,2.92-20.93,1.08-30.25
	c-1.3-6.59-2.32-11.71-6.48-16.69c-3.6-4.31-10.04-9.06-11.88-10.43c-4.23-3.13-5.74-3.71-7.56-6.26
	c-3.64-5.08-3.31-10.62-3.24-11.47c0.43-5.66,3.62-9.42,5.4-11.47c5.63-6.47,11.84-7.67,17.29-10.43
	c17.08-8.65,21.98-30.26,22.69-33.37c0.94-4.15,4.03-20.11-4.32-35.46c-6.39-11.75-16.21-18.77-16.21-18.77
	c-4.96-3.55-7.19-3.76-9.72-7.3c-4.68-6.55-4.95-16.84,0-22.95c2.42-2.99,4.58-3.1,10.8-6.26c8.11-4.11,15.37-9.45,19.45-13.56
	c11.02-11.1,11.79-26.34,11.88-29.2c0.09-2.75,0.53-23.98-12.97-33.37c-4.12-2.87-7.5-3.21-9.72-7.3
	c-2.97-5.44-1.33-12.83,2.16-17.73c3.33-4.67,6.38-4.32,11.88-8.34c0.81-0.59,14.42-10.85,15.13-27.12
	c0.45-10.42-4.61-18.1-6.48-20.86c-2.01-2.96-6.81-9.82-16.21-13.56C1743.92,49.12,1733.22,52.59,1729.72,53.79z M1762.01,82.11
	c4.54,20.43-26.43,36.31-22.24,56.81c2.09,10.2,12.43,17.07,15.82,26.94c4.7,13.65-5.07,27.79-15.26,38.29s-22.1,21.62-22.76,35.99
	c-1.16,25.24,32.96,43.11,29.87,68.2c-3.41,27.64-49.02,38.12-48.34,65.95c0.3,12.31,10.11,22.13,18.62,31.29
	c8.51,9.17,16.79,21.06,13.28,32.9c-5.21,17.6-33.36,23.87-33.93,42.17c-0.49,15.83,21.1,25.99,21,41.83
	c-0.05,7.46-5.01,13.92-7.96,20.81c-6.16,14.35-3.39,31.33,4.81,44.68c8.2,13.36,21.28,23.4,35.46,30.74
	c11.23,5.81,24.38,11.15,29.19,22.55c5.43,12.88-2.62,27.49-12.82,37.3c-22.07,21.25-57.88,30.28-85.83,16.94
	c-27.94-13.34-41.82-51.2-24.44-76.18c10.77-15.49,38.2-26.34,41.42-46.06c1.52-9.29-6.09-16.55-10.56-24.03
	c-5.23-8.76-8.95-18.53-7.64-28.79c1.27-9.89,6.93-18.65,10.98-27.82c4.05-9.17,6.38-20.18,1.15-28.77
	c-4.48-7.37-13.58-11.34-17.74-18.88c-5.23-9.48-1-21.11,3.98-30.72c5.35-10.32,11.59-20.36,14.7-31.5s2.61-23.94-4.65-33.11
	c-6.05-7.63-15.82-11.68-22.6-18.72c-12.03-12.52-11.46-34.35,1.22-46.27c12.44-11.69,34.13-14.7,40.33-30.35
	c4.9-12.37-2.83-25.61-7.93-37.9c-7.5-18.06-8.25-41.47,6.94-54.26c8.28-6.97,20.83-10.55,24.27-20.62
	c3.97-11.6-6.93-22.43-11.96-33.64c-5.69-12.68-2.68-29.42,9.16-37.18C1739.42,62.94,1759.01,68.6,1762.01,82.11z"/>
<g>
	<path d="M1759.57,642.01c-11.65-0.72-22.56-5.46-33.75-8.67c-12.79-3.68-26.17-5.4-39.51-5.09c-12.37,0.29-25,2.42-35.66,8.49
		c-0.44,0.25-0.86,0.52-1.29,0.78c-3.35,22.44,9.86,47.62,31.58,57.99c27.94,13.34,63.76,4.31,85.83-16.94
		c10.2-9.82,18.25-24.43,12.82-37.3c-0.28-0.66-0.59-1.3-0.93-1.92C1772.56,641.44,1766.04,642.42,1759.57,642.01z"/>
	<path d="M1697.98,572.65c-0.02,0.2-0.03,0.4-0.06,0.61c-3.22,19.72-30.64,30.57-41.42,46.06c-3.87,5.56-6.18,11.76-7.14,18.19
		c0.43-0.26,0.86-0.53,1.29-0.78c10.67-6.06,23.29-8.2,35.66-8.49c13.34-0.31,26.72,1.42,39.51,5.09
		c11.19,3.22,22.1,7.95,33.75,8.67c6.47,0.4,12.99-0.57,19.09-2.67c-5.41-10.09-17.68-15.15-28.26-20.63
		c-14.18-7.33-27.26-17.38-35.46-30.74c-3.32-5.41-5.73-11.41-7.03-17.59c-3.01,1.79-6.45,2.94-9.94,2.79
		C1697.98,573,1697.97,572.83,1697.98,572.65z"/>
	<path d="M1698.03,572.14c-0.01,0.17-0.04,0.35-0.05,0.52c-0.01,0.18,0,0.35-0.02,0.52c3.5,0.15,6.93-1.01,9.94-2.79
		c-0.08-0.39-0.17-0.77-0.25-1.16C1704.76,571.08,1701.42,572.29,1698.03,572.14z"/>
</g>
<path d="M1905.69,53.79c-3.18,1.09-12.94,4.57-19.45,14.6c-1.45,2.23-6.98,10.73-5.4,20.86c0.79,5.1,3.41,10,8.64,19.82
	c2.67,5.01,4.3,7.41,4.32,11.47c0.04,6.17-3.64,10.67-4.32,11.47c-2.72,3.22-5.19,3.83-11.88,7.3c-5.39,2.79-10.38,5.38-14.05,8.34
	c-6.73,5.45-9.21,12.35-11.88,19.82c-3.07,8.55-6.01,16.76-3.24,26.07c2.19,7.36,7.5,13.93,9.72,16.69c3.08,3.81,4.8,5.01,7.56,9.39
	c2.05,3.24,4.42,7.08,5.4,12.52c0.62,3.42,1.57,8.74-1.08,13.56c-1.9,3.45-4.16,3.94-12.97,9.39c-3.31,2.05-9.69,6-15.13,10.43
	c-4.12,3.36-9.05,7.38-12.97,13.56c-6.51,10.28-6.49,20.69-6.48,26.07c0.01,4.67,0.15,15,6.48,26.07
	c2.61,4.57,6.37,11.14,14.05,15.64c5.71,3.35,8.41,2.51,11.88,6.26c5.85,6.3,4.52,15.47,4.32,16.69
	c-1.02,6.34-4.69,10.52-6.48,12.52c-3.5,3.88-5.05,3.44-10.8,8.34c-2.65,2.26-6.44,5.49-9.72,10.43
	c-3.55,5.34-4.77,10.06-6.48,16.69c-1.73,6.69-2.6,10.04-2.16,14.6c0.7,7.28,4.01,12.48,5.4,14.6c2.23,3.42,4.73,5.75,9.72,10.43
	c4.58,4.29,6.99,5.85,10.8,10.43c2,2.4,3.21,3.88,4.32,6.26c1.76,3.78,1.93,6.96,2.16,11.47c0.27,5.24,0.41,7.86-1.08,10.43
	c-1.19,2.05-1.84,1.55-5.4,5.21c-0.9,0.93-3.77,3.95-6.48,8.34c-1.37,2.22-2.39,3.87-3.24,6.26c-2.02,5.66-1.36,10.6-1.08,12.52
	c0.8,5.56,3.1,9.44,4.32,11.47c0.69,1.15,2.62,3.55,6.48,8.34c3.78,4.7,4.66,5.57,5.4,6.26c2.73,2.52,6.48,5.21,6.48,5.21
	c0,0,2.17,6.23,2.16,12.52c-0.01,3.86-0.02,6.97-2.16,9.39c-2.36,2.65-4.93,1.78-9.72,4.17c-1.51,0.75-2.95,1.68-8.64,7.3
	c-6.1,6.02-9.14,9.03-11.88,12.52c-5.07,6.46-7.91,12.03-9.72,15.64c-3.15,6.27-6.89,13.72-8.64,23.99
	c-0.44,2.59-2.57,15.92,2.16,32.33c2.54,8.82,5.94,14.62,10.8,22.95c5.82,9.94,9.23,15.65,16.21,20.86
	c5.25,3.92,9.95,5.65,17.29,8.34c5.31,1.95,14.1,5.18,24.85,6.26c5.47,0.55,23.35,2.11,42.14-7.3
	c18.15-9.09,26.86-23.28,32.41-32.33c4.01-6.54,9.58-15.81,11.88-29.2c1.2-6.96,4.09-30.02-10.8-52.15
	c-2.23-3.31-11.28-16.6-27.01-23.99c-15.73-7.39-23.6-11.09-25.93-11.47c-1.63-0.27-6.04-0.89-8.64-4.17
	c-1.83-2.31-1.98-4.94-2.16-8.34c-0.13-2.43-0.4-7.45,2.16-12.52c2.18-4.3,4.58-5.04,7.56-8.34c8.86-9.83,6.73-24.51,6.48-26.07
	c-0.67-4.21-2.03-12.71-8.64-17.73c-2.98-2.26-6.04-3.07-9.72-7.3c-1.29-1.48-3.23-3.76-4.32-7.3c-0.21-0.7-1.62-5.47,0-10.43
	c1.81-5.53,6.35-8.13,10.8-11.47c3.26-2.44,13.63-10.21,18.37-19.82c5.04-10.22,2.92-20.93,1.08-30.25
	c-1.3-6.59-2.32-11.71-6.48-16.69c-3.6-4.31-10.04-9.06-11.88-10.43c-4.23-3.13-5.74-3.71-7.56-6.26
	c-3.64-5.08-3.31-10.62-3.24-11.47c0.43-5.66,3.62-9.42,5.4-11.47c5.63-6.47,11.84-7.67,17.29-10.43
	c17.08-8.65,21.98-30.26,22.69-33.37c0.94-4.15,4.03-20.11-4.32-35.46c-6.39-11.75-16.21-18.77-16.21-18.77
	c-4.96-3.55-7.19-3.76-9.72-7.3c-4.68-6.55-4.95-16.84,0-22.95c2.42-2.99,4.58-3.1,10.8-6.26c8.11-4.11,15.37-9.45,19.45-13.56
	c11.02-11.1,11.79-26.34,11.88-29.2c0.09-2.75,0.53-23.98-12.97-33.37c-4.12-2.87-7.5-3.21-9.72-7.3
	c-2.97-5.44-1.33-12.83,2.16-17.73c3.33-4.67,6.38-4.32,11.88-8.34c0.81-0.59,14.42-10.85,15.13-27.12
	c0.45-10.42-4.61-18.1-6.48-20.86c-2.01-2.96-6.81-9.82-16.21-13.56C1919.88,49.12,1909.19,52.59,1905.69,53.79z M1937.98,82.11
	c4.54,20.43-26.43,36.31-22.24,56.81c2.09,10.2,12.43,17.07,15.82,26.94c4.7,13.65-5.07,27.79-15.26,38.29s-22.1,21.62-22.76,35.99
	c-1.16,25.24,32.96,43.11,29.87,68.2c-3.41,27.64-49.02,38.12-48.34,65.95c0.3,12.31,10.11,22.13,18.62,31.29
	c8.51,9.17,16.79,21.06,13.28,32.9c-5.21,17.6-33.36,23.87-33.93,42.17c-0.49,15.83,21.1,25.99,21,41.83
	c-0.05,7.46-5.01,13.92-7.96,20.81c-6.16,14.35-3.39,31.33,4.81,44.68c8.2,13.36,21.28,23.4,35.46,30.74
	c11.23,5.81,24.38,11.15,29.19,22.55c5.43,12.88-2.62,27.49-12.82,37.3c-22.07,21.25-57.88,30.28-85.83,16.94
	c-27.94-13.34-41.82-51.2-24.44-76.18c10.77-15.49,38.2-26.34,41.42-46.06c1.52-9.29-6.09-16.55-10.56-24.03
	c-5.23-8.76-8.95-18.53-7.64-28.79c1.27-9.89,6.93-18.65,10.98-27.82c4.05-9.17,6.38-20.18,1.15-28.77
	c-4.48-7.37-13.58-11.34-17.74-18.88c-5.23-9.48-1-21.11,3.98-30.72c5.35-10.32,11.59-20.36,14.7-31.5s2.61-23.94-4.65-33.11
	c-6.05-7.63-15.82-11.68-22.6-18.72c-12.03-12.52-11.46-34.35,1.22-46.27c12.44-11.69,34.13-14.7,40.33-30.35
	c4.9-12.37-2.83-25.61-7.93-37.9c-7.5-18.06-8.25-41.47,6.94-54.26c8.28-6.97,20.83-10.55,24.27-20.62
	c3.97-11.6-6.93-22.43-11.96-33.64c-5.69-12.68-2.68-29.42,9.16-37.18C1915.39,62.94,1934.98,68.6,1937.98,82.11z"/>
<g>
	<path d="M1935.54,642.01c-11.65-0.72-22.56-5.46-33.75-8.67c-12.79-3.68-26.17-5.4-39.51-5.09c-12.37,0.29-25,2.42-35.66,8.49
		c-0.44,0.25-0.86,0.52-1.29,0.78c-3.35,22.44,9.86,47.62,31.58,57.99c27.94,13.34,63.76,4.31,85.83-16.94
		c10.2-9.82,18.25-24.43,12.82-37.3c-0.28-0.66-0.59-1.3-0.93-1.92C1948.52,641.44,1942.01,642.42,1935.54,642.01z"/>
</g>
<path d="M2091.07,53.79c-3.19,1.09-12.94,4.57-19.45,14.6c-1.45,2.23-6.98,10.73-5.4,20.86c0.79,5.1,3.41,10,8.64,19.82
	c2.67,5.01,4.3,7.41,4.32,11.47c0.04,6.17-3.64,10.67-4.32,11.47c-2.72,3.22-5.19,3.83-11.88,7.3c-5.39,2.79-10.38,5.38-14.05,8.34
	c-6.73,5.45-9.21,12.35-11.88,19.82c-3.07,8.55-6.01,16.76-3.24,26.07c2.19,7.36,7.5,13.93,9.72,16.69
	c3.08,3.81,4.79,5.01,7.56,9.39c2.05,3.24,4.42,7.08,5.4,12.52c0.62,3.42,1.57,8.74-1.08,13.56c-1.9,3.45-4.16,3.94-12.97,9.39
	c-3.31,2.05-9.69,6-15.13,10.43c-4.12,3.36-9.05,7.38-12.97,13.56c-6.51,10.28-6.49,20.69-6.48,26.07c0.01,4.67,0.15,15,6.48,26.07
	c2.61,4.57,6.37,11.14,14.05,15.64c5.71,3.35,8.41,2.51,11.88,6.26c5.85,6.3,4.52,15.47,4.32,16.69
	c-1.02,6.34-4.69,10.52-6.48,12.52c-3.5,3.88-5.05,3.44-10.8,8.34c-2.65,2.26-6.44,5.49-9.72,10.43
	c-3.55,5.34-4.77,10.06-6.48,16.69c-1.73,6.69-2.6,10.04-2.16,14.6c0.7,7.28,4.01,12.48,5.4,14.6c2.23,3.42,4.73,5.75,9.72,10.43
	c4.58,4.29,6.99,5.85,10.8,10.43c2,2.4,3.21,3.88,4.32,6.26c1.76,3.78,1.93,6.96,2.16,11.47c0.27,5.24,0.41,7.86-1.08,10.43
	c-1.19,2.05-1.84,1.55-5.4,5.21c-0.9,0.93-3.77,3.95-6.48,8.34c-1.37,2.22-2.39,3.87-3.24,6.26c-2.02,5.66-1.36,10.6-1.08,12.52
	c0.81,5.56,3.1,9.44,4.32,11.47c0.69,1.15,2.62,3.55,6.48,8.34c3.78,4.7,4.66,5.57,5.4,6.26c2.73,2.52,6.48,5.21,6.48,5.21
	c0,0,2.17,6.23,2.16,12.52c-0.01,3.86-0.02,6.97-2.16,9.39c-2.36,2.65-4.93,1.78-9.72,4.17c-1.51,0.75-2.95,1.68-8.64,7.3
	c-6.1,6.02-9.14,9.03-11.88,12.52c-5.07,6.46-7.91,12.03-9.72,15.64c-3.15,6.27-6.89,13.72-8.64,23.99
	c-0.44,2.59-2.57,15.92,2.16,32.33c2.54,8.82,5.94,14.62,10.8,22.95c5.82,9.94,9.23,15.65,16.21,20.86
	c5.25,3.92,9.95,5.65,17.29,8.34c5.31,1.95,14.1,5.18,24.85,6.26c5.47,0.55,23.35,2.11,42.14-7.3
	c18.15-9.09,26.86-23.28,32.41-32.33c4.01-6.54,9.58-15.81,11.88-29.2c1.2-6.96,4.09-30.02-10.8-52.15
	c-2.23-3.31-11.28-16.6-27.01-23.99c-15.73-7.39-23.6-11.09-25.93-11.47c-1.63-0.27-6.04-0.89-8.64-4.17
	c-1.83-2.31-1.98-4.94-2.16-8.34c-0.13-2.43-0.4-7.45,2.16-12.52c2.18-4.3,4.58-5.04,7.56-8.34c8.86-9.83,6.73-24.51,6.48-26.07
	c-0.67-4.21-2.03-12.71-8.64-17.73c-2.98-2.26-6.04-3.07-9.72-7.3c-1.29-1.48-3.23-3.76-4.32-7.3c-0.21-0.7-1.62-5.47,0-10.43
	c1.81-5.53,6.35-8.13,10.8-11.47c3.26-2.44,13.63-10.21,18.37-19.82c5.04-10.22,2.92-20.93,1.08-30.25
	c-1.3-6.59-2.32-11.71-6.48-16.69c-3.6-4.31-10.04-9.06-11.88-10.43c-4.23-3.13-5.74-3.71-7.56-6.26
	c-3.64-5.08-3.31-10.62-3.24-11.47c0.43-5.66,3.62-9.42,5.4-11.47c5.63-6.47,11.84-7.67,17.29-10.43
	c17.08-8.65,21.98-30.26,22.69-33.37c0.94-4.15,4.03-20.11-4.32-35.46c-6.39-11.75-16.21-18.77-16.21-18.77
	c-4.96-3.55-7.19-3.76-9.72-7.3c-4.68-6.55-4.95-16.84,0-22.95c2.42-2.99,4.58-3.1,10.8-6.26c8.11-4.11,15.37-9.45,19.45-13.56
	c11.02-11.1,11.79-26.34,11.88-29.2c0.09-2.75,0.53-23.98-12.97-33.37c-4.12-2.87-7.5-3.21-9.72-7.3
	c-2.97-5.44-1.33-12.83,2.16-17.73c3.33-4.67,6.38-4.32,11.88-8.34c0.81-0.59,14.42-10.85,15.13-27.12
	c0.45-10.42-4.61-18.1-6.48-20.86c-2.01-2.96-6.81-9.82-16.21-13.56C2105.27,49.12,2094.57,52.59,2091.07,53.79z M2123.36,82.11
	c4.54,20.43-26.43,36.31-22.24,56.81c2.09,10.2,12.43,17.07,15.82,26.94c4.7,13.65-5.07,27.79-15.26,38.29
	c-10.18,10.5-22.1,21.62-22.76,35.99c-1.16,25.24,32.97,43.11,29.87,68.2c-3.41,27.64-49.02,38.12-48.34,65.95
	c0.3,12.31,10.11,22.13,18.62,31.29c8.51,9.17,16.79,21.06,13.28,32.9c-5.21,17.6-33.36,23.87-33.93,42.17
	c-0.49,15.83,21.1,25.99,21,41.83c-0.05,7.46-5.01,13.92-7.96,20.81c-6.16,14.35-3.39,31.33,4.81,44.68
	c8.2,13.36,21.28,23.4,35.46,30.74c11.23,5.81,24.38,11.15,29.19,22.55c5.43,12.88-2.62,27.49-12.82,37.3
	c-22.07,21.25-57.88,30.28-85.83,16.94c-27.94-13.34-41.82-51.2-24.44-76.18c10.77-15.49,38.2-26.34,41.42-46.06
	c1.52-9.29-6.09-16.55-10.56-24.03c-5.23-8.76-8.95-18.53-7.64-28.79c1.27-9.89,6.93-18.65,10.98-27.82
	c4.05-9.17,6.38-20.18,1.15-28.77c-4.48-7.37-13.58-11.34-17.74-18.88c-5.23-9.48-1-21.11,3.98-30.72
	c5.35-10.32,11.59-20.36,14.7-31.5s2.61-23.94-4.65-33.11c-6.05-7.63-15.82-11.68-22.6-18.72c-12.03-12.52-11.46-34.35,1.22-46.27
	c12.44-11.69,34.13-14.7,40.33-30.35c4.9-12.37-2.83-25.61-7.93-37.9c-7.5-18.06-8.25-41.47,6.94-54.26
	c8.28-6.97,20.83-10.55,24.27-20.62c3.97-11.6-6.93-22.43-11.96-33.64c-5.69-12.68-2.68-29.42,9.16-37.18
	C2100.77,62.94,2120.36,68.6,2123.36,82.11z"/>
</svg>
