<?xml version="1.0" encoding="utf-8"?>
<!-- Generator: Adobe Illustrator 25.4.1, SVG Export Plug-In . SVG Version: 6.00 Build 0)  -->
<svg version="1.1" id="Layer_1" xmlns="http://www.w3.org/2000/svg" xmlns:xlink="http://www.w3.org/1999/xlink" x="0px" y="0px"
	 viewBox="0 0 650 1500" style="enable-background:new 0 0 650 1500;" xml:space="preserve">
<style type="text/css">
	.st0{fill:#7F2C0B;}
	.st1{fill:none;}
	.st2{fill:#89BD7E;}
	.st3{fill:#3B742D;}
	.st4{fill:#A5A5A5;}
	.st5{fill:#050504;}
	.st6{fill:#89BD7E;stroke:#89BD7E;stroke-miterlimit:10;}
	.st7{fill:#D09034;}
	.st8{fill:#CBCCCC;}
	.st9{fill:#F8F8F2;}
	.st10{fill:#CEED1A;}
</style>
<g>
	<path class="st0" d="M178.78,1169.15c1.47,8.92,2.2,13.38,3.21,16.09c2.9,7.77,7.17,12.83,11.24,17.55
		c2.89,3.36,10.83,12.1,22.47,19.02c11.16,6.64,23.29,10.16,49.76,13.17c7.43,0.84,33,3.58,80.25,2.93
		c22.83-0.32,38.72-1.26,54.57-2.93c23.19-2.44,34.69-5.22,44.94-8.78c12.8-4.44,23.08-8.13,32.1-17.55
		c9.33-9.75,12.77-20.91,14.45-26.33c1.89-6.14,4.36-14.15,3.21-19.02c-9.08-38.39-272.73-7.37-304.96-13.17
		c-1.48-0.27-7.96-1.6-11.24,1.46C176.94,1153.32,176.62,1155.96,178.78,1169.15z"/>
	<g>
		<path class="st1" d="M267.04,1072.02c-1.78,0.02-3.12,0.4-3.62,1.34c-0.22,0.42-0.19,1.11,0.01,1.96
			C264.72,1074.43,266.01,1073.33,267.04,1072.02z"/>
		<path class="st1" d="M400.32,1076.8c0.75-0.82,1.47-1.68,2.09-2.6c-1.33,0.35-2.66,0.69-4,1.03
			C398.95,1075.82,399.57,1076.34,400.32,1076.8z"/>
		<path class="st1" d="M303.6,1176.7c-9.4,0.04-20.62,0.04-32.9-0.07c0.54,1.8,1.5,3.39,3.24,4.34c1.73,0.94,3.85,1.01,5.86,1.02
			c6.91,0.04,13.82-0.27,20.68-0.93c2.75-0.26,5.68-0.66,7.74-2.35c0.65-0.53,1.14-1.16,1.54-1.84c-1.18,0.1-2.36,0.19-3.53,0.3
			C305.3,1177.27,304.41,1177.08,303.6,1176.7z"/>
		<path class="st2" d="M285.62,752.26c1.19-0.04,2.38-0.08,3.57-0.11c2.09-0.82,4.17-1.66,6.22-2.53
			c9.74-4.09,20.21-9.38,23.63-18.65c2.82-7.65,0.02-15.98-2.78-23.64c-9.14-24.98-18.47-49.9-27.92-74.77
			c-1.26,6.29-2.5,12.57-3.76,18.86c-5.52,27.49-14.87,56.36-16.41,84.29c-0.48,8.66,1.11,15.06,4.56,19.78
			C274.55,751.74,280.89,752.42,285.62,752.26z"/>
		<path class="st3" d="M319.04,730.97c-3.42,9.27-13.89,14.55-23.63,18.65c-2.05,0.86-4.13,1.7-6.22,2.53
			c15.45-0.5,30.9-0.92,46.34-1.63c18.37-0.84,36.73-1.97,55.04-3.65c6.73-0.62,15-0.58,19.2,3.7
			c-26.59-94.32-56.46-187.87-89.61-280.45c3.36,9.37-6.28,32.64-8.23,42.68c-3.02,15.56-6.05,31.11-9.1,46.66
			c-4.78,24.37-9.61,48.73-14.48,73.09c9.45,24.88,18.78,49.8,27.92,74.77C319.07,714.99,321.86,723.32,319.04,730.97z"/>
		<path d="M412.55,760.39c-0.15-0.55-0.32-1.1-0.47-1.66c-0.12,0.62-0.28,1.24-0.49,1.85C411.91,760.52,412.23,760.46,412.55,760.39
			z"/>
		<path class="st4" d="M411.28,752.66c-0.42-0.79-0.93-1.48-1.53-2.09c0.77,2.72,1.56,5.44,2.32,8.16
			C412.47,756.66,412.31,754.6,411.28,752.66z"/>
		<path class="st2" d="M272.73,755.48c-0.31,0.63-0.5,1.38-0.52,2.3c0.66-0.17,1.31-0.33,1.97-0.51
			C273.66,756.7,273.18,756.1,272.73,755.48z"/>
		<path class="st2" d="M332.44,811.23c1.7-0.01,3.34,0.51,4.94,1.03c8.34,2.72,16.56,5.72,24.67,8.96
			c16.61-16.34,31.74-33.93,45.1-52.59c1.76-2.46,3.51-5.23,4.44-8.04c-35.66,7.47-72.88,9.91-109.33,6.77
			c-12.88-1.11-22.4-3.93-28.08-10.09c-0.65,0.18-1.31,0.35-1.97,0.51c0,0.01,0,0.01,0,0.02c-0.08,5.11,8.53,14.03,11.47,18.28
			c9.92,14.34,20.75,28.16,32.39,41.38c3.41-1.49,6.81-2.99,10.21-4.49C328.24,812.12,330.28,811.24,332.44,811.23z"/>
		<path class="st2" d="M289.19,752.15c-1.19,0.04-2.38,0.07-3.57,0.11c-4.73,0.16-11.07-0.52-12.89,3.22
			c0.45,0.62,0.93,1.22,1.45,1.78C279.27,755.87,284.28,754.08,289.19,752.15z"/>
		<path class="st2" d="M390.56,746.87c-18.3,1.67-36.66,2.8-55.04,3.65c-15.44,0.71-30.89,1.13-46.34,1.63
			c-4.91,1.93-9.91,3.72-15.01,5.12c5.68,6.17,15.2,8.98,28.08,10.09c36.44,3.14,73.67,0.7,109.33-6.77
			c0.2-0.62,0.37-1.23,0.49-1.85c-0.76-2.72-1.55-5.44-2.32-8.16C405.56,746.29,397.29,746.25,390.56,746.87z"/>
		<path class="st1" d="M392.48,837.02c-0.13,0.21-0.21,0.42-0.27,0.63c1.74-0.15,3.48-0.26,5.23-0.32c-1.12-0.58-2.26-1.13-3.39-1.7
			C393.38,835.96,392.86,836.38,392.48,837.02z"/>
		<path class="st2" d="M339.35,842.02c-8.08-7.92-15.84-16.12-23.27-24.56c-8.1,3.55-16.22,7.06-24.44,10.36
			c-5.64,2.26-11.34,4.36-17.05,6.45c-8.35,3.06-5.44,4.02,1.92,5.23c19.79,3.25,39.98,5.76,60.11,5.23
			c4.69-1.75,12.25-2.55,15.07-1.38c0.21,0.09,0.38,0.2,0.56,0.31c0.93-0.1,1.86-0.2,2.79-0.32c12.44-1.61,24.69-4.65,37.17-5.71
			c0.06-0.21,0.14-0.42,0.27-0.63c0.37-0.63,0.9-1.06,1.57-1.39c-10.42-5.25-21.1-10.06-32-14.41
			C354.76,828.39,347.21,835.36,339.35,842.02z"/>
		<path class="st2" d="M362.05,821.21c-8.11-3.24-16.34-6.23-24.67-8.96c-1.6-0.52-3.24-1.04-4.94-1.03
			c-2.17,0.02-4.2,0.89-6.15,1.75c-3.4,1.5-6.81,3-10.21,4.49c7.43,8.44,15.18,16.64,23.27,24.56
			C347.21,835.36,354.76,828.39,362.05,821.21z"/>
		<path class="st2" d="M360.15,1049.31c-6.27-58.52-8.09-117.43-5.46-176.18c0.34-7.66,0.76-15.33,0.35-22.98
			c-0.13-2.41-0.66-5.21-2.78-6.48c-5.2,0.59-10.41,0.93-15.63,1.07c-0.48,0.18-0.91,0.37-1.32,0.56c-0.04,0.02-0.08,0.04-0.12,0.06
			c-0.39,0.19-0.75,0.4-1.06,0.6c-0.15,0.1-0.29,0.21-0.43,0.31c-0.17,0.14-0.34,0.27-0.46,0.41c-3.33,3.66-1.33,12.01-1.19,16.21
			c0.58,16.92,1.15,33.83,1.73,50.75c1.15,33.84,2.3,67.67,3.46,101.51c0.63,18.58,1.34,37.15,1.9,55.73c0.07,1.98,0.15,4,0.99,5.82
			c0.21,0.45,0.46,0.88,0.75,1.28c0.22,0.3,0.47,0.57,0.73,0.84c0.08,0.09,0.15,0.19,0.24,0.27c0.35,0.34,0.72,0.66,1.13,0.95
			c0.01,0,0.01,0.01,0.02,0.01c0.32,0.23,0.66,0.43,1,0.63c1.86,0.28,3.73,0.54,5.6,0.73c2.89,0.29,5.77,0.39,8.65,0.38
			c1.86-0.44,3.7-1,5.52-1.56C362.5,1069.94,361.26,1059.63,360.15,1049.31z"/>
		<path class="st2" d="M349.57,1081.43c-1.88-0.19-3.74-0.45-5.6-0.73c0.1,0.06,0.19,0.13,0.3,0.19c0,0,0,0,0,0h0
			c1.89,0.16,3.65,0.58,5.04,1.62c0.51,0.07,1.02,0.12,1.53,0.15c2.5,0.11,4.96-0.27,7.38-0.85
			C355.34,1081.82,352.46,1081.72,349.57,1081.43z"/>
		<path class="st2" d="M351.7,843.36c-2.82-1.17-10.38-0.37-15.07,1.38c5.22-0.14,10.43-0.48,15.63-1.07
			C352.08,843.56,351.9,843.44,351.7,843.36z"/>
		<path class="st5" d="M345.14,1081.3c0.15,0.07,0.31,0.14,0.46,0.21c0.27,0.11,0.55,0.21,0.84,0.31c0.2,0.07,0.4,0.13,0.6,0.19
			c0.27,0.08,0.53,0.15,0.8,0.22c0.24,0.06,0.49,0.1,0.73,0.15c0.25,0.05,0.49,0.1,0.74,0.14h0c-1.39-1.05-3.15-1.46-5.04-1.62
			C344.55,1081.04,344.84,1081.17,345.14,1081.3z"/>
		<path class="st2" d="M276.06,1134.05c0.11-0.08,0.2-0.16,0.32-0.24c3.09-1.99,8.43-2.73,12.71-3.58
			c-2.44-3.35-3.97-7.34-5.43-11.18c-2.97-7.78-6.17-15.48-9.61-23.09c-1.37-3.03-9.41-15.34-10.61-20.63
			c-0.89,0.62-1.78,1.16-2.56,1.6c-9.95,5.6-17.39,5.23-32.1,10.24c-2.27,0.77-0.62,0.28-11.24,4.39
			c-4.36,1.69-15.89,6.15-27.29,10.24c-9.55,3.43-20.56,6.7-35.31,11.7c0,0-4.66,1.58-12.84,5.85c-3.1,1.62-4.63,2.58-5.81,3.75
			c9.86,2.55,20.4,3.36,30.69,4.1C203.15,1129.8,239.59,1132.35,276.06,1134.05z"/>
		<path class="st2" d="M286.3,1076.03c8.7,1.44,17.52,2.26,26.36,2.44c6.54,0.14,13.09-0.07,19.59,0.57
			c0.31,0.03,0.63,0.08,0.94,0.12c-0.31-0.23-0.6-0.47-0.87-0.77c-0.85-0.95-1.28-2.14-1.66-3.31c-6.45-19.95-3.09-41.24-2.18-62.02
			c2.3-52.33-11.28-104.92-3.76-156.84c0.42-2.87,0.97-5.88,3.01-8.1c1.53-1.66,4.18-2.6,6.39-2.14c0.31-0.21,0.67-0.41,1.06-0.6
			c0.04-0.02,0.08-0.04,0.12-0.06c0.4-0.2,0.84-0.38,1.32-0.56c-20.13,0.52-40.32-1.98-60.11-5.23c-7.36-1.21-10.28-2.17-1.92-5.23
			c5.71-2.09,11.41-4.19,17.05-6.45c8.22-3.3,16.34-6.81,24.44-10.36c-11.64-13.22-22.47-27.04-32.39-41.38
			c-2.95-4.26-11.55-13.17-11.47-18.28c0-0.01,0-0.01,0-0.02c-6.47,1.64-13.08,2.65-19.8,2.55c6.73,0.1,13.33-0.9,19.8-2.55
			c0.02-0.91,0.21-1.66,0.52-2.3c-3.45-4.72-5.04-11.12-4.56-19.78c1.54-27.93,10.9-56.8,16.41-84.29
			c1.26-6.28,2.51-12.57,3.76-18.86c-1.58-4.15-3.13-8.31-4.71-12.46c1.59,4.15,3.14,8.31,4.71,12.46
			c4.86-24.36,9.7-48.72,14.48-73.09c3.05-15.55,6.08-31.11,9.1-46.66c1.95-10.04,11.59-33.31,8.23-42.68
			c33.16,92.57,63.03,186.13,89.61,280.45c0.6,0.61,1.11,1.3,1.53,2.09c1.03,1.94,1.18,4.01,0.79,6.08c0.15,0.55,0.32,1.1,0.47,1.66
			c-0.32,0.07-0.64,0.13-0.96,0.19c-0.93,2.81-2.68,5.58-4.44,8.04c-13.36,18.65-28.49,36.24-45.1,52.59
			c10.9,4.35,21.58,9.16,32,14.41c1.17-0.58,2.78-0.9,4.85-1.53c0.22-0.07,3.36-1.51,9.63-4.39c4.61-2.12,14.76-7.32,25.68-14.63
			c2.3-1.54,11.92-8.05,24.08-19.02c9.52-8.59,20.9-18.85,32.1-35.11c12.88-18.69,18.65-35.31,20.87-42.42
			c4.54-14.55,5.71-26.21,6.42-33.65c0.28-2.99,1.51-16.59,0-35.11c-1.22-14.92-3.6-25.56-8.03-45.35
			c-1.58-7.08-4.04-17.98-8.03-32.18c-2.54-9.04-10.14-35.28-24.08-68.75c-9.74-23.41-18.66-40.95-22.47-48.27
			c-5.61-10.81-14.67-28.12-28.89-49.74c-7.59-11.54-13.26-19.14-24.08-33.65c0,0-19.79-26.54-36.92-45.35
			c-6.78-7.45-7.82-7.38-14.45-14.63c-0.59-0.64-1.59-1.75-3.21-2.93c-2.71-1.97-6.14-3.42-12.84-4.39
			c-9.08-1.31-16.38-0.62-22.47,0c-4.98,0.51-7.48,0.76-9.63,1.46c-8.5,2.77-13.04,9.17-16.05,13.17
			c-9.89,13.11,2.4-7.22-22.47,24.87c-21.5,27.74-32.1,43.89-32.1,43.89c-24.25,36.92-36.37,55.38-46.55,77.53
			c-11.92,25.95-19.27,49.94-27.29,76.07c-0.8,2.6-4.15,13.38-8.03,27.79c-6.83,25.4-10.24,38.09-11.24,52.66
			c-0.19,2.81-0.59,10-1.61,20.48c-0.74,7.62-1.4,12.92-1.61,14.63c-1.45,12.37-0.91,29.44,1.61,43.89
			c5.24,30.09,19.74,52.57,27.29,62.9c14.26,19.54,29.73,31.4,38.52,38.03c0,0,15.7,11.85,40.13,24.87
			c10.75,5.73,16.12,8.59,17.66,8.78c0.49,0.06,2.42,0.24,3.21,1.46c0.7,1.07,0.18,2.42,0,2.93c0,0,0,0,0,10.24
			c0,7.48,0,33.64,0,33.65c0,21.24,0.03,44.72,1.61,73.14c0.71,12.81,1.3,18.79,1.61,32.18c0.44,19.21-0.56,16.62,0,32.18
			c1.04,29.09,1.56,43.64,1.61,43.89c0.07,0.39,0.26,1.51,0,2.93c-0.27,1.46-0.97,2.74-1.86,3.88
			C272.71,1071.95,283.04,1075.49,286.3,1076.03z"/>
		<path class="st2" d="M385.39,1088.42c-13.51,10.88-19.04,27.55-24.69,43.15c-0.6,1.66-1.36,3.46-2.85,4.47
			c57.49-0.11,114.61-3.92,170.42-14.71c-1.43-1.65-4.09-2.36-7.39-3.45c-3.83-1.26-7.39-3.17-11.24-4.39
			c-10.27-3.26-6.8-2.87-28.89-10.24c-16.66-5.55-18.52-5.74-32.1-10.24c-11.62-3.85-19.55-7.4-28.89-10.24
			c-9.6-2.92-14.4-4.38-14.45-4.39c-0.98-0.13-2.86-0.32-4.82-1.46c-0.07-0.04-0.13-0.08-0.19-0.12
			C396.18,1081.32,390.3,1084.47,385.39,1088.42z"/>
		<path class="st2" d="M352.26,843.67c2.12,1.28,2.65,4.07,2.78,6.48c0.41,7.65-0.01,15.32-0.35,22.98
			c-2.63,58.75-0.8,117.66,5.46,176.18c1.11,10.32,2.35,20.63,3.59,30.94c-1.82,0.56-3.66,1.12-5.52,1.56
			c13.54-0.08,27-3.19,40.18-6.58c-0.99-1.09-1.76-2.44-2.72-4.16c-0.97-1.74-2.57-4.66-3.21-8.78c-0.55-3.53-0.14-6.27,0-7.31
			c0,0,0,0,0-27.79c0-7.31,0-14.63,0-21.94c0-21.94,0-43.89,0-65.83c0-24.38,0-48.76,0-73.14c0-5.85,0-11.7,0-17.55v-5.85
			c-0.2-3.01-0.58-4.18-0.27-5.22c-12.48,1.05-24.73,4.09-37.17,5.71C354.12,843.47,353.19,843.56,352.26,843.67z"/>
		<path class="st6" d="M283.65,1119.05c1.46,3.84,2.99,7.83,5.43,11.18c0.95-0.19,1.87-0.38,2.68-0.6c4.6-1.22,9.28-2.46,14.07-2.43
			s9.8,1.51,12.86,4.87c-1.23,0.87-2.07,2.04-2.69,3.35c0.91,0.04,1.85,0.1,2.84,0.16c13.02,0.32,26.03,0.48,39.02,0.46
			c1.49-1.01,2.25-2.81,2.85-4.47c5.64-15.6,11.18-32.27,24.69-43.15c4.9-3.95,10.79-7.1,14.92-11.62
			c-0.75-0.46-1.37-0.98-1.91-1.57c-13.18,3.39-26.64,6.5-40.18,6.58c-2.42,0.58-4.89,0.96-7.38,0.85
			c-0.51-0.02-1.02-0.07-1.53-0.15c0.11,0.08,0.23,0.15,0.34,0.25c-0.11-0.09-0.23-0.16-0.34-0.25h0c-0.25-0.03-0.49-0.09-0.74-0.14
			c-0.24-0.05-0.49-0.09-0.73-0.15c-0.27-0.06-0.54-0.14-0.8-0.22c-0.2-0.06-0.4-0.12-0.6-0.19c-0.28-0.1-0.56-0.2-0.84-0.31
			c-0.16-0.06-0.31-0.14-0.46-0.21c-0.29-0.13-0.59-0.27-0.87-0.42h0c-3.89-0.34-8.3,0.29-11.08-1.73
			c-0.31-0.03-0.63-0.08-0.94-0.12c-6.5-0.64-13.06-0.43-19.59-0.57c-8.84-0.18-17.66-1-26.36-2.44
			c-3.26-0.54-13.59-4.09-19.26-4.01c-1.03,1.31-2.32,2.41-3.61,3.31c1.2,5.29,9.24,17.6,10.61,20.63
			C277.48,1103.57,280.68,1111.27,283.65,1119.05z"/>
		<path class="st4" d="M289.08,1130.23c-4.28,0.85-9.61,1.59-12.71,3.58c-0.11,0.07-0.21,0.16-0.32,0.24
			c5.89,0.27,11.77,0.52,17.66,0.75c-0.3-0.2-0.6-0.4-0.89-0.63C291.35,1133.03,290.13,1131.68,289.08,1130.23z"/>
		<path class="st4" d="M316,1135.42c0.62-1.3,1.46-2.48,2.69-3.35c-3.06-3.36-8.06-4.84-12.86-4.87s-9.47,1.2-14.07,2.43
			c-0.81,0.21-1.73,0.41-2.68,0.6c1.06,1.45,2.27,2.8,3.75,3.94c0.29,0.22,0.59,0.42,0.89,0.63c5.93,0.23,11.86,0.43,17.78,0.6
			C312.88,1135.31,314.39,1135.35,316,1135.42z"/>
		<path class="st7" d="M528.91,1126.66c0.29-1.09,0.81-2.72,0-4.39c-0.17-0.35-0.39-0.65-0.64-0.94
			c-55.81,10.79-112.92,14.6-170.42,14.71c-0.24,0.16-0.49,0.31-0.77,0.42c-0.04,0.01-0.07,0.02-0.11,0.04
			c10.59,0.19,20.01,0.43,20.04,0.75c0.62,6.04,1.23,12.08,1.85,18.12c0.2,1.93,0.42,3.94,1.49,5.62c1.39,2.18,3.97,3.46,6.08,5.1
			c2.1,1.65,3.87,4.27,2.81,6.6c-0.43,0.94-1.2,1.58-2.14,2.03c9.42-0.38,19.04-0.8,29.47-1.25c19.8-0.86,39.56-3.08,59.39-2.93
			c0,0,7.61,0.06,20.87-1.46c0,0,10.87-1.25,22.47-5.85c2.47-0.98,5.98-2.52,8.03-5.85c1.13-1.84,1.39-3.54,1.61-5.85
			C530.29,1136.94,526.86,1134.39,528.91,1126.66z"/>
		<path class="st7" d="M328,1136.09c2.32,0.05,16.47,0.19,28.98,0.41c0.04-0.01,0.07-0.02,0.11-0.04c0.28-0.12,0.53-0.26,0.77-0.42
			c-12.99,0.02-26-0.14-39.02-0.46C321.61,1135.77,324.67,1136.01,328,1136.09z"/>
		<path class="st8" d="M312.6,1176.64c9.79-0.08,16.54-0.2,18.89-0.25c14.89-0.27,28.04-0.65,41.01-1.12
			C352.53,1174.57,332.51,1175.03,312.6,1176.64z"/>
		<path class="st7" d="M271.52,1146.58c0.51-3.68,1.05-9.95,4.53-12.53c-36.46-1.69-72.9-4.25-109.09-6.85
			c-10.29-0.74-20.82-1.55-30.69-4.1c-0.21,0.21-0.41,0.42-0.61,0.64c-2.02,2.32-2.53,4.7-3.21,10.24c-0.17,1.41-1.53,12.89,0,24.87
			c0.13,1.02,0.37,2.7,1.61,4.39c1.89,2.57,4.95,3.55,8.03,4.39c8.77,2.39,14.45,2.93,14.45,2.93c10.48,1,14.75,0.79,24.08,1.46
			c6.72,0.49,11.02,1.07,14.45,1.46c18.13,2.09,43.68,2.68,57.78,2.93c6.14,0.11,12.11,0.18,17.85,0.23
			c-0.48-1.62-0.63-3.4-0.66-5.06C269.88,1163.23,270.38,1154.87,271.52,1146.58z"/>
		<path class="st7" d="M303.6,1176.7c-1.45-0.67-2.65-1.93-3.26-3.33c-0.96-2.19-0.84-4.63-0.71-6.98
			c0.32-5.79,0.64-11.58,0.96-17.36c0.29-5.26,1.39-8.56,3.21-10.61c-3.67-0.54-7.12-1.62-10.07-3.62
			c-5.89-0.23-11.77-0.48-17.66-0.75c-3.48,2.59-4.02,8.85-4.53,12.53c-1.14,8.29-1.64,16.65-1.49,25c0.03,1.66,0.18,3.44,0.66,5.06
			C282.98,1176.74,294.2,1176.75,303.6,1176.7z"/>
		<path class="st7" d="M311.5,1135.39c-5.93-0.17-11.85-0.37-17.78-0.6c2.95,2,6.4,3.08,10.07,3.62
			C305.64,1136.35,308.23,1135.58,311.5,1135.39z"/>
		<path class="st4" d="M335.18,845.36c-0.39,0.19-0.75,0.39-1.06,0.6h0C334.43,845.76,334.79,845.56,335.18,845.36z"/>
		<path class="st2" d="M342.97,1080.07c-0.01,0-0.01-0.01-0.02-0.01c-0.4-0.29-0.78-0.61-1.13-0.95c-0.09-0.09-0.16-0.18-0.24-0.27
			c-0.26-0.27-0.51-0.54-0.73-0.84c-0.29-0.4-0.54-0.83-0.75-1.28c-0.84-1.82-0.92-3.85-0.99-5.82c-0.56-18.58-1.27-37.15-1.9-55.73
			c-1.15-33.84-2.3-67.67-3.46-101.51c-0.58-16.92-1.15-33.83-1.73-50.75c-0.14-4.2-2.14-12.55,1.19-16.21
			c0.13-0.14,0.29-0.28,0.46-0.41c0.13-0.11,0.28-0.21,0.43-0.31c-2.21-0.46-4.86,0.49-6.39,2.14c-2.04,2.21-2.6,5.23-3.01,8.1
			c-7.52,51.92,6.06,104.51,3.76,156.84c-0.91,20.78-4.27,42.07,2.18,62.02c0.38,1.17,0.81,2.37,1.66,3.31
			c0.27,0.3,0.56,0.55,0.87,0.77c3.61,0.4,7.19,1,10.78,1.55C343.63,1080.5,343.28,1080.3,342.97,1080.07z"/>
		<path class="st2" d="M343.97,1080.7c-3.59-0.54-7.17-1.15-10.78-1.55c2.78,2.03,7.19,1.4,11.08,1.73c0,0,0,0,0,0
			C344.17,1080.83,344.07,1080.76,343.97,1080.7z"/>
		<path class="st9" d="M334.12,845.97L334.12,845.97c-0.15,0.1-0.3,0.21-0.43,0.31C333.83,846.17,333.97,846.07,334.12,845.97z"/>
		<path class="st1" d="M380.36,1175.61c2.24,0.11,4.85,0.02,6.74-0.89c-4.89,0.2-9.73,0.38-14.59,0.56
			C375.12,1175.38,377.74,1175.48,380.36,1175.61z"/>
		<path class="st1" d="M309.76,1176.88c0.95-0.08,1.89-0.16,2.84-0.24c-0.87,0.01-1.77,0.01-2.69,0.02
			C309.86,1176.74,309.8,1176.81,309.76,1176.88z"/>
		<path class="st1" d="M303.6,1176.7c0.81,0.37,1.7,0.57,2.63,0.48c1.18-0.11,2.36-0.2,3.53-0.3c0.04-0.08,0.1-0.14,0.15-0.22
			C307.9,1176.68,305.8,1176.69,303.6,1176.7z"/>
		<path class="st4" d="M318.83,1135.59c-0.99-0.07-1.92-0.12-2.84-0.16c-0.01,0.03-0.03,0.06-0.05,0.09
			C316.91,1135.53,317.87,1135.56,318.83,1135.59z"/>
		<path class="st4" d="M311.5,1135.39c1.48,0.04,2.97,0.08,4.45,0.12c0.01-0.03,0.03-0.06,0.05-0.09
			C314.39,1135.35,312.88,1135.31,311.5,1135.39z"/>
		<path class="st7" d="M389.23,1172.69c1.06-2.33-0.71-4.95-2.81-6.6c-2.1-1.65-4.68-2.92-6.08-5.1c-1.07-1.68-1.29-3.68-1.49-5.62
			c-0.62-6.04-1.23-12.08-1.85-18.12c-0.03-0.31-9.44-0.56-20.04-0.75c-0.9,0.35-1.89,0.41-2.87,0.45
			c-12.08,0.59-24.16,1.18-36.24,1.77c-1,0.05-2.01,0.09-3.03,0.13c-0.09,0.35-0.17,0.69-0.24,1.04c-2.1,9.49-3.21,19.15-3.32,28.83
			c-0.03,2.68-0.1,5.63-1.37,7.94c0.92-0.01,1.82-0.01,2.69-0.02c19.91-1.61,39.93-2.07,59.91-1.36c4.86-0.17,9.7-0.36,14.59-0.56
			C388.03,1174.27,388.8,1173.64,389.23,1172.69z"/>
		<path class="st7" d="M318.83,1135.59c-0.96-0.02-1.92-0.05-2.88-0.08c-0.49,1.06-0.84,2.2-1.12,3.34
			c1.02-0.03,2.03-0.08,3.03-0.13c12.08-0.59,24.16-1.18,36.24-1.77c0.98-0.05,1.97-0.11,2.87-0.45
			c-12.5-0.22-26.65-0.35-28.98-0.41C324.67,1136.01,321.61,1135.77,318.83,1135.59z"/>
		<path class="st7" d="M303.79,1138.42c-1.82,2.04-2.92,5.35-3.21,10.61c-0.32,5.79-0.64,11.58-0.96,17.36
			c-0.13,2.35-0.25,4.79,0.71,6.98c0.62,1.4,1.81,2.67,3.26,3.33c2.21-0.01,4.31-0.02,6.31-0.04c1.27-2.32,1.34-5.26,1.37-7.94
			c0.1-9.68,1.22-19.34,3.32-28.83c0.08-0.34,0.16-0.69,0.24-1.04C311.14,1138.98,307.37,1138.95,303.79,1138.42z"/>
		<path class="st7" d="M311.5,1135.39c-3.27,0.19-5.86,0.96-7.71,3.02c3.58,0.53,7.35,0.56,11.04,0.44
			c0.28-1.14,0.63-2.28,1.12-3.34C314.47,1135.47,312.98,1135.43,311.5,1135.39z"/>
	</g>
	<path class="st1" d="M282.93,1118.98c-2.08,1.71-2.63,4.44-3.05,6.97c-1.24,7.39-2.44,14.83-2.13,22.3
		c0.31,7.47,2.23,15.04,6.76,21.27"/>
	<polygon class="st10" points="267.03,612.02 285.37,631.38 303.18,611.62 302.16,637.95 329.08,636.31 309.29,654.18 
		329.55,671.61 302.59,670.57 304.32,696.87 285.98,677.51 268.17,697.27 269.19,670.94 242.27,672.58 262.06,654.71 241.8,637.28 
		268.76,638.32 	"/>
	<polygon class="st10" points="223.69,764.16 242.03,783.52 259.84,763.76 258.82,790.09 285.74,788.44 265.96,806.32 
		286.21,823.75 259.26,822.71 260.98,849 242.65,829.65 224.83,849.4 225.86,823.08 198.94,824.72 218.72,806.84 198.47,789.41 
		225.42,790.46 	"/>
	<polygon class="st10" points="135.42,499.38 153.75,518.74 171.57,498.98 170.54,525.31 197.46,523.67 177.68,541.54 
		197.94,558.97 170.98,557.93 172.71,584.23 154.37,564.87 136.56,584.63 137.58,558.3 110.66,559.94 130.44,542.07 110.19,524.64 
		137.14,525.68 	"/>
	<polygon class="st10" points="223.69,339.93 242.03,359.29 259.84,339.53 258.82,365.86 285.74,364.21 265.96,382.09 
		286.21,399.52 259.26,398.48 260.98,424.77 242.65,405.42 224.83,425.18 225.86,398.85 198.94,400.49 218.72,382.62 198.47,365.18 
		225.42,366.23 	"/>
	<polygon class="st10" points="326.42,470.13 344.75,489.48 362.57,469.73 361.54,496.05 388.47,494.41 368.68,512.29 
		388.94,529.72 361.98,528.67 363.71,554.97 345.37,535.61 327.56,555.37 328.58,529.04 301.66,530.69 321.45,512.81 301.19,495.38 
		328.15,496.42 	"/>
	<polygon class="st10" points="477.29,607.64 495.63,626.99 513.44,607.23 512.42,633.56 539.34,631.92 519.56,649.79 
		539.81,667.23 512.86,666.18 514.58,692.48 496.25,673.12 478.43,692.88 479.46,666.55 452.54,668.2 472.32,650.32 452.06,632.89 
		479.02,633.93 	"/>
	<polygon class="st10" points="379.38,774.4 397.72,793.76 415.54,774 414.51,800.33 441.43,798.68 421.65,816.56 441.9,833.99 
		414.95,832.95 416.68,859.24 398.34,839.89 380.53,859.64 381.55,833.32 354.63,834.96 374.41,817.08 354.16,799.65 381.11,800.7 	
		"/>
	<polygon class="st10" points="393.83,353.1 412.17,372.45 429.98,352.7 428.96,379.02 455.88,377.38 436.09,395.26 456.35,412.69 
		429.39,411.64 431.12,437.94 412.78,418.59 394.97,438.34 395.99,412.02 369.07,413.66 388.86,395.78 368.6,378.35 395.56,379.39 	
		"/>
	<polygon class="st10" points="303.95,262.4 322.28,281.76 340.1,262 339.07,288.33 365.99,286.68 346.21,304.56 366.47,321.99 
		339.51,320.95 341.24,347.24 322.9,327.89 305.09,347.64 306.11,321.32 279.19,322.96 298.98,305.08 278.72,287.65 305.67,288.7 	
		"/>
	<polygon class="st10" points="262.22,865.1 280.55,884.45 298.37,864.7 297.34,891.02 324.26,889.38 304.48,907.26 324.73,924.69 
		297.78,923.64 299.51,949.94 281.17,930.59 263.36,950.34 264.38,924.02 237.46,925.66 257.24,907.78 236.99,890.35 263.94,891.39 
			"/>
	<polygon class="st10" points="356.91,1008.46 375.25,1027.81 393.06,1008.06 392.04,1034.38 418.96,1032.74 399.18,1050.62 
		419.43,1068.05 392.48,1067 394.21,1093.3 375.87,1073.95 358.05,1093.7 359.08,1067.38 332.16,1069.02 351.94,1051.14 
		331.69,1033.71 358.64,1034.75 	"/>
	<polygon class="st10" points="247.77,971.89 266.11,991.24 283.92,971.49 282.9,997.81 309.82,996.17 290.03,1014.05 
		310.29,1031.48 283.33,1030.43 285.06,1056.73 266.72,1037.37 248.91,1057.13 249.93,1030.8 223.01,1032.45 242.8,1014.57 
		222.54,997.14 249.5,998.18 	"/>
</g>
</svg>
