<?xml version="1.0" encoding="utf-8"?>
<!-- Generator: Adobe Illustrator 25.4.1, SVG Export Plug-In . SVG Version: 6.00 Build 0)  -->
<svg version="1.1" id="Layer_1" xmlns="http://www.w3.org/2000/svg" xmlns:xlink="http://www.w3.org/1999/xlink" x="0px" y="0px"
	 viewBox="0 0 650 1500" style="enable-background:new 0 0 650 1500;" xml:space="preserve">
<style type="text/css">
	.st0{fill:#F97D46;}
	.st1{fill:#F85500;}
	.st2{fill:#F85602;stroke:#000000;stroke-miterlimit:10;}
	.st3{fill:#8DA45A;}
	.st4{fill:#A9C15C;}
	.st5{fill:#D8E289;}
	.st6{fill:#85A261;}
	.st7{fill:#78925A;}
	.st8{fill:#C2D495;}
	.st9{fill:#D0EF18;}
	.st10{fill:#FC1530;}
</style>
<g>
	<path class="st0" d="M244.98,237.56"/>
	<path class="st1" d="M334.25,279.07"/>
	<path class="st2" d="M329.62,288.42"/>
	<g>
		<path class="st3" d="M231.3,1211.52c-44.88-34.83-60.78-99.43-68.69-159.32c-6.4-48.46-9.66-97.67-5.72-146.46
			c5.79-71.7,27.04-141.94,24.55-213.87c-2.12-61.43-21.43-120.28-34.55-180.03c-13.11-59.75-19.7-124.75,2.6-181.08
			c16.95-42.82,50.81-76.68,90.46-92.77c-0.38-0.58-0.68-1.09-0.89-1.42c-5.74-8.99-24.53-7.53-39.67-6.36
			c-11.65,0.9-21.86,1.7-34.37,7.64c-9.51,4.52-15.93,9.91-20.15,13.5c-2.9,2.47-12.99,11.35-22.98,26.64
			c-12.85,19.67-17.7,38.14-20.33,48.48c-5.55,21.77-5.84,39.23-5.94,49.05c-0.17,16.73,2.1,31.61,6.65,60.69
			c3.46,22.11,4.38,23.56,9.31,52.84c3.95,23.46,6.51,41.17,8.71,56.53c4.94,34.43,7.41,51.65,8.79,68.72
			c0.47,5.78,2.39,30.6,1.68,65.79c-0.62,31.13-3,55.48-12.32,126.18c-9.03,68.57-10.11,70.81-15.91,118.61
			c-3.34,27.46-8.15,69.22-8.45,110.96c-0.2,27.44,1.58,49.77,2.03,55.2c0.64,7.71,1.51,18.01,3.33,30.34
			c2.07,14.07,5.71,38.83,16.08,66.36c8.63,22.92,17.06,45.32,37.76,64.58c7.38,6.87,22.18,20.29,44.38,24.03
			c12.95,2.18,22.9,0.14,32.74-1.87c29.15-5.97,49.02-20.78,53.66-24.35c12.52-9.64,21.68-20.3,28.61-30.22
			c-4,2.64-8.22,4.87-12.69,6.53C277.03,1234.97,251.11,1226.89,231.3,1211.52z"/>
		<path class="st4" d="M345.48,273.69c-1.4-4.4-9.59-7.7-25.96-14.29c-20.48-8.25-53.65-17.45-65.81-15.35
			c-1.03,0.18-4.5,0.88-8.14-0.86c-2.81-1.35-4.56-3.6-5.61-5.2c-39.66,16.09-73.52,49.95-90.46,92.77
			c-22.3,56.34-15.71,121.34-2.6,181.08c13.11,59.75,32.43,118.6,34.55,180.03c2.49,71.93-18.77,142.18-24.55,213.87
			c-3.94,48.78-0.68,97.99,5.72,146.46c7.91,59.89,23.81,124.49,68.69,159.32c19.81,15.37,45.73,23.46,68.68,14.92
			c4.47-1.66,8.68-3.89,12.69-6.53c6.24-8.94,10.67-17.29,14.01-23.72c1.25-2.41,2.4-4.78,3.5-7.13
			c11.38-84.44-4.49-172.75-28.29-254.94c-6.01-20.77-12.53-41.39-17.17-62.58c-4.23-19.31-6.88-39-9.52-58.65
			c-8.65-64.63-17.11-130.73-6.09-194.92c10.15-59.11,39.99-117.24,87.35-145.67c-10.44-7.28-39.3-13.12-56.22-35.58
			c-15.04-19.97-18.88-50.34-13.42-74.21C298.37,312.01,351.83,293.61,345.48,273.69z"/>
		<path class="st5" d="M269.11,617.96c-11.02,64.19-2.56,130.29,6.09,194.92c2.63,19.66,5.28,39.34,9.52,58.65
			c4.64,21.19,11.16,41.81,17.17,62.58c23.8,82.18,39.67,170.49,28.29,254.94c10.73-22.96,14.55-43.64,19.76-71.97
			c6.84-37.22,7.18-66.56,6.98-80.81c-0.35-24.65-0.53-36.98-4.52-52.65c-5.66-22.22-13.54-32.31-21.48-62.87
			c-3.34-12.86-5.2-24.19-5.81-27.79c-2.68-15.76-3.63-27.4-4.18-33.56c-0.53-5.91-0.92-9.13-8.97-63.43
			c-11.35-76.59-11.11-73.78-11.79-79.97c-3.64-33.3-4.23-57.07-4.67-77.04c-0.93-41.45,1.24-58.58,4.32-72.97
			c3.13-14.61,7.23-26.44,12.27-37.14c4.7-9.98,9.17-19.45,17.75-28.44c15.75-16.5,29.96-15.26,30.52-22.1
			c0.19-2.3-1.29-4.22-3.92-6.04C309.1,500.72,279.26,558.85,269.11,617.96z"/>
	</g>
	<g>
		<path class="st6" d="M380.07,411.26c19.03-15.2,36.35-33,51.44-52.87c15.33-20.19,28.4-42.56,45.44-60.99
			c9.11-9.85,19.71-18.57,31.25-24.5c-33.02-43.49-126.48-85.78-223.44-2.45c-64.63,55.54-48.76,105.04-22.8,144.93
			c17.06,10.09,34.09,20.87,52.97,22.36C338.51,439.59,360.93,426.54,380.07,411.26z M315.59,312.8
			c1.49-35.52,60.45-70.92,88.84-49.81c35.2,26.18-44.81,70.9-64.94,73.72c-5.04,0.71-10.39,0.08-14.73-2.83
			C318.42,329.62,315.25,320.97,315.59,312.8z"/>
		<path class="st7" d="M510.01,275.35c-0.58-0.82-1.18-1.64-1.8-2.45c-11.54,5.93-22.15,14.65-31.25,24.5
			c-17.05,18.44-30.12,40.8-45.44,60.99c-15.08,19.87-32.4,37.67-51.44,52.87c-19.14,15.28-41.56,28.33-65.13,26.47
			c-18.88-1.49-35.92-12.27-52.97-22.36c10.9,16.75,23.59,31.81,32.84,44.91c31.3,44.31,89.62,51.91,130.27,16.98
			C465.73,442.33,541.31,319.66,510.01,275.35z"/>
		<path class="st8" d="M324.75,333.87c4.34,2.92,9.69,3.54,14.73,2.83c20.13-2.82,100.15-47.54,64.94-73.72
			c-28.39-21.11-87.35,14.29-88.84,49.81C315.25,320.97,318.42,329.62,324.75,333.87z"/>
	</g>
	<polygon class="st9" points="151,265 166.86,281.26 179.91,262.2 180.7,286.07 202.14,282.77 187.4,300.26 204.68,314.66 
		183.04,315.53 186.03,339.18 170.17,322.92 157.12,341.98 156.33,318.11 134.89,321.4 149.63,303.91 132.35,289.52 153.99,288.65 	
		"/>
	<polygon class="st9" points="265.34,534.31 281.2,550.57 294.25,531.52 295.04,555.39 316.48,552.09 301.74,569.58 319.02,583.97 
		297.38,584.84 300.37,608.5 284.51,592.23 271.46,611.29 270.67,587.42 249.23,590.72 263.97,573.23 246.69,558.84 268.33,557.97 	
		"/>
	<polygon class="st9" points="207.75,738.98 223.61,755.24 236.66,736.18 237.45,760.05 258.89,756.75 244.15,774.24 261.43,788.64 
		239.79,789.51 242.78,813.16 226.92,796.9 213.87,815.95 213.08,792.09 191.63,795.38 206.38,777.89 189.1,763.5 210.74,762.63 	
		"/>
	<polygon class="st9" points="111.54,913.26 127.39,929.52 140.45,910.46 141.23,934.33 162.68,931.03 147.94,948.52 165.21,962.92 
		143.57,963.79 146.56,987.44 130.7,971.18 117.65,990.23 116.87,966.37 95.42,969.66 110.16,952.17 92.89,937.78 114.53,936.91 	
		"/>
	<polygon class="st9" points="332.58,1005.74 348.43,1022 361.49,1002.95 362.27,1026.81 383.72,1023.52 368.97,1041.01 
		386.25,1055.4 364.61,1056.27 367.6,1079.92 351.74,1063.66 338.69,1082.72 337.9,1058.85 316.46,1062.15 331.2,1044.66 
		313.93,1030.26 335.56,1029.39 	"/>
	<polygon class="st9" points="137.95,1099.18 153.8,1115.44 166.85,1096.39 167.64,1120.25 189.09,1116.96 174.34,1134.45 
		191.62,1148.84 169.98,1149.71 172.97,1173.36 157.11,1157.1 144.06,1176.16 143.27,1152.29 121.83,1155.59 136.57,1138.1 
		119.3,1123.7 140.93,1122.83 	"/>
	<polygon class="st9" points="173.16,410.96 189.02,427.23 202.07,408.17 202.85,432.04 224.3,428.74 209.56,446.23 226.83,460.63 
		205.2,461.49 208.18,485.15 192.33,468.89 179.27,487.94 178.49,464.08 157.04,467.37 171.79,449.88 154.51,435.49 176.15,434.62 	
		"/>
	<polygon class="st9" points="115.03,585.44 130.89,601.7 143.94,582.64 144.72,606.51 166.17,603.21 151.43,620.7 168.7,635.1 
		147.06,635.97 150.05,659.62 134.2,643.36 121.14,662.42 120.36,638.55 98.91,641.85 113.66,624.36 96.38,609.96 118.02,609.09 	
		"/>
	<polygon class="st10" points="492.85,234.87 511.93,266.88 525.67,231.7 528.02,277.03 552.29,272.36 536.52,304.45 557.11,333.03 
		532.47,333.09 537.31,378.18 518.23,346.16 504.49,381.35 502.14,336.02 477.87,340.69 493.64,308.6 473.05,280.01 497.69,279.96 	
		"/>
</g>
</svg>
