<?xml version="1.0" encoding="utf-8"?>
<!-- Generator: Adobe Illustrator 25.4.1, SVG Export Plug-In . SVG Version: 6.00 Build 0)  -->
<svg version="1.1" id="Layer_1" xmlns="http://www.w3.org/2000/svg" xmlns:xlink="http://www.w3.org/1999/xlink" x="0px" y="0px"
	 viewBox="0 0 650 1500" style="enable-background:new 0 0 650 1500;" xml:space="preserve">
<style type="text/css">
	.st0{fill:#F85500;}
	.st1{fill:#F85602;stroke:#000000;stroke-miterlimit:10;}
	.st2{fill:#8B756D;}
	.st3{fill:#D2B9B0;}
	.st4{fill:#D6BEB5;}
	.st5{fill:#FCFAFA;}
	.st6{fill:#EBEBEB;}
	.st7{fill:#827D7C;}
	.st8{fill:#B9B9B9;}
	.st9{fill:#5F5F5F;}
</style>
<g>
	<path class="st0" d="M388.47,263.19"/>
	<path class="st1" d="M383.28,272.81"/>
	<g>
		<path class="st2" d="M277.3,1219.5c-50.92-35.42-69.26-101.53-78.54-162.86c-7.51-49.63-11.47-100.05-7.29-150.07
			c6.14-73.52,29.78-145.65,26.56-219.35c-2.74-62.94-24.9-123.15-40.06-184.3s-22.97-127.73,1.93-185.61
			c18.92-43.99,57-78.9,101.75-95.63c-0.44-0.6-0.78-1.11-1.02-1.45c-6.54-9.18-27.77-7.57-44.88-6.27
			c-13.16,1-24.71,1.87-38.81,8.04c-10.72,4.69-17.95,10.26-22.7,13.96c-3.26,2.55-14.62,11.71-25.83,27.45
			c-14.41,20.24-19.79,39.2-22.72,49.81c-6.16,22.34-6.38,40.24-6.44,50.31c-0.1,17.15,2.55,32.38,7.86,62.16
			c4.04,22.64,5.08,24.12,10.82,54.1c4.6,24.02,7.59,42.15,10.17,57.88c5.78,35.26,8.67,52.89,10.32,70.38
			c0.56,5.93,2.87,31.34,2.27,67.41c-0.53,31.91-3.09,56.88-13.22,129.39c-9.83,70.34-11.03,72.63-17.33,121.66
			c-3.62,28.17-8.82,71-8.94,113.78c-0.08,28.13,2.06,51,2.6,56.56c0.77,7.9,1.81,18.45,3.93,31.08
			c2.42,14.4,6.67,39.76,18.55,67.92c9.88,23.44,19.54,46.35,43.05,65.96c8.39,7,25.19,20.66,50.3,24.36
			c14.65,2.16,25.89,0.01,37-2.12c32.92-6.3,55.3-21.6,60.52-25.29c14.1-9.96,24.4-20.94,32.17-31.15
			c-4.51,2.73-9.26,5.04-14.3,6.77C329.13,1243.26,299.78,1235.13,277.3,1219.5z"/>
		<path class="st3" d="M401.13,257.61c-1.61-4.5-10.88-7.83-29.42-14.48c-23.2-8.32-60.75-17.55-74.48-15.33
			c-1.16,0.19-5.09,0.93-9.21-0.83c-3.19-1.36-5.18-3.66-6.38-5.29c-44.74,16.73-82.83,51.65-101.75,95.63
			c-24.89,57.88-17.09,124.46-1.93,185.61s37.32,121.36,40.06,184.3c3.21,73.71-20.42,145.83-26.56,219.35
			c-4.18,50.02-0.22,100.44,7.29,150.07c9.28,61.33,27.62,127.44,78.54,162.86c22.48,15.63,51.83,23.76,77.72,14.87
			c5.04-1.73,9.79-4.04,14.3-6.77c7.01-9.21,11.96-17.79,15.71-24.4c1.4-2.48,2.69-4.91,3.92-7.33
			c12.39-86.62-6.05-177.03-33.41-261.11c-6.91-21.25-14.39-42.34-19.76-64.03c-4.89-19.77-8-39.93-11.09-60.06
			c-10.14-66.19-20.08-133.88-7.98-199.74c11.14-60.65,44.55-120.41,97.93-149.84c-11.84-7.4-44.5-13.2-63.75-36.12
			c-17.12-20.37-21.62-51.48-15.58-75.97C348.09,297.18,408.42,277.99,401.13,257.61z"/>
		<path class="st4" d="M316.72,610.93c-12.1,65.86-2.17,133.55,7.98,199.74c3.08,20.13,6.19,40.29,11.09,60.06
			c5.37,21.69,12.85,42.79,19.76,64.03c27.36,84.08,45.8,174.5,33.41,261.11c12-23.59,16.21-44.81,21.94-73.88
			c7.53-38.19,7.75-68.26,7.44-82.87c-0.53-25.26-0.8-37.89-5.4-53.93c-6.52-22.74-15.49-33.03-24.63-64.3
			c-3.85-13.16-6.01-24.76-6.73-28.45c-3.12-16.14-4.25-28.06-4.92-34.37c-0.64-6.05-1.09-9.35-10.49-64.95
			c-13.26-78.43-12.97-75.55-13.77-81.89c-4.3-34.11-5.1-58.46-5.71-78.93c-1.28-42.48,1.07-60.05,4.48-74.81
			c3.46-14.99,8.02-27.14,13.67-38.14c5.26-10.26,10.26-19.99,19.91-29.26c17.72-17.01,33.79-15.82,34.38-22.84
			c0.2-2.36-1.49-4.31-4.46-6.17C361.27,490.52,327.86,550.28,316.72,610.93z"/>
	</g>
	<g>
		<path class="st5" d="M364.87,402.29c-5.22-21.53-4.75-44.11-1.79-66.06c2.06-15.27,5.35-30.49,11.37-44.67
			c10.1-23.82,28.07-44.16,50.26-57.42c-13.41-5.46-19.44-7.55-27.01-5.96c-2.6,0.55-7.86,2.05-13.16,3.94c0,0-7.81,2.79-14.31,6.08
			c-8.34,4.22-21.6,13.43-32.9,27.77c-2.74,3.47-16.01,20.77-21.56,47.67c-4.3,20.84-1.78,36.82,1.94,60.34
			c1.75,11.08,4.49,27.76,12.64,48.18c7.98,19.99,12.07,30.26,22.67,39.8c17.14,15.44,38.24,17.25,52.11,18.44
			c4.76,0.41,10.58,0.9,17,0.57C393.85,463.48,372.71,434.64,364.87,402.29z"/>
		<path class="st6" d="M449.61,274.97c3.36-6.42,7.22-12.72,12.58-17.61c2.25-2.05,4.81-3.81,7.55-5.17
			c-4.86-1.7-16.38-6.39-37.03-14.79c-2.95-1.2-5.58-2.28-8-3.27c-22.19,13.27-40.16,33.6-50.26,57.42
			c-6.02,14.19-9.3,29.4-11.37,44.67c-2.97,21.96-3.44,44.53,1.79,66.06c7.84,32.34,28.98,61.18,57.26,78.68
			c7.06-0.36,14.84-1.72,22.79-5.31c4.93-2.23,5.85-3.48,15.46-8.21c5.24-2.58,9.26-4.33,12.59-5.68
			c-3.84-3.35-7.13-7.38-10.16-11.51C426.31,400.46,420.98,329.67,449.61,274.97z"/>
		<path class="st7" d="M491.14,317.42c-0.2,3.5-4.68,8.04-6.02,10.53c-5,9.28-6.98,20.03-6.67,30.5
			c0.39,13.07,4.18,25.83,9.12,37.94c1.3,3.19,2.69,6.43,3.28,9.79c2.06-9.98,4.12-19.97,6.18-29.95
			c1.66-8.06,3.34-16.22,3.06-24.45c-0.38-11.04-4.24-21.63-8.06-32C491.75,319,491.45,318.21,491.14,317.42z"/>
		<path class="st8" d="M506.02,272.79c-1.86-2.08-5.83-6.46-12.16-10.69c-8.49-5.67-15.72-7.39-22.52-9.38
			c-0.42-0.12-0.95-0.3-1.6-0.53c-2.74,1.36-5.3,3.12-7.55,5.17c-5.36,4.89-9.22,11.18-12.58,17.61
			c-28.63,54.7-23.3,125.49,13.21,175.29c3.03,4.13,6.31,8.16,10.16,11.51c6.11-2.48,9.88-3.6,14.38-5.98
			c12.9-6.82,19.61-17.52,25.83-27.45c12.2-19.46,14.42-37.73,16.3-53.26c3.35-27.55-0.82-48.71-2.6-56.56
			C524.59,308.39,519.79,288.18,506.02,272.79z M500.1,351.79c0.28,8.23-1.39,16.38-3.06,24.45c-2.06,9.98-4.12,19.97-6.18,29.95
			c0.16,0.89,0.27,1.78,0.3,2.68c-0.05-1.76-3.63-5.69-4.54-7.34c-1.38-2.52-2.63-5.11-3.75-7.76c-2.3-5.43-4.04-11.09-5.22-16.86
			c-3.83-18.73-2.3-42.54,7.46-59.51c1.36-2.36,3.76-5.8,5.75-1.66c0.25,0.52,0.32,1.08,0.29,1.67c0.31,0.79,0.6,1.58,0.9,2.38
			C495.86,330.16,499.72,340.75,500.1,351.79z"/>
		<path class="st9" d="M487.58,396.4c-4.94-12.11-8.73-24.87-9.12-37.94c-0.31-10.47,1.67-21.22,6.67-30.5
			c1.34-2.49,5.82-7.04,6.02-10.53c-0.37-0.96-0.77-1.91-1.21-2.84c-0.1,0.7-0.2,1.4-0.3,2.1c0.1-0.7,0.2-1.4,0.3-2.1
			c0.45,0.93,0.84,1.88,1.21,2.84c0.03-0.59-0.04-1.16-0.29-1.67c-1.99-4.14-4.39-0.7-5.75,1.66c-9.77,16.97-11.29,40.78-7.46,59.51
			c1.18,5.77,2.92,11.44,5.22,16.86c1.12,2.65,2.37,5.24,3.75,7.76c0.91,1.65,4.49,5.58,4.54,7.34c-0.03-0.91-0.14-1.8-0.3-2.68
			c-0.07,0.36-0.15,0.72-0.22,1.09c0.07-0.36,0.15-0.72,0.22-1.09C490.27,402.82,488.88,399.59,487.58,396.4z"/>
	</g>
</g>
</svg>
