<?xml version="1.0" encoding="utf-8"?>
<!-- Generator: Adobe Illustrator 25.4.1, SVG Export Plug-In . SVG Version: 6.00 Build 0)  -->
<svg version="1.1" id="Layer_1" xmlns="http://www.w3.org/2000/svg" xmlns:xlink="http://www.w3.org/1999/xlink" x="0px" y="0px"
	 viewBox="0 0 900 300" style="enable-background:new 0 0 900 300;" xml:space="preserve">
<path d="M844.56,166.19c-1.26-3.7-5.3-15.01-16.94-22.56c-2.59-1.68-12.45-8.1-24.2-6.27c-5.92,0.92-11.61,3.96-22.99,10.03
	c-5.81,3.1-8.6,4.98-13.31,5.01c-7.16,0.05-12.38-4.23-13.31-5.01c-3.74-3.16-4.45-6.02-8.47-13.79c-3.24-6.25-6.24-12.04-9.68-16.3
	c-6.32-7.81-14.33-10.68-22.99-13.79c-9.92-3.56-19.45-6.97-30.25-3.76c-8.53,2.54-16.16,8.7-19.36,11.28
	c-4.42,3.57-5.81,5.56-10.89,8.77c-3.76,2.38-8.21,5.13-14.52,6.27c-3.96,0.71-10.14,1.83-15.73-1.25
	c-4.01-2.21-4.57-4.83-10.89-15.04c-2.38-3.84-6.96-11.25-12.1-17.55c-3.9-4.78-8.56-10.5-15.73-15.04
	c-11.92-7.55-24.01-7.53-30.25-7.52c-5.42,0.01-17.41,0.18-30.25,7.52c-5.3,3.03-12.93,7.39-18.15,16.3
	c-3.89,6.63-2.92,9.76-7.26,13.79c-7.31,6.79-17.95,5.24-19.36,5.01c-7.36-1.18-12.21-5.44-14.52-7.52
	c-4.51-4.06-3.99-5.86-9.68-12.53c-2.62-3.08-6.37-7.47-12.1-11.28c-6.19-4.11-11.67-5.53-19.36-7.52
	c-7.76-2.01-11.64-3.01-16.94-2.51c-8.44,0.81-14.48,4.66-16.94,6.27c-3.96,2.59-6.68,5.49-12.1,11.28
	c-4.98,5.32-6.79,8.11-12.1,12.53c-2.78,2.32-4.5,3.72-7.26,5.01c-4.38,2.05-8.07,2.24-13.31,2.51c-6.08,0.31-9.12,0.47-12.1-1.25
	c-2.38-1.38-1.8-2.14-6.05-6.27c-1.07-1.04-4.58-4.37-9.68-7.52c-2.57-1.59-4.48-2.77-7.26-3.76c-6.57-2.34-12.3-1.57-14.52-1.25
	c-6.45,0.93-10.96,3.59-13.31,5.01c-1.33,0.8-4.11,3.04-9.68,7.52c-5.45,4.39-6.46,5.4-7.26,6.27c-2.93,3.16-6.05,7.52-6.05,7.52
	c0,0-7.23,2.52-14.52,2.51c-4.48-0.01-8.09-0.02-10.89-2.51c-3.08-2.74-2.07-5.71-4.84-11.28c-0.87-1.75-1.95-3.43-8.47-10.03
	c-6.98-7.07-10.47-10.61-14.52-13.79c-7.49-5.89-13.96-9.18-18.15-11.28c-7.28-3.65-15.92-7.99-27.83-10.03
	c-3-0.51-18.47-2.98-37.51,2.51c-10.23,2.95-16.97,6.89-26.62,12.53c-11.54,6.75-18.16,10.71-24.2,18.8
	c-4.55,6.09-6.56,11.55-9.68,20.06c-2.26,6.16-6.01,16.36-7.26,28.83c-0.64,6.35-2.45,27.09,8.47,48.89
	c10.55,21.06,27.01,31.16,37.51,37.6c7.59,4.66,18.34,11.12,33.88,13.79c8.08,1.39,34.83,4.74,60.5-12.53
	c3.84-2.59,19.26-13.09,27.83-31.34c8.58-18.25,12.86-27.38,13.31-30.08c0.31-1.9,1.03-7,4.84-10.03c2.68-2.13,5.73-2.29,9.68-2.51
	c2.82-0.15,8.64-0.47,14.52,2.51c4.99,2.53,5.85,5.31,9.68,8.77c11.4,10.28,28.43,7.81,30.25,7.52c4.88-0.78,14.75-2.35,20.57-10.03
	c2.62-3.46,3.56-7.01,8.47-11.28c1.72-1.5,4.36-3.75,8.47-5.01c0.81-0.25,6.35-1.88,12.1,0c6.41,2.1,9.44,7.36,13.31,12.53
	c2.83,3.78,11.85,15.81,22.99,21.31c11.86,5.85,24.28,3.39,35.09,1.25c7.64-1.51,13.59-2.69,19.36-7.52
	c5-4.18,10.51-11.64,12.1-13.79c3.63-4.91,4.31-6.66,7.26-8.77c5.89-4.23,12.33-3.84,13.31-3.76c6.56,0.5,10.93,4.2,13.31,6.27
	c7.51,6.54,8.9,13.74,12.1,20.06c10.04,19.81,35.11,25.5,38.72,26.32c4.82,1.09,23.33,4.67,41.14-5.01
	c13.64-7.42,21.78-18.8,21.78-18.8c4.11-5.75,4.36-8.34,8.47-11.28c7.6-5.43,19.53-5.74,26.62,0c3.47,2.81,3.6,5.31,7.26,12.53
	c4.76,9.41,10.97,17.84,15.73,22.56c12.88,12.78,30.56,13.68,33.88,13.79c3.19,0.1,27.82,0.61,38.72-15.04
	c3.33-4.78,3.73-8.7,8.47-11.28c6.31-3.44,14.88-1.55,20.57,2.51c5.42,3.86,5.02,7.4,9.68,13.79c0.69,0.94,12.59,16.73,31.46,17.55
	c12.09,0.53,21-5.35,24.2-7.52c3.43-2.33,11.4-7.9,15.73-18.8C849.97,182.66,845.94,170.25,844.56,166.19z M811.7,203.65
	c-23.71,5.26-42.12-30.67-65.91-25.8c-11.84,2.42-19.81,14.42-31.26,18.36c-15.84,5.45-32.24-5.88-44.43-17.7
	c-12.18-11.82-25.08-25.64-41.76-26.41c-29.28-1.35-50.02,38.24-79.12,34.66c-32.07-3.95-44.23-56.87-76.51-56.08
	c-14.28,0.35-25.67,11.73-36.3,21.61c-10.63,9.87-24.44,19.48-38.17,15.41c-20.42-6.05-27.7-38.71-48.92-39.37
	c-18.37-0.57-30.15,24.48-48.53,24.36c-8.65-0.05-16.15-5.81-24.14-9.24c-16.64-7.14-36.34-3.93-51.84,5.58
	c-15.5,9.51-27.15,24.69-35.66,41.14c-6.74,13.03-12.94,28.29-26.16,33.87c-14.94,6.3-31.89-3.04-43.28-14.87
	c-24.66-25.61-35.13-67.15-19.66-99.58c15.48-32.42,59.4-48.52,88.38-28.36c17.97,12.5,30.56,44.32,53.44,48.05
	c10.78,1.76,19.2-7.07,27.88-12.25c10.17-6.07,21.49-10.39,33.4-8.86c11.47,1.47,21.64,8.05,32.27,12.74
	c10.64,4.69,23.41,7.4,33.38,1.34c8.55-5.19,13.16-15.75,21.9-20.58c11-6.07,24.5-1.16,35.64,4.62
	c11.97,6.21,23.62,13.45,36.55,17.05c12.93,3.6,27.78,3.03,38.41-5.4c8.86-7.02,13.55-18.36,21.72-26.21
	c14.53-13.96,39.85-13.29,53.68,1.41c13.57,14.43,17.05,39.6,35.21,46.79c14.35,5.69,29.72-3.28,43.97-9.2
	c20.95-8.7,48.11-9.57,62.95,8.05c8.08,9.6,12.24,24.17,23.92,28.16c13.46,4.6,26.03-8.04,39.03-13.88
	c14.71-6.6,34.13-3.11,43.13,10.63C833.93,177.44,827.37,200.17,811.7,203.65z"/>
</svg>
